%FSTAX23Y23*%
%MOIN*%
%SFA1B1*%

%IPPOS*%
%ADD11C,0.023620*%
%ADD13C,0.007870*%
%ADD15C,0.010000*%
%ADD17R,0.055000X0.040000*%
%ADD18R,0.023620X0.007870*%
%ADD19R,0.015750X0.070870*%
%ADD20R,0.059060X0.059060*%
%ADD21R,0.040000X0.055000*%
%ADD22R,0.068900X0.025590*%
%ADD23R,0.036000X0.057000*%
%ADD24R,0.078740X0.043310*%
%ADD25R,0.043310X0.078740*%
%ADD26O,0.066930X0.011810*%
%ADD27O,0.011810X0.066930*%
%ADD49C,0.031500*%
%ADD50C,0.019680*%
%ADD51C,0.027560*%
%ADD52R,0.141100X0.147070*%
%ADD53R,0.360000X0.040000*%
%ADD54R,0.070000X0.476970*%
%ADD55R,0.205000X0.051970*%
%ADD56R,0.101380X0.175000*%
%ADD57R,0.055000X0.305000*%
%ADD58R,0.515000X0.070000*%
%ADD59R,0.148890X0.195000*%
%ADD60R,0.320000X0.140000*%
%ADD61R,1.152440X0.105000*%
%ADD62R,0.290000X0.195000*%
%ADD63R,0.124750X0.098430*%
%ADD64R,0.293000X0.085000*%
%ADD65R,0.085000X0.220000*%
%ADD66R,0.385000X0.043940*%
%ADD67R,0.165790X0.415000*%
%ADD68R,0.149210X0.170000*%
%ADD69C,0.060000*%
%ADD70R,0.059060X0.059060*%
%ADD71C,0.059060*%
%ADD72C,0.137800*%
%ADD73C,0.043310*%
%ADD74C,0.045280*%
%ADD75R,0.085630X0.085630*%
%ADD76C,0.085630*%
%ADD77C,0.031500*%
%ADD78C,0.050000*%
%LN3phasedriver-1*%
%LPD*%
G54D11*
X05935Y03565D02*
Y037D01*
X05992Y03472D02*
X06011Y03453D01*
X05992Y03472D02*
Y03507D01*
X05935Y03565D02*
X05992Y03507D01*
X06011Y03342D02*
Y03453D01*
X06003Y03334D02*
X06011Y03342D01*
X05985Y02975D02*
Y03101D01*
X06003Y0312*
X04845Y03345D02*
Y03468D01*
X04835Y03335D02*
X04845Y03345D01*
X0476Y03335D02*
X04835D01*
X05918Y02961D02*
X05971D01*
X05985Y02975*
X06003Y0312D02*
Y03334D01*
X05805Y0383D02*
X05935Y037D01*
X05805Y0383D02*
Y0395D01*
X0546Y02855D02*
Y03185D01*
X05918Y02886D02*
Y02961D01*
Y02886D02*
X0595Y02855D01*
Y0278D02*
Y02855D01*
X05245D02*
X0536D01*
X0524Y028D02*
Y0285D01*
Y0275D02*
Y028D01*
Y027D02*
Y0275D01*
X0476Y03124D02*
Y03185D01*
X05009Y0326D02*
Y0331D01*
Y0321D02*
Y0326D01*
X05005Y03314D02*
Y0349D01*
X04922Y03755D02*
X05014D01*
X04905Y03738D02*
X04922Y03755D01*
X04905Y0366D02*
Y03738D01*
X05014Y03755D02*
Y03805D01*
Y03705D02*
Y03755D01*
X04795Y03825D02*
X04875D01*
X0476Y03285D02*
Y03335D01*
Y03235D02*
Y03285D01*
Y03185D02*
Y03235D01*
X04795Y03639D02*
X04845Y0359D01*
X04795Y03639D02*
Y03675D01*
Y03775D02*
Y03825D01*
Y03725D02*
Y03775D01*
Y03675D02*
Y03725D01*
X04095Y03685D02*
Y0376D01*
X0406Y03649D02*
X04095Y03685D01*
X04475Y03375D02*
X04534D01*
X04539Y03335D02*
Y03369D01*
Y03285D02*
Y03335D01*
Y03235D02*
Y03285D01*
X0534Y03735D02*
X05395D01*
X0531Y03705D02*
X0534Y03735D01*
X05235Y03705D02*
X0531D01*
X05235Y03755D02*
Y03805D01*
Y03705D02*
Y03755D01*
Y03655D02*
Y03705D01*
Y03805D02*
Y0385D01*
X04585Y03865D02*
X0522D01*
X04095Y0376D02*
Y03845D01*
X03875Y03755D02*
X0409D01*
G54D13*
X0588Y03458D02*
X05918D01*
X03878Y0398D02*
X04647D01*
X04655Y03971*
Y03921D02*
Y03971D01*
X04095Y03845D02*
X04098D01*
X0378Y02565D02*
X03785Y0257D01*
X03878*
X03952D02*
X04033D01*
X04171D02*
X04263D01*
X03346Y02771D02*
X03356Y02762D01*
X03415*
X03454Y02565D02*
X0347D01*
X03366Y02653D02*
X03454Y02565D01*
X03366Y02653D02*
Y02722D01*
X03354Y02734D02*
X03366Y02722D01*
X03322Y02734D02*
X03354D01*
X0327Y02565D02*
X0337D01*
Y0261*
X0335Y02629D02*
X0337Y0261D01*
X0335Y02629D02*
Y02715D01*
X03347Y02718D02*
X0335Y02715D01*
X03322Y02718D02*
X03347D01*
X0329Y0279D02*
X03293Y02786D01*
Y02695D02*
Y02786D01*
Y02643D02*
Y02695D01*
X03287Y02637D02*
X03293Y02643D01*
X03227Y02637D02*
X03287D01*
X03195Y02605D02*
X03227Y02637D01*
X03165Y02734D02*
X03263D01*
X03168Y02718D02*
X03263D01*
X03875Y03076D02*
Y0314D01*
X03871Y03072D02*
X03875Y03076D01*
X03871Y03007D02*
Y03072D01*
X03563Y02688D02*
X03631Y02756D01*
X04845Y03564D02*
Y0359D01*
X04914Y03145D02*
X04926Y03157D01*
Y0316*
X0467Y0313D02*
Y03349D01*
X04647Y03372D02*
X0467Y03349D01*
X04647Y03372D02*
Y0347D01*
Y03545D02*
X0471D01*
X0474Y03515*
X04536Y03545D02*
X04573D01*
X04431Y0344D02*
X04536Y03545D01*
X0422Y0344D02*
X04431D01*
X04505Y0347D02*
X04573D01*
X04462Y03427D02*
X04505Y0347D01*
X04225Y03427D02*
X04462D01*
X04982Y03515D02*
X05014Y03547D01*
X0474Y03515D02*
X04982D01*
X05345Y03081D02*
Y0316D01*
X05425Y0324*
X05525*
X0556Y03205*
X0578*
X05857Y03127*
X05918*
X04701Y03046D02*
X04788D01*
X0413Y02928D02*
X04248D01*
X0524Y0266D02*
Y027D01*
X0523Y0265D02*
X0524Y0266D01*
X0468Y0265D02*
X0523D01*
X04655Y02675D02*
X0468Y0265D01*
X04655Y02675D02*
Y02713D01*
X04618Y0275D02*
X04655Y02713D01*
X04529Y0275D02*
X04618D01*
X05695Y0254D02*
X05705Y0255D01*
X05701Y03127D02*
X05717D01*
X05701Y02961D02*
X05705Y02958D01*
X0524Y0285D02*
X05245Y02855D01*
X05019Y028D02*
Y0285D01*
Y0275D02*
Y028D01*
X04862Y0297D02*
X049D01*
X04915Y02955*
Y0288D02*
Y02955D01*
Y0288D02*
X0493Y02865D01*
Y0271D02*
Y02865D01*
Y0271D02*
X0494Y027D01*
X05019*
X0476Y03124D02*
X04765Y0312D01*
X04804*
X04825Y03099*
Y0292D02*
Y03099D01*
X04809Y02905D02*
X04825Y0292D01*
X0477Y02905D02*
X04809D01*
X0475Y02885D02*
X0477Y02905D01*
X0475Y0285D02*
Y02885D01*
Y028D02*
Y0285D01*
Y0275D02*
Y028D01*
Y027D02*
Y0275D01*
X05005Y03314D02*
X05009Y0331D01*
X04926Y0316D02*
X05009D01*
X05014Y03547D02*
Y03655D01*
X04013Y03523D02*
X04025Y03535D01*
X04013Y03479D02*
Y03523D01*
X04033Y0314D02*
Y03413D01*
X0406Y0344D02*
Y03649D01*
X04033Y03413D02*
X0406Y0344D01*
X04407Y03675D02*
X04574D01*
X04132Y0273D02*
X04165D01*
X04175Y0274*
Y02883*
X0413Y02928D02*
X04175Y02883D01*
X0399Y03013D02*
X04001Y03002D01*
X0413*
X0394Y03195D02*
X03965D01*
X03902D02*
X0394D01*
Y03235*
X03954Y0334D02*
Y03479D01*
X03893Y0319D02*
X03895Y03188D01*
X03893Y0319D02*
Y03293D01*
X04132Y02687D02*
Y0273D01*
X0413Y02685D02*
X04132Y02687D01*
X04016Y02685D02*
X0413D01*
X03996Y02705D02*
X04016Y02685D01*
X0396Y02705D02*
X03996D01*
X03873D02*
X0396D01*
X0397Y02715*
Y0278*
X03933Y02817D02*
X0397Y0278D01*
X03925Y02817D02*
X03933D01*
X0308Y02565D02*
Y026D01*
Y02565D02*
X0309Y02555D01*
X0317*
X03195Y0258*
Y02605*
X0346Y02688D02*
X03505D01*
X03415D02*
X0346D01*
X03459Y02688D02*
X0346Y02688D01*
X03459Y02688D02*
Y0279D01*
X03445Y02805D02*
X03459Y0279D01*
X03305Y02805D02*
X03445D01*
X0329Y0279D02*
X03305Y02805D01*
X03472D02*
X03498D01*
X03457Y0282D02*
X03472Y02805D01*
X03292Y0282D02*
X03457D01*
X03203Y02805D02*
X03277D01*
X03292Y0282*
X03505Y02688D02*
X03563D01*
X03631Y02756D02*
Y02773D01*
X03672Y02815*
X03768*
X03153Y02734D02*
X03165D01*
Y02766*
X03203Y02805*
X03498D02*
X03503Y028D01*
X03505*
Y02762D02*
Y028D01*
X0347Y02565D02*
X0357D01*
X0316Y0271D02*
X03168Y02718D01*
X0316Y02686D02*
Y0271D01*
X03139Y02665D02*
X0316Y02686D01*
X03139Y026D02*
Y02665D01*
X03145Y02726D02*
X03153Y02734D01*
X03145Y027D02*
Y02726D01*
X0312Y02675D02*
X03145Y027D01*
X0304Y02675D02*
X0312D01*
X0302Y02655D02*
X0304Y02675D01*
X0302Y026D02*
Y02655D01*
X0444Y027D02*
X04529D01*
X04435Y02705D02*
X0444Y027D01*
X04435Y02705D02*
Y03028D01*
X04431Y03031D02*
X04435Y03028D01*
X04379Y03031D02*
X04431D01*
X04529Y028D02*
Y0285D01*
Y0275D02*
Y028D01*
X0452Y02859D02*
X04529Y0285D01*
X0452Y02859D02*
Y03095D01*
X0451Y03104D02*
X0452Y03095D01*
X04372Y03104D02*
X0451D01*
X04538Y03185D02*
X04539Y03185D01*
X04463Y03185D02*
X04538D01*
X04434Y03215D02*
X04463Y03185D01*
X04382Y03215D02*
X04434D01*
X04349Y03104D02*
X04372D01*
X0434Y03095D02*
X04349Y03104D01*
X0434Y0299D02*
Y03095D01*
X04333Y02983D02*
X0434Y0299D01*
X04277Y02983D02*
X04333D01*
X04257Y03004D02*
X04277Y02983D01*
X04257Y03004D02*
Y03024D01*
X04244Y03037D02*
X04257Y03024D01*
X04244Y03037D02*
Y0315D01*
X04226Y03168D02*
X04244Y0315D01*
X04226Y03168D02*
Y0318D01*
X04205Y03201D02*
X04226Y0318D01*
X04094Y03201D02*
X04205D01*
X04268Y03031D02*
X04305D01*
X04257Y03042D02*
X04268Y03031D01*
X04257Y03042D02*
Y03156D01*
X04239Y03174D02*
X04257Y03156D01*
X04239Y03174D02*
Y03187D01*
X04222Y03204D02*
X04239Y03187D01*
X04222Y03204D02*
Y03217D01*
X04218Y03221D02*
X04222Y03217D01*
X04094Y03221D02*
X04218D01*
X0399Y03013D02*
Y03075D01*
X04274Y03104D02*
X04308D01*
X0427Y03109D02*
X04274Y03104D01*
X0427Y03109D02*
Y03161D01*
X04252Y03179D02*
X0427Y03161D01*
X04252Y03179D02*
Y03192D01*
X04235Y0321D02*
X04252Y03192D01*
X04235Y0321D02*
Y0324D01*
X04233Y03241D02*
X04235Y0324D01*
X04094Y03241D02*
X04233D01*
X04345Y03263D02*
X04372Y0329D01*
X04345Y03178D02*
Y03263D01*
X04337Y0317D02*
X04345Y03178D01*
X0428Y0317D02*
X04337D01*
X04265Y03185D02*
X0428Y0317D01*
X04265Y03185D02*
Y032D01*
X0425Y03215D02*
X04265Y032D01*
X0425Y03215D02*
Y0325D01*
X04239Y0326D02*
X0425Y0325D01*
X04094Y0326D02*
X04239D01*
X04275Y03215D02*
X04308D01*
X04265Y03225D02*
X04275Y03215D01*
X04265Y03225D02*
Y03265D01*
X04249Y0328D02*
X04265Y03265D01*
X04094Y0328D02*
X04249D01*
X0523Y0331D02*
X05234Y03315D01*
X0523Y0331D02*
X0523Y0331D01*
X04534Y03375D02*
X04539Y03369D01*
X04534Y0329D02*
X04539Y03285D01*
X04372Y0329D02*
X04534D01*
X0428D02*
X04308D01*
X04269Y033D02*
X0428Y0329D01*
X04094Y033D02*
X04269D01*
X0522Y03865D02*
X05235Y0385D01*
X04574Y03854D02*
X04585Y03865D01*
X04569Y0372D02*
X04574Y03725D01*
X04375Y0372D02*
X04569D01*
X04372Y03717D02*
X04375Y0372D01*
X04372Y03635D02*
Y03717D01*
Y03635D02*
X04375Y03632D01*
Y03535D02*
Y03632D01*
X0437Y0353D02*
X04375Y03535D01*
X04342Y0353D02*
X0437D01*
X04335Y03523D02*
X04342Y0353D01*
X04335Y0347D02*
Y03523D01*
Y0337D02*
Y03378D01*
X0432Y03355D02*
X04335Y0337D01*
X0429Y03355D02*
X0432D01*
X04254Y03319D02*
X0429Y03355D01*
X04094Y03319D02*
X04254D01*
X04295Y03614D02*
Y0367D01*
X043Y03675*
X04333*
X04249Y03339D02*
X04288Y03378D01*
X04094Y03339D02*
X04249D01*
X0422Y03515D02*
X04235Y0353D01*
X04278*
X04094Y03359D02*
X04224D01*
X0425Y03385*
X04625Y0297D02*
X04788D01*
X0461Y02985D02*
X04625Y0297D01*
X0461Y02985D02*
Y03385D01*
X0458Y03414D02*
X0461Y03385D01*
X04234Y03414D02*
X0458D01*
X04198Y03378D02*
X04234Y03414D01*
X04094Y03378D02*
X04198D01*
X04196Y03398D02*
X04225Y03427D01*
X04094Y03398D02*
X04196D01*
X04198Y03418D02*
X0422Y0344D01*
X04094Y03418D02*
X04198D01*
X03472Y03092D02*
X0349Y03075D01*
X03429Y03092D02*
X03472D01*
X03512Y031D02*
X0352D01*
X0355Y02815D02*
Y03192D01*
X03564Y02835D02*
Y03188D01*
X03577Y03023D02*
Y0318D01*
X0359Y03019D02*
Y0316D01*
X03605Y03044D02*
Y0315D01*
X03617Y03054D02*
Y03114D01*
X03633Y0313*
X03617Y03054D02*
X03641Y03031D01*
X03491Y03035D02*
X03515D01*
X03462Y03063D02*
X03491Y03035D01*
X03446Y0306D02*
X0348Y03027D01*
X03429Y0306D02*
X03446D01*
X0348Y02995D02*
Y03027D01*
X03462Y03063D02*
Y0307D01*
X03456Y03076D02*
X03462Y0307D01*
X03512Y031D02*
X03512Y031D01*
X0341Y03545D02*
X0342Y03535D01*
X03382Y03556D02*
X034Y03573D01*
X03382Y03533D02*
X034Y03516D01*
Y0347D02*
Y03516D01*
Y03573D02*
Y03615D01*
X03382Y03533D02*
Y03556D01*
X04015Y0368D02*
X04042Y03707D01*
X04015Y03581D02*
Y0368D01*
X0397Y03705D02*
X0399Y03685D01*
Y03592D02*
Y03685D01*
X03797Y03669D02*
X03801Y03674D01*
X03797Y03615D02*
Y03669D01*
X04002Y03586D02*
Y03707D01*
X03993Y03559D02*
X04015Y03581D01*
X03993Y03479D02*
Y03559D01*
X04002Y03707D02*
X04005Y0371D01*
X03974Y03557D02*
X04002Y03586D01*
X03974Y03479D02*
Y03557D01*
X03954Y03705D02*
X0397D01*
X03954Y03556D02*
X0399Y03592D01*
X03954Y03479D02*
Y03556D01*
X03893Y03587D02*
Y0363D01*
Y03587D02*
X03915Y03564D01*
Y03479D02*
Y03564D01*
X03957Y03587D02*
Y0363D01*
X03934Y03564D02*
X03957Y03587D01*
X03934Y03479D02*
Y03564D01*
X0409Y03755D02*
X04095Y0376D01*
X03855Y03735D02*
X03875Y03755D01*
X03855Y03551D02*
Y03735D01*
X04055Y0286D02*
X04058Y02857D01*
Y02805D02*
Y02857D01*
X041Y0289D02*
X04132Y02858D01*
X04011Y0289D02*
X041D01*
X03965Y0288D02*
X04001D01*
X04011Y0289*
X03605Y03044D02*
X03645Y03004D01*
Y02983D02*
Y03004D01*
X0355Y02815D02*
X0359Y02775D01*
X03564Y02835D02*
X03585Y02815D01*
X03577Y02859D02*
X03587Y0285D01*
X03577Y02859D02*
Y03023D01*
X03638Y02926D02*
X03639Y02925D01*
Y0287D02*
Y02925D01*
X03551Y03567D02*
X03567Y03551D01*
X03528Y03567D02*
X03551D01*
X03526Y03565D02*
X03528Y03567D01*
X0342Y03535D02*
X03465D01*
X03495Y03565*
X03526*
X03567Y03532D02*
Y03551D01*
Y03532D02*
X03608Y03491D01*
Y03454D02*
Y03491D01*
X03562Y03408D02*
X03608Y03454D01*
X03562Y03355D02*
Y03408D01*
X034Y03615D02*
Y0367D01*
Y03615D02*
X03733D01*
Y03778D02*
X038Y03845D01*
X03733Y03615D02*
Y03778D01*
X03712Y02926D02*
X03744D01*
X03788Y0297*
X03835*
X03997Y0308D02*
X04013Y03095D01*
Y0314*
X04Y0273D02*
X04058D01*
X03993Y02736D02*
X04Y0273D01*
X03993Y02736D02*
Y02846D01*
X0399Y0285D02*
X03993Y02846D01*
X0396Y0285D02*
X0399D01*
X0392Y0289D02*
X0396Y0285D01*
X0392Y0289D02*
Y0292D01*
X03954Y0289D02*
Y0314D01*
Y0289D02*
X03965Y0288D01*
X03875Y0275D02*
Y0282D01*
Y0275D02*
X03882Y02743D01*
X03925*
X03832Y02815D02*
X0387D01*
X03875Y0282*
X03895Y02874D02*
X03925Y02845D01*
Y02817D02*
Y02845D01*
X03915Y02925D02*
X0392Y0292D01*
X03429Y03108D02*
X03505D01*
X03512Y031*
X03659Y03031D02*
X03685Y03005D01*
X03641Y03031D02*
X03659D01*
X03685Y02985D02*
Y03005D01*
X03633Y0313D02*
X0367D01*
X03605Y0315D02*
X03622Y03167D01*
X03692*
X03697Y03162*
Y03152D02*
Y03162D01*
X0359Y0316D02*
X0361Y0318D01*
X03715*
X0373Y03165*
X0374*
X03697Y03152D02*
X0372Y03128D01*
X03836Y0303D02*
Y03056D01*
X03856Y03076*
X03429Y03076D02*
X03456D01*
X0359Y03019D02*
X03608Y03002D01*
X03564Y03188D02*
X03592Y03216D01*
X03577Y0318D02*
X03598Y03201D01*
X03577Y03023D02*
X03577Y03023D01*
X03895Y0341D02*
Y03479D01*
X03855Y03551D02*
X03875Y0353D01*
Y03479D02*
Y0353D01*
X034Y03355D02*
Y0347D01*
Y031D02*
Y03355D01*
X03498*
X03454Y0343D02*
X0347Y03415D01*
X03429Y0343D02*
X03454D01*
X03775Y03095D02*
X03785Y03085D01*
X0382*
X03856Y03411D02*
Y03479D01*
X04013Y03313D02*
Y03479D01*
X03993Y03293D02*
X04013Y03313D01*
X03993Y0314D02*
Y03293D01*
X03895Y0314D02*
Y03188D01*
X03902Y03195*
X03965D02*
X03974Y03185D01*
Y0314D02*
Y03185D01*
X04132Y02805D02*
Y02858D01*
X03915Y02925D02*
Y03D01*
X03897Y03018D02*
X03915Y03D01*
X03897Y03018D02*
Y03041D01*
X03915Y03059*
Y0314*
X03871Y03007D02*
X03875Y03003D01*
Y0282D02*
Y03003D01*
X03895Y03057D02*
Y0314D01*
X03884Y03046D02*
X03895Y03057D01*
X03884Y03013D02*
Y03046D01*
Y03013D02*
X03895Y03002D01*
Y02874D02*
Y03002D01*
X03925Y0303D02*
X03934Y03039D01*
Y0314*
X03856Y03076D02*
Y0314D01*
X03493Y03123D02*
X03505Y03135D01*
X03429Y03123D02*
X03493D01*
X03429Y03139D02*
X03472D01*
X03485Y03151*
Y0317*
X03583Y03317D02*
X03608Y03292D01*
X0354Y03317D02*
X03583D01*
X03525Y03332D02*
X0354Y03317D01*
X03525Y03332D02*
Y03417D01*
X03496Y03446D02*
X03525Y03417D01*
X0382Y03085D02*
X03836Y03101D01*
Y0314*
X03598Y03201D02*
X03755D01*
X03592Y03216D02*
X0375D01*
X03755Y03221*
X0355Y03192D02*
X03598Y0324D01*
X03755*
X03755Y03241*
X03428Y0379D02*
Y0389D01*
X0349Y0354D02*
X0354D01*
X03459Y03509D02*
X0349Y0354D01*
X03429Y03509D02*
X03459D01*
X03429Y03493D02*
X03473D01*
X03477Y03497*
X03547Y03255D02*
X03553Y0326D01*
X03585*
X03592Y03253*
X03647*
X03654Y0326*
X03755*
X03657Y033D02*
X03755D01*
X03636Y03279D02*
X03657Y033D01*
X03603Y03279D02*
X03636D01*
X03631Y03292D02*
X03658Y03319D01*
X03608Y03292D02*
X03631D01*
X03642Y03266D02*
X03656Y0328D01*
X03597Y03266D02*
X03642D01*
X0362Y0332D02*
X03639Y03339D01*
X03562Y03355D02*
X03665D01*
X03541Y03497D02*
X03547D01*
X03477Y03497D02*
Y03506D01*
X03493Y03522*
X03516*
X03541Y03497*
X03547Y0349D02*
Y03497D01*
X03505Y03483D02*
Y03495D01*
X035Y03478D02*
X03505Y03483D01*
X03429Y03478D02*
X035D01*
X03429Y03462D02*
X03572D01*
X03575Y0346*
X035Y0327D02*
Y03275D01*
X03507Y03282*
X03581*
X03597Y03266*
X03656Y0328D02*
X03755D01*
X0347Y0329D02*
X03475Y03295D01*
X03587*
X03603Y03279*
X03429Y03446D02*
X03496D01*
X03658Y03319D02*
X03755D01*
X03639Y03339D02*
X03755D01*
X03669Y03359D02*
X03688Y03378D01*
X03665Y03355D02*
X03669Y03359D01*
X03755*
X03688Y03378D02*
X03755D01*
X03655Y03398D02*
X03755D01*
X03492Y0379D02*
Y0389D01*
X03075Y02765D02*
X0314D01*
X03145Y0277*
Y0284*
X03185Y0288*
Y0294*
X03305Y0306*
X0337*
X03075Y02865D02*
X03145D01*
X0317Y0289*
Y02955*
X03291Y03076*
X0337*
X03075Y02965D02*
X03155D01*
X03282Y03092*
X0337*
X03075Y03065D02*
X03235D01*
X02965D02*
X03075D01*
X03235D02*
X03278Y03108D01*
X0337*
X03075Y03165D02*
X03295D01*
X03336Y03123*
X0337*
X03075Y03265D02*
X0331D01*
X0333Y03245*
Y0316D02*
Y03245D01*
Y0316D02*
X0335Y03139D01*
X0337*
X02965Y02765D02*
X03075D01*
X02965Y02865D02*
X03075D01*
X02965Y02965D02*
X03075D01*
X02965Y03165D02*
X03075D01*
X02965Y03265D02*
X03075D01*
X02965Y03365D02*
X03075D01*
X02965Y03465D02*
X03075D01*
X02965Y03565D02*
X03075D01*
X0328Y0343D02*
X0337D01*
X03281Y03446D02*
X0337D01*
X03295Y03462D02*
X0337D01*
X03306Y03478D02*
X0337D01*
X0332Y03493D02*
X0337D01*
X03335Y03509D02*
X0337D01*
G54D15*
X03213Y03428D02*
X03281D01*
X0315Y03365D02*
X03213Y03428D01*
X03075Y03365D02*
X0315D01*
X03075Y03465D02*
X03263D01*
X03281Y03446*
X03075Y03565D02*
X0326D01*
X03265Y0356*
Y03493D02*
Y0356D01*
Y03493D02*
X03295Y03462D01*
X03075Y03665D02*
X0327D01*
X03285Y0365*
Y035D02*
Y0365D01*
Y035D02*
X03306Y03478D01*
X03075Y03765D02*
X0329D01*
X03305Y0375*
Y03509D02*
Y0375D01*
Y03509D02*
X0332Y03493D01*
X03075Y03865D02*
X03315D01*
X03325Y03855*
Y0352D02*
Y03855D01*
Y0352D02*
X03335Y03509D01*
X02965Y03665D02*
X03075D01*
X02965Y03765D02*
X03075D01*
X02965Y03865D02*
X03075D01*
G54D17*
X03505Y02762D03*
Y02688D03*
X03415Y02762D03*
Y02688D03*
X03925Y02817D03*
Y02743D03*
X0413Y03002D03*
Y02928D03*
G54D18*
X03322Y02718D03*
Y02734D03*
Y02702D03*
Y02686D03*
Y02671D03*
Y02655D03*
X03263D03*
Y02671D03*
Y02686D03*
Y02702D03*
Y02734D03*
Y02718D03*
X03429Y03076D03*
Y0306D03*
Y03092D03*
Y03108D03*
Y03123D03*
Y03139D03*
X0337D03*
Y03123D03*
Y03108D03*
Y03092D03*
Y0306D03*
Y03076D03*
X03429Y03446D03*
Y0343D03*
Y03462D03*
Y03478D03*
Y03493D03*
Y03509D03*
X0337D03*
Y03493D03*
Y03478D03*
Y03462D03*
Y0343D03*
Y03446D03*
G54D19*
X03293Y02695D03*
X034Y031D03*
Y0347D03*
G54D20*
X04517Y03921D03*
X04655D03*
X04033Y0257D03*
X04171D03*
X0357Y02565D03*
X06005Y0395D03*
X0378Y02565D03*
G54D21*
X04391Y0391D03*
X04317D03*
X03952Y0257D03*
X03878D03*
X03712Y02926D03*
X03638D03*
X04407Y03675D03*
X04333D03*
X04647Y03545D03*
X04573D03*
X04382Y03215D03*
X04308D03*
X04647Y0347D03*
X04573D03*
X04379Y03031D03*
X04305D03*
X04862Y0297D03*
X04788D03*
Y03046D03*
X04862D03*
X04058Y02805D03*
X04132D03*
X04058Y0273D03*
X04132D03*
G54D22*
X0523Y0316D03*
Y0321D03*
Y0326D03*
Y0331D03*
X05009Y0316D03*
Y0321D03*
Y0326D03*
Y0331D03*
X04574Y03825D03*
Y03775D03*
Y03725D03*
Y03675D03*
X04795Y03825D03*
Y03775D03*
Y03725D03*
Y03675D03*
X05014Y03805D03*
Y03755D03*
Y03705D03*
Y03655D03*
X05235Y03805D03*
Y03755D03*
Y03705D03*
Y03655D03*
X04539Y03335D03*
Y03285D03*
Y03235D03*
Y03185D03*
X0476Y03335D03*
Y03285D03*
Y03235D03*
Y03185D03*
X04529Y0285D03*
Y028D03*
Y0275D03*
Y027D03*
X0475Y0285D03*
Y028D03*
Y0275D03*
Y027D03*
X05019Y0285D03*
Y028D03*
Y0275D03*
Y027D03*
X0524Y0285D03*
Y028D03*
Y0275D03*
Y027D03*
G54D23*
X03498Y03355D03*
X03562D03*
X03428Y0389D03*
X03492D03*
X03428Y0379D03*
X03492D03*
X03733Y03615D03*
X03797D03*
X03893Y0363D03*
X03957D03*
X04278Y0353D03*
X04342D03*
X04308Y0329D03*
X04372D03*
X04308Y03104D03*
X04372D03*
X03768Y02815D03*
X03832D03*
G54D24*
X05705Y02675D03*
Y02775D03*
X0595Y0268D03*
Y0278D03*
X05825Y02675D03*
Y02775D03*
G54D25*
X05395Y03735D03*
X05495D03*
X0536Y02855D03*
X0546D03*
X05355Y03315D03*
X05455D03*
G54D26*
X03755Y03418D03*
Y03398D03*
Y03378D03*
Y03359D03*
Y03339D03*
Y03319D03*
Y033D03*
Y0328D03*
Y0326D03*
Y03241D03*
Y03221D03*
Y03201D03*
X04094D03*
Y03221D03*
Y03241D03*
Y0326D03*
Y0328D03*
Y033D03*
Y03319D03*
Y03339D03*
Y03359D03*
Y03378D03*
Y03398D03*
Y03418D03*
G54D27*
X03816Y0314D03*
X03836D03*
X03856D03*
X03875D03*
X03895D03*
X03915D03*
X03934D03*
X03954D03*
X03974D03*
X03993D03*
X04013D03*
X04033D03*
Y03479D03*
X04013D03*
X03993D03*
X03974D03*
X03954D03*
X03934D03*
X03915D03*
X03895D03*
X03875D03*
X03856D03*
X03836D03*
X03816D03*
G54D49*
X0558Y03735D02*
X05765D01*
X05834Y03665*
Y03503D02*
Y03665D01*
Y03503D02*
X0588Y03458D01*
X0544Y03526D02*
X0555Y03416D01*
X0595Y0261D02*
Y0268D01*
X05825Y02545D02*
Y02675D01*
X05705Y0255D02*
Y02675D01*
X05717Y03127D02*
X05805Y0304D01*
Y0293D02*
Y0304D01*
Y0293D02*
X05825Y0291D01*
Y02775D02*
Y0291D01*
X05705Y02775D02*
Y02958D01*
X05851Y03292D02*
X05918D01*
X05774Y0337D02*
X05851Y03292D01*
X05635Y0337D02*
X05774D01*
X0558Y03315D02*
X05635Y0337D01*
X05455Y03315D02*
X0558D01*
X05605Y0376D02*
Y0395D01*
X0558Y03735D02*
X05605Y0376D01*
X05495Y03735D02*
X0558D01*
G54D50*
X04472Y03921D02*
X04517D01*
X04461Y0391D02*
X04472Y03921D01*
X04391Y0391D02*
X04461D01*
X04163D02*
X04317D01*
X04098Y03845D02*
X04163Y0391D01*
X03492Y0389D02*
X0357D01*
X03625Y03945*
X03995*
X04095Y03845*
G54D51*
X05009Y0321D02*
X05075D01*
X0509Y03195*
Y03082D02*
Y03195D01*
X05019Y03012D02*
X0509Y03082D01*
X04862Y03046D02*
X04985D01*
X05019Y03012*
Y0285D02*
Y03012D01*
X05234Y03315D02*
X05355D01*
X0523Y0326D02*
Y0331D01*
Y0321D02*
Y0326D01*
Y0316D02*
Y0321D01*
X0523Y0331D02*
Y03375D01*
X04574Y03825D02*
Y03854D01*
Y03775D02*
Y03825D01*
Y03725D02*
Y03775D01*
G54D52*
X05889Y03156D03*
G54D53*
X0569Y03205D03*
G54D54*
X05545Y02986D03*
G54D55*
X05477Y02774D03*
G54D56*
X05425Y02712D03*
G54D57*
X03387Y03767D03*
G54D58*
X03192Y03945D03*
G54D59*
X03622Y03762D03*
G54D60*
X038Y03845D03*
G54D61*
X04896Y02577D03*
G54D62*
X05275Y03007D03*
G54D63*
X03602Y02669D03*
G54D64*
X03867Y02662D03*
G54D65*
X03702Y0273D03*
G54D66*
X04037Y02644D03*
G54D67*
X04307Y02742D03*
G54D68*
X03899Y0328D03*
G54D69*
X03322Y02944D03*
X05562Y02661D03*
X05343Y03929D03*
G54D70*
X02948Y02763D03*
X03075Y02765D03*
G54D71*
X02948Y02863D03*
Y02963D03*
Y03063D03*
Y03163D03*
Y03263D03*
Y03363D03*
Y03463D03*
Y03563D03*
Y03663D03*
Y03763D03*
Y03863D03*
X0347Y02565D03*
X0337D03*
X0327D03*
X05505Y0395D03*
X05605D03*
X05705D03*
X05805D03*
X05905D03*
X0368Y02565D03*
X03075Y03865D03*
Y03765D03*
Y03665D03*
Y03565D03*
Y03465D03*
Y03365D03*
Y03265D03*
Y03165D03*
Y03065D03*
Y02965D03*
Y02865D03*
G54D72*
X04095Y03845D03*
X038D03*
G54D73*
X0296Y026D03*
X0302D03*
X0308D03*
G54D74*
X03139Y026D03*
G54D75*
X05701Y02961D03*
G54D76*
X05701Y03127D03*
Y03292D03*
Y03458D03*
X05918Y02961D03*
Y03127D03*
Y03292D03*
Y03458D03*
G54D77*
X03878Y0398D03*
X03346Y02771D03*
X03378Y02852D03*
X03563Y02697D03*
X04914Y03145D03*
X04679Y03125D03*
X04695Y03047D03*
X0595Y0261D03*
X05825Y02545D03*
X05695Y0254D03*
X05005Y0349D03*
X04905Y0366D03*
X04031Y03544D03*
X04335Y0347D03*
Y03385D03*
X04295Y03614D03*
Y03385D03*
X0422Y03515D03*
X0425Y03385D03*
X0352Y031D03*
X0349Y03075D03*
X03515Y03035D03*
X0348Y02995D03*
X0341Y03545D03*
X03946Y03706D03*
X04006Y03716D03*
X03801Y03674D03*
X04051Y03716D03*
X04055Y0286D03*
X03597Y0277D03*
Y0281D03*
X03598Y0285D03*
X03639Y0287D03*
X03835Y0297D03*
X0399Y03075D03*
X03645Y02983D03*
X03685Y02985D03*
X0367Y0313D03*
X0372Y03128D03*
X03775Y03101D03*
X0374Y03165D03*
X03836Y0303D03*
X03608Y03002D03*
X03897Y034D03*
X03855Y03403D03*
X03925Y0303D03*
X03515Y03139D03*
X03485Y0317D03*
X0347Y03415D03*
X0354Y0354D03*
X03548Y0325D03*
X0362Y0332D03*
X03505Y03495D03*
X03547Y0349D03*
X03575Y0346D03*
X03496Y03255D03*
X03465Y0328D03*
X03655Y03398D03*
G54D78*
X0322Y03935D03*
X04845Y03468D03*
Y0356D03*
X0534Y0309D03*
X0433Y02895D03*
X0555Y03408D03*
X0544Y03526D03*
X0546Y03195D03*
X0489Y0382D03*
X0523Y03375D03*
X04475D03*
M02*