%FSTAX23Y23*%
%MOIN*%
%SFA1B1*%

%IPPOS*%
%ADD10C,0.023620*%
%ADD11C,0.009840*%
%ADD12C,0.001970*%
%ADD13C,0.007870*%
%ADD14C,0.006000*%
%ADD15C,0.010000*%
%ADD16C,0.005910*%
%ADD17R,0.031500X0.074800*%
%LNpowerboard-1*%
%LPD*%
G54D10*
X02478Y04046D02*
X02473Y04055D01*
X02463Y04057*
X02455Y04051*
Y0404*
X02463Y04034*
X02473Y04036*
X02478Y04046*
X02413Y03494D02*
X02408Y03504D01*
X02398Y03506*
X0239Y03499*
Y03489*
X02398Y03483*
X02408Y03485*
X02413Y03494*
X02898Y04256D02*
X02893Y04265D01*
X02883Y04267*
X02875Y04261*
Y0425*
X02883Y04244*
X02893Y04246*
X02898Y04256*
X0204Y04506D02*
X02036Y04515D01*
X02026Y04517*
X02018Y04511*
Y04501*
X02026Y04494*
X02036Y04497*
X0204Y04506*
X03353Y04046D02*
X03348Y04055D01*
X03338Y04057*
X0333Y04051*
Y0404*
X03338Y04034*
X03348Y04036*
X03353Y04046*
G54D11*
X02386Y04097D02*
X02379Y04101D01*
Y04093*
X02386Y04097*
X02323Y03547D02*
X02316Y03552D01*
Y03543*
X02323Y03547*
X02804Y04304D02*
X02797Y04308D01*
Y043*
X02804Y04304*
X01985Y04419D02*
X01978Y04424D01*
Y04415*
X01985Y04419*
X03262Y04093D02*
X03255Y04097D01*
Y04089*
X03262Y04093*
G54D12*
X02851Y03279D03*
G54D13*
X043Y0448D02*
X04299Y0449D01*
X04299Y045*
X04298Y0451*
X04297Y04519*
X04295Y04529*
X04293Y04539*
X04291Y04549*
X04289Y04559*
X04286Y04568*
X04283Y04578*
X04279Y04587*
X04276Y04597*
X04272Y04606*
X04267Y04615*
X04263Y04624*
X04258Y04632*
X04252Y04641*
X04247Y04649*
X04241Y04657*
X04235Y04665*
X04229Y04673*
X04222Y04681*
X04215Y04688*
X04208Y04695*
X04201Y04702*
X04193Y04709*
X04185Y04715*
X04177Y04721*
X04169Y04727*
X04161Y04732*
X04152Y04738*
X04144Y04743*
X04135Y04747*
X04126Y04752*
X04117Y04756*
X04107Y04759*
X04098Y04763*
X04088Y04766*
X04079Y04769*
X04069Y04771*
X04059Y04773*
X04049Y04775*
X04039Y04777*
X0403Y04778*
X0402Y04779*
X0401Y04779*
X04Y0478*
X03989Y04779*
X03979Y04779*
X03969Y04778*
X0396Y04777*
X0395Y04775*
X0394Y04773*
X0393Y04771*
X0392Y04769*
X03911Y04766*
X03901Y04763*
X03892Y04759*
X03882Y04756*
X03873Y04752*
X03864Y04747*
X03855Y04743*
X03847Y04738*
X03838Y04732*
X0383Y04727*
X03822Y04721*
X03814Y04715*
X03806Y04709*
X03798Y04702*
X03791Y04695*
X03784Y04688*
X03777Y04681*
X0377Y04673*
X03764Y04665*
X03758Y04657*
X03752Y04649*
X03747Y04641*
X03741Y04632*
X03736Y04624*
X03732Y04615*
X03727Y04606*
X03723Y04597*
X0372Y04587*
X03716Y04578*
X03713Y04568*
X0371Y04559*
X03708Y04549*
X03706Y04539*
X03704Y04529*
X03702Y04519*
X03701Y0451*
X037Y045*
X037Y0449*
X037Y0448*
X037Y04469*
X037Y04459*
X03701Y04449*
X03702Y0444*
X03704Y0443*
X03706Y0442*
X03708Y0441*
X0371Y044*
X03713Y04391*
X03716Y04381*
X0372Y04372*
X03723Y04362*
X03727Y04353*
X03732Y04344*
X03736Y04335*
X03741Y04327*
X03747Y04318*
X03752Y0431*
X03758Y04302*
X03764Y04294*
X0377Y04286*
X03777Y04278*
X03784Y04271*
X03791Y04264*
X03798Y04257*
X03806Y0425*
X03814Y04244*
X03822Y04238*
X0383Y04232*
X03838Y04227*
X03847Y04221*
X03855Y04216*
X03864Y04212*
X03873Y04207*
X03882Y04203*
X03892Y042*
X03901Y04196*
X03911Y04193*
X0392Y0419*
X0393Y04188*
X0394Y04186*
X0395Y04184*
X0396Y04182*
X03969Y04181*
X03979Y0418*
X03989Y0418*
X04Y0418*
X0401Y0418*
X0402Y0418*
X0403Y04181*
X04039Y04182*
X04049Y04184*
X04059Y04186*
X04069Y04188*
X04079Y0419*
X04088Y04193*
X04098Y04196*
X04107Y042*
X04117Y04203*
X04126Y04207*
X04135Y04212*
X04144Y04216*
X04152Y04221*
X04161Y04227*
X04169Y04232*
X04177Y04238*
X04185Y04244*
X04193Y0425*
X04201Y04257*
X04208Y04264*
X04215Y04271*
X04222Y04278*
X04229Y04286*
X04235Y04294*
X04241Y04302*
X04247Y0431*
X04252Y04318*
X04258Y04327*
X04263Y04335*
X04267Y04344*
X04272Y04353*
X04276Y04362*
X04279Y04372*
X04283Y04381*
X04286Y04391*
X04289Y044*
X04291Y0441*
X04293Y0442*
X04295Y0443*
X04297Y0444*
X04298Y04449*
X04299Y04459*
X04299Y04469*
X043Y0448*
X0369D02*
X03689Y0449D01*
X03689Y045*
X03688Y0451*
X03687Y04519*
X03685Y04529*
X03683Y04539*
X03681Y04549*
X03679Y04559*
X03676Y04568*
X03673Y04578*
X03669Y04587*
X03666Y04597*
X03662Y04606*
X03657Y04615*
X03653Y04624*
X03648Y04632*
X03642Y04641*
X03637Y04649*
X03631Y04657*
X03625Y04665*
X03619Y04673*
X03612Y04681*
X03605Y04688*
X03598Y04695*
X03591Y04702*
X03583Y04709*
X03575Y04715*
X03567Y04721*
X03559Y04727*
X03551Y04732*
X03542Y04738*
X03534Y04743*
X03525Y04747*
X03516Y04752*
X03507Y04756*
X03497Y04759*
X03488Y04763*
X03478Y04766*
X03469Y04769*
X03459Y04771*
X03449Y04773*
X03439Y04775*
X03429Y04777*
X0342Y04778*
X0341Y04779*
X034Y04779*
X0339Y0478*
X03379Y04779*
X03369Y04779*
X03359Y04778*
X0335Y04777*
X0334Y04775*
X0333Y04773*
X0332Y04771*
X0331Y04769*
X03301Y04766*
X03291Y04763*
X03282Y04759*
X03272Y04756*
X03263Y04752*
X03254Y04747*
X03245Y04743*
X03237Y04738*
X03228Y04732*
X0322Y04727*
X03212Y04721*
X03204Y04715*
X03196Y04709*
X03188Y04702*
X03181Y04695*
X03174Y04688*
X03167Y04681*
X0316Y04673*
X03154Y04665*
X03148Y04657*
X03142Y04649*
X03137Y04641*
X03131Y04632*
X03126Y04624*
X03122Y04615*
X03117Y04606*
X03113Y04597*
X0311Y04587*
X03106Y04578*
X03103Y04568*
X031Y04559*
X03098Y04549*
X03096Y04539*
X03094Y04529*
X03092Y04519*
X03091Y0451*
X0309Y045*
X0309Y0449*
X0309Y0448*
X0309Y04469*
X0309Y04459*
X03091Y04449*
X03092Y0444*
X03094Y0443*
X03096Y0442*
X03098Y0441*
X031Y044*
X03103Y04391*
X03106Y04381*
X0311Y04372*
X03113Y04362*
X03117Y04353*
X03122Y04344*
X03126Y04335*
X03131Y04327*
X03137Y04318*
X03142Y0431*
X03148Y04302*
X03154Y04294*
X0316Y04286*
X03167Y04278*
X03174Y04271*
X03181Y04264*
X03188Y04257*
X03196Y0425*
X03204Y04244*
X03212Y04238*
X0322Y04232*
X03228Y04227*
X03237Y04221*
X03245Y04216*
X03254Y04212*
X03263Y04207*
X03272Y04203*
X03282Y042*
X03291Y04196*
X03301Y04193*
X0331Y0419*
X0332Y04188*
X0333Y04186*
X0334Y04184*
X0335Y04182*
X03359Y04181*
X03369Y0418*
X03379Y0418*
X0339Y0418*
X034Y0418*
X0341Y0418*
X0342Y04181*
X03429Y04182*
X03439Y04184*
X03449Y04186*
X03459Y04188*
X03469Y0419*
X03478Y04193*
X03488Y04196*
X03497Y042*
X03507Y04203*
X03516Y04207*
X03525Y04212*
X03534Y04216*
X03542Y04221*
X03551Y04227*
X03559Y04232*
X03567Y04238*
X03575Y04244*
X03583Y0425*
X03591Y04257*
X03598Y04264*
X03605Y04271*
X03612Y04278*
X03619Y04286*
X03625Y04294*
X03631Y04302*
X03637Y0431*
X03642Y04318*
X03648Y04327*
X03653Y04335*
X03657Y04344*
X03662Y04353*
X03666Y04362*
X03669Y04372*
X03673Y04381*
X03676Y04391*
X03679Y044*
X03681Y0441*
X03683Y0442*
X03685Y0443*
X03687Y0444*
X03688Y04449*
X03689Y04459*
X03689Y04469*
X0369Y0448*
X0193Y0415D02*
X0243D01*
Y0435*
X0193D02*
X0243D01*
X0193Y0415D02*
Y0435D01*
X0203Y0415D02*
Y0435D01*
X0243Y0425D02*
X0247D01*
X0189D02*
X0193D01*
X02427Y03884D02*
X02552D01*
X02427Y04085D02*
X02552D01*
Y03884D02*
Y04085D01*
X02427Y03884D02*
Y04085D01*
X0164Y0477D02*
X0184D01*
X0164Y0467D02*
Y0477D01*
Y0467D02*
X0184D01*
Y0477*
X02362Y03274D02*
X02507D01*
X02362Y03534D02*
X02507D01*
Y03274D02*
Y03534D01*
X02362Y03274D02*
Y03534D01*
X047Y0429D02*
Y0449D01*
Y0429D02*
X048D01*
Y0449*
X047D02*
X048D01*
X047Y04065D02*
Y04265D01*
Y04065D02*
X048D01*
Y04265*
X047D02*
X048D01*
X047Y0384D02*
Y0404D01*
Y0384D02*
X048D01*
Y0404*
X047D02*
X048D01*
X047Y03615D02*
Y03815D01*
Y03615D02*
X048D01*
Y03815*
X047D02*
X048D01*
X0287Y0458D02*
Y0478D01*
X0277D02*
X0287D01*
X0277Y0458D02*
Y0478D01*
Y0458D02*
X0287D01*
X04499Y04314D02*
Y04389D01*
X0459Y04314D02*
Y04389D01*
X04499D02*
X0459D01*
X04515Y04149D02*
X04574D01*
X04499Y04168D02*
Y04235D01*
X04574Y04149D02*
X0459Y04168D01*
X04499D02*
X04515Y04149D01*
X0459Y04168D02*
Y04235D01*
X0269Y045D02*
Y04575D01*
X02599Y045D02*
Y04575D01*
Y045D02*
X0269D01*
X02615Y0474D02*
X02674D01*
X0269Y04654D02*
Y04721D01*
X02599D02*
X02615Y0474D01*
X02674D02*
X0269Y04721D01*
X02599Y04654D02*
Y04721D01*
X02915Y03925D02*
Y03934D01*
Y03716D02*
Y03725D01*
Y03925D02*
X02945D01*
Y03725D02*
Y03925D01*
X02885Y03725D02*
X02945D01*
X02885D02*
Y03925D01*
X02915*
X02847Y04094D02*
Y04295D01*
X02972Y04094D02*
Y04295D01*
X02847D02*
X02972D01*
X02847Y04094D02*
X02972D01*
X02755Y03815D02*
X02785D01*
X02755Y03615D02*
Y03815D01*
Y03615D02*
X02815D01*
Y03815*
X02785D02*
X02815D01*
X02785Y03606D02*
Y03615D01*
Y03815D02*
Y03824D01*
X01989Y04467D02*
X0219D01*
X01989Y04592D02*
X0219D01*
X01989Y04467D02*
Y04592D01*
X0219Y04467D02*
Y04592D01*
X01987Y03783D02*
X02083D01*
X01987Y03906D02*
X02083D01*
X0179D02*
X01892D01*
X0179Y03783D02*
X01892D01*
X02101Y03801D02*
Y03888D01*
X02083Y03906D02*
X02101Y03888D01*
X02083Y03783D02*
X02101Y03801D01*
X0179Y03783D02*
Y03906D01*
X01514Y03041D02*
Y03088D01*
X03302Y03884D02*
X03427D01*
X03302Y04085D02*
X03427D01*
Y03884D02*
Y04085D01*
X03302Y03884D02*
Y04085D01*
X03318Y03657D02*
Y03732D01*
X03471*
X03318Y03657D02*
X03471D01*
X01405Y02815D02*
Y02915D01*
X02205*
Y02815D02*
Y02915D01*
X01405Y02815D02*
X02205D01*
G54D14*
X02996Y04733D02*
X03004D01*
X02996Y04677D02*
X03004D01*
X04578Y04521D02*
Y04529D01*
X04522Y04521D02*
Y04529D01*
X01852Y03096D02*
Y03104D01*
X01908Y03096D02*
Y03104D01*
X02881Y02972D02*
X02889D01*
X02881Y03028D02*
X02889D01*
X02418Y04621D02*
Y04629D01*
X02362Y04621D02*
Y04629D01*
X01506Y03263D02*
X01514D01*
X01506Y03207D02*
X01514D01*
X01506Y03368D02*
X01514D01*
X01506Y03312D02*
X01514D01*
X01511Y03478D02*
X01519D01*
X01511Y03422D02*
X01519D01*
X0151Y03588D02*
X01518D01*
X0151Y03532D02*
X01518D01*
X01506Y03723D02*
X01514D01*
X01506Y03667D02*
X01514D01*
X01502Y03823D02*
X0151D01*
X01502Y03767D02*
X0151D01*
X02116Y04077D02*
X02124D01*
X02116Y04133D02*
X02124D01*
X01985Y03977D02*
X01993D01*
X01985Y04033D02*
X01993D01*
X03083Y03876D02*
Y03884D01*
X03027Y03876D02*
Y03884D01*
X01506Y03867D02*
X01514D01*
X01506Y03923D02*
X01514D01*
X03058Y03506D02*
Y03514D01*
X03002Y03506D02*
Y03514D01*
X01967Y03101D02*
Y03109D01*
X02023Y03101D02*
Y03109D01*
G54D15*
X01012Y0467D02*
X01347D01*
Y0406D02*
Y0467D01*
X01012Y0406D02*
Y0467D01*
X01016Y0406D02*
X01347D01*
X01012D02*
X01181D01*
X01012D02*
Y04365D01*
X0113Y04511D02*
X0118D01*
X0115Y04219D02*
X0118D01*
X04467Y02899D02*
X04802D01*
X04467D02*
Y03509D01*
X04802Y02899D02*
Y03509D01*
X04467D02*
X04798D01*
X04633D02*
X04802D01*
Y03204D02*
Y03509D01*
X04635Y03058D02*
X04684D01*
X04635Y0335D02*
X04664D01*
X03702Y02898D02*
X04037D01*
X03702D02*
Y03509D01*
X04037Y02898D02*
Y03509D01*
X03702D02*
X04033D01*
X03868D02*
X04037D01*
Y03204D02*
Y03509D01*
X0387Y03058D02*
X03919D01*
X0387Y03349D02*
X03899D01*
X04092Y02898D02*
X04427D01*
X04092D02*
Y03509D01*
X04427Y02898D02*
Y03509D01*
X04092D02*
X04423D01*
X04258D02*
X04427D01*
Y03204D02*
Y03509D01*
X0426Y03058D02*
X04309D01*
X0426Y03349D02*
X04289D01*
X03317Y02899D02*
X03652D01*
X03317D02*
Y03509D01*
X03652Y02899D02*
Y03509D01*
X03317D02*
X03648D01*
X03483D02*
X03652D01*
Y03204D02*
Y03509D01*
X03485Y03058D02*
X03534D01*
X03485Y0335D02*
X03514D01*
X01804Y04443D02*
Y04384D01*
X01833*
X01843Y04394*
Y04433*
X01833Y04443*
X01804*
X01863Y04384D02*
X01883D01*
X01873*
Y04443*
X01863Y04433*
X025Y04199D02*
Y0415D01*
X0251Y0414*
X02529*
X02539Y0415*
Y04199*
X02559Y0414D02*
X02579D01*
X02569*
Y04199*
X02559Y04189*
X02375Y03619D02*
Y0357D01*
X02385Y0356*
X02404*
X02414Y0357*
Y03619*
X02474Y0356D02*
X02434D01*
X02474Y03599*
Y03609*
X02464Y03619*
X02444*
X02434Y03609*
X02811Y04354D02*
Y04394D01*
X02801Y04404*
X02781*
X02771Y04394*
Y04354*
X02781Y04344*
X02801*
X02791Y04364D02*
X02811Y04344D01*
X02801D02*
X02811Y04354D01*
X02861Y04344D02*
Y04404D01*
X02831Y04374*
X02871*
X02875Y03194D02*
Y03145D01*
X02885Y03135*
X02904*
X02914Y03145*
Y03194*
X02964Y03135D02*
Y03194D01*
X02934Y03164*
X02974*
X01504Y04754D02*
X01494Y04764D01*
X01475*
X01465Y04754*
Y04744*
X01475Y04734*
X01494*
X01504Y04724*
Y04715*
X01494Y04705*
X01475*
X01465Y04715*
X01524Y04764D02*
Y04705D01*
X01544Y04724*
X01564Y04705*
Y04764*
X01584Y04705D02*
X01604D01*
X01594*
Y04764*
X01584Y04754*
X01453Y03134D02*
Y03194D01*
X01483*
X01493Y03184*
Y03164*
X01483Y03154*
X01453*
X01473D02*
X01493Y03134D01*
X01513Y03194D02*
X01553D01*
X01533*
Y03134*
X01573D02*
X01593D01*
X01583*
Y03194*
X01573Y03184*
X0295Y02945D02*
Y02885D01*
X0292*
X0291Y02895*
Y02915*
X0292Y02925*
X0295*
X0293D02*
X0291Y02945D01*
X0285D02*
X0289D01*
X0285Y02905*
Y02895*
X0286Y02885*
X0288*
X0289Y02895*
X0283Y02945D02*
X0281D01*
X0282*
Y02885*
X0283Y02895*
X0163Y03215D02*
Y03274D01*
X01659*
X01669Y03264*
Y03244*
X01659Y03234*
X0163*
X01649D02*
X01669Y03215D01*
X01729D02*
X01689D01*
X01729Y03254*
Y03264*
X01719Y03274*
X01699*
X01689Y03264*
X01749D02*
X01759Y03274D01*
X01779*
X01789Y03264*
Y03225*
X01779Y03215*
X01759*
X01749Y03225*
Y03264*
X01605Y03312D02*
Y03371D01*
X01634*
X01644Y03361*
Y03341*
X01634Y03331*
X01605*
X01624D02*
X01644Y03312D01*
X01664D02*
X01684D01*
X01674*
Y03371*
X01664Y03361*
X01714Y03322D02*
X01724Y03312D01*
X01744*
X01754Y03322*
Y03361*
X01744Y03371*
X01724*
X01714Y03361*
Y03351*
X01724Y03341*
X01754*
X01614Y03425D02*
Y03484D01*
X01643*
X01653Y03474*
Y03454*
X01643Y03444*
X01614*
X01633D02*
X01653Y03425D01*
X01673D02*
X01693D01*
X01683*
Y03484*
X01673Y03474*
X01723D02*
X01733Y03484D01*
X01753*
X01763Y03474*
Y03464*
X01753Y03454*
X01763Y03444*
Y03435*
X01753Y03425*
X01733*
X01723Y03435*
Y03444*
X01733Y03454*
X01723Y03464*
Y03474*
X01733Y03454D02*
X01753D01*
X01621Y0354D02*
Y03599D01*
X0165*
X0166Y03589*
Y03569*
X0165Y03559*
X01621*
X0164D02*
X0166Y0354D01*
X0168D02*
X017D01*
X0169*
Y03599*
X0168Y03589*
X0173Y03599D02*
X0177D01*
Y03589*
X0173Y0355*
Y0354*
X01605Y0367D02*
Y03729D01*
X01634*
X01644Y03719*
Y03699*
X01634Y03689*
X01605*
X01624D02*
X01644Y0367D01*
X01664D02*
X01684D01*
X01674*
Y03729*
X01664Y03719*
X01754Y03729D02*
X01734Y03719D01*
X01714Y03699*
Y0368*
X01724Y0367*
X01744*
X01754Y0368*
Y03689*
X01744Y03699*
X01714*
X01605Y0381D02*
Y03869D01*
X01634*
X01644Y03859*
Y03839*
X01634Y03829*
X01605*
X01624D02*
X01644Y0381D01*
X01664D02*
X01684D01*
X01674*
Y03869*
X01664Y03859*
X01754Y03869D02*
X01714D01*
Y03839*
X01734Y03849*
X01744*
X01754Y03839*
Y0382*
X01744Y0381*
X01724*
X01714Y0382*
X01459Y03956D02*
Y04015D01*
X01488*
X01498Y04005*
Y03985*
X01488Y03975*
X01459*
X01478D02*
X01498Y03956D01*
X01518D02*
X01538D01*
X01528*
Y04015*
X01518Y04005*
X01598Y03956D02*
Y04015D01*
X01568Y03985*
X01608*
X01974Y03196D02*
Y03255D01*
X02003*
X02013Y03245*
Y03225*
X02003Y03215*
X01974*
X01993D02*
X02013Y03196D01*
X02033D02*
X02053D01*
X02043*
Y03255*
X02033Y03245*
X02083D02*
X02093Y03255D01*
X02113*
X02123Y03245*
Y03235*
X02113Y03225*
X02103*
X02113*
X02123Y03215*
Y03206*
X02113Y03196*
X02093*
X02083Y03206*
X03008Y036D02*
Y0366D01*
X03038*
X03048Y0365*
Y0363*
X03038Y0362*
X03008*
X03028D02*
X03048Y036D01*
X03068D02*
X03088D01*
X03078*
Y0366*
X03068Y0365*
X03158Y036D02*
X03118D01*
X03158Y0364*
Y0365*
X03148Y0366*
X03128*
X03118Y0365*
X01908Y03205D02*
X01848D01*
Y03234*
X01858Y03244*
X01878*
X01888Y03234*
Y03205*
Y03224D02*
X01908Y03244D01*
Y03264D02*
Y03284D01*
Y03274*
X01848*
X01858Y03264*
X01908Y03314D02*
Y03334D01*
Y03324*
X01848*
X01858Y03314*
X04295Y04575D02*
Y04635D01*
X04324*
X04334Y04625*
Y04605*
X04324Y04595*
X04295*
X04314D02*
X04334Y04575D01*
X04354D02*
X04374D01*
X04364*
Y04635*
X04354Y04625*
X04404D02*
X04414Y04635D01*
X04434*
X04444Y04625*
Y04585*
X04434Y04575*
X04414*
X04404Y04585*
Y04625*
X0244Y04605D02*
Y04664D01*
X02469*
X02479Y04654*
Y04634*
X02469Y04624*
X0244*
X02459D02*
X02479Y04605D01*
X02499Y04615D02*
X02509Y04605D01*
X02529*
X02539Y04615*
Y04654*
X02529Y04664*
X02509*
X02499Y04654*
Y04644*
X02509Y04634*
X02539*
X02755Y0401D02*
Y04069D01*
X02784*
X02794Y04059*
Y04039*
X02784Y04029*
X02755*
X02774D02*
X02794Y0401D01*
X02814Y04059D02*
X02824Y04069D01*
X02844*
X02854Y04059*
Y04049*
X02844Y04039*
X02854Y04029*
Y0402*
X02844Y0401*
X02824*
X02814Y0402*
Y04029*
X02824Y04039*
X02814Y04049*
Y04059*
X02824Y04039D02*
X02844D01*
X02761Y03926D02*
Y03986D01*
X02791*
X02801Y03976*
Y03956*
X02791Y03946*
X02761*
X02781D02*
X02801Y03926D01*
X02821Y03986D02*
X02861D01*
Y03976*
X02821Y03936*
Y03926*
X03033Y03971D02*
Y0403D01*
X03062*
X03072Y0402*
Y04*
X03062Y0399*
X03033*
X03052D02*
X03072Y03971D01*
X03132Y0403D02*
X03112Y0402D01*
X03092Y04*
Y03981*
X03102Y03971*
X03122*
X03132Y03981*
Y0399*
X03122Y04*
X03092*
X01938Y04066D02*
Y04126D01*
X01968*
X01978Y04116*
Y04096*
X01968Y04086*
X01938*
X01958D02*
X01978Y04066D01*
X02038Y04126D02*
X01998D01*
Y04096*
X02018Y04106*
X02028*
X02038Y04096*
Y04076*
X02028Y04066*
X02008*
X01998Y04076*
X02955Y046D02*
Y04659D01*
X02984*
X02994Y04649*
Y04629*
X02984Y04619*
X02955*
X02974D02*
X02994Y046D01*
X03044D02*
Y04659D01*
X03014Y04629*
X03054*
X02124Y0399D02*
Y04049D01*
X02153*
X02163Y04039*
Y04019*
X02153Y04009*
X02124*
X02143D02*
X02163Y0399D01*
X02183D02*
X02203D01*
X02193*
Y04049*
X02183Y04039*
X03268Y04143D02*
Y04183D01*
X03258Y04193*
X03238*
X03228Y04183*
Y04143*
X03238Y04133*
X03258*
X03248Y04153D02*
X03268Y04133D01*
X03258D02*
X03268Y04143D01*
X03288Y04183D02*
X03298Y04193D01*
X03318*
X03328Y04183*
Y04173*
X03318Y04163*
X03308*
X03318*
X03328Y04153*
Y04143*
X03318Y04133*
X03298*
X03288Y04143*
X0202Y04719D02*
Y04758D01*
X0201Y04768*
X01991*
X01981Y04758*
Y04719*
X01991Y04709*
X0201*
X02Y04728D02*
X0202Y04709D01*
X0201D02*
X0202Y04719D01*
X0204Y04709D02*
X0206D01*
X0205*
Y04768*
X0204Y04758*
X0305Y0459D02*
Y0453D01*
X0302*
X0301Y0454*
Y0456*
X0302Y0457*
X0305*
X0299Y0459D02*
X0297D01*
X0298*
Y0453*
X0299Y0454*
X029Y0459D02*
X0294D01*
X029Y0455*
Y0454*
X0291Y0453*
X0293*
X0294Y0454*
X04645Y04525D02*
Y04584D01*
X04674*
X04684Y04574*
Y04554*
X04674Y04544*
X04645*
X04704Y04525D02*
X04724D01*
X04714*
Y04584*
X04704Y04574*
X04754Y04525D02*
X04774D01*
X04764*
Y04584*
X04754Y04574*
X0452Y0406D02*
Y04119D01*
X04549*
X04559Y04109*
Y04089*
X04549Y04079*
X0452*
X04579Y0406D02*
X04599D01*
X04589*
Y04119*
X04579Y04109*
X04629D02*
X04639Y04119D01*
X04659*
X04669Y04109*
Y0407*
X04659Y0406*
X04639*
X04629Y0407*
Y04109*
X0456Y0382D02*
Y03879D01*
X04589*
X04599Y03869*
Y03849*
X04589Y03839*
X0456*
X04619Y0383D02*
X04629Y0382D01*
X04649*
X04659Y0383*
Y03869*
X04649Y03879*
X04629*
X04619Y03869*
Y03859*
X04629Y03849*
X04659*
X04565Y03625D02*
Y03684D01*
X04594*
X04604Y03674*
Y03654*
X04594Y03644*
X04565*
X04624Y03674D02*
X04634Y03684D01*
X04654*
X04664Y03674*
Y03664*
X04654Y03654*
X04664Y03644*
Y03635*
X04654Y03625*
X04634*
X04624Y03635*
Y03644*
X04634Y03654*
X04624Y03664*
Y03674*
X04634Y03654D02*
X04654D01*
X01411Y02949D02*
Y03008D01*
X0144*
X0145Y02998*
Y02978*
X0144Y02968*
X01411*
X0147Y03008D02*
X0151D01*
Y02998*
X0147Y02959*
Y02949*
X01029Y0397D02*
Y0403D01*
X01059*
X01069Y0402*
Y04*
X01059Y0399*
X01029*
X01129Y0403D02*
X01109Y0402D01*
X01089Y04*
Y0398*
X01099Y0397*
X01119*
X01129Y0398*
Y0399*
X01119Y04*
X01089*
X01017Y04705D02*
Y04765D01*
X01047*
X01057Y04755*
Y04735*
X01047Y04725*
X01017*
X01117Y04765D02*
X01077D01*
Y04735*
X01097Y04745*
X01107*
X01117Y04735*
Y04715*
X01107Y04705*
X01087*
X01077Y04715*
X03323Y03544D02*
Y03603D01*
X03352*
X03362Y03593*
Y03573*
X03352Y03563*
X03323*
X03412Y03544D02*
Y03603D01*
X03382Y03573*
X03422*
X03708Y03544D02*
Y03604D01*
X03737*
X03747Y03594*
Y03574*
X03737Y03564*
X03708*
X03767Y03594D02*
X03777Y03604D01*
X03797*
X03807Y03594*
Y03584*
X03797Y03574*
X03787*
X03797*
X03807Y03564*
Y03554*
X03797Y03544*
X03777*
X03767Y03554*
X04098Y03544D02*
Y03604D01*
X04127*
X04137Y03594*
Y03574*
X04127Y03564*
X04098*
X04197Y03544D02*
X04157D01*
X04197Y03584*
Y03594*
X04187Y03604*
X04167*
X04157Y03594*
X04473Y03545D02*
Y03604D01*
X04502*
X04512Y03594*
Y03574*
X04502Y03564*
X04473*
X04532Y03545D02*
X04552D01*
X04542*
Y03604*
X04532Y03594*
X01579Y04674D02*
X0154D01*
Y04644*
X01559*
X0154*
Y04615*
X01599D02*
X01619D01*
X01609*
Y04674*
X01599Y04664*
X04475Y04095D02*
Y04155D01*
X04445*
X04435Y04145*
Y04105*
X04445Y04095*
X04475*
X04375D02*
X04395Y04105D01*
X04415Y04125*
Y04145*
X04405Y04155*
X04385*
X04375Y04145*
Y04135*
X04385Y04125*
X04415*
X0259Y04484D02*
Y04425D01*
X02619*
X02629Y04435*
Y04474*
X02619Y04484*
X0259*
X02689D02*
X02649D01*
Y04454*
X02669Y04464*
X02679*
X02689Y04454*
Y04435*
X02679Y04425*
X02659*
X02649Y04435*
X03232Y03825D02*
Y03766D01*
X03261*
X03271Y03776*
Y03815*
X03261Y03825*
X03232*
X03321Y03766D02*
Y03825D01*
X03291Y03795*
X03331*
X01796Y03999D02*
Y0394D01*
X01825*
X01835Y0395*
Y03989*
X01825Y03999*
X01796*
X01855Y03989D02*
X01865Y03999D01*
X01885*
X01895Y03989*
Y03979*
X01885Y03969*
X01875*
X01885*
X01895Y03959*
Y0395*
X01885Y0394*
X01865*
X01855Y0395*
X03814Y04629D02*
X03804Y04639D01*
X03785*
X03775Y04629*
Y0459*
X03785Y0458*
X03804*
X03814Y0459*
X03834Y0458D02*
X03854D01*
X03844*
Y04639*
X03834Y04629*
X03884Y0459D02*
X03894Y0458D01*
X03914*
X03924Y0459*
Y04629*
X03914Y04639*
X03894*
X03884Y04629*
Y04619*
X03894Y04609*
X03924*
X03204Y04642D02*
X03194Y04652D01*
X03175*
X03165Y04642*
Y04602*
X03175Y04592*
X03194*
X03204Y04602*
X03224Y04592D02*
X03244D01*
X03234*
Y04652*
X03224Y04642*
X03274D02*
X03284Y04652D01*
X03304*
X03314Y04642*
Y04632*
X03304Y04622*
X03314Y04612*
Y04602*
X03304Y04592*
X03284*
X03274Y04602*
Y04612*
X03284Y04622*
X03274Y04632*
Y04642*
X03284Y04622D02*
X03304D01*
X01737Y03194D02*
X01727Y03204D01*
X01707*
X01697Y03194*
Y03154*
X01707Y03144*
X01727*
X01737Y03154*
X01757Y03144D02*
X01777D01*
X01767*
Y03204*
X01757Y03194*
X01807Y03204D02*
X01847D01*
Y03194*
X01807Y03154*
Y03144*
X03164Y03259D02*
X03154Y03269D01*
X03135*
X03125Y03259*
Y0322*
X03135Y0321*
X03154*
X03164Y0322*
X03184Y0321D02*
X03204D01*
X03194*
Y03269*
X03184Y03259*
X03274Y03269D02*
X03254Y03259D01*
X03234Y03239*
Y0322*
X03244Y0321*
X03264*
X03274Y0322*
Y03229*
X03264Y03239*
X03234*
X03169Y03339D02*
X03159Y03349D01*
X0314*
X0313Y03339*
Y033*
X0314Y0329*
X03159*
X03169Y033*
X03189Y0329D02*
X03209D01*
X03199*
Y03349*
X03189Y03339*
X03279Y03349D02*
X03239D01*
Y03319*
X03259Y03329*
X03269*
X03279Y03319*
Y033*
X03269Y0329*
X03249*
X03239Y033*
X03169Y03409D02*
X03159Y03419D01*
X0314*
X0313Y03409*
Y0337*
X0314Y0336*
X03159*
X03169Y0337*
X03189Y0336D02*
X03209D01*
X03199*
Y03419*
X03189Y03409*
X03269Y0336D02*
Y03419D01*
X03239Y03389*
X03279*
X02649Y02952D02*
X02639Y02962D01*
X0262*
X0261Y02952*
Y02913*
X0262Y02903*
X02639*
X02649Y02913*
X02669Y02903D02*
X02689D01*
X02679*
Y02962*
X02669Y02952*
X02719D02*
X02729Y02962D01*
X02749*
X02759Y02952*
Y02942*
X02749Y02932*
X02739*
X02749*
X02759Y02922*
Y02913*
X02749Y02903*
X02729*
X02719Y02913*
X02554Y02877D02*
X02544Y02887D01*
X02525*
X02515Y02877*
Y02838*
X02525Y02828*
X02544*
X02554Y02838*
X02574Y02828D02*
X02594D01*
X02584*
Y02887*
X02574Y02877*
X02664Y02828D02*
X02624D01*
X02664Y02867*
Y02877*
X02654Y02887*
X02634*
X02624Y02877*
X02434Y02999D02*
X02424Y03009D01*
X02405*
X02395Y02999*
Y0296*
X02405Y0295*
X02424*
X02434Y0296*
X02454Y0295D02*
X02474D01*
X02464*
Y03009*
X02454Y02999*
X02504Y0295D02*
X02524D01*
X02514*
Y03009*
X02504Y02999*
X02349Y02894D02*
X02339Y02904D01*
X0232*
X0231Y02894*
Y02855*
X0232Y02845*
X02339*
X02349Y02855*
X02369Y02845D02*
X02389D01*
X02379*
Y02904*
X02369Y02894*
X02419D02*
X02429Y02904D01*
X02449*
X02459Y02894*
Y02855*
X02449Y02845*
X02429*
X02419Y02855*
Y02894*
X02304Y03004D02*
X02294Y03014D01*
X02275*
X02265Y03004*
Y02965*
X02275Y02955*
X02294*
X02304Y02965*
X02324D02*
X02334Y02955D01*
X02354*
X02364Y02965*
Y03004*
X02354Y03014*
X02334*
X02324Y03004*
Y02994*
X02334Y02984*
X02364*
X02179Y02999D02*
X02169Y03009D01*
X0215*
X0214Y02999*
Y0296*
X0215Y0295*
X02169*
X02179Y0296*
X02199Y02999D02*
X02209Y03009D01*
X02229*
X02239Y02999*
Y02989*
X02229Y02979*
X02239Y02969*
Y0296*
X02229Y0295*
X02209*
X02199Y0296*
Y02969*
X02209Y02979*
X02199Y02989*
Y02999*
X02209Y02979D02*
X02229D01*
X02212Y03748D02*
X02202Y03758D01*
X02183*
X02173Y03748*
Y03709*
X02183Y03699*
X02202*
X02212Y03709*
X02232Y03758D02*
X02272D01*
Y03748*
X02232Y03709*
Y03699*
X02641Y03737D02*
X02631Y03747D01*
X02611*
X02601Y03737*
Y03697*
X02611Y03687*
X02631*
X02641Y03697*
X02701Y03747D02*
X02681Y03737D01*
X02661Y03717*
Y03697*
X02671Y03687*
X02691*
X02701Y03697*
Y03707*
X02691Y03717*
X02661*
X03009Y03099D02*
X02999Y03109D01*
X0298*
X0297Y03099*
Y0306*
X0298Y0305*
X02999*
X03009Y0306*
X03069Y03109D02*
X03029D01*
Y03079*
X03049Y03089*
X03059*
X03069Y03079*
Y0306*
X03059Y0305*
X03039*
X03029Y0306*
X02386Y04532D02*
X02376Y04542D01*
X02356*
X02346Y04532*
Y04492*
X02356Y04482*
X02376*
X02386Y04492*
X02436Y04482D02*
Y04542D01*
X02406Y04512*
X02446*
X02457Y03854D02*
X02447Y03864D01*
X02428*
X02418Y03854*
Y03815*
X02428Y03805*
X02447*
X02457Y03815*
X02477Y03854D02*
X02487Y03864D01*
X02507*
X02517Y03854*
Y03844*
X02507Y03834*
X02497*
X02507*
X02517Y03824*
Y03815*
X02507Y03805*
X02487*
X02477Y03815*
X02457Y03774D02*
X02447Y03784D01*
X02428*
X02418Y03774*
Y03735*
X02428Y03725*
X02447*
X02457Y03735*
X02517Y03725D02*
X02477D01*
X02517Y03764*
Y03774*
X02507Y03784*
X02487*
X02477Y03774*
X01739Y04116D02*
X01729Y04126D01*
X0171*
X017Y04116*
Y04076*
X0171Y04066*
X01729*
X01739Y04076*
X01759Y04066D02*
X01779D01*
X01769*
Y04126*
X01759Y04116*
G54D16*
X03999Y048D02*
Y04839D01*
X03979Y04819D02*
X04019D01*
X03389Y048D02*
Y04839D01*
X03369Y04819D02*
X03409D01*
G54D17*
X03459Y03695D03*
M02*