%FSTAX23Y23*%
%MOIN*%
%SFA1B1*%

%IPPOS*%
%ADD13C,0.007870*%
%ADD15C,0.010000*%
%ADD18R,0.068900X0.031500*%
%ADD19R,0.055120X0.013780*%
%ADD20R,0.007870X0.023620*%
%ADD21R,0.070870X0.015750*%
%ADD22R,0.036000X0.057000*%
%ADD23R,0.040000X0.055000*%
%ADD24R,0.055000X0.040000*%
%ADD25R,0.059060X0.059060*%
%ADD26R,0.057000X0.036000*%
%ADD27R,0.043310X0.078740*%
%ADD28R,0.068900X0.025590*%
%ADD29R,0.025590X0.068900*%
%ADD30R,0.090550X0.090550*%
%ADD31R,0.047240X0.055120*%
%ADD32R,0.057090X0.023620*%
%ADD57C,0.027560*%
%ADD58C,0.031500*%
%ADD59C,0.015750*%
%ADD60C,0.019680*%
%ADD61R,0.315000X0.242000*%
%ADD62R,0.100000X0.255000*%
%ADD63R,0.445000X0.038000*%
%ADD64R,1.500000X0.250000*%
%ADD65R,0.295000X0.675000*%
%ADD66R,0.840000X0.187000*%
%ADD67R,1.020000X0.245000*%
%ADD68R,0.905000X0.265000*%
%ADD69C,0.060000*%
%ADD70C,0.064960*%
%ADD71C,0.059060*%
%ADD72R,0.059060X0.059060*%
%ADD73C,0.055120*%
%ADD74C,0.047240*%
%ADD75R,0.047240X0.047240*%
%ADD76C,0.137800*%
%ADD77C,0.050000*%
%ADD78C,0.035430*%
%LNpowerboard-1*%
%LPD*%
G54D13*
X02683Y0382D02*
X02728Y03865D01*
X02515Y0382D02*
X02683D01*
X02495Y038D02*
X02515Y0382D01*
X04185Y03955D02*
X044Y0417D01*
Y04235*
X0441Y04219D02*
X04423Y04206D01*
X04545*
Y04483D02*
X0455Y04488D01*
X04545Y04343D02*
Y04483D01*
X02728Y03865D02*
X02785D01*
X04Y0463D02*
X0402D01*
X0339Y0433D02*
X04D01*
X02684Y0431D02*
X02799D01*
X02575Y04419D02*
X02684Y0431D01*
X02422Y04419D02*
X02575D01*
X01614Y04219D02*
Y04294D01*
X01875Y04555*
X02185*
X0221Y0458*
Y04655*
X02265Y0471*
X02465*
X02491Y04683*
X02645*
X02357Y03805D02*
X02365Y03797D01*
Y0373D02*
Y03797D01*
X02785Y03865D02*
X0284D01*
X0285Y03855*
Y03695D02*
Y03855D01*
Y03695D02*
X0287Y03675D01*
X02915*
X03115Y0317D02*
X0323Y03054D01*
X03082Y03203D02*
X03115Y0317D01*
X03002D02*
X03115D01*
X02932Y0324D02*
X03002Y0317D01*
X02905Y0324D02*
X02932D01*
X02899Y03234D02*
X02905Y0324D01*
X028Y03234D02*
X02899D01*
X02955Y0324D02*
Y03266D01*
Y0324D02*
X0296Y03235D01*
X03013Y0349D02*
X0303Y03473D01*
X02945Y0349D02*
X03013D01*
X02692Y0329D02*
X02701Y033D01*
X02692Y03268D02*
Y0329D01*
X02487Y03612D02*
Y0367D01*
X02489Y03668*
X02677*
Y03625D02*
Y03668D01*
X02435Y0356D02*
Y0357D01*
Y0356D02*
X02487Y03612D01*
X02318Y03289D02*
X02394D01*
X02485Y0302D02*
Y03048D01*
Y0302D02*
X02509Y02996D01*
X02565*
X02395Y03048D02*
X02485D01*
X02295D02*
X02395D01*
X02195D02*
X02295D01*
X02113D02*
X02195D01*
X02078Y03013D02*
X02113Y03048D01*
X01992Y03013D02*
X02078D01*
X01992Y03065D02*
X01995Y03068D01*
X01992Y03013D02*
Y03065D01*
X0165Y03028D02*
X0172D01*
X01636D02*
X0165D01*
Y02985D02*
Y03028D01*
X01599Y03065D02*
X01636Y03028D01*
X01549Y03065D02*
X01599D01*
X01455Y03041D02*
X01478Y03065D01*
X01455Y02865D02*
Y03041D01*
X01478Y03065D02*
Y0311D01*
X01488Y0312*
X01615*
X01643Y03092*
X0172*
X01728Y031*
X01925*
X0193Y03095*
Y0301D02*
Y03095D01*
Y0301D02*
X01975Y02965D01*
X02777*
X02812Y03*
X02848*
X0183Y0295D02*
Y03011D01*
Y0295D02*
X01845Y02935D01*
X02146*
X02155Y02926*
Y02865D02*
Y02926D01*
X02315Y03523D02*
Y036D01*
Y03523D02*
X02318Y03519D01*
X02792Y03045D02*
Y03205D01*
X02761Y03068D02*
X02777Y03083D01*
X02772Y03025D02*
X02792Y03045D01*
X0273Y0301D02*
Y03064D01*
X0271Y03084D02*
X0273Y03064D01*
X0284Y0317D02*
X0287Y0314D01*
X0284Y0317D02*
Y03205D01*
X02824Y03125D02*
X0284Y0311D01*
X02824Y03125D02*
Y03205D01*
X02808Y03086D02*
X0282Y03075D01*
X02808Y03086D02*
Y03205D01*
X0275Y03141D02*
X02761D01*
X0274Y03131D02*
X0275Y03141D01*
X0274Y0311D02*
Y03131D01*
X03485Y03054D02*
X04634D01*
X0273Y03171D02*
Y03225D01*
X0271Y03151D02*
X0273Y03171D01*
Y03225D02*
X02739Y03234D01*
X0271Y03084D02*
Y03151D01*
X02715Y02996D02*
X0273Y0301D01*
X02777Y03083D02*
Y03205D01*
X02761Y03141D02*
Y03205D01*
X02565Y02996D02*
X0265D01*
X02715*
X02739Y03234D02*
X028D01*
X0292Y0321D02*
X02921D01*
X02922Y03209*
Y03D02*
Y03209D01*
X04634Y03054D02*
X04635Y03055D01*
X0323Y03054D02*
X03485D01*
X03082Y03203D02*
Y03235D01*
X0303Y03547D02*
X03098D01*
X0312Y03525*
Y03433D02*
Y03525D01*
X03082Y03395D02*
X0312Y03433D01*
X03082Y03315D02*
Y03395D01*
Y03235D02*
Y03315D01*
X0296Y03235D02*
X03018D01*
X0295Y0332D02*
X02955Y03315D01*
X03018*
X02945Y03395D02*
X03018D01*
X02795Y04115D02*
X02799Y0412D01*
X02795Y0407D02*
Y04115D01*
Y0407D02*
X0282Y04045D01*
Y0441D02*
Y0463D01*
X02963Y04648D02*
Y04705D01*
X02945Y0463D02*
X02963Y04648D01*
X0282Y0463D02*
X02945D01*
X03035Y04335D02*
X03385D01*
X02824D02*
X03035D01*
X03037Y04337*
Y04705*
X03385Y04335D02*
X0339Y0433D01*
X02799Y0431D02*
X02824Y04335D01*
X02799Y0427D02*
Y0431D01*
X0302Y0422D02*
Y0427D01*
Y0417D02*
Y0422D01*
Y0412D02*
Y0417D01*
Y04029D02*
Y0412D01*
Y04029D02*
X03055Y03995D01*
Y03917D02*
Y03995D01*
Y03843D02*
X03228D01*
X03257Y03872*
Y0391*
X03055Y0378D02*
Y03843D01*
X02028Y03845D02*
X0217D01*
X02083Y04105D02*
X02084Y04106D01*
Y0418*
X0118Y04219D02*
X01614D01*
X02598Y0396D02*
X02677D01*
X02692Y03975*
X02915*
X02799Y0422D02*
Y0427D01*
Y0417D02*
Y0422D01*
X0264Y0417D02*
X02799D01*
X02598Y04128D02*
X0264Y0417D01*
X02598Y0406D02*
Y04128D01*
Y0401D02*
Y0406D01*
Y0396D02*
Y0401D01*
Y0391D02*
Y0396D01*
X02381Y04151D02*
X0239Y0416D01*
X0278Y03425D02*
X02802D01*
X02761Y03264D02*
Y03313D01*
X02734Y0334D02*
X02761Y03313D01*
X02551Y0334D02*
X02734D01*
X02772Y0338D02*
X02799D01*
X02803Y03376*
Y0334D02*
Y03376D01*
X02777Y03314D02*
X02803Y0334D01*
X02777Y03264D02*
Y03314D01*
X0275Y0338D02*
X0276D01*
X02735Y03365D02*
X0275Y0338D01*
X02551Y03365D02*
X02735D01*
X02802Y03425D02*
X02829Y03397D01*
Y03341D02*
Y03397D01*
X02792Y03305D02*
X02829Y03341D01*
X02792Y03264D02*
Y03305D01*
X02769Y03409D02*
X0277Y0341D01*
X0274Y03409D02*
X02769D01*
X02715Y03385D02*
X0274Y03409D01*
X02808Y03264D02*
Y03298D01*
X0281Y0346D02*
X02845Y03425D01*
Y03335D02*
Y03425D01*
X02808Y03298D02*
X02845Y03335D01*
X0266Y0347D02*
X02803D01*
X0264Y0345D02*
X0266Y0347D01*
X0262Y0345D02*
X0264D01*
X02824Y03264D02*
Y03286D01*
X02865Y03327*
X02841Y03266D02*
X02885Y0331D01*
X02623Y03178D02*
Y03225D01*
Y03178D02*
X0264Y03161D01*
X0188Y0302D02*
Y03063D01*
Y03137D02*
X01885Y03142D01*
X01995*
X01867Y0315D02*
X0188Y03137D01*
X0149Y0315D02*
X01867D01*
X01473Y03167D02*
X0149Y0315D01*
X01473Y03167D02*
Y03235D01*
X02551Y03391D02*
X02607D01*
X02614Y03385*
X02692Y0324D02*
Y03268D01*
X02645Y03314D02*
X02692Y03268D01*
X02551Y03314D02*
X02645D01*
X02551Y03442D02*
X02612D01*
X0262Y0345*
X02551Y03417D02*
X02665D01*
X02565Y0316D02*
Y03191D01*
Y0316D02*
X0259D01*
X0265Y031*
Y0306D02*
Y031D01*
X02495Y0323D02*
X02525Y032D01*
Y03155D02*
Y032D01*
Y03155D02*
X02565Y03115D01*
Y0306D02*
Y03115D01*
X0233Y03245D02*
X02375D01*
X02485Y03112D02*
Y0319D01*
X0244Y03235D02*
X02485Y0319D01*
X02425Y03235D02*
X0244D01*
X02245Y0325D02*
X02285D01*
X02059Y03314D02*
X02318D01*
X02375Y03245D02*
X02395Y03225D01*
Y03112D02*
Y03225D01*
X02285Y0325D02*
X02295Y0324D01*
Y03112D02*
Y0324D01*
X0201Y0328D02*
X02025D01*
X02059Y03314*
X01928Y0328D02*
X01997D01*
X01883Y03235D02*
X01928Y0328D01*
X01547Y03235D02*
X01883D01*
X01375D02*
X01473D01*
X01358Y03251D02*
X01375Y03235D01*
X0115Y03251D02*
X01358D01*
X02318Y0334D02*
X02318Y0334D01*
X02005Y0334D02*
X02318D01*
X01547Y0334D02*
X02D01*
X01463Y03349D02*
X01473Y0334D01*
X0115Y03349D02*
X01463D01*
X02092Y03365D02*
X02318D01*
X02005Y03453D02*
X02092Y03365D01*
X01552Y0345D02*
X01995D01*
X01476Y03448D02*
X01478Y0345D01*
X0115Y03448D02*
X01476D01*
X0206Y0346D02*
Y03473D01*
Y0346D02*
X02128Y03391D01*
X02318*
X0206Y03473D02*
Y0353D01*
X0203Y0356D02*
X0206Y0353D01*
X01551Y0356D02*
X0203D01*
X014D02*
X01477D01*
X01386Y03546D02*
X014Y0356D01*
X0115Y03546D02*
X01386D01*
X02136Y03417D02*
X02318D01*
X02105Y03448D02*
X02136Y03417D01*
X02105Y03448D02*
Y03473D01*
Y0348D02*
Y03547D01*
X02068Y03584D02*
X02105Y03547D01*
X02068Y03584D02*
Y03623D01*
X01997Y03695D02*
X02068Y03623D01*
X01547Y03695D02*
X01997D01*
X0138D02*
X01473D01*
X0133Y03645D02*
X0138Y03695D01*
X0115Y03645D02*
X0133D01*
X02628Y0324D02*
Y03277D01*
X02615Y03289D02*
X02628Y03277D01*
X02551Y03289D02*
X02615D01*
X02614Y03385D02*
X02715D01*
G54D15*
X0465Y04114D02*
X04655Y04109D01*
Y039D02*
X04665Y0389D01*
X04655Y04109D02*
X04661Y04115D01*
X02865Y03327D02*
Y0348D01*
X0285Y03495D02*
X02865Y0348D01*
X02655Y03495D02*
X0285D01*
X02635Y03475D02*
X02655Y03495D01*
X02624Y03475D02*
X02635D01*
X02841Y03264D02*
Y03266D01*
X02885Y0331D02*
Y03495D01*
X02865Y03515D02*
X02885Y03495D01*
X02639Y03515D02*
X02865D01*
X02618Y03493D02*
X02639Y03515D01*
X02551Y03468D02*
X02617D01*
X02624Y03475*
X02551Y03493D02*
X02618D01*
X02195Y03112D02*
Y0328D01*
X0257Y03625D02*
X02613D01*
X02551Y03606D02*
X0257Y03625D01*
X02551Y03519D02*
Y03606D01*
X02357Y03885D02*
X02381Y0391D01*
X02357Y03805D02*
Y03885D01*
X0282Y0473D02*
X02885D01*
X0291Y04755*
X0303*
X03037Y04748*
Y04705D02*
Y04748D01*
X02755Y0473D02*
X0282D01*
X02708Y04683D02*
X02755Y0473D01*
X02645Y04683D02*
X02708D01*
X0225Y0348D02*
Y03515D01*
Y0348D02*
X02261Y03468D01*
X02318*
X02195Y03583D02*
X02237D01*
X0225Y0357*
Y03515D02*
Y0357D01*
Y03515D02*
X02271Y03493D01*
X02318*
X02182Y03442D02*
X02318D01*
X02155Y0347D02*
X02182Y03442D01*
X02155Y0347D02*
Y03551D01*
X02143Y03563D02*
X02155Y03551D01*
X02113Y03563D02*
X02143D01*
X02085Y03591D02*
X02113Y03563D01*
X02085Y03591D02*
Y03631D01*
X01986Y0373D02*
X02085Y03631D01*
X0174Y0373D02*
X01986D01*
X01675Y03795D02*
X0174Y0373D01*
X01543Y03795D02*
X01675D01*
X0136D02*
X01469D01*
X01308Y03743D02*
X0136Y03795D01*
X0115Y03743D02*
X01308D01*
X02122Y03583D02*
X02195D01*
X02105Y036D02*
X02122Y03583D01*
X02105Y036D02*
Y0364D01*
X01995Y0375D02*
X02105Y0364D01*
X01775Y0375D02*
X01995D01*
X01695Y0383D02*
X01775Y0375D01*
X01695Y0383D02*
Y03865D01*
X01665Y03895D02*
X01695Y03865D01*
X01547Y03895D02*
X01665D01*
X01365D02*
X01473D01*
X01311Y03841D02*
X01365Y03895D01*
X0115Y03841D02*
X01311D01*
X02026Y04005D02*
X02028Y04003D01*
Y03845D02*
Y04003D01*
X0184Y03856D02*
X01851Y03845D01*
X0184Y03856D02*
Y0404D01*
X02523Y04546D02*
X02645D01*
X02482Y04588D02*
X02523Y04546D01*
X0239Y04588D02*
X02482D01*
X01685Y04715D02*
X0169Y0472D01*
X0158Y04515D02*
X01585Y0452D01*
G54D18*
X02598Y0391D03*
Y0396D03*
Y0401D03*
Y0406D03*
X02381Y0391D03*
Y0396D03*
Y0401D03*
Y0406D03*
G54D19*
X02551Y03289D03*
Y03314D03*
Y0334D03*
Y03365D03*
Y03391D03*
Y03417D03*
Y03442D03*
Y03468D03*
Y03493D03*
Y03519D03*
X02318Y03289D03*
Y03314D03*
Y0334D03*
Y03365D03*
Y03391D03*
Y03417D03*
Y03442D03*
Y03468D03*
Y03493D03*
Y03519D03*
G54D20*
X02824Y03205D03*
X0284D03*
X02808D03*
X02792D03*
X02777D03*
X02761D03*
Y03264D03*
X02777D03*
X02792D03*
X02808D03*
X0284D03*
X02824D03*
G54D21*
X028Y03234D03*
G54D22*
X03082Y03395D03*
X03018D03*
X03082Y03315D03*
X03018D03*
X03082Y03235D03*
X03018D03*
X02687Y03225D03*
X02623D03*
X02423Y03675D03*
X02487D03*
X02357Y03805D03*
X02293D03*
X02358Y04419D03*
X02422D03*
X02613Y03625D03*
X02677D03*
G54D23*
X03037Y04705D03*
X02963D03*
X02848Y03D03*
X02922D03*
X01547Y03235D03*
X01473D03*
X01547Y0334D03*
X01473D03*
X01552Y0345D03*
X01478D03*
X01551Y0356D03*
X01477D03*
X01547Y03695D03*
X01473D03*
X01543Y03795D03*
X01469D03*
X02083Y04105D03*
X02157D03*
X01952Y04005D03*
X02026D03*
X01473Y03895D03*
X01547D03*
G54D24*
X0455Y04488D03*
Y04562D03*
X0188Y03137D03*
Y03063D03*
X0239Y04588D03*
Y04662D03*
X03055Y03843D03*
Y03917D03*
X0303Y03473D03*
Y03547D03*
X01995Y03142D03*
Y03068D03*
G54D25*
X04545Y04206D03*
Y04343D03*
X02645Y04683D03*
Y04546D03*
X0475Y0434D03*
Y04115D03*
Y0389D03*
Y03665D03*
X0282Y0473D03*
G54D26*
X0265Y0306D03*
Y02996D03*
X02565Y0306D03*
Y02996D03*
X02485Y03112D03*
Y03048D03*
X02395Y03112D03*
Y03048D03*
X02295Y03112D03*
Y03048D03*
X02195Y03112D03*
Y03048D03*
X0184Y0404D03*
Y04104D03*
X0172Y03028D03*
Y03092D03*
X02195Y03647D03*
Y03583D03*
G54D27*
X01685Y0452D03*
X01585D03*
G54D28*
X02799Y0427D03*
Y0422D03*
Y0417D03*
Y0412D03*
X0302Y0427D03*
Y0422D03*
Y0417D03*
Y0412D03*
G54D29*
X02015Y04419D03*
X02065D03*
X02115D03*
X02165D03*
X02015Y0464D03*
X02065D03*
X02115D03*
X02165D03*
G54D30*
X02028Y03845D03*
X01851D03*
G54D31*
X01478Y03065D03*
X01549D03*
G54D32*
X03472Y0391D03*
Y0396D03*
Y0401D03*
Y0406D03*
X03257Y0391D03*
Y0396D03*
Y0401D03*
Y0406D03*
G54D57*
X0465Y04114D02*
Y04365D01*
X04655Y03665D02*
Y039D01*
X04665Y0389D02*
X0475D01*
X04655Y039D02*
Y04109D01*
X04661Y04115D02*
X0475D01*
X0455Y04562D02*
X04623D01*
X0465Y04535*
Y04365D02*
Y04535D01*
Y04365D02*
X04675Y0434D01*
X0475*
X02615Y0385D02*
X02645D01*
X0267Y03875*
X02695*
X03255Y03695D02*
X0331D01*
X03472Y03857*
Y0391*
Y0401D02*
Y0406D01*
Y0396D02*
Y0401D01*
Y0391D02*
Y0396D01*
X0274Y0392D02*
X0285D01*
X02381Y0401D02*
X02468D01*
X025Y03978*
Y0388D02*
Y03978D01*
Y0388D02*
X0252Y0386D01*
X02605*
X02695Y03875D02*
X0274Y0392D01*
X0285D02*
X02915Y03855D01*
Y0379D02*
Y03855D01*
Y0379D02*
X02975Y0373D01*
X03534Y03579D02*
Y03695D01*
X03485Y0353D02*
X03534Y03579D01*
X03485Y0335D02*
Y0353D01*
G54D58*
X04655Y03665D02*
X0475D01*
X037D02*
X04655D01*
X04635Y0335D02*
Y03495D01*
X0455Y03579D02*
X04635Y03495D01*
X04205Y03579D02*
X0455D01*
X0426Y0335D02*
Y03525D01*
X04205Y03579D02*
X0426Y03525D01*
X03812Y03579D02*
X04205D01*
X0387Y0335D02*
Y03522D01*
X03812Y03579D02*
X0387Y03522D01*
X03534Y03579D02*
X03812D01*
X02785Y03565D02*
X0289D01*
X0294Y03615*
X0331*
X0349Y03795*
X03625*
X03655Y03765*
Y0371D02*
Y03765D01*
Y0371D02*
X037Y03665D01*
X02975Y0373D02*
X032D01*
X0335Y0388*
Y0402*
X0331Y0406D02*
X0335Y0402D01*
X03257Y0406D02*
X0331D01*
X03257D02*
Y04104D01*
X03298Y04145*
X03985*
X04105Y04265*
Y04545*
X0402Y0463D02*
X04105Y04545D01*
X0339Y0463D02*
X04D01*
X02358Y04359D02*
Y04419D01*
Y04359D02*
X02377Y0434D01*
X02573*
X02614Y04298*
Y04194D02*
Y04298D01*
X0258Y0416D02*
X02614Y04194D01*
X0239Y0416D02*
X0258D01*
X02381Y0406D02*
Y04151D01*
Y0401D02*
Y0406D01*
X02423Y0374D02*
Y03833D01*
Y03675D02*
Y0374D01*
X02785Y03565D02*
Y03675D01*
X0272Y0374D02*
X02785Y03675D01*
X02423Y0374D02*
X0272D01*
X02423Y03833D02*
X02455Y03865D01*
Y03945*
X0244Y0396D02*
X02455Y03945D01*
X02381Y0396D02*
X0244D01*
X0184Y04104D02*
X0194D01*
X01952Y04005D02*
Y04091D01*
X02291Y0455D02*
X02358Y04483D01*
Y04419D02*
Y04483D01*
X02297Y04662D02*
X0239D01*
X02275Y0464D02*
X02297Y04662D01*
X02275Y0455D02*
Y0464D01*
X02245Y0452D02*
X02275Y0455D01*
X02135Y0452D02*
X02245D01*
X02115Y045D02*
X02135Y0452D01*
X02115Y04419D02*
Y045D01*
X0184Y04104D02*
Y04145D01*
X0183Y04155D02*
X0184Y04145D01*
X0183Y04155D02*
Y0425D01*
Y0437*
X01879Y04419*
X02015*
X02065D02*
X02115D01*
X02015D02*
X02065D01*
X02115Y0464D02*
X02165D01*
X02065D02*
X02115D01*
X02015D02*
X02065D01*
X01959D02*
X02015D01*
X01935Y04665D02*
X01959Y0464D01*
X01935Y04665D02*
Y0472D01*
X0179D02*
X01935D01*
X01685Y0452D02*
Y04715D01*
X0118Y04515D02*
X0158D01*
G54D59*
X02605Y0386D02*
X02615Y0385D01*
X0224Y03805D02*
X02293D01*
X02195Y0376D02*
X0224Y03805D01*
X02195Y03647D02*
Y0376D01*
X02358Y03647D02*
X02435Y0357D01*
X02195Y03647D02*
X02358D01*
X02435Y0333D02*
Y0356D01*
X02394Y03289D02*
X02435Y0333D01*
X02083Y04037D02*
Y04105D01*
Y04037D02*
X02135Y03985D01*
X0225*
X02293Y03942*
Y03805D02*
Y03942D01*
G54D60*
X03257Y0401D02*
Y0406D01*
Y0396D02*
Y0401D01*
X0194Y04104D02*
X01952Y04091D01*
X02275Y0455D02*
X02291D01*
X02265Y0425D02*
Y04395D01*
Y0413D02*
Y0425D01*
X0253*
X02157Y04105D02*
X0224D01*
X02265Y0413*
X0224Y04419D02*
X02265Y04395D01*
X02165Y04419D02*
X0224D01*
G54D61*
X03052Y04441D03*
G54D62*
X02095Y03117D03*
G54D63*
X02292Y03004D03*
G54D64*
X04025Y03055D03*
G54D65*
X04327Y04377D03*
G54D66*
X0417Y03823D03*
G54D67*
X0408Y03967D03*
G54D68*
X03587Y04402D03*
G54D69*
X0114Y03028D03*
X0463Y0468D03*
X0115Y03645D03*
Y03743D03*
Y03251D03*
Y03349D03*
Y03546D03*
Y03448D03*
Y03841D03*
G54D70*
X0253Y0425D03*
X0183D03*
G54D71*
X0179Y0472D03*
X0475Y0444D03*
Y04215D03*
Y0399D03*
Y03765D03*
X0282Y0463D03*
X03255Y03695D03*
X02055Y02865D03*
X01955D03*
X01855D03*
X01755D03*
X01655D03*
X01555D03*
X01455D03*
G54D72*
X0169Y0472D03*
X03534Y03695D03*
X02155Y02865D03*
G54D73*
X02915Y03675D03*
Y03975D03*
X02785Y03865D03*
Y03565D03*
G54D74*
X04Y0433D03*
X0339D03*
G54D75*
X04Y0463D03*
X0339D03*
G54D76*
X0118Y04515D03*
Y04219D03*
X04635Y03055D03*
Y0335D03*
X0387Y03054D03*
Y03349D03*
X0426Y03054D03*
Y03349D03*
X03485Y03054D03*
Y0335D03*
G54D77*
X044Y04235D03*
X02365Y0373D03*
X0249Y03795D03*
X02315Y03606D03*
X0282Y04045D03*
Y0441D03*
X03055Y0378D03*
X0218Y03843D03*
X02084Y0418D03*
X01614Y04219D03*
G54D78*
X02955Y03266D03*
X02945Y0349D03*
X02705Y033D03*
X01992Y03013D03*
X01655Y02981D03*
X0183Y03011D03*
X02826Y03066D03*
X02761Y03068D03*
X02881Y03136D03*
X02846Y03105D03*
X02761Y03023D03*
X0274Y0311D03*
X0292Y0321D03*
X0295Y0332D03*
X02945Y03395D03*
X0278Y03425D03*
X02772Y0338D03*
X0281Y0346D03*
X0264Y03161D03*
X0188Y03015D03*
X02675Y03417D03*
X02565Y03191D03*
X02495Y0323D03*
X0233Y03245D03*
X02195Y0328D03*
X02425Y03235D03*
X02245Y0325D03*
X0201Y0328D03*
X02005Y0334D03*
Y03453D03*
X0206Y03473D03*
X02105D03*
X02155Y0347D03*
M02*