%FSTAX23Y23*%
%MOIN*%
%SFA1B1*%

%IPPOS*%
%ADD96C,0.003940*%
%LNpowerboard-1*%
%LPD*%
G54D96*
X02466Y04049D02*
X02463Y04059D01*
X02456Y04067*
X02446Y04069*
X02436Y04067*
X02429Y04059*
X02427Y04049*
X02429Y0404*
X02436Y04032*
X02446Y0403*
X02456Y04032*
X02463Y0404*
X02466Y04049*
X02401Y03498D02*
X02398Y03508D01*
X02391Y03515*
X02381Y03518*
X02372Y03515*
X02364Y03508*
X02362Y03498*
X02364Y03488*
X02372Y03481*
X02381Y03479*
X02391Y03481*
X02398Y03488*
X02401Y03498*
X02886Y04259D02*
X02883Y04269D01*
X02876Y04277*
X02866Y04279*
X02856Y04277*
X02849Y04269*
X02847Y04259*
X02849Y0425*
X02856Y04242*
X02866Y0424*
X02876Y04242*
X02883Y0425*
X02886Y04259*
X02044Y04486D02*
X02042Y04496D01*
X02034Y04503*
X02025Y04506*
X02015Y04503*
X02007Y04496*
X02005Y04486*
X02007Y04476*
X02015Y04469*
X02025Y04467*
X02034Y04469*
X02042Y04476*
X02044Y04486*
X03341Y04049D02*
X03338Y04059D01*
X03331Y04067*
X03321Y04069*
X03311Y04067*
X03304Y04059*
X03302Y04049*
X03304Y0404*
X03311Y04032*
X03321Y0403*
X03331Y04032*
X03338Y0404*
X03341Y04049*
X02411Y03884D02*
X02568D01*
X02411Y04085D02*
X02568D01*
Y03884D02*
Y04085D01*
X02411Y03884D02*
Y04085D01*
X02346Y03274D02*
X02523D01*
X02346Y03534D02*
X02523D01*
Y03274D02*
Y03534D01*
X02346Y03274D02*
Y03534D01*
X02831Y04094D02*
Y04295D01*
X02988Y04094D02*
Y04295D01*
X02831D02*
X02988D01*
X02831Y04094D02*
X02988D01*
X01989Y04451D02*
X0219D01*
X01989Y04608D02*
X0219D01*
X01989Y04451D02*
Y04608D01*
X0219Y04451D02*
Y04608D01*
X01471Y03037D02*
Y03092D01*
X01556Y03037D02*
Y03092D01*
X01471D02*
X01556D01*
X01471Y03037D02*
X01556D01*
X03286Y03884D02*
X03443D01*
X03286Y04085D02*
X03443D01*
Y03884D02*
Y04085D01*
X03286Y03884D02*
Y04085D01*
M02*