%FSTAX23Y23*%
%MOIN*%
%SFA1B1*%

%IPPOS*%
%ADD18R,0.068900X0.031500*%
%ADD19R,0.055120X0.013780*%
%ADD20R,0.007870X0.023620*%
%ADD21R,0.070870X0.015750*%
%ADD22R,0.036000X0.057000*%
%ADD23R,0.040000X0.055000*%
%ADD24R,0.055000X0.040000*%
%ADD25R,0.059060X0.059060*%
%ADD26R,0.057000X0.036000*%
%ADD27R,0.043310X0.078740*%
%ADD28R,0.068900X0.025590*%
%ADD29R,0.025590X0.068900*%
%ADD30R,0.090550X0.090550*%
%ADD31R,0.047240X0.055120*%
%ADD32R,0.057090X0.023620*%
%LNpowerboard-1*%
%LPD*%
G54D18*
X02598Y0391D03*
Y0396D03*
Y0401D03*
Y0406D03*
X02381Y0391D03*
Y0396D03*
Y0401D03*
Y0406D03*
G54D19*
X02551Y03289D03*
Y03314D03*
Y0334D03*
Y03365D03*
Y03391D03*
Y03417D03*
Y03442D03*
Y03468D03*
Y03493D03*
Y03519D03*
X02318Y03289D03*
Y03314D03*
Y0334D03*
Y03365D03*
Y03391D03*
Y03417D03*
Y03442D03*
Y03468D03*
Y03493D03*
Y03519D03*
G54D20*
X02824Y03205D03*
X0284D03*
X02808D03*
X02792D03*
X02777D03*
X02761D03*
Y03264D03*
X02777D03*
X02792D03*
X02808D03*
X0284D03*
X02824D03*
G54D21*
X028Y03234D03*
G54D22*
X03082Y03395D03*
X03018D03*
X03082Y03315D03*
X03018D03*
X03082Y03235D03*
X03018D03*
X02687Y03225D03*
X02623D03*
X02423Y03675D03*
X02487D03*
X02357Y03805D03*
X02293D03*
X02358Y04419D03*
X02422D03*
X02613Y03625D03*
X02677D03*
G54D23*
X03037Y04705D03*
X02963D03*
X02848Y03D03*
X02922D03*
X01547Y03235D03*
X01473D03*
X01547Y0334D03*
X01473D03*
X01552Y0345D03*
X01478D03*
X01551Y0356D03*
X01477D03*
X01547Y03695D03*
X01473D03*
X01543Y03795D03*
X01469D03*
X02083Y04105D03*
X02157D03*
X01952Y04005D03*
X02026D03*
X01473Y03895D03*
X01547D03*
G54D24*
X0455Y04488D03*
Y04562D03*
X0188Y03137D03*
Y03063D03*
X0239Y04588D03*
Y04662D03*
X03055Y03843D03*
Y03917D03*
X0303Y03473D03*
Y03547D03*
X01995Y03142D03*
Y03068D03*
G54D25*
X04545Y04206D03*
Y04343D03*
X02645Y04683D03*
Y04546D03*
G54D26*
X0265Y0306D03*
Y02996D03*
X02565Y0306D03*
Y02996D03*
X02485Y03112D03*
Y03048D03*
X02395Y03112D03*
Y03048D03*
X02295Y03112D03*
Y03048D03*
X02195Y03112D03*
Y03048D03*
X0184Y0404D03*
Y04104D03*
X0172Y03028D03*
Y03092D03*
X02195Y03647D03*
Y03583D03*
G54D27*
X01685Y0452D03*
X01585D03*
G54D28*
X02799Y0427D03*
Y0422D03*
Y0417D03*
Y0412D03*
X0302Y0427D03*
Y0422D03*
Y0417D03*
Y0412D03*
G54D29*
X02015Y04419D03*
X02065D03*
X02115D03*
X02165D03*
X02015Y0464D03*
X02065D03*
X02115D03*
X02165D03*
G54D30*
X02028Y03845D03*
X01851D03*
G54D31*
X01478Y03065D03*
X01549D03*
G54D32*
X03472Y0391D03*
Y0396D03*
Y0401D03*
Y0406D03*
X03257Y0391D03*
Y0396D03*
Y0401D03*
Y0406D03*
M02*