G04*
G04 #@! TF.GenerationSoftware,Altium Limited,Altium Designer,18.1.9 (240)*
G04*
G04 Layer_Color=16711935*
%FSLAX25Y25*%
%MOIN*%
G70*
G01*
G75*
%ADD15C,0.01000*%
%ADD93C,0.03937*%
%ADD94C,0.00197*%
%ADD95C,0.00000*%
%ADD96C,0.00394*%
D15*
X102402Y315681D02*
Y354658D01*
Y315681D02*
X127650D01*
Y393634D01*
X102453D02*
X127650D01*
X102402Y354658D02*
Y393634D01*
D93*
X99000Y478000D02*
X100500Y479500D01*
X99000Y290500D02*
Y478000D01*
Y290500D02*
X119000D01*
X140000Y269500D01*
X241000D01*
X259000Y287500D01*
X481000D01*
Y479500D01*
X100500D02*
X481000D01*
D94*
X275142Y318728D02*
Y323453D01*
Y318728D02*
X284984D01*
X275142Y323256D02*
Y327980D01*
X284984Y323256D02*
Y327980D01*
Y318728D02*
Y323453D01*
X275142Y327980D02*
X284984D01*
D95*
X300700Y336600D02*
Y342400D01*
X303600D02*
X306400D01*
X309300Y336600D02*
Y342400D01*
X303600Y336600D02*
X306400D01*
Y342400D02*
X309300D01*
X306400Y336600D02*
X309300D01*
X306400D02*
Y342400D01*
X300700Y336600D02*
X303600D01*
X300700Y342400D02*
X303600D01*
Y336600D02*
Y342400D01*
X300700Y328600D02*
Y334400D01*
X303600D02*
X306400D01*
X309300Y328600D02*
Y334400D01*
X303600Y328600D02*
X306400D01*
Y334400D02*
X309300D01*
X306400Y328600D02*
X309300D01*
X306400D02*
Y334400D01*
X300700Y328600D02*
X303600D01*
X300700Y334400D02*
X303600D01*
Y328600D02*
Y334400D01*
X300700Y320600D02*
Y326400D01*
X303600D02*
X306400D01*
X309300Y320600D02*
Y326400D01*
X303600Y320600D02*
X306400D01*
Y326400D02*
X309300D01*
X306400Y320600D02*
X309300D01*
X306400D02*
Y326400D01*
X300700Y320600D02*
X303600D01*
X300700Y326400D02*
X303600D01*
Y320600D02*
Y326400D01*
X295800Y467700D02*
Y473300D01*
X298300D02*
X301700D01*
X304200Y467700D02*
Y473300D01*
X298300Y467700D02*
X301700D01*
Y473300D02*
X304200D01*
X301700Y467700D02*
X304200D01*
X301700D02*
Y473300D01*
X295800Y467700D02*
X298300D01*
X295800Y473300D02*
X298300D01*
Y467700D02*
Y473300D01*
X452200Y450800D02*
X457800D01*
X452200Y448300D02*
Y450800D01*
X457800Y448300D02*
Y450800D01*
X452200Y454200D02*
X457800D01*
Y456700D01*
X452200Y454200D02*
Y456700D01*
X457800Y450800D02*
Y454200D01*
X452200Y456700D02*
X457800D01*
X452200Y450800D02*
Y454200D01*
Y448300D02*
X457800D01*
X185200Y305800D02*
X190800D01*
X185200Y308300D02*
Y311700D01*
Y314200D02*
X190800D01*
Y308300D02*
Y311700D01*
X185200D02*
Y314200D01*
X190800Y311700D02*
Y314200D01*
X185200Y311700D02*
X190800D01*
Y305800D02*
Y308300D01*
X185200Y305800D02*
Y308300D01*
X190800D01*
X292700Y297200D02*
Y302800D01*
X286800Y297200D02*
X290200D01*
X284300D02*
Y302800D01*
X286800D02*
X290200D01*
X284300Y297200D02*
X286800D01*
X284300Y302800D02*
X286800D01*
Y297200D02*
Y302800D01*
X290200D02*
X292700D01*
X290200Y297200D02*
X292700D01*
X290200D02*
Y302800D01*
X261200Y319600D02*
Y325400D01*
X264100D02*
X266900D01*
X269800Y319600D02*
Y325400D01*
X264100Y319600D02*
X266900D01*
Y325400D02*
X269800D01*
X266900Y319600D02*
X269800D01*
X266900D02*
Y325400D01*
X261200Y319600D02*
X264100D01*
X261200Y325400D02*
X264100D01*
Y319600D02*
Y325400D01*
X249800Y364600D02*
Y370400D01*
X244100Y364600D02*
X246900D01*
X241200D02*
Y370400D01*
X244100D02*
X246900D01*
X241200Y364600D02*
X244100D01*
X241200Y370400D02*
X244100D01*
Y364600D02*
Y370400D01*
X246900D02*
X249800D01*
X246900Y364600D02*
X249800D01*
X246900D02*
Y370400D01*
X228200Y377600D02*
Y383400D01*
X231100D02*
X233900D01*
X236800Y377600D02*
Y383400D01*
X231100Y377600D02*
X233900D01*
Y383400D02*
X236800D01*
X233900Y377600D02*
X236800D01*
X233900D02*
Y383400D01*
X228200Y377600D02*
X231100D01*
X228200Y383400D02*
X231100D01*
Y377600D02*
Y383400D01*
X236200Y460800D02*
X241800D01*
X236200Y458300D02*
Y460800D01*
X241800Y458300D02*
Y460800D01*
X236200Y464200D02*
X241800D01*
Y466700D01*
X236200Y464200D02*
Y466700D01*
X241800Y460800D02*
Y464200D01*
X236200Y466700D02*
X241800D01*
X236200Y460800D02*
Y464200D01*
Y458300D02*
X241800D01*
X262100Y298500D02*
X267900D01*
X262100Y301400D02*
Y304200D01*
Y307100D02*
X267900D01*
Y301400D02*
Y304200D01*
X262100D02*
Y307100D01*
X267900Y304200D02*
Y307100D01*
X262100Y304200D02*
X267900D01*
Y298500D02*
Y301400D01*
X262100Y298500D02*
Y301400D01*
X267900D01*
X253600Y298500D02*
X259400D01*
X253600Y301400D02*
Y304200D01*
Y307100D02*
X259400D01*
Y301400D02*
Y304200D01*
X253600D02*
Y307100D01*
X259400Y304200D02*
Y307100D01*
X253600Y304200D02*
X259400D01*
Y298500D02*
Y301400D01*
X253600Y298500D02*
Y301400D01*
X259400D01*
X245600Y303700D02*
X251400D01*
X245600Y306600D02*
Y309400D01*
Y312300D02*
X251400D01*
Y306600D02*
Y309400D01*
X245600D02*
Y312300D01*
X251400Y309400D02*
Y312300D01*
X245600Y309400D02*
X251400D01*
Y303700D02*
Y306600D01*
X245600Y303700D02*
Y306600D01*
X251400D01*
X236600Y303700D02*
X242400D01*
X236600Y306600D02*
Y309400D01*
Y312300D02*
X242400D01*
Y306600D02*
Y309400D01*
X236600D02*
Y312300D01*
X242400Y309400D02*
Y312300D01*
X236600Y309400D02*
X242400D01*
Y303700D02*
Y306600D01*
X236600Y303700D02*
Y306600D01*
X242400D01*
X226600Y303700D02*
X232400D01*
X226600Y306600D02*
Y309400D01*
Y312300D02*
X232400D01*
Y306600D02*
Y309400D01*
X226600D02*
Y312300D01*
X232400Y309400D02*
Y312300D01*
X226600Y309400D02*
X232400D01*
Y303700D02*
Y306600D01*
X226600Y303700D02*
Y306600D01*
X232400D01*
X216600Y303700D02*
X222400D01*
X216600Y306600D02*
Y309400D01*
Y312300D02*
X222400D01*
Y306600D02*
Y309400D01*
X216600D02*
Y312300D01*
X222400Y309400D02*
Y312300D01*
X216600Y309400D02*
X222400D01*
Y303700D02*
Y306600D01*
X216600Y303700D02*
Y306600D01*
X222400D01*
X146800Y320700D02*
Y326300D01*
X149300D02*
X152700D01*
X155200Y320700D02*
Y326300D01*
X149300Y320700D02*
X152700D01*
Y326300D02*
X155200D01*
X152700Y320700D02*
X155200D01*
X152700D02*
Y326300D01*
X146800Y320700D02*
X149300D01*
X146800Y326300D02*
X149300D01*
Y320700D02*
Y326300D01*
X146800Y331200D02*
Y336800D01*
X149300D02*
X152700D01*
X155200Y331200D02*
Y336800D01*
X149300Y331200D02*
X152700D01*
Y336800D02*
X155200D01*
X152700Y331200D02*
X155200D01*
X152700D02*
Y336800D01*
X146800Y331200D02*
X149300D01*
X146800Y336800D02*
X149300D01*
Y331200D02*
Y336800D01*
X147300Y342200D02*
Y347800D01*
X149800D02*
X153200D01*
X155700Y342200D02*
Y347800D01*
X149800Y342200D02*
X153200D01*
Y347800D02*
X155700D01*
X153200Y342200D02*
X155700D01*
X153200D02*
Y347800D01*
X147300Y342200D02*
X149800D01*
X147300Y347800D02*
X149800D01*
Y342200D02*
Y347800D01*
X147200Y353200D02*
Y358800D01*
X149700D02*
X153100D01*
X155600Y353200D02*
Y358800D01*
X149700Y353200D02*
X153100D01*
Y358800D02*
X155600D01*
X153100Y353200D02*
X155600D01*
X153100D02*
Y358800D01*
X147200Y353200D02*
X149700D01*
X147200Y358800D02*
X149700D01*
Y353200D02*
Y358800D01*
X146800Y366700D02*
Y372300D01*
X149300D02*
X152700D01*
X155200Y366700D02*
Y372300D01*
X149300Y366700D02*
X152700D01*
Y372300D02*
X155200D01*
X152700Y366700D02*
X155200D01*
X152700D02*
Y372300D01*
X146800Y366700D02*
X149300D01*
X146800Y372300D02*
X149300D01*
Y366700D02*
Y372300D01*
X146400Y376700D02*
Y382300D01*
X148900D02*
X152300D01*
X154800Y376700D02*
Y382300D01*
X148900Y376700D02*
X152300D01*
Y382300D02*
X154800D01*
X152300Y376700D02*
X154800D01*
X152300D02*
Y382300D01*
X146400Y376700D02*
X148900D01*
X146400Y382300D02*
X148900D01*
Y376700D02*
Y382300D01*
X216200Y407700D02*
Y413300D01*
X210300Y407700D02*
X213700D01*
X207800D02*
Y413300D01*
X210300D02*
X213700D01*
X207800Y407700D02*
X210300D01*
X207800Y413300D02*
X210300D01*
Y407700D02*
Y413300D01*
X213700D02*
X216200D01*
X213700Y407700D02*
X216200D01*
X213700D02*
Y413300D01*
X181100Y405800D02*
X186900D01*
X181100Y402900D02*
Y405800D01*
X186900Y402900D02*
Y405800D01*
X181100Y408600D02*
X186900D01*
Y411500D01*
X181100Y408600D02*
Y411500D01*
X186900Y405800D02*
Y408600D01*
X181100Y411500D02*
X186900D01*
X181100Y405800D02*
Y408600D01*
Y402900D02*
X186900D01*
X237600Y439076D02*
Y444876D01*
X234700D02*
X237600D01*
X234700Y439076D02*
X237600D01*
X240400D02*
Y444876D01*
Y439076D02*
X243300D01*
X240400Y444876D02*
X243300D01*
X237600Y439076D02*
X240400D01*
X243300D02*
Y444876D01*
X237600D02*
X240400D01*
X234700Y439076D02*
Y444876D01*
X197261Y397700D02*
Y403300D01*
X194761D02*
X197261D01*
X194761Y397700D02*
X197261D01*
X200661D02*
Y403300D01*
Y397700D02*
X203161D01*
X200661Y403300D02*
X203161D01*
X197261Y397700D02*
X200661D01*
X203161D02*
Y403300D01*
X197261D02*
X200661D01*
X194761Y397700D02*
Y403300D01*
X169100Y304600D02*
X174900D01*
X169100Y301700D02*
Y304600D01*
X174900Y301700D02*
Y304600D01*
X169100Y307400D02*
X174900D01*
Y310300D01*
X169100Y307400D02*
Y310300D01*
X174900Y304600D02*
Y307400D01*
X169100Y310300D02*
X174900D01*
X169100Y304600D02*
Y307400D01*
Y301700D02*
X174900D01*
X302700Y386300D02*
X308300D01*
X302700Y383800D02*
Y386300D01*
X308300Y383800D02*
Y386300D01*
X302700Y389700D02*
X308300D01*
Y392200D01*
X302700Y389700D02*
Y392200D01*
X308300Y386300D02*
Y389700D01*
X302700Y392200D02*
X308300D01*
X302700Y386300D02*
Y389700D01*
Y383800D02*
X308300D01*
X263100Y359600D02*
Y365400D01*
X260200D02*
X263100D01*
X260200Y359600D02*
X263100D01*
X265900D02*
Y365400D01*
Y359600D02*
X268800D01*
X265900Y365400D02*
X268800D01*
X263100Y359600D02*
X265900D01*
X268800D02*
Y365400D01*
X263100D02*
X265900D01*
X260200Y359600D02*
Y365400D01*
X149300Y386700D02*
Y392300D01*
X146800D02*
X149300D01*
X146800Y386700D02*
X149300D01*
X152700D02*
Y392300D01*
Y386700D02*
X155200D01*
X152700Y392300D02*
X155200D01*
X149300Y386700D02*
X152700D01*
X155200D02*
Y392300D01*
X149300D02*
X152700D01*
X146800Y386700D02*
Y392300D01*
X300200Y349300D02*
X305800D01*
X300200Y346800D02*
Y349300D01*
X305800Y346800D02*
Y349300D01*
X300200Y352700D02*
X305800D01*
Y355200D01*
X300200Y352700D02*
Y355200D01*
X305800Y349300D02*
Y352700D01*
X300200Y355200D02*
X305800D01*
X300200Y349300D02*
Y352700D01*
Y346800D02*
X305800D01*
X216600Y362900D02*
X222400D01*
Y365800D01*
X216600Y362900D02*
Y365800D01*
Y360100D02*
X222400D01*
X216600Y357200D02*
Y360100D01*
X222400Y357200D02*
Y360100D01*
X216600D02*
Y362900D01*
Y357200D02*
X222400D01*
Y360100D02*
Y362900D01*
X216600Y365800D02*
X222400D01*
X196700Y312200D02*
X202300D01*
Y314700D01*
X196700Y312200D02*
Y314700D01*
Y308800D02*
X202300D01*
X196700Y306300D02*
Y308800D01*
X202300Y306300D02*
Y308800D01*
X196700D02*
Y312200D01*
Y306300D02*
X202300D01*
Y308800D02*
Y312200D01*
X196700Y314700D02*
X202300D01*
D96*
X454500Y426713D02*
Y428287D01*
X453713Y427500D02*
X455287D01*
X264500Y460713D02*
Y462287D01*
X263713Y461500D02*
X265287D01*
X156000Y447500D02*
Y456500D01*
X171000D01*
Y448000D02*
Y456500D01*
X170500Y447500D02*
X171000Y448000D01*
X156000Y447500D02*
X170500D01*
X194000Y383713D02*
Y385287D01*
X193213Y384500D02*
X194787D01*
M02*
