M48
;Layer_Color=9474304
;FILE_FORMAT=2:5
INCH,TZ
;TYPE=PLATED
T1F00S00C0.02362
T2F00S00C0.02756
T3F00S00C0.02800
T4F00S00C0.03346
T5F00S00C0.03543
T6F00S00C0.03937
T7F00S00C0.04331
T8F00S00C0.11811
T9F00S00C0.13780
%
T01
X165500Y298176
X183000Y301176
X188000Y301524
X199227Y301347
X276126Y302300
Y306800
X274000Y311000
X284626Y310525
X282626Y306675
X288126Y313651
X292000Y321000
X295500Y326606
X295000Y332000
X294500Y339500
Y349000
X281000Y346000
X278000Y342500
X277299Y338000
X267500Y341705
X270500Y330079
X264000Y316177
X256500Y319177
X249500Y323000
X242500Y323500
X233000Y324500
X224500Y325000
X219500Y328000
X201000Y328024
X200500Y334024
Y345323
X206000Y347323
X210500
X215500Y347000
T02
X339000Y433000
Y463000
X400000
Y433000
T03
X161472Y421972
X208476Y418000
X218000Y384300
X236500Y373000
X231500Y360614
X249000Y379500
X282000Y404500
Y441000
X305500Y378000
X440000Y423500
T04
X278500Y356500
X291500Y367500
Y397500
X278500Y386500
T05
X165500Y286500
X175500
X185500
X195500
X205500
X215500
X155500
X145500
X282000Y463000
X325524Y369500
X353476
X475000Y366500
Y376500
Y389000
Y399000
Y411500
Y421500
Y434000
Y444000
X282000Y473000
X179000Y472000
X169000
T06
X183000Y425000
X253000
T07
X115000Y325138
Y334972
Y344823
Y354658
Y364500
Y374335
Y384185
T08
X348500Y305472
X387000Y305445
X426000
X463500Y305500
X118000Y421972
Y451500
X348500Y335000
X387000Y334972
X426000
X463500Y335028
T09
X114000Y302800
X463000Y468000
M30
