G04*
G04 #@! TF.GenerationSoftware,Altium Limited,Altium Designer,18.1.9 (240)*
G04*
G04 Layer_Color=16711935*
%FSLAX25Y25*%
%MOIN*%
G70*
G01*
G75*
%ADD40R,0.06706X0.06706*%
%ADD48C,0.06800*%
%ADD49C,0.07296*%
%ADD50C,0.06706*%
%ADD51R,0.06706X0.06706*%
%ADD52C,0.06312*%
%ADD53C,0.05524*%
%ADD54R,0.05524X0.05524*%
%ADD55C,0.14580*%
%ADD56C,0.05800*%
D40*
X475000Y434000D02*
D03*
Y411500D02*
D03*
Y389000D02*
D03*
Y366500D02*
D03*
X282000Y473000D02*
D03*
D48*
X114000Y302800D02*
D03*
X463000Y468000D02*
D03*
X115000Y364500D02*
D03*
Y374335D02*
D03*
Y325138D02*
D03*
Y334972D02*
D03*
Y354658D02*
D03*
Y344823D02*
D03*
Y384185D02*
D03*
D49*
X253000Y425000D02*
D03*
X183000D02*
D03*
D50*
X179000Y472000D02*
D03*
X475000Y444000D02*
D03*
Y421500D02*
D03*
Y399000D02*
D03*
Y376500D02*
D03*
X282000Y463000D02*
D03*
X325524Y369500D02*
D03*
X205500Y286500D02*
D03*
X195500D02*
D03*
X185500D02*
D03*
X175500D02*
D03*
X165500D02*
D03*
X155500D02*
D03*
X145500D02*
D03*
D51*
X169000Y472000D02*
D03*
X353476Y369500D02*
D03*
X215500Y286500D02*
D03*
D52*
X291500Y367500D02*
D03*
Y397500D02*
D03*
X278500Y386500D02*
D03*
Y356500D02*
D03*
D53*
X400000Y433000D02*
D03*
X339000D02*
D03*
D54*
X400000Y463000D02*
D03*
X339000D02*
D03*
D55*
X118000Y451500D02*
D03*
Y421972D02*
D03*
X463500Y305500D02*
D03*
Y335028D02*
D03*
X387000Y305445D02*
D03*
Y334972D02*
D03*
X426000Y305445D02*
D03*
Y334972D02*
D03*
X348500Y305472D02*
D03*
Y335000D02*
D03*
D56*
X440000Y423500D02*
D03*
X236500Y373000D02*
D03*
X249000Y379500D02*
D03*
X231500Y360614D02*
D03*
X282000Y404500D02*
D03*
Y441000D02*
D03*
X305500Y378000D02*
D03*
X218000Y384300D02*
D03*
X208476Y418000D02*
D03*
X161472Y421972D02*
D03*
M02*
