G04 Layer_Color=65535*
%FSLAX25Y25*%
%MOIN*%
G70*
G01*
G75*
%ADD24C,0.01000*%
%ADD87C,0.00500*%
%ADD88C,0.00000*%
%ADD89C,0.00984*%
%ADD90C,0.01102*%
%ADD91C,0.00600*%
%ADD92C,0.00787*%
%ADD93C,0.00700*%
%ADD94C,0.00800*%
%ADD95C,0.00200*%
%ADD96C,0.00781*%
G36*
X308098Y455500D02*
X311065D01*
Y450451D01*
X308098D01*
Y450419D01*
X304000D01*
Y450451D01*
Y455500D01*
Y457500D01*
X308098D01*
Y455500D01*
D02*
G37*
G36*
X586160Y433750D02*
X523941D01*
Y436245D01*
X586160D01*
Y433750D01*
D02*
G37*
G36*
X308087Y477000D02*
X311038D01*
Y471997D01*
X308087D01*
Y469986D01*
X304000D01*
Y471997D01*
Y477000D01*
Y479000D01*
X308087D01*
Y477000D01*
D02*
G37*
G36*
X471059Y498255D02*
X408841D01*
Y500750D01*
X471059D01*
Y498255D01*
D02*
G37*
G36*
X311089Y493553D02*
X308053D01*
Y491531D01*
X304000D01*
Y493553D01*
Y498500D01*
X311089D01*
Y493553D01*
D02*
G37*
D24*
X243000Y256500D02*
Y329500D01*
X292000Y256500D02*
X292500Y257000D01*
Y329500D01*
X243000D02*
X292500D01*
X374150Y477850D02*
Y483848D01*
X377149D01*
X378149Y482848D01*
Y480849D01*
X377149Y479849D01*
X374150D01*
X376149D02*
X378149Y477850D01*
X380148Y483848D02*
X384147D01*
Y482848D01*
X380148Y478850D01*
Y477850D01*
X368900Y221598D02*
Y215600D01*
Y217599D01*
X372899Y221598D01*
X369900Y218599D01*
X372899Y215600D01*
X374898D02*
X376897D01*
X375898D01*
Y221598D01*
X374898Y220598D01*
X219000Y407000D02*
Y412998D01*
X221999D01*
X222999Y411998D01*
Y409999D01*
X221999Y408999D01*
X219000D01*
X220999D02*
X222999Y407000D01*
X224998D02*
X226997D01*
X225998D01*
Y412998D01*
X224998Y411998D01*
X229996D02*
X230996Y412998D01*
X232996D01*
X233995Y411998D01*
Y408000D01*
X232996Y407000D01*
X230996D01*
X229996Y408000D01*
Y411998D01*
X287850Y389650D02*
Y395648D01*
X290849D01*
X291849Y394648D01*
Y392649D01*
X290849Y391649D01*
X287850D01*
X289849D02*
X291849Y389650D01*
X293848Y390650D02*
X294848Y389650D01*
X296847D01*
X297847Y390650D01*
Y394648D01*
X296847Y395648D01*
X294848D01*
X293848Y394648D01*
Y393649D01*
X294848Y392649D01*
X297847D01*
X320500Y248000D02*
Y253998D01*
X323499D01*
X324499Y252998D01*
Y250999D01*
X323499Y249999D01*
X320500D01*
X322499D02*
X324499Y248000D01*
X326498Y252998D02*
X327498Y253998D01*
X329497D01*
X330497Y252998D01*
Y251999D01*
X329497Y250999D01*
X330497Y249999D01*
Y249000D01*
X329497Y248000D01*
X327498D01*
X326498Y249000D01*
Y249999D01*
X327498Y250999D01*
X326498Y251999D01*
Y252998D01*
X327498Y250999D02*
X329497D01*
X362150Y255665D02*
Y261663D01*
X365149D01*
X366149Y260663D01*
Y258664D01*
X365149Y257664D01*
X362150D01*
X364149D02*
X366149Y255665D01*
X372147Y261663D02*
X370147Y260663D01*
X368148Y258664D01*
Y256665D01*
X369148Y255665D01*
X371147D01*
X372147Y256665D01*
Y257664D01*
X371147Y258664D01*
X368148D01*
X397000Y226500D02*
X402998D01*
Y223501D01*
X401998Y222501D01*
X399999D01*
X398999Y223501D01*
Y226500D01*
Y224501D02*
X397000Y222501D01*
X402998Y216503D02*
Y220502D01*
X399999D01*
X400999Y218503D01*
Y217503D01*
X399999Y216503D01*
X398000D01*
X397000Y217503D01*
Y219502D01*
X398000Y220502D01*
X389000Y257500D02*
X394998D01*
Y254501D01*
X393998Y253501D01*
X391999D01*
X390999Y254501D01*
Y257500D01*
Y255501D02*
X389000Y253501D01*
Y248503D02*
X394998D01*
X391999Y251502D01*
Y247503D01*
X372500Y121000D02*
Y126998D01*
X375499D01*
X376499Y125998D01*
Y123999D01*
X375499Y122999D01*
X372500D01*
X374499D02*
X376499Y121000D01*
X378498Y125998D02*
X379498Y126998D01*
X381497D01*
X382497Y125998D01*
Y124999D01*
X381497Y123999D01*
X380497D01*
X381497D01*
X382497Y122999D01*
Y122000D01*
X381497Y121000D01*
X379498D01*
X378498Y122000D01*
X383500Y143000D02*
Y148998D01*
X386499D01*
X387499Y147998D01*
Y145999D01*
X386499Y144999D01*
X383500D01*
X385499D02*
X387499Y143000D01*
X393497D02*
X389498D01*
X393497Y146999D01*
Y147998D01*
X392497Y148998D01*
X390498D01*
X389498Y147998D01*
X397000Y142500D02*
Y148498D01*
X399999D01*
X400999Y147498D01*
Y145499D01*
X399999Y144499D01*
X397000D01*
X398999D02*
X400999Y142500D01*
X402998D02*
X404997D01*
X403998D01*
Y148498D01*
X402998Y147498D01*
X413412Y505100D02*
Y509098D01*
X412412Y510098D01*
X410413D01*
X409413Y509098D01*
Y505100D01*
X410413Y504100D01*
X412412D01*
X411413Y506099D02*
X413412Y504100D01*
X412412D02*
X413412Y505100D01*
X415411Y509098D02*
X416411Y510098D01*
X418410D01*
X419410Y509098D01*
Y508099D01*
X418410Y507099D01*
X417411D01*
X418410D01*
X419410Y506099D01*
Y505100D01*
X418410Y504100D01*
X416411D01*
X415411Y505100D01*
X528542Y464400D02*
Y468398D01*
X527542Y469398D01*
X525543D01*
X524543Y468398D01*
Y464400D01*
X525543Y463400D01*
X527542D01*
X526543Y465399D02*
X528542Y463400D01*
X527542D02*
X528542Y464400D01*
X534540Y463400D02*
X530541D01*
X534540Y467399D01*
Y468398D01*
X533540Y469398D01*
X531541D01*
X530541Y468398D01*
X302749Y358250D02*
Y362248D01*
X301749Y363248D01*
X299750D01*
X298750Y362248D01*
Y358250D01*
X299750Y357250D01*
X301749D01*
X300749Y359249D02*
X302749Y357250D01*
X301749D02*
X302749Y358250D01*
X304748Y357250D02*
X306747D01*
X305748D01*
Y363248D01*
X304748Y362248D01*
X535100Y521400D02*
Y527398D01*
X538099D01*
X539099Y526398D01*
Y524399D01*
X538099Y523399D01*
X535100D01*
X541098Y526398D02*
X542098Y527398D01*
X544097D01*
X545097Y526398D01*
Y525399D01*
X544097Y524399D01*
X543097D01*
X544097D01*
X545097Y523399D01*
Y522400D01*
X544097Y521400D01*
X542098D01*
X541098Y522400D01*
X562600Y520900D02*
Y526898D01*
X565599D01*
X566599Y525898D01*
Y523899D01*
X565599Y522899D01*
X562600D01*
X572597Y520900D02*
X568598D01*
X572597Y524899D01*
Y525898D01*
X571597Y526898D01*
X569598D01*
X568598Y525898D01*
X317200Y174900D02*
Y180898D01*
X320199D01*
X321199Y179898D01*
Y177899D01*
X320199Y176899D01*
X317200D01*
X323198Y174900D02*
X325197D01*
X324198D01*
Y180898D01*
X323198Y179898D01*
X312099Y178998D02*
X308100D01*
Y175999D01*
X310099D01*
X308100D01*
Y173000D01*
X314098D02*
X316097D01*
X315098D01*
Y178998D01*
X314098Y177998D01*
X220000Y513798D02*
Y507800D01*
X222999D01*
X223999Y508800D01*
Y512798D01*
X222999Y513798D01*
X220000D01*
X228997Y507800D02*
Y513798D01*
X225998Y510799D01*
X229997D01*
X348900Y364398D02*
Y358400D01*
X351899D01*
X352899Y359400D01*
Y363398D01*
X351899Y364398D01*
X348900D01*
X354898Y363398D02*
X355898Y364398D01*
X357897D01*
X358897Y363398D01*
Y362399D01*
X357897Y361399D01*
X356897D01*
X357897D01*
X358897Y360399D01*
Y359400D01*
X357897Y358400D01*
X355898D01*
X354898Y359400D01*
X356500Y189998D02*
Y184000D01*
X359499D01*
X360499Y185000D01*
Y188998D01*
X359499Y189998D01*
X356500D01*
X366497Y184000D02*
X362498D01*
X366497Y187999D01*
Y188998D01*
X365497Y189998D01*
X363498D01*
X362498Y188998D01*
X297900Y151298D02*
Y145300D01*
X300899D01*
X301899Y146300D01*
Y150298D01*
X300899Y151298D01*
X297900D01*
X303898Y145300D02*
X305897D01*
X304898D01*
Y151298D01*
X303898Y150298D01*
X229399Y448698D02*
X228399Y449698D01*
X226400D01*
X225400Y448698D01*
Y444700D01*
X226400Y443700D01*
X228399D01*
X229399Y444700D01*
X235397Y449698D02*
X233397Y448698D01*
X231398Y446699D01*
Y444700D01*
X232398Y443700D01*
X234397D01*
X235397Y444700D01*
Y445699D01*
X234397Y446699D01*
X231398D01*
X287849Y439648D02*
X286849Y440648D01*
X284850D01*
X283850Y439648D01*
Y435650D01*
X284850Y434650D01*
X286849D01*
X287849Y435650D01*
X293847Y440648D02*
X289848D01*
Y437649D01*
X291847Y438649D01*
X292847D01*
X293847Y437649D01*
Y435650D01*
X292847Y434650D01*
X290848D01*
X289848Y435650D01*
X303393Y288598D02*
X302394Y289598D01*
X300394D01*
X299394Y288598D01*
Y284600D01*
X300394Y283600D01*
X302394D01*
X303393Y284600D01*
X308392Y283600D02*
Y289598D01*
X305393Y286599D01*
X309391D01*
X322188Y219598D02*
X321189Y220598D01*
X319189D01*
X318190Y219598D01*
Y215600D01*
X319189Y214600D01*
X321189D01*
X322188Y215600D01*
X324188Y219598D02*
X325187Y220598D01*
X327187D01*
X328186Y219598D01*
Y218599D01*
X327187Y217599D01*
X326187D01*
X327187D01*
X328186Y216599D01*
Y215600D01*
X327187Y214600D01*
X325187D01*
X324188Y215600D01*
X227750Y422948D02*
Y416950D01*
X230749D01*
X231749Y417950D01*
Y418949D01*
X230749Y419949D01*
X227750D01*
X230749D01*
X231749Y420949D01*
Y421948D01*
X230749Y422948D01*
X227750D01*
X233748Y421948D02*
X234748Y422948D01*
X236747D01*
X237747Y421948D01*
Y420949D01*
X236747Y419949D01*
X235747D01*
X236747D01*
X237747Y418949D01*
Y417950D01*
X236747Y416950D01*
X234748D01*
X233748Y417950D01*
X278250Y421948D02*
Y415950D01*
X281249D01*
X282249Y416950D01*
Y417949D01*
X281249Y418949D01*
X278250D01*
X281249D01*
X282249Y419949D01*
Y420948D01*
X281249Y421948D01*
X278250D01*
X288247Y415950D02*
X284248D01*
X288247Y419949D01*
Y420948D01*
X287247Y421948D01*
X285248D01*
X284248Y420948D01*
X329750Y284948D02*
Y278950D01*
X332749D01*
X333749Y279950D01*
Y280949D01*
X332749Y281949D01*
X329750D01*
X332749D01*
X333749Y282949D01*
Y283948D01*
X332749Y284948D01*
X329750D01*
X335748Y278950D02*
X337747D01*
X336748D01*
Y284948D01*
X335748Y283948D01*
X259499Y288000D02*
X255500D01*
X259499Y291999D01*
Y292998D01*
X258499Y293998D01*
X256500D01*
X255500Y292998D01*
X265497Y288000D02*
X261498D01*
X265497Y291999D01*
Y292998D01*
X264497Y293998D01*
X262498D01*
X261498Y292998D01*
X267496Y291999D02*
Y289000D01*
X268496Y288000D01*
X271495D01*
Y291999D01*
X273494Y293998D02*
Y288000D01*
Y290999D01*
X277493D01*
Y293998D01*
Y288000D01*
D87*
X350748Y194000D02*
G03*
X350748Y194000I-15748J0D01*
G01*
X304650Y127850D02*
Y134150D01*
X298350Y127850D02*
Y134150D01*
X301500Y133362D02*
X303075Y128244D01*
X299925D02*
X303075D01*
X299925D02*
X301500Y133362D01*
X392685Y325724D02*
Y331630D01*
X353315D02*
X392685D01*
X353315Y325724D02*
Y331630D01*
D88*
X351217Y180220D02*
G03*
X351217Y180220I-1000J0D01*
G01*
D89*
X305819Y289004D02*
G03*
X305819Y289004I-492J0D01*
G01*
D90*
X388906Y346590D02*
G03*
X388906Y346590I-551J0D01*
G01*
D91*
X226626Y486874D02*
G03*
X221500Y474500I12374J-12374D01*
G01*
Y474500D02*
G03*
X226626Y462126I17500J0D01*
G01*
X247500Y474500D02*
G03*
X247500Y474500I-8500J0D01*
G01*
X304000Y444500D02*
Y504500D01*
X254500D02*
X304000D01*
X254500Y502000D02*
Y504500D01*
Y444500D02*
X304000D01*
X251500Y447000D02*
X254500D01*
Y444500D02*
Y447000D01*
X251500Y444500D02*
Y447000D01*
X241500Y444500D02*
X251500D01*
X226600Y462200D02*
X241500Y444500D01*
X251500Y502000D02*
X254500D01*
Y447000D02*
Y502000D01*
X251500D02*
Y504500D01*
X241500D02*
X251500D01*
X226500Y486800D02*
X241500Y504500D01*
D92*
X359539Y197153D02*
Y203847D01*
X364461Y197153D02*
Y207193D01*
X373500Y474500D02*
X376000D01*
X373500Y440000D02*
Y474500D01*
X376000D02*
X391000D01*
X376000Y440000D02*
Y474500D01*
Y440000D02*
X391000D01*
Y474500D01*
X322000Y171500D02*
X382000D01*
X322000Y151500D02*
Y171500D01*
Y151500D02*
X382000D01*
Y171500D01*
X299421Y304358D02*
Y318925D01*
Y304358D02*
X339579D01*
Y318925D01*
X329819Y275256D02*
X335823D01*
X337201Y255354D02*
Y274646D01*
Y255354D02*
X349799D01*
Y274646D01*
X337201D02*
X349799D01*
X361500Y252315D02*
X364000D01*
X361500Y217815D02*
Y252315D01*
X364000D02*
X379000D01*
X364000Y217815D02*
Y252315D01*
Y217815D02*
X379000D01*
Y252315D01*
X278319Y412256D02*
X284323D01*
X285701Y392354D02*
Y411646D01*
Y392354D02*
X298299D01*
Y411646D01*
X285701D02*
X298299D01*
X537833Y503000D02*
Y516333D01*
X539500Y518000D01*
X541167Y516333D01*
Y503000D02*
Y516333D01*
X547833Y503000D02*
Y516333D01*
X547833Y516333D02*
X549500Y518000D01*
X551167Y516333D01*
Y503000D02*
Y516333D01*
X534500Y498000D02*
X554500D01*
Y503000D01*
X534500Y498000D02*
Y503000D01*
X554500D01*
X565333Y502500D02*
Y515833D01*
X567000Y517500D01*
X568667Y515833D01*
Y502500D02*
Y515833D01*
X575333Y502500D02*
Y515833D01*
X575333Y515833D02*
X577000Y517500D01*
X578667Y515833D01*
Y502500D02*
Y515833D01*
X562000Y497500D02*
X582000D01*
Y502500D01*
X562000Y497500D02*
Y502500D01*
X582000D01*
X227819Y413256D02*
X233823D01*
X235201Y393354D02*
Y412646D01*
Y393354D02*
X247799D01*
Y412646D01*
X235201D02*
X247799D01*
D93*
X373500Y440000D02*
X376000D01*
X361500Y217815D02*
X364000D01*
D94*
X523941Y433750D02*
Y460000D01*
X586146D01*
Y433750D02*
Y460000D01*
X523941Y433750D02*
X586146D01*
X471059Y474500D02*
Y500750D01*
X408854Y474500D02*
X471059D01*
X408854D02*
Y500750D01*
X471059D01*
X317000Y169498D02*
X320332D01*
Y168665D01*
X317000Y165333D01*
Y164500D01*
Y154500D02*
X318666D01*
X317833D01*
Y159498D01*
X317000Y158665D01*
X388332Y159498D02*
X386666Y158665D01*
X385000Y156999D01*
Y155333D01*
X385833Y154500D01*
X387499D01*
X388332Y155333D01*
Y156166D01*
X387499Y156999D01*
X385000D01*
Y164500D02*
X386666D01*
X385833D01*
Y169498D01*
X385000Y168665D01*
X392498Y164500D02*
X389165D01*
X392498Y167832D01*
Y168665D01*
X391665Y169498D01*
X389998D01*
X389165Y168665D01*
D95*
X301500Y447000D02*
Y502000D01*
X256500D02*
X301500D01*
X256500Y447000D02*
Y502000D01*
Y447000D02*
X301500D01*
D96*
X253949Y454589D02*
X246569Y451777D01*
X253949Y448965D01*
X251489Y450020D02*
Y453534D01*
X248326Y456662D02*
X247974D01*
X247272Y457013D01*
X246920Y457365D01*
X246569Y458068D01*
Y459474D01*
X246920Y460176D01*
X247272Y460528D01*
X247974Y460879D01*
X248677D01*
X249380Y460528D01*
X250434Y459825D01*
X253949Y456311D01*
Y461231D01*
X246569Y464991D02*
X246920Y463937D01*
X247974Y463234D01*
X249732Y462883D01*
X250786D01*
X252543Y463234D01*
X253597Y463937D01*
X253949Y464991D01*
Y465694D01*
X253597Y466748D01*
X252543Y467451D01*
X250786Y467803D01*
X249732D01*
X247974Y467451D01*
X246920Y466748D01*
X246569Y465694D01*
Y464991D01*
X253597Y470157D02*
X253949Y469806D01*
X253597Y469454D01*
X253246Y469806D01*
X253597Y470157D01*
X254300D01*
X255003Y469806D01*
X255355Y469454D01*
X246569Y472477D02*
Y476343D01*
X249380Y474234D01*
Y475288D01*
X249732Y475991D01*
X250083Y476343D01*
X251137Y476694D01*
X251840D01*
X252895Y476343D01*
X253597Y475640D01*
X253949Y474586D01*
Y473531D01*
X253597Y472477D01*
X253246Y472125D01*
X252543Y471774D01*
X249029Y478346D02*
X253949D01*
X250434D02*
X249380Y479400D01*
X249029Y480103D01*
Y481158D01*
X249380Y481860D01*
X250434Y482212D01*
X253949D01*
X250434D02*
X249380Y483266D01*
X249029Y483969D01*
Y485023D01*
X249380Y485726D01*
X250434Y486078D01*
X253949D01*
X249029Y488397D02*
X253949D01*
X250434D02*
X249380Y489452D01*
X249029Y490155D01*
Y491209D01*
X249380Y491912D01*
X250434Y492263D01*
X253949D01*
X250434D02*
X249380Y493318D01*
X249029Y494020D01*
Y495075D01*
X249380Y495778D01*
X250434Y496129D01*
X253949D01*
M02*
