G04 Layer_Physical_Order=2*
G04 Layer_Color=16711680*
%FSLAX25Y25*%
%MOIN*%
G70*
G01*
G75*
%ADD23C,0.07874*%
%ADD24C,0.01000*%
%ADD25C,0.03937*%
%ADD50C,0.11811*%
%ADD51R,0.05906X0.05906*%
%ADD52C,0.05906*%
%ADD53C,0.02362*%
%ADD54R,0.04362X0.04362*%
%ADD55O,0.09900X0.19800*%
%ADD56O,0.16500X0.08250*%
%ADD57C,0.16200*%
%ADD58C,0.06000*%
%ADD59C,0.07874*%
%ADD60C,0.05000*%
%ADD61R,0.13500X0.24500*%
%ADD62R,0.17000X0.04500*%
%ADD63R,0.11500X0.23500*%
%ADD64R,0.38000X0.15500*%
%ADD65R,0.09000X0.08500*%
%ADD66R,0.24500X0.20500*%
%ADD67R,0.25500X0.17500*%
%ADD68R,0.61500X0.23000*%
%ADD69R,0.48500X0.11000*%
%ADD70R,0.05000X0.25000*%
%ADD71R,0.04500X0.26500*%
%ADD72R,0.31500X0.25500*%
%ADD73R,0.17000X0.29500*%
%ADD74R,0.08000X0.19500*%
%ADD75R,0.18000X0.08000*%
%ADD76R,0.11500X0.14500*%
%ADD77R,0.22500X0.27500*%
%ADD78R,0.28000X1.13500*%
%ADD79R,0.41500X0.28500*%
%ADD80R,0.31500X1.53500*%
%ADD81R,0.13500X0.20000*%
%ADD82R,0.66500X0.08500*%
%ADD83R,0.28500X0.48500*%
%ADD84R,0.37000X0.05500*%
%ADD85R,0.16000X0.38500*%
%ADD86R,0.56500X0.20500*%
G36*
X329032Y195977D02*
X330160Y194746D01*
X330087Y193078D01*
X328856Y191950D01*
X327188Y192023D01*
X326061Y193254D01*
X326133Y194922D01*
X327364Y196050D01*
X329032Y195977D01*
D02*
G37*
D23*
X555043Y447500D02*
Y461043D01*
X559000Y465000D02*
X564500D01*
X567000Y467500D02*
Y492500D01*
X521000Y465500D02*
X550500D01*
X515000Y459500D02*
X521000Y465500D01*
X455375Y441500D02*
X471125D01*
X403500Y467500D02*
X411500Y459500D01*
X334000Y418500D02*
X351500D01*
X328000Y424500D02*
X334000Y418500D01*
X437375Y459500D02*
X455375Y441500D01*
X411500Y459500D02*
X437375D01*
X471125Y441500D02*
X489125Y459500D01*
X515000D01*
D24*
X374500Y489000D02*
X418543D01*
X301500Y212500D02*
X358500Y212000D01*
X373500Y145000D02*
Y149000D01*
X372000Y150500D02*
X373500Y149000D01*
X372000Y150500D02*
Y175500D01*
X377000Y166500D02*
Y204000D01*
X358500Y212000D02*
X361500Y215000D01*
X380000D01*
X381000Y216000D01*
Y220000D01*
X385000Y224000D01*
X312000Y136500D02*
Y147500D01*
X307500D02*
X312000D01*
X304500Y150500D02*
X307500Y147500D01*
X304500Y150500D02*
Y203843D01*
X297500Y210843D02*
X304500Y203843D01*
X297500Y210843D02*
Y214157D01*
X301500Y218157D01*
X352657D01*
X356000Y221500D01*
Y235000D01*
X356500Y235500D01*
X342000Y161500D02*
X347000Y156500D01*
X342000Y161500D02*
Y173000D01*
X330000Y185000D02*
X342000Y173000D01*
X323000Y185000D02*
X330000D01*
X322000Y186000D02*
X323000Y185000D01*
X322000Y186000D02*
Y205500D01*
X323500Y245500D02*
X327500Y241500D01*
X301000Y245500D02*
X323500D01*
X299500Y247000D02*
X301000Y245500D01*
X299500Y247000D02*
Y268500D01*
X294500Y273500D02*
X299500Y268500D01*
X250500Y273500D02*
X294500D01*
X247000Y277000D02*
X250500Y273500D01*
X247000Y277000D02*
Y378500D01*
X332000Y236500D02*
Y244500D01*
X328500Y248000D02*
X332000Y244500D01*
X303000Y248000D02*
X328500D01*
X301500Y249500D02*
X303000Y248000D01*
X301500Y249500D02*
Y269328D01*
X295000Y275828D02*
X301500Y269328D01*
X252172Y275828D02*
X295000D01*
X249000Y279000D02*
X252172Y275828D01*
X249000Y279000D02*
Y374000D01*
X253000Y378000D01*
X371500Y225315D02*
X383815D01*
X384000Y225500D01*
X280500Y286000D02*
Y298500D01*
X253500Y325500D02*
X280500Y298500D01*
X253500Y325500D02*
Y370000D01*
X265500Y382000D01*
Y416000D01*
X259500Y410500D02*
Y433000D01*
X365500Y480000D02*
X374500Y489000D01*
X394500Y431000D02*
X571000D01*
X576500Y436500D01*
Y447500D01*
X555043Y461043D02*
X559000Y465000D01*
X564500D02*
X567000Y467500D01*
X554957Y461043D02*
X555043D01*
X550500Y465500D02*
X554957Y461043D01*
X259500Y433000D02*
X264500Y438000D01*
X365500D01*
Y480000D01*
X244000Y408500D02*
Y432000D01*
X245000Y433000D01*
X256000Y388500D02*
X260500Y384000D01*
X252000Y388500D02*
X256000D01*
D25*
X371500Y245000D02*
Y435500D01*
X383500Y447500D01*
D50*
D03*
Y467185D02*
D03*
X371500Y225315D02*
D03*
Y245000D02*
D03*
D51*
X327000Y156500D02*
D03*
X549500Y493000D02*
D03*
X577000Y492500D02*
D03*
D52*
X337000Y156500D02*
D03*
X347000D02*
D03*
X357000D02*
D03*
X367000D02*
D03*
X377000D02*
D03*
X327000Y166500D02*
D03*
X337000D02*
D03*
X347000D02*
D03*
X357000D02*
D03*
X367000D02*
D03*
X377000D02*
D03*
X539500Y493000D02*
D03*
X567000Y492500D02*
D03*
D53*
X328110Y194000D02*
D03*
D54*
X341890D02*
D03*
D55*
X555043Y447500D02*
D03*
X576500D02*
D03*
X533587D02*
D03*
X439957Y487000D02*
D03*
X418500D02*
D03*
X461413D02*
D03*
D56*
X319000Y453000D02*
D03*
Y474500D02*
D03*
Y496000D02*
D03*
D57*
X239000Y474500D02*
D03*
D58*
X322500Y128000D02*
D03*
X279500Y365000D02*
D03*
D59*
X429000Y441500D02*
D03*
X462500Y457000D02*
D03*
X385000Y260500D02*
D03*
X396500Y401500D02*
D03*
D60*
X301500Y212500D02*
D03*
X373500Y145000D02*
D03*
X372000Y175500D02*
D03*
X377000Y204000D02*
D03*
X384000Y225500D02*
D03*
X312000Y136500D02*
D03*
X356500Y235500D02*
D03*
X322000Y207000D02*
D03*
X327500Y241500D02*
D03*
X247000Y380000D02*
D03*
X332000Y236500D02*
D03*
X253500Y380000D02*
D03*
X280500Y286000D02*
D03*
X265500Y417000D02*
D03*
X259500Y410500D02*
D03*
X394500Y431000D02*
D03*
X402000Y468000D02*
D03*
X351500Y418500D02*
D03*
X328000Y424500D02*
D03*
X352000Y122500D02*
D03*
X390000Y124000D02*
D03*
X396000Y216500D02*
D03*
X347000Y206000D02*
D03*
X244000Y408500D02*
D03*
X245000Y435500D02*
D03*
X260500Y384000D02*
D03*
X250500Y388500D02*
D03*
X292500Y494000D02*
D03*
X346500Y443500D02*
D03*
X334000Y434000D02*
D03*
X318500Y397000D02*
D03*
D61*
X383750Y423750D02*
D03*
D62*
X391000Y436750D02*
D03*
D63*
X398750Y446750D02*
D03*
D64*
X416000Y441750D02*
D03*
D65*
X462500Y456250D02*
D03*
D66*
X462750Y466250D02*
D03*
D67*
X406750Y336750D02*
D03*
Y231250D02*
D03*
X406250Y126250D02*
D03*
D68*
X364250Y129500D02*
D03*
D69*
X340750Y143500D02*
D03*
D70*
X335500Y161000D02*
D03*
D71*
X337250Y159250D02*
D03*
D72*
X403250Y141250D02*
D03*
D73*
X361000Y146750D02*
D03*
D74*
X366000Y162750D02*
D03*
D75*
X357500Y186000D02*
D03*
D76*
X361250Y178250D02*
D03*
D77*
X346750Y195750D02*
D03*
D78*
X404500Y202250D02*
D03*
D79*
X397750Y267250D02*
D03*
D80*
X402750Y349250D02*
D03*
D81*
X293750Y489500D02*
D03*
D82*
X317250Y485250D02*
D03*
D83*
X348250Y466250D02*
D03*
D84*
X323000Y433750D02*
D03*
D85*
X312000Y413750D02*
D03*
D86*
X478750Y485250D02*
D03*
M02*
