%FSTAX23Y23*%
%MOIN*%
%SFA1B1*%

%IPPOS*%
%ADD17R,0.055000X0.040000*%
%ADD18R,0.023620X0.007870*%
%ADD19R,0.015750X0.070870*%
%ADD20R,0.059060X0.059060*%
%ADD21R,0.040000X0.055000*%
%ADD22R,0.068900X0.025590*%
%ADD23R,0.036000X0.057000*%
%ADD24R,0.078740X0.043310*%
%ADD25R,0.043310X0.078740*%
%ADD26O,0.066930X0.011810*%
%ADD27O,0.011810X0.066930*%
%LN3phasedriver-1*%
%LPD*%
G54D17*
X03505Y02762D03*
Y02688D03*
X03415Y02762D03*
Y02688D03*
X03925Y02817D03*
Y02743D03*
X0413Y03002D03*
Y02928D03*
G54D18*
X03322Y02718D03*
Y02734D03*
Y02702D03*
Y02686D03*
Y02671D03*
Y02655D03*
X03263D03*
Y02671D03*
Y02686D03*
Y02702D03*
Y02734D03*
Y02718D03*
X03429Y03076D03*
Y0306D03*
Y03092D03*
Y03108D03*
Y03123D03*
Y03139D03*
X0337D03*
Y03123D03*
Y03108D03*
Y03092D03*
Y0306D03*
Y03076D03*
X03429Y03446D03*
Y0343D03*
Y03462D03*
Y03478D03*
Y03493D03*
Y03509D03*
X0337D03*
Y03493D03*
Y03478D03*
Y03462D03*
Y0343D03*
Y03446D03*
G54D19*
X03293Y02695D03*
X034Y031D03*
Y0347D03*
G54D20*
X04517Y03921D03*
X04655D03*
X04033Y0257D03*
X04171D03*
G54D21*
X04391Y0391D03*
X04317D03*
X03952Y0257D03*
X03878D03*
X03712Y02926D03*
X03638D03*
X04407Y03675D03*
X04333D03*
X04647Y03545D03*
X04573D03*
X04382Y03215D03*
X04308D03*
X04647Y0347D03*
X04573D03*
X04379Y03031D03*
X04305D03*
X04862Y0297D03*
X04788D03*
Y03046D03*
X04862D03*
X04058Y02805D03*
X04132D03*
X04058Y0273D03*
X04132D03*
G54D22*
X0523Y0316D03*
Y0321D03*
Y0326D03*
Y0331D03*
X05009Y0316D03*
Y0321D03*
Y0326D03*
Y0331D03*
X04574Y03825D03*
Y03775D03*
Y03725D03*
Y03675D03*
X04795Y03825D03*
Y03775D03*
Y03725D03*
Y03675D03*
X05014Y03805D03*
Y03755D03*
Y03705D03*
Y03655D03*
X05235Y03805D03*
Y03755D03*
Y03705D03*
Y03655D03*
X04539Y03335D03*
Y03285D03*
Y03235D03*
Y03185D03*
X0476Y03335D03*
Y03285D03*
Y03235D03*
Y03185D03*
X04529Y0285D03*
Y028D03*
Y0275D03*
Y027D03*
X0475Y0285D03*
Y028D03*
Y0275D03*
Y027D03*
X05019Y0285D03*
Y028D03*
Y0275D03*
Y027D03*
X0524Y0285D03*
Y028D03*
Y0275D03*
Y027D03*
G54D23*
X03498Y03355D03*
X03562D03*
X03428Y0389D03*
X03492D03*
X03428Y0379D03*
X03492D03*
X03733Y03615D03*
X03797D03*
X03893Y0363D03*
X03957D03*
X04278Y0353D03*
X04342D03*
X04308Y0329D03*
X04372D03*
X04308Y03104D03*
X04372D03*
X03768Y02815D03*
X03832D03*
G54D24*
X05705Y02675D03*
Y02775D03*
X0595Y0268D03*
Y0278D03*
X05825Y02675D03*
Y02775D03*
G54D25*
X05395Y03735D03*
X05495D03*
X0536Y02855D03*
X0546D03*
X05355Y03315D03*
X05455D03*
G54D26*
X03755Y03418D03*
Y03398D03*
Y03378D03*
Y03359D03*
Y03339D03*
Y03319D03*
Y033D03*
Y0328D03*
Y0326D03*
Y03241D03*
Y03221D03*
Y03201D03*
X04094D03*
Y03221D03*
Y03241D03*
Y0326D03*
Y0328D03*
Y033D03*
Y03319D03*
Y03339D03*
Y03359D03*
Y03378D03*
Y03398D03*
Y03418D03*
G54D27*
X03816Y0314D03*
X03836D03*
X03856D03*
X03875D03*
X03895D03*
X03915D03*
X03934D03*
X03954D03*
X03974D03*
X03993D03*
X04013D03*
X04033D03*
Y03479D03*
X04013D03*
X03993D03*
X03974D03*
X03954D03*
X03934D03*
X03915D03*
X03895D03*
X03875D03*
X03856D03*
X03836D03*
X03816D03*
M02*