%FSTAX23Y23*%
%MOIN*%
%SFA1B1*%

%IPPOS*%
%ADD9500C,0.019680*%
%ADD9501C,0.028000*%
%ADD9502C,0.035430*%
%ADD9503C,0.057090*%
%ADD9504C,0.118110*%
%LN3phasedriver-1*%
%LPD*%
G54D9500*
X04695Y03047D03*
X05695Y0254D03*
X05825Y02545D03*
X0595Y0261D03*
X04055Y0286D03*
X0399Y03075D03*
X03925Y0303D03*
X03836D03*
X03835Y0297D03*
X03685Y02985D03*
X03645Y02983D03*
X03608Y03002D03*
X03515Y03035D03*
X0349Y03075D03*
X0352Y031D03*
X0348Y02995D03*
X03378Y02852D03*
X03346Y02771D03*
X03597Y0277D03*
Y0281D03*
X03598Y0285D03*
X03639Y0287D03*
X03563Y02697D03*
X03775Y03101D03*
X0372Y03128D03*
X0367Y0313D03*
X0374Y03165D03*
X03515Y03139D03*
X03485Y0317D03*
X03496Y03255D03*
X03465Y0328D03*
X03548Y0325D03*
X0362Y0332D03*
X03655Y03398D03*
X03575Y0346D03*
X03547Y0349D03*
X03505Y03495D03*
X0354Y0354D03*
X0341Y03545D03*
X0347Y03415D03*
X03855Y03403D03*
X03897Y034D03*
X04031Y03544D03*
X04051Y03716D03*
X04006D03*
X03946Y03706D03*
X03801Y03674D03*
X03878Y0398D03*
X04295Y03614D03*
X0422Y03515D03*
X04335Y0347D03*
Y03385D03*
X04295D03*
X0425D03*
X04679Y03125D03*
X04914Y03145D03*
X05005Y0349D03*
X04905Y0366D03*
G54D9501*
X0534Y0309D03*
X0433Y02895D03*
X04475Y03375D03*
X0322Y03935D03*
X0489Y0382D03*
X04845Y0356D03*
Y03468D03*
X0523Y03375D03*
X0555Y03408D03*
X0544Y03526D03*
X0546Y03195D03*
G54D9502*
X03139Y026D03*
X0327Y02565D03*
X0337D03*
X0347D03*
X0357D03*
X0368D03*
X0378D03*
X0308Y026D03*
X0302D03*
X0296D03*
X02948Y02763D03*
Y02863D03*
Y02963D03*
Y03063D03*
X03075Y03065D03*
Y02965D03*
Y02865D03*
Y02765D03*
Y03165D03*
Y03265D03*
Y03365D03*
Y03465D03*
Y03565D03*
Y03665D03*
Y03765D03*
Y03865D03*
X02948Y03863D03*
Y03763D03*
Y03663D03*
Y03563D03*
Y03463D03*
Y03363D03*
Y03263D03*
Y03163D03*
X05505Y0395D03*
X05605D03*
X05705D03*
X05805D03*
X05905D03*
X06005D03*
G54D9503*
X05701Y02961D03*
X05918D03*
Y03127D03*
Y03292D03*
Y03458D03*
X05701D03*
Y03292D03*
Y03127D03*
G54D9504*
X05562Y02661D03*
X03322Y02944D03*
X038Y03845D03*
X04095D03*
X05343Y03929D03*
M02*