  0
SECTION
  2
HEADER
  9
$ACADVER
  1
AC1027
  9
$ACADMAINTVER
 70
     8
  9
$DWGCODEPAGE
  3
ANSI_1252
  9
$REQUIREDVERSIONS
160
                 0
  9
$INSBASE
 10
0.0
 20
0.0
 30
0.0
  9
$EXTMIN
 10
1.000000000000000E+20
 20
1.000000000000000E+20
 30
1.000000000000000E+20
  9
$EXTMAX
 10
-1.000000000000000E+20
 20
-1.000000000000000E+20
 30
-1.000000000000000E+20
  9
$LIMMIN
 10
3.2131
 20
29.20996952
  9
$LIMMAX
 10
224.56983026
 20
202.57720724
  9
$ORTHOMODE
 70
     0
  9
$REGENMODE
 70
     1
  9
$FILLMODE
 70
     1
  9
$QTEXTMODE
 70
     0
  9
$MIRRTEXT
 70
     1
  9
$LTSCALE
 40
1.0
  9
$ATTMODE
 70
     1
  9
$TEXTSIZE
 40
2.5
  9
$TRACEWID
 40
1.0
  9
$TEXTSTYLE
  7
Standard
  9
$CLAYER
  8
0
  9
$CELTYPE
  6
ByLayer
  9
$CECOLOR
 62
   256
  9
$CELTSCALE
 40
1.0
  9
$DISPSILH
 70
     0
  9
$DIMSCALE
 40
1.0
  9
$DIMASZ
 40
2.5
  9
$DIMEXO
 40
0.625
  9
$DIMDLI
 40
3.75
  9
$DIMRND
 40
0.0
  9
$DIMDLE
 40
0.0
  9
$DIMEXE
 40
1.25
  9
$DIMTP
 40
0.0
  9
$DIMTM
 40
0.0
  9
$DIMTXT
 40
2.5
  9
$DIMCEN
 40
2.5
  9
$DIMTSZ
 40
0.0
  9
$DIMTOL
 70
     0
  9
$DIMLIM
 70
     0
  9
$DIMTIH
 70
     0
  9
$DIMTOH
 70
     0
  9
$DIMSE1
 70
     0
  9
$DIMSE2
 70
     0
  9
$DIMTAD
 70
     1
  9
$DIMZIN
 70
     8
  9
$DIMBLK
  1

  9
$DIMASO
 70
     1
  9
$DIMSHO
 70
     1
  9
$DIMPOST
  1

  9
$DIMAPOST
  1

  9
$DIMALT
 70
     0
  9
$DIMALTD
 70
     3
  9
$DIMALTF
 40
0.03937007874016
  9
$DIMLFAC
 40
1.0
  9
$DIMTOFL
 70
     1
  9
$DIMTVP
 40
0.0
  9
$DIMTIX
 70
     0
  9
$DIMSOXD
 70
     0
  9
$DIMSAH
 70
     0
  9
$DIMBLK1
  1

  9
$DIMBLK2
  1

  9
$DIMSTYLE
  2
ISO-25
  9
$DIMCLRD
 70
     0
  9
$DIMCLRE
 70
     0
  9
$DIMCLRT
 70
     0
  9
$DIMTFAC
 40
1.0
  9
$DIMGAP
 40
0.625
  9
$DIMJUST
 70
     0
  9
$DIMSD1
 70
     0
  9
$DIMSD2
 70
     0
  9
$DIMTOLJ
 70
     0
  9
$DIMTZIN
 70
     8
  9
$DIMALTZ
 70
     0
  9
$DIMALTTZ
 70
     0
  9
$DIMUPT
 70
     0
  9
$DIMDEC
 70
     2
  9
$DIMTDEC
 70
     2
  9
$DIMALTU
 70
     2
  9
$DIMALTTD
 70
     3
  9
$DIMTXSTY
  7
Standard
  9
$DIMAUNIT
 70
     0
  9
$DIMADEC
 70
     0
  9
$DIMALTRND
 40
0.0
  9
$DIMAZIN
 70
     0
  9
$DIMDSEP
 70
    44
  9
$DIMATFIT
 70
     3
  9
$DIMFRAC
 70
     0
  9
$DIMLDRBLK
  1

  9
$DIMLUNIT
 70
     2
  9
$DIMLWD
 70
    -2
  9
$DIMLWE
 70
    -2
  9
$DIMTMOVE
 70
     0
  9
$DIMFXL
 40
1.0
  9
$DIMFXLON
 70
     0
  9
$DIMJOGANG
 40
0.7853981633974483
  9
$DIMTFILL
 70
     0
  9
$DIMTFILLCLR
 70
     0
  9
$DIMARCSYM
 70
     0
  9
$DIMLTYPE
  6

  9
$DIMLTEX1
  6

  9
$DIMLTEX2
  6

  9
$DIMTXTDIRECTION
 70
     0
  9
$LUNITS
 70
     2
  9
$LUPREC
 70
     4
  9
$SKETCHINC
 40
1.0
  9
$FILLETRAD
 40
10.0
  9
$AUNITS
 70
     0
  9
$AUPREC
 70
     0
  9
$MENU
  1
.
  9
$ELEVATION
 40
0.0
  9
$PELEVATION
 40
0.0
  9
$THICKNESS
 40
0.0
  9
$LIMCHECK
 70
     0
  9
$CHAMFERA
 40
0.0
  9
$CHAMFERB
 40
0.0
  9
$CHAMFERC
 40
0.0
  9
$CHAMFERD
 40
0.0
  9
$SKPOLY
 70
     0
  9
$TDCREATE
 40
2458275.544740984
  9
$TDUCREATE
 40
2458275.83640765
  9
$TDUPDATE
 40
2458275.544742431
  9
$TDUUPDATE
 40
2458275.836409097
  9
$TDINDWG
 40
0.0000000116
  9
$TDUSRTIMER
 40
0.0000000116
  9
$USRTIMER
 70
     1
  9
$ANGBASE
 50
0.0
  9
$ANGDIR
 70
     0
  9
$PDMODE
 70
     0
  9
$PDSIZE
 40
0.0
  9
$PLINEWID
 40
0.0
  9
$SPLFRAME
 70
     0
  9
$SPLINETYPE
 70
     6
  9
$SPLINESEGS
 70
     8
  9
$HANDSEED
  5
152
  9
$SURFTAB1
 70
     6
  9
$SURFTAB2
 70
     6
  9
$SURFTYPE
 70
     6
  9
$SURFU
 70
     6
  9
$SURFV
 70
     6
  9
$UCSBASE
  2

  9
$UCSNAME
  2

  9
$UCSORG
 10
0.0
 20
0.0
 30
0.0
  9
$UCSXDIR
 10
1.0
 20
0.0
 30
0.0
  9
$UCSYDIR
 10
0.0
 20
1.0
 30
0.0
  9
$UCSORTHOREF
  2

  9
$UCSORTHOVIEW
 70
     0
  9
$UCSORGTOP
 10
0.0
 20
0.0
 30
0.0
  9
$UCSORGBOTTOM
 10
0.0
 20
0.0
 30
0.0
  9
$UCSORGLEFT
 10
0.0
 20
0.0
 30
0.0
  9
$UCSORGRIGHT
 10
0.0
 20
0.0
 30
0.0
  9
$UCSORGFRONT
 10
0.0
 20
0.0
 30
0.0
  9
$UCSORGBACK
 10
0.0
 20
0.0
 30
0.0
  9
$PUCSBASE
  2

  9
$PUCSNAME
  2

  9
$PUCSORG
 10
0.0
 20
0.0
 30
0.0
  9
$PUCSXDIR
 10
1.0
 20
0.0
 30
0.0
  9
$PUCSYDIR
 10
0.0
 20
1.0
 30
0.0
  9
$PUCSORTHOREF
  2

  9
$PUCSORTHOVIEW
 70
     0
  9
$PUCSORGTOP
 10
0.0
 20
0.0
 30
0.0
  9
$PUCSORGBOTTOM
 10
0.0
 20
0.0
 30
0.0
  9
$PUCSORGLEFT
 10
0.0
 20
0.0
 30
0.0
  9
$PUCSORGRIGHT
 10
0.0
 20
0.0
 30
0.0
  9
$PUCSORGFRONT
 10
0.0
 20
0.0
 30
0.0
  9
$PUCSORGBACK
 10
0.0
 20
0.0
 30
0.0
  9
$USERI1
 70
     0
  9
$USERI2
 70
     0
  9
$USERI3
 70
     0
  9
$USERI4
 70
     0
  9
$USERI5
 70
     0
  9
$USERR1
 40
0.0
  9
$USERR2
 40
0.0
  9
$USERR3
 40
0.0
  9
$USERR4
 40
0.0
  9
$USERR5
 40
0.0
  9
$WORLDVIEW
 70
     1
  9
$SHADEDGE
 70
     3
  9
$SHADEDIF
 70
    70
  9
$TILEMODE
 70
     1
  9
$MAXACTVP
 70
    64
  9
$PINSBASE
 10
0.0
 20
0.0
 30
0.0
  9
$PLIMCHECK
 70
     0
  9
$PEXTMIN
 10
1.000000000000000E+20
 20
1.000000000000000E+20
 30
1.000000000000000E+20
  9
$PEXTMAX
 10
-1.000000000000000E+20
 20
-1.000000000000000E+20
 30
-1.000000000000000E+20
  9
$PLIMMIN
 10
0.0
 20
0.0
  9
$PLIMMAX
 10
420.0
 20
297.0
  9
$UNITMODE
 70
     0
  9
$VISRETAIN
 70
     1
  9
$PLINEGEN
 70
     0
  9
$PSLTSCALE
 70
     1
  9
$TREEDEPTH
 70
  3020
  9
$CMLSTYLE
  2
Standard
  9
$CMLJUST
 70
     0
  9
$CMLSCALE
 40
20.0
  9
$PROXYGRAPHICS
 70
     1
  9
$MEASUREMENT
 70
     1
  9
$CELWEIGHT
370
    -1
  9
$ENDCAPS
280
     0
  9
$JOINSTYLE
280
     0
  9
$LWDISPLAY
290
     0
  9
$INSUNITS
 70
     4
  9
$HYPERLINKBASE
  1

  9
$STYLESHEET
  1

  9
$XEDIT
290
     1
  9
$CEPSNTYPE
380
     0
  9
$PSTYLEMODE
290
     1
  9
$FINGERPRINTGUID
  2
{307BD52F-9DCC-46C9-8FCF-3C30611F64C3}
  9
$VERSIONGUID
  2
{FAEB1C32-E019-11D5-929B-00C0DF256EC4}
  9
$EXTNAMES
290
     1
  9
$PSVPSCALE
 40
0.0
  9
$OLESTARTUP
290
     0
  9
$SORTENTS
280
   127
  9
$INDEXCTL
280
     0
  9
$HIDETEXT
280
     1
  9
$XCLIPFRAME
280
     2
  9
$HALOGAP
280
     0
  9
$OBSCOLOR
 70
   257
  9
$OBSLTYPE
280
     0
  9
$INTERSECTIONDISPLAY
280
     0
  9
$INTERSECTIONCOLOR
 70
   257
  9
$DIMASSOC
280
     2
  9
$PROJECTNAME
  1

  9
$CAMERADISPLAY
290
     0
  9
$LENSLENGTH
 40
50.0
  9
$CAMERAHEIGHT
 40
0.0
  9
$STEPSPERSEC
 40
2.0
  9
$STEPSIZE
 40
6.0
  9
$3DDWFPREC
 40
2.0
  9
$PSOLWIDTH
 40
5.0
  9
$PSOLHEIGHT
 40
80.0
  9
$LOFTANG1
 40
1.570796326794897
  9
$LOFTANG2
 40
1.570796326794897
  9
$LOFTMAG1
 40
0.0
  9
$LOFTMAG2
 40
0.0
  9
$LOFTPARAM
 70
     7
  9
$LOFTNORMALS
280
     1
  9
$LATITUDE
 40
37.795
  9
$LONGITUDE
 40
-122.394
  9
$NORTHDIRECTION
 40
0.0
  9
$TIMEZONE
 70
 -8000
  9
$LIGHTGLYPHDISPLAY
280
     1
  9
$TILEMODELIGHTSYNCH
280
     1
  9
$CMATERIAL
347
44
  9
$SOLIDHIST
280
     1
  9
$SHOWHIST
280
     1
  9
$DWFFRAME
280
     2
  9
$DGNFRAME
280
     2
  9
$REALWORLDSCALE
290
     1
  9
$INTERFERECOLOR
 62
   256
  9
$CSHADOW
280
     0
  9
$SHADOWPLANELOCATION
 40
0.0
  0
ENDSEC
  0
SECTION
  2
CLASSES
  0
CLASS
  1
ACDBDICTIONARYWDFLT
  2
AcDbDictionaryWithDefault
  3
ObjectDBX Classes
 90
        0
 91
        4
280
     0
281
     0
  0
CLASS
  1
VISUALSTYLE
  2
AcDbVisualStyle
  3
ObjectDBX Classes
 90
     4095
 91
        4
280
     0
281
     0
  0
CLASS
  1
MATERIAL
  2
AcDbMaterial
  3
ObjectDBX Classes
 90
     1153
 91
        4
280
     0
281
     0
  0
CLASS
  1
SCALE
  2
AcDbScale
  3
ObjectDBX Classes
 90
     1153
 91
        4
280
     0
281
     0
  0
CLASS
  1
SUN
  2
AcDbSun
  3
SCENEOE
 90
     1153
 91
        4
280
     0
281
     0
  0
CLASS
  1
DICTIONARYVAR
  2
AcDbDictionaryVar
  3
ObjectDBX Classes
 90
        0
 91
        4
280
     0
281
     0
  0
ENDSEC
  0
SECTION
  2
TABLES
  0
TABLE
  2
VPORT
  5
8
330
0
100
AcDbSymbolTable
 70
     1
  0
VPORT
  5
29
330
8
100
AcDbSymbolTableRecord
100
AcDbViewportTableRecord
  2
*Active
 70
     0
 10
0.0
 20
0.0
 11
1.0
 21
1.0
 12
344.1869158878504
 22
148.5
 13
0.0
 23
0.0
 14
10.0
 24
10.0
 15
10.0
 25
10.0
 16
0.0
 26
0.0
 36
1.0
 17
0.0
 27
0.0
 37
0.0
 40
297.0
 41
1.972972972850329
 42
50.0
 43
0.0
 44
0.0
 50
0.0
 51
0.0
 71
     0
 72
   100
 73
     1
 74
     3
 75
     0
 76
     0
 77
     0
 78
     0
281
     0
 65
     1
110
0.0
120
0.0
130
0.0
111
1.0
121
0.0
131
0.0
112
0.0
122
1.0
132
0.0
 79
     0
146
0.0
 60
     3
 61
     5
292
     1
282
     1
141
0.0
142
0.0
 63
   250
361
69
  0
ENDTAB
  0
TABLE
  2
LTYPE
  5
5
330
0
100
AcDbSymbolTable
 70
     1
  0
LTYPE
  5
14
330
5
100
AcDbSymbolTableRecord
100
AcDbLinetypeTableRecord
  2
ByBlock
 70
     0
  3

 72
    65
 73
     0
 40
0.0
  0
LTYPE
  5
15
330
5
100
AcDbSymbolTableRecord
100
AcDbLinetypeTableRecord
  2
ByLayer
 70
     0
  3

 72
    65
 73
     0
 40
0.0
  0
LTYPE
  5
16
330
5
100
AcDbSymbolTableRecord
100
AcDbLinetypeTableRecord
  2
Continuous
 70
     0
  3
Solid line
 72
    65
 73
     0
 40
0.0
  0
ENDTAB
  0
TABLE
  2
LAYER
  5
2
330
0
100
AcDbSymbolTable
 70
     4
  0
LAYER
  5
10
330
2
100
AcDbSymbolTableRecord
100
AcDbLayerTableRecord
  2
0
 70
     0
 62
     7
  6
Continuous
370
    -3
390
F
347
46
348
0
  0
LAYER
  5
6A
330
2
100
AcDbSymbolTableRecord
100
AcDbLayerTableRecord
  2
TopSolder
 70
     0
 62
   216
  6
Continuous
370
    -3
390
F
347
46
348
0
  0
LAYER
  5
6B
330
2
100
AcDbSymbolTableRecord
100
AcDbLayerTableRecord
  2
PadHoleLayer
 70
     0
 62
   156
  6
Continuous
370
    -3
390
F
347
46
348
0
  0
LAYER
  5
6C
330
2
100
AcDbSymbolTableRecord
100
AcDbLayerTableRecord
  2
ViaHoleLayer
 70
     0
 62
    16
  6
Continuous
370
    -3
390
F
347
46
348
0
  0
ENDTAB
  0
TABLE
  2
STYLE
  5
3
330
0
100
AcDbSymbolTable
 70
     1
  0
STYLE
  5
11
330
3
100
AcDbSymbolTableRecord
100
AcDbTextStyleTableRecord
  2
Standard
 70
     0
 40
0.0
 41
1.0
 50
0.0
 71
     0
 42
2.5
  3
txt
  4

  0
ENDTAB
  0
TABLE
  2
VIEW
  5
6
330
0
100
AcDbSymbolTable
 70
     0
  0
ENDTAB
  0
TABLE
  2
UCS
  5
7
330
0
100
AcDbSymbolTable
 70
     0
  0
ENDTAB
  0
TABLE
  2
APPID
  5
9
330
0
100
AcDbSymbolTable
 70
     1
  0
APPID
  5
12
330
9
100
AcDbSymbolTableRecord
100
AcDbRegAppTableRecord
  2
ACAD
 70
     0
  0
ENDTAB
  0
TABLE
  2
DIMSTYLE
  5
A
330
0
100
AcDbSymbolTable
 70
     1
100
AcDbDimStyleTable
  0
DIMSTYLE
105
27
330
A
100
AcDbSymbolTableRecord
100
AcDbDimStyleTableRecord
  2
ISO-25
 70
     0
 41
2.5
 42
0.625
 43
3.75
 44
1.25
 73
     0
 74
     0
 77
     1
 78
     8
140
2.5
141
2.5
143
0.03937007874016
147
0.625
171
     3
172
     1
178
     0
271
     2
272
     2
274
     3
278
    44
283
     0
284
     8
340
11
  0
ENDTAB
  0
TABLE
  2
BLOCK_RECORD
  5
1
330
0
100
AcDbSymbolTable
 70
     1
  0
BLOCK_RECORD
  5
1F
330
1
100
AcDbSymbolTableRecord
100
AcDbBlockTableRecord
  2
*Model_Space
340
22
 70
     0
280
     1
281
     0
  0
BLOCK_RECORD
  5
1B
330
1
100
AcDbSymbolTableRecord
100
AcDbBlockTableRecord
  2
*Paper_Space
340
1E
 70
     0
280
     1
281
     0
  0
BLOCK_RECORD
  5
23
330
1
100
AcDbSymbolTableRecord
100
AcDbBlockTableRecord
  2
*Paper_Space0
340
26
 70
     0
280
     1
281
     0
  0
ENDTAB
  0
ENDSEC
  0
SECTION
  2
BLOCKS
  0
BLOCK
  5
20
330
1F
100
AcDbEntity
  8
0
100
AcDbBlockBegin
  2
*Model_Space
 70
     0
 10
0.0
 20
0.0
 30
0.0
  3
*Model_Space
  1
*Model_Space
  0
ENDBLK
  5
21
330
1F
100
AcDbEntity
  8
0
100
AcDbBlockEnd
  0
BLOCK
  5
1C
330
1B
100
AcDbEntity
 67
     1
  8
0
100
AcDbBlockBegin
  2
*Paper_Space
 70
     0
 10
0.0
 20
0.0
 30
0.0
  3
*Paper_Space
  1
*Paper_Space
  0
ENDBLK
  5
1D
330
1B
100
AcDbEntity
 67
     1
  8
0
100
AcDbBlockEnd
  0
BLOCK
  5
24
330
23
100
AcDbEntity
  8
0
100
AcDbBlockBegin
  2
*Paper_Space0
 70
     0
 10
0.0
 20
0.0
 30
0.0
  3
*Paper_Space0
  1
*Paper_Space0
  0
ENDBLK
  5
25
330
23
100
AcDbEntity
  8
0
100
AcDbBlockEnd
  0
ENDSEC
  0
SECTION
  2
ENTITIES
  0
SOLID
  5
6D
330
1F
100
AcDbEntity
  8
TopSolder
100
AcDbTrace
 10
61.595
 20
65.024
 30
0.0
 11
74.295
 21
65.024
 31
0.0
 12
61.595
 22
68.453
 32
0.0
 13
74.295
 23
68.453
 33
0.0
  0
SOLID
  5
6E
330
1F
100
AcDbEntity
  8
TopSolder
100
AcDbTrace
 10
61.72199999999999
 20
79.883
 30
0.0
 11
74.295
 21
79.883
 31
0.0
 12
61.72199999999999
 22
83.439
 32
0.0
 13
74.295
 23
83.439
 33
0.0
  0
SOLID
  5
6F
330
1F
100
AcDbEntity
  8
TopSolder
100
AcDbTrace
 10
99.695
 20
39.878
 30
0.0
 11
106.68
 21
39.878
 31
0.0
 12
99.695
 22
44.831
 32
0.0
 13
106.68
 23
44.831
 33
0.0
  0
SOLID
  5
70
330
1F
100
AcDbEntity
  8
TopSolder
100
AcDbTrace
 10
99.695
 20
66.675
 30
0.0
 11
106.68
 21
66.675
 31
0.0
 12
99.695
 22
71.628
 32
0.0
 13
106.68
 23
71.628
 33
0.0
  0
SOLID
  5
71
330
1F
100
AcDbEntity
  8
TopSolder
100
AcDbTrace
 10
99.695
 20
93.853
 30
0.0
 11
106.68
 21
93.853
 31
0.0
 12
99.695
 22
98.806
 32
0.0
 13
106.68
 23
98.806
 33
0.0
  0
LWPOLYLINE
  5
72
330
1F
100
AcDbEntity
  8
TopSolder
100
AcDbPolyline
 90
        2
 70
     1
 43
0.7365999999999999
 10
76.2127
 20
53.97499999999999
 42
1.0
 10
76.9493
 20
53.97499999999999
 42
1.0
  0
LWPOLYLINE
  5
73
330
1F
100
AcDbEntity
  8
ViaHoleLayer
100
AcDbPolyline
 90
        2
 70
     1
 43
0.3556
 10
76.4032
 20
53.97499999999999
 42
1.0
 10
76.7588
 20
53.97499999999999
 42
1.0
  0
LWPOLYLINE
  5
74
330
1F
100
AcDbEntity
  8
TopSolder
100
AcDbPolyline
 90
        2
 70
     1
 43
0.7365999999999999
 10
94.5007
 20
36.83
 42
1.0
 10
95.23729999999999
 20
36.83
 42
1.0
  0
LWPOLYLINE
  5
75
330
1F
100
AcDbEntity
  8
ViaHoleLayer
100
AcDbPolyline
 90
        2
 70
     1
 43
0.3556
 10
94.6912
 20
36.83
 42
1.0
 10
95.04679999999999
 20
36.83
 42
1.0
  0
LWPOLYLINE
  5
76
330
1F
100
AcDbEntity
  8
TopSolder
100
AcDbPolyline
 90
        2
 70
     1
 43
0.7365999999999999
 10
94.1197
 20
44.577
 42
1.0
 10
94.85629999999999
 20
44.577
 42
1.0
  0
LWPOLYLINE
  5
77
330
1F
100
AcDbEntity
  8
ViaHoleLayer
100
AcDbPolyline
 90
        2
 70
     1
 43
0.3556
 10
94.3102
 20
44.577
 42
1.0
 10
94.66579999999999
 20
44.577
 42
1.0
  0
LWPOLYLINE
  5
78
330
1F
100
AcDbEntity
  8
TopSolder
100
AcDbPolyline
 90
        2
 70
     1
 43
0.7365999999999999
 10
95.38969999999999
 20
51.816
 42
1.0
 10
96.1263
 20
51.816
 42
1.0
  0
LWPOLYLINE
  5
79
330
1F
100
AcDbEntity
  8
ViaHoleLayer
100
AcDbPolyline
 90
        2
 70
     1
 43
0.3556
 10
95.58019999999999
 20
51.816
 42
1.0
 10
95.9358
 20
51.816
 42
1.0
  0
LWPOLYLINE
  5
7A
330
1F
100
AcDbEntity
  8
TopSolder
100
AcDbPolyline
 90
        2
 70
     1
 43
0.7365999999999999
 10
97.1677
 20
57.27699999999999
 42
1.0
 10
97.90429999999999
 20
57.27699999999999
 42
1.0
  0
LWPOLYLINE
  5
7B
330
1F
100
AcDbEntity
  8
ViaHoleLayer
100
AcDbPolyline
 90
        2
 70
     1
 43
0.3556
 10
97.3582
 20
57.27699999999999
 42
1.0
 10
97.71379999999999
 20
57.27699999999999
 42
1.0
  0
LWPOLYLINE
  5
7C
330
1F
100
AcDbEntity
  8
TopSolder
100
AcDbPolyline
 90
        2
 70
     1
 43
0.7365999999999999
 10
78.8797
 20
34.671
 42
1.0
 10
79.6163
 20
34.671
 42
1.0
  0
LWPOLYLINE
  5
7D
330
1F
100
AcDbEntity
  8
ViaHoleLayer
100
AcDbPolyline
 90
        2
 70
     1
 43
0.3556
 10
79.0702
 20
34.671
 42
1.0
 10
79.4258
 20
34.671
 42
1.0
  0
LWPOLYLINE
  5
7E
330
1F
100
AcDbEntity
  8
TopSolder
100
AcDbPolyline
 90
        2
 70
     1
 43
0.7365999999999999
 10
90.1827
 20
59.817
 42
1.0
 10
90.91929999999999
 20
59.817
 42
1.0
  0
LWPOLYLINE
  5
7F
330
1F
100
AcDbEntity
  8
ViaHoleLayer
100
AcDbPolyline
 90
        2
 70
     1
 43
0.3556
 10
90.3732
 20
59.817
 42
1.0
 10
90.72879999999999
 20
59.817
 42
1.0
  0
LWPOLYLINE
  5
80
330
1F
100
AcDbEntity
  8
TopSolder
100
AcDbPolyline
 90
        2
 70
     1
 43
0.7365999999999999
 10
81.41969999999999
 20
52.578
 42
1.0
 10
82.1563
 20
52.578
 42
1.0
  0
LWPOLYLINE
  5
81
330
1F
100
AcDbEntity
  8
ViaHoleLayer
100
AcDbPolyline
 90
        2
 70
     1
 43
0.3556
 10
81.61019999999999
 20
52.578
 42
1.0
 10
81.9658
 20
52.578
 42
1.0
  0
LWPOLYLINE
  5
82
330
1F
100
AcDbEntity
  8
TopSolder
100
AcDbPolyline
 90
        2
 70
     1
 43
0.7365999999999999
 10
82.8167
 20
61.34099999999999
 42
1.0
 10
83.5533
 20
61.34099999999999
 42
1.0
  0
LWPOLYLINE
  5
83
330
1F
100
AcDbEntity
  8
ViaHoleLayer
100
AcDbPolyline
 90
        2
 70
     1
 43
0.3556
 10
83.0072
 20
61.34099999999999
 42
1.0
 10
83.3628
 20
61.34099999999999
 42
1.0
  0
LWPOLYLINE
  5
84
330
1F
100
AcDbEntity
  8
TopSolder
100
AcDbPolyline
 90
        2
 70
     1
 43
0.7365999999999999
 10
62.36969999999999
 20
96.52
 42
1.0
 10
63.1063
 20
96.52
 42
1.0
  0
LWPOLYLINE
  5
85
330
1F
100
AcDbEntity
  8
ViaHoleLayer
100
AcDbPolyline
 90
        2
 70
     1
 43
0.3556
 10
62.56019999999999
 20
96.52
 42
1.0
 10
62.9158
 20
96.52
 42
1.0
  0
LWPOLYLINE
  5
86
330
1F
100
AcDbEntity
  8
TopSolder
100
AcDbPolyline
 90
        2
 70
     1
 43
0.7365999999999999
 10
83.9597
 20
60.071
 42
1.0
 10
84.6963
 20
60.071
 42
1.0
  0
LWPOLYLINE
  5
87
330
1F
100
AcDbEntity
  8
ViaHoleLayer
100
AcDbPolyline
 90
        2
 70
     1
 43
0.3556
 10
84.1502
 20
60.071
 42
1.0
 10
84.5058
 20
60.071
 42
1.0
  0
LWPOLYLINE
  5
88
330
1F
100
AcDbEntity
  8
TopSolder
100
AcDbPolyline
 90
        2
 70
     1
 43
0.7365999999999999
 10
64.02069999999999
 20
96.52
 42
1.0
 10
64.7573
 20
96.52
 42
1.0
  0
LWPOLYLINE
  5
89
330
1F
100
AcDbEntity
  8
ViaHoleLayer
100
AcDbPolyline
 90
        2
 70
     1
 43
0.3556
 10
64.21119999999999
 20
96.52
 42
1.0
 10
64.5668
 20
96.52
 42
1.0
  0
LWPOLYLINE
  5
8A
330
1F
100
AcDbEntity
  8
TopSolder
100
AcDbPolyline
 90
        2
 70
     1
 43
0.7365999999999999
 10
70.8787
 20
72.64399999999999
 42
1.0
 10
71.61529999999999
 20
72.64399999999999
 42
1.0
  0
LWPOLYLINE
  5
8B
330
1F
100
AcDbEntity
  8
ViaHoleLayer
100
AcDbPolyline
 90
        2
 70
     1
 43
0.3556
 10
71.0692
 20
72.64399999999999
 42
1.0
 10
71.42479999999999
 20
72.64399999999999
 42
1.0
  0
LWPOLYLINE
  5
8C
330
1F
100
AcDbEntity
  8
TopSolder
100
AcDbPolyline
 90
        2
 70
     1
 43
0.7365999999999999
 10
67.06869999999999
 20
105.918
 42
1.0
 10
67.8053
 20
105.918
 42
1.0
  0
LWPOLYLINE
  5
8D
330
1F
100
AcDbEntity
  8
ViaHoleLayer
100
AcDbPolyline
 90
        2
 70
     1
 43
0.3556
 10
67.25919999999999
 20
105.918
 42
1.0
 10
67.6148
 20
105.918
 42
1.0
  0
LWPOLYLINE
  5
8E
330
1F
100
AcDbEntity
  8
TopSolder
100
AcDbPolyline
 90
        2
 70
     1
 43
0.7365999999999999
 10
65.54469999999999
 20
104.267
 42
1.0
 10
66.2813
 20
104.267
 42
1.0
  0
LWPOLYLINE
  5
8F
330
1F
100
AcDbEntity
  8
ViaHoleLayer
100
AcDbPolyline
 90
        2
 70
     1
 43
0.3556
 10
65.73519999999999
 20
104.267
 42
1.0
 10
66.0908
 20
104.267
 42
1.0
  0
LWPOLYLINE
  5
90
330
1F
100
AcDbEntity
  8
TopSolder
100
AcDbPolyline
 90
        2
 70
     1
 43
0.7365999999999999
 10
99.8347
 20
109.474
 42
1.0
 10
100.5713
 20
109.474
 42
1.0
  0
LWPOLYLINE
  5
91
330
1F
100
AcDbEntity
  8
ViaHoleLayer
100
AcDbPolyline
 90
        2
 70
     1
 43
0.3556
 10
100.0252
 20
109.474
 42
1.0
 10
100.3808
 20
109.474
 42
1.0
  0
LWPOLYLINE
  5
92
330
1F
100
AcDbEntity
  8
TopSolder
100
AcDbPolyline
 90
        2
 70
     1
 43
0.7365999999999999
 10
101.7397
 20
118.872
 42
1.0
 10
102.4763
 20
118.872
 42
1.0
  0
LWPOLYLINE
  5
93
330
1F
100
AcDbEntity
  8
ViaHoleLayer
100
AcDbPolyline
 90
        2
 70
     1
 43
0.3556
 10
101.9302
 20
118.872
 42
1.0
 10
102.2858
 20
118.872
 42
1.0
  0
LWPOLYLINE
  5
94
330
1F
100
AcDbEntity
  8
TopSolder
100
AcDbPolyline
 90
        2
 70
     1
 43
0.7365999999999999
 10
88.9127
 20
106.299
 42
1.0
 10
89.6493
 20
106.299
 42
1.0
  0
LWPOLYLINE
  5
95
330
1F
100
AcDbEntity
  8
ViaHoleLayer
100
AcDbPolyline
 90
        2
 70
     1
 43
0.3556
 10
89.1032
 20
106.299
 42
1.0
 10
89.4588
 20
106.299
 42
1.0
  0
LWPOLYLINE
  5
96
330
1F
100
AcDbEntity
  8
TopSolder
100
AcDbPolyline
 90
        2
 70
     1
 43
0.7365999999999999
 10
82.94369999999999
 20
107.823
 42
1.0
 10
83.68029999999999
 20
107.823
 42
1.0
  0
LWPOLYLINE
  5
97
330
1F
100
AcDbEntity
  8
ViaHoleLayer
100
AcDbPolyline
 90
        2
 70
     1
 43
0.3556
 10
83.13419999999999
 20
107.823
 42
1.0
 10
83.48979999999999
 20
107.823
 42
1.0
  0
LWPOLYLINE
  5
98
330
1F
100
AcDbEntity
  8
TopSolder
100
AcDbPolyline
 90
        2
 70
     1
 43
0.7365999999999999
 10
89.0397
 20
31.115
 42
1.0
 10
89.77629999999999
 20
31.115
 42
1.0
  0
LWPOLYLINE
  5
99
330
1F
100
AcDbEntity
  8
ViaHoleLayer
100
AcDbPolyline
 90
        2
 70
     1
 43
0.3556
 10
89.2302
 20
31.115
 42
1.0
 10
89.58579999999999
 20
31.115
 42
1.0
  0
LWPOLYLINE
  5
9A
330
1F
100
AcDbEntity
  8
TopSolder
100
AcDbPolyline
 90
        2
 70
     1
 43
0.7365999999999999
 10
98.6917
 20
31.496
 42
1.0
 10
99.4283
 20
31.496
 42
1.0
  0
LWPOLYLINE
  5
9B
330
1F
100
AcDbEntity
  8
ViaHoleLayer
100
AcDbPolyline
 90
        2
 70
     1
 43
0.3556
 10
98.8822
 20
31.496
 42
1.0
 10
99.2378
 20
31.496
 42
1.0
  0
LWPOLYLINE
  5
9C
330
1F
100
AcDbEntity
  8
TopSolder
100
AcDbPolyline
 90
        2
 70
     1
 43
0.7365999999999999
 10
100.2157
 20
54.991
 42
1.0
 10
100.9523
 20
54.991
 42
1.0
  0
LWPOLYLINE
  5
9D
330
1F
100
AcDbEntity
  8
ViaHoleLayer
100
AcDbPolyline
 90
        2
 70
     1
 43
0.3556
 10
100.4062
 20
54.991
 42
1.0
 10
100.7618
 20
54.991
 42
1.0
  0
LWPOLYLINE
  5
9E
330
1F
100
AcDbEntity
  8
TopSolder
100
AcDbPolyline
 90
        2
 70
     1
 43
0.7365999999999999
 10
87.7697
 20
52.324
 42
1.0
 10
88.5063
 20
52.324
 42
1.0
  0
LWPOLYLINE
  5
9F
330
1F
100
AcDbEntity
  8
ViaHoleLayer
100
AcDbPolyline
 90
        2
 70
     1
 43
0.3556
 10
87.9602
 20
52.324
 42
1.0
 10
88.3158
 20
52.324
 42
1.0
  0
LWPOLYLINE
  5
A0
330
1F
100
AcDbEntity
  8
TopSolder
100
AcDbPolyline
 90
        2
 70
     1
 43
0.7365999999999999
 10
97.8027
 20
66.03999999999999
 42
1.0
 10
98.5393
 20
66.03999999999999
 42
1.0
  0
LWPOLYLINE
  5
A1
330
1F
100
AcDbEntity
  8
ViaHoleLayer
100
AcDbPolyline
 90
        2
 70
     1
 43
0.3556
 10
97.99319999999999
 20
66.03999999999999
 42
1.0
 10
98.3488
 20
66.03999999999999
 42
1.0
  0
LWPOLYLINE
  5
A2
330
1F
100
AcDbEntity
  8
TopSolder
100
AcDbPolyline
 90
        2
 70
     1
 43
0.7365999999999999
 10
100.3427
 20
101.981
 42
1.0
 10
101.0793
 20
101.981
 42
1.0
  0
LWPOLYLINE
  5
A3
330
1F
100
AcDbEntity
  8
ViaHoleLayer
100
AcDbPolyline
 90
        2
 70
     1
 43
0.3556
 10
100.5332
 20
101.981
 42
1.0
 10
100.8888
 20
101.981
 42
1.0
  0
LWPOLYLINE
  5
A4
330
1F
100
AcDbEntity
  8
TopSolder
100
AcDbPolyline
 90
        2
 70
     1
 43
0.7365999999999999
 10
61.60769999999999
 20
103.759
 42
1.0
 10
62.3443
 20
103.759
 42
1.0
  0
LWPOLYLINE
  5
A5
330
1F
100
AcDbEntity
  8
ViaHoleLayer
100
AcDbPolyline
 90
        2
 70
     1
 43
0.3556
 10
61.79819999999999
 20
103.759
 42
1.0
 10
62.1538
 20
103.759
 42
1.0
  0
LWPOLYLINE
  5
A6
330
1F
100
AcDbEntity
  8
TopSolder
100
AcDbPolyline
 90
        2
 70
     1
 43
0.7365999999999999
 10
61.8617
 20
110.617
 42
1.0
 10
62.59829999999999
 20
110.617
 42
1.0
  0
LWPOLYLINE
  5
A7
330
1F
100
AcDbEntity
  8
ViaHoleLayer
100
AcDbPolyline
 90
        2
 70
     1
 43
0.3556
 10
62.0522
 20
110.617
 42
1.0
 10
62.40779999999999
 20
110.617
 42
1.0
  0
LWPOLYLINE
  5
A8
330
1F
100
AcDbEntity
  8
TopSolder
100
AcDbPolyline
 90
        2
 70
     1
 43
0.7365999999999999
 10
65.7987
 20
97.536
 42
1.0
 10
66.53529999999999
 20
97.536
 42
1.0
  0
LWPOLYLINE
  5
A9
330
1F
100
AcDbEntity
  8
ViaHoleLayer
100
AcDbPolyline
 90
        2
 70
     1
 43
0.3556
 10
65.9892
 20
97.536
 42
1.0
 10
66.34479999999999
 20
97.536
 42
1.0
  0
LWPOLYLINE
  5
AA
330
1F
100
AcDbEntity
  8
TopSolder
100
AcDbPolyline
 90
        2
 70
     1
 43
0.7365999999999999
 10
63.2587
 20
98.67899999999999
 42
1.0
 10
63.99529999999999
 20
98.67899999999999
 42
1.0
  0
LWPOLYLINE
  5
AB
330
1F
100
AcDbEntity
  8
ViaHoleLayer
100
AcDbPolyline
 90
        2
 70
     1
 43
0.3556
 10
63.4492
 20
98.67899999999999
 42
1.0
 10
63.80479999999999
 20
98.67899999999999
 42
1.0
  0
LWPOLYLINE
  5
AC
330
1F
100
AcDbEntity
  8
TopSolder
100
AcDbPolyline
 90
        2
 70
     1
 43
0.7365999999999999
 10
73.9267
 20
125.476
 42
1.0
 10
74.66329999999999
 20
125.476
 42
1.0
  0
LWPOLYLINE
  5
AD
330
1F
100
AcDbEntity
  8
ViaHoleLayer
100
AcDbPolyline
 90
        2
 70
     1
 43
0.3556
 10
74.1172
 20
125.476
 42
1.0
 10
74.47279999999999
 20
125.476
 42
1.0
  0
LWPOLYLINE
  5
AE
330
1F
100
AcDbEntity
  8
TopSolder
100
AcDbPolyline
 90
        2
 70
     1
 43
0.7365999999999999
 10
87.64269999999999
 20
112.649
 42
1.0
 10
88.3793
 20
112.649
 42
1.0
  0
LWPOLYLINE
  5
AF
330
1F
100
AcDbEntity
  8
ViaHoleLayer
100
AcDbPolyline
 90
        2
 70
     1
 43
0.3556
 10
87.83319999999999
 20
112.649
 42
1.0
 10
88.1888
 20
112.649
 42
1.0
  0
LWPOLYLINE
  5
B0
330
1F
100
AcDbEntity
  8
TopSolder
100
AcDbPolyline
 90
        2
 70
     1
 43
0.7365999999999999
 10
84.4677
 20
110.236
 42
1.0
 10
85.20429999999999
 20
110.236
 42
1.0
  0
LWPOLYLINE
  5
B1
330
1F
100
AcDbEntity
  8
ViaHoleLayer
100
AcDbPolyline
 90
        2
 70
     1
 43
0.3556
 10
84.6582
 20
110.236
 42
1.0
 10
85.01379999999999
 20
110.236
 42
1.0
  0
LWPOLYLINE
  5
B2
330
1F
100
AcDbEntity
  8
TopSolder
100
AcDbPolyline
 90
        2
 70
     1
 43
0.7365999999999999
 10
80.5307
 20
100.838
 42
1.0
 10
81.26729999999999
 20
100.838
 42
1.0
  0
LWPOLYLINE
  5
B3
330
1F
100
AcDbEntity
  8
ViaHoleLayer
100
AcDbPolyline
 90
        2
 70
     1
 43
0.3556
 10
80.7212
 20
100.838
 42
1.0
 10
81.07679999999999
 20
100.838
 42
1.0
  0
LWPOLYLINE
  5
B4
330
1F
100
AcDbEntity
  8
TopSolder
100
AcDbPolyline
 90
        2
 70
     1
 43
0.8635999999999999
 10
81.4832
 20
32.512
 42
1.0
 10
82.3468
 20
32.512
 42
1.0
  0
LWPOLYLINE
  5
B5
330
1F
100
AcDbEntity
  8
PadHoleLayer
100
AcDbPolyline
 90
        2
 70
     1
 43
1.99999854
 10
80.91499945999999
 20
32.512
 42
1.0
 10
82.91500054
 20
32.512
 42
1.0
  0
LWPOLYLINE
  5
B6
330
1F
100
AcDbEntity
  8
TopSolder
100
AcDbPolyline
 90
        2
 70
     1
 43
0.8635999999999999
 10
70.5612
 20
92.71
 42
1.0
 10
71.42479999999999
 20
92.71
 42
1.0
  0
LWPOLYLINE
  5
B7
330
1F
100
AcDbEntity
  8
PadHoleLayer
100
AcDbPolyline
 90
        2
 70
     1
 43
1.99999854
 10
69.99299946
 20
92.71
 42
1.0
 10
71.99300054
 20
92.71
 42
1.0
  0
LWPOLYLINE
  5
B8
330
1F
100
AcDbEntity
  8
TopSolder
100
AcDbPolyline
 90
        2
 70
     1
 43
1.60159954
 10
96.60820149999999
 20
118.66500016
 42
1.0
 10
98.20979849999999
 20
118.66500016
 42
1.0
  0
LWPOLYLINE
  5
B9
330
1F
100
AcDbEntity
  8
PadHoleLayer
100
AcDbPolyline
 90
        2
 70
     1
 43
0.3999992
 10
97.2090004
 20
118.66500016
 42
1.0
 10
97.60899959999999
 20
118.66500016
 42
1.0
  0
LWPOLYLINE
  5
BA
330
1F
100
AcDbEntity
  8
TopSolder
100
AcDbPolyline
 90
        2
 70
     1
 43
1.60159954
 10
96.60820149999999
 20
113.665
 42
1.0
 10
98.20979849999999
 20
113.665
 42
1.0
  0
LWPOLYLINE
  5
BB
330
1F
100
AcDbEntity
  8
PadHoleLayer
100
AcDbPolyline
 90
        2
 70
     1
 43
0.3999992
 10
97.2090004
 20
113.665
 42
1.0
 10
97.60899959999999
 20
113.665
 42
1.0
  0
SOLID
  5
BC
330
1F
100
AcDbEntity
  8
TopSolder
100
AcDbTrace
 10
93.43440038
 20
54.00859912
 30
0.0
 11
93.43440038
 21
53.10540052
 31
0.0
 12
95.63760146
 22
54.00859912
 32
0.0
 13
95.63760146
 23
53.10540052
 33
0.0
  0
SOLID
  5
BD
330
1F
100
AcDbEntity
  8
TopSolder
100
AcDbTrace
 10
99.43439853999999
 20
54.00859912
 30
0.0
 11
99.43439853999999
 21
53.10540052
 31
0.0
 12
101.63759962
 22
54.00859912
 32
0.0
 13
101.63759962
 23
53.10540052
 33
0.0
  0
SOLID
  5
BE
330
1F
100
AcDbEntity
  8
TopSolder
100
AcDbTrace
 10
93.43440038
 20
50.80860044
 30
0.0
 11
93.43440038
 21
49.90540184
 31
0.0
 12
95.63760146
 22
50.80860044
 32
0.0
 13
95.63760146
 23
49.90540184
 33
0.0
  0
SOLID
  5
BF
330
1F
100
AcDbEntity
  8
TopSolder
100
AcDbTrace
 10
99.43439853999999
 20
50.80860044
 30
0.0
 11
99.43439853999999
 21
49.90540184
 31
0.0
 12
101.63759962
 22
50.80860044
 32
0.0
 13
101.63759962
 23
49.90540184
 33
0.0
  0
SOLID
  5
C0
330
1F
100
AcDbEntity
  8
TopSolder
100
AcDbTrace
 10
93.43440038
 20
46.40859907999999
 30
0.0
 11
93.43440038
 21
45.50540048
 31
0.0
 12
95.63760146
 22
46.40859907999999
 32
0.0
 13
95.63760146
 23
45.50540048
 33
0.0
  0
SOLID
  5
C1
330
1F
100
AcDbEntity
  8
TopSolder
100
AcDbTrace
 10
93.43440038
 20
48.60859976
 30
0.0
 11
93.43440038
 21
47.70540115999999
 31
0.0
 12
95.63760146
 22
48.60859976
 32
0.0
 13
95.63760146
 23
47.70540115999999
 33
0.0
  0
SOLID
  5
C2
330
1F
100
AcDbEntity
  8
TopSolder
100
AcDbTrace
 10
99.43439853999999
 20
46.40859907999999
 30
0.0
 11
99.43439853999999
 21
45.50540048
 31
0.0
 12
101.63759962
 22
46.40859907999999
 32
0.0
 13
101.63759962
 23
45.50540048
 33
0.0
  0
SOLID
  5
C3
330
1F
100
AcDbEntity
  8
TopSolder
100
AcDbTrace
 10
99.43439853999999
 20
48.60859976
 30
0.0
 11
99.43439853999999
 21
47.70540115999999
 31
0.0
 12
101.63759962
 22
48.60859976
 32
0.0
 13
101.63759962
 23
47.70540115999999
 33
0.0
  0
SOLID
  5
C4
330
1F
100
AcDbEntity
  8
TopSolder
100
AcDbTrace
 10
55.07989999999999
 20
101.1428
 30
0.0
 11
55.07989999999999
 21
99.9236
 31
0.0
 12
56.6801
 22
101.1428
 32
0.0
 13
56.6801
 23
99.9236
 33
0.0
  0
SOLID
  5
C5
330
1F
100
AcDbEntity
  8
TopSolder
100
AcDbTrace
 10
55.07989999999999
 20
103.0224
 30
0.0
 11
55.07989999999999
 21
101.8032
 31
0.0
 12
56.6801
 22
103.0224
 32
0.0
 13
56.6801
 23
101.8032
 33
0.0
  0
SOLID
  5
C6
330
1F
100
AcDbEntity
  8
TopSolder
100
AcDbTrace
 10
74.7522
 20
96.60889999999999
 30
0.0
 11
75.9714
 21
96.60889999999999
 31
0.0
 12
74.7522
 22
98.20909999999999
 32
0.0
 13
75.9714
 23
98.20909999999999
 33
0.0
  0
SOLID
  5
C7
330
1F
100
AcDbEntity
  8
TopSolder
100
AcDbTrace
 10
72.87259999999999
 20
96.60889999999999
 30
0.0
 11
74.09179999999999
 21
96.60889999999999
 31
0.0
 12
72.87259999999999
 22
98.20909999999999
 32
0.0
 13
74.09179999999999
 23
98.20909999999999
 33
0.0
  0
SOLID
  5
C8
330
1F
100
AcDbEntity
  8
TopSolder
100
AcDbTrace
 10
81.3689
 20
65.96379999999999
 30
0.0
 11
81.3689
 21
64.74459999999999
 31
0.0
 12
82.9691
 22
65.96379999999999
 32
0.0
 13
82.9691
 23
64.74459999999999
 33
0.0
  0
SOLID
  5
C9
330
1F
100
AcDbEntity
  8
TopSolder
100
AcDbTrace
 10
81.3689
 20
67.8434
 30
0.0
 11
81.3689
 21
66.6242
 31
0.0
 12
82.9691
 22
67.8434
 32
0.0
 13
82.9691
 23
66.6242
 33
0.0
  0
LWPOLYLINE
  5
CA
330
1F
100
AcDbEntity
  8
TopSolder
100
AcDbPolyline
 90
        2
 70
     1
 43
1.60159954
 10
93.56020149999999
 20
62.23
 42
1.0
 10
95.16179849999999
 20
62.23
 42
1.0
  0
LWPOLYLINE
  5
CB
330
1F
100
AcDbEntity
  8
PadHoleLayer
100
AcDbPolyline
 90
        2
 70
     1
 43
0.3999992
 10
94.16100039999999
 20
62.23
 42
1.0
 10
94.56099959999999
 20
62.23
 42
1.0
  0
LWPOLYLINE
  5
CC
330
1F
100
AcDbEntity
  8
TopSolder
100
AcDbPolyline
 90
        2
 70
     1
 43
1.60159954
 10
93.56020149999999
 20
57.22999984
 42
1.0
 10
95.16179849999999
 20
57.22999984
 42
1.0
  0
LWPOLYLINE
  5
CD
330
1F
100
AcDbEntity
  8
PadHoleLayer
100
AcDbPolyline
 90
        2
 70
     1
 43
0.3999992
 10
94.16100039999999
 20
57.22999984
 42
1.0
 10
94.56099959999999
 20
57.22999984
 42
1.0
  0
SOLID
  5
CE
330
1F
100
AcDbEntity
  8
TopSolder
100
AcDbTrace
 10
99.51719999999999
 20
58.1279
 30
0.0
 11
100.7364
 21
58.1279
 31
0.0
 12
99.51719999999999
 22
59.7281
 32
0.0
 13
100.7364
 23
59.7281
 33
0.0
  0
SOLID
  5
CF
330
1F
100
AcDbEntity
  8
TopSolder
100
AcDbTrace
 10
97.63759999999999
 20
58.1279
 30
0.0
 11
98.85679999999999
 21
58.1279
 31
0.0
 12
97.63759999999999
 22
59.7281
 32
0.0
 13
98.85679999999999
 23
59.7281
 33
0.0
  0
SOLID
  5
D0
330
1F
100
AcDbEntity
  8
TopSolder
100
AcDbTrace
 10
98.85679999999999
 20
62.14109999999999
 30
0.0
 11
97.63759999999999
 21
62.14109999999999
 31
0.0
 12
98.85679999999999
 22
60.54089999999999
 32
0.0
 13
97.63759999999999
 23
60.54089999999999
 33
0.0
  0
SOLID
  5
D1
330
1F
100
AcDbEntity
  8
TopSolder
100
AcDbTrace
 10
100.7364
 20
62.14109999999999
 30
0.0
 11
99.51719999999999
 21
62.14109999999999
 31
0.0
 12
100.7364
 22
60.54089999999999
 32
0.0
 13
99.51719999999999
 23
60.54089999999999
 33
0.0
  0
SOLID
  5
D2
330
1F
100
AcDbEntity
  8
TopSolder
100
AcDbTrace
 10
94.1959
 20
33.8328
 30
0.0
 11
94.1959
 21
32.6136
 31
0.0
 12
95.7961
 22
33.8328
 32
0.0
 13
95.7961
 23
32.6136
 33
0.0
  0
SOLID
  5
D3
330
1F
100
AcDbEntity
  8
TopSolder
100
AcDbTrace
 10
94.1959
 20
35.7124
 30
0.0
 11
94.1959
 21
34.49319999999999
 31
0.0
 12
95.7961
 22
35.7124
 32
0.0
 13
95.7961
 23
34.49319999999999
 33
0.0
  0
SOLID
  5
D4
330
1F
100
AcDbEntity
  8
TopSolder
100
AcDbTrace
 10
98.20909999999999
 20
34.49319999999999
 30
0.0
 11
98.20909999999999
 21
35.7124
 31
0.0
 12
96.60889999999999
 22
34.49319999999999
 32
0.0
 13
96.60889999999999
 23
35.7124
 33
0.0
  0
SOLID
  5
D5
330
1F
100
AcDbEntity
  8
TopSolder
100
AcDbTrace
 10
98.20909999999999
 20
32.6136
 30
0.0
 11
98.20909999999999
 21
33.8328
 31
0.0
 12
96.60889999999999
 22
32.6136
 32
0.0
 13
96.60889999999999
 23
33.8328
 33
0.0
  0
SOLID
  5
D6
330
1F
100
AcDbEntity
  8
TopSolder
100
AcDbTrace
 10
100.3681
 20
34.49319999999999
 30
0.0
 11
100.3681
 21
35.7124
 31
0.0
 12
98.7679
 22
34.49319999999999
 32
0.0
 13
98.7679
 23
35.7124
 33
0.0
  0
SOLID
  5
D7
330
1F
100
AcDbEntity
  8
TopSolder
100
AcDbTrace
 10
100.3681
 20
32.6136
 30
0.0
 11
100.3681
 21
33.8328
 31
0.0
 12
98.7679
 22
32.6136
 32
0.0
 13
98.7679
 23
33.8328
 33
0.0
  0
LWPOLYLINE
  5
D8
330
1F
100
AcDbEntity
  8
TopSolder
100
AcDbPolyline
 90
        2
 70
     0
 43
2.7178
 10
117.20999926
 20
125.4633
 10
117.20999926
 20
122.9487
  0
LWPOLYLINE
  5
D9
330
1F
100
AcDbEntity
  8
TopSolder
100
AcDbPolyline
 90
        2
 70
     1
 43
1.3589
 10
116.53054926
 20
125.4633
 42
1.0
 10
117.88944926
 20
125.4633
 42
1.0
  0
LWPOLYLINE
  5
DA
330
1F
100
AcDbEntity
  8
TopSolder
100
AcDbPolyline
 90
        2
 70
     1
 43
1.3589
 10
116.53054926
 20
122.9487
 42
1.0
 10
117.88944926
 20
122.9487
 42
1.0
  0
LWPOLYLINE
  5
DB
330
1F
100
AcDbEntity
  8
PadHoleLayer
100
AcDbPolyline
 90
        2
 70
     1
 43
0.8382
 10
116.79089926
 20
124.206
 42
1.0
 10
117.62909926
 20
124.206
 42
1.0
  0
LWPOLYLINE
  5
DC
330
1F
100
AcDbEntity
  8
TopSolder
100
AcDbPolyline
 90
        2
 70
     0
 43
2.7178
 10
106.31000074
 20
125.4633
 10
106.31000074
 20
122.9487
  0
LWPOLYLINE
  5
DD
330
1F
100
AcDbEntity
  8
TopSolder
100
AcDbPolyline
 90
        2
 70
     1
 43
1.3589
 10
105.63055074
 20
125.4633
 42
1.0
 10
106.98945074
 20
125.4633
 42
1.0
  0
LWPOLYLINE
  5
DE
330
1F
100
AcDbEntity
  8
TopSolder
100
AcDbPolyline
 90
        2
 70
     1
 43
1.3589
 10
105.63055074
 20
122.9487
 42
1.0
 10
106.98945074
 20
122.9487
 42
1.0
  0
LWPOLYLINE
  5
DF
330
1F
100
AcDbEntity
  8
PadHoleLayer
100
AcDbPolyline
 90
        2
 70
     1
 43
0.8382
 10
105.89090074
 20
124.206
 42
1.0
 10
106.72910074
 20
124.206
 42
1.0
  0
LWPOLYLINE
  5
E0
330
1F
100
AcDbEntity
  8
TopSolder
100
AcDbPolyline
 90
        2
 70
     0
 43
2.7178
 10
111.76
 20
125.4633
 10
111.76
 20
122.9487
  0
LWPOLYLINE
  5
E1
330
1F
100
AcDbEntity
  8
TopSolder
100
AcDbPolyline
 90
        2
 70
     1
 43
1.3589
 10
111.08055
 20
125.4633
 42
1.0
 10
112.43945
 20
125.4633
 42
1.0
  0
LWPOLYLINE
  5
E2
330
1F
100
AcDbEntity
  8
TopSolder
100
AcDbPolyline
 90
        2
 70
     1
 43
1.3589
 10
111.08055
 20
122.9487
 42
1.0
 10
112.43945
 20
122.9487
 42
1.0
  0
LWPOLYLINE
  5
E3
330
1F
100
AcDbEntity
  8
PadHoleLayer
100
AcDbPolyline
 90
        2
 70
     1
 43
0.8382
 10
111.3409
 20
124.206
 42
1.0
 10
112.1791
 20
124.206
 42
1.0
  0
LWPOLYLINE
  5
E4
330
1F
100
AcDbEntity
  8
TopSolder
100
AcDbPolyline
 90
        2
 70
     0
 43
2.7178
 10
135.53100148
 20
112.4077
 10
135.53100148
 20
114.9223
  0
LWPOLYLINE
  5
E5
330
1F
100
AcDbEntity
  8
TopSolder
100
AcDbPolyline
 90
        2
 70
     1
 43
1.3589
 10
134.85155148
 20
112.4077
 42
1.0
 10
136.21045148
 20
112.4077
 42
1.0
  0
LWPOLYLINE
  5
E6
330
1F
100
AcDbEntity
  8
TopSolder
100
AcDbPolyline
 90
        2
 70
     1
 43
1.3589
 10
134.85155148
 20
114.9223
 42
1.0
 10
136.21045148
 20
114.9223
 42
1.0
  0
LWPOLYLINE
  5
E7
330
1F
100
AcDbEntity
  8
PadHoleLayer
100
AcDbPolyline
 90
        2
 70
     1
 43
0.8382
 10
135.11190148
 20
113.665
 42
1.0
 10
135.95010148
 20
113.665
 42
1.0
  0
LWPOLYLINE
  5
E8
330
1F
100
AcDbEntity
  8
TopSolder
100
AcDbPolyline
 90
        2
 70
     0
 43
2.7178
 10
146.431
 20
112.4077
 10
146.431
 20
114.9223
  0
LWPOLYLINE
  5
E9
330
1F
100
AcDbEntity
  8
TopSolder
100
AcDbPolyline
 90
        2
 70
     1
 43
1.3589
 10
145.75155
 20
112.4077
 42
1.0
 10
147.11045
 20
112.4077
 42
1.0
  0
LWPOLYLINE
  5
EA
330
1F
100
AcDbEntity
  8
TopSolder
100
AcDbPolyline
 90
        2
 70
     1
 43
1.3589
 10
145.75155
 20
114.9223
 42
1.0
 10
147.11045
 20
114.9223
 42
1.0
  0
LWPOLYLINE
  5
EB
330
1F
100
AcDbEntity
  8
PadHoleLayer
100
AcDbPolyline
 90
        2
 70
     1
 43
0.8382
 10
146.0119
 20
113.665
 42
1.0
 10
146.8501
 20
113.665
 42
1.0
  0
LWPOLYLINE
  5
EC
330
1F
100
AcDbEntity
  8
TopSolder
100
AcDbPolyline
 90
        2
 70
     0
 43
2.7178
 10
140.98100074
 20
112.4077
 10
140.98100074
 20
114.9223
  0
LWPOLYLINE
  5
ED
330
1F
100
AcDbEntity
  8
TopSolder
100
AcDbPolyline
 90
        2
 70
     1
 43
1.3589
 10
140.30155074
 20
112.4077
 42
1.0
 10
141.66045074
 20
112.4077
 42
1.0
  0
LWPOLYLINE
  5
EE
330
1F
100
AcDbEntity
  8
TopSolder
100
AcDbPolyline
 90
        2
 70
     1
 43
1.3589
 10
140.30155074
 20
114.9223
 42
1.0
 10
141.66045074
 20
114.9223
 42
1.0
  0
LWPOLYLINE
  5
EF
330
1F
100
AcDbEntity
  8
PadHoleLayer
100
AcDbPolyline
 90
        2
 70
     1
 43
0.8382
 10
140.56190074
 20
113.665
 42
1.0
 10
141.40010074
 20
113.665
 42
1.0
  0
SOLID
  5
F0
330
1F
100
AcDbEntity
  8
TopSolder
100
AcDbTrace
 10
79.23960022
 20
73.03040003999999
 30
0.0
 11
79.23960022
 21
76.98360016
 31
0.0
 12
77.98639978
 22
73.03040003999999
 32
0.0
 13
77.98639978
 23
76.98360016
 33
0.0
  0
SOLID
  5
F1
330
1F
100
AcDbEntity
  8
TopSolder
100
AcDbTrace
 10
84.31960022
 20
73.03040003999999
 30
0.0
 11
84.31960022
 21
76.98360016
 31
0.0
 12
83.06639978
 22
73.03040003999999
 32
0.0
 13
83.06639978
 23
76.98360016
 33
0.0
  0
SOLID
  5
F2
330
1F
100
AcDbEntity
  8
TopSolder
100
AcDbTrace
 10
86.50459966
 20
89.75859874
 30
0.0
 11
75.80140034
 21
89.75859874
 31
0.0
 12
86.50459966
 22
81.25540009999999
 32
0.0
 13
75.80140034
 23
81.25540009999999
 33
0.0
  0
SOLID
  5
F3
330
1F
100
AcDbEntity
  8
TopSolder
100
AcDbTrace
 10
140.4245985
 20
126.0735985
 30
0.0
 11
138.7214015
 21
126.0735985
 31
0.0
 12
140.4245985
 22
124.3704015
 32
0.0
 13
138.7214015
 23
124.3704015
 33
0.0
  0
LWPOLYLINE
  5
F4
330
1F
100
AcDbEntity
  8
PadHoleLayer
100
AcDbPolyline
 90
        2
 70
     1
 43
0.4499991
 10
139.34799918
 20
125.222
 42
1.0
 10
139.79800082
 20
125.222
 42
1.0
  0
LWPOLYLINE
  5
F5
330
1F
100
AcDbEntity
  8
TopSolder
100
AcDbPolyline
 90
        2
 70
     1
 43
0.8515984999999999
 10
136.60719948
 20
125.222
 42
1.0
 10
137.45880052
 20
125.222
 42
1.0
  0
LWPOLYLINE
  5
F6
330
1F
100
AcDbEntity
  8
PadHoleLayer
100
AcDbPolyline
 90
        2
 70
     1
 43
0.4499991
 10
136.80799918
 20
125.222
 42
1.0
 10
137.25800082
 20
125.222
 42
1.0
  0
SOLID
  5
F7
330
1F
100
AcDbEntity
  8
TopSolder
100
AcDbTrace
 10
147.4095985
 20
125.9465985
 30
0.0
 11
145.7064015
 21
125.9465985
 31
0.0
 12
147.4095985
 22
124.2434015
 32
0.0
 13
145.7064015
 23
124.2434015
 33
0.0
  0
LWPOLYLINE
  5
F8
330
1F
100
AcDbEntity
  8
PadHoleLayer
100
AcDbPolyline
 90
        2
 70
     1
 43
0.4499991
 10
146.33299918
 20
125.095
 42
1.0
 10
146.78300082
 20
125.095
 42
1.0
  0
LWPOLYLINE
  5
F9
330
1F
100
AcDbEntity
  8
TopSolder
100
AcDbPolyline
 90
        2
 70
     1
 43
0.8515984999999999
 10
143.59219948
 20
125.095
 42
1.0
 10
144.44380052
 20
125.095
 42
1.0
  0
LWPOLYLINE
  5
FA
330
1F
100
AcDbEntity
  8
PadHoleLayer
100
AcDbPolyline
 90
        2
 70
     1
 43
0.4499991
 10
143.79299918
 20
125.095
 42
1.0
 10
144.24300082
 20
125.095
 42
1.0
  0
LWPOLYLINE
  5
FB
330
1F
100
AcDbEntity
  8
TopSolder
100
AcDbPolyline
 90
        2
 70
     1
 43
0.8515984999999999
 10
95.33219948
 20
42.291
 42
1.0
 10
96.18380051999999
 20
42.291
 42
1.0
  0
LWPOLYLINE
  5
FC
330
1F
100
AcDbEntity
  8
PadHoleLayer
100
AcDbPolyline
 90
        2
 70
     1
 43
0.4499991
 10
95.53299917999999
 20
42.291
 42
1.0
 10
95.98300082
 20
42.291
 42
1.0
  0
LWPOLYLINE
  5
FD
330
1F
100
AcDbEntity
  8
TopSolder
100
AcDbPolyline
 90
        2
 70
     1
 43
0.8515984999999999
 10
92.79219948
 20
42.291
 42
1.0
 10
93.64380052
 20
42.291
 42
1.0
  0
LWPOLYLINE
  5
FE
330
1F
100
AcDbEntity
  8
PadHoleLayer
100
AcDbPolyline
 90
        2
 70
     1
 43
0.4499991
 10
92.99299918
 20
42.291
 42
1.0
 10
93.44300082
 20
42.291
 42
1.0
  0
LWPOLYLINE
  5
FF
330
1F
100
AcDbEntity
  8
TopSolder
100
AcDbPolyline
 90
        2
 70
     1
 43
0.8515984999999999
 10
90.25219948
 20
42.291
 42
1.0
 10
91.10380052
 20
42.291
 42
1.0
  0
LWPOLYLINE
  5
100
330
1F
100
AcDbEntity
  8
PadHoleLayer
100
AcDbPolyline
 90
        2
 70
     1
 43
0.4499991
 10
90.45299917999999
 20
42.291
 42
1.0
 10
90.90300081999999
 20
42.291
 42
1.0
  0
LWPOLYLINE
  5
101
330
1F
100
AcDbEntity
  8
TopSolder
100
AcDbPolyline
 90
        2
 70
     1
 43
0.8515984999999999
 10
87.71219948
 20
42.291
 42
1.0
 10
88.56380052
 20
42.291
 42
1.0
  0
LWPOLYLINE
  5
102
330
1F
100
AcDbEntity
  8
PadHoleLayer
100
AcDbPolyline
 90
        2
 70
     1
 43
0.4499991
 10
87.91299918
 20
42.291
 42
1.0
 10
88.36300082
 20
42.291
 42
1.0
  0
LWPOLYLINE
  5
103
330
1F
100
AcDbEntity
  8
TopSolder
100
AcDbPolyline
 90
        2
 70
     1
 43
0.8515984999999999
 10
85.17219947999999
 20
42.291
 42
1.0
 10
86.02380052
 20
42.291
 42
1.0
  0
LWPOLYLINE
  5
104
330
1F
100
AcDbEntity
  8
PadHoleLayer
100
AcDbPolyline
 90
        2
 70
     1
 43
0.4499991
 10
85.37299918
 20
42.291
 42
1.0
 10
85.82300081999999
 20
42.291
 42
1.0
  0
LWPOLYLINE
  5
105
330
1F
100
AcDbEntity
  8
TopSolder
100
AcDbPolyline
 90
        2
 70
     1
 43
0.8515984999999999
 10
82.63219948
 20
42.291
 42
1.0
 10
83.48380051999999
 20
42.291
 42
1.0
  0
LWPOLYLINE
  5
106
330
1F
100
AcDbEntity
  8
PadHoleLayer
100
AcDbPolyline
 90
        2
 70
     1
 43
0.4499991
 10
82.83299918
 20
42.291
 42
1.0
 10
83.28300082
 20
42.291
 42
1.0
  0
LWPOLYLINE
  5
107
330
1F
100
AcDbEntity
  8
TopSolder
100
AcDbPolyline
 90
        2
 70
     1
 43
0.8515984999999999
 10
95.33219948
 20
39.751
 42
1.0
 10
96.18380051999999
 20
39.751
 42
1.0
  0
LWPOLYLINE
  5
108
330
1F
100
AcDbEntity
  8
PadHoleLayer
100
AcDbPolyline
 90
        2
 70
     1
 43
0.4499991
 10
95.53299917999999
 20
39.751
 42
1.0
 10
95.98300082
 20
39.751
 42
1.0
  0
LWPOLYLINE
  5
109
330
1F
100
AcDbEntity
  8
TopSolder
100
AcDbPolyline
 90
        2
 70
     1
 43
0.8515984999999999
 10
92.79219948
 20
39.751
 42
1.0
 10
93.64380052
 20
39.751
 42
1.0
  0
LWPOLYLINE
  5
10A
330
1F
100
AcDbEntity
  8
PadHoleLayer
100
AcDbPolyline
 90
        2
 70
     1
 43
0.4499991
 10
92.99299918
 20
39.751
 42
1.0
 10
93.44300082
 20
39.751
 42
1.0
  0
LWPOLYLINE
  5
10B
330
1F
100
AcDbEntity
  8
TopSolder
100
AcDbPolyline
 90
        2
 70
     1
 43
0.8515984999999999
 10
90.25219948
 20
39.751
 42
1.0
 10
91.10380052
 20
39.751
 42
1.0
  0
LWPOLYLINE
  5
10C
330
1F
100
AcDbEntity
  8
PadHoleLayer
100
AcDbPolyline
 90
        2
 70
     1
 43
0.4499991
 10
90.45299917999999
 20
39.751
 42
1.0
 10
90.90300081999999
 20
39.751
 42
1.0
  0
LWPOLYLINE
  5
10D
330
1F
100
AcDbEntity
  8
TopSolder
100
AcDbPolyline
 90
        2
 70
     1
 43
0.8515984999999999
 10
87.71219948
 20
39.751
 42
1.0
 10
88.56380052
 20
39.751
 42
1.0
  0
LWPOLYLINE
  5
10E
330
1F
100
AcDbEntity
  8
PadHoleLayer
100
AcDbPolyline
 90
        2
 70
     1
 43
0.4499991
 10
87.91299918
 20
39.751
 42
1.0
 10
88.36300082
 20
39.751
 42
1.0
  0
LWPOLYLINE
  5
10F
330
1F
100
AcDbEntity
  8
TopSolder
100
AcDbPolyline
 90
        2
 70
     1
 43
0.8515984999999999
 10
85.17219947999999
 20
39.751
 42
1.0
 10
86.02380052
 20
39.751
 42
1.0
  0
LWPOLYLINE
  5
110
330
1F
100
AcDbEntity
  8
PadHoleLayer
100
AcDbPolyline
 90
        2
 70
     1
 43
0.4499991
 10
85.37299918
 20
39.751
 42
1.0
 10
85.82300081999999
 20
39.751
 42
1.0
  0
SOLID
  5
111
330
1F
100
AcDbEntity
  8
TopSolder
100
AcDbTrace
 10
82.2064015
 20
38.8994015
 30
0.0
 11
83.9095985
 21
38.8994015
 31
0.0
 12
82.2064015
 22
40.6025985
 32
0.0
 13
83.9095985
 23
40.6025985
 33
0.0
  0
LWPOLYLINE
  5
112
330
1F
100
AcDbEntity
  8
PadHoleLayer
100
AcDbPolyline
 90
        2
 70
     1
 43
0.4499991
 10
82.83299918
 20
39.751
 42
1.0
 10
83.28300082
 20
39.751
 42
1.0
  0
SOLID
  5
113
330
1F
100
AcDbEntity
  8
TopSolder
100
AcDbTrace
 10
77.99069999999999
 20
40.1828
 30
0.0
 11
77.99069999999999
 21
38.86199999999999
 31
0.0
 12
79.9973
 22
40.1828
 32
0.0
 13
79.9973
 23
38.86199999999999
 33
0.0
  0
SOLID
  5
114
330
1F
100
AcDbEntity
  8
TopSolder
100
AcDbTrace
 10
77.99069999999999
 20
43.18
 30
0.0
 11
77.99069999999999
 21
41.85919999999999
 31
0.0
 12
79.9973
 22
43.18
 32
0.0
 13
79.9973
 23
41.85919999999999
 33
0.0
  0
LWPOLYLINE
  5
115
330
1F
100
AcDbEntity
  8
TopSolder
100
AcDbPolyline
 90
        2
 70
     1
 43
2.159
 10
59.6265
 20
120.523
 42
1.0
 10
61.7855
 20
120.523
 42
1.0
  0
LWPOLYLINE
  5
116
330
1F
100
AcDbEntity
  8
PadHoleLayer
100
AcDbPolyline
 90
        2
 70
     1
 43
2.0574
 10
59.6773
 20
120.523
 42
1.0
 10
61.7347
 20
120.523
 42
1.0
  0
LWPOLYLINE
  5
117
330
1F
100
AcDbEntity
  8
TopSolder
100
AcDbPolyline
 90
        2
 70
     0
 43
2.2987
 10
79.97824999999999
 20
125.984
 10
82.07374999999999
 20
125.984
  0
LWPOLYLINE
  5
118
330
1F
100
AcDbEntity
  8
TopSolder
100
AcDbPolyline
 90
        2
 70
     1
 43
1.14935
 10
79.40357499999999
 20
125.984
 42
1.0
 10
80.552925
 20
125.984
 42
1.0
  0
LWPOLYLINE
  5
119
330
1F
100
AcDbEntity
  8
TopSolder
100
AcDbPolyline
 90
        2
 70
     1
 43
1.14935
 10
81.49907499999999
 20
125.984
 42
1.0
 10
82.64842499999999
 20
125.984
 42
1.0
  0
LWPOLYLINE
  5
11A
330
1F
100
AcDbEntity
  8
PadHoleLayer
100
AcDbPolyline
 90
        2
 70
     1
 43
0.6985
 10
80.67675
 20
125.984
 42
1.0
 10
81.37525
 20
125.984
 42
1.0
  0
LWPOLYLINE
  5
11B
330
1F
100
AcDbEntity
  8
TopSolder
100
AcDbPolyline
 90
        2
 70
     0
 43
2.2987
 10
79.97824999999999
 20
120.523
 10
82.07374999999999
 20
120.523
  0
LWPOLYLINE
  5
11C
330
1F
100
AcDbEntity
  8
TopSolder
100
AcDbPolyline
 90
        2
 70
     1
 43
1.14935
 10
79.40357499999999
 20
120.523
 42
1.0
 10
80.552925
 20
120.523
 42
1.0
  0
LWPOLYLINE
  5
11D
330
1F
100
AcDbEntity
  8
TopSolder
100
AcDbPolyline
 90
        2
 70
     1
 43
1.14935
 10
81.49907499999999
 20
120.523
 42
1.0
 10
82.64842499999999
 20
120.523
 42
1.0
  0
LWPOLYLINE
  5
11E
330
1F
100
AcDbEntity
  8
PadHoleLayer
100
AcDbPolyline
 90
        2
 70
     1
 43
0.6985
 10
80.67675
 20
120.523
 42
1.0
 10
81.37525
 20
120.523
 42
1.0
  0
LWPOLYLINE
  5
11F
330
1F
100
AcDbEntity
  8
TopSolder
100
AcDbPolyline
 90
        2
 70
     0
 43
2.2987
 10
79.97824999999999
 20
115.062
 10
82.07374999999999
 20
115.062
  0
LWPOLYLINE
  5
120
330
1F
100
AcDbEntity
  8
TopSolder
100
AcDbPolyline
 90
        2
 70
     1
 43
1.14935
 10
79.40357499999999
 20
115.062
 42
1.0
 10
80.552925
 20
115.062
 42
1.0
  0
LWPOLYLINE
  5
121
330
1F
100
AcDbEntity
  8
TopSolder
100
AcDbPolyline
 90
        2
 70
     1
 43
1.14935
 10
81.49907499999999
 20
115.062
 42
1.0
 10
82.64842499999999
 20
115.062
 42
1.0
  0
LWPOLYLINE
  5
122
330
1F
100
AcDbEntity
  8
PadHoleLayer
100
AcDbPolyline
 90
        2
 70
     1
 43
0.6985
 10
80.67675
 20
115.062
 42
1.0
 10
81.37525
 20
115.062
 42
1.0
  0
SOLID
  5
123
330
1F
100
AcDbEntity
  8
TopSolder
100
AcDbTrace
 10
93.1035984
 20
90.10059958
 30
0.0
 11
91.3004016
 21
90.10059958
 31
0.0
 12
93.1035984
 22
86.3974015
 32
0.0
 13
91.3004016
 23
86.3974015
 33
0.0
  0
SOLID
  5
124
330
1F
100
AcDbEntity
  8
TopSolder
100
AcDbTrace
 10
98.1835984
 20
90.10059958
 30
0.0
 11
96.3804016
 21
90.10059958
 31
0.0
 12
98.1835984
 22
86.3974015
 32
0.0
 13
96.3804016
 23
86.3974015
 33
0.0
  0
SOLID
  5
125
330
1F
100
AcDbEntity
  8
TopSolder
100
AcDbTrace
 10
88.54039949999999
 20
82.64059926
 30
0.0
 11
88.54039949999999
 21
72.68740097999999
 31
0.0
 12
100.9436005
 22
82.64059926
 32
0.0
 13
100.9436005
 23
72.68740097999999
 33
0.0
  0
SOLID
  5
126
330
1F
100
AcDbEntity
  8
TopSolder
100
AcDbTrace
 10
91.5964005
 20
52.72859914
 30
0.0
 11
91.5964005
 21
51.52540114
 31
0.0
 12
92.2995995
 22
52.72859914
 32
0.0
 13
92.2995995
 23
51.52540114
 33
0.0
  0
SOLID
  5
127
330
1F
100
AcDbEntity
  8
TopSolder
100
AcDbTrace
 10
91.5964005
 20
50.32859886
 30
0.0
 11
91.5964005
 21
49.12540086
 31
0.0
 12
92.2995995
 22
50.32859886
 32
0.0
 13
92.2995995
 23
49.12540086
 33
0.0
  0
SOLID
  5
128
330
1F
100
AcDbEntity
  8
TopSolder
100
AcDbTrace
 10
77.4825984
 20
30.67240246
 30
0.0
 11
77.4825984
 21
32.37559946
 31
0.0
 12
75.67940159999999
 22
30.67240246
 32
0.0
 13
75.67940159999999
 23
32.37559946
 33
0.0
  0
SOLID
  5
129
330
1F
100
AcDbEntity
  8
TopSolder
100
AcDbTrace
 10
77.4825984
 20
34.17240054
 30
0.0
 11
77.4825984
 21
35.87559754
 31
0.0
 12
75.67940159999999
 22
34.17240054
 32
0.0
 13
75.67940159999999
 23
35.87559754
 33
0.0
  0
SOLID
  5
12A
330
1F
100
AcDbEntity
  8
TopSolder
100
AcDbTrace
 10
59.16759819999999
 20
110.44940064
 30
0.0
 11
59.16759819999999
 21
111.75259844
 31
0.0
 12
57.1644018
 22
110.44940064
 32
0.0
 13
57.1644018
 23
111.75259844
 33
0.0
  0
SOLID
  5
12B
330
1F
100
AcDbEntity
  8
TopSolder
100
AcDbTrace
 10
59.16759819999999
 20
107.44940156
 30
0.0
 11
59.16759819999999
 21
108.75259936
 31
0.0
 12
57.1644018
 22
107.44940156
 32
0.0
 13
57.1644018
 23
108.75259936
 33
0.0
  0
SOLID
  5
12C
330
1F
100
AcDbEntity
  8
TopSolder
100
AcDbTrace
 10
75.01640064
 20
107.4564018
 30
0.0
 11
76.31959844
 21
107.4564018
 31
0.0
 12
75.01640064
 22
109.4595982
 32
0.0
 13
76.31959844
 23
109.4595982
 33
0.0
  0
SOLID
  5
12D
330
1F
100
AcDbEntity
  8
TopSolder
100
AcDbTrace
 10
72.01640155999999
 20
107.4564018
 30
0.0
 11
73.31959936
 21
107.4564018
 31
0.0
 12
72.01640155999999
 22
109.4595982
 32
0.0
 13
73.31959936
 23
109.4595982
 33
0.0
  0
SOLID
  5
12E
330
1F
100
AcDbEntity
  8
TopSolder
100
AcDbTrace
 10
77.28059981999999
 20
71.1055982
 30
0.0
 11
75.97740202
 21
71.1055982
 31
0.0
 12
77.28059981999999
 22
69.1024018
 32
0.0
 13
75.97740202
 23
69.1024018
 33
0.0
  0
SOLID
  5
12F
330
1F
100
AcDbEntity
  8
TopSolder
100
AcDbTrace
 10
80.2805989
 20
71.1055982
 30
0.0
 11
78.9774011
 21
71.1055982
 31
0.0
 12
80.2805989
 22
69.1024018
 32
0.0
 13
78.9774011
 23
69.1024018
 33
0.0
  0
SOLID
  5
130
330
1F
100
AcDbEntity
  8
TopSolder
100
AcDbTrace
 10
86.18439964
 20
48.6204006
 30
0.0
 11
87.49559844
 21
48.6204006
 31
0.0
 12
86.18439964
 22
49.9315994
 32
0.0
 13
87.49559844
 23
49.9315994
 33
0.0
  0
LWPOLYLINE
  5
131
330
1F
100
AcDbEntity
  8
PadHoleLayer
100
AcDbPolyline
 90
        2
 70
     1
 43
0.2999994
 10
86.68999934
 20
49.276
 42
1.0
 10
86.98999873999999
 20
49.276
 42
1.0
  0
LWPOLYLINE
  5
132
330
1F
100
AcDbEntity
  8
TopSolder
100
AcDbPolyline
 90
        2
 70
     1
 43
0.4015994
 10
83.13920126
 20
49.276
 42
1.0
 10
83.54080066
 20
49.276
 42
1.0
  0
LWPOLYLINE
  5
133
330
1F
100
AcDbEntity
  8
PadHoleLayer
100
AcDbPolyline
 90
        2
 70
     1
 43
0.2999994
 10
83.19000125999999
 20
49.276
 42
1.0
 10
83.49000065999999
 20
49.276
 42
1.0
  0
SOLID
  5
134
330
1F
100
AcDbEntity
  8
TopSolder
100
AcDbTrace
 10
57.76489844
 20
103.8154007
 30
0.0
 11
59.4930992
 21
103.8154007
 31
0.0
 12
57.76489844
 22
104.7185993
 32
0.0
 13
59.4930992
 23
104.7185993
 33
0.0
  0
SOLID
  5
135
330
1F
100
AcDbEntity
  8
TopSolder
100
AcDbTrace
 10
57.76489844
 20
102.5454007
 30
0.0
 11
59.4930992
 21
102.5454007
 31
0.0
 12
57.76489844
 22
103.4485993
 32
0.0
 13
59.4930992
 23
103.4485993
 33
0.0
  0
SOLID
  5
136
330
1F
100
AcDbEntity
  8
TopSolder
100
AcDbTrace
 10
57.76489844
 20
101.2754007
 30
0.0
 11
59.4930992
 21
101.2754007
 31
0.0
 12
57.76489844
 22
102.1785993
 32
0.0
 13
59.4930992
 23
102.1785993
 33
0.0
  0
SOLID
  5
137
330
1F
100
AcDbEntity
  8
TopSolder
100
AcDbTrace
 10
57.76489844
 20
100.0054007
 30
0.0
 11
59.4930992
 21
100.0054007
 31
0.0
 12
57.76489844
 22
100.9085993
 32
0.0
 13
59.4930992
 23
100.9085993
 33
0.0
  0
SOLID
  5
138
330
1F
100
AcDbEntity
  8
TopSolder
100
AcDbTrace
 10
63.1889008
 20
100.0054007
 30
0.0
 11
64.91710155999999
 21
100.0054007
 31
0.0
 12
63.1889008
 22
100.9085993
 32
0.0
 13
64.91710155999999
 23
100.9085993
 33
0.0
  0
SOLID
  5
139
330
1F
100
AcDbEntity
  8
TopSolder
100
AcDbTrace
 10
63.1889008
 20
101.2754007
 30
0.0
 11
64.91710155999999
 21
101.2754007
 31
0.0
 12
63.1889008
 22
102.1785993
 32
0.0
 13
64.91710155999999
 23
102.1785993
 33
0.0
  0
SOLID
  5
13A
330
1F
100
AcDbEntity
  8
TopSolder
100
AcDbTrace
 10
63.1889008
 20
102.5454007
 30
0.0
 11
64.91710155999999
 21
102.5454007
 31
0.0
 12
63.1889008
 22
103.4485993
 32
0.0
 13
64.91710155999999
 23
103.4485993
 33
0.0
  0
SOLID
  5
13B
330
1F
100
AcDbEntity
  8
TopSolder
100
AcDbTrace
 10
63.1889008
 20
103.8154007
 30
0.0
 11
64.91710155999999
 21
103.8154007
 31
0.0
 12
63.1889008
 22
104.7185993
 32
0.0
 13
64.91710155999999
 23
104.7185993
 33
0.0
  0
SOLID
  5
13C
330
1F
100
AcDbEntity
  8
TopSolder
100
AcDbTrace
 10
70.59189844
 20
103.5614007
 30
0.0
 11
72.3200992
 21
103.5614007
 31
0.0
 12
70.59189844
 22
104.4645993
 32
0.0
 13
72.3200992
 23
104.4645993
 33
0.0
  0
SOLID
  5
13D
330
1F
100
AcDbEntity
  8
TopSolder
100
AcDbTrace
 10
70.59189844
 20
102.2914007
 30
0.0
 11
72.3200992
 21
102.2914007
 31
0.0
 12
70.59189844
 22
103.1945993
 32
0.0
 13
72.3200992
 23
103.1945993
 33
0.0
  0
SOLID
  5
13E
330
1F
100
AcDbEntity
  8
TopSolder
100
AcDbTrace
 10
70.59189844
 20
101.0214007
 30
0.0
 11
72.3200992
 21
101.0214007
 31
0.0
 12
70.59189844
 22
101.9245993
 32
0.0
 13
72.3200992
 23
101.9245993
 33
0.0
  0
SOLID
  5
13F
330
1F
100
AcDbEntity
  8
TopSolder
100
AcDbTrace
 10
70.59189844
 20
99.75140069999999
 30
0.0
 11
72.3200992
 21
99.75140069999999
 31
0.0
 12
70.59189844
 22
100.6545993
 32
0.0
 13
72.3200992
 23
100.6545993
 33
0.0
  0
SOLID
  5
140
330
1F
100
AcDbEntity
  8
TopSolder
100
AcDbTrace
 10
76.0159008
 20
99.75140069999999
 30
0.0
 11
77.74410155999999
 21
99.75140069999999
 31
0.0
 12
76.0159008
 22
100.6545993
 32
0.0
 13
77.74410155999999
 23
100.6545993
 33
0.0
  0
SOLID
  5
141
330
1F
100
AcDbEntity
  8
TopSolder
100
AcDbTrace
 10
76.0159008
 20
101.0214007
 30
0.0
 11
77.74410155999999
 21
101.0214007
 31
0.0
 12
76.0159008
 22
101.9245993
 32
0.0
 13
77.74410155999999
 23
101.9245993
 33
0.0
  0
SOLID
  5
142
330
1F
100
AcDbEntity
  8
TopSolder
100
AcDbTrace
 10
76.0159008
 20
102.2914007
 30
0.0
 11
77.74410155999999
 21
102.2914007
 31
0.0
 12
76.0159008
 22
103.1945993
 32
0.0
 13
77.74410155999999
 23
103.1945993
 33
0.0
  0
SOLID
  5
143
330
1F
100
AcDbEntity
  8
TopSolder
100
AcDbTrace
 10
76.0159008
 20
103.5614007
 30
0.0
 11
77.74410155999999
 21
103.5614007
 31
0.0
 12
76.0159008
 22
104.4645993
 32
0.0
 13
77.74410155999999
 23
104.4645993
 33
0.0
  0
SOLID
  5
144
330
1F
100
AcDbEntity
  8
TopSolder
100
AcDbTrace
 10
83.67289844
 20
68.76340069999999
 30
0.0
 11
85.40109919999999
 21
68.76340069999999
 31
0.0
 12
83.67289844
 22
69.6665993
 32
0.0
 13
85.40109919999999
 23
69.6665993
 33
0.0
  0
SOLID
  5
145
330
1F
100
AcDbEntity
  8
TopSolder
100
AcDbTrace
 10
83.67289844
 20
67.4934007
 30
0.0
 11
85.40109919999999
 21
67.4934007
 31
0.0
 12
83.67289844
 22
68.39659929999999
 32
0.0
 13
85.40109919999999
 23
68.39659929999999
 33
0.0
  0
SOLID
  5
146
330
1F
100
AcDbEntity
  8
TopSolder
100
AcDbTrace
 10
83.67289844
 20
66.2234007
 30
0.0
 11
85.40109919999999
 21
66.2234007
 31
0.0
 12
83.67289844
 22
67.1265993
 32
0.0
 13
85.40109919999999
 23
67.1265993
 33
0.0
  0
SOLID
  5
147
330
1F
100
AcDbEntity
  8
TopSolder
100
AcDbTrace
 10
83.67289844
 20
64.9534007
 30
0.0
 11
85.40109919999999
 21
64.9534007
 31
0.0
 12
83.67289844
 22
65.8565993
 32
0.0
 13
85.40109919999999
 23
65.8565993
 33
0.0
  0
SOLID
  5
148
330
1F
100
AcDbEntity
  8
TopSolder
100
AcDbTrace
 10
89.0969008
 20
64.9534007
 30
0.0
 11
90.82510156
 21
64.9534007
 31
0.0
 12
89.0969008
 22
65.8565993
 32
0.0
 13
90.82510156
 23
65.8565993
 33
0.0
  0
SOLID
  5
149
330
1F
100
AcDbEntity
  8
TopSolder
100
AcDbTrace
 10
89.0969008
 20
66.2234007
 30
0.0
 11
90.82510156
 21
66.2234007
 31
0.0
 12
89.0969008
 22
67.1265993
 32
0.0
 13
90.82510156
 23
67.1265993
 33
0.0
  0
SOLID
  5
14A
330
1F
100
AcDbEntity
  8
TopSolder
100
AcDbTrace
 10
89.0969008
 20
67.4934007
 30
0.0
 11
90.82510156
 21
67.4934007
 31
0.0
 12
89.0969008
 22
68.39659929999999
 32
0.0
 13
90.82510156
 23
68.39659929999999
 33
0.0
  0
SOLID
  5
14B
330
1F
100
AcDbEntity
  8
TopSolder
100
AcDbTrace
 10
89.0969008
 20
68.76340069999999
 30
0.0
 11
90.82510156
 21
68.76340069999999
 31
0.0
 12
89.0969008
 22
69.6665993
 32
0.0
 13
90.82510156
 23
69.6665993
 33
0.0
  0
ENDSEC
  0
SECTION
  2
OBJECTS
  0
DICTIONARY
  5
C
330
0
100
AcDbDictionary
281
     1
  3
ACAD_DETAILVIEWSTYLE
350
150
  3
ACAD_GROUP
350
D
  3
ACAD_LAYOUT
350
1A
  3
ACAD_MATERIAL
350
43
  3
ACAD_MLEADERSTYLE
350
14F
  3
ACAD_MLINESTYLE
350
17
  3
ACAD_PLOTSETTINGS
350
19
  3
ACAD_PLOTSTYLENAME
350
E
  3
ACAD_SCALELIST
350
47
  3
ACAD_SECTIONVIEWSTYLE
350
151
  3
ACAD_TABLESTYLE
350
14E
  3
ACAD_VISUALSTYLE
350
2A
  3
AcDbVariableDictionary
350
14C
  0
SUN
  5
69
330
29
100
AcDbSun
 90
        1
290
     0
 63
     7
421
 16777215
 40
1.0
291
     1
 91
  2455826
 92
 54000000
292
     0
 70
     2
 71
   256
280
     1
  0
DICTIONARY
  5
150
102
{ACAD_REACTORS
330
C
102
}
330
C
100
AcDbDictionary
281
     1
  0
DICTIONARY
  5
D
102
{ACAD_REACTORS
330
C
102
}
330
C
100
AcDbDictionary
281
     1
  0
DICTIONARY
  5
1A
102
{ACAD_REACTORS
330
C
102
}
330
C
100
AcDbDictionary
281
     1
  3
Layout1
350
1E
  3
Layout2
350
26
  3
Model
350
22
  0
DICTIONARY
  5
43
102
{ACAD_REACTORS
330
C
102
}
330
C
100
AcDbDictionary
281
     1
  3
ByBlock
350
45
  3
ByLayer
350
44
  3
Global
350
46
  0
DICTIONARY
  5
14F
102
{ACAD_REACTORS
330
C
102
}
330
C
100
AcDbDictionary
281
     1
  0
DICTIONARY
  5
17
102
{ACAD_REACTORS
330
C
102
}
330
C
100
AcDbDictionary
281
     1
  3
Standard
350
18
  0
DICTIONARY
  5
19
102
{ACAD_REACTORS
330
C
102
}
330
C
100
AcDbDictionary
281
     1
  0
ACDBDICTIONARYWDFLT
  5
E
102
{ACAD_REACTORS
330
C
102
}
330
C
100
AcDbDictionary
281
     1
  3
Normal
350
F
100
AcDbDictionaryWithDefault
340
F
  0
DICTIONARY
  5
47
102
{ACAD_REACTORS
330
C
102
}
330
C
100
AcDbDictionary
281
     1
  3
A0
350
48
  3
A1
350
49
  3
A2
350
4A
  3
A3
350
4B
  3
A4
350
4C
  3
A5
350
4D
  3
A6
350
4E
  3
A7
350
4F
  3
A8
350
50
  3
A9
350
51
  3
B0
350
52
  3
B1
350
53
  3
B2
350
54
  3
B3
350
55
  3
B4
350
56
  3
B5
350
57
  3
B6
350
58
  3
B7
350
59
  3
B8
350
5A
  3
B9
350
5B
  3
C0
350
5C
  3
C1
350
5D
  3
C2
350
5E
  3
C3
350
5F
  3
C4
350
60
  3
C5
350
61
  3
C6
350
62
  3
C7
350
63
  3
C8
350
64
  3
C9
350
65
  3
D0
350
66
  3
D1
350
67
  3
D2
350
68
  0
DICTIONARY
  5
151
102
{ACAD_REACTORS
330
C
102
}
330
C
100
AcDbDictionary
281
     1
  0
DICTIONARY
  5
14E
102
{ACAD_REACTORS
330
C
102
}
330
C
100
AcDbDictionary
281
     1
  0
DICTIONARY
  5
2A
102
{ACAD_REACTORS
330
C
102
}
330
C
100
AcDbDictionary
281
     1
  3
2dWireframe
350
2F
  3
Basic
350
32
  3
Brighten
350
36
  3
ColorChange
350
3A
  3
Conceptual
350
34
  3
Dim
350
35
  3
EdgeColorOff
350
3D
  3
Facepattern
350
39
  3
Flat
350
2B
  3
FlatWithEdges
350
2C
  3
Gouraud
350
2D
  3
GouraudWithEdges
350
2E
  3
Hidden
350
31
  3
JitterOff
350
3B
  3
Linepattern
350
38
  3
OverhangOff
350
3C
  3
Realistic
350
33
  3
Shaded
350
42
  3
Shaded with edges
350
41
  3
Shades of Gray
350
3E
  3
Sketchy
350
3F
  3
Thicken
350
37
  3
Wireframe
350
30
  3
X-Ray
350
40
  0
DICTIONARY
  5
14C
102
{ACAD_REACTORS
330
C
102
}
330
C
100
AcDbDictionary
281
     1
  3
CANNOSCALE
350
14D
  0
LAYOUT
  5
1E
102
{ACAD_REACTORS
330
1A
102
}
330
1A
100
AcDbPlotSettings
  1

  2
none_device
  4

  6

 40
0.0
 41
0.0
 42
0.0
 43
0.0
 44
0.0
 45
0.0
 46
0.0
 47
0.0
 48
0.0
 49
0.0
140
0.0
141
0.0
142
1.0
143
1.0
 70
   688
 72
     1
 73
     0
 74
     5
  7

 75
    16
 76
     0
 77
     2
 78
   300
147
1.0
148
0.0
149
0.0
100
AcDbLayout
  1
Layout1
 70
     1
 71
     1
 10
0.0
 20
0.0
 11
420.0
 21
297.0
 12
0.0
 22
0.0
 32
0.0
 14
1.000000000000000E+20
 24
1.000000000000000E+20
 34
1.000000000000000E+20
 15
-1.000000000000000E+20
 25
-1.000000000000000E+20
 35
-1.000000000000000E+20
146
0.0
 13
0.0
 23
0.0
 33
0.0
 16
1.0
 26
0.0
 36
0.0
 17
0.0
 27
1.0
 37
0.0
 76
     0
330
1B
  0
LAYOUT
  5
26
102
{ACAD_REACTORS
330
1A
102
}
330
1A
100
AcDbPlotSettings
  1

  2
none_device
  4

  6

 40
0.0
 41
0.0
 42
0.0
 43
0.0
 44
0.0
 45
0.0
 46
0.0
 47
0.0
 48
0.0
 49
0.0
140
0.0
141
0.0
142
1.0
143
1.0
 70
   688
 72
     1
 73
     0
 74
     5
  7

 75
    16
 76
     0
 77
     2
 78
   300
147
1.0
148
0.0
149
0.0
100
AcDbLayout
  1
Layout2
 70
     1
 71
     2
 10
0.0
 20
0.0
 11
0.0
 21
0.0
 12
0.0
 22
0.0
 32
0.0
 14
0.0
 24
0.0
 34
0.0
 15
0.0
 25
0.0
 35
0.0
146
0.0
 13
0.0
 23
0.0
 33
0.0
 16
1.0
 26
0.0
 36
0.0
 17
0.0
 27
1.0
 37
0.0
 76
     0
330
23
  0
LAYOUT
  5
22
102
{ACAD_REACTORS
330
1A
102
}
330
1A
100
AcDbPlotSettings
  1

  2
none_device
  4
Letter_(8.50_x_11.00_Inches)
  6

 40
6.35
 41
6.35
 42
6.35000508
 43
6.35000508
 44
215.9
 45
279.4
 46
0.0
 47
0.0
 48
0.0
 49
0.0
140
0.0
141
0.0
142
1.0
143
1.0
 70
  1712
 72
     1
 73
     0
 74
     0
  7

 75
     0
 76
     0
 77
     2
 78
   300
147
1.0
148
0.0
149
0.0
100
AcDbLayout
  1
Model
 70
     1
 71
     0
 10
3.2131
 20
29.20996952
 11
224.56983026
 21
202.57720724
 12
0.0
 22
0.0
 32
0.0
 14
1.000000000000000E+20
 24
1.000000000000000E+20
 34
1.000000000000000E+20
 15
-1.000000000000000E+20
 25
-1.000000000000000E+20
 35
-1.000000000000000E+20
146
0.0
 13
0.0
 23
0.0
 33
0.0
 16
1.0
 26
0.0
 36
0.0
 17
0.0
 27
1.0
 37
0.0
 76
     0
330
1F
331
29
  0
MATERIAL
  5
45
102
{ACAD_REACTORS
330
43
102
}
330
43
100
AcDbMaterial
  1
ByBlock
 72
     1
 94
      127
  0
MATERIAL
  5
44
102
{ACAD_REACTORS
330
43
102
}
330
43
100
AcDbMaterial
  1
ByLayer
 72
     1
 94
      127
  0
MATERIAL
  5
46
102
{ACAD_REACTORS
330
43
102
}
330
43
100
AcDbMaterial
  1
Global
 72
     1
 94
      127
  0
MLINESTYLE
  5
18
102
{ACAD_REACTORS
330
17
102
}
330
17
100
AcDbMlineStyle
  2
Standard
 70
     0
  3

 62
   256
 51
90.0
 52
90.0
 71
     2
 49
0.5
 62
   256
  6
BYLAYER
 49
-0.5
 62
   256
  6
BYLAYER
  0
ACDBPLACEHOLDER
  5
F
102
{ACAD_REACTORS
330
E
102
}
330
E
  0
SCALE
  5
48
102
{ACAD_REACTORS
330
47
102
}
330
47
100
AcDbScale
 70
     0
300
1:1
140
1.0
141
1.0
290
     1
  0
SCALE
  5
49
102
{ACAD_REACTORS
330
47
102
}
330
47
100
AcDbScale
 70
     0
300
1:2
140
1.0
141
2.0
290
     0
  0
SCALE
  5
4A
102
{ACAD_REACTORS
330
47
102
}
330
47
100
AcDbScale
 70
     0
300
1:4
140
1.0
141
4.0
290
     0
  0
SCALE
  5
4B
102
{ACAD_REACTORS
330
47
102
}
330
47
100
AcDbScale
 70
     0
300
1:5
140
1.0
141
5.0
290
     0
  0
SCALE
  5
4C
102
{ACAD_REACTORS
330
47
102
}
330
47
100
AcDbScale
 70
     0
300
1:8
140
1.0
141
8.0
290
     0
  0
SCALE
  5
4D
102
{ACAD_REACTORS
330
47
102
}
330
47
100
AcDbScale
 70
     0
300
1:10
140
1.0
141
10.0
290
     0
  0
SCALE
  5
4E
102
{ACAD_REACTORS
330
47
102
}
330
47
100
AcDbScale
 70
     0
300
1:16
140
1.0
141
16.0
290
     0
  0
SCALE
  5
4F
102
{ACAD_REACTORS
330
47
102
}
330
47
100
AcDbScale
 70
     0
300
1:20
140
1.0
141
20.0
290
     0
  0
SCALE
  5
50
102
{ACAD_REACTORS
330
47
102
}
330
47
100
AcDbScale
 70
     0
300
1:30
140
1.0
141
30.0
290
     0
  0
SCALE
  5
51
102
{ACAD_REACTORS
330
47
102
}
330
47
100
AcDbScale
 70
     0
300
1:40
140
1.0
141
40.0
290
     0
  0
SCALE
  5
52
102
{ACAD_REACTORS
330
47
102
}
330
47
100
AcDbScale
 70
     0
300
1:50
140
1.0
141
50.0
290
     0
  0
SCALE
  5
53
102
{ACAD_REACTORS
330
47
102
}
330
47
100
AcDbScale
 70
     0
300
1:100
140
1.0
141
100.0
290
     0
  0
SCALE
  5
54
102
{ACAD_REACTORS
330
47
102
}
330
47
100
AcDbScale
 70
     0
300
2:1
140
2.0
141
1.0
290
     0
  0
SCALE
  5
55
102
{ACAD_REACTORS
330
47
102
}
330
47
100
AcDbScale
 70
     0
300
4:1
140
4.0
141
1.0
290
     0
  0
SCALE
  5
56
102
{ACAD_REACTORS
330
47
102
}
330
47
100
AcDbScale
 70
     0
300
8:1
140
8.0
141
1.0
290
     0
  0
SCALE
  5
57
102
{ACAD_REACTORS
330
47
102
}
330
47
100
AcDbScale
 70
     0
300
10:1
140
10.0
141
1.0
290
     0
  0
SCALE
  5
58
102
{ACAD_REACTORS
330
47
102
}
330
47
100
AcDbScale
 70
     0
300
100:1
140
100.0
141
1.0
290
     0
  0
SCALE
  5
59
102
{ACAD_REACTORS
330
47
102
}
330
47
100
AcDbScale
 70
     0
300
1/128" = 1'-0"
140
0.0078125
141
12.0
290
     0
  0
SCALE
  5
5A
102
{ACAD_REACTORS
330
47
102
}
330
47
100
AcDbScale
 70
     0
300
1/64" = 1'-0"
140
0.015625
141
12.0
290
     0
  0
SCALE
  5
5B
102
{ACAD_REACTORS
330
47
102
}
330
47
100
AcDbScale
 70
     0
300
1/32" = 1'-0"
140
0.03125
141
12.0
290
     0
  0
SCALE
  5
5C
102
{ACAD_REACTORS
330
47
102
}
330
47
100
AcDbScale
 70
     0
300
1/16" = 1'-0"
140
0.0625
141
12.0
290
     0
  0
SCALE
  5
5D
102
{ACAD_REACTORS
330
47
102
}
330
47
100
AcDbScale
 70
     0
300
3/32" = 1'-0"
140
0.09375
141
12.0
290
     0
  0
SCALE
  5
5E
102
{ACAD_REACTORS
330
47
102
}
330
47
100
AcDbScale
 70
     0
300
1/8" = 1'-0"
140
0.125
141
12.0
290
     0
  0
SCALE
  5
5F
102
{ACAD_REACTORS
330
47
102
}
330
47
100
AcDbScale
 70
     0
300
3/16" = 1'-0"
140
0.1875
141
12.0
290
     0
  0
SCALE
  5
60
102
{ACAD_REACTORS
330
47
102
}
330
47
100
AcDbScale
 70
     0
300
1/4" = 1'-0"
140
0.25
141
12.0
290
     0
  0
SCALE
  5
61
102
{ACAD_REACTORS
330
47
102
}
330
47
100
AcDbScale
 70
     0
300
3/8" = 1'-0"
140
0.375
141
12.0
290
     0
  0
SCALE
  5
62
102
{ACAD_REACTORS
330
47
102
}
330
47
100
AcDbScale
 70
     0
300
1/2" = 1'-0"
140
0.5
141
12.0
290
     0
  0
SCALE
  5
63
102
{ACAD_REACTORS
330
47
102
}
330
47
100
AcDbScale
 70
     0
300
3/4" = 1'-0"
140
0.75
141
12.0
290
     0
  0
SCALE
  5
64
102
{ACAD_REACTORS
330
47
102
}
330
47
100
AcDbScale
 70
     0
300
1" = 1'-0"
140
1.0
141
12.0
290
     0
  0
SCALE
  5
65
102
{ACAD_REACTORS
330
47
102
}
330
47
100
AcDbScale
 70
     0
300
1-1/2" = 1'-0"
140
1.5
141
12.0
290
     0
  0
SCALE
  5
66
102
{ACAD_REACTORS
330
47
102
}
330
47
100
AcDbScale
 70
     0
300
3" = 1'-0"
140
3.0
141
12.0
290
     0
  0
SCALE
  5
67
102
{ACAD_REACTORS
330
47
102
}
330
47
100
AcDbScale
 70
     0
300
6" = 1'-0"
140
6.0
141
12.0
290
     0
  0
SCALE
  5
68
102
{ACAD_REACTORS
330
47
102
}
330
47
100
AcDbScale
 70
     0
300
1'-0" = 1'-0"
140
12.0
141
12.0
290
     0
  0
VISUALSTYLE
  5
2F
102
{ACAD_REACTORS
330
2A
102
}
330
2A
100
AcDbVisualStyle
  2
2dWireframe
 70
     4
177
     3
291
     0
 70
    58
 90
        0
176
     1
 90
        2
176
     1
 90
        0
176
     1
 90
        0
176
     1
 40
0.6
176
     1
 40
30.0
176
     1
 62
     7
420
 16777215
176
     1
 90
        1
176
     1
 90
        4
176
     1
 62
     7
176
     1
 62
   257
176
     1
 90
        1
176
     1
 90
        1
176
     1
 40
1.0
176
     1
 90
        0
176
     1
 62
   257
176
     1
 40
1.0
176
     1
 90
        1
176
     1
 90
        6
176
     1
 90
        2
176
     1
 62
     7
176
     1
 90
        5
176
     1
 90
        0
176
     1
 90
        0
176
     1
290
     0
176
     1
 90
        1
176
     1
 40
0.0
176
     1
 90
        0
176
     1
290
     1
176
     1
290
     1
176
     1
290
     0
176
     1
290
     0
176
     1
290
     0
176
     1
290
     0
176
     1
290
     0
176
     1
290
     0
176
     1
290
     0
176
     1
 90
       50
176
     1
 40
0.0
176
     1
 40
1.0
176
     1
 90
        0
176
     1
 62
    18
420
        0
176
     1
 90
       50
176
     1
 90
        3
176
     1
 62
     5
420
      255
176
     1
290
     0
176
     1
 90
       50
176
     1
 90
       50
176
     1
 90
       50
176
     1
290
     0
176
     1
 90
       50
176
     1
 62
   256
176
     0
 40
1.0
176
     0
 90
        2
176
     1
  1
strokes_ogs.tif
176
     1
290
     0
176
     1
 40
1.0
176
     1
 40
1.0
176
     1
  0
VISUALSTYLE
  5
32
102
{ACAD_REACTORS
330
2A
102
}
330
2A
100
AcDbVisualStyle
  2
Basic
 70
     7
177
     3
291
     1
 70
    58
 90
        1
176
     1
 90
        0
176
     1
 90
        1
176
     1
 90
        0
176
     1
 40
0.6
176
     1
 40
30.0
176
     1
 62
     7
420
 16777215
176
     1
 90
        0
176
     1
 90
        4
176
     1
 62
     7
176
     1
 62
   257
176
     1
 90
        1
176
     1
 90
        1
176
     1
 40
1.0
176
     1
 90
        8
176
     1
 62
     7
176
     1
 40
1.0
176
     1
 90
        1
176
     1
 90
        6
176
     1
 90
        2
176
     1
 62
     7
176
     1
 90
        5
176
     1
 90
        0
176
     1
 90
        0
176
     1
290
     0
176
     1
 90
        1
176
     1
 40
0.0
176
     1
 90
        0
176
     1
290
     0
176
     1
290
     1
176
     1
290
     1
176
     1
290
     0
176
     1
290
     0
176
     1
290
     0
176
     1
290
     0
176
     1
290
     0
176
     1
290
     0
176
     1
 90
       50
176
     1
 40
0.0
176
     1
 40
1.0
176
     1
 90
        0
176
     1
 62
    18
420
        0
176
     1
 90
       50
176
     1
 90
        3
176
     1
 62
     5
420
      255
176
     1
290
     0
176
     1
 90
       50
176
     1
 90
       50
176
     1
 90
       50
176
     1
290
     0
176
     1
 90
       50
176
     1
 62
   256
176
     0
 40
1.0
176
     0
 90
        2
176
     1
  1
strokes_ogs.tif
176
     1
290
     0
176
     1
 40
1.0
176
     1
 40
1.0
176
     1
  0
VISUALSTYLE
  5
36
102
{ACAD_REACTORS
330
2A
102
}
330
2A
100
AcDbVisualStyle
  2
Brighten
 70
    12
177
     3
291
     1
 70
    58
 90
        2
176
     1
 90
        2
176
     1
 90
        0
176
     1
 90
        0
176
     1
 40
0.6
176
     1
 40
30.0
176
     1
 62
     7
420
 16777215
176
     1
 90
        1
176
     1
 90
        4
176
     1
 62
     7
176
     1
 62
   257
176
     1
 90
        1
176
     1
 90
        1
176
     1
 40
1.0
176
     1
 90
        8
176
     1
 62
     7
176
     1
 40
1.0
176
     1
 90
        1
176
     1
 90
        6
176
     1
 90
        2
176
     1
 62
     7
176
     1
 90
        5
176
     1
 90
        0
176
     1
 90
        0
176
     1
290
     0
176
     1
 90
        1
176
     1
 40
50.0
176
     1
 90
        0
176
     1
290
     0
176
     1
290
     1
176
     1
290
     1
176
     1
290
     0
176
     1
290
     0
176
     1
290
     0
176
     1
290
     0
176
     1
290
     0
176
     1
290
     0
176
     1
 90
       50
176
     1
 40
0.0
176
     1
 40
1.0
176
     1
 90
        0
176
     1
 62
    18
420
        0
176
     1
 90
       50
176
     1
 90
        3
176
     1
 62
     5
420
      255
176
     1
290
     0
176
     1
 90
       50
176
     1
 90
       50
176
     1
 90
       50
176
     1
290
     0
176
     1
 90
       50
176
     1
 62
   256
176
     0
 40
1.0
176
     0
 90
        2
176
     1
  1
strokes_ogs.tif
176
     1
290
     0
176
     1
 40
1.0
176
     1
 40
1.0
176
     1
  0
VISUALSTYLE
  5
3A
102
{ACAD_REACTORS
330
2A
102
}
330
2A
100
AcDbVisualStyle
  2
ColorChange
 70
    16
177
     3
291
     1
 70
    58
 90
        2
176
     1
 90
        2
176
     1
 90
        3
176
     1
 90
        0
176
     1
 40
0.6
176
     1
 40
30.0
176
     1
 62
     8
420
  8421504
176
     1
 90
        1
176
     1
 90
        4
176
     1
 62
     7
176
     1
 62
   257
176
     1
 90
        1
176
     1
 90
        1
176
     1
 40
1.0
176
     1
 90
        8
176
     1
 62
     8
420
  8421504
176
     1
 40
1.0
176
     1
 90
        1
176
     1
 90
        6
176
     1
 90
        2
176
     1
 62
     7
176
     1
 90
        5
176
     1
 90
        0
176
     1
 90
        0
176
     1
290
     0
176
     1
 90
        1
176
     1
 40
0.0
176
     1
 90
        0
176
     1
290
     0
176
     1
290
     1
176
     1
290
     1
176
     1
290
     0
176
     1
290
     0
176
     1
290
     0
176
     1
290
     0
176
     1
290
     0
176
     1
290
     0
176
     1
 90
       50
176
     1
 40
0.0
176
     1
 40
1.0
176
     1
 90
        0
176
     1
 62
    18
420
        0
176
     1
 90
       50
176
     1
 90
        3
176
     1
 62
     5
420
      255
176
     1
290
     0
176
     1
 90
       50
176
     1
 90
       50
176
     1
 90
       50
176
     1
290
     0
176
     1
 90
       50
176
     1
 62
   256
176
     0
 40
1.0
176
     0
 90
        2
176
     1
  1
strokes_ogs.tif
176
     1
290
     0
176
     1
 40
1.0
176
     1
 40
1.0
176
     1
  0
VISUALSTYLE
  5
34
102
{ACAD_REACTORS
330
2A
102
}
330
2A
100
AcDbVisualStyle
  2
Conceptual
 70
     9
177
     3
291
     0
 70
    58
 90
        3
176
     1
 90
        2
176
     1
 90
        0
176
     1
 90
        0
176
     1
 40
0.6
176
     1
 40
30.0
176
     1
 62
     7
420
 16777215
176
     1
 90
        2
176
     1
 90
        2
176
     1
 62
     7
176
     1
 62
   257
176
     1
 90
        1
176
     1
 90
        1
176
     1
 40
179.0
176
     1
 90
        8
176
     1
 62
     7
176
     1
 40
1.0
176
     1
 90
        1
176
     1
 90
        6
176
     1
 90
        2
176
     1
 62
     7
176
     1
 90
        3
176
     1
 90
        0
176
     1
 90
        0
176
     1
290
     0
176
     1
 90
        1
176
     1
 40
0.0
176
     1
 90
        0
176
     1
290
     0
176
     1
290
     1
176
     1
290
     1
176
     1
290
     0
176
     1
290
     0
176
     1
290
     0
176
     1
290
     0
176
     1
290
     0
176
     1
290
     0
176
     1
 90
       50
176
     1
 40
0.0
176
     1
 40
1.0
176
     1
 90
        0
176
     1
 62
    18
420
        0
176
     1
 90
       50
176
     1
 90
        3
176
     1
 62
     5
420
      255
176
     1
290
     0
176
     1
 90
       50
176
     1
 90
       50
176
     1
 90
       50
176
     1
290
     0
176
     1
 90
       50
176
     1
 62
   256
176
     0
 40
1.0
176
     0
 90
        2
176
     1
  1
strokes_ogs.tif
176
     1
290
     0
176
     1
 40
1.0
176
     1
 40
1.0
176
     1
  0
VISUALSTYLE
  5
35
102
{ACAD_REACTORS
330
2A
102
}
330
2A
100
AcDbVisualStyle
  2
Dim
 70
    11
177
     3
291
     1
 70
    58
 90
        2
176
     1
 90
        2
176
     1
 90
        0
176
     1
 90
        0
176
     1
 40
0.6
176
     1
 40
30.0
176
     1
 62
     7
420
 16777215
176
     1
 90
        1
176
     1
 90
        4
176
     1
 62
     7
176
     1
 62
   257
176
     1
 90
        1
176
     1
 90
        1
176
     1
 40
1.0
176
     1
 90
        8
176
     1
 62
     7
176
     1
 40
1.0
176
     1
 90
        1
176
     1
 90
        6
176
     1
 90
        2
176
     1
 62
     7
176
     1
 90
        5
176
     1
 90
        0
176
     1
 90
        0
176
     1
290
     0
176
     1
 90
        1
176
     1
 40
-50.0
176
     1
 90
        0
176
     1
290
     0
176
     1
290
     1
176
     1
290
     1
176
     1
290
     0
176
     1
290
     0
176
     1
290
     0
176
     1
290
     0
176
     1
290
     0
176
     1
290
     0
176
     1
 90
       50
176
     1
 40
0.0
176
     1
 40
1.0
176
     1
 90
        0
176
     1
 62
    18
420
        0
176
     1
 90
       50
176
     1
 90
        3
176
     1
 62
     5
420
      255
176
     1
290
     0
176
     1
 90
       50
176
     1
 90
       50
176
     1
 90
       50
176
     1
290
     0
176
     1
 90
       50
176
     1
 62
   256
176
     0
 40
1.0
176
     0
 90
        2
176
     1
  1
strokes_ogs.tif
176
     1
290
     0
176
     1
 40
1.0
176
     1
 40
1.0
176
     1
  0
VISUALSTYLE
  5
3D
102
{ACAD_REACTORS
330
2A
102
}
330
2A
100
AcDbVisualStyle
  2
EdgeColorOff
 70
    22
177
     3
291
     1
 70
    58
 90
        2
176
     0
 90
        2
176
     0
 90
        0
176
     0
 90
        0
176
     0
 40
0.6
176
     0
 40
30.0
176
     0
 62
     7
420
 16777215
176
     0
 90
        1
176
     0
 90
        4
176
     0
 62
     7
176
     0
 62
   257
176
     0
 90
        1
176
     0
 90
        1
176
     0
 40
1.0
176
     0
 90
        8
176
     2
 62
     7
176
     0
 40
1.0
176
     0
 90
        1
176
     0
 90
        6
176
     0
 90
        2
176
     0
 62
     7
176
     0
 90
        5
176
     0
 90
        0
176
     0
 90
        0
176
     0
290
     0
176
     0
 90
        1
176
     0
 40
0.0
176
     0
 90
        0
176
     0
290
     0
176
     0
290
     1
176
     0
290
     1
176
     0
290
     0
176
     0
290
     0
176
     0
290
     0
176
     0
290
     0
176
     0
290
     0
176
     0
290
     0
176
     0
 90
       50
176
     0
 40
0.0
176
     0
 40
1.0
176
     0
 90
        0
176
     0
 62
    18
420
        0
176
     0
 90
       50
176
     0
 90
        3
176
     0
 62
     5
420
      255
176
     0
290
     0
176
     0
 90
       50
176
     0
 90
       50
176
     0
 90
       50
176
     0
290
     0
176
     0
 90
       50
176
     0
 62
   256
176
     0
 40
1.0
176
     0
 90
        2
176
     0
  1
strokes_ogs.tif
176
     0
290
     0
176
     0
 40
1.0
176
     0
 40
1.0
176
     0
  0
VISUALSTYLE
  5
39
102
{ACAD_REACTORS
330
2A
102
}
330
2A
100
AcDbVisualStyle
  2
Facepattern
 70
    15
177
     3
291
     1
 70
    58
 90
        2
176
     1
 90
        2
176
     1
 90
        0
176
     1
 90
        0
176
     1
 40
0.6
176
     1
 40
30.0
176
     1
 62
     7
420
 16777215
176
     1
 90
        1
176
     1
 90
        4
176
     1
 62
     7
176
     1
 62
   257
176
     1
 90
        1
176
     1
 90
        1
176
     1
 40
1.0
176
     1
 90
        8
176
     1
 62
     7
176
     1
 40
1.0
176
     1
 90
        1
176
     1
 90
        6
176
     1
 90
        2
176
     1
 62
     7
176
     1
 90
        5
176
     1
 90
        0
176
     1
 90
        0
176
     1
290
     0
176
     1
 90
        1
176
     1
 40
0.0
176
     1
 90
        0
176
     1
290
     0
176
     1
290
     1
176
     1
290
     1
176
     1
290
     0
176
     1
290
     0
176
     1
290
     0
176
     1
290
     0
176
     1
290
     0
176
     1
290
     0
176
     1
 90
       50
176
     1
 40
0.0
176
     1
 40
1.0
176
     1
 90
        0
176
     1
 62
    18
420
        0
176
     1
 90
       50
176
     1
 90
        3
176
     1
 62
     5
420
      255
176
     1
290
     0
176
     1
 90
       50
176
     1
 90
       50
176
     1
 90
       50
176
     1
290
     0
176
     1
 90
       50
176
     1
 62
   256
176
     0
 40
1.0
176
     0
 90
        2
176
     1
  1
strokes_ogs.tif
176
     1
290
     0
176
     1
 40
1.0
176
     1
 40
1.0
176
     1
  0
VISUALSTYLE
  5
2B
102
{ACAD_REACTORS
330
2A
102
}
330
2A
100
AcDbVisualStyle
  2
Flat
 70
     0
177
     3
291
     1
 70
    58
 90
        2
176
     1
 90
        1
176
     1
 90
        1
176
     1
 90
        2
176
     1
 40
0.6
176
     1
 40
30.0
176
     1
 62
     7
420
 16777215
176
     1
 90
        0
176
     1
 90
        0
176
     1
 62
     7
176
     1
 62
   257
176
     1
 90
        1
176
     1
 90
        1
176
     1
 40
1.0
176
     1
 90
        8
176
     1
 62
     7
176
     1
 40
1.0
176
     1
 90
        1
176
     1
 90
        6
176
     1
 90
        2
176
     1
 62
     7
176
     1
 90
        5
176
     1
 90
        0
176
     1
 90
        0
176
     1
290
     0
176
     1
 90
       13
176
     1
 40
0.0
176
     1
 90
        0
176
     1
290
     0
176
     1
290
     1
176
     1
290
     1
176
     1
290
     0
176
     1
290
     0
176
     1
290
     0
176
     1
290
     0
176
     1
290
     0
176
     1
290
     0
176
     1
 90
       50
176
     1
 40
0.0
176
     1
 40
1.0
176
     1
 90
        0
176
     1
 62
    18
420
        0
176
     1
 90
       50
176
     1
 90
        3
176
     1
 62
     5
420
      255
176
     1
290
     0
176
     1
 90
       50
176
     1
 90
       50
176
     1
 90
       50
176
     1
290
     0
176
     1
 90
       50
176
     1
 62
   256
176
     0
 40
1.0
176
     0
 90
        2
176
     1
  1
strokes_ogs.tif
176
     1
290
     0
176
     1
 40
1.0
176
     1
 40
1.0
176
     1
  0
VISUALSTYLE
  5
2C
102
{ACAD_REACTORS
330
2A
102
}
330
2A
100
AcDbVisualStyle
  2
FlatWithEdges
 70
     1
177
     3
291
     1
 70
    58
 90
        2
176
     1
 90
        1
176
     1
 90
        1
176
     1
 90
        2
176
     1
 40
0.6
176
     1
 40
30.0
176
     1
 62
     7
420
 16777215
176
     1
 90
        1
176
     1
 90
        0
176
     1
 62
     7
176
     1
 62
   257
176
     1
 90
        1
176
     1
 90
        1
176
     1
 40
1.0
176
     1
 90
        0
176
     1
 62
   257
176
     1
 40
1.0
176
     1
 90
        1
176
     1
 90
        6
176
     1
 90
        2
176
     1
 62
     7
176
     1
 90
        5
176
     1
 90
        0
176
     1
 90
        0
176
     1
290
     0
176
     1
 90
       13
176
     1
 40
0.0
176
     1
 90
        0
176
     1
290
     0
176
     1
290
     1
176
     1
290
     1
176
     1
290
     0
176
     1
290
     0
176
     1
290
     0
176
     1
290
     0
176
     1
290
     0
176
     1
290
     0
176
     1
 90
       50
176
     1
 40
0.0
176
     1
 40
1.0
176
     1
 90
        0
176
     1
 62
    18
420
        0
176
     1
 90
       50
176
     1
 90
        3
176
     1
 62
     5
420
      255
176
     1
290
     0
176
     1
 90
       50
176
     1
 90
       50
176
     1
 90
       50
176
     1
290
     0
176
     1
 90
       50
176
     1
 62
   256
176
     0
 40
1.0
176
     0
 90
        2
176
     1
  1
strokes_ogs.tif
176
     1
290
     0
176
     1
 40
1.0
176
     1
 40
1.0
176
     1
  0
VISUALSTYLE
  5
2D
102
{ACAD_REACTORS
330
2A
102
}
330
2A
100
AcDbVisualStyle
  2
Gouraud
 70
     2
177
     3
291
     1
 70
    58
 90
        2
176
     1
 90
        2
176
     1
 90
        1
176
     1
 90
        2
176
     1
 40
0.6
176
     1
 40
30.0
176
     1
 62
     7
420
 16777215
176
     1
 90
        0
176
     1
 90
        0
176
     1
 62
     7
176
     1
 62
   257
176
     1
 90
        1
176
     1
 90
        1
176
     1
 40
1.0
176
     1
 90
        0
176
     1
 62
     7
176
     1
 40
1.0
176
     1
 90
        1
176
     1
 90
        6
176
     1
 90
        2
176
     1
 62
     7
176
     1
 90
        5
176
     1
 90
        0
176
     1
 90
        0
176
     1
290
     0
176
     1
 90
       13
176
     1
 40
0.0
176
     1
 90
        0
176
     1
290
     0
176
     1
290
     1
176
     1
290
     1
176
     1
290
     0
176
     1
290
     0
176
     1
290
     0
176
     1
290
     0
176
     1
290
     0
176
     1
290
     0
176
     1
 90
       50
176
     1
 40
0.0
176
     1
 40
1.0
176
     1
 90
        0
176
     1
 62
    18
420
        0
176
     1
 90
       50
176
     1
 90
        3
176
     1
 62
     5
420
      255
176
     1
290
     0
176
     1
 90
       50
176
     1
 90
       50
176
     1
 90
       50
176
     1
290
     0
176
     1
 90
       50
176
     1
 62
   256
176
     0
 40
1.0
176
     0
 90
        2
176
     1
  1
strokes_ogs.tif
176
     1
290
     0
176
     1
 40
1.0
176
     1
 40
1.0
176
     1
  0
VISUALSTYLE
  5
2E
102
{ACAD_REACTORS
330
2A
102
}
330
2A
100
AcDbVisualStyle
  2
GouraudWithEdges
 70
     3
177
     3
291
     1
 70
    58
 90
        2
176
     1
 90
        2
176
     1
 90
        1
176
     1
 90
        2
176
     1
 40
0.6
176
     1
 40
30.0
176
     1
 62
     7
420
 16777215
176
     1
 90
        1
176
     1
 90
        0
176
     1
 62
     7
176
     1
 62
   257
176
     1
 90
        1
176
     1
 90
        1
176
     1
 40
1.0
176
     1
 90
        0
176
     1
 62
   257
176
     1
 40
1.0
176
     1
 90
        1
176
     1
 90
        6
176
     1
 90
        2
176
     1
 62
     7
176
     1
 90
        5
176
     1
 90
        0
176
     1
 90
        0
176
     1
290
     0
176
     1
 90
       13
176
     1
 40
0.0
176
     1
 90
        0
176
     1
290
     0
176
     1
290
     1
176
     1
290
     1
176
     1
290
     0
176
     1
290
     0
176
     1
290
     0
176
     1
290
     0
176
     1
290
     0
176
     1
290
     0
176
     1
 90
       50
176
     1
 40
0.0
176
     1
 40
1.0
176
     1
 90
        0
176
     1
 62
    18
420
        0
176
     1
 90
       50
176
     1
 90
        3
176
     1
 62
     5
420
      255
176
     1
290
     0
176
     1
 90
       50
176
     1
 90
       50
176
     1
 90
       50
176
     1
290
     0
176
     1
 90
       50
176
     1
 62
   256
176
     0
 40
1.0
176
     0
 90
        2
176
     1
  1
strokes_ogs.tif
176
     1
290
     0
176
     1
 40
1.0
176
     1
 40
1.0
176
     1
  0
VISUALSTYLE
  5
31
102
{ACAD_REACTORS
330
2A
102
}
330
2A
100
AcDbVisualStyle
  2
Hidden
 70
     6
177
     3
291
     0
 70
    58
 90
        1
176
     1
 90
        2
176
     1
 90
        2
176
     1
 90
        0
176
     1
 40
0.6
176
     1
 40
30.0
176
     1
 62
     7
420
 16777215
176
     1
 90
        2
176
     1
 90
        2
176
     1
 62
     7
176
     1
 62
   257
176
     1
 90
        2
176
     1
 90
        1
176
     1
 40
40.0
176
     1
 90
        0
176
     1
 62
   257
176
     1
 40
1.0
176
     1
 90
        1
176
     1
 90
        6
176
     1
 90
        2
176
     1
 62
     7
176
     1
 90
        3
176
     1
 90
        0
176
     1
 90
        0
176
     1
290
     0
176
     1
 90
        1
176
     1
 40
0.0
176
     1
 90
        0
176
     1
290
     0
176
     1
290
     1
176
     1
290
     1
176
     1
290
     0
176
     1
290
     0
176
     1
290
     0
176
     1
290
     0
176
     1
290
     0
176
     1
290
     0
176
     1
 90
       50
176
     1
 40
0.0
176
     1
 40
1.0
176
     1
 90
        0
176
     1
 62
    18
420
        0
176
     1
 90
       50
176
     1
 90
        3
176
     1
 62
     5
420
      255
176
     1
290
     0
176
     1
 90
       50
176
     1
 90
       50
176
     1
 90
       50
176
     1
290
     0
176
     1
 90
       50
176
     1
 62
   256
176
     0
 40
1.0
176
     0
 90
        2
176
     1
  1
strokes_ogs.tif
176
     1
290
     0
176
     1
 40
1.0
176
     1
 40
1.0
176
     1
  0
VISUALSTYLE
  5
3B
102
{ACAD_REACTORS
330
2A
102
}
330
2A
100
AcDbVisualStyle
  2
JitterOff
 70
    20
177
     3
291
     1
 70
    58
 90
        2
176
     0
 90
        2
176
     0
 90
        0
176
     0
 90
        0
176
     0
 40
0.6
176
     0
 40
30.0
176
     0
 62
     7
420
 16777215
176
     0
 90
        1
176
     0
 90
        4
176
     0
 62
     7
176
     0
 62
   257
176
     0
 90
        1
176
     0
 90
        1
176
     0
 40
1.0
176
     0
 90
       10
176
     2
 62
     7
176
     0
 40
1.0
176
     0
 90
        1
176
     0
 90
        6
176
     0
 90
        2
176
     0
 62
     7
176
     0
 90
        5
176
     0
 90
        0
176
     0
 90
        0
176
     0
290
     0
176
     0
 90
        1
176
     0
 40
0.0
176
     0
 90
        0
176
     0
290
     0
176
     0
290
     1
176
     0
290
     1
176
     0
290
     0
176
     0
290
     0
176
     0
290
     0
176
     0
290
     0
176
     0
290
     0
176
     0
290
     0
176
     0
 90
       50
176
     0
 40
0.0
176
     0
 40
1.0
176
     0
 90
        0
176
     0
 62
    18
420
        0
176
     0
 90
       50
176
     0
 90
        3
176
     0
 62
     5
420
      255
176
     0
290
     0
176
     0
 90
       50
176
     0
 90
       50
176
     0
 90
       50
176
     0
290
     0
176
     0
 90
       50
176
     0
 62
   256
176
     0
 40
1.0
176
     0
 90
        2
176
     0
  1
strokes_ogs.tif
176
     0
290
     0
176
     0
 40
1.0
176
     0
 40
1.0
176
     0
  0
VISUALSTYLE
  5
38
102
{ACAD_REACTORS
330
2A
102
}
330
2A
100
AcDbVisualStyle
  2
Linepattern
 70
    14
177
     3
291
     1
 70
    58
 90
        2
176
     1
 90
        2
176
     1
 90
        0
176
     1
 90
        0
176
     1
 40
0.6
176
     1
 40
30.0
176
     1
 62
     7
420
 16777215
176
     1
 90
        1
176
     1
 90
        4
176
     1
 62
     7
176
     1
 62
   257
176
     1
 90
        7
176
     1
 90
        7
176
     1
 40
1.0
176
     1
 90
        8
176
     1
 62
     7
176
     1
 40
1.0
176
     1
 90
        1
176
     1
 90
        6
176
     1
 90
        2
176
     1
 62
     7
176
     1
 90
        5
176
     1
 90
        0
176
     1
 90
        0
176
     1
290
     0
176
     1
 90
        1
176
     1
 40
0.0
176
     1
 90
        0
176
     1
290
     0
176
     1
290
     1
176
     1
290
     1
176
     1
290
     0
176
     1
290
     0
176
     1
290
     0
176
     1
290
     0
176
     1
290
     0
176
     1
290
     0
176
     1
 90
       50
176
     1
 40
0.0
176
     1
 40
1.0
176
     1
 90
        0
176
     1
 62
    18
420
        0
176
     1
 90
       50
176
     1
 90
        3
176
     1
 62
     5
420
      255
176
     1
290
     0
176
     1
 90
       50
176
     1
 90
       50
176
     1
 90
       50
176
     1
290
     0
176
     1
 90
       50
176
     1
 62
   256
176
     0
 40
1.0
176
     0
 90
        2
176
     1
  1
strokes_ogs.tif
176
     1
290
     0
176
     1
 40
1.0
176
     1
 40
1.0
176
     1
  0
VISUALSTYLE
  5
3C
102
{ACAD_REACTORS
330
2A
102
}
330
2A
100
AcDbVisualStyle
  2
OverhangOff
 70
    21
177
     3
291
     1
 70
    58
 90
        2
176
     0
 90
        2
176
     0
 90
        0
176
     0
 90
        0
176
     0
 40
0.6
176
     0
 40
30.0
176
     0
 62
     7
420
 16777215
176
     0
 90
        1
176
     0
 90
        4
176
     0
 62
     7
176
     0
 62
   257
176
     0
 90
        1
176
     0
 90
        1
176
     0
 40
1.0
176
     0
 90
        9
176
     2
 62
     7
176
     0
 40
1.0
176
     0
 90
        1
176
     0
 90
        6
176
     0
 90
        2
176
     0
 62
     7
176
     0
 90
        5
176
     0
 90
        0
176
     0
 90
        0
176
     0
290
     0
176
     0
 90
        1
176
     0
 40
0.0
176
     0
 90
        0
176
     0
290
     0
176
     0
290
     1
176
     0
290
     1
176
     0
290
     0
176
     0
290
     0
176
     0
290
     0
176
     0
290
     0
176
     0
290
     0
176
     0
290
     0
176
     0
 90
       50
176
     0
 40
0.0
176
     0
 40
1.0
176
     0
 90
        0
176
     0
 62
    18
420
        0
176
     0
 90
       50
176
     0
 90
        3
176
     0
 62
     5
420
      255
176
     0
290
     0
176
     0
 90
       50
176
     0
 90
       50
176
     0
 90
       50
176
     0
290
     0
176
     0
 90
       50
176
     0
 62
   256
176
     0
 40
1.0
176
     0
 90
        2
176
     0
  1
strokes_ogs.tif
176
     0
290
     0
176
     0
 40
1.0
176
     0
 40
1.0
176
     0
  0
VISUALSTYLE
  5
33
102
{ACAD_REACTORS
330
2A
102
}
330
2A
100
AcDbVisualStyle
  2
Realistic
 70
     8
177
     3
291
     0
 70
    58
 90
        2
176
     1
 90
        3
176
     1
 90
        0
176
     1
 90
        2
176
     1
 40
0.6
176
     1
 40
30.0
176
     1
 62
     7
420
 16777215
176
     1
 90
        0
176
     1
 90
        0
176
     1
 62
     7
176
     1
 62
   257
176
     1
 90
        1
176
     1
 90
        1
176
     1
 40
1.0
176
     1
 90
        8
176
     1
 62
   257
176
     1
 40
1.0
176
     1
 90
        1
176
     1
 90
        6
176
     1
 90
        2
176
     1
 62
     7
176
     1
 90
        3
176
     1
 90
        0
176
     1
 90
        0
176
     1
290
     0
176
     1
 90
       13
176
     1
 40
0.0
176
     1
 90
        0
176
     1
290
     0
176
     1
290
     1
176
     1
290
     1
176
     1
290
     0
176
     1
290
     0
176
     1
290
     0
176
     1
290
     0
176
     1
290
     0
176
     1
290
     0
176
     1
 90
       50
176
     1
 40
0.0
176
     1
 40
1.0
176
     1
 90
        0
176
     1
 62
    18
420
        0
176
     1
 90
       50
176
     1
 90
        3
176
     1
 62
     5
420
      255
176
     1
290
     0
176
     1
 90
       50
176
     1
 90
       50
176
     1
 90
       50
176
     1
290
     0
176
     1
 90
       50
176
     1
 62
   256
176
     0
 40
1.0
176
     0
 90
        2
176
     1
  1
strokes_ogs.tif
176
     1
290
     0
176
     1
 40
1.0
176
     1
 40
1.0
176
     1
  0
VISUALSTYLE
  5
42
102
{ACAD_REACTORS
330
2A
102
}
330
2A
100
AcDbVisualStyle
  2
Shaded
 70
    27
177
     3
291
     0
 70
    58
 90
        2
176
     1
 90
        2
176
     1
 90
        1
176
     1
 90
        2
176
     1
 40
0.6
176
     1
 40
30.0
176
     1
 62
     7
420
 16777215
176
     1
 90
        0
176
     1
 90
        4
176
     1
 62
     7
176
     1
 62
   257
176
     1
 90
        1
176
     1
 90
        1
176
     1
 40
1.0
176
     1
 90
        8
176
     1
 62
   257
176
     1
 40
1.0
176
     1
 90
        1
176
     1
 90
        6
176
     1
 90
        2
176
     1
 62
     8
420
  7895160
176
     1
 90
        3
176
     1
 90
        0
176
     1
 90
        0
176
     1
290
     0
176
     1
 90
        5
176
     1
 40
0.0
176
     1
 90
        0
176
     1
290
     0
176
     1
290
     1
176
     1
290
     1
176
     1
290
     0
176
     1
290
     0
176
     1
290
     0
176
     1
290
     0
176
     1
290
     0
176
     1
290
     0
176
     1
 90
       50
176
     1
 40
0.0
176
     1
 40
1.0
176
     1
 90
        0
176
     1
 62
    18
420
        0
176
     1
 90
       50
176
     1
 90
        3
176
     1
 62
     5
420
      255
176
     1
290
     0
176
     1
 90
       50
176
     1
 90
       50
176
     1
 90
       50
176
     1
290
     0
176
     1
 90
       50
176
     1
 62
   256
176
     0
 40
1.0
176
     0
 90
        2
176
     1
  1
strokes_ogs.tif
176
     1
290
     0
176
     1
 40
1.0
176
     1
 40
1.0
176
     1
  0
VISUALSTYLE
  5
41
102
{ACAD_REACTORS
330
2A
102
}
330
2A
100
AcDbVisualStyle
  2
Shaded with edges
 70
    26
177
     3
291
     0
 70
    58
 90
        2
176
     1
 90
        2
176
     1
 90
        1
176
     1
 90
        2
176
     1
 40
0.6
176
     1
 40
30.0
176
     1
 62
     7
420
 16777215
176
     1
 90
        1
176
     1
 90
       10
176
     1
 62
     7
176
     1
 62
   257
176
     1
 90
        2
176
     1
 90
        1
176
     1
 40
1.0
176
     1
 90
        8
176
     1
 62
   257
176
     1
 40
1.0
176
     1
 90
        1
176
     1
 90
        6
176
     1
 90
        2
176
     1
 62
     7
176
     1
 90
        3
176
     1
 90
        0
176
     1
 90
        0
176
     1
290
     0
176
     1
 90
        5
176
     1
 40
0.0
176
     1
 90
        0
176
     1
290
     0
176
     1
290
     1
176
     1
290
     1
176
     1
290
     0
176
     1
290
     0
176
     1
290
     0
176
     1
290
     0
176
     1
290
     0
176
     1
290
     0
176
     1
 90
       50
176
     1
 40
0.0
176
     1
 40
1.0
176
     1
 90
        0
176
     1
 62
    18
420
        0
176
     1
 90
       50
176
     1
 90
        3
176
     1
 62
     5
420
      255
176
     1
290
     0
176
     1
 90
       50
176
     1
 90
       50
176
     1
 90
       50
176
     1
290
     0
176
     1
 90
       50
176
     1
 62
   256
176
     0
 40
1.0
176
     0
 90
        2
176
     1
  1
strokes_ogs.tif
176
     1
290
     0
176
     1
 40
1.0
176
     1
 40
1.0
176
     1
  0
VISUALSTYLE
  5
3E
102
{ACAD_REACTORS
330
2A
102
}
330
2A
100
AcDbVisualStyle
  2
Shades of Gray
 70
    23
177
     3
291
     0
 70
    58
 90
        2
176
     1
 90
        2
176
     1
 90
        3
176
     1
 90
        0
176
     1
 40
0.6
176
     1
 40
30.0
176
     1
 62
     7
420
 16777215
176
     1
 90
        2
176
     1
 90
        2
176
     1
 62
     7
176
     1
 62
     7
176
     1
 90
        1
176
     1
 90
        1
176
     1
 40
40.0
176
     1
 90
        8
176
     1
 62
     7
176
     1
 40
1.0
176
     1
 90
        1
176
     1
 90
        6
176
     1
 90
        2
176
     1
 62
     7
176
     1
 90
        3
176
     1
 90
        0
176
     1
 90
        0
176
     1
290
     0
176
     1
 90
        1
176
     1
 40
0.0
176
     1
 90
        0
176
     1
290
     0
176
     1
290
     1
176
     1
290
     1
176
     1
290
     0
176
     1
290
     0
176
     1
290
     0
176
     1
290
     0
176
     1
290
     0
176
     1
290
     0
176
     1
 90
       50
176
     1
 40
0.0
176
     1
 40
1.0
176
     1
 90
        0
176
     1
 62
    18
420
        0
176
     1
 90
       50
176
     1
 90
        3
176
     1
 62
     5
420
      255
176
     1
290
     0
176
     1
 90
       50
176
     1
 90
       50
176
     1
 90
       50
176
     1
290
     0
176
     1
 90
       50
176
     1
 62
   256
176
     0
 40
1.0
176
     0
 90
        2
176
     1
  1
strokes_ogs.tif
176
     1
290
     0
176
     1
 40
1.0
176
     1
 40
1.0
176
     1
  0
VISUALSTYLE
  5
3F
102
{ACAD_REACTORS
330
2A
102
}
330
2A
100
AcDbVisualStyle
  2
Sketchy
 70
    24
177
     3
291
     0
 70
    58
 90
        1
176
     1
 90
        2
176
     1
 90
        2
176
     1
 90
        0
176
     1
 40
0.6
176
     1
 40
30.0
176
     1
 62
     7
420
 16777215
176
     1
 90
        2
176
     1
 90
        2
176
     1
 62
     7
176
     1
 62
     7
176
     1
 90
        1
176
     1
 90
        1
176
     1
 40
40.0
176
     1
 90
       11
176
     1
 62
     7
176
     1
 40
1.0
176
     1
 90
        1
176
     1
 90
        6
176
     1
 90
        2
176
     1
 62
     7
176
     1
 90
        6
176
     1
 90
        0
176
     1
 90
        0
176
     1
290
     0
176
     1
 90
        1
176
     1
 40
0.0
176
     1
 90
        0
176
     1
290
     0
176
     1
290
     1
176
     1
290
     1
176
     1
290
     0
176
     1
290
     0
176
     1
290
     0
176
     1
290
     0
176
     1
290
     0
176
     1
290
     0
176
     1
 90
       50
176
     1
 40
0.0
176
     1
 40
1.0
176
     1
 90
        0
176
     1
 62
    18
420
        0
176
     1
 90
       50
176
     1
 90
        3
176
     1
 62
     5
420
      255
176
     1
290
     0
176
     1
 90
       50
176
     1
 90
       50
176
     1
 90
       50
176
     1
290
     0
176
     1
 90
       50
176
     1
 62
   256
176
     0
 40
1.0
176
     0
 90
        2
176
     1
  1
strokes_ogs.tif
176
     1
290
     0
176
     1
 40
1.0
176
     1
 40
1.0
176
     1
  0
VISUALSTYLE
  5
37
102
{ACAD_REACTORS
330
2A
102
}
330
2A
100
AcDbVisualStyle
  2
Thicken
 70
    13
177
     3
291
     1
 70
    58
 90
        2
176
     1
 90
        2
176
     1
 90
        0
176
     1
 90
        0
176
     1
 40
0.6
176
     1
 40
30.0
176
     1
 62
     7
420
 16777215
176
     1
 90
        1
176
     1
 90
        4
176
     1
 62
     7
176
     1
 62
   257
176
     1
 90
        1
176
     1
 90
        1
176
     1
 40
1.0
176
     1
 90
       12
176
     1
 62
     7
176
     1
 40
1.0
176
     1
 90
        1
176
     1
 90
        6
176
     1
 90
        2
176
     1
 62
     7
176
     1
 90
        5
176
     1
 90
        0
176
     1
 90
        0
176
     1
290
     0
176
     1
 90
        1
176
     1
 40
0.0
176
     1
 90
        0
176
     1
290
     0
176
     1
290
     1
176
     1
290
     1
176
     1
290
     0
176
     1
290
     0
176
     1
290
     0
176
     1
290
     0
176
     1
290
     0
176
     1
290
     0
176
     1
 90
       50
176
     1
 40
0.0
176
     1
 40
1.0
176
     1
 90
        0
176
     1
 62
    18
420
        0
176
     1
 90
       50
176
     1
 90
        3
176
     1
 62
     5
420
      255
176
     1
290
     0
176
     1
 90
       50
176
     1
 90
       50
176
     1
 90
       50
176
     1
290
     0
176
     1
 90
       50
176
     1
 62
   256
176
     0
 40
1.0
176
     0
 90
        2
176
     1
  1
strokes_ogs.tif
176
     1
290
     0
176
     1
 40
1.0
176
     1
 40
1.0
176
     1
  0
VISUALSTYLE
  5
30
102
{ACAD_REACTORS
330
2A
102
}
330
2A
100
AcDbVisualStyle
  2
Wireframe
 70
     5
177
     3
291
     0
 70
    58
 90
        0
176
     1
 90
        2
176
     1
 90
        0
176
     1
 90
        0
176
     1
 40
0.6
176
     1
 40
30.0
176
     1
 62
     7
420
 16777215
176
     1
 90
        1
176
     1
 90
        4
176
     1
 62
     7
176
     1
 62
   257
176
     1
 90
        1
176
     1
 90
        1
176
     1
 40
1.0
176
     1
 90
        0
176
     1
 62
   257
176
     1
 40
1.0
176
     1
 90
        1
176
     1
 90
        6
176
     1
 90
        2
176
     1
 62
     7
176
     1
 90
        3
176
     1
 90
        0
176
     1
 90
        0
176
     1
290
     0
176
     1
 90
        1
176
     1
 40
0.0
176
     1
 90
        0
176
     1
290
     0
176
     1
290
     1
176
     1
290
     1
176
     1
290
     0
176
     1
290
     0
176
     1
290
     0
176
     1
290
     0
176
     1
290
     0
176
     1
290
     0
176
     1
 90
       50
176
     1
 40
0.0
176
     1
 40
1.0
176
     1
 90
        0
176
     1
 62
    18
420
        0
176
     1
 90
       50
176
     1
 90
        3
176
     1
 62
     5
420
      255
176
     1
290
     0
176
     1
 90
       50
176
     1
 90
       50
176
     1
 90
       50
176
     1
290
     0
176
     1
 90
       50
176
     1
 62
   256
176
     0
 40
1.0
176
     0
 90
        2
176
     1
  1
strokes_ogs.tif
176
     1
290
     0
176
     1
 40
1.0
176
     1
 40
1.0
176
     1
  0
VISUALSTYLE
  5
40
102
{ACAD_REACTORS
330
2A
102
}
330
2A
100
AcDbVisualStyle
  2
X-Ray
 70
    25
177
     3
291
     0
 70
    58
 90
        2
176
     1
 90
        2
176
     1
 90
        1
176
     1
 90
        1
176
     1
 40
0.5
176
     1
 40
30.0
176
     1
 62
     7
420
 16777215
176
     1
 90
        1
176
     1
 90
        0
176
     1
 62
     7
176
     1
 62
   257
176
     1
 90
        1
176
     1
 90
        1
176
     1
 40
1.0
176
     1
 90
        8
176
     1
 62
     7
176
     1
 40
1.0
176
     1
 90
        1
176
     1
 90
        6
176
     1
 90
        2
176
     1
 62
     7
176
     1
 90
        3
176
     1
 90
        0
176
     1
 90
        0
176
     1
290
     0
176
     1
 90
       13
176
     1
 40
0.0
176
     1
 90
        0
176
     1
290
     0
176
     1
290
     1
176
     1
290
     1
176
     1
290
     0
176
     1
290
     0
176
     1
290
     0
176
     1
290
     0
176
     1
290
     0
176
     1
290
     0
176
     1
 90
       50
176
     1
 40
0.0
176
     1
 40
1.0
176
     1
 90
        0
176
     1
 62
    18
420
        0
176
     1
 90
       50
176
     1
 90
        3
176
     1
 62
     5
420
      255
176
     1
290
     0
176
     1
 90
       50
176
     1
 90
       50
176
     1
 90
       50
176
     1
290
     0
176
     1
 90
       50
176
     1
 62
   256
176
     0
 40
1.0
176
     0
 90
        2
176
     1
  1
strokes_ogs.tif
176
     1
290
     0
176
     1
 40
1.0
176
     1
 40
1.0
176
     1
  0
DICTIONARYVAR
  5
14D
102
{ACAD_REACTORS
330
14C
102
}
330
14C
100
DictionaryVariables
280
     0
  1
1:1
  0
ENDSEC
  0
EOF
