G04*
G04 #@! TF.GenerationSoftware,Altium Limited,Altium Designer,18.1.9 (240)*
G04*
G04 Layer_Physical_Order=1*
G04 Layer_Color=255*
%FSLAX25Y25*%
%MOIN*%
G70*
G01*
G75*
%ADD13C,0.00787*%
%ADD15C,0.01000*%
%ADD18R,0.06890X0.03150*%
%ADD19R,0.05512X0.01378*%
%ADD20R,0.00787X0.02362*%
%ADD21R,0.07087X0.01575*%
%ADD22R,0.03600X0.05700*%
%ADD23R,0.04000X0.05500*%
%ADD24R,0.05500X0.04000*%
%ADD25R,0.05906X0.05906*%
%ADD26R,0.05700X0.03600*%
%ADD27R,0.04331X0.07874*%
%ADD28R,0.06890X0.02559*%
%ADD29R,0.02559X0.06890*%
%ADD30R,0.09055X0.09055*%
%ADD31R,0.04724X0.05512*%
%ADD32R,0.05709X0.02362*%
%ADD57C,0.02756*%
%ADD58C,0.03150*%
%ADD59C,0.01575*%
%ADD60C,0.01968*%
%ADD61R,0.31500X0.24200*%
%ADD62R,0.10000X0.25500*%
%ADD63R,0.44500X0.03800*%
%ADD64R,1.50000X0.25000*%
%ADD65R,0.29500X0.67500*%
%ADD66R,0.84000X0.18700*%
%ADD67R,1.02000X0.24500*%
%ADD68R,0.90500X0.26500*%
%ADD69C,0.06000*%
%ADD70C,0.06496*%
%ADD71C,0.05906*%
%ADD72R,0.05906X0.05906*%
%ADD73C,0.05512*%
%ADD74C,0.04724*%
%ADD75R,0.04724X0.04724*%
%ADD76C,0.13780*%
%ADD77C,0.05000*%
%ADD78C,0.03543*%
D13*
X268375Y382000D02*
X272875Y386500D01*
X251500Y382000D02*
X268375D01*
X249500Y380000D02*
X251500Y382000D01*
X418500Y395500D02*
X440000Y417000D01*
Y423500D01*
X441000Y421972D02*
X442362Y420610D01*
X454500D01*
Y448300D02*
X455000Y448800D01*
X454500Y434390D02*
Y448300D01*
X272875Y386500D02*
X278500D01*
X400000Y463000D02*
X402000D01*
X339000Y433000D02*
X400000D01*
X268449Y431051D02*
X279976D01*
X257524Y441976D02*
X268449Y431051D01*
X242200Y441976D02*
X257524D01*
X161472Y421972D02*
Y429472D01*
X187500Y455500D01*
X218500D01*
X221000Y458000D01*
Y465500D01*
X226500Y471000D01*
X246500D01*
X249110Y468390D01*
X264500D01*
X235700Y380500D02*
X236500Y379700D01*
Y373000D02*
Y379700D01*
X278500Y386500D02*
X284000D01*
X285000Y385500D01*
Y369500D02*
Y385500D01*
Y369500D02*
X287000Y367500D01*
X291500D01*
X311500Y317000D02*
X323028Y305472D01*
X308200Y320300D02*
X311500Y317000D01*
X300273D02*
X311500D01*
X293273Y324000D02*
X300273Y317000D01*
X290500Y324000D02*
X293273D01*
X289937Y323437D02*
X290500Y324000D01*
X280083Y323437D02*
X289937D01*
X295500Y324000D02*
Y326606D01*
Y324000D02*
X296000Y323500D01*
X301300Y349000D02*
X303000Y347300D01*
X294500Y349000D02*
X301300D01*
X269200Y329050D02*
X270150Y330000D01*
X269200Y326800D02*
Y329050D01*
X248700Y361200D02*
Y367000D01*
X248900Y366800D01*
X267700D01*
Y362500D02*
Y366800D01*
X243500Y356000D02*
Y357000D01*
Y356000D02*
X248700Y361200D01*
X231886Y328909D02*
X239409D01*
X248500Y302000D02*
Y304800D01*
Y302000D02*
X250900Y299600D01*
X256500D01*
X239500Y304800D02*
X248500D01*
X229500D02*
X239500D01*
X219500D02*
X229500D01*
X211300D02*
X219500D01*
X207847Y301347D02*
X211300Y304800D01*
X199227Y301347D02*
X207847D01*
X199227Y306527D02*
X199500Y306800D01*
X199227Y301347D02*
Y306527D01*
X165000Y302800D02*
X172000D01*
X163672D02*
X165000D01*
Y298500D02*
Y302800D01*
X159972Y306500D02*
X163672Y302800D01*
X154943Y306500D02*
X159972D01*
X145500Y304143D02*
X147857Y306500D01*
X145500Y286500D02*
Y304143D01*
X147857Y306500D02*
Y311057D01*
X148800Y312000D01*
X161500D01*
X164300Y309200D01*
X172000D01*
X172800Y310000D01*
X192500D01*
X193000Y309500D01*
Y301000D02*
Y309500D01*
Y301000D02*
X197500Y296500D01*
X277799D01*
X281299Y300000D01*
X284800D01*
X183000Y295000D02*
Y301176D01*
Y295000D02*
X184500Y293500D01*
X214618D01*
X215500Y292618D01*
Y286500D02*
Y292618D01*
X231500Y352327D02*
Y360000D01*
Y352327D02*
X231886Y351941D01*
X279276Y304575D02*
Y320500D01*
X276126Y306800D02*
X277701Y308375D01*
X277201Y302500D02*
X279276Y304575D01*
X273000Y301076D02*
Y306432D01*
X271000Y308432D02*
X273000Y306432D01*
X284000Y317000D02*
X287000Y314000D01*
X284000Y317000D02*
Y320500D01*
X282425Y312575D02*
X284000Y311000D01*
X282425Y312575D02*
Y320500D01*
X280850Y308650D02*
X282000Y307500D01*
X280850Y308650D02*
Y320500D01*
X275000Y314126D02*
X276126D01*
X274000Y313126D02*
X275000Y314126D01*
X274000Y311000D02*
Y313126D01*
X348500Y305472D02*
X463472D01*
X273000Y317144D02*
Y322500D01*
X271000Y315144D02*
X273000Y317144D01*
Y322500D02*
X273937Y323437D01*
X271000Y308432D02*
Y315144D01*
X271524Y299600D02*
X273000Y301076D01*
X277701Y308375D02*
Y320500D01*
X276126Y314126D02*
Y320500D01*
X256500Y299600D02*
X265000D01*
X271524D01*
X273937Y323437D02*
X280083D01*
X292000Y321000D02*
X292176D01*
X292200Y320976D01*
Y300000D02*
Y320976D01*
X463472Y305472D02*
X463500Y305500D01*
X323028Y305472D02*
X348500D01*
X308200Y320300D02*
Y323500D01*
X303000Y354700D02*
X309800D01*
X312000Y352500D01*
Y343300D02*
Y352500D01*
X308200Y339500D02*
X312000Y343300D01*
X308200Y331500D02*
Y339500D01*
Y323500D02*
Y331500D01*
X296000Y323500D02*
X301800D01*
X295000Y332000D02*
X295500Y331500D01*
X301800D01*
X294500Y339500D02*
X301800D01*
X279500Y411524D02*
X279976Y412000D01*
X279500Y407000D02*
Y411524D01*
Y407000D02*
X282000Y404500D01*
Y441000D02*
Y463000D01*
X296300Y464800D02*
Y470500D01*
X294500Y463000D02*
X296300Y464800D01*
X282000Y463000D02*
X294500D01*
X303500Y433500D02*
X338500D01*
X282425D02*
X303500D01*
X303700Y433700D01*
Y470500D01*
X338500Y433500D02*
X339000Y433000D01*
X279976Y431051D02*
X282425Y433500D01*
X279976Y427000D02*
Y431051D01*
X302024Y422000D02*
Y427000D01*
Y417000D02*
Y422000D01*
Y412000D02*
Y417000D01*
Y402976D02*
Y412000D01*
Y402976D02*
X305500Y399500D01*
Y391700D02*
Y399500D01*
Y384300D02*
X322800D01*
X325772Y387272D01*
Y391000D01*
X305500Y378000D02*
Y384300D01*
X202858Y384500D02*
X217000D01*
X208300Y410500D02*
X208476Y410676D01*
Y418000D01*
X118000Y421972D02*
X161472D01*
X259827Y396000D02*
X267700D01*
X269200Y397500D01*
X291500D01*
X279976Y422000D02*
Y427000D01*
Y417000D02*
Y422000D01*
X264000Y417000D02*
X279976D01*
X259827Y412827D02*
X264000Y417000D01*
X259827Y406000D02*
Y412827D01*
Y401000D02*
Y406000D01*
Y396000D02*
Y401000D01*
Y391000D02*
Y396000D01*
X238173Y415173D02*
X239000Y416000D01*
X278000Y342500D02*
X280205D01*
X276126Y326406D02*
Y331374D01*
X273472Y334028D02*
X276126Y331374D01*
X255114Y334028D02*
X273472D01*
X277299Y338000D02*
X279976D01*
X280323Y337653D01*
Y334023D02*
Y337653D01*
X277701Y331401D02*
X280323Y334023D01*
X277701Y326406D02*
Y331401D01*
X275000Y338000D02*
X276000D01*
X273587Y336587D02*
X275000Y338000D01*
X255114Y336587D02*
X273587D01*
X280205Y342500D02*
X282925Y339779D01*
Y334152D02*
Y339779D01*
X279276Y330503D02*
X282925Y334152D01*
X279276Y326406D02*
Y330503D01*
X276976Y340976D02*
X277000Y341000D01*
X274000Y340976D02*
X276976D01*
X271524Y338500D02*
X274000Y340976D01*
X280850Y326406D02*
Y329850D01*
X281000Y346000D02*
X284500Y342500D01*
Y333500D02*
Y342500D01*
X280850Y329850D02*
X284500Y333500D01*
X266000Y347000D02*
X280323D01*
X264000Y345000D02*
X266000Y347000D01*
X262006Y345000D02*
X264000D01*
X282425Y326406D02*
Y328625D01*
X286500Y332700D01*
X284106Y326606D02*
X288500Y331000D01*
X262300Y317877D02*
Y322500D01*
Y317877D02*
X264000Y316177D01*
X188000Y302000D02*
Y306300D01*
Y313700D02*
X188500Y314200D01*
X199500D01*
X186700Y315000D02*
X188000Y313700D01*
X149000Y315000D02*
X186700D01*
X147300Y316700D02*
X149000Y315000D01*
X147300Y316700D02*
Y323500D01*
X255114Y339146D02*
X260799D01*
X261445Y338500D01*
X269200Y324000D02*
Y326800D01*
X264531Y331469D02*
X269200Y326800D01*
X255114Y331469D02*
X264531D01*
X255114Y344264D02*
X261270D01*
X262006Y345000D01*
X255114Y341705D02*
X266500D01*
X256500Y316000D02*
Y319177D01*
Y316000D02*
X259000D01*
X265000Y310000D01*
Y306000D02*
Y310000D01*
X249500Y323000D02*
X252500Y320000D01*
Y315500D02*
Y320000D01*
Y315500D02*
X256500Y311500D01*
Y306000D02*
Y311500D01*
X233000Y324500D02*
X237500D01*
X248500Y311200D02*
Y319000D01*
X244000Y323500D02*
X248500Y319000D01*
X242500Y323500D02*
X244000D01*
X224500Y325000D02*
X228500D01*
X205968Y331469D02*
X231886D01*
X237500Y324500D02*
X239500Y322500D01*
Y311200D02*
Y322500D01*
X228500Y325000D02*
X229500Y324000D01*
Y311200D02*
Y324000D01*
X201000Y328024D02*
X202524D01*
X205968Y331469D01*
X192800Y328000D02*
X199700D01*
X188300Y323500D02*
X192800Y328000D01*
X154700Y323500D02*
X188300D01*
X137500D02*
X147300D01*
X135862Y325138D02*
X137500Y323500D01*
X115000Y325138D02*
X135862D01*
X231882Y334024D02*
X231886Y334028D01*
X200500Y334024D02*
X231882D01*
X154700Y334000D02*
X200000D01*
X146327Y334972D02*
X147300Y334000D01*
X115000Y334972D02*
X146327D01*
X209236Y336587D02*
X231886D01*
X200500Y345323D02*
X209236Y336587D01*
X155200Y345000D02*
X199500D01*
X147623Y344823D02*
X147800Y345000D01*
X115000Y344823D02*
X147623D01*
X206000Y346000D02*
Y347323D01*
Y346000D02*
X212854Y339146D01*
X231886D01*
X206000Y347323D02*
Y353000D01*
X203000Y356000D02*
X206000Y353000D01*
X155100Y356000D02*
X203000D01*
X140000D02*
X147700D01*
X138657Y354658D02*
X140000Y356000D01*
X115000Y354658D02*
X138657D01*
X213618Y341705D02*
X231886D01*
X210500Y344823D02*
X213618Y341705D01*
X210500Y344823D02*
Y347323D01*
Y348000D02*
Y354794D01*
X206819Y358475D02*
X210500Y354794D01*
X206819Y358475D02*
Y362381D01*
X199700Y369500D02*
X206819Y362381D01*
X154700Y369500D02*
X199700D01*
X138000D02*
X147300D01*
X133000Y364500D02*
X138000Y369500D01*
X115000Y364500D02*
X133000D01*
X262800Y324000D02*
Y327700D01*
X261591Y328909D02*
X262800Y327700D01*
X255114Y328909D02*
X261591D01*
X261445Y338500D02*
X271524D01*
D15*
X465000Y411400D02*
X465500Y410900D01*
Y390000D02*
X466500Y389000D01*
X465500Y410900D02*
X466100Y411500D01*
X286500Y332700D02*
Y348000D01*
X285000Y349500D02*
X286500Y348000D01*
X265500Y349500D02*
X285000D01*
X263500Y347500D02*
X265500Y349500D01*
X262413Y347500D02*
X263500D01*
X284106Y326406D02*
Y326606D01*
X288500Y331000D02*
Y349500D01*
X286500Y351500D02*
X288500Y349500D01*
X263983Y351500D02*
X286500D01*
X261865Y349382D02*
X263983Y351500D01*
X255114Y346823D02*
X261736D01*
X262413Y347500D01*
X255114Y349382D02*
X261865D01*
X219500Y311200D02*
Y328000D01*
X257000Y362500D02*
X261300D01*
X255114Y360614D02*
X257000Y362500D01*
X255114Y351941D02*
Y360614D01*
X235700Y388527D02*
X238173Y391000D01*
X235700Y380500D02*
Y388527D01*
X282000Y473000D02*
X288500D01*
X291000Y475500D01*
X303000D01*
X303700Y474800D01*
Y470500D02*
Y474800D01*
X275500Y473000D02*
X282000D01*
X270890Y468390D02*
X275500Y473000D01*
X264500Y468390D02*
X270890D01*
X225000Y348000D02*
Y351500D01*
Y348000D02*
X226177Y346823D01*
X231886D01*
X219500Y358300D02*
X223700D01*
X225000Y357000D01*
Y351500D02*
Y357000D01*
Y351500D02*
X227118Y349382D01*
X231886D01*
X218236Y344264D02*
X231886D01*
X215500Y347000D02*
X218236Y344264D01*
X215500Y347000D02*
Y355179D01*
X214379Y356300D02*
X215500Y355179D01*
X211372Y356300D02*
X214379D01*
X208500Y359172D02*
X211372Y356300D01*
X208500Y359172D02*
Y363172D01*
X198672Y373000D02*
X208500Y363172D01*
X174000Y373000D02*
X198672D01*
X167500Y379500D02*
X174000Y373000D01*
X154300Y379500D02*
X167500D01*
X136000D02*
X146900D01*
X130835Y374335D02*
X136000Y379500D01*
X115000Y374335D02*
X130835D01*
X212200Y358300D02*
X219500D01*
X210500Y360000D02*
X212200Y358300D01*
X210500Y360000D02*
Y364000D01*
X199500Y375000D02*
X210500Y364000D01*
X177500Y375000D02*
X199500D01*
X169500Y383000D02*
X177500Y375000D01*
X169500Y383000D02*
Y386500D01*
X166500Y389500D02*
X169500Y386500D01*
X154700Y389500D02*
X166500D01*
X136500D02*
X147300D01*
X131185Y384185D02*
X136500Y389500D01*
X115000Y384185D02*
X131185D01*
X202661Y400500D02*
X202858Y400302D01*
Y384500D02*
Y400302D01*
X184000Y385642D02*
X185142Y384500D01*
X184000Y385642D02*
Y404000D01*
X252390Y454610D02*
X264500D01*
X248200Y458800D02*
X252390Y454610D01*
X239000Y458800D02*
X248200D01*
X168500Y471500D02*
X169000Y472000D01*
X158000Y451500D02*
X158500Y452000D01*
D18*
X259827Y391000D02*
D03*
Y396000D02*
D03*
Y401000D02*
D03*
Y406000D02*
D03*
X238173Y391000D02*
D03*
Y396000D02*
D03*
Y401000D02*
D03*
Y406000D02*
D03*
D19*
X255114Y328909D02*
D03*
Y331469D02*
D03*
Y334028D02*
D03*
Y336587D02*
D03*
Y339146D02*
D03*
Y341705D02*
D03*
Y344264D02*
D03*
Y346823D02*
D03*
Y349382D02*
D03*
Y351941D02*
D03*
X231886Y328909D02*
D03*
Y331469D02*
D03*
Y334028D02*
D03*
Y336587D02*
D03*
Y339146D02*
D03*
Y341705D02*
D03*
Y344264D02*
D03*
Y346823D02*
D03*
Y349382D02*
D03*
Y351941D02*
D03*
D20*
X282425Y320500D02*
D03*
X284000D02*
D03*
X280850D02*
D03*
X279276D02*
D03*
X277701D02*
D03*
X276126D02*
D03*
Y326406D02*
D03*
X277701D02*
D03*
X279276D02*
D03*
X280850D02*
D03*
X284000D02*
D03*
X282425D02*
D03*
D21*
X280083Y323437D02*
D03*
D22*
X308200Y339500D02*
D03*
X301800D02*
D03*
X308200Y331500D02*
D03*
X301800D02*
D03*
X308200Y323500D02*
D03*
X301800D02*
D03*
X268700Y322500D02*
D03*
X262300D02*
D03*
X242300Y367500D02*
D03*
X248700D02*
D03*
X235700Y380500D02*
D03*
X229300D02*
D03*
X235800Y441976D02*
D03*
X242200D02*
D03*
X261300Y362500D02*
D03*
X267700D02*
D03*
D23*
X303700Y470500D02*
D03*
X296300D02*
D03*
X284800Y300000D02*
D03*
X292200D02*
D03*
X154700Y323500D02*
D03*
X147300D02*
D03*
X154700Y334000D02*
D03*
X147300D02*
D03*
X155200Y345000D02*
D03*
X147800D02*
D03*
X155100Y356000D02*
D03*
X147700D02*
D03*
X154700Y369500D02*
D03*
X147300D02*
D03*
X154300Y379500D02*
D03*
X146900D02*
D03*
X208300Y410500D02*
D03*
X215700D02*
D03*
X195261Y400500D02*
D03*
X202661D02*
D03*
X147300Y389500D02*
D03*
X154700D02*
D03*
D24*
X455000Y448800D02*
D03*
Y456200D02*
D03*
X188000Y313700D02*
D03*
Y306300D02*
D03*
X239000Y458800D02*
D03*
Y466200D02*
D03*
X305500Y384300D02*
D03*
Y391700D02*
D03*
X303000Y347300D02*
D03*
Y354700D02*
D03*
X199500Y314200D02*
D03*
Y306800D02*
D03*
D25*
X454500Y420610D02*
D03*
Y434390D02*
D03*
X264500Y468390D02*
D03*
Y454610D02*
D03*
X475000Y434000D02*
D03*
Y411500D02*
D03*
Y389000D02*
D03*
Y366500D02*
D03*
X282000Y473000D02*
D03*
D26*
X265000Y306000D02*
D03*
Y299600D02*
D03*
X256500Y306000D02*
D03*
Y299600D02*
D03*
X248500Y311200D02*
D03*
Y304800D02*
D03*
X239500Y311200D02*
D03*
Y304800D02*
D03*
X229500Y311200D02*
D03*
Y304800D02*
D03*
X219500Y311200D02*
D03*
Y304800D02*
D03*
X184000Y404000D02*
D03*
Y410400D02*
D03*
X172000Y302800D02*
D03*
Y309200D02*
D03*
X219500Y364700D02*
D03*
Y358300D02*
D03*
D27*
X168500Y452000D02*
D03*
X158500D02*
D03*
D28*
X279976Y427000D02*
D03*
Y422000D02*
D03*
Y417000D02*
D03*
Y412000D02*
D03*
X302024Y427000D02*
D03*
Y422000D02*
D03*
Y417000D02*
D03*
Y412000D02*
D03*
D29*
X201500Y441976D02*
D03*
X206500D02*
D03*
X211500D02*
D03*
X216500D02*
D03*
X201500Y464024D02*
D03*
X206500D02*
D03*
X211500D02*
D03*
X216500D02*
D03*
D30*
X202858Y384500D02*
D03*
X185142D02*
D03*
D31*
X147857Y306500D02*
D03*
X154943D02*
D03*
D32*
X347228Y391000D02*
D03*
Y396000D02*
D03*
Y401000D02*
D03*
Y406000D02*
D03*
X325772Y391000D02*
D03*
Y396000D02*
D03*
Y401000D02*
D03*
Y406000D02*
D03*
D57*
X465000Y411400D02*
Y436500D01*
X465500Y366500D02*
Y390000D01*
X466500Y389000D02*
X475000D01*
X465500Y390000D02*
Y410900D01*
X466100Y411500D02*
X475000D01*
X455000Y456200D02*
X462300D01*
X465000Y453500D01*
Y436500D02*
Y453500D01*
Y436500D02*
X467500Y434000D01*
X475000D01*
X261500Y385000D02*
X264531D01*
X267032Y387500D01*
X269524D01*
X325524Y369500D02*
X331000D01*
X347228Y385728D01*
Y391000D01*
Y401000D02*
Y406000D01*
Y396000D02*
Y401000D01*
Y391000D02*
Y396000D01*
X274024Y392000D02*
X285000D01*
X238173Y401000D02*
X246802D01*
X250000Y397802D01*
Y388000D02*
Y397802D01*
Y388000D02*
X252000Y386000D01*
X260500D01*
X269524Y387500D02*
X274024Y392000D01*
X285000D02*
X291500Y385500D01*
Y379000D02*
Y385500D01*
Y379000D02*
X297500Y373000D01*
X353476Y357976D02*
Y369500D01*
X348500Y353000D02*
X353476Y357976D01*
X348500Y335000D02*
Y353000D01*
D58*
X465500Y366500D02*
X475000D01*
X370000D02*
X465500D01*
X463500Y335028D02*
Y349500D01*
X455024Y357976D02*
X463500Y349500D01*
X420524Y357976D02*
X455024D01*
X426000Y335028D02*
Y352500D01*
X420524Y357976D02*
X426000Y352500D01*
X381224Y357976D02*
X420524D01*
X387000Y335028D02*
Y352200D01*
X381224Y357976D02*
X387000Y352200D01*
X353476Y357976D02*
X381224D01*
X278500Y356500D02*
X289000D01*
X294000Y361500D01*
X331000D01*
X349000Y379500D01*
X362500D01*
X365500Y376500D01*
Y371000D02*
Y376500D01*
Y371000D02*
X370000Y366500D01*
X297500Y373000D02*
X320000D01*
X335000Y388000D01*
Y402000D01*
X331000Y406000D02*
X335000Y402000D01*
X325772Y406000D02*
X331000D01*
X325772D02*
Y410400D01*
X329872Y414500D01*
X398500D01*
X410500Y426500D01*
Y454500D01*
X402000Y463000D02*
X410500Y454500D01*
X339000Y463000D02*
X400000D01*
X235800Y435900D02*
Y441976D01*
Y435900D02*
X237700Y434000D01*
X257327D01*
X261445Y429882D01*
Y419445D02*
Y429882D01*
X258000Y416000D02*
X261445Y419445D01*
X239000Y416000D02*
X258000D01*
X238173Y406000D02*
Y415173D01*
Y401000D02*
Y406000D01*
X242300Y374000D02*
Y383300D01*
Y367500D02*
Y374000D01*
X278500Y356500D02*
Y367500D01*
X272000Y374000D02*
X278500Y367500D01*
X242300Y374000D02*
X272000D01*
X242300Y383300D02*
X245500Y386500D01*
Y394500D01*
X244000Y396000D02*
X245500Y394500D01*
X238173Y396000D02*
X244000D01*
X184000Y410400D02*
X194000D01*
X195261Y400500D02*
Y409139D01*
X229100Y455000D02*
X235800Y448300D01*
Y441976D02*
Y448300D01*
X229700Y466200D02*
X239000D01*
X227500Y464000D02*
X229700Y466200D01*
X227500Y455000D02*
Y464000D01*
X224500Y452000D02*
X227500Y455000D01*
X213500Y452000D02*
X224500D01*
X211500Y450000D02*
X213500Y452000D01*
X211500Y441976D02*
Y450000D01*
X184000Y410400D02*
Y414500D01*
X183000Y415500D02*
X184000Y414500D01*
X183000Y415500D02*
Y425000D01*
Y437000D01*
X187976Y441976D01*
X201500D01*
X206500D02*
X211500D01*
X201500D02*
X206500D01*
X211500Y464024D02*
X216500D01*
X206500D02*
X211500D01*
X201500D02*
X206500D01*
X195976D02*
X201500D01*
X193500Y466500D02*
X195976Y464024D01*
X193500Y466500D02*
Y472000D01*
X179000D02*
X193500D01*
X168500Y452000D02*
Y471500D01*
X118000Y451500D02*
X158000D01*
D59*
X260500Y386000D02*
X261500Y385000D01*
X224000Y380500D02*
X229300D01*
X219500Y376000D02*
X224000Y380500D01*
X219500Y364700D02*
Y376000D01*
X235800Y364700D02*
X243500Y357000D01*
X219500Y364700D02*
X235800D01*
X243500Y333000D02*
Y356000D01*
X239409Y328909D02*
X243500Y333000D01*
X208300Y403700D02*
Y410500D01*
Y403700D02*
X213500Y398500D01*
X225000D01*
X229300Y394200D01*
Y380500D02*
Y394200D01*
D60*
X325772Y401000D02*
Y406000D01*
Y396000D02*
Y401000D01*
X194000Y410400D02*
X195261Y409139D01*
X227500Y455000D02*
X229100D01*
X226500Y425000D02*
Y439500D01*
Y413000D02*
Y425000D01*
X253000D01*
X215700Y410500D02*
X224000D01*
X226500Y413000D01*
X224024Y441976D02*
X226500Y439500D01*
X216500Y441976D02*
X224024D01*
D61*
X305250Y444100D02*
D03*
D62*
X209500Y311750D02*
D03*
D63*
X229250Y300400D02*
D03*
D64*
X402500Y305500D02*
D03*
D65*
X432750Y437750D02*
D03*
D66*
X417000Y382350D02*
D03*
D67*
X408000Y396750D02*
D03*
D68*
X358750Y440250D02*
D03*
D69*
X114000Y302800D02*
D03*
X463000Y468000D02*
D03*
X115000Y364500D02*
D03*
Y374335D02*
D03*
Y325138D02*
D03*
Y334972D02*
D03*
Y354658D02*
D03*
Y344823D02*
D03*
Y384185D02*
D03*
D70*
X253000Y425000D02*
D03*
X183000D02*
D03*
D71*
X179000Y472000D02*
D03*
X475000Y444000D02*
D03*
Y421500D02*
D03*
Y399000D02*
D03*
Y376500D02*
D03*
X282000Y463000D02*
D03*
X325524Y369500D02*
D03*
X205500Y286500D02*
D03*
X195500D02*
D03*
X185500D02*
D03*
X175500D02*
D03*
X165500D02*
D03*
X155500D02*
D03*
X145500D02*
D03*
D72*
X169000Y472000D02*
D03*
X353476Y369500D02*
D03*
X215500Y286500D02*
D03*
D73*
X291500Y367500D02*
D03*
Y397500D02*
D03*
X278500Y386500D02*
D03*
Y356500D02*
D03*
D74*
X400000Y433000D02*
D03*
X339000D02*
D03*
D75*
X400000Y463000D02*
D03*
X339000D02*
D03*
D76*
X118000Y451500D02*
D03*
Y421972D02*
D03*
X463500Y305500D02*
D03*
Y335028D02*
D03*
X387000Y305445D02*
D03*
Y334972D02*
D03*
X426000Y305445D02*
D03*
Y334972D02*
D03*
X348500Y305472D02*
D03*
Y335000D02*
D03*
D77*
X440000Y423500D02*
D03*
X236500Y373000D02*
D03*
X249000Y379500D02*
D03*
X231500Y360614D02*
D03*
X282000Y404500D02*
D03*
Y441000D02*
D03*
X305500Y378000D02*
D03*
X218000Y384300D02*
D03*
X208476Y418000D02*
D03*
X161472Y421972D02*
D03*
D78*
X295500Y326606D02*
D03*
X294500Y349000D02*
D03*
X270500Y330079D02*
D03*
X199227Y301347D02*
D03*
X165500Y298176D02*
D03*
X183000Y301176D02*
D03*
X282626Y306675D02*
D03*
X276126Y306800D02*
D03*
X288126Y313651D02*
D03*
X284626Y310525D02*
D03*
X276126Y302300D02*
D03*
X274000Y311000D02*
D03*
X292000Y321000D02*
D03*
X295000Y332000D02*
D03*
X294500Y339500D02*
D03*
X278000Y342500D02*
D03*
X277299Y338000D02*
D03*
X281000Y346000D02*
D03*
X264000Y316177D02*
D03*
X188000Y301524D02*
D03*
X267500Y341705D02*
D03*
X256500Y319177D02*
D03*
X249500Y323000D02*
D03*
X233000Y324500D02*
D03*
X219500Y328000D02*
D03*
X242500Y323500D02*
D03*
X224500Y325000D02*
D03*
X201000Y328024D02*
D03*
X200500Y334024D02*
D03*
Y345323D02*
D03*
X206000Y347323D02*
D03*
X210500D02*
D03*
X215500Y347000D02*
D03*
M02*
