G04*
G04 #@! TF.GenerationSoftware,Altium Limited,Altium Designer,18.1.9 (240)*
G04*
G04 Layer_Color=8388736*
%FSLAX25Y25*%
%MOIN*%
G70*
G01*
G75*
%ADD33R,0.07690X0.03950*%
%ADD34R,0.06312X0.02178*%
%ADD35R,0.01181X0.02756*%
%ADD36R,0.07887X0.02375*%
%ADD37R,0.04400X0.06500*%
%ADD38R,0.04800X0.06300*%
%ADD39R,0.06300X0.04800*%
%ADD40R,0.06706X0.06706*%
%ADD41R,0.06500X0.04400*%
%ADD42R,0.05131X0.08674*%
%ADD43R,0.07690X0.03359*%
%ADD44R,0.03359X0.07690*%
%ADD45R,0.09855X0.09855*%
%ADD46R,0.05524X0.06312*%
%ADD47R,0.06509X0.03162*%
%ADD48C,0.06800*%
%ADD49C,0.07296*%
%ADD50C,0.06706*%
%ADD51R,0.06706X0.06706*%
%ADD52C,0.06312*%
%ADD53C,0.05524*%
%ADD54R,0.05524X0.05524*%
%ADD55C,0.14580*%
%ADD56C,0.05800*%
D33*
X259827Y391000D02*
D03*
Y396000D02*
D03*
Y401000D02*
D03*
Y406000D02*
D03*
X238173Y391000D02*
D03*
Y396000D02*
D03*
Y401000D02*
D03*
Y406000D02*
D03*
D34*
X255114Y328909D02*
D03*
Y331469D02*
D03*
Y334028D02*
D03*
Y336587D02*
D03*
Y339146D02*
D03*
Y341705D02*
D03*
Y344264D02*
D03*
Y346823D02*
D03*
Y349382D02*
D03*
Y351941D02*
D03*
X231886Y328909D02*
D03*
Y331469D02*
D03*
Y334028D02*
D03*
Y336587D02*
D03*
Y339146D02*
D03*
Y341705D02*
D03*
Y344264D02*
D03*
Y346823D02*
D03*
Y349382D02*
D03*
Y351941D02*
D03*
D35*
X282425Y320500D02*
D03*
X284000D02*
D03*
X280850D02*
D03*
X279276D02*
D03*
X277701D02*
D03*
X276126D02*
D03*
Y326406D02*
D03*
X277701D02*
D03*
X279276D02*
D03*
X280850D02*
D03*
X284000D02*
D03*
X282425D02*
D03*
D36*
X280083Y323437D02*
D03*
D37*
X308200Y339500D02*
D03*
X301800D02*
D03*
X308200Y331500D02*
D03*
X301800D02*
D03*
X308200Y323500D02*
D03*
X301800D02*
D03*
X268700Y322500D02*
D03*
X262300D02*
D03*
X242300Y367500D02*
D03*
X248700D02*
D03*
X235700Y380500D02*
D03*
X229300D02*
D03*
X235800Y441976D02*
D03*
X242200D02*
D03*
X261300Y362500D02*
D03*
X267700D02*
D03*
D38*
X303700Y470500D02*
D03*
X296300D02*
D03*
X284800Y300000D02*
D03*
X292200D02*
D03*
X154700Y323500D02*
D03*
X147300D02*
D03*
X154700Y334000D02*
D03*
X147300D02*
D03*
X155200Y345000D02*
D03*
X147800D02*
D03*
X155100Y356000D02*
D03*
X147700D02*
D03*
X154700Y369500D02*
D03*
X147300D02*
D03*
X154300Y379500D02*
D03*
X146900D02*
D03*
X208300Y410500D02*
D03*
X215700D02*
D03*
X195261Y400500D02*
D03*
X202661D02*
D03*
X147300Y389500D02*
D03*
X154700D02*
D03*
D39*
X455000Y448800D02*
D03*
Y456200D02*
D03*
X188000Y313700D02*
D03*
Y306300D02*
D03*
X239000Y458800D02*
D03*
Y466200D02*
D03*
X305500Y384300D02*
D03*
Y391700D02*
D03*
X303000Y347300D02*
D03*
Y354700D02*
D03*
X199500Y314200D02*
D03*
Y306800D02*
D03*
D40*
X454500Y420610D02*
D03*
Y434390D02*
D03*
X264500Y468390D02*
D03*
Y454610D02*
D03*
X475000Y434000D02*
D03*
Y411500D02*
D03*
Y389000D02*
D03*
Y366500D02*
D03*
X282000Y473000D02*
D03*
D41*
X265000Y306000D02*
D03*
Y299600D02*
D03*
X256500Y306000D02*
D03*
Y299600D02*
D03*
X248500Y311200D02*
D03*
Y304800D02*
D03*
X239500Y311200D02*
D03*
Y304800D02*
D03*
X229500Y311200D02*
D03*
Y304800D02*
D03*
X219500Y311200D02*
D03*
Y304800D02*
D03*
X184000Y404000D02*
D03*
Y410400D02*
D03*
X172000Y302800D02*
D03*
Y309200D02*
D03*
X219500Y364700D02*
D03*
Y358300D02*
D03*
D42*
X168500Y452000D02*
D03*
X158500D02*
D03*
D43*
X279976Y427000D02*
D03*
Y422000D02*
D03*
Y417000D02*
D03*
Y412000D02*
D03*
X302024Y427000D02*
D03*
Y422000D02*
D03*
Y417000D02*
D03*
Y412000D02*
D03*
D44*
X201500Y441976D02*
D03*
X206500D02*
D03*
X211500D02*
D03*
X216500D02*
D03*
X201500Y464024D02*
D03*
X206500D02*
D03*
X211500D02*
D03*
X216500D02*
D03*
D45*
X202858Y384500D02*
D03*
X185142D02*
D03*
D46*
X147857Y306500D02*
D03*
X154943D02*
D03*
D47*
X347228Y391000D02*
D03*
Y396000D02*
D03*
Y401000D02*
D03*
Y406000D02*
D03*
X325772Y391000D02*
D03*
Y396000D02*
D03*
Y401000D02*
D03*
Y406000D02*
D03*
D48*
X114000Y302800D02*
D03*
X463000Y468000D02*
D03*
X115000Y364500D02*
D03*
Y374335D02*
D03*
Y325138D02*
D03*
Y334972D02*
D03*
Y354658D02*
D03*
Y344823D02*
D03*
Y384185D02*
D03*
D49*
X253000Y425000D02*
D03*
X183000D02*
D03*
D50*
X179000Y472000D02*
D03*
X475000Y444000D02*
D03*
Y421500D02*
D03*
Y399000D02*
D03*
Y376500D02*
D03*
X282000Y463000D02*
D03*
X325524Y369500D02*
D03*
X205500Y286500D02*
D03*
X195500D02*
D03*
X185500D02*
D03*
X175500D02*
D03*
X165500D02*
D03*
X155500D02*
D03*
X145500D02*
D03*
D51*
X169000Y472000D02*
D03*
X353476Y369500D02*
D03*
X215500Y286500D02*
D03*
D52*
X291500Y367500D02*
D03*
Y397500D02*
D03*
X278500Y386500D02*
D03*
Y356500D02*
D03*
D53*
X400000Y433000D02*
D03*
X339000D02*
D03*
D54*
X400000Y463000D02*
D03*
X339000D02*
D03*
D55*
X118000Y451500D02*
D03*
Y421972D02*
D03*
X463500Y305500D02*
D03*
Y335028D02*
D03*
X387000Y305445D02*
D03*
Y334972D02*
D03*
X426000Y305445D02*
D03*
Y334972D02*
D03*
X348500Y305472D02*
D03*
Y335000D02*
D03*
D56*
X440000Y423500D02*
D03*
X236500Y373000D02*
D03*
X249000Y379500D02*
D03*
X231500Y360614D02*
D03*
X282000Y404500D02*
D03*
Y441000D02*
D03*
X305500Y378000D02*
D03*
X218000Y384300D02*
D03*
X208476Y418000D02*
D03*
X161472Y421972D02*
D03*
M02*
