G04*
G04 #@! TF.GenerationSoftware,Altium Limited,Altium Designer,18.1.9 (240)*
G04*
G04 Layer_Color=8421504*
%FSLAX25Y25*%
%MOIN*%
G70*
G01*
G75*
%ADD18R,0.06890X0.03150*%
%ADD19R,0.05512X0.01378*%
%ADD20R,0.00787X0.02362*%
%ADD21R,0.07087X0.01575*%
%ADD22R,0.03600X0.05700*%
%ADD23R,0.04000X0.05500*%
%ADD24R,0.05500X0.04000*%
%ADD25R,0.05906X0.05906*%
%ADD26R,0.05700X0.03600*%
%ADD27R,0.04331X0.07874*%
%ADD28R,0.06890X0.02559*%
%ADD29R,0.02559X0.06890*%
%ADD30R,0.09055X0.09055*%
%ADD31R,0.04724X0.05512*%
%ADD32R,0.05709X0.02362*%
D18*
X259827Y391000D02*
D03*
Y396000D02*
D03*
Y401000D02*
D03*
Y406000D02*
D03*
X238173Y391000D02*
D03*
Y396000D02*
D03*
Y401000D02*
D03*
Y406000D02*
D03*
D19*
X255114Y328909D02*
D03*
Y331469D02*
D03*
Y334028D02*
D03*
Y336587D02*
D03*
Y339146D02*
D03*
Y341705D02*
D03*
Y344264D02*
D03*
Y346823D02*
D03*
Y349382D02*
D03*
Y351941D02*
D03*
X231886Y328909D02*
D03*
Y331469D02*
D03*
Y334028D02*
D03*
Y336587D02*
D03*
Y339146D02*
D03*
Y341705D02*
D03*
Y344264D02*
D03*
Y346823D02*
D03*
Y349382D02*
D03*
Y351941D02*
D03*
D20*
X282425Y320500D02*
D03*
X284000D02*
D03*
X280850D02*
D03*
X279276D02*
D03*
X277701D02*
D03*
X276126D02*
D03*
Y326406D02*
D03*
X277701D02*
D03*
X279276D02*
D03*
X280850D02*
D03*
X284000D02*
D03*
X282425D02*
D03*
D21*
X280083Y323437D02*
D03*
D22*
X308200Y339500D02*
D03*
X301800D02*
D03*
X308200Y331500D02*
D03*
X301800D02*
D03*
X308200Y323500D02*
D03*
X301800D02*
D03*
X268700Y322500D02*
D03*
X262300D02*
D03*
X242300Y367500D02*
D03*
X248700D02*
D03*
X235700Y380500D02*
D03*
X229300D02*
D03*
X235800Y441976D02*
D03*
X242200D02*
D03*
X261300Y362500D02*
D03*
X267700D02*
D03*
D23*
X303700Y470500D02*
D03*
X296300D02*
D03*
X284800Y300000D02*
D03*
X292200D02*
D03*
X154700Y323500D02*
D03*
X147300D02*
D03*
X154700Y334000D02*
D03*
X147300D02*
D03*
X155200Y345000D02*
D03*
X147800D02*
D03*
X155100Y356000D02*
D03*
X147700D02*
D03*
X154700Y369500D02*
D03*
X147300D02*
D03*
X154300Y379500D02*
D03*
X146900D02*
D03*
X208300Y410500D02*
D03*
X215700D02*
D03*
X195261Y400500D02*
D03*
X202661D02*
D03*
X147300Y389500D02*
D03*
X154700D02*
D03*
D24*
X455000Y448800D02*
D03*
Y456200D02*
D03*
X188000Y313700D02*
D03*
Y306300D02*
D03*
X239000Y458800D02*
D03*
Y466200D02*
D03*
X305500Y384300D02*
D03*
Y391700D02*
D03*
X303000Y347300D02*
D03*
Y354700D02*
D03*
X199500Y314200D02*
D03*
Y306800D02*
D03*
D25*
X454500Y420610D02*
D03*
Y434390D02*
D03*
X264500Y468390D02*
D03*
Y454610D02*
D03*
D26*
X265000Y306000D02*
D03*
Y299600D02*
D03*
X256500Y306000D02*
D03*
Y299600D02*
D03*
X248500Y311200D02*
D03*
Y304800D02*
D03*
X239500Y311200D02*
D03*
Y304800D02*
D03*
X229500Y311200D02*
D03*
Y304800D02*
D03*
X219500Y311200D02*
D03*
Y304800D02*
D03*
X184000Y404000D02*
D03*
Y410400D02*
D03*
X172000Y302800D02*
D03*
Y309200D02*
D03*
X219500Y364700D02*
D03*
Y358300D02*
D03*
D27*
X168500Y452000D02*
D03*
X158500D02*
D03*
D28*
X279976Y427000D02*
D03*
Y422000D02*
D03*
Y417000D02*
D03*
Y412000D02*
D03*
X302024Y427000D02*
D03*
Y422000D02*
D03*
Y417000D02*
D03*
Y412000D02*
D03*
D29*
X201500Y441976D02*
D03*
X206500D02*
D03*
X211500D02*
D03*
X216500D02*
D03*
X201500Y464024D02*
D03*
X206500D02*
D03*
X211500D02*
D03*
X216500D02*
D03*
D30*
X202858Y384500D02*
D03*
X185142D02*
D03*
D31*
X147857Y306500D02*
D03*
X154943D02*
D03*
D32*
X347228Y391000D02*
D03*
Y396000D02*
D03*
Y401000D02*
D03*
Y406000D02*
D03*
X325772Y391000D02*
D03*
Y396000D02*
D03*
Y401000D02*
D03*
Y406000D02*
D03*
M02*
