G04*
G04 #@! TF.GenerationSoftware,Altium Limited,Altium Designer,18.1.9 (240)*
G04*
G04 Layer_Color=32768*
%FSLAX25Y25*%
%MOIN*%
G70*
G01*
G75*
%ADD94C,0.00197*%
%ADD96C,0.00394*%
D94*
X234433Y387476D02*
X263567D01*
X234433Y409524D02*
X263567D01*
Y387476D02*
Y409524D01*
X234433Y387476D02*
Y409524D01*
X228146Y326449D02*
X258854D01*
X228146Y354402D02*
X258854D01*
Y326449D02*
Y354402D01*
X228146Y326449D02*
Y354402D01*
X276433Y408476D02*
Y430524D01*
X305567Y408476D02*
Y430524D01*
X276433D02*
X305567D01*
X276433Y408476D02*
X305567D01*
X197976Y438433D02*
X220024D01*
X197976Y467567D02*
X220024D01*
X197976Y438433D02*
Y467567D01*
X220024Y438433D02*
Y467567D01*
X321933Y387476D02*
X351067D01*
X321933Y409524D02*
X351067D01*
Y387476D02*
Y409524D01*
X321933Y387476D02*
Y409524D01*
D96*
X249000Y396532D02*
Y400468D01*
X247031Y398500D02*
X250969D01*
X243500Y338457D02*
Y342394D01*
X241531Y340425D02*
X245468D01*
X289032Y419500D02*
X292969D01*
X291000Y417531D02*
Y421468D01*
X209000Y451031D02*
Y454969D01*
X207031Y453000D02*
X210968D01*
X144510Y302760D02*
Y310240D01*
X158290Y302760D02*
Y310240D01*
X144510D02*
X158290D01*
X144510Y302760D02*
X158290D01*
X149432Y306500D02*
X153368D01*
X151400Y304532D02*
Y308469D01*
X336500Y396532D02*
Y400468D01*
X334531Y398500D02*
X338469D01*
M02*
