G04 Layer_Color=2752767*
%FSLAX42Y42*%
%MOMM*%
G71*
G01*
G75*
%ADD85C,0.05*%
%ADD90C,0.07*%
D85*
X3396Y5949D02*
Y5989D01*
X3437D01*
Y5949D01*
X3396D01*
X2888D02*
Y5989D01*
X2929D01*
Y5949D01*
X2888D01*
X6528Y5161D02*
X6507Y5202D01*
X6548D01*
X6528Y5161D01*
X6274Y4907D02*
X6284Y4917D01*
X6294D01*
X6284Y4928D01*
X6294Y4938D01*
X6284D01*
X6274Y4948D01*
X6264Y4938D01*
X6253D01*
X6264Y4928D01*
X6253Y4917D01*
X6264D01*
X6274Y4907D01*
X5766Y5382D02*
X5776Y5392D01*
X5786D01*
X5776Y5402D01*
X5786Y5412D01*
X5776D01*
X5766Y5422D01*
X5756Y5412D01*
X5745D01*
X5756Y5402D01*
X5745Y5392D01*
X5756D01*
X5766Y5382D01*
Y4641D02*
X5776Y4651D01*
X5786D01*
X5776Y4661D01*
X5786Y4671D01*
X5776D01*
X5766Y4681D01*
X5756Y4671D01*
X5745D01*
X5756Y4661D01*
X5745Y4651D01*
X5756D01*
X5766Y4641D01*
X7790Y3167D02*
X7800Y3188D01*
X7790Y3208D01*
X7811Y3198D01*
X7831Y3208D01*
X7821Y3188D01*
X7831Y3167D01*
X7811Y3178D01*
X7790Y3167D01*
X8044D02*
X8054Y3188D01*
X8044Y3208D01*
X8064Y3198D01*
X8085Y3208D01*
X8075Y3188D01*
X8085Y3167D01*
X8064Y3178D01*
X8044Y3167D01*
X8298D02*
X8308Y3188D01*
X8298Y3208D01*
X8318Y3198D01*
X8339Y3208D01*
X8329Y3188D01*
X8339Y3167D01*
X8318Y3178D01*
X8298Y3167D01*
X8552D02*
X8562Y3188D01*
X8552Y3208D01*
X8572Y3198D01*
X8593Y3208D01*
X8583Y3188D01*
X8593Y3167D01*
X8572Y3178D01*
X8552Y3167D01*
X8806D02*
X8816Y3188D01*
X8806Y3208D01*
X8826Y3198D01*
X8847Y3208D01*
X8837Y3188D01*
X8847Y3167D01*
X8826Y3178D01*
X8806Y3167D01*
X9060D02*
X9070Y3188D01*
X9060Y3208D01*
X9081Y3198D01*
X9101Y3208D01*
X9091Y3188D01*
X9101Y3167D01*
X9081Y3178D01*
X9060Y3167D01*
X3218Y2977D02*
Y3018D01*
X3259D01*
Y2977D01*
X3218D01*
X3726Y2723D02*
Y2764D01*
X3767D01*
Y2723D01*
X3726D01*
Y2977D02*
Y3018D01*
X3767D01*
Y2977D01*
X3726D01*
Y3485D02*
Y3526D01*
X3767D01*
Y3485D01*
X3726D01*
X3218D02*
Y3526D01*
X3259D01*
Y3485D01*
X3218D01*
X2710D02*
Y3526D01*
X2751D01*
Y3485D01*
X2710D01*
Y2977D02*
Y3018D01*
X2751D01*
Y2977D01*
X2710D01*
Y2723D02*
Y2764D01*
X2751D01*
Y2723D01*
X2710D01*
X5853Y3860D02*
Y3850D01*
X5874D01*
Y3860D01*
X5884D01*
Y3880D01*
X5874D01*
Y3890D01*
X5853D01*
Y3880D01*
X5843D01*
Y3860D01*
X5853D01*
X5603Y3860D02*
Y3850D01*
X5624D01*
Y3860D01*
X5634D01*
Y3880D01*
X5624D01*
Y3891D01*
X5603D01*
Y3880D01*
X5593D01*
Y3860D01*
X5603D01*
X5853Y3660D02*
Y3650D01*
X5874D01*
Y3660D01*
X5884D01*
Y3680D01*
X5874D01*
Y3691D01*
X5853D01*
Y3680D01*
X5843D01*
Y3660D01*
X5853D01*
X5603D02*
Y3650D01*
X5624D01*
Y3660D01*
X5634D01*
Y3680D01*
X5624D01*
Y3691D01*
X5603D01*
Y3680D01*
X5593D01*
Y3660D01*
X5603D01*
X6330Y3383D02*
X6340D01*
X6350Y3393D01*
X6360Y3383D01*
X6370D01*
Y3393D01*
X6360Y3404D01*
X6370Y3414D01*
Y3424D01*
X6360D01*
X6350Y3414D01*
X6340Y3424D01*
X6330D01*
Y3414D01*
X6340Y3404D01*
X6330Y3393D01*
Y3383D01*
X5123D02*
X5133D01*
X5144Y3393D01*
X5154Y3383D01*
X5164D01*
Y3393D01*
X5154Y3404D01*
X5164Y3414D01*
Y3424D01*
X5154D01*
X5144Y3414D01*
X5133Y3424D01*
X5123D01*
Y3414D01*
X5133Y3404D01*
X5123Y3393D01*
Y3383D01*
X5657Y4801D02*
X5677Y4821D01*
X5697Y4801D01*
X5677Y4780D01*
X5657Y4801D01*
X5199Y4331D02*
X5220Y4351D01*
X5240Y4331D01*
X5220Y4310D01*
X5199Y4331D01*
X4336Y5182D02*
X4356Y5202D01*
X4376Y5182D01*
X4356Y5161D01*
X4336Y5182D01*
X3879Y5042D02*
X3899Y5062D01*
X3919Y5042D01*
X3899Y5022D01*
X3879Y5042D01*
X4082Y4445D02*
X4102Y4465D01*
X4122Y4445D01*
X4102Y4425D01*
X4082Y4445D01*
X3917Y4521D02*
X3937Y4542D01*
X3957Y4521D01*
X3937Y4501D01*
X3917Y4521D01*
X3777Y4851D02*
X3797Y4872D01*
X3818Y4851D01*
X3797Y4831D01*
X3777Y4851D01*
X3421Y4953D02*
X3442Y4973D01*
X3462Y4953D01*
X3442Y4933D01*
X3421Y4953D01*
X2977Y4496D02*
X2997Y4516D01*
X3018Y4496D01*
X2997Y4475D01*
X2977Y4496D01*
X2710Y4699D02*
X2731Y4719D01*
X2751Y4699D01*
X2731Y4679D01*
X2710Y4699D01*
X4610Y5766D02*
X4630Y5786D01*
X4651Y5766D01*
X4630Y5745D01*
X4610Y5766D01*
X4958Y6408D02*
X4978Y6429D01*
X4999Y6408D01*
X4978Y6388D01*
X4958Y6408D01*
X4780Y4547D02*
X4801Y4567D01*
X4821Y4547D01*
X4801Y4526D01*
X4780Y4547D01*
X4323Y4724D02*
X4343Y4745D01*
X4364Y4724D01*
X4343Y4704D01*
X4323Y4724D01*
X7155Y3772D02*
X7175Y3792D01*
X7196Y3772D01*
X7175Y3752D01*
X7155Y3772D01*
X7409Y4775D02*
X7429Y4796D01*
X7450Y4775D01*
X7429Y4755D01*
X7409Y4775D01*
X5911Y4813D02*
X5931Y4834D01*
X5951Y4813D01*
X5931Y4793D01*
X5911Y4813D01*
X6901Y4915D02*
X6921Y4935D01*
X6942Y4915D01*
X6921Y4895D01*
X6901Y4915D01*
X4958Y4788D02*
X4978Y4808D01*
X4999Y4788D01*
X4978Y4768D01*
X4958Y4788D01*
X6901Y3747D02*
X6921Y3767D01*
X6942Y3747D01*
X6921Y3726D01*
X6901Y3747D01*
X6050Y5067D02*
X6071Y5088D01*
X6091Y5067D01*
X6071Y5047D01*
X6050Y5067D01*
X7155Y5194D02*
X7175Y5215D01*
X7196Y5194D01*
X7175Y5174D01*
X7155Y5194D01*
X5856Y5067D02*
X5876Y5088D01*
X5896Y5067D01*
X5876Y5047D01*
X5856Y5067D01*
X7663Y5309D02*
X7683Y5329D01*
X7704Y5309D01*
X7683Y5288D01*
X7663Y5309D01*
X5809Y5232D02*
X5829Y5253D01*
X5850Y5232D01*
X5829Y5212D01*
X5809Y5232D01*
X7917Y5486D02*
X7938Y5507D01*
X7958Y5486D01*
X7938Y5466D01*
X7917Y5486D01*
X8806Y5588D02*
X8826Y5608D01*
X8847Y5588D01*
X8826Y5568D01*
X8806Y5588D01*
X8552Y3454D02*
X8572Y3475D01*
X8593Y3454D01*
X8572Y3434D01*
X8552Y3454D01*
X5034Y4001D02*
X5055Y4021D01*
X5075Y4001D01*
X5055Y3980D01*
X5034Y4001D01*
X4958Y4623D02*
X4978Y4643D01*
X4999Y4623D01*
X4978Y4602D01*
X4958Y4623D01*
X7308Y4585D02*
X7328Y4605D01*
X7348Y4585D01*
X7328Y4564D01*
X7308Y4585D01*
X6114Y4610D02*
X6134Y4630D01*
X6154Y4610D01*
X6134Y4590D01*
X6114Y4610D01*
X4920Y5321D02*
X4940Y5342D01*
X4961Y5321D01*
X4940Y5301D01*
X4920Y5321D01*
Y5156D02*
X4940Y5177D01*
X4961Y5156D01*
X4940Y5136D01*
X4920Y5156D01*
X5580Y5778D02*
X5601Y5799D01*
X5621Y5778D01*
X5601Y5758D01*
X5580Y5778D01*
X5085Y5867D02*
X5105Y5888D01*
X5126Y5867D01*
X5105Y5847D01*
X5085Y5867D01*
X5428Y6045D02*
X5448Y6066D01*
X5469Y6045D01*
X5448Y6025D01*
X5428Y6045D01*
X5339Y3835D02*
X5359Y3856D01*
X5380Y3835D01*
X5359Y3815D01*
X5339Y3835D01*
X4755Y4026D02*
X4775Y4046D01*
X4796Y4026D01*
X4775Y4006D01*
X4755Y4026D01*
X3752Y4128D02*
X3772Y4148D01*
X3792Y4128D01*
X3772Y4107D01*
X3752Y4128D01*
X3866Y4724D02*
X3886Y4745D01*
X3907Y4724D01*
X3886Y4704D01*
X3866Y4724D01*
X4054Y5502D02*
X4074Y5522D01*
X4094Y5502D01*
X4074Y5481D01*
X4054Y5502D01*
Y5763D02*
X4074Y5784D01*
X4094Y5763D01*
X4074Y5743D01*
X4054Y5763D01*
D90*
X9114Y2794D02*
G03*
X9114Y2794I-20J0D01*
G01*
M02*
