G04 Layer_Color=128*
%FSLAX42Y42*%
%MOMM*%
G71*
G01*
G75*
%ADD37C,0.25*%
%ADD38C,0.15*%
%ADD39C,0.00*%
%ADD40C,0.05*%
%ADD41C,0.10*%
%ADD42C,0.13*%
%ADD43C,0.03*%
%ADD44C,0.10*%
%ADD45C,0.05*%
%ADD46C,0.20*%
G36*
X4759Y3692D02*
X4614D01*
Y3767D01*
X4759D01*
Y3692D01*
D02*
G37*
G36*
X4467Y3560D02*
X4322D01*
Y3635D01*
X4467D01*
Y3560D01*
D02*
G37*
G36*
Y3705D02*
X4322D01*
Y3780D01*
X4467D01*
Y3705D01*
D02*
G37*
G36*
X4175D02*
X4030D01*
Y3780D01*
X4175D01*
Y3705D01*
D02*
G37*
G36*
X8123Y2592D02*
X8041D01*
Y2882D01*
X8123D01*
Y2592D01*
D02*
G37*
G36*
X7891Y2591D02*
X7576D01*
Y2882D01*
X7891D01*
Y2591D01*
D02*
G37*
G36*
X4175Y3560D02*
X4030D01*
Y3635D01*
X4175D01*
Y3560D01*
D02*
G37*
G36*
X4759Y3547D02*
X4614D01*
Y3622D01*
X4759D01*
Y3547D01*
D02*
G37*
G36*
X3108Y4093D02*
X2963D01*
Y4168D01*
X3108D01*
Y4093D01*
D02*
G37*
G36*
X3433Y5043D02*
X3351D01*
Y5333D01*
X3433D01*
Y5043D01*
D02*
G37*
G36*
X3201Y5042D02*
X2886D01*
Y5333D01*
X3201D01*
Y5042D01*
D02*
G37*
G36*
X4589Y5932D02*
X4517D01*
Y5827D01*
X4452D01*
Y5991D01*
X4507D01*
Y6222D01*
X4589D01*
Y5932D01*
D02*
G37*
G36*
X4357Y5991D02*
X4373D01*
Y5825D01*
X4267D01*
Y5931D01*
X4042D01*
Y6222D01*
X4357D01*
Y5991D01*
D02*
G37*
G36*
X2803Y4309D02*
X2658D01*
Y4384D01*
X2803D01*
Y4309D01*
D02*
G37*
G36*
X3108Y4238D02*
X2963D01*
Y4313D01*
X3108D01*
Y4238D01*
D02*
G37*
G36*
X9296Y5525D02*
Y4940D01*
X8928D01*
Y5525D01*
X8929D01*
Y5525D01*
X8929D01*
Y5525D01*
X9296D01*
Y5525D01*
D02*
G37*
G36*
X2803Y4454D02*
X2658D01*
Y4529D01*
X2803D01*
Y4454D01*
D02*
G37*
D37*
X5311Y5486D02*
G03*
X5311Y5486I-40J0D01*
G01*
X3759Y5969D02*
G03*
X3759Y5969I-597J0D01*
G01*
X9347Y2413D02*
Y6642D01*
X2515Y2413D02*
X9347D01*
X2502Y2426D02*
Y6642D01*
X9347D01*
X4890Y3404D02*
Y4039D01*
X6604D01*
Y2567D02*
Y4039D01*
X4890Y2566D02*
Y3404D01*
Y2566D02*
X6605D01*
X2629Y2553D02*
Y3937D01*
X3848Y2553D02*
Y3937D01*
X2629Y2553D02*
X3848D01*
X2629Y3937D02*
X3848D01*
X5575Y5563D02*
X6718D01*
Y4547D02*
Y5563D01*
X5575Y4547D02*
X6718D01*
X5575D02*
Y5563D01*
D38*
X6914Y3081D02*
G03*
X6912Y3142I-1J30D01*
G01*
X4224Y5441D02*
X5225D01*
Y4440D02*
Y5441D01*
X4224Y4440D02*
X5225D01*
X4224D02*
Y5441D01*
X5098D02*
X5225Y5314D01*
X5113Y4341D02*
Y4440D01*
X5085Y4341D02*
X5113D01*
X5085D02*
Y4440D01*
X5113D01*
X5062Y4341D02*
Y4440D01*
X5034Y4341D02*
X5062D01*
X5034D02*
Y4440D01*
X5062D01*
X5014Y4341D02*
Y4440D01*
X4986Y4341D02*
X5014D01*
X4986D02*
Y4440D01*
X5014D01*
X4963Y4341D02*
Y4440D01*
X4935Y4341D02*
X4963D01*
X4935D02*
Y4440D01*
X4963D01*
X4912Y4341D02*
Y4440D01*
X4884Y4341D02*
X4912D01*
X4884D02*
Y4440D01*
X4912D01*
X4864Y4341D02*
Y4440D01*
X4836Y4341D02*
X4864D01*
X4836D02*
Y4440D01*
X4864D01*
X4813Y4341D02*
Y4440D01*
X4785Y4341D02*
X4813D01*
X4785D02*
Y4440D01*
X4813D01*
X4762Y4341D02*
Y4440D01*
X4735Y4341D02*
X4762D01*
X4735D02*
Y4440D01*
X4762D01*
X4714Y4341D02*
Y4440D01*
X4686Y4341D02*
X4714D01*
X4686D02*
Y4440D01*
X4714D01*
X4663Y4341D02*
Y4440D01*
X4635Y4341D02*
X4663D01*
X4635D02*
Y4440D01*
X4663D01*
X4613Y4341D02*
Y4440D01*
X4585Y4341D02*
X4613D01*
X4585D02*
Y4440D01*
X4613D01*
X4564Y4341D02*
Y4440D01*
X4536Y4341D02*
X4564D01*
X4536D02*
Y4440D01*
X4564D01*
X4514Y4341D02*
Y4440D01*
X4486Y4341D02*
X4514D01*
X4486D02*
Y4440D01*
X4514D01*
X4463Y4341D02*
Y4440D01*
X4435Y4341D02*
X4463D01*
X4435D02*
Y4440D01*
X4463D01*
X4415Y4341D02*
Y4440D01*
X4387Y4341D02*
X4415D01*
X4387D02*
Y4440D01*
X4415D01*
X4364Y4341D02*
Y4440D01*
X4336Y4341D02*
X4364D01*
X4336D02*
Y4440D01*
X4364D01*
X4125Y4552D02*
X4224D01*
X4125D02*
Y4580D01*
X4224D01*
Y4552D02*
Y4580D01*
X4125Y4602D02*
X4224D01*
X4125D02*
Y4630D01*
X4224D01*
Y4602D02*
Y4630D01*
X4125Y4651D02*
X4224D01*
X4125D02*
Y4679D01*
X4224D01*
Y4651D02*
Y4679D01*
X4125Y4702D02*
X4224D01*
X4125D02*
Y4729D01*
X4224D01*
Y4702D02*
Y4729D01*
X4125Y4752D02*
X4224D01*
X4125D02*
Y4780D01*
X4224D01*
Y4752D02*
Y4780D01*
X4125Y4801D02*
X4224D01*
X4125D02*
Y4829D01*
X4224D01*
Y4801D02*
Y4829D01*
X4125Y4851D02*
X4224D01*
X4125D02*
Y4879D01*
X4224D01*
Y4851D02*
Y4879D01*
X4125Y4902D02*
X4224D01*
X4125D02*
Y4930D01*
X4224D01*
Y4902D02*
Y4930D01*
X4125Y4950D02*
X4224D01*
X4125D02*
Y4978D01*
X4224D01*
Y4950D02*
Y4978D01*
X4125Y5001D02*
X4224D01*
X4125D02*
Y5029D01*
X4224D01*
Y5001D02*
Y5029D01*
X4125Y5052D02*
X4224D01*
X4125D02*
Y5080D01*
X4224D01*
Y5052D02*
Y5080D01*
X4125Y5100D02*
X4224D01*
X4125D02*
Y5128D01*
X4224D01*
Y5100D02*
Y5128D01*
X4125Y5151D02*
X4224D01*
X4125D02*
Y5179D01*
X4224D01*
Y5151D02*
Y5179D01*
X4125Y5202D02*
X4224D01*
X4125D02*
Y5230D01*
X4224D01*
Y5202D02*
Y5230D01*
X4125Y5250D02*
X4224D01*
X4125D02*
Y5278D01*
X4224D01*
Y5250D02*
Y5278D01*
X4125Y5301D02*
X4224D01*
X4125D02*
Y5329D01*
X4224D01*
Y5301D02*
Y5329D01*
X4336Y5441D02*
Y5540D01*
X4364D01*
Y5441D02*
Y5540D01*
X4336Y5441D02*
X4364D01*
X4387D02*
Y5540D01*
X4415D01*
Y5441D02*
Y5540D01*
X4387Y5441D02*
X4415D01*
X4435D02*
Y5540D01*
X4463D01*
Y5441D02*
Y5540D01*
X4435Y5441D02*
X4463D01*
X4486D02*
Y5540D01*
X4514D01*
Y5441D02*
Y5540D01*
X4486Y5441D02*
X4514D01*
X4536D02*
Y5540D01*
X4564D01*
Y5441D02*
Y5540D01*
X4536Y5441D02*
X4564D01*
X4585D02*
Y5540D01*
X4613D01*
Y5441D02*
Y5540D01*
X4585Y5441D02*
X4613D01*
X4635D02*
Y5540D01*
X4663D01*
Y5441D02*
Y5540D01*
X4635Y5441D02*
X4663D01*
X4686D02*
Y5540D01*
X4714D01*
Y5441D02*
Y5540D01*
X4686Y5441D02*
X4714D01*
X4735D02*
Y5540D01*
X4762D01*
Y5441D02*
Y5540D01*
X4735Y5441D02*
X4762D01*
X4785D02*
Y5540D01*
X4813D01*
Y5441D02*
Y5540D01*
X4785Y5441D02*
X4813D01*
X4836D02*
Y5540D01*
X4864D01*
Y5441D02*
Y5540D01*
X4836Y5441D02*
X4864D01*
X4884D02*
Y5540D01*
X4912D01*
Y5441D02*
Y5540D01*
X4884Y5441D02*
X4912D01*
X4935D02*
Y5540D01*
X4963D01*
Y5441D02*
Y5540D01*
X4935Y5441D02*
X4963D01*
X4986D02*
Y5540D01*
X5014D01*
Y5441D02*
Y5540D01*
X4986Y5441D02*
X5014D01*
X5034D02*
Y5540D01*
X5062D01*
Y5441D02*
Y5540D01*
X5034Y5441D02*
X5062D01*
X5085D02*
Y5540D01*
X5113D01*
Y5441D02*
Y5540D01*
X5098Y5441D02*
X5113D01*
X5085D02*
X5098D01*
X5225Y5329D02*
X5324D01*
Y5301D02*
Y5329D01*
X5225Y5301D02*
X5324D01*
X5225D02*
Y5314D01*
Y5329D01*
Y5278D02*
X5324D01*
Y5250D02*
Y5278D01*
X5225Y5250D02*
X5324D01*
X5225D02*
Y5278D01*
Y5230D02*
X5324D01*
Y5202D02*
Y5230D01*
X5225Y5202D02*
X5324D01*
X5225D02*
Y5230D01*
Y5179D02*
X5324D01*
Y5151D02*
Y5179D01*
X5225Y5151D02*
X5324D01*
X5225D02*
Y5179D01*
Y5128D02*
X5324D01*
Y5100D02*
Y5128D01*
X5225Y5100D02*
X5324D01*
X5225D02*
Y5128D01*
Y5080D02*
X5324D01*
Y5052D02*
Y5080D01*
X5225Y5052D02*
X5324D01*
X5225D02*
Y5080D01*
Y5029D02*
X5324D01*
Y5001D02*
Y5029D01*
X5225Y5001D02*
X5324D01*
X5225D02*
Y5029D01*
Y4978D02*
X5324D01*
Y4950D02*
Y4978D01*
X5225Y4950D02*
X5324D01*
X5225D02*
Y4978D01*
Y4930D02*
X5324D01*
Y4902D02*
Y4930D01*
X5225Y4902D02*
X5324D01*
X5225D02*
Y4930D01*
Y4879D02*
X5324D01*
Y4851D02*
Y4879D01*
X5225Y4851D02*
X5324D01*
X5225D02*
Y4879D01*
Y4829D02*
X5324D01*
Y4801D02*
Y4829D01*
X5225Y4801D02*
X5324D01*
X5225D02*
Y4829D01*
Y4780D02*
X5324D01*
Y4752D02*
Y4780D01*
X5225Y4752D02*
X5324D01*
X5225D02*
Y4780D01*
Y4729D02*
X5324D01*
Y4702D02*
Y4729D01*
X5225Y4702D02*
X5324D01*
X5225D02*
Y4729D01*
Y4679D02*
X5324D01*
Y4651D02*
Y4679D01*
X5225Y4651D02*
X5324D01*
X5225D02*
Y4679D01*
Y4630D02*
X5324D01*
Y4602D02*
Y4630D01*
X5225Y4602D02*
X5324D01*
X5225D02*
Y4630D01*
Y4580D02*
X5324D01*
Y4552D02*
Y4580D01*
X5225Y4552D02*
X5324D01*
X5225D02*
Y4580D01*
X4064Y4280D02*
X5385D01*
Y5601D01*
X4064D02*
X5385D01*
X4064Y4280D02*
Y5601D01*
X3813Y5375D02*
X3960D01*
X3813Y5298D02*
Y5375D01*
X3960Y5298D02*
Y5375D01*
X3813Y5446D02*
X3960D01*
Y5522D01*
X3813Y5446D02*
Y5522D01*
X3960Y5375D02*
Y5446D01*
X3813Y5522D02*
X3960D01*
X3813Y5375D02*
Y5446D01*
Y5298D02*
X3960D01*
X6888Y3482D02*
X7437D01*
X6888Y2741D02*
Y3482D01*
Y2741D02*
X7437D01*
Y3482D01*
X6914Y2913D02*
X7412D01*
X6914D02*
Y3081D01*
Y3310D01*
X7412D01*
Y2913D02*
Y3310D01*
X6947D02*
Y3421D01*
X6998D01*
Y3310D02*
Y3421D01*
X6947Y3310D02*
X6998D01*
X7074D02*
Y3421D01*
X7125D01*
Y3310D02*
Y3421D01*
X7074Y3310D02*
X7125D01*
X7201D02*
Y3421D01*
X7252D01*
Y3310D02*
Y3421D01*
X7201Y3310D02*
X7252D01*
X7328D02*
Y3421D01*
X7379D01*
Y3310D02*
Y3421D01*
X7328Y3310D02*
X7379D01*
Y2802D02*
Y2913D01*
X7328Y2802D02*
X7379D01*
X7328D02*
Y2913D01*
X7379D01*
X7252Y2802D02*
Y2913D01*
X7201Y2802D02*
X7252D01*
X7201D02*
Y2913D01*
X7252D01*
X7125Y2802D02*
Y2913D01*
X7074Y2802D02*
X7125D01*
X7074D02*
Y2913D01*
X7125D01*
X6998Y2802D02*
Y2913D01*
X6947Y2802D02*
X6998D01*
X6947D02*
Y2913D01*
X6998D01*
X6513Y5679D02*
Y5827D01*
Y5679D02*
X6589D01*
X6513Y5827D02*
X6589D01*
X6441Y5679D02*
Y5827D01*
X6365D02*
X6441D01*
X6365Y5679D02*
X6441D01*
Y5827D02*
X6513D01*
X6365Y5679D02*
Y5827D01*
X6441Y5679D02*
X6513D01*
X6589D02*
Y5827D01*
D39*
X5225Y5692D02*
Y5839D01*
X5298D02*
X5370D01*
X5443Y5692D02*
Y5839D01*
X5298Y5692D02*
X5370D01*
Y5839D02*
X5443D01*
X5370Y5692D02*
X5443D01*
X5370D02*
Y5839D01*
X5225Y5692D02*
X5298D01*
X5225Y5839D02*
X5298D01*
Y5692D02*
Y5839D01*
X3406Y4056D02*
Y4199D01*
X3343D02*
X3406D01*
X3343Y4056D02*
X3406D01*
X3492D02*
Y4199D01*
Y4056D02*
X3556D01*
X3492Y4199D02*
X3556D01*
X3406Y4056D02*
X3492D01*
X3556D02*
Y4199D01*
X3406D02*
X3492D01*
X3343Y4056D02*
Y4199D01*
X3533Y5253D02*
X3680D01*
Y5108D02*
Y5179D01*
X3533Y5034D02*
X3680D01*
X3533Y5108D02*
Y5179D01*
X3680Y5034D02*
Y5108D01*
X3533Y5034D02*
Y5108D01*
X3680D01*
X3533Y5179D02*
Y5253D01*
X3680Y5179D02*
Y5253D01*
X3533Y5179D02*
X3680D01*
X3345Y4511D02*
Y4658D01*
X3419D02*
X3490D01*
X3564Y4511D02*
Y4658D01*
X3419Y4511D02*
X3490D01*
Y4658D02*
X3564D01*
X3490Y4511D02*
X3564D01*
X3490D02*
Y4658D01*
X3345Y4511D02*
X3419D01*
X3345Y4658D02*
X3419D01*
Y4511D02*
Y4658D01*
X5743Y4295D02*
Y4442D01*
X5598Y4295D02*
X5669D01*
X5524D02*
Y4442D01*
X5598D02*
X5669D01*
X5524Y4295D02*
X5598D01*
X5524Y4442D02*
X5598D01*
Y4295D02*
Y4442D01*
X5669D02*
X5743D01*
X5669Y4295D02*
X5743D01*
X5669D02*
Y4442D01*
X7765Y3470D02*
Y3617D01*
X7838D02*
X7910D01*
X7983Y3470D02*
Y3617D01*
X7838Y3470D02*
X7910D01*
Y3617D02*
X7983D01*
X7910Y3470D02*
X7983D01*
X7910D02*
Y3617D01*
X7765Y3470D02*
X7838D01*
X7765Y3617D02*
X7838D01*
Y3470D02*
Y3617D01*
X6543Y6068D02*
X6690D01*
X6543Y6142D02*
Y6213D01*
Y6287D02*
X6690D01*
Y6142D02*
Y6213D01*
X6543D02*
Y6287D01*
X6690Y6213D02*
Y6287D01*
X6543Y6213D02*
X6690D01*
Y6068D02*
Y6142D01*
X6543Y6068D02*
Y6142D01*
X6690D01*
D40*
X2632Y4237D02*
X2829D01*
X2632Y4602D02*
X2829D01*
X2632Y4237D02*
Y4602D01*
X2829Y4237D02*
Y4602D01*
X2937Y4021D02*
X3134D01*
X2937Y4386D02*
X3134D01*
X2937Y4021D02*
Y4386D01*
X3134Y4021D02*
Y4386D01*
X3051Y5186D02*
Y5355D01*
Y5186D02*
X3451D01*
Y5355D01*
X3051D02*
X3451D01*
X4004Y3488D02*
X4200D01*
X4004Y3853D02*
X4200D01*
X4004Y3488D02*
Y3853D01*
X4200Y3488D02*
Y3853D01*
X4296Y3488D02*
X4492D01*
X4296Y3853D02*
X4492D01*
X4296Y3488D02*
Y3853D01*
X4492Y3488D02*
Y3853D01*
X4594Y5820D02*
Y6016D01*
X4220Y5820D02*
Y6016D01*
Y5820D02*
X4594D01*
X4220Y6016D02*
X4594D01*
X4588Y3475D02*
X4785D01*
X4588Y3840D02*
X4785D01*
X4588Y3475D02*
Y3840D01*
X4785Y3475D02*
Y3840D01*
X4207Y6075D02*
Y6244D01*
Y6075D02*
X4607D01*
Y6244D01*
X4207D02*
X4607D01*
X7741Y2734D02*
Y2904D01*
Y2734D02*
X8141D01*
Y2904D01*
X7741D02*
X8141D01*
X5028Y3404D02*
X5258D01*
X5144Y3289D02*
Y3519D01*
X6235Y3404D02*
X6465D01*
X6350Y3289D02*
Y3519D01*
X5567Y3670D02*
X5659D01*
X5613Y3624D02*
Y3716D01*
X5817Y3670D02*
X5909D01*
X5863Y3624D02*
Y3716D01*
X5567Y3870D02*
X5659D01*
X5613Y3824D02*
Y3916D01*
X5817Y3870D02*
X5909D01*
X5863Y3824D02*
Y3916D01*
X2692Y2743D02*
X2769D01*
X2731Y2705D02*
Y2781D01*
X2692Y2997D02*
X2769D01*
X2731Y2959D02*
Y3035D01*
X2692Y3505D02*
X2769D01*
X2731Y3467D02*
Y3543D01*
X3200Y3505D02*
X3277D01*
X3238Y3467D02*
Y3543D01*
X3708Y3505D02*
X3785D01*
X3747Y3467D02*
Y3543D01*
X3708Y2997D02*
X3785D01*
X3747Y2959D02*
Y3035D01*
X3708Y2743D02*
X3785D01*
X3747Y2705D02*
Y2781D01*
X3200Y2997D02*
X3277D01*
X3238Y2959D02*
Y3035D01*
X9036Y3188D02*
X9125D01*
X9081Y3143D02*
Y3233D01*
X8782Y3188D02*
X8871D01*
X8826Y3143D02*
Y3233D01*
X8528Y3188D02*
X8618D01*
X8572Y3143D02*
Y3233D01*
X8274Y3188D02*
X8364D01*
X8318Y3143D02*
Y3233D01*
X8019Y3188D02*
X8110D01*
X8064Y3143D02*
Y3233D01*
X7765Y3188D02*
X7856D01*
X7811Y3143D02*
Y3233D01*
X5705Y4661D02*
X5827D01*
X5766Y4600D02*
Y4722D01*
X5705Y5402D02*
X5827D01*
X5766Y5341D02*
Y5463D01*
X6213Y4928D02*
X6335D01*
X6274Y4867D02*
Y4989D01*
X6478Y5182D02*
X6578D01*
X6528Y5132D02*
Y5232D01*
X8934Y2794D02*
X9252D01*
X9093Y2635D02*
Y2953D01*
X2870Y5969D02*
X2946D01*
X2908Y5931D02*
Y6007D01*
X3378Y5969D02*
X3454D01*
X3416Y5931D02*
Y6007D01*
X4039Y5763D02*
X4110D01*
X4074Y5728D02*
Y5799D01*
X4039Y5502D02*
X4110D01*
X4074Y5466D02*
Y5537D01*
X3851Y4724D02*
X3922D01*
X3886Y4689D02*
Y4760D01*
X3736Y4128D02*
X3807D01*
X3772Y4092D02*
Y4163D01*
X4740Y4026D02*
X4811D01*
X4775Y3990D02*
Y4061D01*
X5324Y3835D02*
X5395D01*
X5359Y3800D02*
Y3871D01*
X5413Y6045D02*
X5484D01*
X5448Y6010D02*
Y6081D01*
X5070Y5867D02*
X5141D01*
X5105Y5832D02*
Y5903D01*
X5565Y5778D02*
X5636D01*
X5601Y5743D02*
Y5814D01*
X4905Y5156D02*
X4976D01*
X4940Y5121D02*
Y5192D01*
X4905Y5321D02*
X4976D01*
X4940Y5286D02*
Y5357D01*
X6099Y4610D02*
X6170D01*
X6134Y4575D02*
Y4646D01*
X7292Y4585D02*
X7363D01*
X7328Y4549D02*
Y4620D01*
X4943Y4623D02*
X5014D01*
X4978Y4587D02*
Y4658D01*
X5019Y4001D02*
X5090D01*
X5055Y3965D02*
Y4036D01*
X8537Y3454D02*
X8608D01*
X8572Y3419D02*
Y3490D01*
X8791Y5588D02*
X8862D01*
X8826Y5552D02*
Y5624D01*
X7902Y5486D02*
X7973D01*
X7938Y5451D02*
Y5522D01*
X5794Y5232D02*
X5865D01*
X5829Y5197D02*
Y5268D01*
X7648Y5309D02*
X7719D01*
X7683Y5273D02*
Y5344D01*
X5841Y5067D02*
X5912D01*
X5876Y5032D02*
Y5103D01*
X7140Y5194D02*
X7211D01*
X7175Y5159D02*
Y5230D01*
X6035Y5067D02*
X6106D01*
X6071Y5032D02*
Y5103D01*
X6886Y3747D02*
X6957D01*
X6921Y3711D02*
Y3782D01*
X4943Y4788D02*
X5014D01*
X4978Y4752D02*
Y4823D01*
X6886Y4915D02*
X6957D01*
X6921Y4879D02*
Y4950D01*
X5895Y4813D02*
X5966D01*
X5931Y4778D02*
Y4849D01*
X7394Y4775D02*
X7465D01*
X7429Y4740D02*
Y4811D01*
X7140Y3772D02*
X7211D01*
X7175Y3736D02*
Y3807D01*
X4308Y4724D02*
X4379D01*
X4343Y4689D02*
Y4760D01*
X4765Y4547D02*
X4836D01*
X4801Y4511D02*
Y4582D01*
X4943Y6408D02*
X5014D01*
X4978Y6373D02*
Y6444D01*
X4595Y5766D02*
X4666D01*
X4630Y5730D02*
Y5801D01*
X2695Y4699D02*
X2766D01*
X2731Y4663D02*
Y4735D01*
X2962Y4496D02*
X3033D01*
X2997Y4460D02*
Y4531D01*
X3406Y4953D02*
X3477D01*
X3442Y4917D02*
Y4989D01*
X3762Y4851D02*
X3833D01*
X3797Y4816D02*
Y4887D01*
X3901Y4521D02*
X3973D01*
X3937Y4486D02*
Y4557D01*
X4067Y4445D02*
X4138D01*
X4102Y4409D02*
Y4481D01*
X3863Y5042D02*
X3934D01*
X3899Y5006D02*
Y5077D01*
X4321Y5182D02*
X4392D01*
X4356Y5146D02*
Y5217D01*
X5184Y4331D02*
X5255D01*
X5220Y4295D02*
Y4366D01*
D41*
X2665Y4381D02*
Y4455D01*
X2796Y4381D02*
Y4458D01*
X2969Y4166D02*
Y4239D01*
X3101Y4166D02*
Y4242D01*
X4036Y3632D02*
Y3706D01*
X4168Y3632D02*
Y3708D01*
X4328Y3632D02*
Y3706D01*
X4460Y3632D02*
Y3708D01*
X4371Y5852D02*
X4445D01*
X4369Y5984D02*
X4445D01*
X4620Y3619D02*
Y3693D01*
X4752Y3619D02*
Y3696D01*
D42*
X3151Y5208D02*
Y5333D01*
Y5208D02*
X3351D01*
Y5333D01*
X3151D02*
X3351D01*
X4307Y6097D02*
Y6222D01*
Y6097D02*
X4507D01*
Y6222D01*
X4307D02*
X4507D01*
X7841Y2757D02*
Y2882D01*
Y2757D02*
X8041D01*
Y2882D01*
X7841D02*
X8041D01*
X4942Y5963D02*
X6082D01*
X4942D02*
Y6433D01*
X6082D01*
Y5963D02*
Y6433D01*
X9296Y4013D02*
Y6299D01*
X10096D01*
X6794D02*
X9296D01*
X6794Y4013D02*
Y6299D01*
Y4013D02*
X9296D01*
X10096D01*
Y6299D01*
D43*
X3301Y4331D02*
X3606D01*
Y4483D01*
X3301D02*
X3606D01*
X3301Y4331D02*
Y4483D01*
X6490Y6033D02*
Y6337D01*
X6337D02*
X6490D01*
X6337Y6033D02*
Y6337D01*
Y6033D02*
X6490D01*
D44*
X4115Y2901D02*
Y2941D01*
X4095Y2921D02*
X4135D01*
X4394Y2898D02*
Y2938D01*
X4374Y2918D02*
X4414D01*
X4686Y2891D02*
Y2931D01*
X4666Y2911D02*
X4706D01*
D45*
X4732Y5938D02*
X6292D01*
X4732D02*
Y6458D01*
X6292D01*
Y5938D02*
Y6458D01*
X6757Y6431D02*
X10132D01*
Y3881D02*
Y6431D01*
X6757Y3881D02*
X10132D01*
X6757D02*
Y6431D01*
D46*
X9274Y6275D02*
Y6195D01*
X9283Y6168D01*
X9292Y6159D01*
X9310Y6150D01*
X9336D01*
X9354Y6159D01*
X9363Y6168D01*
X9372Y6195D01*
Y6275D01*
X9185D01*
X9327Y5974D02*
X9345Y5983D01*
X9363Y6001D01*
X9372Y6019D01*
Y6055D01*
X9363Y6073D01*
X9345Y6090D01*
X9327Y6099D01*
X9301Y6108D01*
X9256D01*
X9229Y6099D01*
X9211Y6090D01*
X9194Y6073D01*
X9185Y6055D01*
Y6019D01*
X9194Y6001D01*
X9211Y5983D01*
X9229Y5974D01*
X9372Y5922D02*
X9185D01*
X9372D02*
Y5841D01*
X9363Y5815D01*
X9354Y5806D01*
X9336Y5797D01*
X9319D01*
X9301Y5806D01*
X9292Y5815D01*
X9283Y5841D01*
Y5922D02*
Y5841D01*
X9274Y5815D01*
X9265Y5806D01*
X9247Y5797D01*
X9220D01*
X9202Y5806D01*
X9194Y5815D01*
X9185Y5841D01*
Y5922D01*
X9372Y5491D02*
Y5608D01*
X9185D01*
Y5491D01*
X9283Y5608D02*
Y5536D01*
X9372Y5460D02*
X9185D01*
X9372D02*
Y5398D01*
X9363Y5371D01*
X9345Y5353D01*
X9327Y5344D01*
X9301Y5335D01*
X9256D01*
X9229Y5344D01*
X9211Y5353D01*
X9194Y5371D01*
X9185Y5398D01*
Y5460D01*
X9327Y5159D02*
X9345Y5168D01*
X9363Y5186D01*
X9372Y5204D01*
Y5240D01*
X9363Y5258D01*
X9345Y5275D01*
X9327Y5284D01*
X9301Y5293D01*
X9256D01*
X9229Y5284D01*
X9211Y5275D01*
X9194Y5258D01*
X9185Y5240D01*
Y5204D01*
X9194Y5186D01*
X9211Y5168D01*
X9229Y5159D01*
X9256D01*
Y5204D02*
Y5159D01*
X9372Y5001D02*
Y5117D01*
X9185D01*
Y5001D01*
X9283Y5117D02*
Y5045D01*
M02*
