G04 Layer_Color=16711935*
%FSLAX42Y42*%
%MOMM*%
G71*
G01*
G75*
%ADD37C,0.25*%
%ADD47C,0.15*%
%ADD48C,0.13*%
%ADD83C,0.05*%
%ADD84C,0.00*%
%ADD85C,0.05*%
%ADD86C,0.03*%
%ADD87C,0.10*%
%ADD88C,0.10*%
%ADD89C,0.20*%
G36*
X4759Y3692D02*
X4614D01*
Y3767D01*
X4759D01*
Y3692D01*
D02*
G37*
G36*
X4467Y3560D02*
X4322D01*
Y3635D01*
X4467D01*
Y3560D01*
D02*
G37*
G36*
Y3705D02*
X4322D01*
Y3780D01*
X4467D01*
Y3705D01*
D02*
G37*
G36*
X4175D02*
X4030D01*
Y3780D01*
X4175D01*
Y3705D01*
D02*
G37*
G36*
X8123Y2592D02*
X8041D01*
Y2882D01*
X8123D01*
Y2592D01*
D02*
G37*
G36*
X7891Y2591D02*
X7576D01*
Y2882D01*
X7891D01*
Y2591D01*
D02*
G37*
G36*
X4175Y3560D02*
X4030D01*
Y3635D01*
X4175D01*
Y3560D01*
D02*
G37*
G36*
X4759Y3547D02*
X4614D01*
Y3622D01*
X4759D01*
Y3547D01*
D02*
G37*
G36*
X3108Y4093D02*
X2963D01*
Y4168D01*
X3108D01*
Y4093D01*
D02*
G37*
G36*
X3433Y5043D02*
X3351D01*
Y5333D01*
X3433D01*
Y5043D01*
D02*
G37*
G36*
X3201Y5042D02*
X2886D01*
Y5333D01*
X3201D01*
Y5042D01*
D02*
G37*
G36*
X4589Y5932D02*
X4517D01*
Y5827D01*
X4452D01*
Y5991D01*
X4507D01*
Y6222D01*
X4589D01*
Y5932D01*
D02*
G37*
G36*
X4357Y5991D02*
X4373D01*
Y5825D01*
X4267D01*
Y5931D01*
X4042D01*
Y6222D01*
X4357D01*
Y5991D01*
D02*
G37*
G36*
X2803Y4309D02*
X2658D01*
Y4384D01*
X2803D01*
Y4309D01*
D02*
G37*
G36*
X3108Y4238D02*
X2963D01*
Y4313D01*
X3108D01*
Y4238D01*
D02*
G37*
G36*
X9296Y4940D02*
X8928D01*
Y5525D01*
X8929D01*
Y5525D01*
X8929D01*
Y5525D01*
X9296D01*
Y4940D01*
D02*
G37*
G36*
X2803Y4454D02*
X2658D01*
Y4529D01*
X2803D01*
Y4454D01*
D02*
G37*
D37*
X3759Y5969D02*
G03*
X3759Y5969I-597J0D01*
G01*
X5311Y5486D02*
G03*
X5311Y5486I-40J0D01*
G01*
X5575Y4547D02*
Y5563D01*
Y4547D02*
X6718D01*
Y5563D01*
X5575D02*
X6718D01*
X2629Y3937D02*
X3848D01*
X2629Y2553D02*
X3848D01*
Y3937D01*
X2629Y2553D02*
Y3937D01*
X4890Y2566D02*
X6605D01*
X4890D02*
Y3404D01*
X6604Y2567D02*
Y4039D01*
X4890D02*
X6604D01*
X4890Y3404D02*
Y4039D01*
X2502Y6642D02*
X9347D01*
X2502Y2426D02*
Y6642D01*
X2515Y2413D02*
X9347D01*
Y6642D01*
D47*
X6914Y3081D02*
G03*
X6912Y3142I-1J30D01*
G01*
X6589Y5679D02*
Y5827D01*
X6441Y5679D02*
X6513D01*
X6365D02*
Y5827D01*
X6441D02*
X6513D01*
X6365Y5679D02*
X6441D01*
X6365Y5827D02*
X6441D01*
Y5679D02*
Y5827D01*
X6513D02*
X6589D01*
X6513Y5679D02*
X6589D01*
X6513D02*
Y5827D01*
X6947Y2913D02*
X6998D01*
X6947Y2802D02*
Y2913D01*
Y2802D02*
X6998D01*
Y2913D01*
X7074D02*
X7125D01*
X7074Y2802D02*
Y2913D01*
Y2802D02*
X7125D01*
Y2913D01*
X7201D02*
X7252D01*
X7201Y2802D02*
Y2913D01*
Y2802D02*
X7252D01*
Y2913D01*
X7328D02*
X7379D01*
X7328Y2802D02*
Y2913D01*
Y2802D02*
X7379D01*
Y2913D01*
X7328Y3310D02*
X7379D01*
Y3421D01*
X7328D02*
X7379D01*
X7328Y3310D02*
Y3421D01*
X7201Y3310D02*
X7252D01*
Y3421D01*
X7201D02*
X7252D01*
X7201Y3310D02*
Y3421D01*
X7074Y3310D02*
X7125D01*
Y3421D01*
X7074D02*
X7125D01*
X7074Y3310D02*
Y3421D01*
X6947Y3310D02*
X6998D01*
Y3421D01*
X6947D02*
X6998D01*
X6947Y3310D02*
Y3421D01*
X7412Y2913D02*
Y3310D01*
X6914D02*
X7412D01*
X6914Y3081D02*
Y3310D01*
Y2913D02*
Y3081D01*
Y2913D02*
X7412D01*
X7437Y2741D02*
Y3482D01*
X6888Y2741D02*
X7437D01*
X6888D02*
Y3482D01*
X7437D01*
X3813Y5298D02*
X3960D01*
X3813Y5375D02*
Y5446D01*
Y5522D02*
X3960D01*
Y5375D02*
Y5446D01*
X3813D02*
Y5522D01*
X3960Y5446D02*
Y5522D01*
X3813Y5446D02*
X3960D01*
Y5298D02*
Y5375D01*
X3813Y5298D02*
Y5375D01*
X3960D01*
X4064Y4280D02*
Y5601D01*
X5385D01*
Y4280D02*
Y5601D01*
X4064Y4280D02*
X5385D01*
X5225Y4552D02*
Y4580D01*
Y4552D02*
X5324D01*
Y4580D01*
X5225D02*
X5324D01*
X5225Y4602D02*
Y4630D01*
Y4602D02*
X5324D01*
Y4630D01*
X5225D02*
X5324D01*
X5225Y4651D02*
Y4679D01*
Y4651D02*
X5324D01*
Y4679D01*
X5225D02*
X5324D01*
X5225Y4702D02*
Y4729D01*
Y4702D02*
X5324D01*
Y4729D01*
X5225D02*
X5324D01*
X5225Y4752D02*
Y4780D01*
Y4752D02*
X5324D01*
Y4780D01*
X5225D02*
X5324D01*
X5225Y4801D02*
Y4829D01*
Y4801D02*
X5324D01*
Y4829D01*
X5225D02*
X5324D01*
X5225Y4851D02*
Y4879D01*
Y4851D02*
X5324D01*
Y4879D01*
X5225D02*
X5324D01*
X5225Y4902D02*
Y4930D01*
Y4902D02*
X5324D01*
Y4930D01*
X5225D02*
X5324D01*
X5225Y4950D02*
Y4978D01*
Y4950D02*
X5324D01*
Y4978D01*
X5225D02*
X5324D01*
X5225Y5001D02*
Y5029D01*
Y5001D02*
X5324D01*
Y5029D01*
X5225D02*
X5324D01*
X5225Y5052D02*
Y5080D01*
Y5052D02*
X5324D01*
Y5080D01*
X5225D02*
X5324D01*
X5225Y5100D02*
Y5128D01*
Y5100D02*
X5324D01*
Y5128D01*
X5225D02*
X5324D01*
X5225Y5151D02*
Y5179D01*
Y5151D02*
X5324D01*
Y5179D01*
X5225D02*
X5324D01*
X5225Y5202D02*
Y5230D01*
Y5202D02*
X5324D01*
Y5230D01*
X5225D02*
X5324D01*
X5225Y5250D02*
Y5278D01*
Y5250D02*
X5324D01*
Y5278D01*
X5225D02*
X5324D01*
X5225Y5314D02*
Y5329D01*
Y5301D02*
Y5314D01*
Y5301D02*
X5324D01*
Y5329D01*
X5225D02*
X5324D01*
X5085Y5441D02*
X5098D01*
X5113D01*
Y5540D01*
X5085D02*
X5113D01*
X5085Y5441D02*
Y5540D01*
X5034Y5441D02*
X5062D01*
Y5540D01*
X5034D02*
X5062D01*
X5034Y5441D02*
Y5540D01*
X4986Y5441D02*
X5014D01*
Y5540D01*
X4986D02*
X5014D01*
X4986Y5441D02*
Y5540D01*
X4935Y5441D02*
X4963D01*
Y5540D01*
X4935D02*
X4963D01*
X4935Y5441D02*
Y5540D01*
X4884Y5441D02*
X4912D01*
Y5540D01*
X4884D02*
X4912D01*
X4884Y5441D02*
Y5540D01*
X4836Y5441D02*
X4864D01*
Y5540D01*
X4836D02*
X4864D01*
X4836Y5441D02*
Y5540D01*
X4785Y5441D02*
X4813D01*
Y5540D01*
X4785D02*
X4813D01*
X4785Y5441D02*
Y5540D01*
X4735Y5441D02*
X4762D01*
Y5540D01*
X4735D02*
X4762D01*
X4735Y5441D02*
Y5540D01*
X4686Y5441D02*
X4714D01*
Y5540D01*
X4686D02*
X4714D01*
X4686Y5441D02*
Y5540D01*
X4635Y5441D02*
X4663D01*
Y5540D01*
X4635D02*
X4663D01*
X4635Y5441D02*
Y5540D01*
X4585Y5441D02*
X4613D01*
Y5540D01*
X4585D02*
X4613D01*
X4585Y5441D02*
Y5540D01*
X4536Y5441D02*
X4564D01*
Y5540D01*
X4536D02*
X4564D01*
X4536Y5441D02*
Y5540D01*
X4486Y5441D02*
X4514D01*
Y5540D01*
X4486D02*
X4514D01*
X4486Y5441D02*
Y5540D01*
X4435Y5441D02*
X4463D01*
Y5540D01*
X4435D02*
X4463D01*
X4435Y5441D02*
Y5540D01*
X4387Y5441D02*
X4415D01*
Y5540D01*
X4387D02*
X4415D01*
X4387Y5441D02*
Y5540D01*
X4336Y5441D02*
X4364D01*
Y5540D01*
X4336D02*
X4364D01*
X4336Y5441D02*
Y5540D01*
X4224Y5301D02*
Y5329D01*
X4125D02*
X4224D01*
X4125Y5301D02*
Y5329D01*
Y5301D02*
X4224D01*
Y5250D02*
Y5278D01*
X4125D02*
X4224D01*
X4125Y5250D02*
Y5278D01*
Y5250D02*
X4224D01*
Y5202D02*
Y5230D01*
X4125D02*
X4224D01*
X4125Y5202D02*
Y5230D01*
Y5202D02*
X4224D01*
Y5151D02*
Y5179D01*
X4125D02*
X4224D01*
X4125Y5151D02*
Y5179D01*
Y5151D02*
X4224D01*
Y5100D02*
Y5128D01*
X4125D02*
X4224D01*
X4125Y5100D02*
Y5128D01*
Y5100D02*
X4224D01*
Y5052D02*
Y5080D01*
X4125D02*
X4224D01*
X4125Y5052D02*
Y5080D01*
Y5052D02*
X4224D01*
Y5001D02*
Y5029D01*
X4125D02*
X4224D01*
X4125Y5001D02*
Y5029D01*
Y5001D02*
X4224D01*
Y4950D02*
Y4978D01*
X4125D02*
X4224D01*
X4125Y4950D02*
Y4978D01*
Y4950D02*
X4224D01*
Y4902D02*
Y4930D01*
X4125D02*
X4224D01*
X4125Y4902D02*
Y4930D01*
Y4902D02*
X4224D01*
Y4851D02*
Y4879D01*
X4125D02*
X4224D01*
X4125Y4851D02*
Y4879D01*
Y4851D02*
X4224D01*
Y4801D02*
Y4829D01*
X4125D02*
X4224D01*
X4125Y4801D02*
Y4829D01*
Y4801D02*
X4224D01*
Y4752D02*
Y4780D01*
X4125D02*
X4224D01*
X4125Y4752D02*
Y4780D01*
Y4752D02*
X4224D01*
Y4702D02*
Y4729D01*
X4125D02*
X4224D01*
X4125Y4702D02*
Y4729D01*
Y4702D02*
X4224D01*
Y4651D02*
Y4679D01*
X4125D02*
X4224D01*
X4125Y4651D02*
Y4679D01*
Y4651D02*
X4224D01*
Y4602D02*
Y4630D01*
X4125D02*
X4224D01*
X4125Y4602D02*
Y4630D01*
Y4602D02*
X4224D01*
Y4552D02*
Y4580D01*
X4125D02*
X4224D01*
X4125Y4552D02*
Y4580D01*
Y4552D02*
X4224D01*
X4336Y4440D02*
X4364D01*
X4336Y4341D02*
Y4440D01*
Y4341D02*
X4364D01*
Y4440D01*
X4387D02*
X4415D01*
X4387Y4341D02*
Y4440D01*
Y4341D02*
X4415D01*
Y4440D01*
X4435D02*
X4463D01*
X4435Y4341D02*
Y4440D01*
Y4341D02*
X4463D01*
Y4440D01*
X4486D02*
X4514D01*
X4486Y4341D02*
Y4440D01*
Y4341D02*
X4514D01*
Y4440D01*
X4536D02*
X4564D01*
X4536Y4341D02*
Y4440D01*
Y4341D02*
X4564D01*
Y4440D01*
X4585D02*
X4613D01*
X4585Y4341D02*
Y4440D01*
Y4341D02*
X4613D01*
Y4440D01*
X4635D02*
X4663D01*
X4635Y4341D02*
Y4440D01*
Y4341D02*
X4663D01*
Y4440D01*
X4686D02*
X4714D01*
X4686Y4341D02*
Y4440D01*
Y4341D02*
X4714D01*
Y4440D01*
X4735D02*
X4762D01*
X4735Y4341D02*
Y4440D01*
Y4341D02*
X4762D01*
Y4440D01*
X4785D02*
X4813D01*
X4785Y4341D02*
Y4440D01*
Y4341D02*
X4813D01*
Y4440D01*
X4836D02*
X4864D01*
X4836Y4341D02*
Y4440D01*
Y4341D02*
X4864D01*
Y4440D01*
X4884D02*
X4912D01*
X4884Y4341D02*
Y4440D01*
Y4341D02*
X4912D01*
Y4440D01*
X4935D02*
X4963D01*
X4935Y4341D02*
Y4440D01*
Y4341D02*
X4963D01*
Y4440D01*
X4986D02*
X5014D01*
X4986Y4341D02*
Y4440D01*
Y4341D02*
X5014D01*
Y4440D01*
X5034D02*
X5062D01*
X5034Y4341D02*
Y4440D01*
Y4341D02*
X5062D01*
Y4440D01*
X5085D02*
X5113D01*
X5085Y4341D02*
Y4440D01*
Y4341D02*
X5113D01*
Y4440D01*
X5098Y5441D02*
X5225Y5314D01*
X4224Y4440D02*
Y5441D01*
Y4440D02*
X5225D01*
Y5441D01*
X4224D02*
X5225D01*
D48*
X10096Y4013D02*
Y6299D01*
X9296Y4013D02*
X10096D01*
X6794D02*
X9296D01*
X6794D02*
Y6299D01*
X9296D01*
X10096D01*
X9296Y4013D02*
Y6299D01*
X6082Y5963D02*
Y6433D01*
X4942D02*
X6082D01*
X4942Y5963D02*
Y6433D01*
Y5963D02*
X6082D01*
X7841Y2882D02*
X8041D01*
Y2757D02*
Y2882D01*
X7841Y2757D02*
X8041D01*
X7841D02*
Y2882D01*
X4307Y6222D02*
X4507D01*
Y6097D02*
Y6222D01*
X4307Y6097D02*
X4507D01*
X4307D02*
Y6222D01*
X3151Y5333D02*
X3351D01*
Y5208D02*
Y5333D01*
X3151Y5208D02*
X3351D01*
X3151D02*
Y5333D01*
D83*
X6757Y3881D02*
Y6431D01*
Y3881D02*
X10132D01*
Y6431D01*
X6757D02*
X10132D01*
X6292Y5938D02*
Y6458D01*
X4732D02*
X6292D01*
X4732Y5938D02*
Y6458D01*
Y5938D02*
X6292D01*
D84*
X6543Y6142D02*
X6690D01*
X6543Y6068D02*
Y6142D01*
X6690Y6068D02*
Y6142D01*
X6543Y6213D02*
X6690D01*
Y6287D01*
X6543Y6213D02*
Y6287D01*
X6690Y6142D02*
Y6213D01*
X6543Y6287D02*
X6690D01*
X6543Y6142D02*
Y6213D01*
Y6068D02*
X6690D01*
X7838Y3470D02*
Y3617D01*
X7765D02*
X7838D01*
X7765Y3470D02*
X7838D01*
X7910D02*
Y3617D01*
Y3470D02*
X7983D01*
X7910Y3617D02*
X7983D01*
X7838Y3470D02*
X7910D01*
X7983D02*
Y3617D01*
X7838D02*
X7910D01*
X7765Y3470D02*
Y3617D01*
X5669Y4295D02*
Y4442D01*
Y4295D02*
X5743D01*
X5669Y4442D02*
X5743D01*
X5598Y4295D02*
Y4442D01*
X5524D02*
X5598D01*
X5524Y4295D02*
X5598D01*
Y4442D02*
X5669D01*
X5524Y4295D02*
Y4442D01*
X5598Y4295D02*
X5669D01*
X5743D02*
Y4442D01*
X3419Y4511D02*
Y4658D01*
X3345D02*
X3419D01*
X3345Y4511D02*
X3419D01*
X3490D02*
Y4658D01*
Y4511D02*
X3564D01*
X3490Y4658D02*
X3564D01*
X3419Y4511D02*
X3490D01*
X3564D02*
Y4658D01*
X3419D02*
X3490D01*
X3345Y4511D02*
Y4658D01*
X3533Y5179D02*
X3680D01*
Y5253D01*
X3533Y5179D02*
Y5253D01*
Y5108D02*
X3680D01*
X3533Y5034D02*
Y5108D01*
X3680Y5034D02*
Y5108D01*
X3533D02*
Y5179D01*
Y5034D02*
X3680D01*
Y5108D02*
Y5179D01*
X3533Y5253D02*
X3680D01*
X3343Y4056D02*
Y4199D01*
X3406D02*
X3492D01*
X3556Y4056D02*
Y4199D01*
X3406Y4056D02*
X3492D01*
Y4199D02*
X3556D01*
X3492Y4056D02*
X3556D01*
X3492D02*
Y4199D01*
X3343Y4056D02*
X3406D01*
X3343Y4199D02*
X3406D01*
Y4056D02*
Y4199D01*
X5298Y5692D02*
Y5839D01*
X5225D02*
X5298D01*
X5225Y5692D02*
X5298D01*
X5370D02*
Y5839D01*
Y5692D02*
X5443D01*
X5370Y5839D02*
X5443D01*
X5298Y5692D02*
X5370D01*
X5443D02*
Y5839D01*
X5298D02*
X5370D01*
X5225Y5692D02*
Y5839D01*
D85*
X7741Y2904D02*
X8141D01*
Y2734D02*
Y2904D01*
X7741Y2734D02*
X8141D01*
X7741D02*
Y2904D01*
X4207Y6244D02*
X4607D01*
Y6075D02*
Y6244D01*
X4207Y6075D02*
X4607D01*
X4207D02*
Y6244D01*
X4785Y3475D02*
Y3840D01*
X4588Y3475D02*
Y3840D01*
X4785D01*
X4588Y3475D02*
X4785D01*
X4220Y6016D02*
X4594D01*
X4220Y5820D02*
X4594D01*
X4220D02*
Y6016D01*
X4594Y5820D02*
Y6016D01*
X4492Y3488D02*
Y3853D01*
X4296Y3488D02*
Y3853D01*
X4492D01*
X4296Y3488D02*
X4492D01*
X4200D02*
Y3853D01*
X4004Y3488D02*
Y3853D01*
X4200D01*
X4004Y3488D02*
X4200D01*
X3051Y5355D02*
X3451D01*
Y5186D02*
Y5355D01*
X3051Y5186D02*
X3451D01*
X3051D02*
Y5355D01*
X3134Y4021D02*
Y4386D01*
X2937Y4021D02*
Y4386D01*
X3134D01*
X2937Y4021D02*
X3134D01*
X2829Y4237D02*
Y4602D01*
X2632Y4237D02*
Y4602D01*
X2829D01*
X2632Y4237D02*
X2829D01*
D86*
X6337Y6033D02*
X6490D01*
X6337D02*
Y6337D01*
X6490D01*
Y6033D02*
Y6337D01*
X3301Y4331D02*
Y4483D01*
X3606D01*
Y4331D02*
Y4483D01*
X3301Y4331D02*
X3606D01*
D87*
X4666Y2911D02*
X4706D01*
X4686Y2891D02*
Y2931D01*
X4374Y2918D02*
X4414D01*
X4394Y2898D02*
Y2938D01*
X4095Y2921D02*
X4135D01*
X4115Y2901D02*
Y2941D01*
D88*
X4752Y3619D02*
Y3696D01*
X4620Y3619D02*
Y3693D01*
X4369Y5984D02*
X4445D01*
X4371Y5852D02*
X4445D01*
X4460Y3632D02*
Y3708D01*
X4328Y3632D02*
Y3706D01*
X4168Y3632D02*
Y3708D01*
X4036Y3632D02*
Y3706D01*
X3101Y4166D02*
Y4242D01*
X2969Y4166D02*
Y4239D01*
X2796Y4381D02*
Y4458D01*
X2665Y4381D02*
Y4455D01*
D89*
X9274Y6275D02*
Y6195D01*
X9283Y6168D01*
X9292Y6159D01*
X9310Y6150D01*
X9336D01*
X9354Y6159D01*
X9363Y6168D01*
X9372Y6195D01*
Y6275D01*
X9185D01*
X9327Y5974D02*
X9345Y5983D01*
X9363Y6001D01*
X9372Y6019D01*
Y6055D01*
X9363Y6073D01*
X9345Y6090D01*
X9327Y6099D01*
X9301Y6108D01*
X9256D01*
X9229Y6099D01*
X9211Y6090D01*
X9194Y6073D01*
X9185Y6055D01*
Y6019D01*
X9194Y6001D01*
X9211Y5983D01*
X9229Y5974D01*
X9372Y5922D02*
X9185D01*
X9372D02*
Y5841D01*
X9363Y5815D01*
X9354Y5806D01*
X9336Y5797D01*
X9319D01*
X9301Y5806D01*
X9292Y5815D01*
X9283Y5841D01*
Y5922D02*
Y5841D01*
X9274Y5815D01*
X9265Y5806D01*
X9247Y5797D01*
X9220D01*
X9202Y5806D01*
X9194Y5815D01*
X9185Y5841D01*
Y5922D01*
X9372Y5491D02*
Y5608D01*
X9185D01*
Y5491D01*
X9283Y5608D02*
Y5536D01*
X9372Y5460D02*
X9185D01*
X9372D02*
Y5398D01*
X9363Y5371D01*
X9345Y5353D01*
X9327Y5344D01*
X9301Y5335D01*
X9256D01*
X9229Y5344D01*
X9211Y5353D01*
X9194Y5371D01*
X9185Y5398D01*
Y5460D01*
X9327Y5159D02*
X9345Y5168D01*
X9363Y5186D01*
X9372Y5204D01*
Y5240D01*
X9363Y5258D01*
X9345Y5275D01*
X9327Y5284D01*
X9301Y5293D01*
X9256D01*
X9229Y5284D01*
X9211Y5275D01*
X9194Y5258D01*
X9185Y5240D01*
Y5204D01*
X9194Y5186D01*
X9211Y5168D01*
X9229Y5159D01*
X9256D01*
Y5204D02*
Y5159D01*
X9372Y5001D02*
Y5117D01*
X9185D01*
Y5001D01*
X9283Y5117D02*
Y5045D01*
M02*
