G04 Layer_Color=16711935*
%FSLAX42Y42*%
%MOMM*%
G71*
G01*
G75*
%ADD76C,1.73*%
%ADD77C,3.38*%
%ADD78R,1.70X1.70*%
%ADD79C,1.70*%
%ADD80R,1.73X1.73*%
%ADD81C,2.60*%
%ADD82C,1.47*%
D76*
X3416Y5969D02*
D03*
X2908D02*
D03*
X6528Y5182D02*
D03*
X6274Y4928D02*
D03*
X5766Y5402D02*
D03*
Y4661D02*
D03*
X3747Y2743D02*
D03*
Y2997D02*
D03*
X3238Y3505D02*
D03*
X2731Y2997D02*
D03*
Y2743D02*
D03*
X5863Y3870D02*
D03*
X5613Y3870D02*
D03*
X5863Y3670D02*
D03*
X5613D02*
D03*
D77*
X9093Y2794D02*
D03*
D78*
X7811Y3188D02*
D03*
D79*
X8064D02*
D03*
X8318D02*
D03*
X8572D02*
D03*
X8826D02*
D03*
X9081D02*
D03*
D80*
X3238Y2997D02*
D03*
X3747Y3505D02*
D03*
X2731D02*
D03*
D81*
X6350Y3404D02*
D03*
X5144D02*
D03*
D82*
X5677Y4801D02*
D03*
X5220Y4331D02*
D03*
X4356Y5182D02*
D03*
X3899Y5042D02*
D03*
X4102Y4445D02*
D03*
X3937Y4521D02*
D03*
X3797Y4851D02*
D03*
X3442Y4953D02*
D03*
X2997Y4496D02*
D03*
X2731Y4699D02*
D03*
X4630Y5766D02*
D03*
X4978Y6408D02*
D03*
X4801Y4547D02*
D03*
X4343Y4724D02*
D03*
X7175Y3772D02*
D03*
X7429Y4775D02*
D03*
X5931Y4813D02*
D03*
X6921Y4915D02*
D03*
X4978Y4788D02*
D03*
X6921Y3747D02*
D03*
X6071Y5067D02*
D03*
X7175Y5194D02*
D03*
X5876Y5067D02*
D03*
X7683Y5309D02*
D03*
X5829Y5232D02*
D03*
X7938Y5486D02*
D03*
X8826Y5588D02*
D03*
X8572Y3454D02*
D03*
X5055Y4001D02*
D03*
X4978Y4623D02*
D03*
X7328Y4585D02*
D03*
X6134Y4610D02*
D03*
X4940Y5321D02*
D03*
Y5156D02*
D03*
X5601Y5778D02*
D03*
X5105Y5867D02*
D03*
X5448Y6045D02*
D03*
X5359Y3835D02*
D03*
X4775Y4026D02*
D03*
X3772Y4128D02*
D03*
X3886Y4724D02*
D03*
X4074Y5502D02*
D03*
Y5763D02*
D03*
M02*
