G04 Layer_Physical_Order=1*
G04 Layer_Color=255*
%FSLAX42Y42*%
%MOMM*%
G71*
G01*
G75*
%ADD10R,2.03X2.03*%
%ADD11R,1.45X0.91*%
%ADD12R,5.60X2.10*%
%ADD13R,1.40X1.10*%
%ADD14R,1.15X1.00*%
%ADD15R,1.12X1.45*%
%ADD16R,1.50X0.80*%
%ADD17R,0.80X0.55*%
%ADD18R,0.56X2.18*%
%ADD19R,1.20X0.80*%
%ADD20R,0.91X1.45*%
%ADD21R,1.10X1.40*%
%ADD22R,1.50X1.50*%
%ADD23R,1.50X1.30*%
%ADD24R,1.30X1.50*%
%ADD25R,1.45X1.12*%
%ADD26R,0.80X1.20*%
%ADD27R,1.02X1.40*%
%ADD28R,0.28X1.47*%
%ADD29R,0.24X1.47*%
%ADD30R,0.25X1.47*%
%ADD31R,0.25X1.47*%
%ADD32R,1.47X0.28*%
%ADD33R,1.47X0.25*%
%ADD34R,1.47X0.25*%
%ADD35R,1.47X0.24*%
%ADD36R,1.47X0.23*%
%ADD37C,0.25*%
%ADD38C,1.52*%
%ADD39C,3.17*%
%ADD40R,1.50X1.50*%
%ADD41C,1.50*%
%ADD42R,1.52X1.52*%
%ADD43C,2.40*%
%ADD44C,1.27*%
D10*
X8192Y6299D02*
D03*
X7938D02*
D03*
X7683D02*
D03*
X7429D02*
D03*
X7175D02*
D03*
X6921D02*
D03*
X8192Y4013D02*
D03*
X7938D02*
D03*
X7683D02*
D03*
X7429D02*
D03*
X7175D02*
D03*
X6921D02*
D03*
D11*
X6617Y6096D02*
D03*
Y6259D02*
D03*
X3607Y5225D02*
D03*
Y5062D02*
D03*
D12*
X5987Y6198D02*
D03*
X5037D02*
D03*
D13*
X6744Y3049D02*
D03*
Y3199D02*
D03*
D14*
X7823Y2819D02*
D03*
X8058D02*
D03*
X4289Y6160D02*
D03*
X4524D02*
D03*
X3134Y5271D02*
D03*
X3369D02*
D03*
D15*
X6386Y5753D02*
D03*
X6568D02*
D03*
D16*
X3086Y4737D02*
D03*
Y4927D02*
D03*
X2826Y4832D02*
D03*
D17*
X2825Y5155D02*
D03*
Y5285D02*
D03*
X2610Y5220D02*
D03*
D18*
X6972Y2875D02*
D03*
X7099D02*
D03*
X7226D02*
D03*
X7353D02*
D03*
Y3348D02*
D03*
X7226D02*
D03*
X7099D02*
D03*
X6972D02*
D03*
D19*
X6414Y6095D02*
D03*
Y6275D02*
D03*
D20*
X7793Y3543D02*
D03*
X7955D02*
D03*
X5715Y4369D02*
D03*
X5552D02*
D03*
X3373Y4585D02*
D03*
X3536D02*
D03*
X5253Y5766D02*
D03*
X5415D02*
D03*
D21*
X6057Y5778D02*
D03*
X5907D02*
D03*
X5486Y4166D02*
D03*
X5336D02*
D03*
X3529Y4775D02*
D03*
X3379D02*
D03*
X4953Y5766D02*
D03*
X4803D02*
D03*
D22*
X4686Y3086D02*
D03*
Y2736D02*
D03*
X4394Y3093D02*
D03*
Y2743D02*
D03*
X4115Y3096D02*
D03*
Y2746D02*
D03*
D23*
X4686Y3753D02*
D03*
Y3563D02*
D03*
X4394Y3765D02*
D03*
Y3575D02*
D03*
X4102Y3765D02*
D03*
Y3575D02*
D03*
X3035Y4299D02*
D03*
Y4109D02*
D03*
X2731Y4515D02*
D03*
Y4325D02*
D03*
D24*
X4312Y5918D02*
D03*
X4502D02*
D03*
D25*
X3886Y5502D02*
D03*
Y5319D02*
D03*
D26*
X3363Y4407D02*
D03*
X3543D02*
D03*
D27*
Y4128D02*
D03*
X3355D02*
D03*
D28*
X5100Y5502D02*
D03*
X5050D02*
D03*
X4950D02*
D03*
X4900D02*
D03*
X4801D02*
D03*
X4750D02*
D03*
X4699D02*
D03*
X4600D02*
D03*
X4549D02*
D03*
X4450D02*
D03*
X4399D02*
D03*
X4348D02*
D03*
Y4379D02*
D03*
X4399D02*
D03*
X4450D02*
D03*
X4549D02*
D03*
X4600D02*
D03*
X4699D02*
D03*
X4750D02*
D03*
X4801D02*
D03*
X4900D02*
D03*
X5050D02*
D03*
X5100D02*
D03*
D29*
X4999Y5502D02*
D03*
D30*
X4849D02*
D03*
X4498Y4379D02*
D03*
X4648D02*
D03*
X4849D02*
D03*
X4950D02*
D03*
X4999D02*
D03*
D31*
X4648Y5502D02*
D03*
X4498D02*
D03*
D32*
X4163Y5316D02*
D03*
Y5265D02*
D03*
Y5166D02*
D03*
Y5116D02*
D03*
Y5017D02*
D03*
Y4966D02*
D03*
Y4915D02*
D03*
Y4816D02*
D03*
Y4765D02*
D03*
Y4666D02*
D03*
Y4615D02*
D03*
Y4564D02*
D03*
X5286D02*
D03*
Y4615D02*
D03*
Y4666D02*
D03*
Y4765D02*
D03*
Y4816D02*
D03*
Y4915D02*
D03*
Y4966D02*
D03*
Y5017D02*
D03*
Y5116D02*
D03*
Y5166D02*
D03*
Y5265D02*
D03*
Y5316D02*
D03*
D33*
X4163Y5215D02*
D03*
Y5065D02*
D03*
D34*
Y4864D02*
D03*
Y4714D02*
D03*
D35*
X5286D02*
D03*
Y5065D02*
D03*
Y5215D02*
D03*
D36*
Y4864D02*
D03*
D37*
X5752D02*
X5880D01*
X5717Y4898D02*
X5752Y4864D01*
X5636Y4898D02*
X5717D01*
X5602Y4864D02*
X5636Y4898D01*
X5286Y4864D02*
X5602D01*
X5880D02*
X5931Y4813D01*
X7729Y3188D02*
X7793Y3251D01*
X6375Y6259D02*
X6430D01*
X5133Y4379D02*
X5169Y4343D01*
X5100Y4379D02*
X5133D01*
X4163Y5166D02*
Y5215D01*
Y5116D02*
Y5166D01*
X3899Y5042D02*
X4026Y4915D01*
X3805Y5151D02*
Y5190D01*
X3769Y5116D02*
X3805Y5151D01*
X3769Y5077D02*
Y5116D01*
X3740Y5047D02*
X3769Y5077D01*
X3740Y5005D02*
Y5047D01*
X3719Y5098D02*
Y5667D01*
X3683Y5062D02*
X3719Y5098D01*
X3840Y5225D02*
X3974D01*
X3805Y5190D02*
X3840Y5225D01*
X4115Y4458D02*
X4163Y4506D01*
Y4564D01*
X4031Y4615D02*
X4163D01*
X3937Y4521D02*
X4031Y4615D01*
X3810Y4864D02*
X4163D01*
X3797Y4851D02*
X3810Y4864D01*
X3379Y4853D02*
X3442Y4915D01*
X3379Y4775D02*
Y4853D01*
X3393Y5062D02*
X3607D01*
X3284Y4953D02*
X3393Y5062D01*
X3421Y5162D02*
X3484Y5225D01*
X3346Y5162D02*
X3421D01*
X3233Y4974D02*
X3296Y5037D01*
Y5112D01*
X3484Y5225D02*
X3607D01*
X3296Y5112D02*
X3346Y5162D01*
X3233Y4894D02*
Y4974D01*
X5486Y4303D02*
X5552Y4369D01*
X5486Y4166D02*
Y4303D01*
X4450Y5502D02*
X4498D01*
X4399D02*
X4401D01*
X4409Y5493D01*
Y5349D02*
Y5493D01*
Y5349D02*
X4498D01*
Y5502D01*
X4163Y5265D02*
Y5316D01*
X4026Y4915D02*
X4163D01*
X3975Y4813D02*
X4039D01*
X3886Y4724D02*
X3975Y4813D01*
X4039D02*
X4041Y4816D01*
X3666Y4931D02*
X3740Y5005D01*
X3666Y4657D02*
Y4931D01*
X3997Y5247D02*
Y5262D01*
X3974Y5225D02*
X3997Y5247D01*
X3594Y4585D02*
X3666Y4657D01*
X2997Y4420D02*
Y4470D01*
Y4420D02*
X3035Y4381D01*
Y4299D02*
Y4381D01*
X4686Y3086D02*
Y3563D01*
X4394Y3093D02*
Y3575D01*
X4102Y3340D02*
Y3575D01*
Y3340D02*
X4115Y3327D01*
Y3096D02*
Y3327D01*
X3747Y3175D02*
Y3505D01*
X3454Y2883D02*
X3747Y3175D01*
X3101Y2883D02*
X3454D01*
X3035Y2949D02*
X3101Y2883D01*
X3035Y2949D02*
Y4102D01*
X3543Y3302D02*
Y4128D01*
X3238Y2997D02*
X3543Y3302D01*
X2731Y3505D02*
Y4325D01*
X4978Y6198D02*
X5037D01*
X4978D02*
Y6408D01*
X4630Y5751D02*
X4803D01*
Y5766D01*
X5987Y6026D02*
Y6198D01*
X5907Y5946D02*
X5987Y6026D01*
X5907Y5778D02*
Y5946D01*
X4524Y6050D02*
Y6160D01*
X4502Y6027D02*
X4524Y6050D01*
X4502Y5918D02*
Y6027D01*
Y5918D02*
X4877D01*
X4953Y5842D01*
Y5766D02*
Y5842D01*
X5286Y5215D02*
X5415Y5245D01*
Y5495D02*
X5588Y5668D01*
X6020D01*
X6057Y5705D01*
Y5778D01*
X6543Y5867D02*
X6568Y5842D01*
Y5753D02*
Y5842D01*
X6617Y6259D02*
X6708D01*
X6769Y6198D01*
X7722Y4331D02*
X7849Y4204D01*
Y4102D02*
Y4204D01*
Y4102D02*
X7938Y4013D01*
X8192D01*
X7938Y3795D02*
Y4013D01*
Y3795D02*
X7955Y3777D01*
Y3543D02*
Y3777D01*
X7823Y2891D02*
X7935Y3002D01*
X7823Y2819D02*
Y2891D01*
X6972Y2875D02*
Y2997D01*
X6920Y3049D02*
X6972Y2997D01*
X6744Y3049D02*
X6920D01*
X6502D02*
X6744D01*
X6350Y3202D02*
X6502Y3049D01*
X6350Y3202D02*
Y3404D01*
X3529Y4682D02*
Y4775D01*
Y4682D02*
X3536Y4676D01*
Y4585D02*
Y4676D01*
X5738Y3796D02*
Y4174D01*
Y3796D02*
X5863Y3670D01*
X3536Y4498D02*
Y4585D01*
Y4498D02*
X3543Y4491D01*
Y4407D02*
Y4491D01*
Y4343D02*
Y4407D01*
X3200Y4927D02*
X3233Y4894D01*
X3086Y4927D02*
X3200D01*
X3233Y4359D02*
X3284Y4308D01*
X3233Y5202D02*
X3302Y5271D01*
X3369D01*
X5144Y3193D02*
Y3404D01*
X4686Y2736D02*
X5144Y3193D01*
X4544Y2736D02*
X4686D01*
X4536Y2743D02*
X4544Y2736D01*
X4394Y2743D02*
X4536D01*
X4255D02*
X4394D01*
X4252Y2746D02*
X4255Y2743D01*
X4115Y2746D02*
X4252D01*
X2997Y4927D02*
X3086D01*
X2972Y4902D02*
X2997Y4927D01*
X3104Y2629D02*
X3998D01*
X4115Y2746D01*
X7988Y2819D02*
X8058D01*
X7889Y2720D02*
X7988Y2819D01*
X7508Y2720D02*
X7889D01*
X7353Y2875D02*
X7508Y2720D01*
X7353Y2738D02*
Y2875D01*
X7264Y2649D02*
X7353Y2738D01*
X6198Y2649D02*
X7264D01*
X6096Y2751D02*
X6198Y2649D01*
X6096Y2751D02*
Y3637D01*
X5863Y3870D02*
X6096Y3637D01*
X5253Y5766D02*
Y5893D01*
X5138Y6007D02*
X5253Y5893D01*
X4775Y6007D02*
X5138D01*
X4669Y6114D02*
X4775Y6007D01*
X4669Y6114D02*
Y6198D01*
X4608Y6258D02*
X4669Y6198D01*
X4318Y6258D02*
X4608D01*
X4289Y6229D02*
X4318Y6258D01*
X4289Y6160D02*
Y6229D01*
X5715Y4369D02*
X6172D01*
X6274Y4470D01*
Y4928D01*
X4450Y5502D02*
Y5588D01*
X4312Y5710D02*
X4328D01*
X4312D02*
Y5918D01*
X4289Y6050D02*
X4312Y6027D01*
Y5918D02*
Y6027D01*
X2825Y5155D02*
X2921D01*
X3037Y5271D01*
X3134D01*
X3914Y5918D02*
X4312D01*
X3863Y5969D02*
X3914Y5918D01*
X3416Y5969D02*
X3863D01*
X3134Y5271D02*
Y5686D01*
X3416Y5969D01*
X3719Y5667D01*
X3607Y5062D02*
X3683D01*
X3284Y4623D02*
Y4953D01*
Y4623D02*
X3322Y4585D01*
X3373D01*
Y4501D02*
Y4585D01*
X3363Y4491D02*
X3373Y4501D01*
X3363Y4407D02*
Y4491D01*
X2743Y4832D02*
X2826D01*
X3810Y5319D02*
X3886D01*
X3774Y5354D02*
X3810Y5319D01*
X3774Y5354D02*
Y5616D01*
X4534Y4719D02*
Y5149D01*
X4050Y4235D02*
X4534Y4719D01*
X3454Y4235D02*
X4050D01*
X3454Y4051D02*
Y4235D01*
X3404Y4001D02*
X3454Y4051D01*
X3297Y4001D02*
X3404D01*
X3183Y4115D02*
X3297Y4001D01*
X3183Y4115D02*
Y4724D01*
X3170Y4737D02*
X3183Y4724D01*
X3086Y4737D02*
X3170D01*
X6386Y5588D02*
Y5753D01*
X6199Y5402D02*
X6386Y5588D01*
X5766Y5402D02*
X6199D01*
X4051Y5316D02*
X4163D01*
X3997Y5262D02*
X4051Y5316D01*
X4163Y5166D02*
X4313D01*
X3529Y4775D02*
Y4790D01*
X4630Y5766D02*
X4803D01*
X2610Y5220D02*
X2659D01*
X2743Y5304D01*
Y5804D01*
X2908Y5969D01*
X7226Y3048D02*
X7290Y3111D01*
X7793Y3251D02*
Y3543D01*
X7112Y3199D02*
X7226Y3085D01*
X6744Y3199D02*
X7112D01*
X7955Y3218D02*
Y3543D01*
X7935Y3198D02*
X7955Y3218D01*
X7935Y3150D02*
Y3198D01*
Y3150D02*
X8082Y3002D01*
X8133D01*
X8318Y3188D01*
X6057Y5778D02*
Y5867D01*
X6198D01*
X6314Y6198D02*
X6375Y6259D01*
X6198Y5867D02*
X6314Y5984D01*
Y6198D01*
X6414Y6275D02*
X6430Y6259D01*
X5542Y5402D02*
X5766D01*
X5466Y5326D02*
X5542Y5402D01*
X5466Y5205D02*
Y5326D01*
X5376Y5116D02*
X5466Y5205D01*
X5286Y5116D02*
X5376D01*
X4801Y4547D02*
X4835Y4512D01*
X4303Y4765D02*
X4343Y4724D01*
X4163Y4765D02*
X4303D01*
X5286Y5215D02*
Y5265D01*
X7175Y3772D02*
Y4013D01*
X5286Y4765D02*
X5629D01*
X7429Y4775D02*
Y6299D01*
X6921Y4915D02*
Y6299D01*
X4978Y4788D02*
X5105Y4915D01*
X6921Y3747D02*
Y4013D01*
X5286Y4966D02*
X5969D01*
X6071Y5067D01*
X7175Y5194D02*
Y6299D01*
X5286Y5017D02*
X5677D01*
X5728Y5067D01*
X5876D01*
X7683Y5309D02*
Y6299D01*
X5286Y5065D02*
X5408D01*
X5474Y5131D01*
X5728D01*
X5829Y5232D01*
X7938Y5486D02*
Y6299D01*
X8826Y3188D02*
Y5588D01*
X4801Y5245D02*
Y5502D01*
X8572Y3188D02*
Y3454D01*
X4999Y4056D02*
X5055Y4001D01*
X3508Y4308D02*
X3543Y4343D01*
X3355Y4216D02*
X3447Y4308D01*
X3355Y4128D02*
Y4216D01*
X7226Y2875D02*
Y3048D01*
X7290Y3111D02*
X7653D01*
X7729Y3188D02*
X7811D01*
X6708Y3199D02*
Y5800D01*
Y3199D02*
X6744D01*
X6414Y6095D02*
X6662Y5846D01*
Y5080D02*
Y5846D01*
X6510Y4928D02*
X6662Y5080D01*
X6274Y4928D02*
X6510D01*
X3233Y4975D02*
Y5202D01*
Y4359D02*
Y4894D01*
X7935Y3002D02*
Y3150D01*
X5415Y5495D02*
Y5766D01*
X6198Y5867D02*
X6543D01*
X6430Y6259D02*
X6617D01*
X7226Y3048D02*
Y3085D01*
X7653Y3111D02*
X7729Y3188D01*
X6662Y5846D02*
X6708Y5800D01*
X2743Y4832D02*
Y5304D01*
X3284Y4308D02*
X3447D01*
X3508D01*
X4978Y4623D02*
X5187D01*
X5409Y4512D02*
X5552Y4369D01*
X5195Y4615D02*
X5286D01*
X5187Y4623D02*
X5195Y4615D01*
X8064Y3188D02*
X8242Y3365D01*
Y3594D01*
X8471Y3823D01*
Y4102D01*
X7988Y4585D02*
X8471Y4102D01*
X6769Y4470D02*
Y6198D01*
X6909Y4331D02*
X7722D01*
X6769Y4470D02*
X6909Y4331D01*
X7328Y4585D02*
X7988D01*
X5969Y4610D02*
X6134D01*
X5906Y4547D02*
X5969Y4610D01*
X5486Y4547D02*
X5906D01*
X5470Y4563D02*
X5486Y4547D01*
X5286Y4563D02*
X5470D01*
X4900Y5362D02*
Y5502D01*
Y5362D02*
X4940Y5321D01*
X4890Y5156D02*
X4940D01*
X4801Y5245D02*
X4890Y5156D01*
X5601Y5778D02*
X5907D01*
X5100Y5502D02*
X5286Y5316D01*
X4849Y5502D02*
Y5603D01*
X4803Y5649D02*
X4849Y5603D01*
X4803Y5649D02*
Y5751D01*
X4496Y5912D02*
X4502Y5918D01*
X4496Y5728D02*
Y5912D01*
Y5728D02*
X4549Y5674D01*
Y5502D02*
Y5674D01*
X5100Y5502D02*
Y5613D01*
X5253Y5766D01*
X5286Y5166D02*
Y5215D01*
X4953Y5766D02*
X5042Y5855D01*
X5448Y5918D02*
Y6045D01*
X5415Y5885D02*
X5448Y5918D01*
X5415Y5766D02*
Y5885D01*
X5552Y4359D02*
X5738Y4174D01*
X5552Y4359D02*
Y4369D01*
X5144Y4166D02*
X5336D01*
X5080Y3670D02*
X5613D01*
X6604Y2567D02*
X6605Y2566D01*
X5420Y3870D02*
X5613D01*
X5372Y3823D02*
X5420Y3870D01*
X4775Y4026D02*
Y4077D01*
X4940Y3810D02*
X5080Y3670D01*
X4940Y3810D02*
Y4115D01*
X4948Y4122D01*
Y4153D01*
X4775Y4077D02*
X4900Y4201D01*
Y4379D01*
X5050Y4260D02*
X5144Y4166D01*
X5050Y4260D02*
Y4379D01*
X4999Y4056D02*
Y4379D01*
X4950Y4155D02*
Y4379D01*
X4948Y4153D02*
X4950Y4155D01*
X4102Y3765D02*
Y3962D01*
X4347Y4208D01*
Y4379D01*
X4394Y3765D02*
X4399Y3770D01*
X4686Y3753D02*
Y3861D01*
X4450Y4097D02*
X4686Y3861D01*
X4399Y3770D02*
Y4379D01*
X4450Y4097D02*
Y4379D01*
X3543Y4128D02*
X3772D01*
X3536Y4585D02*
X3594D01*
X4041Y4816D02*
X4163D01*
X2845Y2888D02*
X3104Y2629D01*
X2731Y4515D02*
Y4674D01*
X2845Y4686D02*
X2896Y4737D01*
X2972Y4769D02*
Y4902D01*
X2896Y4737D02*
X2940D01*
X2972Y4769D01*
X2845Y2888D02*
Y4686D01*
X5105Y4915D02*
X5286D01*
X3774Y5616D02*
X3810Y5651D01*
X4115D01*
X4229Y5453D02*
X4534Y5149D01*
X4229Y5453D02*
Y5537D01*
X4115Y5651D02*
X4229Y5537D01*
X3886Y5502D02*
X4074D01*
Y5763D02*
X4155D01*
X4347Y5571D01*
Y5502D02*
Y5571D01*
X5415Y5245D02*
Y5495D01*
X4328Y5710D02*
X4450Y5588D01*
X4835Y4512D02*
X5409D01*
X4289Y6050D02*
Y6160D01*
D38*
X3416Y5969D02*
D03*
X2908D02*
D03*
X6528Y5182D02*
D03*
X6274Y4928D02*
D03*
X5766Y5402D02*
D03*
Y4661D02*
D03*
X3747Y2743D02*
D03*
Y2997D02*
D03*
X3238Y3505D02*
D03*
X2731Y2997D02*
D03*
Y2743D02*
D03*
X5863Y3870D02*
D03*
X5613Y3870D02*
D03*
X5863Y3670D02*
D03*
X5613D02*
D03*
D39*
X9093Y2794D02*
D03*
D40*
X7811Y3188D02*
D03*
D41*
X8064D02*
D03*
X8318D02*
D03*
X8572D02*
D03*
X8826D02*
D03*
X9081D02*
D03*
D42*
X3238Y2997D02*
D03*
X3747Y3505D02*
D03*
X2731D02*
D03*
D43*
X6350Y3404D02*
D03*
X5144D02*
D03*
D44*
X5677Y4801D02*
D03*
X5220Y4331D02*
D03*
X4356Y5182D02*
D03*
X3899Y5042D02*
D03*
X4102Y4445D02*
D03*
X3937Y4521D02*
D03*
X3797Y4851D02*
D03*
X3442Y4953D02*
D03*
X2997Y4496D02*
D03*
X2731Y4699D02*
D03*
X4630Y5766D02*
D03*
X4978Y6408D02*
D03*
X4801Y4547D02*
D03*
X4343Y4724D02*
D03*
X7175Y3772D02*
D03*
X7429Y4775D02*
D03*
X5931Y4813D02*
D03*
X6921Y4915D02*
D03*
X4978Y4788D02*
D03*
X6921Y3747D02*
D03*
X6071Y5067D02*
D03*
X7175Y5194D02*
D03*
X5876Y5067D02*
D03*
X7683Y5309D02*
D03*
X5829Y5232D02*
D03*
X7938Y5486D02*
D03*
X8826Y5588D02*
D03*
X8572Y3454D02*
D03*
X5055Y4001D02*
D03*
X4978Y4623D02*
D03*
X7328Y4585D02*
D03*
X6134Y4610D02*
D03*
X4940Y5321D02*
D03*
Y5156D02*
D03*
X5601Y5778D02*
D03*
X5105Y5867D02*
D03*
X5448Y6045D02*
D03*
X5359Y3835D02*
D03*
X4775Y4026D02*
D03*
X3772Y4128D02*
D03*
X3886Y4724D02*
D03*
X4074Y5502D02*
D03*
Y5763D02*
D03*
M02*
