M48
;Layer_Color=9474304
;FILE_FORMAT=2:5
INCH,TZ
;TYPE=PLATED
T1F00S00C0.02800
T2F00S00C0.03000
T3F00S00C0.03543
T4F00S00C0.03622
T5F00S00C0.03937
T6F00S00C0.04803
T7F00S00C0.09055
;TYPE=NON_PLATED
T8F00S00C0.12500
%
T01
X211000Y151000
X272500Y147500
X282500Y148500
X337500Y136000
X347500Y220000
X312500Y216000
X302500Y209000
X282500Y204500
X272500Y193500
X292500Y188000
X288500Y180500
X241500Y181500
X233500Y189500
X223500Y189000
X231343Y199500
X239000
X229500Y206000
X220500Y227500
X214500Y238000
X201000Y231000
X182300Y227000
X160400Y226900
Y216600
X171500Y204000
X171000Y186000
X161500Y175000
X189000Y179000
X196000Y182000
Y188500
X194500Y203000
Y209500
X196000Y252300
X205500Y170500
X199000Y157500
X188000Y158500
X148500Y162500
X155000Y178000
X153000Y186000
X149500Y191000
X153500Y198500
X135500Y195000
X118000Y177000
X107500Y185000
T02
X107500Y108000
Y118000
X127500
X147500
Y108000
Y138000
X127500
X107500
X114500Y235000
X134500
T03
X307500Y125500
X317500
X327500
X337500
X347500
X357500
T04
X221000Y144500
Y152374
X230843Y152362
Y144500
T05
X257000Y204000
T06
X227000Y183500
Y212673
X247000Y194000
T07
X202500Y134000
X250000
T08
X358000Y110000
M30
