%FSTAX23Y23*%
%MOIN*%
%SFA1B1*%

%IPPOS*%
%ADD9500C,0.023620*%
%ADD9501C,0.028000*%
%ADD9502C,0.031500*%
%ADD9503C,0.035430*%
%ADD9504C,0.039370*%
%ADD9505C,0.055000*%
%ADD9506C,0.059060*%
%ADD9507C,0.066000*%
%ADD9508C,0.157480*%
%ADD9509C,0.162000*%
%LNchicker-1*%
%LPD*%
G54D9500*
X03281Y0194D03*
X03418D03*
G54D9501*
X0312Y01365D03*
X0352Y01225D03*
X039Y0124D03*
X03735Y0145D03*
X0372Y01755D03*
X0377Y0204D03*
X0384Y02255D03*
X0396Y02165D03*
X03565Y02355D03*
X0332Y02365D03*
X03275Y02415D03*
X0322Y0207D03*
X0347Y0206D03*
X03015Y02125D03*
X02805Y0286D03*
X02605Y0384D03*
X02535Y038D03*
X0247D03*
X02505Y03885D03*
X0244Y04085D03*
X02595Y04105D03*
X02655Y0417D03*
X0245Y04355D03*
X0334Y0434D03*
X0328Y04245D03*
X03515Y04185D03*
X03465Y04435D03*
X03945Y0431D03*
X0402Y0468D03*
X03185Y0397D03*
X02925Y0494D03*
G54D9502*
X03715Y02253D03*
Y0245D03*
X03835Y04475D03*
Y04671D03*
G54D9503*
X0327Y01565D03*
Y01665D03*
X0337D03*
X0347D03*
X0357D03*
X0367D03*
X0377D03*
Y01565D03*
X0367D03*
X0357D03*
X0347D03*
X0337D03*
X05395Y0493D03*
X05495D03*
X0567Y04925D03*
X0577D03*
G54D9504*
X03965Y04015D03*
X0429Y04415D03*
X04625Y0457D03*
G54D9505*
X0319Y0453D03*
Y04745D03*
Y0496D03*
G54D9506*
X0385Y02605D03*
G54D9507*
X05335Y04475D03*
X0555D03*
X05765D03*
X04614Y0489D03*
X044D03*
X04185D03*
G54D9508*
X03225Y0128D03*
X02795Y0365D03*
G54D9509*
X0239Y04745D03*
M02*