G04 Layer_Color=16711935*
%FSLAX25Y25*%
%MOIN*%
G70*
G01*
G75*
%ADD99R,0.27500X0.19500*%
%ADD113C,0.12611*%
%ADD114R,0.06706X0.06706*%
%ADD115C,0.06706*%
%ADD116C,0.03162*%
%ADD117R,0.05162X0.05162*%
%ADD118O,0.10700X0.20600*%
%ADD119O,0.17300X0.09050*%
%ADD120C,0.17000*%
%ADD121C,0.06800*%
%ADD122C,0.08674*%
%ADD123C,0.05800*%
D99*
X406750Y336750D02*
D03*
Y231750D02*
D03*
X406250Y126250D02*
D03*
D113*
X383500Y447500D02*
D03*
Y467185D02*
D03*
X371500Y225315D02*
D03*
Y245000D02*
D03*
D114*
X327000Y156500D02*
D03*
X549500Y493000D02*
D03*
X577000Y492500D02*
D03*
D115*
X337000Y156500D02*
D03*
X347000D02*
D03*
X357000D02*
D03*
X367000D02*
D03*
X377000D02*
D03*
X327000Y166500D02*
D03*
X337000D02*
D03*
X347000D02*
D03*
X357000D02*
D03*
X367000D02*
D03*
X377000D02*
D03*
X539500Y493000D02*
D03*
X567000Y492500D02*
D03*
D116*
X328110Y194000D02*
D03*
D117*
X341890D02*
D03*
D118*
X555043Y447500D02*
D03*
X576500D02*
D03*
X533587D02*
D03*
X439957Y487000D02*
D03*
X418500D02*
D03*
X461413D02*
D03*
D119*
X319000Y453000D02*
D03*
Y474500D02*
D03*
Y496000D02*
D03*
D120*
X239000Y474500D02*
D03*
D121*
X322500Y128000D02*
D03*
X279500Y365000D02*
D03*
D122*
X429000Y441500D02*
D03*
X462500Y457000D02*
D03*
X385000Y260500D02*
D03*
X396500Y401500D02*
D03*
D123*
X301500Y212500D02*
D03*
X373500Y145000D02*
D03*
X372000Y175500D02*
D03*
X377000Y204000D02*
D03*
X384000Y225500D02*
D03*
X312000Y136500D02*
D03*
X356500Y235500D02*
D03*
X322000Y207000D02*
D03*
X327500Y241500D02*
D03*
X247000Y380000D02*
D03*
X332000Y236500D02*
D03*
X253500Y380000D02*
D03*
X280500Y286000D02*
D03*
X265500Y417000D02*
D03*
X259500Y410500D02*
D03*
X394500Y431000D02*
D03*
X402000Y468000D02*
D03*
X351500Y418500D02*
D03*
X328000Y424500D02*
D03*
X352000Y122500D02*
D03*
X390000Y124000D02*
D03*
X396000Y216500D02*
D03*
X347000Y206000D02*
D03*
X244000Y408500D02*
D03*
X245000Y435500D02*
D03*
X260500Y384000D02*
D03*
X250500Y388500D02*
D03*
X292500Y494000D02*
D03*
X346500Y443500D02*
D03*
X334000Y434000D02*
D03*
X318500Y397000D02*
D03*
M02*
