G04 Layer_Color=8388736*
%FSLAX25Y25*%
%MOIN*%
G70*
G01*
G75*
%ADD97R,0.50000X0.13500*%
%ADD98R,0.49500X0.14000*%
%ADD99R,0.27500X0.19500*%
%ADD100R,0.02769X0.04737*%
%ADD101R,0.08674X0.03556*%
%ADD102R,0.07900X0.05200*%
%ADD103R,0.07099X0.06706*%
%ADD104R,0.42139X0.33477*%
%ADD105R,0.04934X0.15564*%
%ADD106R,0.06804X0.03556*%
%ADD107R,0.05131X0.07887*%
%ADD108R,0.48832X0.39186*%
%ADD109R,0.07099X0.14579*%
%ADD110R,0.04800X0.06300*%
%ADD111R,0.07887X0.05131*%
%ADD112R,0.06300X0.04800*%
%ADD113C,0.12611*%
%ADD114R,0.06706X0.06706*%
%ADD115C,0.06706*%
%ADD116C,0.03162*%
%ADD117R,0.05162X0.05162*%
%ADD118O,0.10700X0.20600*%
%ADD119O,0.17300X0.09050*%
%ADD120C,0.17000*%
%ADD121C,0.06800*%
%ADD122C,0.08674*%
%ADD123C,0.05800*%
D97*
X267500Y262750D02*
D03*
D98*
X267750Y321500D02*
D03*
D99*
X406250Y166750D02*
D03*
Y272250D02*
D03*
Y379250D02*
D03*
D100*
X362000Y195776D02*
D03*
Y205224D02*
D03*
D101*
X395811Y189594D02*
D03*
Y180933D02*
D03*
X372189Y189594D02*
D03*
Y180933D02*
D03*
X395811Y198256D02*
D03*
X372189D02*
D03*
X395811Y210854D02*
D03*
X372189D02*
D03*
D102*
X311000Y167400D02*
D03*
Y155600D02*
D03*
D103*
X301500Y137890D02*
D03*
Y124110D02*
D03*
D104*
X319500Y336642D02*
D03*
D105*
X329500Y295303D02*
D03*
X309500D02*
D03*
D106*
X354177Y272500D02*
D03*
Y267500D02*
D03*
Y262500D02*
D03*
Y257500D02*
D03*
X332823D02*
D03*
Y262500D02*
D03*
Y267500D02*
D03*
Y272500D02*
D03*
X302677Y409500D02*
D03*
Y404500D02*
D03*
Y399500D02*
D03*
Y394500D02*
D03*
X281323D02*
D03*
Y399500D02*
D03*
Y404500D02*
D03*
Y409500D02*
D03*
X252177Y410500D02*
D03*
Y405500D02*
D03*
Y400500D02*
D03*
Y395500D02*
D03*
X230823D02*
D03*
Y400500D02*
D03*
Y405500D02*
D03*
Y410500D02*
D03*
D107*
X313500Y276000D02*
D03*
X301689D02*
D03*
X286094Y427000D02*
D03*
X297905D02*
D03*
D108*
X373000Y305764D02*
D03*
D109*
X383000Y347437D02*
D03*
X363000D02*
D03*
D110*
X289300Y383500D02*
D03*
X296700D02*
D03*
X386800Y232000D02*
D03*
X394200D02*
D03*
Y241500D02*
D03*
X386800D02*
D03*
D111*
X229000Y425595D02*
D03*
Y437405D02*
D03*
D112*
X374000Y138200D02*
D03*
Y130800D02*
D03*
X392000D02*
D03*
Y138200D02*
D03*
X383500Y130800D02*
D03*
Y138200D02*
D03*
X220000Y403200D02*
D03*
Y395800D02*
D03*
X323500Y264700D02*
D03*
Y257300D02*
D03*
D113*
X383500Y447500D02*
D03*
Y467185D02*
D03*
X371500Y225315D02*
D03*
Y245000D02*
D03*
D114*
X327000Y156500D02*
D03*
X549500Y493000D02*
D03*
X577000Y492500D02*
D03*
D115*
X337000Y156500D02*
D03*
X347000D02*
D03*
X357000D02*
D03*
X367000D02*
D03*
X377000D02*
D03*
X327000Y166500D02*
D03*
X337000D02*
D03*
X347000D02*
D03*
X357000D02*
D03*
X367000D02*
D03*
X377000D02*
D03*
X539500Y493000D02*
D03*
X567000Y492500D02*
D03*
D116*
X328110Y194000D02*
D03*
D117*
X341890D02*
D03*
D118*
X555043Y447500D02*
D03*
X576500D02*
D03*
X533587D02*
D03*
X439957Y487000D02*
D03*
X418500D02*
D03*
X461413D02*
D03*
D119*
X319000Y453000D02*
D03*
Y474500D02*
D03*
Y496000D02*
D03*
D120*
X239000Y474500D02*
D03*
D121*
X322500Y128000D02*
D03*
X279500Y365000D02*
D03*
D122*
X429000Y441500D02*
D03*
X462500Y457000D02*
D03*
X385000Y260500D02*
D03*
X396500Y401500D02*
D03*
D123*
X301500Y212500D02*
D03*
X373500Y145000D02*
D03*
X372000Y175500D02*
D03*
X377000Y204000D02*
D03*
X384000Y225500D02*
D03*
X312000Y136500D02*
D03*
X356500Y235500D02*
D03*
X322000Y207000D02*
D03*
X327500Y241500D02*
D03*
X247000Y380000D02*
D03*
X332000Y236500D02*
D03*
X253500Y380000D02*
D03*
X280500Y286000D02*
D03*
X265500Y417000D02*
D03*
X259500Y410500D02*
D03*
X394500Y431000D02*
D03*
X402000Y468000D02*
D03*
X351500Y418500D02*
D03*
X328000Y424500D02*
D03*
X352000Y122500D02*
D03*
X390000Y124000D02*
D03*
X396000Y216500D02*
D03*
X347000Y206000D02*
D03*
X244000Y408500D02*
D03*
X245000Y435500D02*
D03*
X260500Y384000D02*
D03*
X250500Y388500D02*
D03*
X292500Y494000D02*
D03*
X346500Y443500D02*
D03*
X334000Y434000D02*
D03*
X318500Y397000D02*
D03*
M02*
