%FSTAX23Y23*%
%MOIN*%
%SFA1B1*%

%IPPOS*%
%ADD88R,0.500000X0.135000*%
%ADD89R,0.495000X0.140000*%
%ADD90R,0.275000X0.195000*%
%ADD91R,0.027690X0.047370*%
%ADD92R,0.086740X0.035560*%
%ADD93R,0.079000X0.052000*%
%ADD94R,0.070990X0.067060*%
%ADD95R,0.421390X0.334770*%
%ADD96R,0.049340X0.155640*%
%ADD97R,0.068040X0.035560*%
%ADD98R,0.051310X0.078870*%
%ADD99R,0.488320X0.391860*%
%ADD100R,0.070990X0.145790*%
%ADD101R,0.048000X0.063000*%
%ADD102R,0.078870X0.051310*%
%ADD103R,0.063000X0.048000*%
%ADD104C,0.126110*%
%ADD105R,0.067060X0.067060*%
%ADD106C,0.067060*%
%ADD107C,0.031620*%
%ADD108R,0.051620X0.051620*%
%ADD109O,0.107000X0.206000*%
%ADD110O,0.173000X0.090500*%
%ADD111C,0.170000*%
%ADD112C,0.068000*%
%ADD113C,0.058000*%
%LNchicker-1*%
%LPD*%
G54D88*
X14856Y02627D03*
G54D89*
X14853Y03215D03*
G54D90*
X13468Y01667D03*
Y02722D03*
Y03792D03*
G54D91*
X13911Y01957D03*
Y02052D03*
G54D92*
X13573Y01895D03*
Y01809D03*
X13809Y01895D03*
Y01809D03*
X13573Y01982D03*
X13809D03*
X13573Y02108D03*
X13809D03*
G54D93*
X14421Y01674D03*
Y01556D03*
G54D94*
X14516Y01378D03*
Y01241D03*
G54D95*
X14336Y03366D03*
G54D96*
X14236Y02953D03*
X14436D03*
G54D97*
X13989Y02725D03*
Y02675D03*
Y02625D03*
Y02575D03*
X14203D03*
Y02625D03*
Y02675D03*
Y02725D03*
X14504Y04095D03*
Y04045D03*
Y03995D03*
Y03945D03*
X14718D03*
Y03995D03*
Y04045D03*
Y04095D03*
X15009Y04105D03*
Y04055D03*
Y04005D03*
Y03955D03*
X15223D03*
Y04005D03*
Y04055D03*
Y04105D03*
G54D98*
X14396Y0276D03*
X14514D03*
X1467Y0427D03*
X14552D03*
G54D99*
X13801Y03057D03*
G54D100*
X13701Y03474D03*
X13901D03*
G54D101*
X14638Y03835D03*
X14564D03*
X13663Y0232D03*
X13589D03*
Y02415D03*
X13663D03*
G54D102*
X15241Y04255D03*
Y04374D03*
G54D103*
X13791Y01382D03*
Y01308D03*
X13611D03*
Y01382D03*
X13696Y01308D03*
Y01382D03*
X15331Y04032D03*
Y03958D03*
X14296Y02647D03*
Y02573D03*
G54D104*
X13696Y04475D03*
Y04671D03*
X13816Y02253D03*
Y0245D03*
G54D105*
X14261Y01565D03*
X12036Y0493D03*
X11761Y04925D03*
G54D106*
X14161Y01565D03*
X14061D03*
X13961D03*
X13861D03*
X13761D03*
X14261Y01665D03*
X14161D03*
X14061D03*
X13961D03*
X13861D03*
X13761D03*
X12136Y0493D03*
X11861Y04925D03*
G54D107*
X1425Y0194D03*
G54D108*
X14112Y0194D03*
G54D109*
X1198Y04475D03*
X11766D03*
X12195D03*
X13131Y0489D03*
X13345D03*
X12916D03*
G54D110*
X14341Y0453D03*
Y04745D03*
Y0496D03*
G54D111*
X15141Y04745D03*
G54D112*
X14306Y0128D03*
X14736Y0365D03*
G54D113*
X14516Y02125D03*
X13796Y0145D03*
X13811Y01755D03*
X13761Y0204D03*
X13691Y02255D03*
X14411Y01365D03*
X13966Y02355D03*
X14311Y0207D03*
X14256Y02415D03*
X15061Y038D03*
X14211Y02365D03*
X14996Y038D03*
X14726Y0286D03*
X14876Y0417D03*
X14936Y04105D03*
X13586Y0431D03*
X13511Y0468D03*
X14016Y04185D03*
X14251Y04245D03*
X14011Y01225D03*
X13631Y0124D03*
X13571Y02165D03*
X14061Y0206D03*
X13666Y026D03*
X13566Y04015D03*
X15091Y04085D03*
X15081Y04355D03*
X14926Y0384D03*
X15026Y03885D03*
X14606Y0494D03*
X14066Y04435D03*
X14191Y0434D03*
X14346Y0397D03*
M02*