%FSTAX23Y23*%
%MOIN*%
%SFA1B1*%

%IPPOS*%
%ADD98R,0.275000X0.195000*%
%ADD99R,0.495000X0.140000*%
%ADD100R,0.500000X0.135000*%
%ADD101R,0.063000X0.048000*%
%ADD102R,0.048000X0.063000*%
%ADD103R,0.078870X0.051310*%
%ADD104R,0.068040X0.035560*%
%ADD105R,0.051310X0.078870*%
%ADD106R,0.070990X0.145790*%
%ADD107R,0.488320X0.391860*%
%ADD108R,0.049340X0.155640*%
%ADD109R,0.421390X0.334770*%
%ADD110R,0.070990X0.067060*%
%ADD111R,0.079000X0.052000*%
%ADD112R,0.086740X0.035560*%
%ADD113R,0.027690X0.047370*%
%ADD114C,0.068000*%
%ADD115O,0.107000X0.206000*%
%ADD116R,0.067060X0.067060*%
%ADD117C,0.067060*%
%ADD118C,0.170000*%
%ADD119O,0.173000X0.090500*%
%ADD120C,0.126110*%
%ADD121R,0.051620X0.051620*%
%ADD122C,0.031620*%
%ADD123C,0.058000*%
%ADD124C,0.086740*%
%LNchicker-1*%
%LPD*%
G54D98*
X13517Y03792D03*
Y02722D03*
Y01667D03*
G54D99*
X14902Y03215D03*
G54D100*
X14905Y02627D03*
G54D101*
X14345Y02573D03*
Y02647D03*
X1538Y03958D03*
Y04032D03*
X13745Y01382D03*
Y01308D03*
X1366Y01382D03*
Y01308D03*
X1384D03*
Y01382D03*
G54D102*
X13712Y02415D03*
X13638D03*
Y0232D03*
X13712D03*
X14613Y03835D03*
X14687D03*
G54D103*
X1529Y04374D03*
Y04255D03*
G54D104*
X15271Y04105D03*
Y04055D03*
Y04005D03*
Y03955D03*
X15058D03*
Y04005D03*
Y04055D03*
Y04105D03*
X14766Y04095D03*
Y04045D03*
Y03995D03*
Y03945D03*
X14553D03*
Y03995D03*
Y04045D03*
Y04095D03*
X14251Y02725D03*
Y02675D03*
Y02625D03*
Y02575D03*
X14038D03*
Y02625D03*
Y02675D03*
Y02725D03*
G54D105*
X146Y0427D03*
X14719D03*
X14563Y0276D03*
X14445D03*
G54D106*
X1395Y03474D03*
X1375D03*
G54D107*
X1385Y03057D03*
G54D108*
X14485Y02953D03*
X14285D03*
G54D109*
X14385Y03366D03*
G54D110*
X14565Y01241D03*
Y01378D03*
G54D111*
X1447Y01556D03*
Y01674D03*
G54D112*
X13858Y02108D03*
X13621D03*
X13858Y01982D03*
X13621D03*
X13858Y01809D03*
Y01895D03*
X13621Y01809D03*
Y01895D03*
G54D113*
X1396Y02052D03*
Y01957D03*
G54D114*
X14785Y0365D03*
X14355Y0128D03*
G54D115*
X12965Y0489D03*
X13394D03*
X1318D03*
X12244Y04475D03*
X11815D03*
X12029D03*
G54D116*
X1181Y04925D03*
X12085Y0493D03*
X1431Y01565D03*
G54D117*
X1191Y04925D03*
X12185Y0493D03*
X1381Y01665D03*
X1391D03*
X1401D03*
X1411D03*
X1421D03*
X1431D03*
X1381Y01565D03*
X1391D03*
X1401D03*
X1411D03*
X1421D03*
G54D118*
X1519Y04745D03*
G54D119*
X1439Y0496D03*
Y04745D03*
Y0453D03*
G54D120*
X13865Y0245D03*
Y02253D03*
X13745Y04671D03*
Y04475D03*
G54D121*
X14161Y0194D03*
G54D122*
X14298Y0194D03*
G54D123*
X14395Y0397D03*
X1424Y0434D03*
X14115Y04435D03*
X14655Y0494D03*
X15075Y03885D03*
X14975Y0384D03*
X1513Y04355D03*
X1514Y04085D03*
X1411Y0206D03*
X1362Y02165D03*
X1368Y0124D03*
X1406Y01225D03*
X143Y04245D03*
X14065Y04185D03*
X1356Y0468D03*
X13635Y0431D03*
X14985Y04105D03*
X14925Y0417D03*
X14775Y0286D03*
X15045Y038D03*
X1426Y02365D03*
X1511Y038D03*
X14305Y02415D03*
X1436Y0207D03*
X14015Y02355D03*
X1446Y01365D03*
X1374Y02255D03*
X1381Y0204D03*
X1386Y01755D03*
X13845Y0145D03*
X14565Y02125D03*
G54D124*
X13615Y04015D03*
X1373Y02605D03*
X12955Y0457D03*
X1329Y04415D03*
M02*