%FSTAX23Y23*%
%MOIN*%
%SFA1B1*%

%IPPOS*%
%ADD23C,0.010000*%
%ADD88C,0.006000*%
%ADD89C,0.011020*%
%ADD90C,0.009840*%
%ADD91C,0.000000*%
%ADD92C,0.005000*%
%ADD93C,0.007870*%
%ADD94C,0.008000*%
%ADD95C,0.002000*%
%ADD96C,0.007000*%
%ADD97C,0.007810*%
%LNchicker-1*%
%LPD*%
G36*
X14499Y04555D02*
X14469D01*
Y04504*
X14499*
Y04504*
X1454*
Y04504*
Y04555*
Y04575*
X14499*
Y04555*
G37*
G36*
X11718Y04337D02*
X1234D01*
Y04362*
X11718*
Y04337*
G37*
G36*
X14499Y0477D02*
X14469D01*
Y04719*
X14499*
Y04699*
X1454*
Y04719*
Y0477*
Y0479*
X14499*
Y0477*
G37*
G36*
X12868Y05002D02*
X13491D01*
Y05027*
X12868*
Y05002*
G37*
G36*
X14469Y04935D02*
X14499D01*
Y04915*
X1454*
Y04935*
Y04985*
X14469*
Y04935*
G37*
G54D23*
X1515Y03295D02*
X14655D01*
Y0257D02*
Y03295D01*
X1466Y02565D02*
X14655Y0257D01*
X1515Y02565D02*
Y03295D01*
X14282Y02849D02*
Y02789D01*
X14252*
X14242Y02799*
Y02809*
X14252Y02819*
X14282*
X14252*
X14242Y02829*
Y02839*
X14252Y02849*
X14282*
X14222Y02789D02*
X14202D01*
X14212*
Y02849*
X14222Y02839*
X14797Y04219D02*
Y04159D01*
X14767*
X14757Y04169*
Y04179*
X14767Y04189*
X14797*
X14767*
X14757Y04199*
Y04209*
X14767Y04219*
X14797*
X14697Y04159D02*
X14737D01*
X14697Y04199*
Y04209*
X14707Y04219*
X14727*
X14737Y04209*
X15302Y04229D02*
Y04169D01*
X15272*
X15262Y04179*
Y04189*
X15272Y04199*
X15302*
X15272*
X15262Y04209*
Y04219*
X15272Y04229*
X15302*
X15242Y04219D02*
X15232Y04229D01*
X15212*
X15202Y04219*
Y04209*
X15212Y04199*
X15222*
X15212*
X15202Y04189*
Y04179*
X15212Y04169*
X15232*
X15242Y04179*
X14358Y02195D02*
X14368Y02205D01*
X14388*
X14398Y02195*
Y02156*
X14388Y02146*
X14368*
X14358Y02156*
X14338Y02195D02*
X14328Y02205D01*
X14308*
X14298Y02195*
Y02185*
X14308Y02175*
X14318*
X14308*
X14298Y02165*
Y02156*
X14308Y02146*
X14328*
X14338Y02156*
X14546Y02885D02*
X14556Y02895D01*
X14576*
X14586Y02885*
Y02846*
X14576Y02836*
X14556*
X14546Y02846*
X14496Y02836D02*
Y02895D01*
X14526Y02865*
X14486*
X14701Y04396D02*
X14711Y04406D01*
X14731*
X14741Y04396*
Y04356*
X14731Y04346*
X14711*
X14701Y04356*
X14641Y04406D02*
X14681D01*
Y04376*
X14661Y04386*
X14651*
X14641Y04376*
Y04356*
X14651Y04346*
X14671*
X14681Y04356*
X15286Y04486D02*
X15296Y04496D01*
X15316*
X15326Y04486*
Y04447*
X15316Y04437*
X15296*
X15286Y04447*
X15226Y04496D02*
X15246Y04486D01*
X15266Y04466*
Y04447*
X15256Y04437*
X15236*
X15226Y04447*
Y04456*
X15236Y04466*
X15266*
X14601Y01512D02*
Y01453D01*
X14571*
X14561Y01463*
Y01502*
X14571Y01512*
X14601*
X14541Y01453D02*
X14521D01*
X14531*
Y01512*
X14541Y01502*
X14015Y01899D02*
Y0184D01*
X13985*
X13975Y0185*
Y01889*
X13985Y01899*
X14015*
X13915Y0184D02*
X13955D01*
X13915Y01879*
Y01889*
X13925Y01899*
X13945*
X13955Y01889*
X14091Y03643D02*
Y03584D01*
X14061*
X14051Y03594*
Y03633*
X14061Y03643*
X14091*
X14031Y03633D02*
X14021Y03643D01*
X14001*
X13991Y03633*
Y03623*
X14001Y03613*
X14011*
X14001*
X13991Y03603*
Y03594*
X14001Y03584*
X14021*
X14031Y03594*
X1538Y05137D02*
Y05078D01*
X1535*
X1534Y05088*
Y05127*
X1535Y05137*
X1538*
X1529Y05078D02*
Y05137D01*
X1532Y05107*
X1528*
X14459Y01789D02*
X14499D01*
Y01759*
X14479*
X14499*
Y0173*
X14439D02*
X14419D01*
X14429*
Y01789*
X14439Y01779*
X14408Y01749D02*
Y01808D01*
X14378*
X14368Y01798*
Y01778*
X14378Y01768*
X14408*
X14348Y01749D02*
X14328D01*
X14338*
Y01808*
X14348Y01798*
X11954Y05209D02*
Y05268D01*
X11924*
X11914Y05258*
Y05238*
X11924Y05228*
X11954*
X11854Y05209D02*
X11894D01*
X11854Y05248*
Y05258*
X11864Y05268*
X11884*
X11894Y05258*
X12229Y05214D02*
Y05273D01*
X12199*
X12189Y05263*
Y05243*
X12199Y05233*
X12229*
X12169Y05263D02*
X12159Y05273D01*
X12139*
X12129Y05263*
Y05253*
X12139Y05243*
X12149*
X12139*
X12129Y05233*
Y05224*
X12139Y05214*
X12159*
X12169Y05224*
X14552Y03582D02*
Y03622D01*
X14562Y03632*
X14582*
X14592Y03622*
Y03582*
X14582Y03572*
X14562*
X14572Y03592D02*
X14552Y03572D01*
X14562D02*
X14552Y03582D01*
X14532Y03572D02*
X14512D01*
X14522*
Y03632*
X14532Y03622*
X12294Y04644D02*
Y04683D01*
X12304Y04693*
X12324*
X12334Y04683*
Y04644*
X12324Y04634*
X12304*
X12314Y04653D02*
X12294Y04634D01*
X12304D02*
X12294Y04644D01*
X12234Y04634D02*
X12274D01*
X12234Y04673*
Y04683*
X12244Y04693*
X12264*
X12274Y04683*
X13445Y05071D02*
Y0511D01*
X13455Y0512*
X13475*
X13485Y0511*
Y05071*
X13475Y05061*
X13455*
X13465Y0508D02*
X13445Y05061D01*
X13455D02*
X13445Y05071D01*
X13425Y0511D02*
X13415Y0512D01*
X13395*
X13385Y0511*
Y051*
X13395Y0509*
X13405*
X13395*
X13385Y0508*
Y05071*
X13395Y05061*
X13415*
X13425Y05071*
X1361Y01425D02*
Y01484D01*
X1358*
X1357Y01474*
Y01454*
X1358Y01444*
X1361*
X1359D02*
X1357Y01425D01*
X1355D02*
X1353D01*
X1354*
Y01484*
X1355Y01474*
X13745Y0143D02*
Y01489D01*
X13715*
X13705Y01479*
Y01459*
X13715Y01449*
X13745*
X13725D02*
X13705Y0143D01*
X13645D02*
X13685D01*
X13645Y01469*
Y01479*
X13655Y01489*
X13675*
X13685Y01479*
X13855Y0121D02*
Y01269D01*
X13825*
X13815Y01259*
Y01239*
X13825Y01229*
X13855*
X13835D02*
X13815Y0121D01*
X13795Y01259D02*
X13785Y01269D01*
X13765*
X13755Y01259*
Y01249*
X13765Y01239*
X13775*
X13765*
X13755Y01229*
Y0122*
X13765Y0121*
X13785*
X13795Y0122*
X1369Y02575D02*
X1363D01*
Y02545*
X1364Y02535*
X1366*
X1367Y02545*
Y02575*
Y02555D02*
X1369Y02535D01*
Y02485D02*
X1363D01*
X1366Y02515*
Y02475*
X1361Y02265D02*
X1355D01*
Y02235*
X1356Y02225*
X1358*
X1359Y02235*
Y02265*
Y02245D02*
X1361Y02225D01*
X1355Y02165D02*
Y02205D01*
X1358*
X1357Y02185*
Y02175*
X1358Y02165*
X136*
X1361Y02175*
Y02195*
X136Y02205*
X13958Y02556D02*
Y02616D01*
X13928*
X13918Y02606*
Y02586*
X13928Y02576*
X13958*
X13938D02*
X13918Y02556D01*
X13858Y02616D02*
X13878Y02606D01*
X13898Y02586*
Y02566*
X13888Y02556*
X13868*
X13858Y02566*
Y02576*
X13868Y02586*
X13898*
X14375Y0248D02*
Y02539D01*
X14345*
X14335Y02529*
Y02509*
X14345Y02499*
X14375*
X14355D02*
X14335Y0248D01*
X14315Y02529D02*
X14305Y02539D01*
X14285*
X14275Y02529*
Y02519*
X14285Y02509*
X14275Y02499*
Y0249*
X14285Y0248*
X14305*
X14315Y0249*
Y02499*
X14305Y02509*
X14315Y02519*
Y02529*
X14305Y02509D02*
X14285D01*
X14701Y03896D02*
Y03956D01*
X14671*
X14661Y03946*
Y03926*
X14671Y03916*
X14701*
X14681D02*
X14661Y03896D01*
X14641Y03906D02*
X14631Y03896D01*
X14611*
X14601Y03906*
Y03946*
X14611Y03956*
X14631*
X14641Y03946*
Y03936*
X14631Y03926*
X14601*
X1539Y0407D02*
Y04129D01*
X1536*
X1535Y04119*
Y04099*
X1536Y04089*
X1539*
X1537D02*
X1535Y0407D01*
X1533D02*
X1531D01*
X1532*
Y04129*
X1533Y04119*
X1528D02*
X1527Y04129D01*
X1525*
X1524Y04119*
Y0408*
X1525Y0407*
X1527*
X1528Y0408*
Y04119*
X13891Y02215D02*
Y02156D01*
Y02175*
X13851Y02215*
X13881Y02185*
X13851Y02156*
X13831D02*
X13811D01*
X13821*
Y02215*
X13831Y02205*
X13838Y04778D02*
Y04838D01*
X13808*
X13798Y04828*
Y04808*
X13808Y04798*
X13838*
X13818D02*
X13798Y04778D01*
X13778Y04838D02*
X13738D01*
Y04828*
X13778Y04788*
Y04778*
X14985Y0288D02*
X15025D01*
X14985Y02919*
Y02929*
X14995Y02939*
X15015*
X15025Y02929*
X14925Y0288D02*
X14965D01*
X14925Y02919*
Y02929*
X14935Y02939*
X14955*
X14965Y02929*
X14905Y02919D02*
Y0289D01*
X14895Y0288*
X14865*
Y02919*
X14845Y02939D02*
Y0288D01*
Y02909*
X14805*
Y02939*
Y0288*
G54D88*
X15105Y04745D02*
D01*
X15105Y04739*
X15105Y04733*
X15106Y04727*
X15108Y04721*
X1511Y04715*
X15112Y0471*
X15114Y04705*
X15117Y04699*
X15121Y04695*
X15124Y0469*
X15128Y04685*
X15133Y04681*
X15137Y04678*
X15142Y04674*
X15147Y04671*
X15152Y04668*
X15158Y04666*
X15163Y04664*
X15169Y04662*
X15175Y04661*
X15181Y0466*
X15187Y0466*
X15192*
X15198Y0466*
X15204Y04661*
X1521Y04662*
X15216Y04664*
X15221Y04666*
X15227Y04668*
X15232Y04671*
X15237Y04674*
X15242Y04678*
X15246Y04681*
X15251Y04685*
X15255Y0469*
X15258Y04695*
X15262Y04699*
X15265Y04705*
X15267Y0471*
X15269Y04715*
X15271Y04721*
X15273Y04727*
X15274Y04733*
X15274Y04739*
X15275Y04745*
X15274Y0475*
X15274Y04756*
X15273Y04762*
X15271Y04768*
X15269Y04774*
X15267Y04779*
X15265Y04784*
X15262Y0479*
X15258Y04794*
X15255Y04799*
X15251Y04804*
X15246Y04808*
X15242Y04811*
X15237Y04815*
X15232Y04818*
X15227Y04821*
X15221Y04823*
X15216Y04825*
X1521Y04827*
X15204Y04828*
X15198Y04829*
X15192Y04829*
X15187*
X15181Y04829*
X15175Y04828*
X15169Y04827*
X15163Y04825*
X15158Y04823*
X15152Y04821*
X15147Y04818*
X15142Y04815*
X15137Y04811*
X15133Y04808*
X15128Y04804*
X15124Y04799*
X15121Y04794*
X15117Y0479*
X15114Y04784*
X15112Y04779*
X1511Y04774*
X15108Y04768*
X15106Y04762*
X15105Y04756*
X15105Y0475*
X15105Y04745*
X15313Y04621D02*
D01*
X15322Y0463*
X15329Y04639*
X15336Y04649*
X15343Y0466*
X15348Y04671*
X15353Y04682*
X15357Y04693*
X1536Y04705*
X15362Y04717*
X15364Y04729*
X15364Y04741*
X15365Y04745*
D01*
X15364Y04757*
X15363Y04769*
X15361Y04781*
X15358Y04793*
X15354Y04804*
X15349Y04816*
X15344Y04827*
X15338Y04837*
X15331Y04847*
X15324Y04857*
X15315Y04866*
X15313Y04868*
X15315Y04868D02*
X15165Y05045D01*
X15065*
Y0502D02*
Y05045D01*
X15035Y0447D02*
Y0502D01*
X15065D02*
X15035D01*
X15314Y04622D02*
X15165Y04445D01*
X15065*
Y0447*
X15035Y04445D02*
Y0447D01*
X15065D02*
X15035D01*
Y04445D02*
X1454D01*
X15035Y0502D02*
Y05045D01*
X1454*
Y04445D02*
Y05045D01*
G54D89*
X1369Y03465D02*
D01*
X1369Y03465*
X1369Y03465*
X13691Y03464*
X13691Y03464*
X13691Y03464*
X13691Y03463*
X13691Y03463*
X13691Y03462*
X13691Y03462*
X13692Y03462*
X13692Y03462*
X13692Y03461*
X13693Y03461*
X13693Y03461*
X13693Y03461*
X13694Y0346*
X13694Y0346*
X13694Y0346*
X13695Y0346*
X13695Y0346*
X13695Y0346*
X13696Y0346*
X13696*
X13697Y0346*
X13697Y0346*
X13697Y0346*
X13698Y0346*
X13698Y0346*
X13698Y0346*
X13699Y03461*
X13699Y03461*
X13699Y03461*
X137Y03461*
X137Y03462*
X137Y03462*
X137Y03462*
X13701Y03462*
X13701Y03463*
X13701Y03463*
X13701Y03464*
X13701Y03464*
X13701Y03464*
X13701Y03465*
X13701Y03465*
X13701Y03465*
X13701Y03466*
X13701Y03466*
X13701Y03467*
X13701Y03467*
X13701Y03467*
X13701Y03468*
X13701Y03468*
X13701Y03468*
X137Y03469*
X137Y03469*
X137Y03469*
X137Y03469*
X13699Y0347*
X13699Y0347*
X13699Y0347*
X13698Y0347*
X13698Y03471*
X13698Y03471*
X13697Y03471*
X13697Y03471*
X13697Y03471*
X13696Y03471*
X13696*
X13695Y03471*
X13695Y03471*
X13695Y03471*
X13694Y03471*
X13694Y03471*
X13694Y0347*
X13693Y0347*
X13693Y0347*
X13693Y0347*
X13692Y03469*
X13692Y03469*
X13692Y03469*
X13691Y03469*
X13691Y03468*
X13691Y03468*
X13691Y03468*
X13691Y03467*
X13691Y03467*
X13691Y03467*
X1369Y03466*
X1369Y03466*
X1369Y03465*
G54D90*
X14521Y0289D02*
D01*
X14521Y02889*
X14521Y02889*
X14521Y02889*
X14522Y02888*
X14522Y02888*
X14522Y02888*
X14522Y02887*
X14522Y02887*
X14522Y02887*
X14522Y02886*
X14523Y02886*
X14523Y02886*
X14523Y02886*
X14523Y02885*
X14524Y02885*
X14524Y02885*
X14524Y02885*
X14525Y02885*
X14525Y02885*
X14525Y02885*
X14526Y02885*
X14526Y02885*
X14526*
X14527Y02885*
X14527Y02885*
X14527Y02885*
X14528Y02885*
X14528Y02885*
X14528Y02885*
X14529Y02885*
X14529Y02885*
X14529Y02886*
X1453Y02886*
X1453Y02886*
X1453Y02886*
X1453Y02887*
X1453Y02887*
X14531Y02887*
X14531Y02888*
X14531Y02888*
X14531Y02888*
X14531Y02889*
X14531Y02889*
X14531Y02889*
X14531Y0289*
X14531Y0289*
X14531Y0289*
X14531Y02891*
X14531Y02891*
X14531Y02891*
X14531Y02892*
X14531Y02892*
X1453Y02892*
X1453Y02892*
X1453Y02893*
X1453Y02893*
X1453Y02893*
X14529Y02893*
X14529Y02894*
X14529Y02894*
X14528Y02894*
X14528Y02894*
X14528Y02894*
X14527Y02894*
X14527Y02894*
X14527Y02894*
X14526Y02894*
X14526*
X14526Y02894*
X14525Y02894*
X14525Y02894*
X14525Y02894*
X14524Y02894*
X14524Y02894*
X14524Y02894*
X14523Y02894*
X14523Y02893*
X14523Y02893*
X14523Y02893*
X14522Y02893*
X14522Y02892*
X14522Y02892*
X14522Y02892*
X14522Y02892*
X14522Y02891*
X14522Y02891*
X14521Y02891*
X14521Y0289*
X14521Y0289*
X14521Y0289*
G54D91*
X14067Y01802D02*
D01*
X14067Y01801*
X14067Y018*
X14068Y018*
X14068Y01799*
X14068Y01798*
X14068Y01798*
X14069Y01797*
X14069Y01796*
X14069Y01796*
X1407Y01795*
X1407Y01795*
X14071Y01794*
X14071Y01794*
X14072Y01793*
X14072Y01793*
X14073Y01793*
X14074Y01792*
X14074Y01792*
X14075Y01792*
X14076Y01792*
X14076Y01792*
X14077Y01792*
X14078*
X14078Y01792*
X14079Y01792*
X1408Y01792*
X1408Y01792*
X14081Y01792*
X14082Y01793*
X14082Y01793*
X14083Y01793*
X14083Y01794*
X14084Y01794*
X14085Y01795*
X14085Y01795*
X14085Y01796*
X14086Y01796*
X14086Y01797*
X14086Y01798*
X14087Y01798*
X14087Y01799*
X14087Y018*
X14087Y018*
X14087Y01801*
X14087Y01802*
X14087Y01802*
X14087Y01803*
X14087Y01804*
X14087Y01804*
X14087Y01805*
X14086Y01806*
X14086Y01806*
X14086Y01807*
X14085Y01808*
X14085Y01808*
X14085Y01809*
X14084Y01809*
X14083Y0181*
X14083Y0181*
X14082Y0181*
X14082Y01811*
X14081Y01811*
X1408Y01811*
X1408Y01811*
X14079Y01812*
X14078Y01812*
X14078Y01812*
X14077*
X14076Y01812*
X14076Y01812*
X14075Y01811*
X14074Y01811*
X14074Y01811*
X14073Y01811*
X14072Y0181*
X14072Y0181*
X14071Y0181*
X14071Y01809*
X1407Y01809*
X1407Y01808*
X14069Y01808*
X14069Y01807*
X14069Y01806*
X14068Y01806*
X14068Y01805*
X14068Y01804*
X14068Y01804*
X14067Y01803*
X14067Y01802*
X14067Y01802*
G54D92*
X14072Y0194D02*
D01*
X14072Y01929*
X14074Y01918*
X14075Y01907*
X14078Y01896*
X14082Y01886*
X14086Y01875*
X1409Y01866*
X14096Y01856*
X14102Y01847*
X14109Y01838*
X14116Y0183*
X14124Y01822*
X14133Y01815*
X14141Y01809*
X14151Y01803*
X1416Y01798*
X14171Y01793*
X14181Y0179*
X14191Y01787*
X14202Y01784*
X14213Y01783*
X14224Y01782*
X14235*
X14246Y01783*
X14257Y01784*
X14268Y01787*
X14278Y0179*
X14288Y01793*
X14299Y01798*
X14308Y01803*
X14318Y01809*
X14326Y01815*
X14335Y01822*
X14343Y0183*
X1435Y01838*
X14357Y01847*
X14363Y01856*
X14369Y01866*
X14373Y01875*
X14377Y01886*
X14381Y01896*
X14384Y01907*
X14385Y01918*
X14387Y01929*
X14387Y0194*
X14387Y0195*
X14385Y01961*
X14384Y01972*
X14381Y01983*
X14377Y01993*
X14373Y02004*
X14369Y02013*
X14363Y02023*
X14357Y02032*
X1435Y02041*
X14343Y02049*
X14335Y02057*
X14326Y02064*
X14318Y0207*
X14308Y02076*
X14299Y02081*
X14288Y02086*
X14278Y02089*
X14268Y02092*
X14257Y02095*
X14246Y02096*
X14235Y02097*
X14224*
X14213Y02096*
X14202Y02095*
X14191Y02092*
X14181Y02089*
X14171Y02086*
X1416Y02081*
X14151Y02076*
X14141Y0207*
X14133Y02064*
X14124Y02057*
X14116Y02049*
X14109Y02041*
X14102Y02032*
X14096Y02023*
X1409Y02013*
X14086Y02004*
X14082Y01993*
X14078Y01983*
X14075Y01972*
X14074Y01961*
X14072Y0195*
X14072Y0194*
X14046Y03257D02*
Y03316D01*
X13653*
Y03257D02*
Y03316D01*
X1458Y01282D02*
X14565Y01333D01*
X1458Y01282D02*
X14549D01*
X14565Y01333D02*
X14549Y01282D01*
X14596Y01278D02*
Y01341D01*
X14533Y01278D02*
Y01341D01*
G54D93*
X15227Y04126D02*
X15102D01*
Y03933D02*
Y04126D01*
X15227Y03933D02*
X15102D01*
X15227D02*
Y04126D01*
X15301Y04132D02*
X15241D01*
X1196Y05025D02*
X1176D01*
X1196Y04975D02*
Y05025D01*
X1176Y04975D02*
Y05025D01*
X1196Y04975D02*
X1176D01*
X11793Y05025D02*
Y05158D01*
X1181Y05175D02*
X11793Y05158D01*
X11826D02*
X1181Y05175D01*
X11826Y05025D02*
Y05158D01*
X11893Y05025D02*
Y05158D01*
X1191Y05175D02*
X11893Y05158D01*
X11926D02*
X1191Y05175D01*
X11926Y05025D02*
Y05158D01*
X12235Y0503D02*
X12035D01*
X12235Y0498D02*
Y0503D01*
X12035Y0498D02*
Y0503D01*
X12235Y0498D02*
X12035D01*
X12068Y0503D02*
Y05163D01*
X12085Y0518D02*
X12068Y05163D01*
X12101D02*
X12085Y0518D01*
X12101Y0503D02*
Y05163D01*
X12168Y0503D02*
Y05163D01*
X12185Y0518D02*
X12168Y05163D01*
X12201D02*
X12185Y0518D01*
X12201Y0503D02*
Y05163D01*
X14722Y04116D02*
X14597D01*
Y03923D02*
Y04116D01*
X14722Y03923D02*
X14597D01*
X14722D02*
Y04116D01*
X14796Y04122D02*
X14736D01*
X1379Y02178D02*
Y02523D01*
X1394Y02178D02*
X1379D01*
X1394D02*
Y02523D01*
X1379*
X13965Y02178D02*
Y02523D01*
X1394*
X14207Y02746D02*
X14082D01*
Y02553D02*
Y02746D01*
X14207Y02553D02*
X14082D01*
X14207D02*
Y02746D01*
X14281Y02752D02*
X14221D01*
X14184Y03043D02*
Y03189D01*
X14585Y03043D02*
X14184D01*
X14585D02*
Y03189D01*
X1376Y01515D02*
Y01715D01*
X1436Y01515D02*
X1376D01*
X1436D02*
Y01715D01*
X1376*
X1367Y044D02*
Y04745D01*
X1382Y044D02*
X1367D01*
X1382D02*
Y04745D01*
X1367*
X13845Y044D02*
Y04745D01*
X1382*
X13935Y01971D02*
Y02071D01*
X13984Y01971D02*
Y02038D01*
G54D94*
X13491Y05027D02*
X12868D01*
X13491Y04765D02*
Y05027D01*
Y04765D02*
X12868D01*
Y05027*
X1234Y04337D02*
X11718D01*
Y046*
X1234D02*
X11718D01*
X1234Y04337D02*
Y046D01*
X1373Y01645D02*
X13713D01*
X13721*
Y01694*
X1373Y01686*
X13655Y01645D02*
X13688D01*
X13655Y01678*
Y01686*
X13663Y01694*
X1368*
X13688Y01686*
X13696Y01594D02*
X13713Y01586D01*
X1373Y01569*
Y01553*
X13721Y01545*
X13705*
X13696Y01553*
Y01561*
X13705Y01569*
X1373*
X1441Y01545D02*
X14393D01*
X14401*
Y01594*
X1441Y01586*
Y01694D02*
X14376D01*
Y01686*
X1441Y01653*
Y01645*
G54D95*
X15015Y0447D02*
X14565D01*
X15015D02*
Y0502D01*
X14565*
Y0447D02*
Y0502D01*
G54D96*
X13965Y02178D02*
X1394D01*
X13845Y044D02*
X1382D01*
G54D97*
X1504Y04545D02*
X15114Y04517D01*
X1504Y04489*
X15065Y045D02*
Y04535D01*
X15096Y04566D02*
X151D01*
X15107Y0457*
X1511Y04573*
X15114Y0458*
Y04594*
X1511Y04601*
X15107Y04605*
X151Y04608*
X15093*
X15086Y04605*
X15075Y04598*
X1504Y04563*
Y04612*
X15114Y04649D02*
X1511Y04639D01*
X151Y04632*
X15082Y04628*
X15072*
X15054Y04632*
X15044Y04639*
X1504Y04649*
Y04656*
X15044Y04667*
X15054Y04674*
X15072Y04678*
X15082*
X151Y04674*
X1511Y04667*
X15114Y04656*
Y04649*
X15044Y04701D02*
X1504Y04698D01*
X15044Y04694*
X15047Y04698*
X15044Y04701*
X15037*
X15029Y04698*
X15026Y04694*
X15114Y04724D02*
Y04763D01*
X15086Y04742*
Y04752*
X15082Y04759*
X15079Y04763*
X15068Y04766*
X15061*
X15051Y04763*
X15044Y04756*
X1504Y04745*
Y04735*
X15044Y04724*
X15047Y04721*
X15054Y04717*
X15089Y04783D02*
X1504D01*
X15075D02*
X15086Y04794D01*
X15089Y04801*
Y04811*
X15086Y04818*
X15075Y04822*
X1504*
X15075D02*
X15086Y04832D01*
X15089Y04839*
Y0485*
X15086Y04857*
X15075Y0486*
X1504*
X15089Y04883D02*
X1504D01*
X15075D02*
X15086Y04894D01*
X15089Y04901*
Y04912*
X15086Y04919*
X15075Y04922*
X1504*
X15075D02*
X15086Y04933D01*
X15089Y0494*
Y0495*
X15086Y04957*
X15075Y04961*
X1504*
M02*