%FSTAX23Y23*%
%MOIN*%
%SFA1B1*%

%IPPOS*%
%ADD25C,0.010000*%
%ADD78C,0.005000*%
%ADD79C,0.000000*%
%ADD80C,0.009840*%
%ADD81C,0.011020*%
%ADD82C,0.006000*%
%ADD83C,0.007870*%
%ADD84C,0.007000*%
%ADD85C,0.008000*%
%ADD86C,0.002000*%
%ADD87C,0.007810*%
%LNchicker-1*%
%LPD*%
G36*
X15108Y0331D02*
X15107D01*
Y03309*
X15108*
Y0331*
X15108*
Y0331*
G37*
G36*
X15108Y03313D02*
X15109D01*
Y03312*
X1511*
Y03312*
X1511*
Y03313*
X1511*
Y03314*
X15108*
Y03313*
G37*
G36*
X15103Y03314D02*
X15101D01*
Y03314*
X151*
Y03313*
X15099*
Y03312*
X151*
Y03312*
X151*
Y03313*
X15102*
Y03314*
X15104*
Y03314*
X15106*
Y03315*
X15103*
Y03314*
G37*
G36*
X15102Y03309D02*
X15104D01*
Y03306*
X15106*
Y03307*
X15105*
Y03309*
X15106*
Y0331*
X15102*
Y0331*
X15102*
Y03309*
G37*
G36*
X15101Y03306D02*
X15102D01*
Y03307*
X15101*
Y03306*
G37*
G36*
X1511Y0331D02*
X15111D01*
Y03309*
X15112*
Y03311*
X15111*
Y03312*
X1511*
Y0331*
G37*
G36*
X15106Y03314D02*
X15108D01*
Y03314*
X15106*
Y03314*
G37*
G36*
X15112Y03778D02*
X1511D01*
Y03777*
X15109*
Y03776*
X15108*
Y03776*
X15106*
Y03775*
X15105*
Y03774*
X15104*
Y03774*
X15102*
Y03773*
X15102*
Y03772*
X151*
Y03772*
X15099*
Y03771*
X15098*
Y03771*
X15097*
Y0377*
X15095*
Y03769*
X15094*
Y03769*
X15093*
Y03768*
X15091*
Y03767*
X1509*
Y03767*
X15089*
Y03766*
X15087*
Y03765*
X15086*
Y03765*
X15085*
Y03764*
X15084*
Y03763*
X15083*
Y03763*
X15082*
Y03762*
X1508*
Y03761*
X15079*
Y03761*
X15078*
Y0376*
X15077*
Y03759*
X15076*
Y03759*
X15074*
Y03758*
X15073*
Y03757*
X15072*
Y03756*
X15072*
Y03756*
X15071*
Y03756*
X15072*
Y03757*
X15071*
Y03756*
X1507*
Y03756*
X15069*
Y03755*
X15067*
Y03754*
X15066*
Y03754*
X15065*
Y03753*
X15063*
Y03752*
X15063*
Y03752*
X15061*
Y03751*
X1506*
Y0375*
X15059*
Y0375*
X15057*
Y03749*
X15056*
Y03748*
X15055*
Y03748*
X15054*
Y03747*
X15053*
Y03746*
X15052*
Y03746*
X1505*
Y03745*
X15049*
Y03744*
X15048*
Y03744*
X15046*
Y03743*
X15045*
Y03742*
X15044*
Y03742*
X15042*
Y03741*
X15041*
Y03741*
X1504*
Y0374*
X15039*
Y03739*
X15038*
Y03739*
X15037*
Y03738*
X15035*
Y03737*
X15034*
Y03737*
X15033*
Y03736*
X15031*
Y03735*
X1503*
Y03735*
X15029*
Y03734*
X15028*
Y03733*
X15027*
Y03733*
X15026*
Y03732*
X15025*
Y03731*
X15025*
Y03731*
X15024*
Y0373*
X15023*
Y03729*
X15022*
Y03729*
X15022*
Y03728*
X15021*
Y03727*
X1502*
Y03727*
X1502*
Y03726*
X15019*
Y03725*
X15018*
Y03724*
X15018*
Y03724*
X15017*
Y03722*
X15016*
Y03722*
X15016*
Y0372*
X15015*
Y03719*
X15014*
Y03718*
X15014*
Y03716*
X15013*
Y03715*
X15012*
Y03713*
X15012*
Y03711*
X15011*
Y03709*
X15011*
Y03704*
X1501*
Y03685*
X15027*
Y03684*
X15044*
Y03684*
X15061*
Y03683*
X15078*
Y03683*
X15095*
Y03682*
X15112*
Y03681*
X15112*
Y03714*
X15104*
Y03713*
X15094*
Y03739*
X15095*
Y03739*
X15096*
Y0374*
X15097*
Y03741*
X15099*
Y03741*
X151*
Y03742*
X15102*
Y03742*
X15103*
Y03743*
X15104*
Y03744*
X15106*
Y03744*
X15108*
Y03745*
X1511*
Y03746*
X15111*
Y03746*
X15112*
Y03778*
X15112*
Y03778*
G37*
G36*
Y0358D02*
X1511D01*
Y03579*
X15107*
Y03578*
X15104*
Y03578*
X15102*
Y03577*
X15099*
Y03576*
X15097*
Y03576*
X15094*
Y03575*
X15091*
Y03574*
X15089*
Y03574*
X15086*
Y03573*
X15083*
Y03572*
X15081*
Y03572*
X15078*
Y03571*
X15076*
Y0357*
X15073*
Y0357*
X15071*
Y03569*
X15069*
Y03569*
X15066*
Y03568*
X15063*
Y03567*
X15061*
Y03567*
X15058*
Y03566*
X15055*
Y03565*
X15052*
Y03565*
X1505*
Y03564*
X15046*
Y03563*
X15044*
Y03563*
X15041*
Y03562*
X15038*
Y03561*
X15035*
Y03533*
X15037*
Y03534*
X1504*
Y03535*
X15042*
Y03535*
X15045*
Y03536*
X15048*
Y03537*
X1505*
Y03537*
X15053*
Y03538*
X15055*
Y03539*
X15058*
Y03539*
X15061*
Y0354*
X15063*
Y0354*
X15066*
Y03541*
X15069*
Y03542*
X15071*
Y03542*
X15074*
Y03543*
X15076*
Y03544*
X1508*
Y03544*
X15083*
Y03545*
X15085*
Y03546*
X15088*
Y03546*
X15091*
Y03547*
X15093*
Y03548*
X15096*
Y03548*
X15098*
Y03549*
X151*
Y0355*
X15103*
Y0355*
X15106*
Y03551*
X15108*
Y03552*
X15111*
Y03552*
X15112*
Y0358*
X15112*
Y0358*
G37*
G36*
X15111Y03673D02*
X15108D01*
Y03673*
X15106*
Y03672*
X15103*
Y03671*
X151*
Y03671*
X15098*
Y0367*
X15095*
Y0367*
X15093*
Y03669*
X1509*
Y03668*
X15087*
Y03668*
X15085*
Y03667*
X15082*
Y03666*
X15079*
Y03666*
X15076*
Y03665*
X15073*
Y03664*
X1507*
Y03664*
X15068*
Y03663*
X15065*
Y03662*
X15063*
Y03662*
X1506*
Y03661*
X15057*
Y0366*
X15055*
Y0366*
X15052*
Y03659*
X1505*
Y03658*
X15047*
Y03658*
X15044*
Y03657*
X15042*
Y03656*
X15039*
Y03656*
X15037*
Y03655*
X15034*
Y03655*
X15031*
Y03654*
X15029*
Y03653*
X15026*
Y03653*
X15024*
Y03652*
X15022*
Y03651*
X15019*
Y03651*
X15016*
Y0365*
X15014*
Y03649*
X15011*
Y03649*
X1501*
Y03621*
X15011*
Y03621*
X15013*
Y03622*
X15016*
Y03623*
X15018*
Y03623*
X15021*
Y03624*
X15023*
Y03625*
X15025*
Y03625*
X15028*
Y03626*
X15031*
Y03627*
X15033*
Y03627*
X15036*
Y03628*
X15039*
Y03628*
X15041*
Y03629*
X15044*
Y0363*
X15046*
Y0363*
X15049*
Y03631*
X15052*
Y03632*
X15054*
Y03632*
X15056*
Y03633*
X15059*
Y03634*
X15061*
Y03634*
X15064*
Y03635*
X15067*
Y03636*
X15069*
Y03636*
X15072*
Y03637*
X15074*
Y03638*
X15077*
Y03638*
X1508*
Y03639*
X15082*
Y0364*
X15085*
Y0364*
X15087*
Y03641*
X1509*
Y03641*
X15093*
Y03642*
X15095*
Y03643*
X15098*
Y03643*
X151*
Y03644*
X15103*
Y03645*
X15106*
Y03645*
X1511*
Y03646*
X15112*
Y03674*
X15111*
Y03673*
G37*
G36*
Y03449D02*
X15108D01*
Y03448*
X15106*
Y03447*
X15103*
Y03447*
X151*
Y03446*
X15098*
Y03445*
X15096*
Y03445*
X15093*
Y03444*
X15091*
Y03443*
X15088*
Y03443*
X15085*
Y03442*
X15083*
Y03441*
X1508*
Y03441*
X15078*
Y0344*
X15075*
Y0344*
X15072*
Y03439*
X1507*
Y03438*
X15067*
Y03438*
X15065*
Y03437*
X15061*
Y03436*
X15058*
Y03436*
X15055*
Y03435*
X15053*
Y03434*
X1505*
Y03434*
X15048*
Y03433*
X15045*
Y03432*
X15042*
Y03432*
X1504*
Y03431*
X15037*
Y0343*
X15035*
Y03402*
X15035*
Y03402*
X15038*
Y03403*
X1504*
Y03404*
X15043*
Y03404*
X15044*
Y03402*
X15043*
Y03402*
X15042*
Y03401*
X15042*
Y034*
X15041*
Y034*
X1504*
Y03399*
X1504*
Y03398*
X15039*
Y03398*
X15039*
Y03397*
X15038*
Y03396*
X15037*
Y03395*
X15037*
Y03394*
X15036*
Y03393*
X15035*
Y03391*
X15035*
Y03389*
X15034*
Y03387*
X15033*
Y03383*
X15033*
Y03374*
X15033*
Y0337*
X15034*
Y03368*
X15035*
Y03367*
X15035*
Y03368*
X15036*
Y03367*
X15035*
Y03365*
X15036*
Y03364*
X15037*
Y03363*
X15037*
Y03363*
X15039*
Y03362*
X15039*
Y03361*
X15041*
Y03361*
X15043*
Y0336*
X15045*
Y03359*
X15044*
Y03358*
X15043*
Y03357*
X15042*
Y03357*
X15042*
Y03356*
X15041*
Y03355*
X1504*
Y03355*
X1504*
Y03353*
X15039*
Y03353*
X15039*
Y03352*
X15038*
Y03351*
X15037*
Y0335*
X15037*
Y03349*
X15036*
Y03348*
X15035*
Y03346*
X15035*
Y03344*
X15034*
Y03341*
X15033*
Y03337*
X15033*
Y03329*
X15033*
Y03325*
X15034*
Y03323*
X15035*
Y03322*
X15035*
Y03322*
X15036*
Y03322*
X15035*
Y0332*
X15036*
Y03319*
X15037*
Y03318*
X15037*
Y03317*
X15039*
Y03316*
X15039*
Y03316*
X1504*
Y03315*
X15053*
Y03316*
X15055*
Y03316*
X15058*
Y03317*
X15061*
Y03318*
X15063*
Y03318*
X15066*
Y03319*
X15069*
Y0332*
X15071*
Y0332*
X15074*
Y03321*
X15076*
Y03322*
X15079*
Y03322*
X15082*
Y03323*
X15084*
Y03324*
X15087*
Y03324*
X15089*
Y03325*
X15092*
Y03325*
X15095*
Y03326*
X15097*
Y03327*
X15099*
Y03327*
X151*
Y03328*
X15102*
Y03329*
X15103*
Y03329*
X15104*
Y0333*
X15105*
Y03331*
X15106*
Y03331*
X15106*
Y03332*
X15107*
Y03333*
X15108*
Y03334*
X15108*
Y03335*
X15109*
Y03336*
X1511*
Y03337*
X1511*
Y03339*
X15111*
Y0334*
X15112*
Y03344*
X15112*
Y03358*
X15111*
Y03357*
X15108*
Y03357*
X15105*
Y03356*
X15102*
Y03355*
X151*
Y03355*
X15098*
Y03354*
X15095*
Y03353*
X15093*
Y03353*
X1509*
Y03352*
X15087*
Y03352*
X15085*
Y03351*
X15082*
Y0335*
X1508*
Y0335*
X15077*
Y03349*
X15074*
Y03348*
X15072*
Y03348*
X15069*
Y03347*
X15067*
Y03346*
X15064*
Y03346*
X15061*
Y03345*
X15058*
Y03344*
X15056*
Y03345*
X15054*
Y03346*
X15053*
Y03346*
X15052*
Y03346*
X15052*
Y03346*
X15052*
Y03348*
X15052*
Y0335*
X15051*
Y03354*
X15052*
Y03356*
X15052*
Y03357*
X15053*
Y03359*
X15054*
Y03359*
X15054*
Y0336*
X15055*
Y03361*
X15055*
Y03361*
X15056*
Y03362*
X15057*
Y03363*
X15059*
Y03363*
X15061*
Y03364*
X15064*
Y03365*
X15067*
Y03365*
X1507*
Y03366*
X15073*
Y03367*
X15076*
Y03367*
X15078*
Y03368*
X15081*
Y03368*
X15083*
Y03369*
X15086*
Y0337*
X15089*
Y0337*
X15091*
Y03371*
X15094*
Y03372*
X15097*
Y03372*
X15099*
Y03373*
X15102*
Y03374*
X15104*
Y03374*
X15107*
Y03375*
X1511*
Y03376*
X15112*
Y03404*
X1511*
Y03403*
X15108*
Y03402*
X15105*
Y03402*
X15102*
Y03401*
X151*
Y034*
X15098*
Y034*
X15095*
Y03399*
X15093*
Y03398*
X1509*
Y03398*
X15087*
Y03397*
X15085*
Y03397*
X15082*
Y03396*
X1508*
Y03395*
X15077*
Y03395*
X15074*
Y03394*
X15072*
Y03393*
X15069*
Y03393*
X15067*
Y03392*
X15064*
Y03391*
X15061*
Y03391*
X15058*
Y0339*
X15056*
Y03391*
X15054*
Y03391*
X15053*
Y03393*
X15052*
Y03393*
X15052*
Y03395*
X15051*
Y034*
X15052*
Y03402*
X15052*
Y03403*
X15053*
Y03404*
X15054*
Y03405*
X15054*
Y03406*
X15055*
Y03406*
X15055*
Y03407*
X15057*
Y03408*
X15058*
Y03408*
X1506*
Y03409*
X15063*
Y0341*
X15065*
Y0341*
X15068*
Y03411*
X1507*
Y03411*
X15073*
Y03412*
X15076*
Y03413*
X15078*
Y03413*
X1508*
Y03414*
X15083*
Y03415*
X15085*
Y03415*
X15088*
Y03416*
X15091*
Y03417*
X15095*
Y03417*
X15098*
Y03418*
X151*
Y03419*
X15102*
Y03419*
X15105*
Y0342*
X15108*
Y03421*
X1511*
Y03421*
X15112*
Y03449*
X15111*
Y03449*
G37*
G36*
X15095Y03533D02*
X15093D01*
Y03533*
X1509*
Y03532*
X15087*
Y03531*
X15084*
Y03531*
X15082*
Y0353*
X15079*
Y03529*
X15076*
Y03529*
X15074*
Y03528*
X15072*
Y03527*
X15069*
Y03527*
X15067*
Y03526*
X15064*
Y03526*
X15061*
Y03525*
X15059*
Y03524*
X15056*
Y03524*
X15054*
Y03523*
X15051*
Y03522*
X15048*
Y03522*
X15046*
Y03521*
X15043*
Y0352*
X15041*
Y0352*
X15038*
Y03519*
X15035*
Y03491*
X15036*
Y03492*
X15039*
Y03492*
X15042*
Y03493*
X15044*
Y03494*
X15048*
Y03494*
X1505*
Y03495*
X15053*
Y03496*
X15055*
Y03496*
X15058*
Y03497*
X15061*
Y03497*
X15063*
Y03498*
X15066*
Y03499*
X15069*
Y03499*
X15071*
Y035*
X15074*
Y03501*
X15076*
Y03501*
X15078*
Y03502*
X15081*
Y03503*
X15083*
Y03503*
X15086*
Y03504*
X15093*
Y03503*
X15094*
Y03503*
X15095*
Y03501*
X15095*
Y035*
X15096*
Y03494*
X15095*
Y03492*
X15095*
Y03491*
X15094*
Y0349*
X15093*
Y0349*
X15093*
Y03489*
X15092*
Y03488*
X15091*
Y03488*
X1509*
Y03487*
X15088*
Y03486*
X15086*
Y03486*
X15083*
Y03485*
X15081*
Y03484*
X15078*
Y03484*
X15076*
Y03483*
X15073*
Y03483*
X15071*
Y03482*
X15069*
Y03481*
X15066*
Y03481*
X15063*
Y0348*
X15061*
Y03479*
X15058*
Y03479*
X15055*
Y03478*
X15053*
Y03477*
X1505*
Y03477*
X15048*
Y03476*
X15045*
Y03475*
X15042*
Y03475*
X1504*
Y03474*
X15037*
Y03473*
X15035*
Y03445*
X15037*
Y03446*
X15039*
Y03447*
X15042*
Y03447*
X15044*
Y03448*
X15047*
Y03449*
X15049*
Y03449*
X15052*
Y0345*
X15054*
Y03452*
X15055*
Y03451*
X15057*
Y03451*
X15059*
Y03452*
X15062*
Y03453*
X15065*
Y03453*
X15067*
Y03454*
X1507*
Y03454*
X15072*
Y03455*
X15075*
Y03456*
X15078*
Y03456*
X1508*
Y03457*
X15083*
Y03458*
X15085*
Y03458*
X15088*
Y03459*
X15091*
Y0346*
X15093*
Y0346*
X15096*
Y03461*
X15098*
Y03462*
X15101*
Y03462*
X15104*
Y03463*
X15106*
Y03464*
X15109*
Y03464*
X15112*
Y03492*
X15112*
Y03492*
X15109*
Y03491*
X15106*
Y0349*
X15104*
Y0349*
X15102*
Y03492*
X15103*
Y03492*
X15104*
Y03493*
X15105*
Y03494*
X15106*
Y03494*
X15106*
Y03495*
X15107*
Y03496*
X15108*
Y03497*
X15108*
Y03497*
X15109*
Y03498*
X1511*
Y03499*
X1511*
Y03501*
X15111*
Y03502*
X15112*
Y03503*
X15112*
Y03505*
X15113*
Y03508*
X15113*
Y03513*
X15114*
Y03519*
X15113*
Y03524*
X15113*
Y03526*
X15112*
Y03527*
X15112*
Y03528*
X15111*
Y03527*
X1511*
Y03529*
X1511*
Y03528*
X15111*
Y03529*
X1511*
Y0353*
X1511*
Y03531*
X15109*
Y03531*
X15108*
Y03532*
X15108*
Y03533*
X15106*
Y03533*
X15105*
Y03534*
X15095*
Y03533*
G37*
G36*
X151Y03628D02*
X15096D01*
Y03627*
X15093*
Y03627*
X15091*
Y03626*
X15088*
Y03625*
X15085*
Y03625*
X15083*
Y03624*
X1508*
Y03623*
X15078*
Y03623*
X15076*
Y03622*
X15073*
Y03621*
X1507*
Y03621*
X15068*
Y0362*
X15065*
Y03619*
X15063*
Y03619*
X1506*
Y03618*
X15057*
Y03617*
X15055*
Y03617*
X15052*
Y03616*
X1505*
Y03615*
X15047*
Y03615*
X15044*
Y03614*
X1504*
Y03613*
X15038*
Y03613*
X15035*
Y03612*
X15033*
Y03612*
X1503*
Y03611*
X15027*
Y0361*
X15025*
Y0361*
X15023*
Y03609*
X1502*
Y03608*
X15018*
Y03608*
X15015*
Y03607*
X15012*
Y03606*
X15011*
Y03578*
X15012*
Y03579*
X15014*
Y0358*
X15017*
Y0358*
X1502*
Y03581*
X15022*
Y03582*
X15024*
Y03582*
X15027*
Y03583*
X15029*
Y03584*
X15031*
Y03584*
X15035*
Y03585*
X15035*
Y03585*
X15037*
Y03586*
X15038*
Y03585*
X15037*
Y03585*
X15036*
Y03584*
X15035*
Y03572*
X15036*
Y03573*
X15039*
Y03574*
X15041*
Y03574*
X15044*
Y03575*
X15046*
Y03576*
X15049*
Y03576*
X15052*
Y03578*
X15051*
Y03588*
X15052*
Y03589*
X15052*
Y03589*
X15054*
Y0359*
X15057*
Y03591*
X15059*
Y03591*
X15063*
Y03592*
X15065*
Y03593*
X15068*
Y03593*
X1507*
Y03594*
X15073*
Y03595*
X15076*
Y03595*
X1508*
Y03596*
X15082*
Y03597*
X15085*
Y03597*
X15087*
Y03598*
X15094*
Y03597*
X15095*
Y03597*
X15095*
Y03597*
X15096*
Y03597*
X15095*
Y03595*
X15096*
Y03588*
X15098*
Y03589*
X151*
Y03589*
X15103*
Y0359*
X15106*
Y03591*
X15108*
Y03591*
X15111*
Y03592*
X15112*
Y03591*
X15112*
Y03598*
X15113*
Y03614*
X15112*
Y03619*
X15112*
Y03621*
X15111*
Y03623*
X1511*
Y03625*
X1511*
Y03625*
X15109*
Y03626*
X15108*
Y03627*
X15108*
Y03627*
X15106*
Y03628*
X15104*
Y03628*
X151*
Y03628*
G37*
G36*
X11669Y04337D02*
X12291D01*
Y04362*
X11669*
Y04337*
G37*
G36*
X15108Y03302D02*
X15107D01*
Y03301*
X15102*
Y03302*
X151*
Y03301*
X15101*
Y03301*
X15103*
Y033*
X15106*
Y03301*
X15108*
Y03301*
X15109*
Y03302*
X1511*
Y03303*
X15108*
Y03302*
G37*
G36*
X1282Y05002D02*
X13442D01*
Y05027*
X1282*
Y05002*
G37*
G36*
X1445Y04555D02*
X1442D01*
Y04504*
X1445*
Y04504*
X14491*
Y04504*
Y04555*
Y04575*
X1445*
Y04555*
G37*
G36*
X1445Y0477D02*
X14421D01*
Y04719*
X1445*
Y04699*
X14491*
Y04719*
Y0477*
Y0479*
X1445*
Y0477*
G37*
G36*
X1442Y04935D02*
X1445D01*
Y04915*
X14491*
Y04935*
Y04985*
X1442*
Y04935*
G37*
G36*
X151Y03302D02*
X151D01*
Y03303*
X151*
Y03302*
G37*
G36*
X15099Y03303D02*
X151D01*
Y03303*
X15099*
Y03303*
G37*
G36*
X15102Y03305D02*
X15102D01*
Y03305*
X15104*
Y03306*
X15102*
Y03305*
G37*
G36*
X15112Y03307D02*
X15111D01*
Y03305*
X1511*
Y03303*
X15111*
Y03304*
X15112*
Y03307*
X15112*
Y03309*
X15112*
Y03307*
G37*
G36*
X15098Y03303D02*
X15099D01*
Y03305*
X15098*
Y03303*
G37*
G36*
X15098Y03305D02*
X15098D01*
Y03306*
X15098*
Y03305*
G37*
G36*
X15106Y03305D02*
X15107D01*
Y03305*
X15108*
Y03306*
X15106*
Y03305*
G37*
%LNchicker-2*%
%LPC*%
G36*
X15013Y03687D02*
X15014D01*
Y03686*
X15013*
Y03687*
G37*
G36*
X15011Y03688D02*
X15012D01*
Y03687*
X15012*
Y03686*
X15011*
Y03687*
X15011*
Y03688*
G37*
G36*
X15016Y03687D02*
X15017D01*
Y03686*
X15016*
Y03687*
G37*
G36*
X15015Y03686D02*
X15016D01*
Y03686*
X15015*
Y03686*
G37*
G36*
X1503Y03687D02*
X15031D01*
Y03686*
X1503*
Y03687*
G37*
G36*
X15048Y03688D02*
X15048D01*
Y03687*
X15048*
Y03688*
G37*
G36*
X1504Y03688D02*
X1504D01*
Y03688*
X1504*
Y03688*
G37*
G36*
X15027D02*
X15027D01*
Y03688*
X15027*
Y03688*
G37*
G36*
X15044D02*
X15044D01*
Y03688*
X15044*
Y03688*
G37*
G36*
X15022Y03688D02*
X15022D01*
Y03687*
X15022*
Y03688*
G37*
G36*
X15019D02*
X1502D01*
Y03687*
X15019*
Y03688*
G37*
G36*
X1502Y03686D02*
X1502D01*
Y03686*
X1502*
Y03686*
G37*
G36*
X15103Y03683D02*
X15104D01*
Y03683*
X15103*
Y03683*
G37*
G36*
X15032Y03686D02*
X15033D01*
Y03686*
X15032*
Y03686*
G37*
G36*
X15031D02*
X15031D01*
Y03686*
X15031*
Y03686*
G37*
G36*
X15046D02*
X15047D01*
Y03686*
X15046*
Y03686*
G37*
G36*
X15043Y03686D02*
X15044D01*
Y03685*
X15043*
Y03686*
G37*
G36*
X15036D02*
X15037D01*
Y03685*
X15036*
Y03686*
G37*
G36*
X15012Y0371D02*
X15012D01*
Y03709*
X15012*
Y0371*
G37*
G36*
X15102Y03711D02*
X15102D01*
Y0371*
X15102*
Y03711*
G37*
G36*
X15074Y0373D02*
X15076D01*
Y03712*
X15069*
Y03711*
X15057*
Y03711*
X15046*
Y0371*
X15034*
Y03709*
X15031*
Y0371*
X15032*
Y03711*
X15034*
Y03712*
X15035*
Y03713*
X15037*
Y03713*
X15038*
Y03714*
X15039*
Y03714*
X15041*
Y03715*
X15042*
Y03716*
X15044*
Y03716*
X15045*
Y03717*
X15046*
Y03718*
X15048*
Y03718*
X1505*
Y03719*
X15051*
Y0372*
X15052*
Y0372*
X15054*
Y03721*
X15055*
Y03722*
X15057*
Y03722*
X15058*
Y03723*
X1506*
Y03724*
X15061*
Y03724*
X15063*
Y03725*
X15064*
Y03726*
X15065*
Y03726*
X15067*
Y03727*
X15069*
Y03727*
X1507*
Y03728*
X15071*
Y03729*
X15072*
Y03729*
X15074*
Y0373*
G37*
G36*
X15057Y0371D02*
X15057D01*
Y03709*
X15057*
Y0371*
G37*
G36*
X15054D02*
X15055D01*
Y03709*
X15054*
Y0371*
G37*
G36*
X15098Y03711D02*
X15098D01*
Y0371*
X15098*
Y03711*
G37*
G36*
X15095Y03712D02*
X15097D01*
Y03711*
X15095*
Y03712*
G37*
G36*
X15078D02*
X15078D01*
Y03711*
X15078*
Y03712*
G37*
G36*
X15031D02*
X15032D01*
Y03711*
X15031*
Y03711*
X15031*
Y03711*
X15031*
Y03712*
G37*
G36*
X15095Y03711D02*
X15096D01*
Y0371*
X15095*
Y03711*
G37*
G36*
X15072D02*
X15073D01*
Y0371*
X15072*
Y03711*
G37*
G36*
X15076D02*
X15076D01*
Y0371*
X15076*
Y03709*
X15076*
Y0371*
X15077*
Y03711*
X15078*
Y0371*
X15077*
Y03709*
X15076*
Y03709*
X15075*
Y03709*
X15074*
Y0371*
X15076*
Y03711*
G37*
G36*
X15012Y03707D02*
X15012D01*
Y03705*
X15012*
Y03707*
G37*
G36*
X15098Y03709D02*
X15098D01*
Y03709*
X15098*
Y03709*
G37*
G36*
X15011Y03703D02*
X15012D01*
Y03703*
X15011*
Y03703*
G37*
G36*
X15017Y03688D02*
X15018D01*
Y03688*
X15017*
Y03688*
G37*
G36*
X15012Y03701D02*
X15012D01*
Y03699*
X15011*
Y037*
X15012*
Y03701*
G37*
G36*
X15095Y03709D02*
X15096D01*
Y03709*
X15095*
Y03709*
G37*
G36*
X15029Y0371D02*
X15029D01*
Y03709*
X15029*
Y03709*
X15028*
Y03709*
X15029*
Y0371*
G37*
G36*
X151D02*
X151D01*
Y03709*
X151*
Y0371*
G37*
G36*
X15029Y03709D02*
X1503D01*
Y03709*
X15029*
Y03709*
G37*
G36*
X15043D02*
X15044D01*
Y03709*
X15043*
Y03709*
G37*
G36*
X15042D02*
X15042D01*
Y03709*
X15042*
Y03709*
G37*
G36*
X15077Y03713D02*
X15078D01*
Y03712*
X15077*
Y03711*
X15076*
Y03712*
X15077*
Y03713*
G37*
G36*
X15108Y03749D02*
X15109D01*
Y03748*
X15108*
Y03749*
G37*
G36*
X15105D02*
X15106D01*
Y03748*
X15105*
Y03749*
G37*
G36*
X15104Y03748D02*
X15105D01*
Y03747*
X15104*
Y03748*
G37*
G36*
X15107Y03749D02*
X15108D01*
Y03748*
X15107*
Y03747*
X15106*
Y03746*
X15105*
Y03747*
X15106*
Y03748*
X15107*
Y03749*
G37*
G36*
X1511Y03748D02*
X15111D01*
Y03747*
X1511*
Y03748*
X1511*
Y03748*
G37*
G36*
X15111Y0375D02*
X15112D01*
Y03749*
X15111*
Y0375*
G37*
G36*
X15068Y03753D02*
X15069D01*
Y03752*
X15068*
Y03753*
G37*
G36*
X15066Y03754D02*
X15067D01*
Y03753*
X15066*
Y03754*
G37*
G36*
X15065Y03752D02*
X15065D01*
Y03751*
X15065*
Y03752*
G37*
G36*
X15106Y0375D02*
X15107D01*
Y03749*
X15106*
Y0375*
G37*
G36*
X15104D02*
X15105D01*
Y03749*
X15104*
Y0375*
G37*
G36*
X15108Y03747D02*
X15108D01*
Y03746*
X15108*
Y03746*
X15107*
Y03746*
X15108*
Y03747*
G37*
G36*
X151Y03744D02*
X151D01*
Y03743*
X151*
Y03744*
G37*
G36*
X15094D02*
X15095D01*
Y03743*
X15094*
Y03744*
G37*
G36*
X15101D02*
X15102D01*
Y03743*
X15101*
Y03744*
G37*
G36*
X15096Y03743D02*
X15097D01*
Y03742*
X15096*
Y03743*
G37*
G36*
X15102Y03744D02*
X15103D01*
Y03743*
X15102*
Y03744*
G37*
G36*
X15104Y03744D02*
X15104D01*
Y03744*
X15104*
Y03744*
G37*
G36*
X15105Y03746D02*
X15106D01*
Y03745*
X15105*
Y03746*
G37*
G36*
X15052D02*
X15052D01*
Y03745*
X15052*
Y03746*
G37*
G36*
X15054Y03745D02*
X15054D01*
Y03744*
X15054*
Y03745*
G37*
G36*
X15056D02*
X15057D01*
Y03744*
X15056*
Y03745*
G37*
G36*
X15057Y03748D02*
X15058D01*
Y03747*
X15057*
Y03746*
X15057*
Y03746*
X15056*
Y03745*
X15055*
Y03744*
X15055*
Y03745*
X15055*
Y03746*
X15056*
Y03746*
X15057*
Y03747*
X15057*
Y03748*
G37*
G36*
X15098Y03769D02*
X15099D01*
Y03769*
X15098*
Y03769*
G37*
G36*
X15097Y0377D02*
X15098D01*
Y03769*
X15097*
Y03769*
X15097*
Y03769*
X15097*
Y0377*
G37*
G36*
Y03769D02*
X15098D01*
Y03768*
X15097*
Y03769*
G37*
G36*
X15095Y03767D02*
X15095D01*
Y03767*
X15095*
Y03766*
X15094*
Y03767*
X15095*
Y03767*
G37*
G36*
X15096Y03768D02*
X15097D01*
Y03767*
X15096*
Y03768*
G37*
G36*
X15102Y03771D02*
X15103D01*
Y03771*
X15102*
Y0377*
X15101*
Y03771*
X15102*
Y03771*
G37*
G36*
X15111Y03776D02*
X15112D01*
Y03776*
X15111*
Y03776*
G37*
G36*
X1511D02*
X1511D01*
Y03776*
X1511*
Y03776*
G37*
G36*
X15102Y03772D02*
X15103D01*
Y03772*
X15102*
Y03772*
G37*
G36*
X15101Y03772D02*
X15102D01*
Y03771*
X15101*
Y03771*
X151*
Y0377*
X151*
Y03771*
X151*
Y03771*
X15101*
Y03772*
G37*
G36*
X15104Y03771D02*
X15104D01*
Y03771*
X15104*
Y03771*
G37*
G36*
X15095Y03767D02*
X15096D01*
Y03766*
X15095*
Y03767*
G37*
G36*
X15072Y03756D02*
X15073D01*
Y03756*
X15072*
Y03755*
X15072*
Y03756*
X15072*
Y03756*
G37*
G36*
X15083Y0376D02*
X15083D01*
Y03759*
X15083*
Y0376*
G37*
G36*
X15076Y03759D02*
X15077D01*
Y03757*
X15076*
Y03756*
X15076*
Y03755*
X15075*
Y03756*
X15074*
Y03755*
X15074*
Y03756*
X15074*
Y03758*
X15075*
Y03757*
X15076*
Y03758*
X15076*
Y03759*
G37*
G36*
X15067Y03754D02*
X15068D01*
Y03754*
X15067*
Y03754*
G37*
G36*
X15078Y03757D02*
X15078D01*
Y03756*
X15079*
Y03755*
X15078*
Y03756*
X15078*
Y03755*
X15077*
Y03756*
X15078*
Y03757*
G37*
G36*
X1508Y0376D02*
X1508D01*
Y03759*
X1508*
Y0376*
G37*
G36*
X15089Y03766D02*
X1509D01*
Y03765*
X15089*
Y03765*
X15089*
Y03765*
X15089*
Y03766*
G37*
G36*
X15097Y03767D02*
X15098D01*
Y03766*
X15097*
Y03767*
G37*
G36*
X15087Y03764D02*
X15088D01*
Y03763*
X15087*
Y03763*
X15086*
Y03762*
X15085*
Y03763*
X15085*
Y03763*
X15087*
Y03764*
G37*
G36*
Y03761D02*
X15088D01*
Y03761*
X15087*
Y0376*
X15086*
Y03761*
X15087*
Y03761*
G37*
G36*
X15082D02*
X15083D01*
Y03761*
X15082*
Y0376*
X15081*
Y03761*
X15082*
Y03761*
G37*
G36*
X15098Y03743D02*
X15099D01*
Y03742*
X15098*
Y03743*
G37*
G36*
X1505Y03722D02*
X1505D01*
Y03721*
X1505*
Y03722*
G37*
G36*
X15056Y03724D02*
X15057D01*
Y03723*
X15056*
Y03722*
X15055*
Y03723*
X15056*
Y03724*
G37*
G36*
X15052Y03722D02*
X15052D01*
Y03722*
X15052*
Y03721*
X15051*
Y03722*
X15052*
Y03722*
G37*
G36*
X15016Y03718D02*
X15016D01*
Y03718*
X15016*
Y03718*
G37*
G36*
X15016Y0372D02*
X15018D01*
Y03719*
X15016*
Y0372*
G37*
G36*
X1505Y03723D02*
X15051D01*
Y03722*
X1505*
Y03723*
G37*
G36*
X15064Y03727D02*
X15065D01*
Y03726*
X15064*
Y03727*
G37*
G36*
X15065Y03727D02*
X15066D01*
Y03727*
X15065*
Y03727*
G37*
G36*
X1502Y03726D02*
X1502D01*
Y03725*
X1502*
Y03726*
G37*
G36*
X15049Y03723D02*
X1505D01*
Y03722*
X15049*
Y03723*
G37*
G36*
X15048Y03724D02*
X15049D01*
Y03723*
X15048*
Y03724*
G37*
G36*
X1504Y03718D02*
X1504D01*
Y03718*
X1504*
Y03718*
G37*
G36*
X15014Y03715D02*
X15014D01*
Y03714*
X15014*
Y03714*
X15013*
Y03714*
X15014*
Y03715*
G37*
G36*
X15038D02*
X15039D01*
Y03714*
X15038*
Y03715*
G37*
G36*
X15078Y03714D02*
X15078D01*
Y03713*
X15078*
Y03714*
G37*
G36*
X15029Y03712D02*
X1503D01*
Y03711*
X15029*
Y03712*
G37*
G36*
X15031Y03713D02*
X15031D01*
Y03713*
X15031*
Y03713*
G37*
G36*
X15016Y03715D02*
X15017D01*
Y03714*
X15016*
Y03715*
G37*
G36*
Y03717D02*
X15017D01*
Y03716*
X15016*
Y03717*
G37*
G36*
X15044Y03718D02*
X15044D01*
Y03718*
X15044*
Y03717*
X15042*
Y03718*
X15044*
Y03718*
G37*
G36*
X1504Y03717D02*
X1504D01*
Y03716*
X1504*
Y03717*
G37*
G36*
X1504Y03716D02*
X15041D01*
Y03716*
X1504*
Y03715*
X1504*
Y03716*
X1504*
Y03716*
G37*
G36*
X15014D02*
X15014D01*
Y03716*
X15014*
Y03716*
G37*
G36*
X15036Y03737D02*
X15037D01*
Y03736*
X15036*
Y03735*
X15035*
Y03735*
X15035*
Y03734*
X15034*
Y03735*
X15033*
Y03735*
X15035*
Y03736*
X15036*
Y03737*
G37*
G36*
X15046Y03741D02*
X15047D01*
Y0374*
X15046*
Y03739*
X15046*
Y0374*
X15046*
Y03741*
G37*
G36*
X15074Y03734D02*
X15075D01*
Y03733*
X15074*
Y03734*
G37*
G36*
X15078D02*
X15078D01*
Y03733*
X15078*
Y03734*
G37*
G36*
X15076D02*
X15077D01*
Y03733*
X15076*
Y03734*
G37*
G36*
X15043Y03741D02*
X15044D01*
Y03741*
X15043*
Y0374*
X15042*
Y03741*
X15043*
Y03741*
G37*
G36*
X15046Y03742D02*
X15047D01*
Y03741*
X15046*
Y03741*
X15046*
Y03741*
X15046*
Y03742*
G37*
G36*
X15097Y03742D02*
X15098D01*
Y03742*
X15097*
Y03742*
G37*
G36*
X15048Y03741D02*
X15048D01*
Y03741*
X15048*
Y03741*
G37*
G36*
X15096Y03742D02*
X15097D01*
Y03741*
X15096*
Y03742*
G37*
G36*
X15095Y03741D02*
X15095D01*
Y03741*
X15095*
Y03741*
G37*
G36*
X15075Y03733D02*
X15076D01*
Y03732*
X15075*
Y03733*
G37*
G36*
X15066Y03729D02*
X15067D01*
Y03728*
X15066*
Y03729*
G37*
G36*
X15065Y03729D02*
X15065D01*
Y03729*
X15065*
Y03729*
G37*
G36*
X15068Y03729D02*
X15069D01*
Y03728*
X15068*
Y03729*
G37*
G36*
X15061Y03727D02*
X15062D01*
Y03727*
X15063*
Y03727*
X15063*
Y03727*
X15063*
Y03726*
X15063*
Y03726*
X15062*
Y03726*
X15061*
Y03726*
X15061*
Y03726*
X1506*
Y03727*
X15061*
Y03727*
G37*
G36*
X15059Y03729D02*
X15061D01*
Y03729*
X1506*
Y03728*
X15059*
Y03727*
X15059*
Y03729*
X15059*
Y03729*
G37*
G36*
X15076Y0373D02*
X15077D01*
Y03729*
X15076*
Y0373*
G37*
G36*
X15031Y03732D02*
X15031D01*
Y03731*
X15031*
Y03732*
G37*
G36*
X15078Y03733D02*
X15079D01*
Y03731*
X15078*
Y03733*
G37*
G36*
X15076Y03732D02*
X15077D01*
Y03731*
X15076*
Y03731*
X15076*
Y03732*
G37*
G36*
X15024Y0373D02*
X15025D01*
Y03729*
X15024*
Y0373*
G37*
G36*
X15025Y03731D02*
X15026D01*
Y0373*
X15025*
Y03731*
G37*
G36*
X15069Y03569D02*
X1507D01*
Y03568*
X15069*
Y03569*
G37*
G36*
X15091Y03573D02*
X15091D01*
Y03572*
X15091*
Y03572*
X1509*
Y03572*
X15091*
Y03573*
G37*
G36*
X15078Y03569D02*
X15078D01*
Y03568*
X15078*
Y03569*
G37*
G36*
X1507Y03569D02*
X15071D01*
Y03568*
X1507*
Y03567*
X1507*
Y03568*
X1507*
Y03569*
G37*
G36*
X15067Y03568D02*
X15068D01*
Y03567*
X15067*
Y03568*
G37*
G36*
X15087Y03573D02*
X15089D01*
Y03572*
X15087*
Y03572*
X15086*
Y03572*
X15087*
Y03573*
G37*
G36*
X15092Y03574D02*
X15093D01*
Y03573*
X15092*
Y03574*
G37*
G36*
X15098Y03574D02*
X15099D01*
Y03574*
X15098*
Y03574*
G37*
G36*
X15096Y03574D02*
X15097D01*
Y03573*
X15096*
Y03574*
G37*
G36*
X15098Y03573D02*
X15099D01*
Y03572*
X15098*
Y03573*
G37*
G36*
X15095D02*
X15095D01*
Y03572*
X15095*
Y03573*
G37*
G36*
X15072Y03569D02*
X15073D01*
Y03569*
X15072*
Y03567*
X15072*
Y03569*
X15072*
Y03569*
G37*
G36*
X15049Y03563D02*
X1505D01*
Y03563*
X15049*
Y03563*
G37*
G36*
X15057Y03564D02*
X15058D01*
Y03563*
X15057*
Y03564*
G37*
G36*
X15047Y03563D02*
X15048D01*
Y03562*
X15047*
Y03563*
G37*
G36*
X15055D02*
X15055D01*
Y03562*
X15055*
Y03563*
G37*
G36*
X15054D02*
X15054D01*
Y03562*
X15054*
Y03563*
G37*
G36*
X15057Y03565D02*
X15057D01*
Y03564*
X15057*
Y03565*
G37*
G36*
X15078Y03568D02*
X15079D01*
Y03567*
X15078*
Y03568*
G37*
G36*
X15075D02*
X15076D01*
Y03567*
X15075*
Y03568*
G37*
G36*
X1507Y03567D02*
X15071D01*
Y03567*
X1507*
Y03567*
G37*
G36*
X15056Y03565D02*
X15057D01*
Y03565*
X15056*
Y03565*
G37*
G36*
X15073Y03568D02*
X15074D01*
Y03567*
X15073*
Y03567*
X15072*
Y03567*
X15073*
Y03568*
G37*
G36*
X15095Y03575D02*
X15096D01*
Y03574*
X15095*
Y03575*
G37*
G36*
X15097Y03576D02*
X15098D01*
Y03574*
X15098*
Y03575*
X15097*
Y03574*
X15097*
Y03575*
X15097*
Y03576*
G37*
G36*
X1511Y03579D02*
X15111D01*
Y03578*
X15112*
Y03578*
X15111*
Y03577*
X1511*
Y03578*
X1511*
Y03579*
G37*
G36*
X15106Y03578D02*
X15108D01*
Y03577*
X15106*
Y03578*
G37*
G36*
X15045Y03562D02*
X15046D01*
Y03561*
X15045*
Y03562*
G37*
G36*
X15057Y0354D02*
X15057D01*
Y0354*
X15057*
Y03539*
X15056*
Y0354*
X15057*
Y0354*
G37*
G36*
X15056Y03541D02*
X15057D01*
Y0354*
X15056*
Y0354*
X15055*
Y0354*
X15056*
Y03541*
G37*
G36*
X15052Y03539D02*
X15053D01*
Y03539*
X15052*
Y03539*
G37*
G36*
X15039Y03536D02*
X15039D01*
Y03535*
X15039*
Y03536*
G37*
G36*
X15049Y03539D02*
X1505D01*
Y03538*
X15049*
Y03539*
G37*
G36*
X15091Y03552D02*
X15091D01*
Y03551*
X15091*
Y03552*
G37*
G36*
X15089D02*
X1509D01*
Y03551*
X15089*
Y03552*
G37*
G36*
X15097D02*
X15097D01*
Y03551*
X15097*
Y03552*
G37*
G36*
X1509Y0355D02*
X15091D01*
Y0355*
X1509*
Y0355*
G37*
G36*
X15101Y03552D02*
X15102D01*
Y03551*
X15101*
Y03552*
G37*
G36*
X1511Y03553D02*
X1511D01*
Y03552*
X1511*
Y03553*
G37*
G36*
X15036Y0356D02*
X15037D01*
Y03559*
X15036*
Y0356*
G37*
G36*
X15052Y03562D02*
X15053D01*
Y03561*
X15052*
Y03562*
G37*
G36*
X15037Y0356D02*
X15038D01*
Y03559*
X15037*
Y03559*
X15037*
Y0356*
G37*
G36*
X1511Y03556D02*
X1511D01*
Y03555*
X1511*
Y03556*
G37*
G36*
X15036Y03558D02*
X15037D01*
Y03557*
X15037*
Y03557*
X15036*
Y03558*
G37*
G36*
X15095Y0355D02*
X15096D01*
Y0355*
X15095*
Y0355*
G37*
G36*
X1507Y03544D02*
X1507D01*
Y03544*
X1507*
Y03544*
G37*
G36*
X15077Y03546D02*
X15078D01*
Y03545*
X15077*
Y03544*
X15076*
Y03545*
X15077*
Y03546*
G37*
G36*
X15074Y03544D02*
X15075D01*
Y03544*
X15074*
Y03544*
G37*
G36*
X15061Y03541D02*
X15061D01*
Y0354*
X15061*
Y03541*
G37*
G36*
X15059D02*
X1506D01*
Y0354*
X15059*
Y03541*
G37*
G36*
X15071Y03545D02*
X15072D01*
Y03544*
X15071*
Y03545*
G37*
G36*
X15098Y0355D02*
X15098D01*
Y0355*
X15098*
Y0355*
G37*
G36*
X15097D02*
X15097D01*
Y0355*
X15097*
Y0355*
G37*
G36*
X15092Y03551D02*
X15093D01*
Y0355*
X15092*
Y0355*
X15091*
Y03549*
X15091*
Y0355*
X15091*
Y0355*
X15092*
Y03551*
G37*
G36*
X15076Y03546D02*
X15077D01*
Y03546*
X15076*
Y03545*
X15076*
Y03546*
X15076*
Y03546*
G37*
G36*
X15093Y0355D02*
X15093D01*
Y0355*
X15093*
Y03549*
X15092*
Y03548*
X15091*
Y03549*
X15092*
Y0355*
X15093*
Y0355*
G37*
G36*
X15106Y03671D02*
X15107D01*
Y03671*
X15106*
Y03671*
G37*
G36*
X15109Y03672D02*
X1511D01*
Y03671*
X15109*
Y03672*
G37*
G36*
X15102Y03671D02*
X15102D01*
Y0367*
X15102*
Y03671*
G37*
G36*
X15102Y0367D02*
X15103D01*
Y0367*
X15102*
Y03669*
X15101*
Y0367*
X15102*
Y0367*
G37*
G36*
X15095Y0367D02*
X15096D01*
Y03669*
X15095*
Y0367*
G37*
G36*
X15093Y03669D02*
X15093D01*
Y03668*
X15093*
Y03669*
G37*
G36*
X15027Y0365D02*
X15027D01*
Y03649*
X15027*
Y0365*
G37*
G36*
X15024D02*
X15025D01*
Y03649*
X15024*
Y0365*
G37*
G36*
X15014Y03649D02*
X15014D01*
Y03649*
X15014*
Y03649*
G37*
G36*
X15017D02*
X15018D01*
Y03649*
X15017*
Y03649*
G37*
G36*
X15016Y0365D02*
X15017D01*
Y03649*
X15016*
Y03649*
X15016*
Y03649*
X15016*
Y0365*
G37*
G36*
X15022Y03651D02*
X15023D01*
Y03651*
X15022*
Y0365*
X15022*
Y03651*
X15022*
Y03651*
G37*
G36*
X15036Y03655D02*
X15037D01*
Y03654*
X15038*
Y03653*
X15037*
Y03654*
X15036*
Y03655*
G37*
G36*
X15032Y03654D02*
X15033D01*
Y03653*
X15032*
Y03654*
G37*
G36*
X15039D02*
X15039D01*
Y03653*
X15039*
Y03654*
G37*
G36*
X15048Y03655D02*
X15048D01*
Y03653*
X15047*
Y03654*
X15048*
Y03655*
G37*
G36*
X15044D02*
X15044D01*
Y03653*
X15044*
Y03655*
G37*
G36*
X15025Y03649D02*
X15026D01*
Y03649*
X15025*
Y03649*
G37*
G36*
X15103Y03646D02*
X15104D01*
Y03645*
X15103*
Y03646*
G37*
G36*
X15101D02*
X15102D01*
Y03645*
X15101*
Y03646*
G37*
G36*
X1508Y03641D02*
X15081D01*
Y03641*
X1508*
Y03641*
G37*
G36*
X15079Y03641D02*
X1508D01*
Y0364*
X15079*
Y03641*
G37*
G36*
X15084Y03642D02*
X15085D01*
Y03641*
X15085*
Y03641*
X15084*
Y03642*
G37*
G36*
X15099Y03646D02*
X151D01*
Y03645*
X15099*
Y03646*
G37*
G36*
X15027Y03649D02*
X15027D01*
Y03648*
X15027*
Y03649*
G37*
G36*
X15012D02*
X15012D01*
Y03648*
X15012*
Y03649*
G37*
G36*
X15106Y03648D02*
X15106D01*
Y03647*
X15106*
Y03648*
G37*
G36*
X15108Y03647D02*
X15109D01*
Y03647*
X15108*
Y03647*
G37*
G36*
X15101D02*
X15102D01*
Y03647*
X15101*
Y03647*
G37*
G36*
X15084Y03666D02*
X15085D01*
Y03665*
X15084*
Y03664*
X15083*
Y03665*
X15084*
Y03666*
G37*
G36*
X1508Y03665D02*
X1508D01*
Y03664*
X1508*
Y03665*
G37*
G36*
X15082Y03664D02*
X15083D01*
Y03664*
X15082*
Y03664*
G37*
G36*
X15083Y03664D02*
X15083D01*
Y03663*
X15083*
Y03664*
G37*
G36*
X15074D02*
X15075D01*
Y03663*
X15074*
Y03664*
G37*
G36*
X15085Y03666D02*
X15086D01*
Y03665*
X15085*
Y03666*
G37*
G36*
X151Y0367D02*
X15101D01*
Y0367*
X151*
Y03669*
X151*
Y03668*
X15099*
Y03669*
X151*
Y0367*
X151*
Y0367*
G37*
G36*
X15098D02*
X15099D01*
Y0367*
X15098*
Y03669*
X15098*
Y03668*
X15097*
Y03669*
X15098*
Y0367*
X15098*
Y0367*
G37*
G36*
X15086Y03667D02*
X15087D01*
Y03666*
X15086*
Y03667*
G37*
G36*
X15082Y03666D02*
X15082D01*
Y03665*
X15082*
Y03666*
G37*
G36*
X15087Y03666D02*
X15089D01*
Y03666*
X15087*
Y03666*
G37*
G36*
X15085Y03664D02*
X15087D01*
Y03664*
X15085*
Y03663*
X15084*
Y03664*
X15085*
Y03664*
G37*
G36*
X15042Y03656D02*
X15042D01*
Y03656*
X15042*
Y03656*
G37*
G36*
X1506Y03658D02*
X15061D01*
Y03658*
X1506*
Y03658*
G37*
G36*
X15044Y03656D02*
X15045D01*
Y03656*
X15046*
Y03655*
X15044*
Y03656*
X15044*
Y03656*
G37*
G36*
X1504Y03655D02*
X15042D01*
Y03655*
X15041*
Y03654*
X1504*
Y03655*
G37*
G36*
X15047D02*
X15048D01*
Y03655*
X15047*
Y03655*
G37*
G36*
X15057Y0366D02*
X15057D01*
Y03659*
X15057*
Y03658*
X15056*
Y03658*
X15055*
Y03658*
X15056*
Y03659*
X15057*
Y0366*
G37*
G36*
X15063Y0366D02*
X15064D01*
Y0366*
X15063*
Y0366*
G37*
G36*
X15067Y03662D02*
X15068D01*
Y03662*
X15067*
Y03662*
G37*
G36*
X15065Y0366D02*
X15066D01*
Y0366*
X15065*
Y0366*
G37*
G36*
Y03659D02*
X15066D01*
Y03658*
X15065*
Y03659*
G37*
G36*
X15061Y03661D02*
X15063D01*
Y0366*
X15062*
Y03659*
X15061*
Y0366*
X15062*
Y0366*
X15061*
Y03661*
G37*
G36*
X15011Y03623D02*
X15011D01*
Y03622*
X15011*
Y03623*
G37*
G36*
X15041Y03632D02*
X15042D01*
Y03631*
X15042*
Y0363*
X15042*
Y0363*
X15041*
Y03632*
G37*
G36*
X15044D02*
X15044D01*
Y0363*
X15044*
Y03632*
G37*
G36*
X15039Y0363D02*
X15039D01*
Y03629*
X15039*
Y0363*
G37*
G36*
X15028Y03628D02*
X15029D01*
Y03627*
X15028*
Y03628*
G37*
G36*
X15018D02*
X15019D01*
Y03627*
X15018*
Y03628*
G37*
G36*
X15047Y03632D02*
X15048D01*
Y03631*
X15047*
Y03632*
G37*
G36*
X15061Y03638D02*
X15062D01*
Y03637*
X15061*
Y03636*
X1506*
Y03637*
X15061*
Y03638*
G37*
G36*
X15082Y03641D02*
X15083D01*
Y03641*
X15083*
Y0364*
X15082*
Y03641*
X15082*
Y03641*
G37*
G36*
X15064Y03636D02*
X15065D01*
Y03636*
X15064*
Y03636*
G37*
G36*
X1505Y03632D02*
X1505D01*
Y03632*
X1505*
Y03632*
G37*
G36*
X15061Y03636D02*
X15063D01*
Y03636*
X15063*
Y03635*
X15062*
Y03636*
X15061*
Y03636*
G37*
G36*
X15025Y03627D02*
X15025D01*
Y03627*
X15025*
Y03627*
G37*
G36*
X15018Y03625D02*
X15019D01*
Y03625*
X15018*
Y03625*
G37*
G36*
X15018Y03626D02*
X15018D01*
Y03625*
X15018*
Y03626*
G37*
G36*
X15022D02*
X15022D01*
Y03625*
X15022*
Y03626*
G37*
G36*
Y03627D02*
X15022D01*
Y03627*
X15022*
Y03626*
X15021*
Y03625*
X1502*
Y03626*
X15021*
Y03627*
X15022*
Y03627*
G37*
G36*
X15111Y03449D02*
X15112D01*
Y03448*
X15111*
Y03449*
G37*
G36*
X15083Y03441D02*
X15084D01*
Y03441*
X15083*
Y03441*
G37*
G36*
X15093Y03443D02*
X15094D01*
Y03442*
X15093*
Y03443*
G37*
G36*
X15089D02*
X1509D01*
Y03442*
X15089*
Y03443*
G37*
G36*
X1508Y0344D02*
X15081D01*
Y0344*
X1508*
Y0344*
G37*
G36*
X15082Y03441D02*
X15082D01*
Y0344*
X15082*
Y03441*
G37*
G36*
X15085Y03442D02*
X15087D01*
Y03441*
X15087*
Y03441*
X15086*
Y03441*
X15085*
Y03441*
X15085*
Y03441*
X15085*
Y03442*
G37*
G36*
X15106Y03447D02*
X15107D01*
Y03446*
X15106*
Y03445*
X15106*
Y03446*
X15106*
Y03447*
G37*
G36*
X1511Y03447D02*
X15112D01*
Y03447*
X1511*
Y03447*
G37*
G36*
X1511Y03448D02*
X1511D01*
Y03447*
X1511*
Y03447*
X15109*
Y03447*
X1511*
Y03448*
G37*
G36*
X15092Y03443D02*
X15093D01*
Y03443*
X15092*
Y03443*
G37*
G36*
X1511Y03446D02*
X15111D01*
Y03445*
X1511*
Y03446*
G37*
G36*
X15107D02*
X15108D01*
Y03445*
X15107*
Y03446*
G37*
G36*
X15087Y03441D02*
X15089D01*
Y0344*
X15088*
Y0344*
X15087*
Y0344*
X15087*
Y03441*
G37*
G36*
X1507Y03414D02*
X15071D01*
Y03413*
X1507*
Y03414*
G37*
G36*
X15093Y03419D02*
X15093D01*
Y03418*
X15093*
Y03417*
X15092*
Y03418*
X15093*
Y03419*
G37*
G36*
X15067Y03414D02*
X15068D01*
Y03413*
X15067*
Y03413*
X15067*
Y03413*
X15067*
Y03414*
G37*
G36*
X15068Y03413D02*
X15069D01*
Y03412*
X15068*
Y03413*
G37*
G36*
X15074Y03413D02*
X15074D01*
Y03413*
X15074*
Y03413*
G37*
G36*
X15091Y03418D02*
X15091D01*
Y03417*
X15091*
Y03418*
G37*
G36*
X15108Y03423D02*
X15108D01*
Y03422*
X15108*
Y03423*
G37*
G36*
X15111Y03424D02*
X15112D01*
Y03423*
X15111*
Y03424*
G37*
G36*
X1511Y03423D02*
X1511D01*
Y03423*
X1511*
Y03422*
X15109*
Y03423*
X1511*
Y03423*
G37*
G36*
X15086Y03419D02*
X15087D01*
Y03418*
X15086*
Y03419*
G37*
G36*
X1511Y03423D02*
X15112D01*
Y03422*
X1511*
Y03423*
G37*
G36*
X15049Y03402D02*
X1505D01*
Y03401*
X15049*
Y03402*
G37*
G36*
X1511Y03403D02*
X15112D01*
Y03402*
X15111*
Y03402*
X1511*
Y03403*
G37*
G36*
X15047Y03404D02*
X15048D01*
Y03402*
X15047*
Y03402*
X15046*
Y034*
X15046*
Y03401*
X15045*
Y03402*
X15044*
Y03402*
X15046*
Y03402*
X15046*
Y03403*
X15047*
Y03404*
G37*
G36*
X15108Y03402D02*
X15108D01*
Y034*
X15108*
Y03402*
G37*
G36*
X15048Y03401D02*
X15048D01*
Y034*
X15048*
Y03401*
G37*
G36*
X15051Y03403D02*
X15052D01*
Y03402*
X15051*
Y03403*
G37*
G36*
X15069Y03412D02*
X15069D01*
Y03411*
X15069*
Y03412*
G37*
G36*
X1507Y03413D02*
X15071D01*
Y03412*
X1507*
Y03413*
G37*
G36*
X15054Y03408D02*
X15054D01*
Y03408*
X15054*
Y03408*
G37*
G36*
X15036Y03404D02*
X15037D01*
Y03403*
X15036*
Y03404*
G37*
G36*
X15055Y03408D02*
X15055D01*
Y03408*
X15055*
Y03407*
X15054*
Y03408*
X15055*
Y03408*
G37*
G36*
X1507Y03436D02*
X1507D01*
Y03435*
X1507*
Y03436*
G37*
G36*
X15068D02*
X15069D01*
Y03435*
X15068*
Y03436*
G37*
G36*
X15061Y03435D02*
X15062D01*
Y03434*
X15061*
Y03435*
G37*
G36*
X15067D02*
X15067D01*
Y03434*
X15067*
Y03435*
G37*
G36*
X15063D02*
X15063D01*
Y03434*
X15063*
Y03435*
G37*
G36*
X15065Y03436D02*
X15065D01*
Y03435*
X15065*
Y03436*
G37*
G36*
X15064Y03436D02*
X15065D01*
Y03436*
X15064*
Y03436*
G37*
G36*
X15073Y03438D02*
X15074D01*
Y03437*
X15073*
Y03438*
G37*
G36*
X15066Y03436D02*
X15067D01*
Y03436*
X15066*
Y03436*
G37*
G36*
X15071D02*
X15072D01*
Y03436*
X15071*
Y03436*
G37*
G36*
X15067D02*
X15068D01*
Y03436*
X15067*
Y03436*
G37*
G36*
X1505Y0343D02*
X1505D01*
Y0343*
X1505*
Y0343*
G37*
G36*
X15042D02*
X15042D01*
Y0343*
X15042*
Y0343*
G37*
G36*
X1504Y0343D02*
X15041D01*
Y03429*
X1504*
Y0343*
G37*
G36*
X15053D02*
X15054D01*
Y03429*
X15053*
Y0343*
G37*
G36*
X15047Y0343D02*
X15048D01*
Y0343*
X15047*
Y03429*
X15046*
Y0343*
X15047*
Y0343*
G37*
G36*
X15039D02*
X15039D01*
Y0343*
X15039*
Y0343*
G37*
G36*
X15053Y03432D02*
X15054D01*
Y03432*
X15053*
Y03432*
G37*
G36*
X15073Y03435D02*
X15074D01*
Y03434*
X15073*
Y03435*
G37*
G36*
X15048Y03432D02*
X15048D01*
Y03432*
X15048*
Y03431*
X15047*
Y03432*
X15048*
Y03432*
G37*
G36*
X15051Y03431D02*
X15052D01*
Y0343*
X15051*
Y03431*
G37*
G36*
X15043D02*
X15044D01*
Y0343*
X15043*
Y03431*
G37*
G36*
X15067Y03346D02*
X15068D01*
Y03346*
X15067*
Y03346*
G37*
G36*
X1507Y03347D02*
X15071D01*
Y03346*
X1507*
Y03347*
G37*
G36*
X1511Y03346D02*
X15111D01*
Y03346*
X1511*
Y03346*
G37*
G36*
X15051Y03347D02*
X15052D01*
Y03346*
X15051*
Y03345*
X1505*
Y03346*
X15051*
Y03347*
G37*
G36*
X15049Y03346D02*
X1505D01*
Y03345*
X15049*
Y03346*
G37*
G36*
Y03347D02*
X1505D01*
Y03346*
X15049*
Y03347*
G37*
G36*
X15072Y03348D02*
X15073D01*
Y03347*
X15072*
Y03348*
G37*
G36*
X1505D02*
X15051D01*
Y03347*
X1505*
Y03348*
G37*
G36*
X1511D02*
X1511D01*
Y03347*
X1511*
Y03348*
G37*
G36*
X15036Y03347D02*
X15037D01*
Y03346*
X15036*
Y03347*
G37*
G36*
X15111Y03348D02*
X15112D01*
Y03347*
X15111*
Y03348*
G37*
G36*
X1511Y03345D02*
X15111D01*
Y03344*
X1511*
Y03345*
G37*
G36*
X1507D02*
X1507D01*
Y03344*
X1507*
Y03344*
X15069*
Y03344*
X1507*
Y03345*
G37*
G36*
X15037Y03344D02*
X15038D01*
Y03343*
X15037*
Y03344*
G37*
G36*
X15052D02*
X15053D01*
Y03343*
X15052*
Y03344*
G37*
G36*
X1505D02*
X15051D01*
Y03343*
X1505*
Y03344*
G37*
G36*
X15064Y03344D02*
X15065D01*
Y03344*
X15064*
Y03344*
G37*
G36*
X15036Y03346D02*
X15037D01*
Y03345*
X15037*
Y03344*
X15036*
Y03346*
G37*
G36*
X15071D02*
X15072D01*
Y03345*
X15071*
Y03346*
G37*
G36*
X15052Y03345D02*
X15053D01*
Y03344*
X15052*
Y03345*
G37*
G36*
X1505Y03344D02*
X1505D01*
Y03344*
X1505*
Y03344*
G37*
G36*
X15072Y03345D02*
X15073D01*
Y03344*
X15072*
Y03345*
G37*
G36*
X15037Y03348D02*
X15037D01*
Y03348*
X15037*
Y03348*
G37*
G36*
X15091Y03352D02*
X15092D01*
Y03352*
X15091*
Y0335*
X15091*
Y03352*
X15091*
Y03352*
G37*
G36*
X1505Y03351D02*
X1505D01*
Y0335*
X1505*
Y03351*
G37*
G36*
X15093D02*
X15094D01*
Y0335*
X15093*
Y03351*
G37*
G36*
X15042Y03352D02*
X15042D01*
Y0335*
X15042*
Y0335*
X15041*
Y0335*
X15042*
Y03352*
G37*
G36*
X1504Y03352D02*
X15041D01*
Y03351*
X1504*
Y0335*
X1504*
Y0335*
X15039*
Y03351*
X1504*
Y03352*
X1504*
Y03352*
G37*
G36*
X15039Y03353D02*
X1504D01*
Y03352*
X15039*
Y03351*
X15039*
Y0335*
X15038*
Y03351*
X15039*
Y03352*
X15039*
Y03353*
G37*
G36*
X15042Y03354D02*
X15042D01*
Y03353*
X15042*
Y03353*
X15041*
Y03353*
X15042*
Y03354*
G37*
G36*
X1511D02*
X15112D01*
Y03353*
X1511*
Y03354*
G37*
G36*
X15042Y03353D02*
X15043D01*
Y03353*
X15042*
Y03353*
G37*
G36*
X15089Y03352D02*
X1509D01*
Y03351*
X15089*
Y03352*
G37*
G36*
X15104Y03355D02*
X15104D01*
Y03354*
X15104*
Y03353*
X15103*
Y03353*
X15102*
Y03353*
X15103*
Y03354*
X15104*
Y03355*
G37*
G36*
X15087Y03352D02*
X15089D01*
Y0335*
X15088*
Y0335*
X15087*
Y03349*
X15087*
Y03348*
X15086*
Y03349*
X15087*
Y0335*
X15085*
Y0335*
X15086*
Y03351*
X15087*
Y0335*
X15088*
Y03351*
X15087*
Y03352*
G37*
G36*
X15078Y03349D02*
X15079D01*
Y03348*
X15078*
Y03349*
G37*
G36*
X15089Y0335D02*
X15089D01*
Y03349*
X15089*
Y03348*
X15087*
Y03349*
X15089*
Y0335*
G37*
G36*
X15093Y0335D02*
X15094D01*
Y03348*
X15093*
Y0335*
G37*
G36*
X15091Y03349D02*
X15091D01*
Y03348*
X15091*
Y03349*
G37*
G36*
X1505Y0335D02*
X1505D01*
Y03348*
X1505*
Y0335*
G37*
G36*
X15082D02*
X15082D01*
Y03349*
X15082*
Y0335*
G37*
G36*
X15042Y0335D02*
X15043D01*
Y03349*
X15042*
Y0335*
G37*
G36*
X15093Y03352D02*
X15093D01*
Y03352*
X15093*
Y03349*
X15092*
Y03352*
X15093*
Y03352*
G37*
G36*
X15041Y03349D02*
X15042D01*
Y03348*
X15041*
Y03349*
G37*
G36*
X1504Y0335D02*
X1504D01*
Y03348*
X1504*
Y0335*
G37*
G36*
X15072Y03323D02*
X15072D01*
Y03322*
X15072*
Y03323*
G37*
G36*
X15063D02*
X15064D01*
Y03322*
X15063*
Y03323*
G37*
G36*
X15076D02*
X15077D01*
Y03322*
X15076*
Y03323*
G37*
G36*
X1507D02*
X15071D01*
Y03322*
X1507*
Y03322*
X1507*
Y03322*
X1507*
Y03323*
G37*
G36*
X15078D02*
X15078D01*
Y03322*
X15078*
Y03323*
G37*
G36*
X15087Y03327D02*
X15089D01*
Y03325*
X15088*
Y03325*
X15087*
Y03325*
X15087*
Y03324*
X15085*
Y03325*
X15087*
Y03325*
X15087*
Y03327*
G37*
G36*
X15085Y03326D02*
X15087D01*
Y03325*
X15085*
Y03326*
G37*
G36*
X15093Y03327D02*
X15093D01*
Y03326*
X15093*
Y03327*
G37*
G36*
X1509Y03327D02*
X15091D01*
Y03326*
X1509*
Y03325*
X15089*
Y03327*
X1509*
Y03327*
G37*
G36*
X15037Y03325D02*
X15038D01*
Y03324*
X15037*
Y03325*
G37*
G36*
X15036Y03327D02*
X15037D01*
Y03327*
X15036*
Y03325*
X15037*
Y03325*
X15035*
Y03326*
X15035*
Y03327*
X15036*
Y03327*
G37*
G36*
X1504Y03318D02*
X15041D01*
Y03317*
X1504*
Y03316*
X1504*
Y03317*
X1504*
Y03318*
G37*
G36*
X15055D02*
X15056D01*
Y03317*
X15055*
Y03318*
G37*
G36*
X15042D02*
X15042D01*
Y03317*
X15042*
Y03316*
X15041*
Y03317*
X15042*
Y03318*
G37*
G36*
X1505Y03316D02*
X1505D01*
Y03316*
X1505*
Y03316*
G37*
G36*
X15051Y03317D02*
X15052D01*
Y03316*
X15051*
Y03317*
G37*
G36*
X15052Y03318D02*
X15053D01*
Y03317*
X15052*
Y03318*
G37*
G36*
X15065Y03321D02*
X15065D01*
Y0332*
X15065*
Y03321*
G37*
G36*
Y03322D02*
X15066D01*
Y03322*
X15065*
Y03321*
X15064*
Y0332*
X15063*
Y03321*
X15064*
Y03322*
X15065*
Y03322*
G37*
G36*
X15037Y0332D02*
X15038D01*
Y0332*
X15037*
Y0332*
G37*
G36*
X15044Y03318D02*
X15045D01*
Y03317*
X15044*
Y03318*
G37*
G36*
X15066Y0332D02*
X15067D01*
Y0332*
X15066*
Y0332*
G37*
G36*
X15091Y03327D02*
X15092D01*
Y03326*
X15091*
Y03327*
G37*
G36*
X1511Y0334D02*
X1511D01*
Y0334*
X1511*
Y0334*
G37*
G36*
X1511Y03343D02*
X15111D01*
Y03341*
X1511*
Y03342*
X1511*
Y03342*
X1511*
Y03343*
G37*
G36*
X15036Y03341D02*
X15037D01*
Y0334*
X15036*
Y0334*
X15037*
Y03339*
X15035*
Y0334*
X15035*
Y0334*
X15036*
Y03341*
G37*
G36*
X15106Y03337D02*
X15106D01*
Y03337*
X15106*
Y03337*
G37*
G36*
X15037Y0334D02*
X15038D01*
Y03339*
X15037*
Y03339*
X15037*
Y0334*
G37*
G36*
X15035Y03342D02*
X15036D01*
Y03341*
X15035*
Y03342*
G37*
G36*
X15061Y03344D02*
X15063D01*
Y03344*
X15063*
Y03343*
X15062*
Y03344*
X15061*
Y03343*
X15061*
Y03344*
X15061*
Y03344*
G37*
G36*
X15056Y03344D02*
X15057D01*
Y03343*
X15056*
Y03344*
G37*
G36*
X15066Y03344D02*
X15067D01*
Y03344*
X15066*
Y03343*
X15065*
Y03344*
X15066*
Y03344*
G37*
G36*
X15037Y03342D02*
X15038D01*
Y03342*
X15037*
Y03342*
G37*
G36*
X1507Y03344D02*
X15071D01*
Y03344*
X1507*
Y03343*
X1507*
Y03344*
X1507*
Y03344*
G37*
G36*
X15101Y03332D02*
X15102D01*
Y03331*
X15101*
Y03331*
X151*
Y0333*
X151*
Y03331*
X151*
Y03331*
X15101*
Y03332*
G37*
G36*
X15102Y03331D02*
X15102D01*
Y03331*
X15102*
Y03331*
G37*
G36*
X15102Y03331D02*
X15103D01*
Y0333*
X15102*
Y03331*
G37*
G36*
X15085Y03327D02*
X15087D01*
Y03327*
X15085*
Y03327*
G37*
G36*
X15037D02*
X15038D01*
Y03327*
X15037*
Y03327*
G37*
G36*
X15103Y03332D02*
X15104D01*
Y03331*
X15103*
Y03332*
G37*
G36*
X15107Y03337D02*
X15108D01*
Y03336*
X15107*
Y03337*
G37*
G36*
X15104D02*
X15105D01*
Y03336*
X15104*
Y03337*
G37*
G36*
X15105Y03336D02*
X15106D01*
Y03335*
X15105*
Y03336*
G37*
G36*
X151Y03333D02*
X151D01*
Y03332*
X151*
Y03333*
G37*
G36*
X15104Y03333D02*
X15105D01*
Y03333*
X15104*
Y03333*
G37*
G36*
X15107Y03355D02*
X15108D01*
Y03353*
X15107*
Y03355*
G37*
G36*
X15072Y03392D02*
X15072D01*
Y03391*
X15072*
Y03392*
G37*
G36*
X1507D02*
X15071D01*
Y03391*
X1507*
Y03392*
G37*
G36*
X15036Y03391D02*
X15037D01*
Y03391*
X15036*
Y03391*
G37*
G36*
X1505Y03392D02*
X15051D01*
Y03391*
X1505*
Y03391*
X1505*
Y03391*
X1505*
Y03392*
G37*
G36*
X15049D02*
X1505D01*
Y03391*
X15049*
Y03391*
X15048*
Y03391*
X15049*
Y03392*
G37*
G36*
X15037Y03393D02*
X15037D01*
Y03392*
X15037*
Y03393*
G37*
G36*
X15087Y03395D02*
X15088D01*
Y03394*
X15087*
Y03395*
G37*
G36*
X15086Y03396D02*
X15087D01*
Y03395*
X15086*
Y03395*
X15085*
Y03394*
X15084*
Y03395*
X15085*
Y03395*
X15086*
Y03396*
G37*
G36*
X15089Y03395D02*
X1509D01*
Y03394*
X15089*
Y03395*
G37*
G36*
X15072Y03393D02*
X15073D01*
Y03393*
X15072*
Y03393*
G37*
G36*
X1505D02*
X15051D01*
Y03393*
X1505*
Y03393*
G37*
G36*
X15052Y0339D02*
X15053D01*
Y03389*
X15052*
Y0339*
G37*
G36*
X15051Y03391D02*
X15052D01*
Y0339*
X15051*
Y03389*
X1505*
Y0339*
X15051*
Y03391*
G37*
G36*
X15054Y0339D02*
X15055D01*
Y03389*
X15054*
Y0339*
G37*
G36*
X15055Y03389D02*
X15055D01*
Y03389*
X15055*
Y03389*
G37*
G36*
X15059Y0339D02*
X15061D01*
Y03389*
X15059*
Y0339*
G37*
G36*
X15072Y03391D02*
X15072D01*
Y0339*
X15072*
Y03391*
G37*
G36*
X15063D02*
X15063D01*
Y0339*
X15063*
Y03391*
G37*
G36*
X15073Y03391D02*
X15074D01*
Y03391*
X15073*
Y03391*
G37*
G36*
X15065Y03391D02*
X15065D01*
Y0339*
X15065*
Y03391*
G37*
G36*
X1507D02*
X1507D01*
Y0339*
X1507*
Y03391*
G37*
G36*
X15069Y03391D02*
X1507D01*
Y03391*
X15069*
Y0339*
X15068*
Y03391*
X15069*
Y03391*
G37*
G36*
X1508Y03395D02*
X15081D01*
Y03395*
X1508*
Y03394*
X1508*
Y03395*
X1508*
Y03395*
G37*
G36*
X1511Y034D02*
X1511D01*
Y03399*
X1511*
Y034*
G37*
G36*
X15108D02*
X15109D01*
Y03399*
X15108*
Y034*
G37*
G36*
X15111D02*
X15112D01*
Y03399*
X15111*
Y034*
G37*
G36*
X15042Y03398D02*
X15043D01*
Y03398*
X15042*
Y03397*
X15042*
Y03398*
X15042*
Y03398*
G37*
G36*
X1504Y03398D02*
X15041D01*
Y03397*
X1504*
Y03398*
G37*
G36*
X15106Y034D02*
X15106D01*
Y03399*
X15106*
Y034*
G37*
G36*
X1505Y03402D02*
X15051D01*
Y03401*
X1505*
Y034*
X1505*
Y03401*
X1505*
Y03402*
G37*
G36*
X15042Y034D02*
X15042D01*
Y034*
X15042*
Y034*
G37*
G36*
X15048Y034D02*
X15048D01*
Y03399*
X15048*
Y034*
G37*
G36*
X15102Y034D02*
X15104D01*
Y03399*
X15103*
Y034*
X15102*
Y034*
G37*
G36*
X15098Y034D02*
X15098D01*
Y03399*
X15098*
Y034*
G37*
G36*
X15093Y03397D02*
X15094D01*
Y03396*
X15093*
Y03395*
X15093*
Y03396*
X15093*
Y03397*
G37*
G36*
X1509Y03396D02*
X15091D01*
Y03395*
X1509*
Y03396*
G37*
G36*
X15038Y03395D02*
X15039D01*
Y03395*
X15038*
Y03395*
G37*
G36*
X1505D02*
X1505D01*
Y03395*
X1505*
Y03395*
G37*
G36*
X15039D02*
X1504D01*
Y03395*
X15039*
Y03395*
G37*
G36*
X15089Y03396D02*
X15089D01*
Y03395*
X15089*
Y03396*
G37*
G36*
X15039Y03397D02*
X1504D01*
Y03397*
X15039*
Y03396*
X15039*
Y03397*
X15039*
Y03397*
G37*
G36*
X15091D02*
X15091D01*
Y03397*
X15091*
Y03397*
G37*
G36*
X1505Y03397D02*
X1505D01*
Y03396*
X1505*
Y03397*
G37*
G36*
X15084Y03396D02*
X15085D01*
Y03395*
X15084*
Y03396*
G37*
G36*
X15092Y03397D02*
X15093D01*
Y03397*
X15092*
Y03396*
X15091*
Y03397*
X15092*
Y03397*
G37*
G36*
X15055Y03363D02*
X15055D01*
Y03363*
X15055*
Y03363*
G37*
G36*
X15044D02*
X15044D01*
Y03363*
X15044*
Y03363*
G37*
G36*
X15056D02*
X15057D01*
Y03363*
X15056*
Y03362*
X15055*
Y03363*
X15056*
Y03363*
G37*
G36*
X15046D02*
X15047D01*
Y03363*
X15046*
Y03362*
X15046*
Y03361*
X15045*
Y03362*
X15046*
Y03363*
X15046*
Y03363*
G37*
G36*
X15042Y03362D02*
X15044D01*
Y03361*
X15042*
Y03362*
G37*
G36*
X15037Y03365D02*
X15038D01*
Y03365*
X15037*
Y03365*
G37*
G36*
Y03367D02*
X15038D01*
Y03366*
X15037*
Y03367*
G37*
G36*
X15067Y03368D02*
X15068D01*
Y03367*
X15067*
Y03367*
X15067*
Y03367*
X15067*
Y03368*
G37*
G36*
X15063Y03367D02*
X15064D01*
Y03366*
X15063*
Y03367*
G37*
G36*
X15065Y03366D02*
X15066D01*
Y03365*
X15065*
Y03366*
G37*
G36*
X15067Y03367D02*
X15068D01*
Y03366*
X15067*
Y03367*
G37*
G36*
X15106Y03355D02*
X15107D01*
Y03355*
X15106*
Y03355*
G37*
G36*
X15105D02*
X15106D01*
Y03355*
X15105*
Y03355*
G37*
G36*
X15102Y03355D02*
X15103D01*
Y03354*
X15102*
Y03355*
G37*
G36*
X15041D02*
X15042D01*
Y03354*
X15041*
Y03353*
X1504*
Y03354*
X15041*
Y03355*
G37*
G36*
X1511Y03356D02*
X15112D01*
Y03355*
X15111*
Y03355*
X1511*
Y03354*
X15109*
Y03355*
X1511*
Y03355*
X1511*
Y03356*
G37*
G36*
X1505Y03355D02*
X1505D01*
Y03355*
X1505*
Y03355*
G37*
G36*
X15046Y03361D02*
X15046D01*
Y0336*
X15046*
Y03361*
G37*
G36*
X15054Y03362D02*
X15055D01*
Y03361*
X15054*
Y03362*
G37*
G36*
X15045Y03359D02*
X15046D01*
Y03358*
X15045*
Y03359*
G37*
G36*
X15109Y03356D02*
X1511D01*
Y03355*
X15109*
Y03356*
G37*
G36*
X15049Y03357D02*
X1505D01*
Y03357*
X15049*
Y03357*
G37*
G36*
X15072Y03368D02*
X15073D01*
Y03368*
X15072*
Y03368*
G37*
G36*
X15104Y03378D02*
X15105D01*
Y03377*
X15104*
Y03378*
G37*
G36*
X15037Y03387D02*
X15038D01*
Y03385*
X15037*
Y03385*
X15037*
Y03384*
X15035*
Y03385*
X15036*
Y03385*
X15037*
Y03386*
X15037*
Y03387*
X15037*
Y03387*
G37*
G36*
X15111Y03378D02*
X15112D01*
Y03378*
X15111*
Y03376*
X1511*
Y03378*
X15111*
Y03378*
G37*
G36*
X15108Y03376D02*
X15108D01*
Y03376*
X15108*
Y03376*
G37*
G36*
X15106Y03377D02*
X15106D01*
Y03376*
X15106*
Y03377*
G37*
G36*
X15034Y03385D02*
X15035D01*
Y03384*
X15034*
Y03385*
G37*
G36*
X15072Y03389D02*
X15072D01*
Y03389*
X15072*
Y03389*
G37*
G36*
X15066Y0339D02*
X15067D01*
Y03389*
X15066*
Y03389*
X15065*
Y03389*
X15066*
Y0339*
G37*
G36*
X15035Y03389D02*
X15036D01*
Y03388*
X15035*
Y03387*
X15035*
Y03389*
G37*
G36*
X15035Y03386D02*
X15036D01*
Y03385*
X15035*
Y03386*
G37*
G36*
Y03387D02*
X15037D01*
Y03387*
X15035*
Y03387*
G37*
G36*
X15035Y03371D02*
X15036D01*
Y0337*
X15035*
Y03371*
G37*
G36*
X15086Y03372D02*
X15087D01*
Y03371*
X15086*
Y03372*
G37*
G36*
X15036Y0337D02*
X15037D01*
Y0337*
X15036*
Y03369*
X15035*
Y0337*
X15036*
Y0337*
G37*
G36*
X15067Y03368D02*
X15067D01*
Y03368*
X15067*
Y03368*
G37*
G36*
X15037Y0337D02*
X15038D01*
Y03369*
X15037*
Y0337*
G37*
G36*
X15084Y03372D02*
X15085D01*
Y03371*
X15084*
Y03372*
G37*
G36*
X15096Y03374D02*
X15097D01*
Y03373*
X15096*
Y03374*
G37*
G36*
X15089D02*
X1509D01*
Y03373*
X15089*
Y03374*
G37*
G36*
X15035D02*
X15036D01*
Y03373*
X15035*
Y03372*
X15034*
Y03373*
X15035*
Y03374*
G37*
G36*
X15088D02*
X15089D01*
Y03372*
X15088*
Y03372*
X15087*
Y03373*
X15088*
Y03374*
G37*
G36*
X15035Y03372D02*
X15037D01*
Y03372*
X15035*
Y03372*
G37*
G36*
X15036Y03447D02*
X15037D01*
Y03447*
X15036*
Y03447*
G37*
G36*
X15044Y03449D02*
X15045D01*
Y03449*
X15044*
Y03449*
G37*
G36*
X15036Y0345D02*
X15037D01*
Y03449*
X15036*
Y0345*
G37*
G36*
X15055Y03454D02*
X15057D01*
Y03454*
X15057*
Y03453*
X15058*
Y03452*
X15057*
Y03453*
X15056*
Y03451*
X15055*
Y03453*
X15056*
Y03453*
X15055*
Y03454*
G37*
G36*
X15063D02*
X15064D01*
Y03453*
X15063*
Y03454*
G37*
G36*
X15042Y03449D02*
X15042D01*
Y03449*
X15042*
Y03449*
G37*
G36*
X15039D02*
X1504D01*
Y03449*
X15039*
Y03449*
G37*
G36*
X15038D02*
X15039D01*
Y03449*
X15038*
Y03449*
G37*
G36*
X15097Y03464D02*
X15098D01*
Y03464*
X15097*
Y03464*
G37*
G36*
X15101Y03465D02*
X15102D01*
Y03464*
X15101*
Y03465*
G37*
G36*
X151Y03464D02*
X151D01*
Y03464*
X151*
Y03464*
G37*
G36*
X151Y03464D02*
X15101D01*
Y03463*
X151*
Y03464*
G37*
G36*
X15103Y03464D02*
X15104D01*
Y03464*
X15103*
Y03464*
G37*
G36*
X15039Y03473D02*
X15039D01*
Y03473*
X15039*
Y03473*
G37*
G36*
X15041Y03474D02*
X15042D01*
Y03473*
X15041*
Y03474*
G37*
G36*
X15042Y03473D02*
X15043D01*
Y03473*
X15042*
Y03473*
G37*
G36*
X15098Y03465D02*
X15099D01*
Y03464*
X15098*
Y03465*
G37*
G36*
X15036Y03473D02*
X15037D01*
Y03472*
X15037*
Y03471*
X15036*
Y03473*
G37*
G36*
X15094Y03463D02*
X15095D01*
Y03462*
X15094*
Y03463*
G37*
G36*
X15078Y03458D02*
X15078D01*
Y03458*
X15078*
Y03458*
G37*
G36*
X15082Y03459D02*
X15083D01*
Y03458*
X15082*
Y03459*
G37*
G36*
X15074Y03456D02*
X15075D01*
Y03456*
X15074*
Y03456*
G37*
G36*
X15059Y03454D02*
X1506D01*
Y03453*
X15061*
Y03454*
X15061*
Y03453*
X15059*
Y03453*
X15059*
Y03454*
G37*
G36*
X15065Y03454D02*
X15065D01*
Y03454*
X15065*
Y03454*
G37*
G36*
X15095Y03462D02*
X15095D01*
Y03461*
X15095*
Y03462*
G37*
G36*
X15097Y03463D02*
X15097D01*
Y03462*
X15097*
Y03463*
G37*
G36*
X15075Y0346D02*
X15076D01*
Y03459*
X15075*
Y0346*
G37*
G36*
X15082D02*
X15082D01*
Y03459*
X15082*
Y0346*
G37*
G36*
X1508D02*
X15081D01*
Y03459*
X1508*
Y0346*
G37*
G36*
X15082Y03504D02*
X15082D01*
Y03503*
X15082*
Y03504*
G37*
G36*
X1508Y03505D02*
X1508D01*
Y03503*
X1508*
Y03505*
G37*
G36*
X15098Y03504D02*
X15098D01*
Y03503*
X15098*
Y03504*
G37*
G36*
X15096Y03503D02*
X15097D01*
Y03502*
X15095*
Y03503*
X15096*
Y03503*
G37*
G36*
X15076Y03505D02*
X15077D01*
Y03505*
X15078*
Y03503*
X15077*
Y03502*
X15076*
Y03504*
X15076*
Y03505*
X15076*
Y03505*
G37*
G36*
X15095D02*
X15096D01*
Y03504*
X15095*
Y03505*
G37*
G36*
X15088D02*
X1509D01*
Y03505*
X15088*
Y03505*
G37*
G36*
X15111Y03506D02*
X15112D01*
Y03505*
X15111*
Y03506*
G37*
G36*
X15098Y03505D02*
X15098D01*
Y03505*
X15098*
Y03505*
G37*
G36*
X15085D02*
X15086D01*
Y03504*
X15085*
Y03505*
G37*
G36*
X15081D02*
X15082D01*
Y03505*
X15082*
Y03504*
X15081*
Y03505*
G37*
G36*
X15098Y03501D02*
X15099D01*
Y035*
X15098*
Y03501*
G37*
G36*
X15069D02*
X1507D01*
Y035*
X15069*
Y03501*
G37*
G36*
X15065Y035D02*
X15065D01*
Y03499*
X15065*
Y035*
G37*
G36*
X1506Y03499D02*
X15061D01*
Y03499*
X1506*
Y03499*
G37*
G36*
X15059Y03501D02*
X15061D01*
Y035*
X1506*
Y03499*
X15059*
Y03499*
X15059*
Y035*
X15059*
Y03501*
G37*
G36*
X15067D02*
X15068D01*
Y035*
X15067*
Y03501*
G37*
G36*
X15097Y03503D02*
X15098D01*
Y03502*
X15097*
Y03501*
X15098*
Y03501*
X15097*
Y03502*
X15097*
Y03503*
G37*
G36*
X15074D02*
X15075D01*
Y03501*
X15074*
Y03503*
G37*
G36*
X1511Y03503D02*
X15111D01*
Y03502*
X1511*
Y03501*
X1511*
Y03502*
X1511*
Y03503*
X1511*
Y03503*
G37*
G36*
X15061Y03501D02*
X15063D01*
Y035*
X15061*
Y03501*
G37*
G36*
X15055D02*
X15055D01*
Y035*
X15055*
Y03501*
G37*
G36*
X1511Y03518D02*
X15111D01*
Y03518*
X1511*
Y03518*
G37*
G36*
X15041Y0352D02*
X15042D01*
Y03518*
X15041*
Y0352*
G37*
G36*
X1504Y03518D02*
X1504D01*
Y03517*
X1504*
Y03518*
G37*
G36*
X15042D02*
X15043D01*
Y03517*
X15042*
Y03516*
X15042*
Y03517*
X15042*
Y03518*
G37*
G36*
X15112D02*
X15113D01*
Y03517*
X15112*
Y03518*
G37*
G36*
X15112Y03521D02*
X15112D01*
Y0352*
X15112*
Y0352*
X1511*
Y0352*
X15112*
Y03521*
G37*
G36*
Y03524D02*
X15112D01*
Y03522*
X15112*
Y03524*
G37*
G36*
X15059Y03524D02*
X15061D01*
Y03523*
X1506*
Y03522*
X15059*
Y03523*
X1506*
Y03524*
X15059*
Y03524*
G37*
G36*
X15056Y03522D02*
X15057D01*
Y03522*
X15056*
Y03522*
G37*
G36*
X15061Y03524D02*
X15063D01*
Y03523*
X15062*
Y03522*
X15061*
Y03522*
X15061*
Y03521*
X15059*
Y03522*
X1506*
Y03522*
X15061*
Y03523*
X15061*
Y03524*
G37*
G36*
X15051Y03522D02*
X15052D01*
Y03521*
X15051*
Y03522*
G37*
G36*
X1511Y03509D02*
X15112D01*
Y03509*
X15111*
Y03508*
X1511*
Y03509*
X1511*
Y03509*
G37*
G36*
X15111Y03512D02*
X15113D01*
Y03511*
X15112*
Y03511*
X15112*
Y03511*
X1511*
Y03511*
X15111*
Y03512*
G37*
G36*
X15112Y03509D02*
X15113D01*
Y03509*
X15112*
Y03508*
X15112*
Y03507*
X15111*
Y03508*
X15112*
Y03509*
X15112*
Y03509*
G37*
G36*
X1511Y03506D02*
X1511D01*
Y03505*
X1511*
Y03506*
G37*
G36*
X15112Y03507D02*
X15112D01*
Y03507*
X15112*
Y03507*
G37*
G36*
X1511Y03512D02*
X15111D01*
Y03512*
X1511*
Y03512*
G37*
G36*
X1504Y03516D02*
X1504D01*
Y03516*
X1504*
Y03516*
G37*
G36*
X15036Y03518D02*
X15037D01*
Y03517*
X15038*
Y03516*
X15037*
Y03516*
X15036*
Y03516*
X15037*
Y03517*
X15036*
Y03518*
G37*
G36*
X15112Y03516D02*
X15113D01*
Y03516*
X15112*
Y03516*
G37*
G36*
Y03513D02*
X15113D01*
Y03512*
X15112*
Y03513*
G37*
G36*
X1511Y03514D02*
X15112D01*
Y03513*
X1511*
Y03514*
G37*
G36*
X15105Y03499D02*
X15106D01*
Y03499*
X15105*
Y03499*
G37*
G36*
X15072Y03481D02*
X15073D01*
Y03481*
X15072*
Y03481*
G37*
G36*
X15082Y03483D02*
X15083D01*
Y03481*
X15082*
Y03483*
G37*
G36*
X15078Y03481D02*
X15079D01*
Y03481*
X15078*
Y03481*
G37*
G36*
X15073Y03481D02*
X15074D01*
Y0348*
X15073*
Y03481*
G37*
G36*
X1508Y03481D02*
X15081D01*
Y03481*
X1508*
Y03481*
G37*
G36*
X15077Y03482D02*
X15078D01*
Y03481*
X15077*
Y03482*
G37*
G36*
X15089Y03486D02*
X1509D01*
Y03485*
X15089*
Y03486*
G37*
G36*
X15093Y03489D02*
X15093D01*
Y03488*
X15093*
Y03489*
G37*
G36*
X1508Y03483D02*
X15081D01*
Y03483*
X1508*
Y03483*
G37*
G36*
X15078Y03483D02*
X15079D01*
Y03482*
X15078*
Y03483*
G37*
G36*
X15082Y03483D02*
X15082D01*
Y03483*
X15082*
Y03483*
G37*
G36*
X15053Y03476D02*
X15054D01*
Y03475*
X15053*
Y03476*
G37*
G36*
X15049D02*
X15051D01*
Y03475*
X15049*
Y03476*
G37*
G36*
X15055Y03477D02*
X15056D01*
Y03477*
X15057*
Y03475*
X15056*
Y03476*
X15055*
Y03475*
X15055*
Y03477*
X15055*
Y03477*
G37*
G36*
X15061Y03476D02*
X15062D01*
Y03475*
X15061*
Y03476*
G37*
G36*
Y03479D02*
X15061D01*
Y03478*
X15061*
Y03477*
X1506*
Y03475*
X15059*
Y03477*
X15059*
Y03477*
X1506*
Y03478*
X15061*
Y03479*
G37*
G36*
X15059D02*
X15059D01*
Y03477*
X15059*
Y03477*
X15058*
Y03477*
X15059*
Y03479*
G37*
G36*
X15083Y03481D02*
X15083D01*
Y03481*
X15083*
Y0348*
X15082*
Y03481*
X15083*
Y03481*
G37*
G36*
X15076Y03481D02*
X15076D01*
Y0348*
X15076*
Y03481*
G37*
G36*
X15057Y03478D02*
X15057D01*
Y03477*
X15057*
Y03478*
G37*
G36*
X15054Y03477D02*
X15055D01*
Y03477*
X15054*
Y03477*
G37*
G36*
X15053D02*
X15054D01*
Y03477*
X15053*
Y03477*
G37*
G36*
X15042Y03496D02*
X15042D01*
Y03495*
X15042*
Y03496*
G37*
G36*
X1504D02*
X1504D01*
Y03495*
X1504*
Y03496*
G37*
G36*
X15046D02*
X15046D01*
Y03495*
X15046*
Y03496*
G37*
G36*
X1504Y03495D02*
X15041D01*
Y03494*
X1504*
Y03495*
G37*
G36*
X15038D02*
X15039D01*
Y03494*
X15038*
Y03495*
G37*
G36*
X15097Y03497D02*
X15098D01*
Y03496*
X15097*
Y03497*
G37*
G36*
Y03499D02*
X15098D01*
Y03498*
X15097*
Y03499*
G37*
G36*
X15054D02*
X15054D01*
Y03498*
X15054*
Y03499*
G37*
G36*
X15056Y035D02*
X15057D01*
Y03499*
X15056*
Y03498*
X15055*
Y03497*
X15055*
Y03498*
X15055*
Y03499*
X15056*
Y035*
G37*
G36*
X15106Y03497D02*
X15107D01*
Y03497*
X15106*
Y03497*
G37*
G36*
X15106Y03498D02*
X15106D01*
Y03497*
X15106*
Y03498*
G37*
G36*
X15098Y03493D02*
X15099D01*
Y03492*
X15098*
Y03492*
X15097*
Y03492*
X15098*
Y03493*
G37*
G36*
X151D02*
X151D01*
Y03492*
X151*
Y03493*
G37*
G36*
X15101Y03492D02*
X15102D01*
Y03492*
X15101*
Y03492*
G37*
G36*
X15097Y03491D02*
X15098D01*
Y0349*
X15097*
Y03491*
G37*
G36*
X15095Y03492D02*
X15096D01*
Y03491*
X15095*
Y03492*
G37*
G36*
X15096Y03493D02*
X15097D01*
Y03492*
X15096*
Y03493*
G37*
G36*
X15102Y03494D02*
X15102D01*
Y03494*
X15102*
Y03494*
G37*
G36*
X151Y03495D02*
X15101D01*
Y03494*
X151*
Y03494*
X151*
Y03494*
X151*
Y03495*
G37*
G36*
X15036Y03496D02*
X15037D01*
Y03495*
X15037*
Y03494*
X15037*
Y03494*
X15037*
Y03493*
X15036*
Y03496*
G37*
G36*
X15102Y03494D02*
X15103D01*
Y03493*
X15102*
Y03494*
G37*
G36*
X15039Y03494D02*
X15039D01*
Y03494*
X15039*
Y03493*
X15038*
Y03494*
X15039*
Y03494*
G37*
G36*
X15058Y03523D02*
X15059D01*
Y03522*
X15058*
Y03523*
G37*
G36*
X15105Y03533D02*
X15106D01*
Y03532*
X15105*
Y03531*
X15104*
Y03532*
X15105*
Y03533*
G37*
G36*
X15091Y03532D02*
X15092D01*
Y03531*
X15091*
Y03532*
G37*
G36*
X1509Y03531D02*
X15091D01*
Y03531*
X1509*
Y03531*
G37*
G36*
X15107D02*
X15108D01*
Y03531*
X15107*
Y03531*
G37*
G36*
X15093Y03533D02*
X15093D01*
Y03531*
X15093*
Y03531*
X15092*
Y03531*
X15093*
Y03533*
G37*
G36*
X15096D02*
X15097D01*
Y03532*
X15096*
Y03533*
G37*
G36*
X1508Y03529D02*
X15081D01*
Y03529*
X1508*
Y03529*
G37*
G36*
X15083Y03527D02*
X15083D01*
Y03526*
X15083*
Y03527*
G37*
G36*
X15082D02*
X15082D01*
Y03526*
X15082*
Y03527*
G37*
G36*
X1511Y03526D02*
X15112D01*
Y03525*
X15111*
Y03524*
X1511*
Y03525*
X1511*
Y03526*
G37*
G36*
X15055Y03523D02*
X15056D01*
Y03522*
X15055*
Y03523*
G37*
G36*
X15112Y03525D02*
X15112D01*
Y03524*
X15112*
Y03525*
G37*
G36*
X1508Y03527D02*
X1508D01*
Y03527*
X15081*
Y03526*
X1508*
Y03527*
G37*
G36*
X15074Y03528D02*
X15075D01*
Y03527*
X15074*
Y03528*
G37*
G36*
X15082Y03529D02*
X15083D01*
Y03528*
X15082*
Y03529*
X15082*
Y03529*
G37*
G36*
X15076Y03528D02*
X15077D01*
Y03527*
X15076*
Y03528*
G37*
G36*
X15078Y03527D02*
X15079D01*
Y03526*
X15078*
Y03527*
G37*
G36*
X1507D02*
X1507D01*
Y03526*
X1507*
Y03527*
G37*
G36*
X15029Y03585D02*
X1503D01*
Y03585*
X15029*
Y03585*
G37*
G36*
X15027D02*
X15027D01*
Y03585*
X15027*
Y03585*
G37*
G36*
X15023Y03585D02*
X15024D01*
Y03584*
X15023*
Y03585*
G37*
G36*
X15037D02*
X15038D01*
Y03584*
X15037*
Y03584*
X15036*
Y03584*
X15037*
Y03585*
G37*
G36*
X15024Y03584D02*
X15024D01*
Y03584*
X15024*
Y03584*
G37*
G36*
X15034Y03587D02*
X15035D01*
Y03586*
X15035*
Y03585*
X15034*
Y03587*
G37*
G36*
X15024D02*
X15024D01*
Y03586*
X15024*
Y03587*
G37*
G36*
X1505Y03589D02*
X1505D01*
Y03588*
X1505*
Y03587*
X15049*
Y03588*
X1505*
Y03589*
G37*
G36*
X15025Y03586D02*
X15026D01*
Y03585*
X15025*
Y03586*
G37*
G36*
X15033Y03587D02*
X15033D01*
Y03586*
X15033*
Y03585*
X15032*
Y03586*
X15033*
Y03587*
G37*
G36*
X15031D02*
X15032D01*
Y03586*
X15031*
Y03585*
X15031*
Y03586*
X15031*
Y03587*
G37*
G36*
X15025Y03584D02*
X15025D01*
Y03583*
X15025*
Y03584*
G37*
G36*
X15039Y03576D02*
X1504D01*
Y03575*
X15039*
Y03576*
G37*
G36*
X15036Y03576D02*
X15037D01*
Y03576*
X15036*
Y03576*
G37*
G36*
Y03575D02*
X15037D01*
Y03574*
X15037*
Y03574*
X15036*
Y03575*
G37*
G36*
X15047Y03577D02*
X15048D01*
Y03576*
X15047*
Y03577*
G37*
G36*
X15015Y03581D02*
X15016D01*
Y0358*
X15015*
Y03581*
G37*
G36*
X15024Y03583D02*
X15024D01*
Y03582*
X15024*
Y03583*
G37*
G36*
X15013Y0358D02*
X15014D01*
Y0358*
X15013*
Y0358*
G37*
G36*
X15069Y0362D02*
X1507D01*
Y03619*
X15069*
Y0362*
G37*
G36*
X15073D02*
X15074D01*
Y03619*
X15073*
Y0362*
G37*
G36*
X15072Y03619D02*
X15072D01*
Y03619*
X15072*
Y03619*
G37*
G36*
X1507Y0362D02*
X15071D01*
Y03619*
X1507*
Y03619*
X1507*
Y03619*
X1507*
Y0362*
G37*
G36*
X15108Y03624D02*
X15109D01*
Y03623*
X15108*
Y03623*
X15108*
Y03623*
X15108*
Y03624*
G37*
G36*
X15093D02*
X15094D01*
Y03623*
X15093*
Y03624*
G37*
G36*
X15084D02*
X15085D01*
Y03623*
X15084*
Y03624*
G37*
G36*
X15106D02*
X15106D01*
Y03623*
X15106*
Y03624*
G37*
G36*
X15088Y03623D02*
X15089D01*
Y03623*
X15088*
Y03623*
G37*
G36*
X15081D02*
X15082D01*
Y03623*
X15081*
Y03623*
G37*
G36*
X15068Y0362D02*
X15069D01*
Y03619*
X15068*
Y03619*
X15067*
Y03618*
X15067*
Y03619*
X15067*
Y03619*
X15068*
Y0362*
G37*
G36*
X15048Y03613D02*
X15048D01*
Y03613*
X15048*
Y03613*
G37*
G36*
X15046Y03614D02*
X15047D01*
Y03613*
X15046*
Y03613*
X15046*
Y03613*
X15046*
Y03614*
G37*
G36*
X15052Y03615D02*
X15053D01*
Y03615*
X15052*
Y03613*
X15052*
Y03613*
X1505*
Y03613*
X15052*
Y03615*
X15052*
Y03615*
G37*
G36*
X15041Y03613D02*
X15042D01*
Y03612*
X15041*
Y03613*
G37*
G36*
X15112Y03613D02*
X15112D01*
Y03613*
X15112*
Y03613*
G37*
G36*
X15053Y03614D02*
X15054D01*
Y03613*
X15053*
Y03614*
G37*
G36*
X1511Y03617D02*
X15112D01*
Y03616*
X1511*
Y03617*
G37*
G36*
X1511Y03619D02*
X15111D01*
Y03619*
X15112*
Y03617*
X1511*
Y03619*
X1511*
Y03619*
G37*
G36*
X1511Y03615D02*
X15112D01*
Y03615*
X1511*
Y03615*
G37*
G36*
X1505Y03614D02*
X1505D01*
Y03613*
X1505*
Y03614*
G37*
G36*
X15048Y03615D02*
X15049D01*
Y03614*
X15048*
Y03615*
G37*
G36*
X15093Y03627D02*
X15094D01*
Y03626*
X15093*
Y03625*
X15093*
Y03625*
X15092*
Y03625*
X15093*
Y03626*
X15093*
Y03627*
G37*
G36*
X15087Y03625D02*
X15089D01*
Y03624*
X15087*
Y03625*
G37*
G36*
X15093D02*
X15093D01*
Y03624*
X15093*
Y03625*
G37*
G36*
X15091D02*
X15091D01*
Y03624*
X15091*
Y03625*
G37*
G36*
X15091Y03626D02*
X15092D01*
Y03625*
X15091*
Y03626*
G37*
G36*
X15106Y03627D02*
X15106D01*
Y03626*
X15106*
Y03627*
G37*
G36*
X15104D02*
X15105D01*
Y03626*
X15104*
Y03627*
G37*
G36*
X15044Y03613D02*
X15044D01*
Y03612*
X15044*
Y03613*
G37*
G36*
X15072Y03597D02*
X15072D01*
Y03596*
X15072*
Y03595*
X15071*
Y03595*
X1507*
Y03595*
X15071*
Y03596*
X15072*
Y03597*
G37*
G36*
X15069Y03596D02*
X15069D01*
Y03595*
X15069*
Y03595*
X15068*
Y03595*
X15069*
Y03596*
G37*
G36*
X15097D02*
X15098D01*
Y03595*
X15097*
Y03596*
G37*
G36*
X15065Y03595D02*
X15065D01*
Y03594*
X15065*
Y03595*
G37*
G36*
X1511Y03595D02*
X15111D01*
Y03595*
X1511*
Y03595*
G37*
G36*
X15064Y03596D02*
X15065D01*
Y03595*
X15064*
Y03595*
X15063*
Y03595*
X15064*
Y03596*
G37*
G36*
X15075Y03597D02*
X15076D01*
Y03597*
X15075*
Y03597*
G37*
G36*
X1511Y03598D02*
X15112D01*
Y03597*
X15111*
Y03598*
X1511*
Y03597*
X1511*
Y03598*
X1511*
Y03598*
G37*
G36*
X15097Y03597D02*
X15097D01*
Y03597*
X15097*
Y03597*
G37*
G36*
X15067Y03596D02*
X15067D01*
Y03595*
X15067*
Y03596*
G37*
G36*
X15076Y03597D02*
X15076D01*
Y03596*
X15076*
Y03597*
G37*
G36*
X15098Y03595D02*
X15098D01*
Y03594*
X15098*
Y03593*
X15097*
Y03594*
X15098*
Y03595*
G37*
G36*
X15051Y0359D02*
X15052D01*
Y03589*
X15051*
Y0359*
G37*
G36*
X15101Y03591D02*
X15102D01*
Y0359*
X15101*
Y03591*
G37*
G36*
X151Y0359D02*
X151D01*
Y03589*
X151*
Y0359*
G37*
G36*
X15098D02*
X15098D01*
Y03589*
X15098*
Y03589*
X15097*
Y03589*
X15098*
Y0359*
G37*
G36*
X1505Y03591D02*
X1505D01*
Y0359*
X1505*
Y03589*
X15049*
Y03589*
X15048*
Y03589*
X15049*
Y0359*
X1505*
Y03591*
G37*
G36*
X15098Y03591D02*
X15098D01*
Y03591*
X15098*
Y0359*
X15097*
Y03591*
X15098*
Y03591*
G37*
G36*
X15097Y03592D02*
X15097D01*
Y03591*
X15097*
Y03592*
G37*
G36*
X15055D02*
X15056D01*
Y03591*
X15055*
Y03592*
G37*
G36*
X15051Y03591D02*
X15052D01*
Y03591*
X15051*
Y03591*
G37*
G36*
X15103D02*
X15104D01*
Y03591*
X15103*
Y03591*
G37*
G36*
X151D02*
X151D01*
Y03591*
X151*
Y03591*
G37*
G36*
X15087Y036D02*
X15087D01*
Y03599*
X15087*
Y03598*
X15085*
Y03598*
X15084*
Y03598*
X15085*
Y03599*
X15087*
Y036*
G37*
G36*
X15024Y03609D02*
X15025D01*
Y03608*
X15024*
Y03607*
X15024*
Y03608*
X15024*
Y03609*
G37*
G36*
X15032Y03608D02*
X15033D01*
Y03608*
X15032*
Y03608*
G37*
G36*
X1503Y0361D02*
X15031D01*
Y03609*
X1503*
Y03608*
X15029*
Y03608*
X15029*
Y03607*
X15027*
Y03608*
X15029*
Y03609*
X1503*
Y0361*
G37*
G36*
X1511Y03607D02*
X15111D01*
Y03606*
X15112*
Y03607*
X15112*
Y03606*
X15112*
Y03604*
X1511*
Y03606*
X1511*
Y03607*
G37*
G36*
X15029Y03608D02*
X1503D01*
Y03607*
X15029*
Y03608*
G37*
G36*
X15031Y03608D02*
X15031D01*
Y03608*
X15031*
Y03608*
G37*
G36*
X15112Y0361D02*
X15112D01*
Y0361*
X15112*
Y0361*
G37*
G36*
X15048Y03613D02*
X15049D01*
Y03612*
X15048*
Y03613*
G37*
G36*
X15032Y0361D02*
X15033D01*
Y0361*
X15032*
Y03609*
X15031*
Y0361*
X15032*
Y0361*
G37*
G36*
X15027Y03609D02*
X15028D01*
Y03608*
X15027*
Y03608*
X15027*
Y03608*
X15027*
Y03609*
G37*
G36*
X15026D02*
X15027D01*
Y03608*
X15026*
Y03608*
X15025*
Y03608*
X15026*
Y03609*
G37*
G36*
X15012Y03606D02*
X15012D01*
Y03605*
X15012*
Y03606*
G37*
G36*
X15084Y036D02*
X15085D01*
Y03599*
X15084*
Y036*
G37*
G36*
X1509Y036D02*
X15091D01*
Y036*
X1509*
Y036*
G37*
G36*
X15088Y036D02*
X15089D01*
Y03599*
X15088*
Y036*
G37*
G36*
X1511D02*
X15112D01*
Y03599*
X1511*
Y03598*
X1511*
Y03599*
X1511*
Y036*
G37*
G36*
X15093D02*
X15094D01*
Y03599*
X15093*
Y036*
G37*
G36*
X1511Y03602D02*
X15112D01*
Y03601*
X1511*
Y03602*
G37*
G36*
X1509Y03602D02*
X15091D01*
Y03602*
X1509*
Y03602*
G37*
G36*
X15012Y03604D02*
X15012D01*
Y03604*
X15012*
Y03604*
G37*
G36*
X15087Y03601D02*
X15089D01*
Y036*
X15087*
Y03601*
G37*
G36*
Y03602D02*
X15089D01*
Y03602*
X15087*
Y03601*
X15086*
Y036*
X15085*
Y03601*
X15086*
Y03602*
X15087*
Y03602*
G37*
%LNchicker-3*%
%LPD*%
G36*
X15076Y03503D02*
X15077D01*
Y03504*
X15076*
Y03503*
G37*
G54D25*
X15101Y02565D02*
Y03295D01*
X14611Y02565D02*
X14606Y0257D01*
Y03295*
X15101D02*
X14606D01*
X13789Y04778D02*
Y04838D01*
X13759*
X13749Y04828*
Y04808*
X13759Y04798*
X13789*
X13769D02*
X13749Y04778D01*
X13729Y04838D02*
X13689D01*
Y04828*
X13729Y04788*
Y04778*
X13842Y02215D02*
Y02156D01*
Y02175*
X13802Y02215*
X13832Y02185*
X13802Y02156*
X13782D02*
X13762D01*
X13772*
Y02215*
X13782Y02205*
X15341Y0407D02*
Y04129D01*
X15311*
X15301Y04119*
Y04099*
X15311Y04089*
X15341*
X15321D02*
X15301Y0407D01*
X15281D02*
X15261D01*
X15271*
Y04129*
X15281Y04119*
X15231D02*
X15221Y04129D01*
X15201*
X15191Y04119*
Y0408*
X15201Y0407*
X15221*
X15231Y0408*
Y04119*
X14652Y03896D02*
Y03956D01*
X14622*
X14612Y03946*
Y03926*
X14622Y03916*
X14652*
X14632D02*
X14612Y03896D01*
X14592Y03906D02*
X14582Y03896D01*
X14562*
X14552Y03906*
Y03946*
X14562Y03956*
X14582*
X14592Y03946*
Y03936*
X14582Y03926*
X14552*
X14326Y0248D02*
Y02539D01*
X14296*
X14286Y02529*
Y02509*
X14296Y02499*
X14326*
X14306D02*
X14286Y0248D01*
X14266Y02529D02*
X14256Y02539D01*
X14236*
X14226Y02529*
Y02519*
X14236Y02509*
X14226Y02499*
Y0249*
X14236Y0248*
X14256*
X14266Y0249*
Y02499*
X14256Y02509*
X14266Y02519*
Y02529*
X14256Y02509D02*
X14236D01*
X13909Y02556D02*
Y02616D01*
X13879*
X13869Y02606*
Y02586*
X13879Y02576*
X13909*
X13889D02*
X13869Y02556D01*
X13809Y02616D02*
X13829Y02606D01*
X13849Y02586*
Y02566*
X13839Y02556*
X13819*
X13809Y02566*
Y02576*
X13819Y02586*
X13849*
X13561Y02265D02*
X13501D01*
Y02235*
X13511Y02225*
X13531*
X13541Y02235*
Y02265*
Y02245D02*
X13561Y02225D01*
X13501Y02165D02*
Y02205D01*
X13531*
X13521Y02185*
Y02175*
X13531Y02165*
X13551*
X13561Y02175*
Y02195*
X13551Y02205*
X13641Y02575D02*
X13581D01*
Y02545*
X13591Y02535*
X13611*
X13621Y02545*
Y02575*
Y02555D02*
X13641Y02535D01*
Y02485D02*
X13581D01*
X13611Y02515*
Y02475*
X13806Y0121D02*
Y01269D01*
X13776*
X13766Y01259*
Y01239*
X13776Y01229*
X13806*
X13786D02*
X13766Y0121D01*
X13746Y01259D02*
X13736Y01269D01*
X13716*
X13706Y01259*
Y01249*
X13716Y01239*
X13726*
X13716*
X13706Y01229*
Y0122*
X13716Y0121*
X13736*
X13746Y0122*
X13696Y0143D02*
Y01489D01*
X13666*
X13656Y01479*
Y01459*
X13666Y01449*
X13696*
X13676D02*
X13656Y0143D01*
X13596D02*
X13636D01*
X13596Y01469*
Y01479*
X13606Y01489*
X13626*
X13636Y01479*
X13561Y01425D02*
Y01484D01*
X13531*
X13521Y01474*
Y01454*
X13531Y01444*
X13561*
X13541D02*
X13521Y01425D01*
X13501D02*
X13481D01*
X13491*
Y01484*
X13501Y01474*
X13396Y05071D02*
Y0511D01*
X13406Y0512*
X13426*
X13436Y0511*
Y05071*
X13426Y05061*
X13406*
X13416Y0508D02*
X13396Y05061D01*
X13406D02*
X13396Y05071D01*
X13376Y0511D02*
X13366Y0512D01*
X13346*
X13336Y0511*
Y051*
X13346Y0509*
X13356*
X13346*
X13336Y0508*
Y05071*
X13346Y05061*
X13366*
X13376Y05071*
X12245Y04644D02*
Y04683D01*
X12255Y04693*
X12275*
X12285Y04683*
Y04644*
X12275Y04634*
X12255*
X12265Y04653D02*
X12245Y04634D01*
X12255D02*
X12245Y04644D01*
X12185Y04634D02*
X12225D01*
X12185Y04673*
Y04683*
X12195Y04693*
X12215*
X12225Y04683*
X14503Y03582D02*
Y03622D01*
X14513Y03632*
X14533*
X14543Y03622*
Y03582*
X14533Y03572*
X14513*
X14523Y03592D02*
X14503Y03572D01*
X14513D02*
X14503Y03582D01*
X14483Y03572D02*
X14463D01*
X14473*
Y03632*
X14483Y03622*
X1218Y05214D02*
Y05273D01*
X1215*
X1214Y05263*
Y05243*
X1215Y05233*
X1218*
X1212Y05263D02*
X1211Y05273D01*
X1209*
X1208Y05263*
Y05253*
X1209Y05243*
X121*
X1209*
X1208Y05233*
Y05224*
X1209Y05214*
X1211*
X1212Y05224*
X11905Y05209D02*
Y05268D01*
X11875*
X11865Y05258*
Y05238*
X11875Y05228*
X11905*
X11805Y05209D02*
X11845D01*
X11805Y05248*
Y05258*
X11815Y05268*
X11835*
X11845Y05258*
X14359Y01749D02*
Y01808D01*
X14329*
X14319Y01798*
Y01778*
X14329Y01768*
X14359*
X14299Y01749D02*
X14279D01*
X14289*
Y01808*
X14299Y01798*
X1441Y01789D02*
X1445D01*
Y01759*
X1443*
X1445*
Y0173*
X1439D02*
X1437D01*
X1438*
Y01789*
X1439Y01779*
X15331Y05137D02*
Y05078D01*
X15301*
X15291Y05088*
Y05127*
X15301Y05137*
X15331*
X15241Y05078D02*
Y05137D01*
X15271Y05107*
X15231*
X14042Y03643D02*
Y03584D01*
X14012*
X14002Y03594*
Y03633*
X14012Y03643*
X14042*
X13982Y03633D02*
X13972Y03643D01*
X13952*
X13942Y03633*
Y03623*
X13952Y03613*
X13962*
X13952*
X13942Y03603*
Y03594*
X13952Y03584*
X13972*
X13982Y03594*
X13966Y01899D02*
Y0184D01*
X13936*
X13926Y0185*
Y01889*
X13936Y01899*
X13966*
X13866Y0184D02*
X13906D01*
X13866Y01879*
Y01889*
X13876Y01899*
X13896*
X13906Y01889*
X14552Y01512D02*
Y01453D01*
X14522*
X14512Y01463*
Y01502*
X14522Y01512*
X14552*
X14492Y01453D02*
X14472D01*
X14482*
Y01512*
X14492Y01502*
X15237Y04486D02*
X15247Y04496D01*
X15267*
X15277Y04486*
Y04447*
X15267Y04437*
X15247*
X15237Y04447*
X15177Y04496D02*
X15197Y04486D01*
X15217Y04466*
Y04447*
X15207Y04437*
X15187*
X15177Y04447*
Y04456*
X15187Y04466*
X15217*
X14652Y04396D02*
X14662Y04406D01*
X14682*
X14692Y04396*
Y04356*
X14682Y04346*
X14662*
X14652Y04356*
X14592Y04406D02*
X14632D01*
Y04376*
X14612Y04386*
X14602*
X14592Y04376*
Y04356*
X14602Y04346*
X14622*
X14632Y04356*
X14497Y02885D02*
X14507Y02895D01*
X14527*
X14537Y02885*
Y02846*
X14527Y02836*
X14507*
X14497Y02846*
X14447Y02836D02*
Y02895D01*
X14477Y02865*
X14437*
X14309Y02195D02*
X14319Y02205D01*
X14339*
X14349Y02195*
Y02156*
X14339Y02146*
X14319*
X14309Y02156*
X14289Y02195D02*
X14279Y02205D01*
X14259*
X14249Y02195*
Y02185*
X14259Y02175*
X14269*
X14259*
X14249Y02165*
Y02156*
X14259Y02146*
X14279*
X14289Y02156*
X15253Y04229D02*
Y04169D01*
X15223*
X15213Y04179*
Y04189*
X15223Y04199*
X15253*
X15223*
X15213Y04209*
Y04219*
X15223Y04229*
X15253*
X15193Y04219D02*
X15183Y04229D01*
X15163*
X15153Y04219*
Y04209*
X15163Y04199*
X15173*
X15163*
X15153Y04189*
Y04179*
X15163Y04169*
X15183*
X15193Y04179*
X14748Y04219D02*
Y04159D01*
X14718*
X14708Y04169*
Y04179*
X14718Y04189*
X14748*
X14718*
X14708Y04199*
Y04209*
X14718Y04219*
X14748*
X14648Y04159D02*
X14688D01*
X14648Y04199*
Y04209*
X14658Y04219*
X14678*
X14688Y04209*
X14233Y02849D02*
Y02789D01*
X14203*
X14193Y02799*
Y02809*
X14203Y02819*
X14233*
X14203*
X14193Y02829*
Y02839*
X14203Y02849*
X14233*
X14173Y02789D02*
X14153D01*
X14163*
Y02849*
X14173Y02839*
X14936Y0288D02*
X14976D01*
X14936Y02919*
Y02929*
X14946Y02939*
X14966*
X14976Y02929*
X14876Y0288D02*
X14916D01*
X14876Y02919*
Y02929*
X14886Y02939*
X14906*
X14916Y02929*
X14856Y02919D02*
Y0289D01*
X14846Y0288*
X14816*
Y02919*
X14796Y02939D02*
Y0288D01*
Y02909*
X14756*
Y02939*
Y0288*
G54D78*
X14023Y0194D02*
D01*
X14024Y01929*
X14025Y01918*
X14027Y01907*
X1403Y01896*
X14033Y01886*
X14037Y01875*
X14042Y01866*
X14047Y01856*
X14053Y01847*
X1406Y01838*
X14068Y0183*
X14076Y01822*
X14084Y01815*
X14093Y01809*
X14102Y01803*
X14112Y01798*
X14122Y01793*
X14132Y0179*
X14143Y01787*
X14154Y01784*
X14164Y01783*
X14175Y01782*
X14186*
X14197Y01783*
X14208Y01784*
X14219Y01787*
X1423Y0179*
X1424Y01793*
X1425Y01798*
X1426Y01803*
X14269Y01809*
X14278Y01815*
X14286Y01822*
X14294Y0183*
X14302Y01838*
X14308Y01847*
X14314Y01856*
X1432Y01866*
X14325Y01875*
X14329Y01886*
X14332Y01896*
X14335Y01907*
X14337Y01918*
X14338Y01929*
X14338Y0194*
X14338Y0195*
X14337Y01961*
X14335Y01972*
X14332Y01983*
X14329Y01993*
X14325Y02004*
X1432Y02013*
X14314Y02023*
X14308Y02032*
X14302Y02041*
X14294Y02049*
X14286Y02057*
X14278Y02064*
X14269Y0207*
X1426Y02076*
X1425Y02081*
X1424Y02086*
X1423Y02089*
X14219Y02092*
X14208Y02095*
X14197Y02096*
X14186Y02097*
X14175*
X14164Y02096*
X14154Y02095*
X14143Y02092*
X14132Y02089*
X14122Y02086*
X14112Y02081*
X14102Y02076*
X14093Y0207*
X14084Y02064*
X14076Y02057*
X14068Y02049*
X1406Y02041*
X14053Y02032*
X14047Y02023*
X14042Y02013*
X14037Y02004*
X14033Y01993*
X1403Y01983*
X14027Y01972*
X14025Y01961*
X14024Y0195*
X14023Y0194*
X14484Y01278D02*
Y01341D01*
X14547Y01278D02*
Y01341D01*
X14516Y01333D02*
X145Y01282D01*
X14532D02*
X145D01*
X14532D02*
X14516Y01333D01*
X13604Y03257D02*
Y03316D01*
X13998D02*
X13604D01*
X13998Y03257D02*
Y03316D01*
G54D79*
X14019Y01802D02*
D01*
X14019Y01801*
X14019Y018*
X14019Y018*
X14019Y01799*
X14019Y01798*
X1402Y01798*
X1402Y01797*
X1402Y01796*
X14021Y01796*
X14021Y01795*
X14022Y01795*
X14022Y01794*
X14023Y01794*
X14023Y01793*
X14024Y01793*
X14024Y01793*
X14025Y01792*
X14026Y01792*
X14026Y01792*
X14027Y01792*
X14028Y01792*
X14028Y01792*
X14029*
X1403Y01792*
X1403Y01792*
X14031Y01792*
X14032Y01792*
X14032Y01792*
X14033Y01793*
X14034Y01793*
X14034Y01793*
X14035Y01794*
X14035Y01794*
X14036Y01795*
X14036Y01795*
X14037Y01796*
X14037Y01796*
X14038Y01797*
X14038Y01798*
X14038Y01798*
X14038Y01799*
X14038Y018*
X14039Y018*
X14039Y01801*
X14039Y01802*
X14039Y01802*
X14039Y01803*
X14038Y01804*
X14038Y01804*
X14038Y01805*
X14038Y01806*
X14038Y01806*
X14037Y01807*
X14037Y01808*
X14036Y01808*
X14036Y01809*
X14035Y01809*
X14035Y0181*
X14034Y0181*
X14034Y0181*
X14033Y01811*
X14032Y01811*
X14032Y01811*
X14031Y01811*
X1403Y01812*
X1403Y01812*
X14029Y01812*
X14028*
X14028Y01812*
X14027Y01812*
X14026Y01811*
X14026Y01811*
X14025Y01811*
X14024Y01811*
X14024Y0181*
X14023Y0181*
X14023Y0181*
X14022Y01809*
X14022Y01809*
X14021Y01808*
X14021Y01808*
X1402Y01807*
X1402Y01806*
X1402Y01806*
X14019Y01805*
X14019Y01804*
X14019Y01804*
X14019Y01803*
X14019Y01802*
X14019Y01802*
G54D80*
X14473Y0289D02*
D01*
X14473Y02889*
X14473Y02889*
X14473Y02889*
X14473Y02888*
X14473Y02888*
X14473Y02888*
X14473Y02887*
X14473Y02887*
X14474Y02887*
X14474Y02886*
X14474Y02886*
X14474Y02886*
X14475Y02886*
X14475Y02885*
X14475Y02885*
X14475Y02885*
X14476Y02885*
X14476Y02885*
X14476Y02885*
X14477Y02885*
X14477Y02885*
X14477Y02885*
X14478*
X14478Y02885*
X14478Y02885*
X14479Y02885*
X14479Y02885*
X14479Y02885*
X1448Y02885*
X1448Y02885*
X1448Y02885*
X14481Y02886*
X14481Y02886*
X14481Y02886*
X14481Y02886*
X14482Y02887*
X14482Y02887*
X14482Y02887*
X14482Y02888*
X14482Y02888*
X14482Y02888*
X14482Y02889*
X14482Y02889*
X14483Y02889*
X14483Y0289*
X14483Y0289*
X14482Y0289*
X14482Y02891*
X14482Y02891*
X14482Y02891*
X14482Y02892*
X14482Y02892*
X14482Y02892*
X14482Y02892*
X14481Y02893*
X14481Y02893*
X14481Y02893*
X14481Y02893*
X1448Y02894*
X1448Y02894*
X1448Y02894*
X14479Y02894*
X14479Y02894*
X14479Y02894*
X14478Y02894*
X14478Y02894*
X14478Y02894*
X14477*
X14477Y02894*
X14477Y02894*
X14476Y02894*
X14476Y02894*
X14476Y02894*
X14475Y02894*
X14475Y02894*
X14475Y02894*
X14475Y02893*
X14474Y02893*
X14474Y02893*
X14474Y02893*
X14474Y02892*
X14473Y02892*
X14473Y02892*
X14473Y02892*
X14473Y02891*
X14473Y02891*
X14473Y02891*
X14473Y0289*
X14473Y0289*
X14473Y0289*
G54D81*
X13642Y03465D02*
D01*
X13642Y03465*
X13642Y03465*
X13642Y03464*
X13642Y03464*
X13642Y03464*
X13642Y03463*
X13642Y03463*
X13643Y03462*
X13643Y03462*
X13643Y03462*
X13643Y03462*
X13644Y03461*
X13644Y03461*
X13644Y03461*
X13645Y03461*
X13645Y0346*
X13645Y0346*
X13646Y0346*
X13646Y0346*
X13646Y0346*
X13647Y0346*
X13647Y0346*
X13648*
X13648Y0346*
X13648Y0346*
X13649Y0346*
X13649Y0346*
X13649Y0346*
X1365Y0346*
X1365Y03461*
X1365Y03461*
X13651Y03461*
X13651Y03461*
X13651Y03462*
X13652Y03462*
X13652Y03462*
X13652Y03462*
X13652Y03463*
X13652Y03463*
X13653Y03464*
X13653Y03464*
X13653Y03464*
X13653Y03465*
X13653Y03465*
X13653Y03465*
X13653Y03466*
X13653Y03466*
X13653Y03467*
X13653Y03467*
X13653Y03467*
X13652Y03468*
X13652Y03468*
X13652Y03468*
X13652Y03469*
X13652Y03469*
X13651Y03469*
X13651Y03469*
X13651Y0347*
X1365Y0347*
X1365Y0347*
X1365Y0347*
X13649Y03471*
X13649Y03471*
X13649Y03471*
X13648Y03471*
X13648Y03471*
X13648Y03471*
X13647*
X13647Y03471*
X13646Y03471*
X13646Y03471*
X13646Y03471*
X13645Y03471*
X13645Y0347*
X13645Y0347*
X13644Y0347*
X13644Y0347*
X13644Y03469*
X13643Y03469*
X13643Y03469*
X13643Y03469*
X13643Y03468*
X13642Y03468*
X13642Y03468*
X13642Y03467*
X13642Y03467*
X13642Y03467*
X13642Y03466*
X13642Y03466*
X13642Y03465*
G54D82*
X15316Y04745D02*
D01*
X15315Y04757*
X15314Y04769*
X15312Y04781*
X15309Y04793*
X15305Y04804*
X15301Y04816*
X15295Y04827*
X15289Y04837*
X15282Y04847*
X15275Y04857*
X15267Y04866*
X15265Y04868*
Y04621D02*
D01*
X15273Y0463*
X15281Y04639*
X15288Y04649*
X15294Y0466*
X15299Y04671*
X15304Y04682*
X15308Y04693*
X15311Y04705*
X15314Y04717*
X15315Y04729*
X15316Y04741*
X15316Y04745*
X15056D02*
D01*
X15056Y04739*
X15057Y04733*
X15058Y04727*
X15059Y04721*
X15061Y04715*
X15063Y0471*
X15066Y04705*
X15069Y04699*
X15072Y04695*
X15076Y0469*
X1508Y04685*
X15084Y04681*
X15089Y04678*
X15093Y04674*
X15098Y04671*
X15104Y04668*
X15109Y04666*
X15115Y04664*
X1512Y04662*
X15126Y04661*
X15132Y0466*
X15138Y0466*
X15144*
X1515Y0466*
X15156Y04661*
X15161Y04662*
X15167Y04664*
X15173Y04666*
X15178Y04668*
X15183Y04671*
X15188Y04674*
X15193Y04678*
X15198Y04681*
X15202Y04685*
X15206Y0469*
X1521Y04695*
X15213Y04699*
X15216Y04705*
X15219Y0471*
X15221Y04715*
X15223Y04721*
X15224Y04727*
X15225Y04733*
X15226Y04739*
X15226Y04745*
X15226Y0475*
X15225Y04756*
X15224Y04762*
X15223Y04768*
X15221Y04774*
X15219Y04779*
X15216Y04784*
X15213Y0479*
X1521Y04794*
X15206Y04799*
X15202Y04804*
X15198Y04808*
X15193Y04811*
X15188Y04815*
X15183Y04818*
X15178Y04821*
X15173Y04823*
X15167Y04825*
X15161Y04827*
X15156Y04828*
X1515Y04829*
X15144Y04829*
X15138*
X15132Y04829*
X15126Y04828*
X1512Y04827*
X15115Y04825*
X15109Y04823*
X15104Y04821*
X15098Y04818*
X15093Y04815*
X15089Y04811*
X15084Y04808*
X1508Y04804*
X15076Y04799*
X15072Y04794*
X15069Y0479*
X15066Y04784*
X15063Y04779*
X15061Y04774*
X15059Y04768*
X15058Y04762*
X15057Y04756*
X15056Y0475*
X15056Y04745*
X14491Y04445D02*
Y05045D01*
X14986D02*
X14491D01*
X14986Y0502D02*
Y05045D01*
Y04445D02*
X14491D01*
X15016Y0447D02*
X14986D01*
Y04445D02*
Y0447D01*
X15016Y04445D02*
Y0447D01*
X15116Y04445D02*
X15016D01*
X15265Y04622D02*
X15116Y04445D01*
X15016Y0502D02*
X14986D01*
Y0447D02*
Y0502D01*
X15016D02*
Y05045D01*
X15116D02*
X15016D01*
X15266Y04868D02*
X15116Y05045D01*
G54D83*
X13935Y01971D02*
Y02038D01*
X13886Y01971D02*
Y02071D01*
X13796Y04745D02*
X13771D01*
X13796Y044D02*
Y04745D01*
X13771D02*
X13621D01*
X13771Y044D02*
Y04745D01*
Y044D02*
X13621D01*
Y04745*
X14311Y01715D02*
X13711D01*
X14311Y01515D02*
Y01715D01*
Y01515D02*
X13711D01*
Y01715*
X14537Y03043D02*
Y03189D01*
Y03043D02*
X14135D01*
Y03189*
X14233Y02752D02*
X14173D01*
X14159Y02553D02*
Y02746D01*
Y02553D02*
X14033D01*
Y02746*
X14159D02*
X14033D01*
X13916Y02523D02*
X13891D01*
X13916Y02178D02*
Y02523D01*
X13891D02*
X13741D01*
X13891Y02178D02*
Y02523D01*
Y02178D02*
X13741D01*
Y02523*
X14748Y04122D02*
X14688D01*
X14674Y03923D02*
Y04116D01*
Y03923D02*
X14548D01*
Y04116*
X14674D02*
X14548D01*
X12153Y0503D02*
Y05163D01*
X12136Y0518*
X12119Y05163*
Y0503D02*
Y05163D01*
X12053Y0503D02*
Y05163D01*
X12036Y0518D01*
X12019Y05163*
Y0503D02*
Y05163D01*
X12186Y0498D02*
X11986D01*
Y0503*
X12186Y0498D02*
Y0503D01*
X11986*
X11878Y05025D02*
Y05158D01*
X11861Y05175*
X11844Y05158*
Y05025D02*
Y05158D01*
X11778Y05025D02*
Y05158D01*
X11761Y05175D01*
X11744Y05158*
Y05025D02*
Y05158D01*
X11911Y04975D02*
X11711D01*
Y05025*
X11911Y04975D02*
Y05025D01*
X11711*
X15253Y04132D02*
X15193D01*
X15179Y03933D02*
Y04126D01*
Y03933D02*
X15053D01*
Y04126*
X15179D02*
X15053D01*
G54D84*
X13796Y044D02*
X13771D01*
X13916Y02178D02*
X13891D01*
G54D85*
X12291Y04337D02*
Y046D01*
X11669*
Y04337D02*
Y046D01*
X12291Y04337D02*
X11669D01*
X1282Y04765D02*
Y05027D01*
X13442Y04765D02*
X1282D01*
X13442D02*
Y05027D01*
X1282*
X14361Y01694D02*
X14328D01*
Y01686*
X14361Y01653*
Y01645*
Y01545D02*
X14344D01*
X14353*
Y01594*
X14361Y01586*
X13648Y01594D02*
X13664Y01586D01*
X13681Y01569*
Y01553*
X13673Y01545*
X13656*
X13648Y01553*
Y01561*
X13656Y01569*
X13681*
Y01645D02*
X13664D01*
X13673*
Y01694*
X13681Y01686*
X13606Y01645D02*
X13639D01*
X13606Y01678*
Y01686*
X13614Y01694*
X13631*
X13639Y01686*
G54D86*
X14516Y0447D02*
Y0502D01*
X14966D02*
X14516D01*
X14966Y0447D02*
Y0502D01*
Y0447D02*
X14516D01*
G54D87*
X14991Y04545D02*
X15065Y04517D01*
X14991Y04489*
X15016Y045D02*
Y04535D01*
X15048Y04566D02*
X15051D01*
X15058Y0457*
X15062Y04573*
X15065Y0458*
Y04594*
X15062Y04601*
X15058Y04605*
X15051Y04608*
X15044*
X15037Y04605*
X15027Y04598*
X14991Y04563*
Y04612*
X15065Y04649D02*
X15062Y04639D01*
X15051Y04632*
X15034Y04628*
X15023*
X15005Y04632*
X14995Y04639*
X14991Y04649*
Y04656*
X14995Y04667*
X15005Y04674*
X15023Y04678*
X15034*
X15051Y04674*
X15062Y04667*
X15065Y04656*
Y04649*
X14995Y04701D02*
X14991Y04698D01*
X14995Y04694*
X14998Y04698*
X14995Y04701*
X14988*
X14981Y04698*
X14977Y04694*
X15065Y04724D02*
Y04763D01*
X15037Y04742*
Y04752*
X15034Y04759*
X1503Y04763*
X1502Y04766*
X15012*
X15002Y04763*
X14995Y04756*
X14991Y04745*
Y04735*
X14995Y04724*
X14998Y04721*
X15005Y04717*
X15041Y04783D02*
X14991D01*
X15027D02*
X15037Y04794D01*
X15041Y04801*
Y04811*
X15037Y04818*
X15027Y04822*
X14991*
X15027D02*
X15037Y04832D01*
X15041Y04839*
Y0485*
X15037Y04857*
X15027Y0486*
X14991*
X15041Y04883D02*
X14991D01*
X15027D02*
X15037Y04894D01*
X15041Y04901*
Y04912*
X15037Y04919*
X15027Y04922*
X14991*
X15027D02*
X15037Y04933D01*
X15041Y0494*
Y0495*
X15037Y04957*
X15027Y04961*
X14991*
M02*