%FSTAX23Y23*%
%MOIN*%
%SFA1B1*%

%IPPOS*%
%ADD10R,0.019690X0.039370*%
%ADD11R,0.078740X0.027560*%
%ADD12R,0.071000X0.044000*%
%ADD13R,0.062990X0.059060*%
%ADD14R,0.413390X0.326770*%
%ADD15R,0.041340X0.147640*%
%ADD16R,0.060040X0.027560*%
%ADD17R,0.043310X0.070870*%
%ADD18R,0.480310X0.383860*%
%ADD19R,0.062990X0.137800*%
%ADD20R,0.040000X0.055000*%
%ADD21R,0.070870X0.043310*%
%ADD22R,0.055000X0.040000*%
%LNchicker-1*%
%LPD*%
G36*
X14252Y03236D02*
X14322D01*
Y03301*
X14252*
Y03236*
G37*
G36*
X14156D02*
X14226D01*
Y03301*
X14156*
Y03236*
G37*
G36*
X14446Y03334D02*
X14516D01*
Y03398*
X14446*
Y03334*
G37*
G36*
X13665Y02946D02*
X13936D01*
Y03167*
X13665*
Y02946*
G37*
G36*
X14446Y03236D02*
X14516D01*
Y03301*
X14446*
Y03236*
G37*
G36*
X14349D02*
X14419D01*
Y03301*
X14349*
Y03236*
G37*
G36*
Y03334D02*
X14419D01*
Y03398*
X14349*
Y03334*
G37*
G36*
Y03431D02*
X14419D01*
Y03496*
X14349*
Y03431*
G37*
G36*
X14252D02*
X14322D01*
Y03496*
X14252*
Y03431*
G37*
G36*
X14156D02*
X14226D01*
Y03496*
X14156*
Y03431*
G37*
G36*
X14252Y03334D02*
X14322D01*
Y03398*
X14252*
Y03334*
G37*
G36*
X14156D02*
X14226D01*
Y03398*
X14156*
Y03334*
G37*
G36*
X14446Y03431D02*
X14516D01*
Y03496*
X14446*
Y03431*
G37*
G54D10*
X13911Y01957D03*
Y02052D03*
G54D11*
X13573Y01895D03*
Y01809D03*
X13809Y01895D03*
Y01809D03*
X13573Y01982D03*
X13809D03*
X13573Y02108D03*
X13809D03*
G54D12*
X14421Y01674D03*
Y01556D03*
G54D13*
X14516Y01378D03*
Y01241D03*
G54D14*
X14336Y03366D03*
G54D15*
X14236Y02953D03*
X14436D03*
G54D16*
X13989Y02725D03*
Y02675D03*
Y02625D03*
Y02575D03*
X14203D03*
Y02625D03*
Y02675D03*
Y02725D03*
X14504Y04095D03*
Y04045D03*
Y03995D03*
Y03945D03*
X14718D03*
Y03995D03*
Y04045D03*
Y04095D03*
X15009Y04105D03*
Y04055D03*
Y04005D03*
Y03955D03*
X15223D03*
Y04005D03*
Y04055D03*
Y04105D03*
G54D17*
X14396Y0276D03*
X14514D03*
X1467Y0427D03*
X14552D03*
G54D18*
X13801Y03057D03*
G54D19*
X13701Y03474D03*
X13901D03*
G54D20*
X14638Y03835D03*
X14564D03*
X13663Y0232D03*
X13589D03*
Y02415D03*
X13663D03*
G54D21*
X15241Y04255D03*
Y04374D03*
G54D22*
X13791Y01382D03*
Y01308D03*
X13611D03*
Y01382D03*
X13696Y01308D03*
Y01382D03*
X15331Y04032D03*
Y03958D03*
X14296Y02647D03*
Y02573D03*
M02*