G04 Layer_Color=8421504*
%FSLAX25Y25*%
%MOIN*%
G70*
G01*
G75*
%ADD10R,0.01969X0.03937*%
%ADD11R,0.07874X0.02756*%
%ADD12R,0.07100X0.04400*%
%ADD13R,0.06299X0.05906*%
%ADD14R,0.41339X0.32677*%
%ADD15R,0.04134X0.14764*%
%ADD16R,0.06004X0.02756*%
%ADD17R,0.04331X0.07087*%
%ADD18R,0.48031X0.38386*%
%ADD19R,0.06299X0.13780*%
%ADD20R,0.04000X0.05500*%
%ADD21R,0.07087X0.04331*%
%ADD22R,0.05500X0.04000*%
G36*
X327847Y323650D02*
X320839D01*
Y330106D01*
X327847D01*
Y323650D01*
D02*
G37*
G36*
X337531D02*
X330524D01*
Y330106D01*
X337531D01*
Y323650D01*
D02*
G37*
G36*
X308476Y333413D02*
X301468D01*
Y339870D01*
X308476D01*
Y333413D01*
D02*
G37*
G36*
X386541Y294622D02*
X359516D01*
Y316770D01*
X386541D01*
Y294622D01*
D02*
G37*
G36*
X308476Y323650D02*
X301468D01*
Y330106D01*
X308476D01*
Y323650D01*
D02*
G37*
G36*
X318161D02*
X311154D01*
Y330106D01*
X318161D01*
Y323650D01*
D02*
G37*
G36*
Y333413D02*
X311154D01*
Y339870D01*
X318161D01*
Y333413D01*
D02*
G37*
G36*
Y343177D02*
X311154D01*
Y349634D01*
X318161D01*
Y343177D01*
D02*
G37*
G36*
X327847D02*
X320839D01*
Y349634D01*
X327847D01*
Y343177D01*
D02*
G37*
G36*
X337531D02*
X330524D01*
Y349634D01*
X337531D01*
Y343177D01*
D02*
G37*
G36*
X327847Y333413D02*
X320839D01*
Y339870D01*
X327847D01*
Y333413D01*
D02*
G37*
G36*
X337531D02*
X330524D01*
Y339870D01*
X337531D01*
Y333413D01*
D02*
G37*
G36*
X308476Y343177D02*
X301468D01*
Y349634D01*
X308476D01*
Y343177D01*
D02*
G37*
D10*
X362000Y195776D02*
D03*
Y205224D02*
D03*
D11*
X395811Y189594D02*
D03*
Y180933D02*
D03*
X372189Y189594D02*
D03*
Y180933D02*
D03*
X395811Y198256D02*
D03*
X372189D02*
D03*
X395811Y210854D02*
D03*
X372189D02*
D03*
D12*
X311000Y167400D02*
D03*
Y155600D02*
D03*
D13*
X301500Y137890D02*
D03*
Y124110D02*
D03*
D14*
X319500Y336642D02*
D03*
D15*
X329500Y295303D02*
D03*
X309500D02*
D03*
D16*
X354177Y272500D02*
D03*
Y267500D02*
D03*
Y262500D02*
D03*
Y257500D02*
D03*
X332823D02*
D03*
Y262500D02*
D03*
Y267500D02*
D03*
Y272500D02*
D03*
X302677Y409500D02*
D03*
Y404500D02*
D03*
Y399500D02*
D03*
Y394500D02*
D03*
X281323D02*
D03*
Y399500D02*
D03*
Y404500D02*
D03*
Y409500D02*
D03*
X252177Y410500D02*
D03*
Y405500D02*
D03*
Y400500D02*
D03*
Y395500D02*
D03*
X230823D02*
D03*
Y400500D02*
D03*
Y405500D02*
D03*
Y410500D02*
D03*
D17*
X313500Y276000D02*
D03*
X301689D02*
D03*
X286094Y427000D02*
D03*
X297905D02*
D03*
D18*
X373000Y305764D02*
D03*
D19*
X383000Y347437D02*
D03*
X363000D02*
D03*
D20*
X289300Y383500D02*
D03*
X296700D02*
D03*
X386800Y232000D02*
D03*
X394200D02*
D03*
Y241500D02*
D03*
X386800D02*
D03*
D21*
X229000Y425595D02*
D03*
Y437405D02*
D03*
D22*
X374000Y138200D02*
D03*
Y130800D02*
D03*
X392000D02*
D03*
Y138200D02*
D03*
X383500Y130800D02*
D03*
Y138200D02*
D03*
X220000Y403200D02*
D03*
Y395800D02*
D03*
X323500Y264700D02*
D03*
Y257300D02*
D03*
M02*
