%FSTAX23Y23*%
%MOIN*%
%SFA1B1*%

%IPPOS*%
%ADD10R,0.055000X0.040000*%
%ADD11R,0.040000X0.055000*%
%ADD12R,0.070870X0.043310*%
%ADD13R,0.060040X0.027560*%
%ADD14R,0.043310X0.070870*%
%ADD15R,0.062990X0.137800*%
%ADD16R,0.480310X0.383860*%
%ADD17R,0.041340X0.147640*%
%ADD18R,0.413390X0.326770*%
%ADD19R,0.062990X0.059060*%
%ADD20R,0.071000X0.044000*%
%ADD21R,0.078740X0.027560*%
%ADD22R,0.019690X0.039370*%
%ADD23C,0.010000*%
%ADD24C,0.078740*%
%ADD25C,0.059060*%
%ADD26C,0.039370*%
%ADD27R,0.335000X0.145000*%
%ADD28R,0.095000X0.160000*%
%ADD29R,0.090000X0.160000*%
%ADD30R,0.235000X0.195000*%
%ADD31R,0.315000X0.240000*%
%ADD32R,0.320000X0.285000*%
%ADD33R,0.785000X0.175000*%
%ADD34R,0.120000X0.460000*%
%ADD35R,0.505000X0.170000*%
%ADD36R,0.325000X0.130000*%
%ADD37R,0.205000X0.290000*%
%ADD38R,0.125000X0.255000*%
%ADD39R,0.150000X0.290000*%
%ADD40R,0.235000X0.475000*%
%ADD41R,0.315000X0.165000*%
%ADD42R,0.150000X0.255000*%
%ADD43R,0.390000X0.405000*%
%ADD44R,0.565000X0.460000*%
%ADD45R,0.250000X0.170000*%
%ADD46R,0.480000X0.130000*%
%ADD47R,0.490000X0.125000*%
%ADD48R,0.270000X0.270000*%
%ADD49R,0.700000X0.235000*%
%ADD50R,0.335000X0.150000*%
%ADD51C,0.060000*%
%ADD52O,0.099000X0.198000*%
%ADD53R,0.059060X0.059060*%
%ADD54C,0.059060*%
%ADD55C,0.162000*%
%ADD56O,0.165000X0.082500*%
%ADD57C,0.118110*%
%ADD58R,0.043620X0.043620*%
%ADD59C,0.023620*%
%ADD60C,0.050000*%
%ADD61C,0.078740*%
%LNchicker-1*%
%LPD*%
G36*
X14289Y01959D02*
X14278Y01947D01*
X14279Y0193*
X14291Y01919*
X14308Y0192*
X14319Y01932*
X14318Y01949*
X14306Y0196*
X14289Y01959*
G37*
G54D10*
X14345Y02573D03*
Y02647D03*
X1538Y03958D03*
Y04032D03*
X13745Y01382D03*
Y01308D03*
X1366Y01382D03*
Y01308D03*
X1384D03*
Y01382D03*
G54D11*
X13712Y02415D03*
X13638D03*
Y0232D03*
X13712D03*
X14613Y03835D03*
X14687D03*
G54D12*
X1529Y04374D03*
Y04255D03*
G54D13*
X15271Y04105D03*
Y04055D03*
Y04005D03*
Y03955D03*
X15058D03*
Y04005D03*
Y04055D03*
Y04105D03*
X14766Y04095D03*
Y04045D03*
Y03995D03*
Y03945D03*
X14553D03*
Y03995D03*
Y04045D03*
Y04095D03*
X14251Y02725D03*
Y02675D03*
Y02625D03*
Y02575D03*
X14038D03*
Y02625D03*
Y02675D03*
Y02725D03*
G54D14*
X146Y0427D03*
X14719D03*
X14563Y0276D03*
X14445D03*
G54D15*
X1395Y03474D03*
X1375D03*
G54D16*
X1385Y03057D03*
G54D17*
X14485Y02953D03*
X14285D03*
G54D18*
X14385Y03366D03*
G54D19*
X14565Y01241D03*
Y01378D03*
G54D20*
X1447Y01556D03*
Y01674D03*
G54D21*
X13858Y02108D03*
X13621D03*
X13858Y01982D03*
X13621D03*
X13858Y01809D03*
Y01895D03*
X13621Y01809D03*
Y01895D03*
G54D22*
X1396Y02052D03*
Y01957D03*
G54D23*
X14685Y03405D02*
X1462Y0334D01*
Y0304D02*
Y0334D01*
Y0304D02*
X14563Y02983D01*
Y0276D02*
Y02983D01*
X13935Y0264D02*
Y02795D01*
X1396Y0282D02*
X13935Y02795D01*
X14151Y0282D02*
X1396D01*
X14285Y02953D02*
X14151Y0282D01*
X14282Y0251D02*
X1415D01*
X14345Y02573D02*
X14282Y0251D01*
X149Y03777D02*
X14613D01*
X14922D02*
X149D01*
Y0357D02*
Y03777D01*
X15075Y03938D02*
X15058Y03955D01*
X15075Y03885D02*
Y03938D01*
X14975Y0383D02*
X14922Y03777D01*
X14613D02*
Y03835D01*
X15135Y04015D02*
Y04075D01*
Y04015D02*
X15125Y04005D01*
X15058*
Y03955D02*
Y04005D01*
Y04055*
X13621Y02151D02*
X1362Y02153D01*
X13621Y02108D02*
Y02151D01*
X1368Y0124D02*
X1366Y0126D01*
X137Y0122D02*
X1368Y0124D01*
X1489Y0434D02*
X1463D01*
X146Y0431*
Y0427D02*
Y0431D01*
X14635Y04045D02*
X14553D01*
X1464Y0405D02*
X14635Y04045D01*
X1464Y0405D02*
Y04165D01*
X146Y04204*
Y0427*
X1522Y04425D02*
X1519D01*
X15139Y04374*
X1529D02*
X15139D01*
X1538D02*
X1529D01*
X1543Y04325D02*
X1538Y04374D01*
X1543Y03975D02*
Y04325D01*
Y03975D02*
X15413Y03958D01*
X1538*
X14555Y03835D02*
X1437D01*
X14613D02*
X14555D01*
X14553Y03836*
Y03945*
Y03995*
Y04045*
X1443*
X1318Y05D02*
X13135D01*
X13205Y05025D02*
X1318Y05D01*
X14405Y0473D02*
X1439Y04745D01*
X13995Y04795D02*
X13985Y04805D01*
X1356Y0468D02*
Y04715D01*
X14135Y0431D02*
X13645D01*
X1435Y04095D02*
X14135Y0431D01*
X14553Y04095D02*
X1435D01*
X12085Y0493D02*
X1208Y04935D01*
X15058Y04105D02*
X15D01*
X15335Y04055D02*
X15271D01*
X15358Y04032D02*
X15335Y04055D01*
X1538Y04032D02*
X15358D01*
X14687Y03835D02*
Y04027D01*
X14705Y04045D02*
X14687Y04027D01*
X14766Y04045D02*
X14705D01*
X14355Y02652D02*
X14332Y02675D01*
X1481Y04179D02*
X14719Y0427D01*
X1481Y0417D02*
Y04179D01*
X1529Y04235D02*
X1523Y04175D01*
X1529Y04235D02*
Y04255D01*
X14766Y04095D02*
Y04126D01*
X1481Y0417D02*
X14766Y04126D01*
X14925Y0417D02*
X1481D01*
X1493Y04175D02*
X14925Y0417D01*
X1523Y04175D02*
X1493D01*
X15271Y04133D02*
X1523Y04175D01*
X15271Y04105D02*
Y04133D01*
X14775Y02625D02*
Y0285D01*
X13977Y0194D02*
X1396Y01957D01*
X14161Y0194D02*
X13977D01*
X14885Y04045D02*
X14766D01*
X1491Y0402D02*
X14885Y04045D01*
X1491Y0397D02*
Y0402D01*
X15045Y03835D02*
X1491Y0397D01*
X15045Y038D02*
Y03835D01*
X14275Y0224D02*
Y0236D01*
Y0224D02*
X1422Y02185D01*
Y0192D02*
Y02185D01*
Y0192D02*
X1401Y0171D01*
Y01665D02*
Y0171D01*
X15271Y04055D02*
X15195D01*
X1517Y0403*
Y0386D02*
Y0403D01*
Y0386D02*
X1511Y038D01*
X14305Y0224D02*
Y024D01*
Y0224D02*
X1424Y02175D01*
Y01905D02*
Y02175D01*
Y01905D02*
X1411Y01775D01*
Y01665D02*
Y01775D01*
X14456Y02625D02*
X14445Y02636D01*
X1451Y02625D02*
X14456D01*
X14395Y0252D02*
X1436Y02485D01*
X14353Y02647D02*
X14345D01*
X14395Y02604D02*
X14353Y02647D01*
X14395Y0252D02*
Y02604D01*
X1436Y0207D02*
Y02485D01*
X14038Y02725D02*
Y02763D01*
X1407Y02795D02*
X14038Y02763D01*
X14365Y02795D02*
X1407D01*
X1438Y0281D02*
X14365Y02795D01*
X14332Y02675D02*
X14251D01*
X14445Y02636D02*
Y0276D01*
X1441Y02725*
X14251*
X1438Y0281D02*
Y02925D01*
X14408Y02953D02*
X1438Y02925D01*
X14485Y02953D02*
X14408D01*
X1376Y02415D02*
X13712D01*
X1382Y02355D02*
X1376Y02415D01*
X14015Y02355D02*
X1382D01*
X1446Y0128D02*
Y0135D01*
X14498Y01241D02*
X1446Y0128D01*
X14565Y01241D02*
X14498D01*
X1421Y01235D02*
X14195Y0122D01*
X1421Y01235D02*
Y01565D01*
X1401D02*
X1391D01*
Y01665*
X13915Y0156D02*
X1391Y01565D01*
X1366Y0126D02*
Y01308D01*
X13745Y01382D02*
X1366D01*
X13745D02*
Y01435D01*
X1381Y015D02*
X13745Y01435D01*
X1381Y015D02*
Y01565D01*
X1374Y02292D02*
X13712Y0232D01*
X1374Y02255D02*
Y02292D01*
X13858Y02108D02*
X1381Y0206D01*
Y0204D02*
Y0206D01*
X1396Y02052D02*
Y02095D01*
X13946Y02108*
X13858*
X13745Y01982D02*
X13621D01*
X13858D02*
X13745D01*
X13638Y02232D02*
Y0232D01*
X13655Y02215D02*
X13638Y02232D01*
X1372Y02215D02*
X13655D01*
X13745Y0219D02*
X1372Y02215D01*
X13745Y01982D02*
Y0219D01*
X13858Y01809D02*
X13621D01*
X1386Y01807D02*
X13858Y01809D01*
X1386Y01755D02*
Y01807D01*
X13439Y01895D02*
X13435Y019D01*
X13484Y02697D02*
X13435Y02648D01*
X1384Y01308D02*
X13745D01*
X13845Y0145D02*
X1384Y01445D01*
Y01382D02*
Y01445D01*
X14565Y01378D02*
Y02125D01*
X1447Y01556D02*
X14464Y0155D01*
X1421Y01565D02*
Y01665D01*
X13621Y01895D02*
X1362Y01895D01*
X14195Y0122D02*
X137D01*
G54D24*
X12385Y0493D02*
X12185D01*
X12485Y0503D02*
X12385Y0493D01*
X13105Y0503D02*
X12485D01*
X1334Y05025D02*
X13205D01*
X1361D02*
X13448D01*
X13675Y0496D02*
X1361Y05025D01*
X1318Y0489D02*
Y05D01*
X1439Y0496D02*
X13675D01*
X146Y0473D02*
X14405D01*
X1468Y0465D02*
X146Y0473D01*
X1468Y0455D02*
Y0465D01*
Y0455D02*
X1457Y0444D01*
X14495*
X143Y04245*
X1343Y0418D02*
Y0451D01*
Y0272D02*
Y0418D01*
X14055D02*
X1343D01*
X1439Y0453D02*
X1403D01*
X13995Y04565*
Y04795*
X13985Y04805D02*
X1365D01*
X1356Y04715*
X12085Y0475D02*
X1184D01*
X12395D02*
X12085D01*
Y0493*
X1181Y0478D02*
Y04925D01*
X1184Y0475D02*
X1181Y0478D01*
X1247Y04675D02*
X12395Y0475D01*
X13265Y04675D02*
X1247D01*
X1343Y0451D02*
X13265Y04675D01*
X1447Y0234D02*
Y02585D01*
X14775Y02625D02*
X1451D01*
X1447Y01674D02*
Y02405D01*
X13439Y01655D02*
Y01895D01*
X13435Y019D02*
Y02648D01*
X13621Y01895D02*
X13439D01*
X1385Y03057D02*
X13432D01*
X1451Y02625D02*
X1447Y02585D01*
G54D25*
X13135Y05D02*
X13105Y0503D01*
X13353Y05038D02*
X1334Y05025D01*
X13435Y05038D02*
X13353D01*
X13448Y05025D02*
X13435Y05038D01*
G54D26*
X1447Y0194D02*
X14298D01*
X14385Y03366D02*
X14133D01*
X14025Y03474*
X1395*
X1431Y01565D02*
Y01665D01*
X14464Y0155D02*
X144D01*
X14385Y01565*
X1431*
X13858Y01895D02*
X13621D01*
G54D27*
X14127Y04407D03*
G54D28*
X13947Y02755D03*
G54D29*
X14185Y0292D03*
G54D30*
X14572Y03652D03*
G54D31*
X14782Y0344D03*
G54D32*
X1503Y03457D03*
G54D33*
X14992Y04962D03*
G54D34*
X1537Y04815D03*
G54D35*
X13802Y04015D03*
G54D36*
X13842Y0262D03*
G54D37*
X14082Y02545D03*
G54D38*
X14117Y02142D03*
G54D39*
X1414Y02385D03*
G54D40*
X14882Y04742D03*
G54D41*
X15247Y04512D03*
G54D42*
X15355Y04547D03*
G54D43*
X15025Y04417D03*
G54D44*
X14217Y03835D03*
G54D45*
X13515Y01665D03*
X1352Y03795D03*
X13515Y0272D03*
G54D46*
X14905Y03215D03*
G54D47*
X14905Y02627D03*
G54D48*
X12955Y04475D03*
G54D49*
X1251Y04477D03*
G54D50*
X13167Y04415D03*
G54D51*
X14785Y0365D03*
X14355Y0128D03*
G54D52*
X12965Y0489D03*
X13394D03*
X1318D03*
X12244Y04475D03*
X11815D03*
X12029D03*
G54D53*
X1181Y04925D03*
X12085Y0493D03*
X1431Y01565D03*
G54D54*
X1191Y04925D03*
X12185Y0493D03*
X1381Y01665D03*
X1391D03*
X1401D03*
X1411D03*
X1421D03*
X1431D03*
X1381Y01565D03*
X1391D03*
X1401D03*
X1411D03*
X1421D03*
G54D55*
X1519Y04745D03*
G54D56*
X1439Y0496D03*
Y04745D03*
Y0453D03*
G54D57*
X13865Y0245D03*
Y02253D03*
X13745Y04671D03*
Y04475D03*
G54D58*
X14161Y0194D03*
G54D59*
X14298Y0194D03*
G54D60*
X14395Y0397D03*
X1424Y0434D03*
X14115Y04435D03*
X14655Y0494D03*
X15075Y03885D03*
X14975Y0384D03*
X1513Y04355D03*
X1514Y04085D03*
X1411Y0206D03*
X1362Y02165D03*
X1368Y0124D03*
X1406Y01225D03*
X143Y04245D03*
X14065Y04185D03*
X1356Y0468D03*
X13635Y0431D03*
X14985Y04105D03*
X14925Y0417D03*
X14775Y0286D03*
X15045Y038D03*
X1426Y02365D03*
X1511Y038D03*
X14305Y02415D03*
X1436Y0207D03*
X14015Y02355D03*
X1446Y01365D03*
X1374Y02255D03*
X1381Y0204D03*
X1386Y01755D03*
X13845Y0145D03*
X14565Y02125D03*
G54D61*
X13615Y04015D03*
X1373Y02605D03*
X12955Y0457D03*
X1329Y04415D03*
M02*