%FSTAX23Y23*%
%MOIN*%
%SFA1B1*%

%IPPOS*%
%ADD23C,0.078740*%
%ADD24C,0.039370*%
%ADD25C,0.010000*%
%ADD48C,0.118110*%
%ADD49R,0.059060X0.059060*%
%ADD50C,0.059060*%
%ADD51C,0.023620*%
%ADD52R,0.043620X0.043620*%
%ADD53O,0.099000X0.198000*%
%ADD54O,0.165000X0.082500*%
%ADD55C,0.162000*%
%ADD56C,0.060000*%
%ADD57C,0.050000*%
%ADD58R,0.255000X0.175000*%
%ADD59R,0.615000X0.230000*%
%ADD60R,0.485000X0.110000*%
%ADD61R,0.050000X0.250000*%
%ADD62R,0.045000X0.265000*%
%ADD63R,0.315000X0.255000*%
%ADD64R,0.170000X0.295000*%
%ADD65R,0.080000X0.195000*%
%ADD66R,0.180000X0.080000*%
%ADD67R,0.115000X0.145000*%
%ADD68R,0.225000X0.275000*%
%ADD69R,0.280000X1.135000*%
%ADD70R,0.415000X0.285000*%
%ADD71R,0.315000X1.535000*%
%ADD72R,0.135000X0.200000*%
%ADD73R,0.665000X0.085000*%
%ADD74R,0.285000X0.485000*%
%ADD75R,0.370000X0.055000*%
%ADD76R,0.160000X0.385000*%
%ADD77R,0.565000X0.205000*%
%LNchicker-1*%
%LPD*%
G36*
X14241Y01959D02*
X14229Y01947D01*
X1423Y0193*
X14242Y01919*
X14259Y0192*
X1427Y01932*
X1427Y01949*
X14257Y0196*
X14241Y01959*
G37*
G54D23*
X1198Y04475D02*
Y0461D01*
X11941Y0465D02*
X11886D01*
X11861Y04675D02*
Y04925D01*
X12321Y04655D02*
X12026D01*
X12381Y04595D02*
X12321Y04655D01*
X12977Y04415D02*
X1282D01*
X13496Y04675D02*
X13416Y04595D01*
X14191Y04185D02*
X14016D01*
X14251Y04245D02*
X14191Y04185D01*
X13157Y04595D02*
X12977Y04415D01*
X13416Y04595D02*
X13157D01*
X1282Y04415D02*
X1264Y04595D01*
X12381*
G54D24*
X13816Y0245D02*
Y04355D01*
X13696Y04475*
G54D25*
X14516Y02125D02*
X13946Y0212D01*
X13796Y0145D02*
Y0149D01*
X13811Y01505D02*
X13796Y0149D01*
X13811Y01505D02*
Y01755D01*
X13761Y01665D02*
Y0204D01*
X13946Y0212D02*
X13916Y0215D01*
X13731*
X13721Y0216*
Y022*
X13681Y0224*
X14411Y01365D02*
Y01475D01*
X14456D02*
X14411D01*
X14486Y01505D02*
X14456Y01475D01*
X14486Y01505D02*
Y02038D01*
X14556Y02108D02*
X14486Y02038D01*
X14556Y02108D02*
Y02141D01*
X14516Y02181*
X14004*
X13971Y02215*
Y0235*
X13966Y02355*
X14111Y01615D02*
X14061Y01565D01*
X14111Y01615D02*
Y0173D01*
X14231Y0185D02*
X14111Y0173D01*
X14301Y0185D02*
X14231D01*
X14311Y0186D02*
X14301Y0185D01*
X14311Y0186D02*
Y02055D01*
X14296Y02455D02*
X14256Y02415D01*
X14521Y02455D02*
X14296D01*
X14536Y0247D02*
X14521Y02455D01*
X14536Y0247D02*
Y02685D01*
X14586Y02735D02*
X14536Y02685D01*
X15026Y02735D02*
X14586D01*
X15061Y0277D02*
X15026Y02735D01*
X15061Y0277D02*
Y03785D01*
X14211Y02365D02*
Y02445D01*
X14246Y0248D02*
X14211Y02445D01*
X14501Y0248D02*
X14246D01*
X14516Y02495D02*
X14501Y0248D01*
X14516Y02495D02*
Y02693D01*
X14581Y02758D02*
X14516Y02693D01*
X15009Y02758D02*
X14581D01*
X15041Y0279D02*
X15009Y02758D01*
X15041Y0279D02*
Y0374D01*
X15001Y0378*
X13816Y02253D02*
X13693D01*
X13691Y02255*
X14726Y0286D02*
Y02985D01*
X14996Y03255D02*
X14726Y02985D01*
X14996Y03255D02*
Y037D01*
X14876Y0382*
Y0416*
X14936Y04105D02*
Y0433D01*
X13876Y048D02*
X13786Y0489D01*
X13345*
X13586Y0431D02*
X11821D01*
X11766Y04365*
Y04475*
X1198Y0461D02*
X11941Y0465D01*
X11886D02*
X11861Y04675D01*
X11981Y0461D02*
X1198D01*
X12026Y04655D02*
X11981Y0461D01*
X14936Y0433D02*
X14886Y0438D01*
X13876*
Y048*
X15091Y04085D02*
Y0432D01*
X15081Y0433*
X14971Y03885D02*
X14926Y0384D01*
X15011Y03885D02*
X14971D01*
G54D48*
X13696Y04475D03*
Y04671D03*
X13816Y02253D03*
Y0245D03*
G54D49*
X14261Y01565D03*
X12036Y0493D03*
X11761Y04925D03*
G54D50*
X14161Y01565D03*
X14061D03*
X13961D03*
X13861D03*
X13761D03*
X14261Y01665D03*
X14161D03*
X14061D03*
X13961D03*
X13861D03*
X13761D03*
X12136Y0493D03*
X11861Y04925D03*
G54D51*
X1425Y0194D03*
G54D52*
X14112Y0194D03*
G54D53*
X1198Y04475D03*
X11766D03*
X12195D03*
X13131Y0489D03*
X13345D03*
X12916D03*
G54D54*
X14341Y0453D03*
Y04745D03*
Y0496D03*
G54D55*
X15141Y04745D03*
G54D56*
X14306Y0128D03*
X14736Y0365D03*
G54D57*
X14516Y02125D03*
X13796Y0145D03*
X13811Y01755D03*
X13761Y0204D03*
X13691Y02255D03*
X14411Y01365D03*
X13966Y02355D03*
X14311Y0207D03*
X14256Y02415D03*
X15061Y038D03*
X14211Y02365D03*
X14996Y038D03*
X14726Y0286D03*
X14876Y0417D03*
X14936Y04105D03*
X13586Y0431D03*
X13511Y0468D03*
X14016Y04185D03*
X14251Y04245D03*
X14011Y01225D03*
X13631Y0124D03*
X13571Y02165D03*
X14061Y0206D03*
X13666Y026D03*
X13566Y04015D03*
X15091Y04085D03*
X15081Y04355D03*
X14926Y0384D03*
X15026Y03885D03*
X14606Y0494D03*
X14066Y04435D03*
X14191Y0434D03*
X14346Y0397D03*
G54D58*
X13463Y03367D03*
Y02312D03*
X13468Y01262D03*
G54D59*
X13888Y01295D03*
G54D60*
X14123Y01435D03*
G54D61*
X14176Y0161D03*
G54D62*
X14158Y01592D03*
G54D63*
X13498Y01412D03*
G54D64*
X13921Y01467D03*
G54D65*
X13871Y01627D03*
G54D66*
X13956Y0186D03*
G54D67*
X13918Y01782D03*
G54D68*
X14063Y01957D03*
G54D69*
X13486Y02022D03*
G54D70*
X13553Y02672D03*
G54D71*
X13503Y03492D03*
G54D72*
X14593Y04895D03*
G54D73*
X14358Y04852D03*
G54D74*
X14048Y04662D03*
G54D75*
X14301Y04337D03*
G54D76*
X14411Y04137D03*
G54D77*
X12743Y04852D03*
M02*