%FSTAX23Y23*%
%MOIN*%
%SFA1B1*%

%IPPOS*%
%ADD23C,0.010000*%
%ADD24C,0.078740*%
%ADD26C,0.039370*%
%ADD51C,0.060000*%
%ADD52O,0.099000X0.198000*%
%ADD53R,0.059060X0.059060*%
%ADD54C,0.059060*%
%ADD55C,0.162000*%
%ADD56O,0.165000X0.082500*%
%ADD57C,0.118110*%
%ADD58R,0.043620X0.043620*%
%ADD59C,0.023620*%
%ADD60C,0.050000*%
%ADD61C,0.078740*%
%ADD62R,0.565000X0.205000*%
%ADD63R,0.160000X0.385000*%
%ADD64R,0.370000X0.055000*%
%ADD65R,0.285000X0.485000*%
%ADD66R,0.665000X0.085000*%
%ADD67R,0.135000X0.200000*%
%ADD68R,0.315000X1.535000*%
%ADD69R,0.415000X0.285000*%
%ADD70R,0.280000X1.135000*%
%ADD71R,0.225000X0.275000*%
%ADD72R,0.115000X0.145000*%
%ADD73R,0.180000X0.080000*%
%ADD74R,0.080000X0.195000*%
%ADD75R,0.170000X0.295000*%
%ADD76R,0.315000X0.255000*%
%ADD77R,0.045000X0.265000*%
%ADD78R,0.050000X0.250000*%
%ADD79R,0.485000X0.110000*%
%ADD80R,0.615000X0.230000*%
%ADD81R,0.255000X0.175000*%
%ADD82R,0.245000X0.205000*%
%ADD83R,0.090000X0.085000*%
%ADD84R,0.380000X0.155000*%
%ADD85R,0.115000X0.235000*%
%ADD86R,0.170000X0.045000*%
%ADD87R,0.135000X0.245000*%
%LNchicker-1*%
%LPD*%
G36*
X14289Y01959D02*
X14278Y01947D01*
X14279Y0193*
X14291Y01919*
X14308Y0192*
X14319Y01932*
X14318Y01949*
X14306Y0196*
X14289Y01959*
G37*
G54D23*
X1506Y03885D02*
X1502D01*
X14975Y0384*
X1514Y0432D02*
X1513Y0433D01*
X1514Y04085D02*
Y0432D01*
X13925Y0438D02*
Y048D01*
X14935Y0438D02*
X13925D01*
X14985Y0433D02*
X14935Y0438D01*
X12075Y04655D02*
X1203Y0461D01*
X12029*
X11935Y0465D02*
X1191Y04675D01*
X12029Y0461D02*
X1199Y0465D01*
X11815Y04365D02*
Y04475D01*
X1187Y0431D02*
X11815Y04365D01*
X13635Y0431D02*
X1187D01*
X13835Y0489D02*
X13394D01*
X13925Y048D02*
X13835Y0489D01*
X14985Y04105D02*
Y0433D01*
X14925Y0382D02*
Y0416D01*
X15045Y037D02*
X14925Y0382D01*
X15045Y03255D02*
Y037D01*
Y03255D02*
X14775Y02985D01*
Y0286D02*
Y02985D01*
X13741Y02253D02*
X1374Y02255D01*
X13865Y02253D02*
X13741D01*
X1509Y0374D02*
X1505Y0378D01*
X1509Y0279D02*
Y0374D01*
Y0279D02*
X15058Y02758D01*
X1463*
X14565Y02693*
Y02495D02*
Y02693D01*
Y02495D02*
X1455Y0248D01*
X14295*
X1426Y02445*
Y02365D02*
Y02445D01*
X1511Y0277D02*
Y03785D01*
Y0277D02*
X15075Y02735D01*
X14635*
X14585Y02685*
Y0247D02*
Y02685D01*
Y0247D02*
X1457Y02455D01*
X14345*
X14305Y02415*
X1436Y0186D02*
Y02055D01*
Y0186D02*
X1435Y0185D01*
X1428*
X1416Y0173*
Y01615D02*
Y0173D01*
Y01615D02*
X1411Y01565D01*
X1402Y0235D02*
X14015Y02355D01*
X1402Y02215D02*
Y0235D01*
X14053Y02181D02*
X1402Y02215D01*
X14565Y02181D02*
X14053D01*
X14605Y02141D02*
X14565Y02181D01*
X14605Y02108D02*
Y02141D01*
Y02108D02*
X14535Y02038D01*
Y01505D02*
Y02038D01*
Y01505D02*
X14505Y01475D01*
X1446*
Y01365D02*
Y01475D01*
X1377Y022D02*
X1373Y0224D01*
X1377Y0216D02*
Y022D01*
X1378Y0215D02*
X1377Y0216D01*
X13965Y0215D02*
X1378D01*
X13995Y0212D02*
X13965Y0215D01*
X1381Y01665D02*
Y0204D01*
X1386Y01505D02*
Y01755D01*
Y01505D02*
X13845Y0149D01*
Y0145D02*
Y0149D01*
X14565Y02125D02*
X13995Y0212D01*
G54D24*
X12688Y04595D02*
X1243D01*
X12868Y04415D02*
X12688Y04595D01*
X13465D02*
X13206D01*
X13026Y04415*
X143Y04245D02*
X1424Y04185D01*
X14065*
X13545Y04675D02*
X13465Y04595D01*
X13026Y04415D02*
X12868D01*
X1243Y04595D02*
X1237Y04655D01*
X12075*
X1191Y04675D02*
Y04925D01*
X1199Y0465D02*
X11935D01*
X12029Y04475D02*
Y0461D01*
G54D26*
X13865Y04355D02*
X13745Y04475D01*
X13865Y0245D02*
Y04355D01*
G54D51*
X14785Y0365D03*
X14355Y0128D03*
G54D52*
X12965Y0489D03*
X13394D03*
X1318D03*
X12244Y04475D03*
X11815D03*
X12029D03*
G54D53*
X1181Y04925D03*
X12085Y0493D03*
X1431Y01565D03*
G54D54*
X1191Y04925D03*
X12185Y0493D03*
X1381Y01665D03*
X1391D03*
X1401D03*
X1411D03*
X1421D03*
X1431D03*
X1381Y01565D03*
X1391D03*
X1401D03*
X1411D03*
X1421D03*
G54D55*
X1519Y04745D03*
G54D56*
X1439Y0496D03*
Y04745D03*
Y0453D03*
G54D57*
X13865Y0245D03*
Y02253D03*
X13745Y04671D03*
Y04475D03*
G54D58*
X14161Y0194D03*
G54D59*
X14298Y0194D03*
G54D60*
X14395Y0397D03*
X1424Y0434D03*
X14115Y04435D03*
X14655Y0494D03*
X15075Y03885D03*
X14975Y0384D03*
X1513Y04355D03*
X1514Y04085D03*
X1411Y0206D03*
X1362Y02165D03*
X1368Y0124D03*
X1406Y01225D03*
X143Y04245D03*
X14065Y04185D03*
X1356Y0468D03*
X13635Y0431D03*
X14985Y04105D03*
X14925Y0417D03*
X14775Y0286D03*
X15045Y038D03*
X1426Y02365D03*
X1511Y038D03*
X14305Y02415D03*
X1436Y0207D03*
X14015Y02355D03*
X1446Y01365D03*
X1374Y02255D03*
X1381Y0204D03*
X1386Y01755D03*
X13845Y0145D03*
X14565Y02125D03*
G54D61*
X13615Y04015D03*
X1373Y02605D03*
X12955Y0457D03*
X1329Y04415D03*
G54D62*
X12792Y04852D03*
G54D63*
X1446Y04137D03*
G54D64*
X1435Y04337D03*
G54D65*
X14097Y04662D03*
G54D66*
X14407Y04852D03*
G54D67*
X14642Y04895D03*
G54D68*
X13552Y03492D03*
G54D69*
X13602Y02672D03*
G54D70*
X13535Y02022D03*
G54D71*
X14112Y01957D03*
G54D72*
X13967Y01782D03*
G54D73*
X14005Y0186D03*
G54D74*
X1392Y01627D03*
G54D75*
X1397Y01467D03*
G54D76*
X13547Y01412D03*
G54D77*
X14207Y01592D03*
G54D78*
X14225Y0161D03*
G54D79*
X14172Y01435D03*
G54D80*
X13937Y01295D03*
G54D81*
X13517Y01262D03*
X13512Y02312D03*
Y03367D03*
G54D82*
X12952Y04662D03*
G54D83*
X12955Y04562D03*
G54D84*
X1342Y04417D03*
G54D85*
X13592Y04467D03*
G54D86*
X1367Y04367D03*
G54D87*
X13742Y04237D03*
M02*