M48
;DRILL file {PCBnew (2010-03-14)-final} date Sun 26 Sep 2010 04:54:19 PM PDT
;FORMAT={-.-/ absolute / inch / decimal}
R,T
VER,1
FMAT,2
INCH,TZ
TCST,OFF
ICI,OFF
ATC,ON
T1C0.025
T2C0.032
T3C0.035
T4C0.040
T5C0.042
T6C0.045
T7C0.047
T8C0.120
T9C0.240
%
M47
G05
M72
T1
X3.150Y4.500
X3.350Y4.300
X3.800Y5.900
X3.900Y5.500
X3.900Y5.700
T2
X2.300Y3.000
X2.300Y3.100
X2.300Y3.200
X2.300Y3.300
X2.300Y3.400
X2.300Y3.500
X2.350Y3.850
X2.350Y4.600
X2.650Y3.850
X2.650Y4.600
X2.900Y4.950
X2.900Y5.050
X2.900Y5.200
X2.900Y5.500
X2.900Y5.600
X2.900Y5.900
X2.950Y4.150
X2.950Y4.250
X2.950Y4.350
X3.000Y5.600
X3.000Y5.900
X3.050Y5.000
X3.050Y5.100
X3.200Y5.350
X3.200Y5.650
X3.200Y5.950
X3.250Y4.550
X3.250Y4.803
X3.250Y4.997
X3.300Y5.350
X3.300Y5.650
X3.300Y5.950
X3.350Y4.550
X3.600Y3.800
X3.600Y3.900
X3.600Y4.000
X3.600Y4.100
X3.600Y4.200
X3.600Y4.300
X3.600Y4.400
X3.600Y4.500
X3.600Y4.600
X3.600Y4.700
X3.600Y4.800
X3.600Y4.900
X3.600Y5.000
X3.600Y5.100
X3.600Y5.200
X3.600Y5.300
X3.600Y5.400
X3.600Y5.500
X3.600Y5.600
X3.600Y5.700
X3.950Y3.200
X4.000Y6.000
X4.050Y3.200
X4.050Y3.400
X4.100Y6.000
X4.200Y3.800
X4.200Y3.900
X4.200Y4.000
X4.200Y4.100
X4.200Y4.200
X4.200Y4.300
X4.200Y4.400
X4.200Y4.500
X4.200Y4.600
X4.200Y4.700
X4.200Y4.800
X4.200Y4.900
X4.200Y5.000
X4.200Y5.100
X4.200Y5.200
X4.200Y5.300
X4.200Y5.400
X4.200Y5.500
X4.200Y5.600
X4.200Y5.700
X4.350Y3.400
X4.350Y3.800
X4.350Y4.100
X4.350Y4.400
X4.450Y3.900
X4.450Y4.200
X4.450Y4.400
X4.550Y4.000
X4.550Y4.300
X4.550Y5.000
X4.550Y5.600
X4.650Y5.000
X4.650Y5.600
X4.700Y4.400
X4.750Y3.400
X4.800Y4.400
X4.850Y3.400
X5.000Y3.150
X5.100Y3.150
X5.100Y3.350
X5.100Y4.625
X5.100Y4.750
X5.100Y4.875
X5.100Y5.000
X5.100Y5.250
X5.100Y5.500
X5.200Y3.350
X5.400Y4.625
X5.400Y4.750
X5.400Y4.875
X5.400Y5.000
X5.400Y5.250
X5.400Y5.500
X5.650Y2.950
X5.650Y3.050
X6.100Y3.700
X6.200Y3.700
T3
X4.575Y4.575
X4.575Y4.775
X4.575Y5.175
X4.575Y5.375
X4.950Y4.950
X4.950Y5.550
X5.500Y4.400
X5.550Y4.700
X5.550Y5.100
X5.750Y4.450
X5.850Y5.000
X5.850Y5.400
T4
X4.900Y3.600
X5.000Y3.600
X5.100Y3.600
X5.650Y5.700
X5.850Y5.700
T5
X6.150Y4.100
X6.150Y4.200
X6.150Y4.300
X6.150Y4.400
X6.150Y4.500
X6.150Y4.600
X6.150Y4.700
X6.150Y4.800
T6
X3.300Y3.400
X3.800Y3.400
X5.000Y2.950
X5.350Y3.300
X5.450Y3.300
X5.500Y2.950
X5.550Y3.300
T7
X2.254Y4.152
X2.254Y4.348
X2.254Y4.902
X2.254Y5.098
X2.746Y4.152
X2.746Y4.350
X2.746Y4.902
X2.746Y5.100
T8
X5.450Y3.950
T9
X3.360Y3.050
X4.540Y3.050
T0
M30
