G04 (created by PCBNEW-RS274X (2010-03-14)-final) date Sun 26 Sep 2010 04:53:47 PM PDT*
G01*
G70*
G90*
%MOIN*%
G04 Gerber Fmt 3.4, Leading zero omitted, Abs format*
%FSLAX34Y34*%
G04 APERTURE LIST*
%ADD10C,0.006000*%
%ADD11C,0.015000*%
%ADD12C,0.400000*%
%ADD13C,0.055000*%
%ADD14R,0.055000X0.055000*%
%ADD15C,0.070000*%
%ADD16R,0.070000X0.070000*%
%ADD17R,0.350000X0.350000*%
%ADD18C,0.066000*%
%ADD19R,0.080000X0.080000*%
%ADD20C,0.080000*%
%ADD21C,0.094500*%
%ADD22C,0.035000*%
%ADD23C,0.060000*%
%ADD24C,0.040000*%
%ADD25C,0.025000*%
%ADD26C,0.010000*%
%ADD27C,0.080000*%
G04 APERTURE END LIST*
G54D10*
G54D11*
X21000Y-28000D02*
X27500Y-28000D01*
X21000Y-61500D02*
X21000Y-28000D01*
X27500Y-61500D02*
X21000Y-61500D01*
X63500Y-61500D02*
X27500Y-61500D01*
X63500Y-28000D02*
X63500Y-61500D01*
X27500Y-28000D02*
X63500Y-28000D01*
X21000Y-61500D02*
X21000Y-28000D01*
G54D12*
X45400Y-30500D03*
X33600Y-30500D03*
G54D13*
X29000Y-49500D03*
X29000Y-50500D03*
X30500Y-50000D03*
X30500Y-51000D03*
X33500Y-45500D03*
X32500Y-45500D03*
X61000Y-37000D03*
X62000Y-37000D03*
X52000Y-33500D03*
X51000Y-33500D03*
X46500Y-50000D03*
X45500Y-50000D03*
X43500Y-44000D03*
X44500Y-44000D03*
X47500Y-34000D03*
X48500Y-34000D03*
X48000Y-44000D03*
X47000Y-44000D03*
X46500Y-56000D03*
X45500Y-56000D03*
G54D14*
X56500Y-30500D03*
G54D13*
X56500Y-29500D03*
G54D14*
X50000Y-31500D03*
G54D13*
X51000Y-31500D03*
G54D15*
X38000Y-34000D03*
G54D16*
X33000Y-34000D03*
G54D15*
X50000Y-29500D03*
G54D16*
X55000Y-29500D03*
G54D14*
X36000Y-38000D03*
G54D13*
X36000Y-39000D03*
X36000Y-40000D03*
X36000Y-41000D03*
X36000Y-42000D03*
X36000Y-43000D03*
X36000Y-44000D03*
X36000Y-45000D03*
X36000Y-46000D03*
X36000Y-47000D03*
X36000Y-48000D03*
X36000Y-49000D03*
X36000Y-50000D03*
X36000Y-51000D03*
X36000Y-52000D03*
X36000Y-53000D03*
X36000Y-54000D03*
X36000Y-55000D03*
X36000Y-56000D03*
X36000Y-57000D03*
X42000Y-57000D03*
X42000Y-56000D03*
X42000Y-55000D03*
X42000Y-54000D03*
X42000Y-53000D03*
X42000Y-52000D03*
X42000Y-51000D03*
X42000Y-50000D03*
X42000Y-49000D03*
X42000Y-48000D03*
X42000Y-47000D03*
X42000Y-46000D03*
X42000Y-45000D03*
X42000Y-44000D03*
X42000Y-43000D03*
X42000Y-42000D03*
X42000Y-41000D03*
X42000Y-40000D03*
X42000Y-39000D03*
X42000Y-38000D03*
X32500Y-48035D03*
X32500Y-49965D03*
X54000Y-52500D03*
X51000Y-52500D03*
X43500Y-34000D03*
X40500Y-34000D03*
X54000Y-46250D03*
X51000Y-46250D03*
X54000Y-47500D03*
X51000Y-47500D03*
X54000Y-48750D03*
X51000Y-48750D03*
X54000Y-50000D03*
X51000Y-50000D03*
X54000Y-55000D03*
X51000Y-55000D03*
G54D14*
X40000Y-60000D03*
G54D13*
X41000Y-60000D03*
G54D14*
X23000Y-30000D03*
G54D13*
X23000Y-31000D03*
X23000Y-32000D03*
X23000Y-33000D03*
X23000Y-34000D03*
X23000Y-35000D03*
G54D15*
X49000Y-36000D03*
X50000Y-36000D03*
G54D16*
X51000Y-36000D03*
G54D17*
X54500Y-39500D03*
G54D15*
X55500Y-33000D03*
G54D16*
X54500Y-33000D03*
G54D15*
X53500Y-33000D03*
G54D13*
X40500Y-32000D03*
X39500Y-32000D03*
G54D18*
X33000Y-56500D03*
X32000Y-56500D03*
X33000Y-53500D03*
X32000Y-53500D03*
X33000Y-59500D03*
X32000Y-59500D03*
G54D13*
X29000Y-56000D03*
X29000Y-59000D03*
X30000Y-59000D03*
X30000Y-56000D03*
X29000Y-55000D03*
X29000Y-52000D03*
G54D14*
X29500Y-43500D03*
G54D13*
X29500Y-42500D03*
X29500Y-41500D03*
G54D16*
X58500Y-57000D03*
G54D15*
X56500Y-57000D03*
G54D13*
X44500Y-42000D03*
X44500Y-39000D03*
X45500Y-43000D03*
X45500Y-40000D03*
X43500Y-41000D03*
X43500Y-38000D03*
G54D19*
X61500Y-48000D03*
G54D20*
X61500Y-47000D03*
X61500Y-46000D03*
X61500Y-45000D03*
X61500Y-44000D03*
X61500Y-43000D03*
X61500Y-42000D03*
X61500Y-41000D03*
G54D13*
X26500Y-46000D03*
X23500Y-46000D03*
X26500Y-38500D03*
X23500Y-38500D03*
G54D21*
X22539Y-50984D03*
X22539Y-49016D03*
X27461Y-49016D03*
X27461Y-51000D03*
X22539Y-43484D03*
X22539Y-41516D03*
X27461Y-41516D03*
X27461Y-43500D03*
G54D22*
X38000Y-59000D03*
G54D23*
X55500Y-47000D03*
X45750Y-45750D03*
X45750Y-47750D03*
X45750Y-51750D03*
X45750Y-53750D03*
X49500Y-55500D03*
X49500Y-49500D03*
X55000Y-44000D03*
X55500Y-51000D03*
G54D22*
X33500Y-43000D03*
X31500Y-45000D03*
X39000Y-55000D03*
X39000Y-57000D03*
G54D23*
X58500Y-54000D03*
X58500Y-50000D03*
X57500Y-44500D03*
G54D24*
X26500Y-46000D02*
X26500Y-46500D01*
X33500Y-46500D02*
X33500Y-45500D01*
X33000Y-47000D02*
X33500Y-46500D01*
X32000Y-47000D02*
X33000Y-47000D01*
X31500Y-47500D02*
X32000Y-47000D01*
X27500Y-47500D02*
X31500Y-47500D01*
X26500Y-46500D02*
X27500Y-47500D01*
X61000Y-37500D02*
X61000Y-37000D01*
X61500Y-38000D02*
X61000Y-37500D01*
X62000Y-38000D02*
X61500Y-38000D01*
X62500Y-38500D02*
X62000Y-38000D01*
X53500Y-33000D02*
X53500Y-34000D01*
X60000Y-36000D02*
X61000Y-37000D01*
X55500Y-36000D02*
X60000Y-36000D01*
X53500Y-34000D02*
X55500Y-36000D01*
X62500Y-45000D02*
X62500Y-38500D01*
X61500Y-45000D02*
X62500Y-45000D01*
G54D25*
X45750Y-45750D02*
X44500Y-45750D01*
X44500Y-47750D02*
X45750Y-47750D01*
X44500Y-54250D02*
X45250Y-54250D01*
X45250Y-54250D02*
X45750Y-53750D01*
X31500Y-45000D02*
X33500Y-43000D01*
G54D24*
X34500Y-39000D02*
X36000Y-39000D01*
X29500Y-42500D02*
X31000Y-42500D01*
X31000Y-42500D02*
X34500Y-39000D01*
X23000Y-34000D02*
X24000Y-34000D01*
X35000Y-36500D02*
X38500Y-36500D01*
X29500Y-38000D02*
X33500Y-38000D01*
X33500Y-38000D02*
X35000Y-36500D01*
X41000Y-39000D02*
X42000Y-39000D01*
X38500Y-36500D02*
X41000Y-39000D01*
X28000Y-38000D02*
X29500Y-38000D01*
X24000Y-34000D02*
X28000Y-38000D01*
X29500Y-37000D02*
X29000Y-37000D01*
X34500Y-35500D02*
X39000Y-35500D01*
X42000Y-38000D02*
X41500Y-38000D01*
X33000Y-37000D02*
X34500Y-35500D01*
X29500Y-37000D02*
X33000Y-37000D01*
X39000Y-35500D02*
X41500Y-38000D01*
X25000Y-33000D02*
X23000Y-33000D01*
X29000Y-37000D02*
X25000Y-33000D01*
G54D25*
X27461Y-41516D02*
X27461Y-41539D01*
X33000Y-42000D02*
X36000Y-42000D01*
X30500Y-44500D02*
X33000Y-42000D01*
X27000Y-44500D02*
X30500Y-44500D01*
X26500Y-44000D02*
X27000Y-44500D01*
X26500Y-42500D02*
X26500Y-44000D01*
X27461Y-41539D02*
X26500Y-42500D01*
G54D26*
X42000Y-56000D02*
X40500Y-56000D01*
X39500Y-55000D02*
X39000Y-55000D01*
X40500Y-56000D02*
X39500Y-55000D01*
X42000Y-57000D02*
X39000Y-57000D01*
G54D27*
X45400Y-30500D02*
X45400Y-33900D01*
X48000Y-38000D02*
X48000Y-44000D01*
X47000Y-37000D02*
X48000Y-38000D01*
X47000Y-35500D02*
X47000Y-37000D01*
X45400Y-33900D02*
X47000Y-35500D01*
X46500Y-56000D02*
X47750Y-57250D01*
X58500Y-58000D02*
X58500Y-57000D01*
X57250Y-59250D02*
X58500Y-58000D01*
X49750Y-59250D02*
X57250Y-59250D01*
X47750Y-57250D02*
X49750Y-59250D01*
X48000Y-48500D02*
X48000Y-54500D01*
X48000Y-54500D02*
X46500Y-56000D01*
X48000Y-44000D02*
X48000Y-48500D01*
X48000Y-48500D02*
X46500Y-50000D01*
X58500Y-45500D02*
X58500Y-50000D01*
X58500Y-50000D02*
X58500Y-54000D01*
X58500Y-54000D02*
X58500Y-57000D01*
X57500Y-44500D02*
X58500Y-45500D01*
G54D26*
X21275Y-28275D02*
X44893Y-28275D01*
X45906Y-28275D02*
X63225Y-28275D01*
X21275Y-28355D02*
X33027Y-28355D01*
X34199Y-28355D02*
X44700Y-28355D01*
X46100Y-28355D02*
X63225Y-28355D01*
X21275Y-28435D02*
X32824Y-28435D01*
X34383Y-28435D02*
X44507Y-28435D01*
X46293Y-28435D02*
X63225Y-28435D01*
X21275Y-28515D02*
X32621Y-28515D01*
X34567Y-28515D02*
X44314Y-28515D01*
X46486Y-28515D02*
X63225Y-28515D01*
X21275Y-28595D02*
X32418Y-28595D01*
X34751Y-28595D02*
X44124Y-28595D01*
X46677Y-28595D02*
X63225Y-28595D01*
X21275Y-28675D02*
X32300Y-28675D01*
X34901Y-28675D02*
X44044Y-28675D01*
X46757Y-28675D02*
X63225Y-28675D01*
X21275Y-28755D02*
X32230Y-28755D01*
X34971Y-28755D02*
X43964Y-28755D01*
X46837Y-28755D02*
X63225Y-28755D01*
X21275Y-28835D02*
X32161Y-28835D01*
X35040Y-28835D02*
X43884Y-28835D01*
X46917Y-28835D02*
X63225Y-28835D01*
X21275Y-28915D02*
X32092Y-28915D01*
X35109Y-28915D02*
X43804Y-28915D01*
X46997Y-28915D02*
X49848Y-28915D01*
X50153Y-28915D02*
X54568Y-28915D01*
X55434Y-28915D02*
X63225Y-28915D01*
X21275Y-28995D02*
X32012Y-28995D01*
X32024Y-28995D02*
X32166Y-28995D01*
X35034Y-28995D02*
X35176Y-28995D01*
X35189Y-28995D02*
X43724Y-28995D01*
X47077Y-28995D02*
X49658Y-28995D01*
X50342Y-28995D02*
X54453Y-28995D01*
X55547Y-28995D02*
X56363Y-28995D01*
X56615Y-28995D02*
X63225Y-28995D01*
X21275Y-29075D02*
X31919Y-29075D01*
X32104Y-29075D02*
X32246Y-29075D01*
X34954Y-29075D02*
X35096Y-29075D01*
X35282Y-29075D02*
X43644Y-29075D01*
X47157Y-29075D02*
X49578Y-29075D01*
X50422Y-29075D02*
X54412Y-29075D01*
X55589Y-29075D02*
X56227Y-29075D01*
X56774Y-29075D02*
X63225Y-29075D01*
X21275Y-29155D02*
X31827Y-29155D01*
X32184Y-29155D02*
X32326Y-29155D01*
X34874Y-29155D02*
X35016Y-29155D01*
X35374Y-29155D02*
X43564Y-29155D01*
X47237Y-29155D02*
X49498Y-29155D01*
X50502Y-29155D02*
X54401Y-29155D01*
X55599Y-29155D02*
X56226Y-29155D01*
X56774Y-29155D02*
X63225Y-29155D01*
X21275Y-29235D02*
X31746Y-29235D01*
X32264Y-29235D02*
X32406Y-29235D01*
X34794Y-29235D02*
X34936Y-29235D01*
X35459Y-29235D02*
X43490Y-29235D01*
X47312Y-29235D02*
X49462Y-29235D01*
X50539Y-29235D02*
X54401Y-29235D01*
X55599Y-29235D02*
X56048Y-29235D01*
X56164Y-29235D02*
X56306Y-29235D01*
X56694Y-29235D02*
X56836Y-29235D01*
X56953Y-29235D02*
X63225Y-29235D01*
X21275Y-29315D02*
X31711Y-29315D01*
X32344Y-29315D02*
X32486Y-29315D01*
X34714Y-29315D02*
X34856Y-29315D01*
X35505Y-29315D02*
X43457Y-29315D01*
X47345Y-29315D02*
X49429Y-29315D01*
X50572Y-29315D02*
X54401Y-29315D01*
X55599Y-29315D02*
X56020Y-29315D01*
X56244Y-29315D02*
X56386Y-29315D01*
X56614Y-29315D02*
X56756Y-29315D01*
X56986Y-29315D02*
X63225Y-29315D01*
X21275Y-29395D02*
X31676Y-29395D01*
X32424Y-29395D02*
X32566Y-29395D01*
X34634Y-29395D02*
X34776Y-29395D01*
X35536Y-29395D02*
X43424Y-29395D01*
X47378Y-29395D02*
X49401Y-29395D01*
X50599Y-29395D02*
X54401Y-29395D01*
X55599Y-29395D02*
X55992Y-29395D01*
X56324Y-29395D02*
X56466Y-29395D01*
X56534Y-29395D02*
X56676Y-29395D01*
X57010Y-29395D02*
X63225Y-29395D01*
X21275Y-29475D02*
X31641Y-29475D01*
X32504Y-29475D02*
X32646Y-29475D01*
X34554Y-29475D02*
X34696Y-29475D01*
X35568Y-29475D02*
X43390Y-29475D01*
X47411Y-29475D02*
X49401Y-29475D01*
X50599Y-29475D02*
X54401Y-29475D01*
X55599Y-29475D02*
X55983Y-29475D01*
X56404Y-29475D02*
X56596Y-29475D01*
X57014Y-29475D02*
X63225Y-29475D01*
X21275Y-29555D02*
X22543Y-29555D01*
X23457Y-29555D02*
X31606Y-29555D01*
X32584Y-29555D02*
X32726Y-29555D01*
X34474Y-29555D02*
X34616Y-29555D01*
X35599Y-29555D02*
X43357Y-29555D01*
X47444Y-29555D02*
X49401Y-29555D01*
X50599Y-29555D02*
X54401Y-29555D01*
X55599Y-29555D02*
X55987Y-29555D01*
X56374Y-29555D02*
X56626Y-29555D01*
X57018Y-29555D02*
X63225Y-29555D01*
X21275Y-29635D02*
X22493Y-29635D01*
X23508Y-29635D02*
X31571Y-29635D01*
X32664Y-29635D02*
X32806Y-29635D01*
X34394Y-29635D02*
X34536Y-29635D01*
X35631Y-29635D02*
X43324Y-29635D01*
X47477Y-29635D02*
X49407Y-29635D01*
X50592Y-29635D02*
X54401Y-29635D01*
X55599Y-29635D02*
X55994Y-29635D01*
X56294Y-29635D02*
X56436Y-29635D01*
X56564Y-29635D02*
X56706Y-29635D01*
X56997Y-29635D02*
X63225Y-29635D01*
X21275Y-29715D02*
X22476Y-29715D01*
X23524Y-29715D02*
X31537Y-29715D01*
X32744Y-29715D02*
X32886Y-29715D01*
X34314Y-29715D02*
X34456Y-29715D01*
X35662Y-29715D02*
X43291Y-29715D01*
X47510Y-29715D02*
X49440Y-29715D01*
X50559Y-29715D02*
X54401Y-29715D01*
X55599Y-29715D02*
X56026Y-29715D01*
X56214Y-29715D02*
X56356Y-29715D01*
X56644Y-29715D02*
X56786Y-29715D01*
X56970Y-29715D02*
X63225Y-29715D01*
X21275Y-29795D02*
X22476Y-29795D01*
X23524Y-29795D02*
X31502Y-29795D01*
X32824Y-29795D02*
X32966Y-29795D01*
X34234Y-29795D02*
X34376Y-29795D01*
X35694Y-29795D02*
X43258Y-29795D01*
X47543Y-29795D02*
X49473Y-29795D01*
X50526Y-29795D02*
X54401Y-29795D01*
X55599Y-29795D02*
X56276Y-29795D01*
X56724Y-29795D02*
X63225Y-29795D01*
X21275Y-29875D02*
X22476Y-29875D01*
X23524Y-29875D02*
X31467Y-29875D01*
X32904Y-29875D02*
X33046Y-29875D01*
X34154Y-29875D02*
X34296Y-29875D01*
X35725Y-29875D02*
X43224Y-29875D01*
X47576Y-29875D02*
X49528Y-29875D01*
X50472Y-29875D02*
X54401Y-29875D01*
X55599Y-29875D02*
X56213Y-29875D01*
X56786Y-29875D02*
X63225Y-29875D01*
X21275Y-29955D02*
X22476Y-29955D01*
X23524Y-29955D02*
X31432Y-29955D01*
X32984Y-29955D02*
X33126Y-29955D01*
X34074Y-29955D02*
X34216Y-29955D01*
X35757Y-29955D02*
X43191Y-29955D01*
X47610Y-29955D02*
X49608Y-29955D01*
X50392Y-29955D02*
X54424Y-29955D01*
X55576Y-29955D02*
X56241Y-29955D01*
X56759Y-29955D02*
X63225Y-29955D01*
X21275Y-30035D02*
X22476Y-30035D01*
X23524Y-30035D02*
X31402Y-30035D01*
X33064Y-30035D02*
X33206Y-30035D01*
X33994Y-30035D02*
X34136Y-30035D01*
X35788Y-30035D02*
X43158Y-30035D01*
X47643Y-30035D02*
X49726Y-30035D01*
X50273Y-30035D02*
X54483Y-30035D01*
X55517Y-30035D02*
X56063Y-30035D01*
X56937Y-30035D02*
X63225Y-30035D01*
X21275Y-30115D02*
X22476Y-30115D01*
X23524Y-30115D02*
X31401Y-30115D01*
X33144Y-30115D02*
X33286Y-30115D01*
X33914Y-30115D02*
X34056Y-30115D01*
X35812Y-30115D02*
X43151Y-30115D01*
X47649Y-30115D02*
X56002Y-30115D01*
X56999Y-30115D02*
X63225Y-30115D01*
X21275Y-30195D02*
X22476Y-30195D01*
X23524Y-30195D02*
X31400Y-30195D01*
X33224Y-30195D02*
X33366Y-30195D01*
X33834Y-30195D02*
X33976Y-30195D01*
X35811Y-30195D02*
X43151Y-30195D01*
X47649Y-30195D02*
X55976Y-30195D01*
X57024Y-30195D02*
X63225Y-30195D01*
X21275Y-30275D02*
X22476Y-30275D01*
X23524Y-30275D02*
X31398Y-30275D01*
X33304Y-30275D02*
X33446Y-30275D01*
X33754Y-30275D02*
X33896Y-30275D01*
X35809Y-30275D02*
X43151Y-30275D01*
X47649Y-30275D02*
X55976Y-30275D01*
X57024Y-30275D02*
X63225Y-30275D01*
X21275Y-30355D02*
X22488Y-30355D01*
X23511Y-30355D02*
X31397Y-30355D01*
X33384Y-30355D02*
X33526Y-30355D01*
X33674Y-30355D02*
X33816Y-30355D01*
X35808Y-30355D02*
X43151Y-30355D01*
X47649Y-30355D02*
X55976Y-30355D01*
X57024Y-30355D02*
X63225Y-30355D01*
X21275Y-30435D02*
X22533Y-30435D01*
X23467Y-30435D02*
X31395Y-30435D01*
X33464Y-30435D02*
X33736Y-30435D01*
X35807Y-30435D02*
X43151Y-30435D01*
X47649Y-30435D02*
X55976Y-30435D01*
X57024Y-30435D02*
X63225Y-30435D01*
X21275Y-30515D02*
X22653Y-30515D01*
X23345Y-30515D02*
X31394Y-30515D01*
X33514Y-30515D02*
X33686Y-30515D01*
X35805Y-30515D02*
X43151Y-30515D01*
X47649Y-30515D02*
X55976Y-30515D01*
X57024Y-30515D02*
X63225Y-30515D01*
X21275Y-30595D02*
X22663Y-30595D01*
X23338Y-30595D02*
X31393Y-30595D01*
X33434Y-30595D02*
X33576Y-30595D01*
X33624Y-30595D02*
X33766Y-30595D01*
X35804Y-30595D02*
X43151Y-30595D01*
X47649Y-30595D02*
X55976Y-30595D01*
X57024Y-30595D02*
X63225Y-30595D01*
X21275Y-30675D02*
X22583Y-30675D01*
X23418Y-30675D02*
X31391Y-30675D01*
X33354Y-30675D02*
X33496Y-30675D01*
X33704Y-30675D02*
X33846Y-30675D01*
X35803Y-30675D02*
X43151Y-30675D01*
X47649Y-30675D02*
X55976Y-30675D01*
X57024Y-30675D02*
X63225Y-30675D01*
X21275Y-30755D02*
X22534Y-30755D01*
X23467Y-30755D02*
X31390Y-30755D01*
X33274Y-30755D02*
X33416Y-30755D01*
X33784Y-30755D02*
X33926Y-30755D01*
X35801Y-30755D02*
X43151Y-30755D01*
X47649Y-30755D02*
X55976Y-30755D01*
X57024Y-30755D02*
X63225Y-30755D01*
X21275Y-30835D02*
X22500Y-30835D01*
X23500Y-30835D02*
X31389Y-30835D01*
X33194Y-30835D02*
X33336Y-30835D01*
X33864Y-30835D02*
X34006Y-30835D01*
X35800Y-30835D02*
X43151Y-30835D01*
X47649Y-30835D02*
X55980Y-30835D01*
X57019Y-30835D02*
X63225Y-30835D01*
X21275Y-30915D02*
X22475Y-30915D01*
X23525Y-30915D02*
X31392Y-30915D01*
X33114Y-30915D02*
X33256Y-30915D01*
X33944Y-30915D02*
X34086Y-30915D01*
X35799Y-30915D02*
X43151Y-30915D01*
X47649Y-30915D02*
X56013Y-30915D01*
X56986Y-30915D02*
X63225Y-30915D01*
X21275Y-30995D02*
X22475Y-30995D01*
X23525Y-30995D02*
X31424Y-30995D01*
X33034Y-30995D02*
X33176Y-30995D01*
X34024Y-30995D02*
X34166Y-30995D01*
X35790Y-30995D02*
X43170Y-30995D01*
X47629Y-30995D02*
X49630Y-30995D01*
X50371Y-30995D02*
X50863Y-30995D01*
X51115Y-30995D02*
X56105Y-30995D01*
X56894Y-30995D02*
X63225Y-30995D01*
X21275Y-31075D02*
X22475Y-31075D01*
X23525Y-31075D02*
X31455Y-31075D01*
X32954Y-31075D02*
X33096Y-31075D01*
X34104Y-31075D02*
X34246Y-31075D01*
X35755Y-31075D02*
X43203Y-31075D01*
X47596Y-31075D02*
X49523Y-31075D01*
X50477Y-31075D02*
X50727Y-31075D01*
X51274Y-31075D02*
X63225Y-31075D01*
X21275Y-31155D02*
X22496Y-31155D01*
X23504Y-31155D02*
X31487Y-31155D01*
X32874Y-31155D02*
X33016Y-31155D01*
X34184Y-31155D02*
X34326Y-31155D01*
X35720Y-31155D02*
X43236Y-31155D01*
X47563Y-31155D02*
X49485Y-31155D01*
X50516Y-31155D02*
X50726Y-31155D01*
X51274Y-31155D02*
X63225Y-31155D01*
X21275Y-31235D02*
X22529Y-31235D01*
X23471Y-31235D02*
X31518Y-31235D01*
X32794Y-31235D02*
X32936Y-31235D01*
X34264Y-31235D02*
X34406Y-31235D01*
X35685Y-31235D02*
X43269Y-31235D01*
X47530Y-31235D02*
X49476Y-31235D01*
X50524Y-31235D02*
X50548Y-31235D01*
X50664Y-31235D02*
X50806Y-31235D01*
X51194Y-31235D02*
X51336Y-31235D01*
X51453Y-31235D02*
X63225Y-31235D01*
X21275Y-31315D02*
X22572Y-31315D01*
X23427Y-31315D02*
X31550Y-31315D01*
X32714Y-31315D02*
X32856Y-31315D01*
X34344Y-31315D02*
X34486Y-31315D01*
X35650Y-31315D02*
X43302Y-31315D01*
X47497Y-31315D02*
X49476Y-31315D01*
X50744Y-31315D02*
X50886Y-31315D01*
X51114Y-31315D02*
X51256Y-31315D01*
X51486Y-31315D02*
X63225Y-31315D01*
X21275Y-31395D02*
X22652Y-31395D01*
X23347Y-31395D02*
X31581Y-31395D01*
X32634Y-31395D02*
X32776Y-31395D01*
X34424Y-31395D02*
X34566Y-31395D01*
X35616Y-31395D02*
X43335Y-31395D01*
X47464Y-31395D02*
X49476Y-31395D01*
X50824Y-31395D02*
X50966Y-31395D01*
X51034Y-31395D02*
X51176Y-31395D01*
X51510Y-31395D02*
X63225Y-31395D01*
X21275Y-31475D02*
X22774Y-31475D01*
X23223Y-31475D02*
X31613Y-31475D01*
X32554Y-31475D02*
X32696Y-31475D01*
X34504Y-31475D02*
X34646Y-31475D01*
X35581Y-31475D02*
X40396Y-31475D01*
X40605Y-31475D02*
X43368Y-31475D01*
X47430Y-31475D02*
X49476Y-31475D01*
X50904Y-31475D02*
X51096Y-31475D01*
X51514Y-31475D02*
X63225Y-31475D01*
X21275Y-31555D02*
X22732Y-31555D01*
X23269Y-31555D02*
X31644Y-31555D01*
X32474Y-31555D02*
X32616Y-31555D01*
X34584Y-31555D02*
X34726Y-31555D01*
X35546Y-31555D02*
X39232Y-31555D01*
X39769Y-31555D02*
X40203Y-31555D01*
X40798Y-31555D02*
X43401Y-31555D01*
X47397Y-31555D02*
X49476Y-31555D01*
X50874Y-31555D02*
X51126Y-31555D01*
X51518Y-31555D02*
X63225Y-31555D01*
X21275Y-31635D02*
X22712Y-31635D01*
X23289Y-31635D02*
X31676Y-31635D01*
X32394Y-31635D02*
X32536Y-31635D01*
X34664Y-31635D02*
X34806Y-31635D01*
X35511Y-31635D02*
X39212Y-31635D01*
X39789Y-31635D02*
X40123Y-31635D01*
X40878Y-31635D02*
X43434Y-31635D01*
X47364Y-31635D02*
X49476Y-31635D01*
X50794Y-31635D02*
X50936Y-31635D01*
X51064Y-31635D02*
X51206Y-31635D01*
X51497Y-31635D02*
X63225Y-31635D01*
X21275Y-31715D02*
X22620Y-31715D01*
X22644Y-31715D02*
X22786Y-31715D01*
X23214Y-31715D02*
X23356Y-31715D01*
X23381Y-31715D02*
X31707Y-31715D01*
X32314Y-31715D02*
X32456Y-31715D01*
X34744Y-31715D02*
X34886Y-31715D01*
X35476Y-31715D02*
X39120Y-31715D01*
X39144Y-31715D02*
X39286Y-31715D01*
X39714Y-31715D02*
X39856Y-31715D01*
X39881Y-31715D02*
X40050Y-31715D01*
X40950Y-31715D02*
X43468Y-31715D01*
X47331Y-31715D02*
X49476Y-31715D01*
X50524Y-31715D02*
X50526Y-31715D01*
X50714Y-31715D02*
X50856Y-31715D01*
X51144Y-31715D02*
X51286Y-31715D01*
X51470Y-31715D02*
X63225Y-31715D01*
X21275Y-31795D02*
X22527Y-31795D01*
X22724Y-31795D02*
X22866Y-31795D01*
X23134Y-31795D02*
X23276Y-31795D01*
X23478Y-31795D02*
X31768Y-31795D01*
X32234Y-31795D02*
X32376Y-31795D01*
X34824Y-31795D02*
X34966Y-31795D01*
X35431Y-31795D02*
X39027Y-31795D01*
X39224Y-31795D02*
X39366Y-31795D01*
X39634Y-31795D02*
X39776Y-31795D01*
X39978Y-31795D02*
X40016Y-31795D01*
X40984Y-31795D02*
X43513Y-31795D01*
X47286Y-31795D02*
X49476Y-31795D01*
X50524Y-31795D02*
X50776Y-31795D01*
X51224Y-31795D02*
X63225Y-31795D01*
X21275Y-31875D02*
X22499Y-31875D01*
X22804Y-31875D02*
X22946Y-31875D01*
X23054Y-31875D02*
X23196Y-31875D01*
X23509Y-31875D02*
X31860Y-31875D01*
X32154Y-31875D02*
X32296Y-31875D01*
X34904Y-31875D02*
X35046Y-31875D01*
X35339Y-31875D02*
X38999Y-31875D01*
X39304Y-31875D02*
X39446Y-31875D01*
X39554Y-31875D02*
X39696Y-31875D01*
X41017Y-31875D02*
X43593Y-31875D01*
X47206Y-31875D02*
X49497Y-31875D01*
X50503Y-31875D02*
X50713Y-31875D01*
X51286Y-31875D02*
X63225Y-31875D01*
X21275Y-31955D02*
X22482Y-31955D01*
X22884Y-31955D02*
X23116Y-31955D01*
X23513Y-31955D02*
X31953Y-31955D01*
X32074Y-31955D02*
X32216Y-31955D01*
X34984Y-31955D02*
X35126Y-31955D01*
X35246Y-31955D02*
X38982Y-31955D01*
X39384Y-31955D02*
X39616Y-31955D01*
X41025Y-31955D02*
X43673Y-31955D01*
X47126Y-31955D02*
X49553Y-31955D01*
X50447Y-31955D02*
X50741Y-31955D01*
X51259Y-31955D02*
X63225Y-31955D01*
X21275Y-32035D02*
X22486Y-32035D01*
X22894Y-32035D02*
X23106Y-32035D01*
X23517Y-32035D02*
X32136Y-32035D01*
X35064Y-32035D02*
X38986Y-32035D01*
X39394Y-32035D02*
X39606Y-32035D01*
X41025Y-32035D02*
X43753Y-32035D01*
X47046Y-32035D02*
X63225Y-32035D01*
X21275Y-32115D02*
X22491Y-32115D01*
X22814Y-32115D02*
X22956Y-32115D01*
X23044Y-32115D02*
X23186Y-32115D01*
X23504Y-32115D02*
X32117Y-32115D01*
X35082Y-32115D02*
X38991Y-32115D01*
X39314Y-32115D02*
X39456Y-32115D01*
X39544Y-32115D02*
X39686Y-32115D01*
X41020Y-32115D02*
X43833Y-32115D01*
X46966Y-32115D02*
X63225Y-32115D01*
X21275Y-32195D02*
X22518Y-32195D01*
X22734Y-32195D02*
X22876Y-32195D01*
X23124Y-32195D02*
X23266Y-32195D01*
X23476Y-32195D02*
X32186Y-32195D01*
X35013Y-32195D02*
X39018Y-32195D01*
X39234Y-32195D02*
X39376Y-32195D01*
X39624Y-32195D02*
X39766Y-32195D01*
X39976Y-32195D02*
X40012Y-32195D01*
X40987Y-32195D02*
X43913Y-32195D01*
X46886Y-32195D02*
X63225Y-32195D01*
X21275Y-32275D02*
X22579Y-32275D01*
X22654Y-32275D02*
X22796Y-32275D01*
X23204Y-32275D02*
X23346Y-32275D01*
X23420Y-32275D02*
X32255Y-32275D01*
X34944Y-32275D02*
X39079Y-32275D01*
X39154Y-32275D02*
X39296Y-32275D01*
X39704Y-32275D02*
X39846Y-32275D01*
X39920Y-32275D02*
X40045Y-32275D01*
X40954Y-32275D02*
X43993Y-32275D01*
X46806Y-32275D02*
X63225Y-32275D01*
X21275Y-32355D02*
X22716Y-32355D01*
X23284Y-32355D02*
X32335Y-32355D01*
X34870Y-32355D02*
X39216Y-32355D01*
X39784Y-32355D02*
X40112Y-32355D01*
X40887Y-32355D02*
X44073Y-32355D01*
X46726Y-32355D02*
X63225Y-32355D01*
X21275Y-32435D02*
X22728Y-32435D01*
X23271Y-32435D02*
X32518Y-32435D01*
X34706Y-32435D02*
X39228Y-32435D01*
X39771Y-32435D02*
X40192Y-32435D01*
X40807Y-32435D02*
X44194Y-32435D01*
X46607Y-32435D02*
X53299Y-32435D01*
X53702Y-32435D02*
X54019Y-32435D01*
X54423Y-32435D02*
X54577Y-32435D01*
X54982Y-32435D02*
X55299Y-32435D01*
X55702Y-32435D02*
X63225Y-32435D01*
X21275Y-32515D02*
X22799Y-32515D01*
X23203Y-32515D02*
X32702Y-32515D01*
X34503Y-32515D02*
X39414Y-32515D01*
X39500Y-32515D02*
X40370Y-32515D01*
X40628Y-32515D02*
X44387Y-32515D01*
X46413Y-32515D02*
X53138Y-32515D01*
X53862Y-32515D02*
X53937Y-32515D01*
X54450Y-32515D02*
X54550Y-32515D01*
X55064Y-32515D02*
X55138Y-32515D01*
X55862Y-32515D02*
X63225Y-32515D01*
X21275Y-32595D02*
X22663Y-32595D01*
X25190Y-32595D02*
X32886Y-32595D01*
X34300Y-32595D02*
X44580Y-32595D01*
X46219Y-32595D02*
X53058Y-32595D01*
X54450Y-32595D02*
X54550Y-32595D01*
X55942Y-32595D02*
X63225Y-32595D01*
X21275Y-32675D02*
X22582Y-32675D01*
X25308Y-32675D02*
X33070Y-32675D01*
X34097Y-32675D02*
X44750Y-32675D01*
X46050Y-32675D02*
X52987Y-32675D01*
X54450Y-32675D02*
X54550Y-32675D01*
X56014Y-32675D02*
X63225Y-32675D01*
X21275Y-32755D02*
X22534Y-32755D01*
X25391Y-32755D02*
X44750Y-32755D01*
X46050Y-32755D02*
X52954Y-32755D01*
X54450Y-32755D02*
X54550Y-32755D01*
X56047Y-32755D02*
X63225Y-32755D01*
X21275Y-32835D02*
X22500Y-32835D01*
X25471Y-32835D02*
X44750Y-32835D01*
X46050Y-32835D02*
X52921Y-32835D01*
X54450Y-32835D02*
X54550Y-32835D01*
X56080Y-32835D02*
X63225Y-32835D01*
X21275Y-32915D02*
X22475Y-32915D01*
X25551Y-32915D02*
X44750Y-32915D01*
X46050Y-32915D02*
X52901Y-32915D01*
X54450Y-32915D02*
X54550Y-32915D01*
X56099Y-32915D02*
X63225Y-32915D01*
X21275Y-32995D02*
X22475Y-32995D01*
X25631Y-32995D02*
X44750Y-32995D01*
X46050Y-32995D02*
X50863Y-32995D01*
X51115Y-32995D02*
X51848Y-32995D01*
X52154Y-32995D02*
X52901Y-32995D01*
X54450Y-32995D02*
X54550Y-32995D01*
X56099Y-32995D02*
X63225Y-32995D01*
X21275Y-33075D02*
X22475Y-33075D01*
X25711Y-33075D02*
X44750Y-33075D01*
X46050Y-33075D02*
X50727Y-33075D01*
X51274Y-33075D02*
X51683Y-33075D01*
X52318Y-33075D02*
X52901Y-33075D01*
X54450Y-33075D02*
X54550Y-33075D01*
X56099Y-33075D02*
X63225Y-33075D01*
X21275Y-33155D02*
X22496Y-33155D01*
X25791Y-33155D02*
X44750Y-33155D01*
X46050Y-33155D02*
X50726Y-33155D01*
X51274Y-33155D02*
X51603Y-33155D01*
X52398Y-33155D02*
X52915Y-33155D01*
X54450Y-33155D02*
X54550Y-33155D01*
X56084Y-33155D02*
X63225Y-33155D01*
X21275Y-33235D02*
X22529Y-33235D01*
X25871Y-33235D02*
X44750Y-33235D01*
X46050Y-33235D02*
X50548Y-33235D01*
X50664Y-33235D02*
X50806Y-33235D01*
X51194Y-33235D02*
X51336Y-33235D01*
X51453Y-33235D02*
X51542Y-33235D01*
X52459Y-33235D02*
X52948Y-33235D01*
X54450Y-33235D02*
X54550Y-33235D01*
X56051Y-33235D02*
X63225Y-33235D01*
X21275Y-33315D02*
X22572Y-33315D01*
X25951Y-33315D02*
X44750Y-33315D01*
X46050Y-33315D02*
X50520Y-33315D01*
X50744Y-33315D02*
X50886Y-33315D01*
X51114Y-33315D02*
X51256Y-33315D01*
X51486Y-33315D02*
X51508Y-33315D01*
X52492Y-33315D02*
X52982Y-33315D01*
X54450Y-33315D02*
X54550Y-33315D01*
X56017Y-33315D02*
X63225Y-33315D01*
X21275Y-33395D02*
X22652Y-33395D01*
X26031Y-33395D02*
X44750Y-33395D01*
X46050Y-33395D02*
X50492Y-33395D01*
X50824Y-33395D02*
X50966Y-33395D01*
X51034Y-33395D02*
X51176Y-33395D01*
X52525Y-33395D02*
X53048Y-33395D01*
X54450Y-33395D02*
X54550Y-33395D01*
X55952Y-33395D02*
X63225Y-33395D01*
X21275Y-33475D02*
X22774Y-33475D01*
X26111Y-33475D02*
X32473Y-33475D01*
X33527Y-33475D02*
X37703Y-33475D01*
X38298Y-33475D02*
X40395Y-33475D01*
X40605Y-33475D02*
X43396Y-33475D01*
X43605Y-33475D02*
X44750Y-33475D01*
X46050Y-33475D02*
X47396Y-33475D01*
X47605Y-33475D02*
X50483Y-33475D01*
X50904Y-33475D02*
X51096Y-33475D01*
X52525Y-33475D02*
X53050Y-33475D01*
X54450Y-33475D02*
X54550Y-33475D01*
X55067Y-33475D02*
X55128Y-33475D01*
X55872Y-33475D02*
X63225Y-33475D01*
X21275Y-33555D02*
X22703Y-33555D01*
X26191Y-33555D02*
X32420Y-33555D01*
X33580Y-33555D02*
X37598Y-33555D01*
X38402Y-33555D02*
X40203Y-33555D01*
X40798Y-33555D02*
X43203Y-33555D01*
X43798Y-33555D02*
X44750Y-33555D01*
X46050Y-33555D02*
X47203Y-33555D01*
X47798Y-33555D02*
X48232Y-33555D01*
X48769Y-33555D02*
X50487Y-33555D01*
X50874Y-33555D02*
X51126Y-33555D01*
X52525Y-33555D02*
X53050Y-33555D01*
X53950Y-33555D02*
X54003Y-33555D01*
X54433Y-33555D02*
X54567Y-33555D01*
X54997Y-33555D02*
X55274Y-33555D01*
X55725Y-33555D02*
X63225Y-33555D01*
X21275Y-33635D02*
X22623Y-33635D01*
X26271Y-33635D02*
X32401Y-33635D01*
X33599Y-33635D02*
X37518Y-33635D01*
X38482Y-33635D02*
X40123Y-33635D01*
X40878Y-33635D02*
X43123Y-33635D01*
X43878Y-33635D02*
X44750Y-33635D01*
X46055Y-33635D02*
X47123Y-33635D01*
X47878Y-33635D02*
X48212Y-33635D01*
X48789Y-33635D02*
X50494Y-33635D01*
X50794Y-33635D02*
X50936Y-33635D01*
X51064Y-33635D02*
X51206Y-33635D01*
X52512Y-33635D02*
X53050Y-33635D01*
X53950Y-33635D02*
X63225Y-33635D01*
X21275Y-33715D02*
X22550Y-33715D01*
X26351Y-33715D02*
X32401Y-33715D01*
X33599Y-33715D02*
X37470Y-33715D01*
X38531Y-33715D02*
X40050Y-33715D01*
X40950Y-33715D02*
X43050Y-33715D01*
X43950Y-33715D02*
X44750Y-33715D01*
X46135Y-33715D02*
X47050Y-33715D01*
X47950Y-33715D02*
X48120Y-33715D01*
X48144Y-33715D02*
X48286Y-33715D01*
X48714Y-33715D02*
X48856Y-33715D01*
X48881Y-33715D02*
X50526Y-33715D01*
X50714Y-33715D02*
X50856Y-33715D01*
X51144Y-33715D02*
X51286Y-33715D01*
X51469Y-33715D02*
X51520Y-33715D01*
X52479Y-33715D02*
X53050Y-33715D01*
X53950Y-33715D02*
X63225Y-33715D01*
X21275Y-33795D02*
X22517Y-33795D01*
X26431Y-33795D02*
X32401Y-33795D01*
X33599Y-33795D02*
X37437Y-33795D01*
X38564Y-33795D02*
X40017Y-33795D01*
X40984Y-33795D02*
X43017Y-33795D01*
X43984Y-33795D02*
X44750Y-33795D01*
X46215Y-33795D02*
X47017Y-33795D01*
X47983Y-33795D02*
X48026Y-33795D01*
X48224Y-33795D02*
X48366Y-33795D01*
X48634Y-33795D02*
X48776Y-33795D01*
X48978Y-33795D02*
X50776Y-33795D01*
X51224Y-33795D02*
X51554Y-33795D01*
X52446Y-33795D02*
X53050Y-33795D01*
X53950Y-33795D02*
X63225Y-33795D01*
X21275Y-33875D02*
X22484Y-33875D01*
X26511Y-33875D02*
X32401Y-33875D01*
X33599Y-33875D02*
X37404Y-33875D01*
X38597Y-33875D02*
X39984Y-33875D01*
X41017Y-33875D02*
X42984Y-33875D01*
X44017Y-33875D02*
X44750Y-33875D01*
X46295Y-33875D02*
X46984Y-33875D01*
X48304Y-33875D02*
X48446Y-33875D01*
X48554Y-33875D02*
X48696Y-33875D01*
X49009Y-33875D02*
X50713Y-33875D01*
X51286Y-33875D02*
X51632Y-33875D01*
X52367Y-33875D02*
X53050Y-33875D01*
X54012Y-33875D02*
X63225Y-33875D01*
X21275Y-33955D02*
X22475Y-33955D01*
X26591Y-33955D02*
X32401Y-33955D01*
X33599Y-33955D02*
X37401Y-33955D01*
X38599Y-33955D02*
X39975Y-33955D01*
X41025Y-33955D02*
X42975Y-33955D01*
X44025Y-33955D02*
X44760Y-33955D01*
X46375Y-33955D02*
X46975Y-33955D01*
X48384Y-33955D02*
X48616Y-33955D01*
X49013Y-33955D02*
X50741Y-33955D01*
X51259Y-33955D02*
X51726Y-33955D01*
X52272Y-33955D02*
X53050Y-33955D01*
X54092Y-33955D02*
X63225Y-33955D01*
X21275Y-34035D02*
X22475Y-34035D01*
X26671Y-34035D02*
X32401Y-34035D01*
X33599Y-34035D02*
X37401Y-34035D01*
X38599Y-34035D02*
X39975Y-34035D01*
X41025Y-34035D02*
X42975Y-34035D01*
X44025Y-34035D02*
X44776Y-34035D01*
X46455Y-34035D02*
X46975Y-34035D01*
X48394Y-34035D02*
X48606Y-34035D01*
X49017Y-34035D02*
X53056Y-34035D01*
X54172Y-34035D02*
X63225Y-34035D01*
X21275Y-34115D02*
X22479Y-34115D01*
X26751Y-34115D02*
X32401Y-34115D01*
X33599Y-34115D02*
X37401Y-34115D01*
X38599Y-34115D02*
X39979Y-34115D01*
X41020Y-34115D02*
X42979Y-34115D01*
X44020Y-34115D02*
X44792Y-34115D01*
X46535Y-34115D02*
X46979Y-34115D01*
X48314Y-34115D02*
X48456Y-34115D01*
X48544Y-34115D02*
X48686Y-34115D01*
X49004Y-34115D02*
X53072Y-34115D01*
X54252Y-34115D02*
X63225Y-34115D01*
X21275Y-34195D02*
X22512Y-34195D01*
X26831Y-34195D02*
X32401Y-34195D01*
X33599Y-34195D02*
X37432Y-34195D01*
X38567Y-34195D02*
X40012Y-34195D01*
X40987Y-34195D02*
X43012Y-34195D01*
X43987Y-34195D02*
X44829Y-34195D01*
X46615Y-34195D02*
X47012Y-34195D01*
X47987Y-34195D02*
X48018Y-34195D01*
X48234Y-34195D02*
X48376Y-34195D01*
X48624Y-34195D02*
X48766Y-34195D01*
X48976Y-34195D02*
X53098Y-34195D01*
X54332Y-34195D02*
X63225Y-34195D01*
X21275Y-34275D02*
X22545Y-34275D01*
X26911Y-34275D02*
X32401Y-34275D01*
X33599Y-34275D02*
X37465Y-34275D01*
X38534Y-34275D02*
X40045Y-34275D01*
X40954Y-34275D02*
X43045Y-34275D01*
X43954Y-34275D02*
X44883Y-34275D01*
X46695Y-34275D02*
X47045Y-34275D01*
X47954Y-34275D02*
X48079Y-34275D01*
X48154Y-34275D02*
X48296Y-34275D01*
X48704Y-34275D02*
X48846Y-34275D01*
X48920Y-34275D02*
X53152Y-34275D01*
X54412Y-34275D02*
X63225Y-34275D01*
X21275Y-34355D02*
X22612Y-34355D01*
X26991Y-34355D02*
X32401Y-34355D01*
X33599Y-34355D02*
X37508Y-34355D01*
X38492Y-34355D02*
X40112Y-34355D01*
X40887Y-34355D02*
X43112Y-34355D01*
X43887Y-34355D02*
X44936Y-34355D01*
X46775Y-34355D02*
X47112Y-34355D01*
X47887Y-34355D02*
X48216Y-34355D01*
X48784Y-34355D02*
X53218Y-34355D01*
X54492Y-34355D02*
X63225Y-34355D01*
X21275Y-34435D02*
X22692Y-34435D01*
X27071Y-34435D02*
X32415Y-34435D01*
X33584Y-34435D02*
X37588Y-34435D01*
X38412Y-34435D02*
X40192Y-34435D01*
X40807Y-34435D02*
X43192Y-34435D01*
X43807Y-34435D02*
X45015Y-34435D01*
X46855Y-34435D02*
X47192Y-34435D01*
X47807Y-34435D02*
X48228Y-34435D01*
X48771Y-34435D02*
X53298Y-34435D01*
X54572Y-34435D02*
X63225Y-34435D01*
X21275Y-34515D02*
X22799Y-34515D01*
X23203Y-34515D02*
X23878Y-34515D01*
X27151Y-34515D02*
X32463Y-34515D01*
X33537Y-34515D02*
X37677Y-34515D01*
X38322Y-34515D02*
X40370Y-34515D01*
X40628Y-34515D02*
X43370Y-34515D01*
X43628Y-34515D02*
X45095Y-34515D01*
X46935Y-34515D02*
X47370Y-34515D01*
X47628Y-34515D02*
X48414Y-34515D01*
X48500Y-34515D02*
X53378Y-34515D01*
X54652Y-34515D02*
X63225Y-34515D01*
X21275Y-34595D02*
X22663Y-34595D01*
X23338Y-34595D02*
X23958Y-34595D01*
X27231Y-34595D02*
X32590Y-34595D01*
X33408Y-34595D02*
X37871Y-34595D01*
X38128Y-34595D02*
X45175Y-34595D01*
X47015Y-34595D02*
X53458Y-34595D01*
X54732Y-34595D02*
X63225Y-34595D01*
X21275Y-34675D02*
X22583Y-34675D01*
X23418Y-34675D02*
X24038Y-34675D01*
X27311Y-34675D02*
X45255Y-34675D01*
X47095Y-34675D02*
X53538Y-34675D01*
X54812Y-34675D02*
X63225Y-34675D01*
X21275Y-34755D02*
X22534Y-34755D01*
X23467Y-34755D02*
X24118Y-34755D01*
X27391Y-34755D02*
X45335Y-34755D01*
X47175Y-34755D02*
X53618Y-34755D01*
X54892Y-34755D02*
X63225Y-34755D01*
X21275Y-34835D02*
X22500Y-34835D01*
X23500Y-34835D02*
X24198Y-34835D01*
X27471Y-34835D02*
X45415Y-34835D01*
X47255Y-34835D02*
X53698Y-34835D01*
X54972Y-34835D02*
X63225Y-34835D01*
X21275Y-34915D02*
X22475Y-34915D01*
X23525Y-34915D02*
X24278Y-34915D01*
X27551Y-34915D02*
X45495Y-34915D01*
X47335Y-34915D02*
X53778Y-34915D01*
X55052Y-34915D02*
X63225Y-34915D01*
X21275Y-34995D02*
X22475Y-34995D01*
X23525Y-34995D02*
X24358Y-34995D01*
X27631Y-34995D02*
X45575Y-34995D01*
X47415Y-34995D02*
X53858Y-34995D01*
X55132Y-34995D02*
X63225Y-34995D01*
X21275Y-35075D02*
X22475Y-35075D01*
X23525Y-35075D02*
X24438Y-35075D01*
X27711Y-35075D02*
X34371Y-35075D01*
X39129Y-35075D02*
X45655Y-35075D01*
X47484Y-35075D02*
X53938Y-35075D01*
X55212Y-35075D02*
X63225Y-35075D01*
X21275Y-35155D02*
X22496Y-35155D01*
X23504Y-35155D02*
X24518Y-35155D01*
X27791Y-35155D02*
X34222Y-35155D01*
X39279Y-35155D02*
X45735Y-35155D01*
X47537Y-35155D02*
X54018Y-35155D01*
X55292Y-35155D02*
X63225Y-35155D01*
X21275Y-35235D02*
X22529Y-35235D01*
X23471Y-35235D02*
X24598Y-35235D01*
X27871Y-35235D02*
X34128Y-35235D01*
X39372Y-35235D02*
X45815Y-35235D01*
X47591Y-35235D02*
X54098Y-35235D01*
X55372Y-35235D02*
X63225Y-35235D01*
X21275Y-35315D02*
X22572Y-35315D01*
X23427Y-35315D02*
X24678Y-35315D01*
X27951Y-35315D02*
X34048Y-35315D01*
X39452Y-35315D02*
X45895Y-35315D01*
X47614Y-35315D02*
X54178Y-35315D01*
X55452Y-35315D02*
X63225Y-35315D01*
X21275Y-35395D02*
X22652Y-35395D01*
X23347Y-35395D02*
X24758Y-35395D01*
X28031Y-35395D02*
X33969Y-35395D01*
X39532Y-35395D02*
X45975Y-35395D01*
X47630Y-35395D02*
X54258Y-35395D01*
X55532Y-35395D02*
X63225Y-35395D01*
X21275Y-35475D02*
X22774Y-35475D01*
X23224Y-35475D02*
X24838Y-35475D01*
X28111Y-35475D02*
X33889Y-35475D01*
X39612Y-35475D02*
X46055Y-35475D01*
X47646Y-35475D02*
X48702Y-35475D01*
X49298Y-35475D02*
X49702Y-35475D01*
X50298Y-35475D02*
X50473Y-35475D01*
X50950Y-35475D02*
X51050Y-35475D01*
X51527Y-35475D02*
X54338Y-35475D01*
X55612Y-35475D02*
X63225Y-35475D01*
X21275Y-35555D02*
X24918Y-35555D01*
X28191Y-35555D02*
X33809Y-35555D01*
X39692Y-35555D02*
X46135Y-35555D01*
X47650Y-35555D02*
X48598Y-35555D01*
X49403Y-35555D02*
X49598Y-35555D01*
X50402Y-35555D02*
X50420Y-35555D01*
X50950Y-35555D02*
X51050Y-35555D01*
X51580Y-35555D02*
X54418Y-35555D01*
X60026Y-35555D02*
X63225Y-35555D01*
X21275Y-35635D02*
X24998Y-35635D01*
X28271Y-35635D02*
X33729Y-35635D01*
X39772Y-35635D02*
X46215Y-35635D01*
X47650Y-35635D02*
X48518Y-35635D01*
X49483Y-35635D02*
X49518Y-35635D01*
X50950Y-35635D02*
X51050Y-35635D01*
X51600Y-35635D02*
X54498Y-35635D01*
X60249Y-35635D02*
X63225Y-35635D01*
X21275Y-35715D02*
X25078Y-35715D01*
X28351Y-35715D02*
X33649Y-35715D01*
X39852Y-35715D02*
X46295Y-35715D01*
X47650Y-35715D02*
X48470Y-35715D01*
X50950Y-35715D02*
X51050Y-35715D01*
X51600Y-35715D02*
X54578Y-35715D01*
X60351Y-35715D02*
X63225Y-35715D01*
X21275Y-35795D02*
X25158Y-35795D01*
X28431Y-35795D02*
X33569Y-35795D01*
X39932Y-35795D02*
X46350Y-35795D01*
X47650Y-35795D02*
X48437Y-35795D01*
X50950Y-35795D02*
X51050Y-35795D01*
X51600Y-35795D02*
X54658Y-35795D01*
X60431Y-35795D02*
X63225Y-35795D01*
X21275Y-35875D02*
X25238Y-35875D01*
X28511Y-35875D02*
X33489Y-35875D01*
X40012Y-35875D02*
X46350Y-35875D01*
X47650Y-35875D02*
X48404Y-35875D01*
X50950Y-35875D02*
X51050Y-35875D01*
X51600Y-35875D02*
X54738Y-35875D01*
X60511Y-35875D02*
X63225Y-35875D01*
X21275Y-35955D02*
X25318Y-35955D01*
X28591Y-35955D02*
X33409Y-35955D01*
X40092Y-35955D02*
X46350Y-35955D01*
X47650Y-35955D02*
X48401Y-35955D01*
X50950Y-35955D02*
X54818Y-35955D01*
X60591Y-35955D02*
X63225Y-35955D01*
X21275Y-36035D02*
X25398Y-36035D01*
X28671Y-36035D02*
X33329Y-36035D01*
X40172Y-36035D02*
X46350Y-36035D01*
X47650Y-36035D02*
X48401Y-36035D01*
X50950Y-36035D02*
X54898Y-36035D01*
X60671Y-36035D02*
X63225Y-36035D01*
X21275Y-36115D02*
X25478Y-36115D01*
X28751Y-36115D02*
X33249Y-36115D01*
X40252Y-36115D02*
X46350Y-36115D01*
X47650Y-36115D02*
X48401Y-36115D01*
X50950Y-36115D02*
X51050Y-36115D01*
X51599Y-36115D02*
X54978Y-36115D01*
X60751Y-36115D02*
X63225Y-36115D01*
X21275Y-36195D02*
X25558Y-36195D01*
X28831Y-36195D02*
X33169Y-36195D01*
X40332Y-36195D02*
X46350Y-36195D01*
X47650Y-36195D02*
X48432Y-36195D01*
X50950Y-36195D02*
X51050Y-36195D01*
X51599Y-36195D02*
X55058Y-36195D01*
X60831Y-36195D02*
X63225Y-36195D01*
X21275Y-36275D02*
X25638Y-36275D01*
X28911Y-36275D02*
X33089Y-36275D01*
X40412Y-36275D02*
X46350Y-36275D01*
X47650Y-36275D02*
X48465Y-36275D01*
X50950Y-36275D02*
X51050Y-36275D01*
X51599Y-36275D02*
X55138Y-36275D01*
X60911Y-36275D02*
X63225Y-36275D01*
X21275Y-36355D02*
X25718Y-36355D01*
X28991Y-36355D02*
X33009Y-36355D01*
X40492Y-36355D02*
X46350Y-36355D01*
X47650Y-36355D02*
X48508Y-36355D01*
X49491Y-36355D02*
X49507Y-36355D01*
X50950Y-36355D02*
X51050Y-36355D01*
X51599Y-36355D02*
X55236Y-36355D01*
X60991Y-36355D02*
X63225Y-36355D01*
X21275Y-36435D02*
X25798Y-36435D01*
X29071Y-36435D02*
X32929Y-36435D01*
X40572Y-36435D02*
X46350Y-36435D01*
X47650Y-36435D02*
X48588Y-36435D01*
X49411Y-36435D02*
X49587Y-36435D01*
X50411Y-36435D02*
X50415Y-36435D01*
X50950Y-36435D02*
X51050Y-36435D01*
X51584Y-36435D02*
X55424Y-36435D01*
X61071Y-36435D02*
X63225Y-36435D01*
X21275Y-36515D02*
X25878Y-36515D01*
X29151Y-36515D02*
X32849Y-36515D01*
X40652Y-36515D02*
X46350Y-36515D01*
X47650Y-36515D02*
X48677Y-36515D01*
X49322Y-36515D02*
X49677Y-36515D01*
X50322Y-36515D02*
X50463Y-36515D01*
X50950Y-36515D02*
X51050Y-36515D01*
X51537Y-36515D02*
X59879Y-36515D01*
X61202Y-36515D02*
X61814Y-36515D01*
X62172Y-36515D02*
X63225Y-36515D01*
X21275Y-36595D02*
X25958Y-36595D01*
X40732Y-36595D02*
X46350Y-36595D01*
X47650Y-36595D02*
X48871Y-36595D01*
X49128Y-36595D02*
X49871Y-36595D01*
X50128Y-36595D02*
X50590Y-36595D01*
X50893Y-36595D02*
X51107Y-36595D01*
X51409Y-36595D02*
X59959Y-36595D01*
X61338Y-36595D02*
X61722Y-36595D01*
X62279Y-36595D02*
X63225Y-36595D01*
X21275Y-36675D02*
X26038Y-36675D01*
X40812Y-36675D02*
X46350Y-36675D01*
X47650Y-36675D02*
X60039Y-36675D01*
X61418Y-36675D02*
X61746Y-36675D01*
X62254Y-36675D02*
X63225Y-36675D01*
X21275Y-36755D02*
X26118Y-36755D01*
X40892Y-36755D02*
X46350Y-36755D01*
X47675Y-36755D02*
X60119Y-36755D01*
X61467Y-36755D02*
X61541Y-36755D01*
X61684Y-36755D02*
X61826Y-36755D01*
X62174Y-36755D02*
X62316Y-36755D01*
X62461Y-36755D02*
X63225Y-36755D01*
X21275Y-36835D02*
X26198Y-36835D01*
X40972Y-36835D02*
X46350Y-36835D01*
X47755Y-36835D02*
X60199Y-36835D01*
X61500Y-36835D02*
X61512Y-36835D01*
X61764Y-36835D02*
X61906Y-36835D01*
X62094Y-36835D02*
X62236Y-36835D01*
X62494Y-36835D02*
X63225Y-36835D01*
X21275Y-36915D02*
X26278Y-36915D01*
X41052Y-36915D02*
X46350Y-36915D01*
X47835Y-36915D02*
X60279Y-36915D01*
X61844Y-36915D02*
X61986Y-36915D01*
X62014Y-36915D02*
X62156Y-36915D01*
X62511Y-36915D02*
X63225Y-36915D01*
X21275Y-36995D02*
X26358Y-36995D01*
X35141Y-36995D02*
X38358Y-36995D01*
X41132Y-36995D02*
X46350Y-36995D01*
X47915Y-36995D02*
X60359Y-36995D01*
X61924Y-36995D02*
X62076Y-36995D01*
X62515Y-36995D02*
X63225Y-36995D01*
X21275Y-37075D02*
X26438Y-37075D01*
X35061Y-37075D02*
X38438Y-37075D01*
X41212Y-37075D02*
X46364Y-37075D01*
X47995Y-37075D02*
X60439Y-37075D01*
X61854Y-37075D02*
X61996Y-37075D01*
X62004Y-37075D02*
X62146Y-37075D01*
X62518Y-37075D02*
X63225Y-37075D01*
X21275Y-37155D02*
X26518Y-37155D01*
X34981Y-37155D02*
X38518Y-37155D01*
X41292Y-37155D02*
X46380Y-37155D01*
X48075Y-37155D02*
X60495Y-37155D01*
X61774Y-37155D02*
X61916Y-37155D01*
X62084Y-37155D02*
X62226Y-37155D01*
X62490Y-37155D02*
X63225Y-37155D01*
X21275Y-37235D02*
X26598Y-37235D01*
X34901Y-37235D02*
X38598Y-37235D01*
X41372Y-37235D02*
X46396Y-37235D01*
X48155Y-37235D02*
X60529Y-37235D01*
X61470Y-37235D02*
X61534Y-37235D01*
X61694Y-37235D02*
X61836Y-37235D01*
X62164Y-37235D02*
X62306Y-37235D01*
X62463Y-37235D02*
X63225Y-37235D01*
X21275Y-37315D02*
X26678Y-37315D01*
X34821Y-37315D02*
X38678Y-37315D01*
X41452Y-37315D02*
X46443Y-37315D01*
X48235Y-37315D02*
X60550Y-37315D01*
X61451Y-37315D02*
X61756Y-37315D01*
X62244Y-37315D02*
X63225Y-37315D01*
X21275Y-37395D02*
X26758Y-37395D01*
X34741Y-37395D02*
X38758Y-37395D01*
X41532Y-37395D02*
X46496Y-37395D01*
X48315Y-37395D02*
X60550Y-37395D01*
X61531Y-37395D02*
X61718Y-37395D01*
X62281Y-37395D02*
X63225Y-37395D01*
X21275Y-37475D02*
X26838Y-37475D01*
X34661Y-37475D02*
X38838Y-37475D01*
X41612Y-37475D02*
X41896Y-37475D01*
X42105Y-37475D02*
X43395Y-37475D01*
X43605Y-37475D02*
X46555Y-37475D01*
X48395Y-37475D02*
X60550Y-37475D01*
X61611Y-37475D02*
X61799Y-37475D01*
X62210Y-37475D02*
X63225Y-37475D01*
X21275Y-37555D02*
X26918Y-37555D01*
X34581Y-37555D02*
X35543Y-37555D01*
X36457Y-37555D02*
X38918Y-37555D01*
X42298Y-37555D02*
X43203Y-37555D01*
X43798Y-37555D02*
X46635Y-37555D01*
X48471Y-37555D02*
X52593Y-37555D01*
X56407Y-37555D02*
X60560Y-37555D01*
X62026Y-37555D02*
X63225Y-37555D01*
X21275Y-37635D02*
X26998Y-37635D01*
X34501Y-37635D02*
X35493Y-37635D01*
X36508Y-37635D02*
X38998Y-37635D01*
X42378Y-37635D02*
X43123Y-37635D01*
X43878Y-37635D02*
X46715Y-37635D01*
X48524Y-37635D02*
X52529Y-37635D01*
X56472Y-37635D02*
X60576Y-37635D01*
X62249Y-37635D02*
X63225Y-37635D01*
X21275Y-37715D02*
X27078Y-37715D01*
X34421Y-37715D02*
X35476Y-37715D01*
X36524Y-37715D02*
X39078Y-37715D01*
X42450Y-37715D02*
X43050Y-37715D01*
X43950Y-37715D02*
X46795Y-37715D01*
X48577Y-37715D02*
X52501Y-37715D01*
X56499Y-37715D02*
X60612Y-37715D01*
X62352Y-37715D02*
X63225Y-37715D01*
X21275Y-37795D02*
X27158Y-37795D01*
X34341Y-37795D02*
X35476Y-37795D01*
X36524Y-37795D02*
X39158Y-37795D01*
X42484Y-37795D02*
X43017Y-37795D01*
X43984Y-37795D02*
X46875Y-37795D01*
X48610Y-37795D02*
X52501Y-37795D01*
X56499Y-37795D02*
X60666Y-37795D01*
X62432Y-37795D02*
X63225Y-37795D01*
X21275Y-37875D02*
X27238Y-37875D01*
X34261Y-37875D02*
X35476Y-37875D01*
X36524Y-37875D02*
X39238Y-37875D01*
X42517Y-37875D02*
X42984Y-37875D01*
X44017Y-37875D02*
X46955Y-37875D01*
X48626Y-37875D02*
X52501Y-37875D01*
X56499Y-37875D02*
X60739Y-37875D01*
X62512Y-37875D02*
X63225Y-37875D01*
X21275Y-37955D02*
X27318Y-37955D01*
X34181Y-37955D02*
X35476Y-37955D01*
X36524Y-37955D02*
X39318Y-37955D01*
X42525Y-37955D02*
X42975Y-37955D01*
X44025Y-37955D02*
X47035Y-37955D01*
X48642Y-37955D02*
X52501Y-37955D01*
X56499Y-37955D02*
X60819Y-37955D01*
X62592Y-37955D02*
X63225Y-37955D01*
X21275Y-38035D02*
X23252Y-38035D01*
X23750Y-38035D02*
X26252Y-38035D01*
X26750Y-38035D02*
X27398Y-38035D01*
X34101Y-38035D02*
X35476Y-38035D01*
X36524Y-38035D02*
X39398Y-38035D01*
X42525Y-38035D02*
X42975Y-38035D01*
X44025Y-38035D02*
X47115Y-38035D01*
X48650Y-38035D02*
X52501Y-38035D01*
X56499Y-38035D02*
X60899Y-38035D01*
X62672Y-38035D02*
X63225Y-38035D01*
X21275Y-38115D02*
X23143Y-38115D01*
X23858Y-38115D02*
X26143Y-38115D01*
X26858Y-38115D02*
X27478Y-38115D01*
X34021Y-38115D02*
X35476Y-38115D01*
X36524Y-38115D02*
X39478Y-38115D01*
X42520Y-38115D02*
X42979Y-38115D01*
X44020Y-38115D02*
X47195Y-38115D01*
X48650Y-38115D02*
X52501Y-38115D01*
X56499Y-38115D02*
X60979Y-38115D01*
X62752Y-38115D02*
X63225Y-38115D01*
X21275Y-38195D02*
X23063Y-38195D01*
X23938Y-38195D02*
X26063Y-38195D01*
X26938Y-38195D02*
X27558Y-38195D01*
X33941Y-38195D02*
X35476Y-38195D01*
X36524Y-38195D02*
X39558Y-38195D01*
X42487Y-38195D02*
X43012Y-38195D01*
X43987Y-38195D02*
X47275Y-38195D01*
X48650Y-38195D02*
X52501Y-38195D01*
X56499Y-38195D02*
X61059Y-38195D01*
X62827Y-38195D02*
X63225Y-38195D01*
X21275Y-38275D02*
X23025Y-38275D01*
X23975Y-38275D02*
X26025Y-38275D01*
X26975Y-38275D02*
X27638Y-38275D01*
X33861Y-38275D02*
X35476Y-38275D01*
X36524Y-38275D02*
X39638Y-38275D01*
X42454Y-38275D02*
X43045Y-38275D01*
X43954Y-38275D02*
X47350Y-38275D01*
X48650Y-38275D02*
X52501Y-38275D01*
X56499Y-38275D02*
X61139Y-38275D01*
X62881Y-38275D02*
X63225Y-38275D01*
X21275Y-38355D02*
X22992Y-38355D01*
X24009Y-38355D02*
X25992Y-38355D01*
X27009Y-38355D02*
X27736Y-38355D01*
X33763Y-38355D02*
X35488Y-38355D01*
X36511Y-38355D02*
X39718Y-38355D01*
X42387Y-38355D02*
X43112Y-38355D01*
X43887Y-38355D02*
X47350Y-38355D01*
X48650Y-38355D02*
X52501Y-38355D01*
X56499Y-38355D02*
X61236Y-38355D01*
X62922Y-38355D02*
X63225Y-38355D01*
X21275Y-38435D02*
X22975Y-38435D01*
X24025Y-38435D02*
X25975Y-38435D01*
X27025Y-38435D02*
X27924Y-38435D01*
X33576Y-38435D02*
X35533Y-38435D01*
X36467Y-38435D02*
X39798Y-38435D01*
X42307Y-38435D02*
X43192Y-38435D01*
X43807Y-38435D02*
X47350Y-38435D01*
X48650Y-38435D02*
X52501Y-38435D01*
X56499Y-38435D02*
X61423Y-38435D01*
X62938Y-38435D02*
X63225Y-38435D01*
X21275Y-38515D02*
X22975Y-38515D01*
X24025Y-38515D02*
X25975Y-38515D01*
X27025Y-38515D02*
X35653Y-38515D01*
X36345Y-38515D02*
X39878Y-38515D01*
X42203Y-38515D02*
X43370Y-38515D01*
X43628Y-38515D02*
X44300Y-38515D01*
X44702Y-38515D02*
X47350Y-38515D01*
X48650Y-38515D02*
X52501Y-38515D01*
X56499Y-38515D02*
X61879Y-38515D01*
X62950Y-38515D02*
X63225Y-38515D01*
X21275Y-38595D02*
X22975Y-38595D01*
X24025Y-38595D02*
X25975Y-38595D01*
X27025Y-38595D02*
X34311Y-38595D01*
X36338Y-38595D02*
X39958Y-38595D01*
X42338Y-38595D02*
X44163Y-38595D01*
X44838Y-38595D02*
X47350Y-38595D01*
X48650Y-38595D02*
X52501Y-38595D01*
X56499Y-38595D02*
X61959Y-38595D01*
X62950Y-38595D02*
X63225Y-38595D01*
X21275Y-38675D02*
X23004Y-38675D01*
X23995Y-38675D02*
X26004Y-38675D01*
X26995Y-38675D02*
X34192Y-38675D01*
X36418Y-38675D02*
X40038Y-38675D01*
X42418Y-38675D02*
X44083Y-38675D01*
X44918Y-38675D02*
X47350Y-38675D01*
X48650Y-38675D02*
X52501Y-38675D01*
X56499Y-38675D02*
X62039Y-38675D01*
X62950Y-38675D02*
X63225Y-38675D01*
X21275Y-38755D02*
X23037Y-38755D01*
X23962Y-38755D02*
X26037Y-38755D01*
X26962Y-38755D02*
X34108Y-38755D01*
X36467Y-38755D02*
X40118Y-38755D01*
X42467Y-38755D02*
X44034Y-38755D01*
X44967Y-38755D02*
X47350Y-38755D01*
X48650Y-38755D02*
X52501Y-38755D01*
X56499Y-38755D02*
X62050Y-38755D01*
X62950Y-38755D02*
X63225Y-38755D01*
X21275Y-38835D02*
X23092Y-38835D01*
X23907Y-38835D02*
X26092Y-38835D01*
X26907Y-38835D02*
X34028Y-38835D01*
X36500Y-38835D02*
X40198Y-38835D01*
X42500Y-38835D02*
X44000Y-38835D01*
X45000Y-38835D02*
X47350Y-38835D01*
X48650Y-38835D02*
X52501Y-38835D01*
X56499Y-38835D02*
X62050Y-38835D01*
X62950Y-38835D02*
X63225Y-38835D01*
X21275Y-38915D02*
X23172Y-38915D01*
X23827Y-38915D02*
X26172Y-38915D01*
X26827Y-38915D02*
X33948Y-38915D01*
X36525Y-38915D02*
X40278Y-38915D01*
X42525Y-38915D02*
X43975Y-38915D01*
X45025Y-38915D02*
X47350Y-38915D01*
X48650Y-38915D02*
X52501Y-38915D01*
X56499Y-38915D02*
X62050Y-38915D01*
X62950Y-38915D02*
X63225Y-38915D01*
X21275Y-38995D02*
X23322Y-38995D01*
X23676Y-38995D02*
X26322Y-38995D01*
X26676Y-38995D02*
X33868Y-38995D01*
X36525Y-38995D02*
X40358Y-38995D01*
X42525Y-38995D02*
X43975Y-38995D01*
X45025Y-38995D02*
X47350Y-38995D01*
X48650Y-38995D02*
X52501Y-38995D01*
X56499Y-38995D02*
X62050Y-38995D01*
X62950Y-38995D02*
X63225Y-38995D01*
X21275Y-39075D02*
X33788Y-39075D01*
X36525Y-39075D02*
X40438Y-39075D01*
X42525Y-39075D02*
X43975Y-39075D01*
X45025Y-39075D02*
X47350Y-39075D01*
X48650Y-39075D02*
X52501Y-39075D01*
X56499Y-39075D02*
X62050Y-39075D01*
X62950Y-39075D02*
X63225Y-39075D01*
X21275Y-39155D02*
X33708Y-39155D01*
X36504Y-39155D02*
X40518Y-39155D01*
X42504Y-39155D02*
X43996Y-39155D01*
X45004Y-39155D02*
X47350Y-39155D01*
X48650Y-39155D02*
X52501Y-39155D01*
X56499Y-39155D02*
X62050Y-39155D01*
X62950Y-39155D02*
X63225Y-39155D01*
X21275Y-39235D02*
X33628Y-39235D01*
X36471Y-39235D02*
X40598Y-39235D01*
X42471Y-39235D02*
X44029Y-39235D01*
X44971Y-39235D02*
X47350Y-39235D01*
X48650Y-39235D02*
X52501Y-39235D01*
X56499Y-39235D02*
X62050Y-39235D01*
X62950Y-39235D02*
X63225Y-39235D01*
X21275Y-39315D02*
X33548Y-39315D01*
X36427Y-39315D02*
X40678Y-39315D01*
X42427Y-39315D02*
X44072Y-39315D01*
X44927Y-39315D02*
X47350Y-39315D01*
X48650Y-39315D02*
X52501Y-39315D01*
X56499Y-39315D02*
X62050Y-39315D01*
X62950Y-39315D02*
X63225Y-39315D01*
X21275Y-39395D02*
X33468Y-39395D01*
X36347Y-39395D02*
X40796Y-39395D01*
X42347Y-39395D02*
X44152Y-39395D01*
X44847Y-39395D02*
X47350Y-39395D01*
X48650Y-39395D02*
X52501Y-39395D01*
X56499Y-39395D02*
X62050Y-39395D01*
X62950Y-39395D02*
X63225Y-39395D01*
X21275Y-39475D02*
X33388Y-39475D01*
X34661Y-39475D02*
X35774Y-39475D01*
X36223Y-39475D02*
X41774Y-39475D01*
X42223Y-39475D02*
X44274Y-39475D01*
X44724Y-39475D02*
X45396Y-39475D01*
X45605Y-39475D02*
X47350Y-39475D01*
X48650Y-39475D02*
X52501Y-39475D01*
X56499Y-39475D02*
X62050Y-39475D01*
X62950Y-39475D02*
X63225Y-39475D01*
X21275Y-39555D02*
X33308Y-39555D01*
X34581Y-39555D02*
X35703Y-39555D01*
X36298Y-39555D02*
X41732Y-39555D01*
X42269Y-39555D02*
X45203Y-39555D01*
X45798Y-39555D02*
X47350Y-39555D01*
X48650Y-39555D02*
X52501Y-39555D01*
X56499Y-39555D02*
X62050Y-39555D01*
X62950Y-39555D02*
X63225Y-39555D01*
X21275Y-39635D02*
X33228Y-39635D01*
X34501Y-39635D02*
X35623Y-39635D01*
X36378Y-39635D02*
X41712Y-39635D01*
X42289Y-39635D02*
X45123Y-39635D01*
X45878Y-39635D02*
X47350Y-39635D01*
X48650Y-39635D02*
X52501Y-39635D01*
X56499Y-39635D02*
X62050Y-39635D01*
X62950Y-39635D02*
X63225Y-39635D01*
X21275Y-39715D02*
X33148Y-39715D01*
X34421Y-39715D02*
X35550Y-39715D01*
X36450Y-39715D02*
X41620Y-39715D01*
X41644Y-39715D02*
X41786Y-39715D01*
X42214Y-39715D02*
X42356Y-39715D01*
X42381Y-39715D02*
X45050Y-39715D01*
X45950Y-39715D02*
X47350Y-39715D01*
X48650Y-39715D02*
X52501Y-39715D01*
X56499Y-39715D02*
X62050Y-39715D01*
X62950Y-39715D02*
X63225Y-39715D01*
X21275Y-39795D02*
X33068Y-39795D01*
X34341Y-39795D02*
X35517Y-39795D01*
X36484Y-39795D02*
X41527Y-39795D01*
X41724Y-39795D02*
X41866Y-39795D01*
X42134Y-39795D02*
X42276Y-39795D01*
X42478Y-39795D02*
X45017Y-39795D01*
X45984Y-39795D02*
X47350Y-39795D01*
X48650Y-39795D02*
X52501Y-39795D01*
X56499Y-39795D02*
X62050Y-39795D01*
X62950Y-39795D02*
X63225Y-39795D01*
X21275Y-39875D02*
X32988Y-39875D01*
X34261Y-39875D02*
X35484Y-39875D01*
X36517Y-39875D02*
X41499Y-39875D01*
X41804Y-39875D02*
X41946Y-39875D01*
X42054Y-39875D02*
X42196Y-39875D01*
X42509Y-39875D02*
X44984Y-39875D01*
X46017Y-39875D02*
X47350Y-39875D01*
X48650Y-39875D02*
X52501Y-39875D01*
X56499Y-39875D02*
X62050Y-39875D01*
X62950Y-39875D02*
X63225Y-39875D01*
X21275Y-39955D02*
X32908Y-39955D01*
X34181Y-39955D02*
X35475Y-39955D01*
X36525Y-39955D02*
X41482Y-39955D01*
X41884Y-39955D02*
X42116Y-39955D01*
X42513Y-39955D02*
X44975Y-39955D01*
X46025Y-39955D02*
X47350Y-39955D01*
X48650Y-39955D02*
X52501Y-39955D01*
X56499Y-39955D02*
X62050Y-39955D01*
X62950Y-39955D02*
X63225Y-39955D01*
X21275Y-40035D02*
X32828Y-40035D01*
X34101Y-40035D02*
X35475Y-40035D01*
X36525Y-40035D02*
X41486Y-40035D01*
X41894Y-40035D02*
X42106Y-40035D01*
X42517Y-40035D02*
X44975Y-40035D01*
X46025Y-40035D02*
X47350Y-40035D01*
X48650Y-40035D02*
X52501Y-40035D01*
X56499Y-40035D02*
X62050Y-40035D01*
X62950Y-40035D02*
X63225Y-40035D01*
X21275Y-40115D02*
X32748Y-40115D01*
X34021Y-40115D02*
X35479Y-40115D01*
X36520Y-40115D02*
X41491Y-40115D01*
X41814Y-40115D02*
X41956Y-40115D01*
X42044Y-40115D02*
X42186Y-40115D01*
X42504Y-40115D02*
X44979Y-40115D01*
X46020Y-40115D02*
X47350Y-40115D01*
X48650Y-40115D02*
X52501Y-40115D01*
X56499Y-40115D02*
X62050Y-40115D01*
X62950Y-40115D02*
X63225Y-40115D01*
X21275Y-40195D02*
X32668Y-40195D01*
X33941Y-40195D02*
X35512Y-40195D01*
X36487Y-40195D02*
X41518Y-40195D01*
X41734Y-40195D02*
X41876Y-40195D01*
X42124Y-40195D02*
X42266Y-40195D01*
X42476Y-40195D02*
X45012Y-40195D01*
X45987Y-40195D02*
X47350Y-40195D01*
X48650Y-40195D02*
X52501Y-40195D01*
X56499Y-40195D02*
X62050Y-40195D01*
X62950Y-40195D02*
X63225Y-40195D01*
X21275Y-40275D02*
X32588Y-40275D01*
X33861Y-40275D02*
X35545Y-40275D01*
X36454Y-40275D02*
X41579Y-40275D01*
X41654Y-40275D02*
X41796Y-40275D01*
X42204Y-40275D02*
X42346Y-40275D01*
X42420Y-40275D02*
X45045Y-40275D01*
X45954Y-40275D02*
X47350Y-40275D01*
X48650Y-40275D02*
X52501Y-40275D01*
X56499Y-40275D02*
X62050Y-40275D01*
X62950Y-40275D02*
X63225Y-40275D01*
X21275Y-40355D02*
X32508Y-40355D01*
X33781Y-40355D02*
X35612Y-40355D01*
X36387Y-40355D02*
X41716Y-40355D01*
X42284Y-40355D02*
X45112Y-40355D01*
X45887Y-40355D02*
X47350Y-40355D01*
X48650Y-40355D02*
X52501Y-40355D01*
X56499Y-40355D02*
X61362Y-40355D01*
X61639Y-40355D02*
X62050Y-40355D01*
X62950Y-40355D02*
X63225Y-40355D01*
X21275Y-40435D02*
X32428Y-40435D01*
X33701Y-40435D02*
X35692Y-40435D01*
X36307Y-40435D02*
X41728Y-40435D01*
X42271Y-40435D02*
X45192Y-40435D01*
X45807Y-40435D02*
X47350Y-40435D01*
X48650Y-40435D02*
X52501Y-40435D01*
X56499Y-40435D02*
X61169Y-40435D01*
X61832Y-40435D02*
X62050Y-40435D01*
X62950Y-40435D02*
X63225Y-40435D01*
X21275Y-40515D02*
X32348Y-40515D01*
X33621Y-40515D02*
X35799Y-40515D01*
X36203Y-40515D02*
X41799Y-40515D01*
X42203Y-40515D02*
X43299Y-40515D01*
X43702Y-40515D02*
X45370Y-40515D01*
X45628Y-40515D02*
X47350Y-40515D01*
X48650Y-40515D02*
X52501Y-40515D01*
X56499Y-40515D02*
X61067Y-40515D01*
X61933Y-40515D02*
X62050Y-40515D01*
X62950Y-40515D02*
X63225Y-40515D01*
X21275Y-40595D02*
X32268Y-40595D01*
X33541Y-40595D02*
X35663Y-40595D01*
X36338Y-40595D02*
X41663Y-40595D01*
X42338Y-40595D02*
X43163Y-40595D01*
X43838Y-40595D02*
X47350Y-40595D01*
X48650Y-40595D02*
X52501Y-40595D01*
X56499Y-40595D02*
X60987Y-40595D01*
X62013Y-40595D02*
X62050Y-40595D01*
X62950Y-40595D02*
X63225Y-40595D01*
X21275Y-40675D02*
X32188Y-40675D01*
X33461Y-40675D02*
X35583Y-40675D01*
X36418Y-40675D02*
X41582Y-40675D01*
X42418Y-40675D02*
X43083Y-40675D01*
X43918Y-40675D02*
X47350Y-40675D01*
X48650Y-40675D02*
X52501Y-40675D01*
X56499Y-40675D02*
X60933Y-40675D01*
X62950Y-40675D02*
X63225Y-40675D01*
X21275Y-40755D02*
X32108Y-40755D01*
X33381Y-40755D02*
X35534Y-40755D01*
X36467Y-40755D02*
X41534Y-40755D01*
X42467Y-40755D02*
X43034Y-40755D01*
X43967Y-40755D02*
X47350Y-40755D01*
X48650Y-40755D02*
X52501Y-40755D01*
X56499Y-40755D02*
X60900Y-40755D01*
X62950Y-40755D02*
X63225Y-40755D01*
X21275Y-40835D02*
X22298Y-40835D01*
X22782Y-40835D02*
X27220Y-40835D01*
X27704Y-40835D02*
X32028Y-40835D01*
X33301Y-40835D02*
X35500Y-40835D01*
X36500Y-40835D02*
X41500Y-40835D01*
X42500Y-40835D02*
X43000Y-40835D01*
X44000Y-40835D02*
X47350Y-40835D01*
X48650Y-40835D02*
X52501Y-40835D01*
X56499Y-40835D02*
X60866Y-40835D01*
X62950Y-40835D02*
X63225Y-40835D01*
X21275Y-40915D02*
X22120Y-40915D01*
X22959Y-40915D02*
X27042Y-40915D01*
X27881Y-40915D02*
X31948Y-40915D01*
X33221Y-40915D02*
X35475Y-40915D01*
X36525Y-40915D02*
X41475Y-40915D01*
X42525Y-40915D02*
X42975Y-40915D01*
X44025Y-40915D02*
X47350Y-40915D01*
X48650Y-40915D02*
X52501Y-40915D01*
X56499Y-40915D02*
X60851Y-40915D01*
X62950Y-40915D02*
X63225Y-40915D01*
X21275Y-40995D02*
X22040Y-40995D01*
X23039Y-40995D02*
X26962Y-40995D01*
X27961Y-40995D02*
X29363Y-40995D01*
X29615Y-40995D02*
X31868Y-40995D01*
X33141Y-40995D02*
X35475Y-40995D01*
X36525Y-40995D02*
X41475Y-40995D01*
X42525Y-40995D02*
X42975Y-40995D01*
X44025Y-40995D02*
X47350Y-40995D01*
X48650Y-40995D02*
X52501Y-40995D01*
X56499Y-40995D02*
X60851Y-40995D01*
X62950Y-40995D02*
X63225Y-40995D01*
X21275Y-41075D02*
X21960Y-41075D01*
X23119Y-41075D02*
X26882Y-41075D01*
X28041Y-41075D02*
X29227Y-41075D01*
X29774Y-41075D02*
X31788Y-41075D01*
X33061Y-41075D02*
X35475Y-41075D01*
X36525Y-41075D02*
X41475Y-41075D01*
X42525Y-41075D02*
X42975Y-41075D01*
X44025Y-41075D02*
X47350Y-41075D01*
X48650Y-41075D02*
X52501Y-41075D01*
X56499Y-41075D02*
X60851Y-41075D01*
X62950Y-41075D02*
X63225Y-41075D01*
X21275Y-41155D02*
X21908Y-41155D01*
X23171Y-41155D02*
X26830Y-41155D01*
X28093Y-41155D02*
X29226Y-41155D01*
X29774Y-41155D02*
X31708Y-41155D01*
X32981Y-41155D02*
X35496Y-41155D01*
X36504Y-41155D02*
X41496Y-41155D01*
X42504Y-41155D02*
X42996Y-41155D01*
X44004Y-41155D02*
X47350Y-41155D01*
X48650Y-41155D02*
X52501Y-41155D01*
X56499Y-41155D02*
X60861Y-41155D01*
X62950Y-41155D02*
X63225Y-41155D01*
X21275Y-41235D02*
X21874Y-41235D01*
X23204Y-41235D02*
X26796Y-41235D01*
X28126Y-41235D02*
X29048Y-41235D01*
X29164Y-41235D02*
X29306Y-41235D01*
X29694Y-41235D02*
X29836Y-41235D01*
X29953Y-41235D02*
X31628Y-41235D01*
X32901Y-41235D02*
X35529Y-41235D01*
X36471Y-41235D02*
X41529Y-41235D01*
X42471Y-41235D02*
X43029Y-41235D01*
X43971Y-41235D02*
X47350Y-41235D01*
X48650Y-41235D02*
X52501Y-41235D01*
X56499Y-41235D02*
X60894Y-41235D01*
X62950Y-41235D02*
X63225Y-41235D01*
X21275Y-41315D02*
X21841Y-41315D01*
X23237Y-41315D02*
X26763Y-41315D01*
X28159Y-41315D02*
X29020Y-41315D01*
X29244Y-41315D02*
X29386Y-41315D01*
X29614Y-41315D02*
X29756Y-41315D01*
X29986Y-41315D02*
X31548Y-41315D01*
X32821Y-41315D02*
X35572Y-41315D01*
X36427Y-41315D02*
X41572Y-41315D01*
X42427Y-41315D02*
X43072Y-41315D01*
X43927Y-41315D02*
X47350Y-41315D01*
X48650Y-41315D02*
X52507Y-41315D01*
X56492Y-41315D02*
X60928Y-41315D01*
X62950Y-41315D02*
X63225Y-41315D01*
X21275Y-41395D02*
X21817Y-41395D01*
X23261Y-41395D02*
X26739Y-41395D01*
X28183Y-41395D02*
X28992Y-41395D01*
X29324Y-41395D02*
X29466Y-41395D01*
X29534Y-41395D02*
X29676Y-41395D01*
X30010Y-41395D02*
X31468Y-41395D01*
X32741Y-41395D02*
X35652Y-41395D01*
X36347Y-41395D02*
X41652Y-41395D01*
X42347Y-41395D02*
X43152Y-41395D01*
X43847Y-41395D02*
X47350Y-41395D01*
X48650Y-41395D02*
X52543Y-41395D01*
X56457Y-41395D02*
X60977Y-41395D01*
X62950Y-41395D02*
X63225Y-41395D01*
X21275Y-41475D02*
X21817Y-41475D01*
X23261Y-41475D02*
X26739Y-41475D01*
X28183Y-41475D02*
X28983Y-41475D01*
X29404Y-41475D02*
X29596Y-41475D01*
X30014Y-41475D02*
X31388Y-41475D01*
X32661Y-41475D02*
X35774Y-41475D01*
X36223Y-41475D02*
X41774Y-41475D01*
X42223Y-41475D02*
X43274Y-41475D01*
X43724Y-41475D02*
X44395Y-41475D01*
X44605Y-41475D02*
X47350Y-41475D01*
X48650Y-41475D02*
X52642Y-41475D01*
X56357Y-41475D02*
X61057Y-41475D01*
X62950Y-41475D02*
X63225Y-41475D01*
X21275Y-41555D02*
X21817Y-41555D01*
X23261Y-41555D02*
X26739Y-41555D01*
X28183Y-41555D02*
X28987Y-41555D01*
X29374Y-41555D02*
X29626Y-41555D01*
X30018Y-41555D02*
X31308Y-41555D01*
X32581Y-41555D02*
X35703Y-41555D01*
X36298Y-41555D02*
X41703Y-41555D01*
X42298Y-41555D02*
X44203Y-41555D01*
X44798Y-41555D02*
X47350Y-41555D01*
X48650Y-41555D02*
X61027Y-41555D01*
X62950Y-41555D02*
X63225Y-41555D01*
X21275Y-41635D02*
X21817Y-41635D01*
X23261Y-41635D02*
X26739Y-41635D01*
X28183Y-41635D02*
X28994Y-41635D01*
X29294Y-41635D02*
X29436Y-41635D01*
X29564Y-41635D02*
X29706Y-41635D01*
X29997Y-41635D02*
X31228Y-41635D01*
X32501Y-41635D02*
X32951Y-41635D01*
X36378Y-41635D02*
X41623Y-41635D01*
X42378Y-41635D02*
X44123Y-41635D01*
X44878Y-41635D02*
X47350Y-41635D01*
X48650Y-41635D02*
X60949Y-41635D01*
X62950Y-41635D02*
X63225Y-41635D01*
X21275Y-41715D02*
X21840Y-41715D01*
X23238Y-41715D02*
X26754Y-41715D01*
X28160Y-41715D02*
X29026Y-41715D01*
X29214Y-41715D02*
X29356Y-41715D01*
X29644Y-41715D02*
X29786Y-41715D01*
X29970Y-41715D02*
X31148Y-41715D01*
X32421Y-41715D02*
X32764Y-41715D01*
X36450Y-41715D02*
X41550Y-41715D01*
X42450Y-41715D02*
X44050Y-41715D01*
X44950Y-41715D02*
X47350Y-41715D01*
X48650Y-41715D02*
X60916Y-41715D01*
X62950Y-41715D02*
X63225Y-41715D01*
X21275Y-41795D02*
X21873Y-41795D01*
X23204Y-41795D02*
X26674Y-41795D01*
X28126Y-41795D02*
X29276Y-41795D01*
X29724Y-41795D02*
X31068Y-41795D01*
X32341Y-41795D02*
X32674Y-41795D01*
X36484Y-41795D02*
X41517Y-41795D01*
X42484Y-41795D02*
X44017Y-41795D01*
X44984Y-41795D02*
X47350Y-41795D01*
X48650Y-41795D02*
X60883Y-41795D01*
X62950Y-41795D02*
X63225Y-41795D01*
X21275Y-41875D02*
X21906Y-41875D01*
X23171Y-41875D02*
X26594Y-41875D01*
X28093Y-41875D02*
X29213Y-41875D01*
X29786Y-41875D02*
X30988Y-41875D01*
X32261Y-41875D02*
X32594Y-41875D01*
X36517Y-41875D02*
X41484Y-41875D01*
X42517Y-41875D02*
X43984Y-41875D01*
X45017Y-41875D02*
X47350Y-41875D01*
X48650Y-41875D02*
X60851Y-41875D01*
X62950Y-41875D02*
X63225Y-41875D01*
X21275Y-41955D02*
X21957Y-41955D01*
X23120Y-41955D02*
X26514Y-41955D01*
X28042Y-41955D02*
X29241Y-41955D01*
X29759Y-41955D02*
X30908Y-41955D01*
X32181Y-41955D02*
X32514Y-41955D01*
X36525Y-41955D02*
X41475Y-41955D01*
X42525Y-41955D02*
X43975Y-41955D01*
X45025Y-41955D02*
X47350Y-41955D01*
X48650Y-41955D02*
X60851Y-41955D01*
X62950Y-41955D02*
X63225Y-41955D01*
X21275Y-42035D02*
X22037Y-42035D01*
X23040Y-42035D02*
X26434Y-42035D01*
X27962Y-42035D02*
X29251Y-42035D01*
X29750Y-42035D02*
X30828Y-42035D01*
X32101Y-42035D02*
X32434Y-42035D01*
X36525Y-42035D02*
X41475Y-42035D01*
X42525Y-42035D02*
X43975Y-42035D01*
X45025Y-42035D02*
X47350Y-42035D01*
X48650Y-42035D02*
X60851Y-42035D01*
X62950Y-42035D02*
X63225Y-42035D01*
X21275Y-42115D02*
X22117Y-42115D01*
X22960Y-42115D02*
X26355Y-42115D01*
X27882Y-42115D02*
X29143Y-42115D01*
X32021Y-42115D02*
X32354Y-42115D01*
X36520Y-42115D02*
X41479Y-42115D01*
X42520Y-42115D02*
X43979Y-42115D01*
X45020Y-42115D02*
X47350Y-42115D01*
X48650Y-42115D02*
X60851Y-42115D01*
X62950Y-42115D02*
X63225Y-42115D01*
X21275Y-42195D02*
X22291Y-42195D01*
X22785Y-42195D02*
X26275Y-42195D01*
X27707Y-42195D02*
X29062Y-42195D01*
X31941Y-42195D02*
X32274Y-42195D01*
X36487Y-42195D02*
X41512Y-42195D01*
X42487Y-42195D02*
X44012Y-42195D01*
X44987Y-42195D02*
X47350Y-42195D01*
X48650Y-42195D02*
X60878Y-42195D01*
X62950Y-42195D02*
X63225Y-42195D01*
X21275Y-42275D02*
X26209Y-42275D01*
X27254Y-42275D02*
X29025Y-42275D01*
X31861Y-42275D02*
X32194Y-42275D01*
X36454Y-42275D02*
X41545Y-42275D01*
X42454Y-42275D02*
X44045Y-42275D01*
X44954Y-42275D02*
X47350Y-42275D01*
X48650Y-42275D02*
X60911Y-42275D01*
X62950Y-42275D02*
X63225Y-42275D01*
X21275Y-42355D02*
X26155Y-42355D01*
X27174Y-42355D02*
X28992Y-42355D01*
X31781Y-42355D02*
X32114Y-42355D01*
X36387Y-42355D02*
X41612Y-42355D01*
X42387Y-42355D02*
X44112Y-42355D01*
X44887Y-42355D02*
X47350Y-42355D01*
X48650Y-42355D02*
X60944Y-42355D01*
X62950Y-42355D02*
X63225Y-42355D01*
X21275Y-42435D02*
X26139Y-42435D01*
X27094Y-42435D02*
X28975Y-42435D01*
X31701Y-42435D02*
X32034Y-42435D01*
X33095Y-42435D02*
X35692Y-42435D01*
X36307Y-42435D02*
X41692Y-42435D01*
X42307Y-42435D02*
X44192Y-42435D01*
X44807Y-42435D02*
X47350Y-42435D01*
X48650Y-42435D02*
X61017Y-42435D01*
X62950Y-42435D02*
X63225Y-42435D01*
X21275Y-42515D02*
X26125Y-42515D01*
X27014Y-42515D02*
X28975Y-42515D01*
X31621Y-42515D02*
X31954Y-42515D01*
X33015Y-42515D02*
X35799Y-42515D01*
X36203Y-42515D02*
X41799Y-42515D01*
X42203Y-42515D02*
X44370Y-42515D01*
X44628Y-42515D02*
X45299Y-42515D01*
X45702Y-42515D02*
X47350Y-42515D01*
X48650Y-42515D02*
X61067Y-42515D01*
X62950Y-42515D02*
X63225Y-42515D01*
X21275Y-42595D02*
X26125Y-42595D01*
X26934Y-42595D02*
X28975Y-42595D01*
X31541Y-42595D02*
X31874Y-42595D01*
X32935Y-42595D02*
X33368Y-42595D01*
X33633Y-42595D02*
X35663Y-42595D01*
X36338Y-42595D02*
X41663Y-42595D01*
X42338Y-42595D02*
X45163Y-42595D01*
X45838Y-42595D02*
X47350Y-42595D01*
X48650Y-42595D02*
X60987Y-42595D01*
X62950Y-42595D02*
X63225Y-42595D01*
X21275Y-42675D02*
X26125Y-42675D01*
X26875Y-42675D02*
X29004Y-42675D01*
X31461Y-42675D02*
X31794Y-42675D01*
X32855Y-42675D02*
X33224Y-42675D01*
X33776Y-42675D02*
X35583Y-42675D01*
X36418Y-42675D02*
X41583Y-42675D01*
X42418Y-42675D02*
X45083Y-42675D01*
X45918Y-42675D02*
X47350Y-42675D01*
X48650Y-42675D02*
X60933Y-42675D01*
X62950Y-42675D02*
X63225Y-42675D01*
X21275Y-42755D02*
X26125Y-42755D01*
X26875Y-42755D02*
X29037Y-42755D01*
X31381Y-42755D02*
X31714Y-42755D01*
X32775Y-42755D02*
X33144Y-42755D01*
X33856Y-42755D02*
X35534Y-42755D01*
X36467Y-42755D02*
X41534Y-42755D01*
X42467Y-42755D02*
X45034Y-42755D01*
X45967Y-42755D02*
X47350Y-42755D01*
X48650Y-42755D02*
X60900Y-42755D01*
X62950Y-42755D02*
X63225Y-42755D01*
X21275Y-42835D02*
X22246Y-42835D01*
X22824Y-42835D02*
X26125Y-42835D01*
X26875Y-42835D02*
X27207Y-42835D01*
X27703Y-42835D02*
X29092Y-42835D01*
X31292Y-42835D02*
X31634Y-42835D01*
X32695Y-42835D02*
X33108Y-42835D01*
X33892Y-42835D02*
X35500Y-42835D01*
X36500Y-42835D02*
X41500Y-42835D01*
X42500Y-42835D02*
X45000Y-42835D01*
X46000Y-42835D02*
X47350Y-42835D01*
X48650Y-42835D02*
X60866Y-42835D01*
X62950Y-42835D02*
X63225Y-42835D01*
X21275Y-42915D02*
X22138Y-42915D01*
X22941Y-42915D02*
X26125Y-42915D01*
X26875Y-42915D02*
X27067Y-42915D01*
X27856Y-42915D02*
X29172Y-42915D01*
X31174Y-42915D02*
X31554Y-42915D01*
X32615Y-42915D02*
X33054Y-42915D01*
X33925Y-42915D02*
X35475Y-42915D01*
X36525Y-42915D02*
X41475Y-42915D01*
X42525Y-42915D02*
X44975Y-42915D01*
X46025Y-42915D02*
X47350Y-42915D01*
X48650Y-42915D02*
X60851Y-42915D01*
X62950Y-42915D02*
X63225Y-42915D01*
X21275Y-42995D02*
X22121Y-42995D01*
X22957Y-42995D02*
X26125Y-42995D01*
X26875Y-42995D02*
X27033Y-42995D01*
X27890Y-42995D02*
X29130Y-42995D01*
X29871Y-42995D02*
X31474Y-42995D01*
X32535Y-42995D02*
X32974Y-42995D01*
X33925Y-42995D02*
X35475Y-42995D01*
X36525Y-42995D02*
X41475Y-42995D01*
X42525Y-42995D02*
X44975Y-42995D01*
X46025Y-42995D02*
X47350Y-42995D01*
X48650Y-42995D02*
X60851Y-42995D01*
X62950Y-42995D02*
X63225Y-42995D01*
X21275Y-43075D02*
X21989Y-43075D01*
X22059Y-43075D02*
X22201Y-43075D01*
X22877Y-43075D02*
X23019Y-43075D01*
X23090Y-43075D02*
X26125Y-43075D01*
X26875Y-43075D02*
X26948Y-43075D01*
X26965Y-43075D02*
X27107Y-43075D01*
X27815Y-43075D02*
X27957Y-43075D01*
X27974Y-43075D02*
X29023Y-43075D01*
X29977Y-43075D02*
X31394Y-43075D01*
X32455Y-43075D02*
X32894Y-43075D01*
X33925Y-43075D02*
X35475Y-43075D01*
X36525Y-43075D02*
X41475Y-43075D01*
X42525Y-43075D02*
X44975Y-43075D01*
X46025Y-43075D02*
X47350Y-43075D01*
X48650Y-43075D02*
X60851Y-43075D01*
X62950Y-43075D02*
X63225Y-43075D01*
X21275Y-43155D02*
X21907Y-43155D01*
X22139Y-43155D02*
X22281Y-43155D01*
X22797Y-43155D02*
X22939Y-43155D01*
X23174Y-43155D02*
X26125Y-43155D01*
X27045Y-43155D02*
X27187Y-43155D01*
X27735Y-43155D02*
X27877Y-43155D01*
X28089Y-43155D02*
X28985Y-43155D01*
X30016Y-43155D02*
X31314Y-43155D01*
X32375Y-43155D02*
X32814Y-43155D01*
X33895Y-43155D02*
X35496Y-43155D01*
X36504Y-43155D02*
X41496Y-43155D01*
X42504Y-43155D02*
X44996Y-43155D01*
X46004Y-43155D02*
X47350Y-43155D01*
X48650Y-43155D02*
X60861Y-43155D01*
X62950Y-43155D02*
X63225Y-43155D01*
X21275Y-43235D02*
X21877Y-43235D01*
X22219Y-43235D02*
X22361Y-43235D01*
X22717Y-43235D02*
X22859Y-43235D01*
X23207Y-43235D02*
X26125Y-43235D01*
X27125Y-43235D02*
X27267Y-43235D01*
X27655Y-43235D02*
X27797Y-43235D01*
X28122Y-43235D02*
X28976Y-43235D01*
X30024Y-43235D02*
X31234Y-43235D01*
X32295Y-43235D02*
X32734Y-43235D01*
X33862Y-43235D02*
X35529Y-43235D01*
X36471Y-43235D02*
X41529Y-43235D01*
X42471Y-43235D02*
X45029Y-43235D01*
X45971Y-43235D02*
X47350Y-43235D01*
X48650Y-43235D02*
X60894Y-43235D01*
X62950Y-43235D02*
X63225Y-43235D01*
X21275Y-43315D02*
X21847Y-43315D01*
X22299Y-43315D02*
X22441Y-43315D01*
X22637Y-43315D02*
X22779Y-43315D01*
X23240Y-43315D02*
X26125Y-43315D01*
X27205Y-43315D02*
X27347Y-43315D01*
X27575Y-43315D02*
X27717Y-43315D01*
X28155Y-43315D02*
X28976Y-43315D01*
X30024Y-43315D02*
X31154Y-43315D01*
X32215Y-43315D02*
X32654Y-43315D01*
X33786Y-43315D02*
X35572Y-43315D01*
X36427Y-43315D02*
X41572Y-43315D01*
X42427Y-43315D02*
X45072Y-43315D01*
X45927Y-43315D02*
X47350Y-43315D01*
X48650Y-43315D02*
X60928Y-43315D01*
X62950Y-43315D02*
X63225Y-43315D01*
X21275Y-43395D02*
X21828Y-43395D01*
X22379Y-43395D02*
X22521Y-43395D01*
X22557Y-43395D02*
X22699Y-43395D01*
X23245Y-43395D02*
X26125Y-43395D01*
X27285Y-43395D02*
X27427Y-43395D01*
X27495Y-43395D02*
X27637Y-43395D01*
X28166Y-43395D02*
X28976Y-43395D01*
X30024Y-43395D02*
X31074Y-43395D01*
X32135Y-43395D02*
X32574Y-43395D01*
X33656Y-43395D02*
X35652Y-43395D01*
X36347Y-43395D02*
X41652Y-43395D01*
X42347Y-43395D02*
X45152Y-43395D01*
X45847Y-43395D02*
X47350Y-43395D01*
X48650Y-43395D02*
X60977Y-43395D01*
X62022Y-43395D02*
X62050Y-43395D01*
X62950Y-43395D02*
X63225Y-43395D01*
X21275Y-43475D02*
X21831Y-43475D01*
X22459Y-43475D02*
X22619Y-43475D01*
X23247Y-43475D02*
X26125Y-43475D01*
X27365Y-43475D02*
X27557Y-43475D01*
X28168Y-43475D02*
X28976Y-43475D01*
X30024Y-43475D02*
X30994Y-43475D01*
X32055Y-43475D02*
X32494Y-43475D01*
X33554Y-43475D02*
X35774Y-43475D01*
X36223Y-43475D02*
X41774Y-43475D01*
X42223Y-43475D02*
X43395Y-43475D01*
X43605Y-43475D02*
X45274Y-43475D01*
X45724Y-43475D02*
X47350Y-43475D01*
X48650Y-43475D02*
X61057Y-43475D01*
X61942Y-43475D02*
X62050Y-43475D01*
X62950Y-43475D02*
X63225Y-43475D01*
X21275Y-43555D02*
X21833Y-43555D01*
X22397Y-43555D02*
X22539Y-43555D01*
X22539Y-43555D02*
X22681Y-43555D01*
X23249Y-43555D02*
X26125Y-43555D01*
X27445Y-43555D02*
X27587Y-43555D01*
X28171Y-43555D02*
X28976Y-43555D01*
X30024Y-43555D02*
X30914Y-43555D01*
X31975Y-43555D02*
X32414Y-43555D01*
X33474Y-43555D02*
X35703Y-43555D01*
X36298Y-43555D02*
X41703Y-43555D01*
X42298Y-43555D02*
X43203Y-43555D01*
X43798Y-43555D02*
X44232Y-43555D01*
X44769Y-43555D02*
X46732Y-43555D01*
X47269Y-43555D02*
X47350Y-43555D01*
X48650Y-43555D02*
X61126Y-43555D01*
X61874Y-43555D02*
X62050Y-43555D01*
X62950Y-43555D02*
X63225Y-43555D01*
X21275Y-43635D02*
X21835Y-43635D01*
X22317Y-43635D02*
X22459Y-43635D01*
X22619Y-43635D02*
X22761Y-43635D01*
X23238Y-43635D02*
X26125Y-43635D01*
X27525Y-43635D02*
X27667Y-43635D01*
X28166Y-43635D02*
X28976Y-43635D01*
X30024Y-43635D02*
X30834Y-43635D01*
X31895Y-43635D02*
X32334Y-43635D01*
X33394Y-43635D02*
X35623Y-43635D01*
X36378Y-43635D02*
X41623Y-43635D01*
X42378Y-43635D02*
X43123Y-43635D01*
X43878Y-43635D02*
X44212Y-43635D01*
X44789Y-43635D02*
X46712Y-43635D01*
X47289Y-43635D02*
X47294Y-43635D01*
X47320Y-43635D02*
X47350Y-43635D01*
X48650Y-43635D02*
X61016Y-43635D01*
X61064Y-43635D02*
X61206Y-43635D01*
X61794Y-43635D02*
X61936Y-43635D01*
X61986Y-43635D02*
X62050Y-43635D01*
X62950Y-43635D02*
X63225Y-43635D01*
X21275Y-43715D02*
X21864Y-43715D01*
X22237Y-43715D02*
X22379Y-43715D01*
X22699Y-43715D02*
X22841Y-43715D01*
X23208Y-43715D02*
X26125Y-43715D01*
X27605Y-43715D02*
X27747Y-43715D01*
X28136Y-43715D02*
X28976Y-43715D01*
X30024Y-43715D02*
X30754Y-43715D01*
X31815Y-43715D02*
X32254Y-43715D01*
X33314Y-43715D02*
X35550Y-43715D01*
X36450Y-43715D02*
X41550Y-43715D01*
X42450Y-43715D02*
X43050Y-43715D01*
X43950Y-43715D02*
X44120Y-43715D01*
X44144Y-43715D02*
X44286Y-43715D01*
X44714Y-43715D02*
X44856Y-43715D01*
X44881Y-43715D02*
X46620Y-43715D01*
X46644Y-43715D02*
X46786Y-43715D01*
X48650Y-43715D02*
X60926Y-43715D01*
X61144Y-43715D02*
X61286Y-43715D01*
X61714Y-43715D02*
X61856Y-43715D01*
X62950Y-43715D02*
X63225Y-43715D01*
X21275Y-43795D02*
X21897Y-43795D01*
X22157Y-43795D02*
X22299Y-43795D01*
X22779Y-43795D02*
X22921Y-43795D01*
X23178Y-43795D02*
X26125Y-43795D01*
X27685Y-43795D02*
X27827Y-43795D01*
X28106Y-43795D02*
X28976Y-43795D01*
X30024Y-43795D02*
X30674Y-43795D01*
X31735Y-43795D02*
X32174Y-43795D01*
X33234Y-43795D02*
X35517Y-43795D01*
X36484Y-43795D02*
X41517Y-43795D01*
X42484Y-43795D02*
X43017Y-43795D01*
X43983Y-43795D02*
X44026Y-43795D01*
X44224Y-43795D02*
X44366Y-43795D01*
X44634Y-43795D02*
X44776Y-43795D01*
X44978Y-43795D02*
X46527Y-43795D01*
X46724Y-43795D02*
X46866Y-43795D01*
X48650Y-43795D02*
X60897Y-43795D01*
X61224Y-43795D02*
X61366Y-43795D01*
X61634Y-43795D02*
X61776Y-43795D01*
X62950Y-43795D02*
X63225Y-43795D01*
X21275Y-43875D02*
X21945Y-43875D01*
X22077Y-43875D02*
X22219Y-43875D01*
X22859Y-43875D02*
X23001Y-43875D01*
X23132Y-43875D02*
X26125Y-43875D01*
X27765Y-43875D02*
X27907Y-43875D01*
X28076Y-43875D02*
X28997Y-43875D01*
X30003Y-43875D02*
X30594Y-43875D01*
X31655Y-43875D02*
X32094Y-43875D01*
X33154Y-43875D02*
X35484Y-43875D01*
X36517Y-43875D02*
X41484Y-43875D01*
X42517Y-43875D02*
X42984Y-43875D01*
X44304Y-43875D02*
X44446Y-43875D01*
X44554Y-43875D02*
X44696Y-43875D01*
X45009Y-43875D02*
X46499Y-43875D01*
X46804Y-43875D02*
X46946Y-43875D01*
X48650Y-43875D02*
X57371Y-43875D01*
X57630Y-43875D02*
X60868Y-43875D01*
X61304Y-43875D02*
X61446Y-43875D01*
X61554Y-43875D02*
X61696Y-43875D01*
X62950Y-43875D02*
X63225Y-43875D01*
X21275Y-43955D02*
X22139Y-43955D01*
X22939Y-43955D02*
X26125Y-43955D01*
X27845Y-43955D02*
X29053Y-43955D01*
X29947Y-43955D02*
X30514Y-43955D01*
X31575Y-43955D02*
X32014Y-43955D01*
X33074Y-43955D02*
X35475Y-43955D01*
X36525Y-43955D02*
X41475Y-43955D01*
X42525Y-43955D02*
X42975Y-43955D01*
X44384Y-43955D02*
X44616Y-43955D01*
X45013Y-43955D02*
X46482Y-43955D01*
X46884Y-43955D02*
X47026Y-43955D01*
X48650Y-43955D02*
X57168Y-43955D01*
X57833Y-43955D02*
X60861Y-43955D01*
X61384Y-43955D02*
X61616Y-43955D01*
X62950Y-43955D02*
X63225Y-43955D01*
X21275Y-44035D02*
X22130Y-44035D01*
X22947Y-44035D02*
X26132Y-44035D01*
X27876Y-44035D02*
X30434Y-44035D01*
X31495Y-44035D02*
X31934Y-44035D01*
X32994Y-44035D02*
X35475Y-44035D01*
X36525Y-44035D02*
X41475Y-44035D01*
X42525Y-44035D02*
X42975Y-44035D01*
X44394Y-44035D02*
X44606Y-44035D01*
X45017Y-44035D02*
X46486Y-44035D01*
X46894Y-44035D02*
X47036Y-44035D01*
X48650Y-44035D02*
X57048Y-44035D01*
X57953Y-44035D02*
X60864Y-44035D01*
X61394Y-44035D02*
X61606Y-44035D01*
X62950Y-44035D02*
X63225Y-44035D01*
X21275Y-44115D02*
X22207Y-44115D01*
X22876Y-44115D02*
X26148Y-44115D01*
X27836Y-44115D02*
X30354Y-44115D01*
X31415Y-44115D02*
X31854Y-44115D01*
X32914Y-44115D02*
X35479Y-44115D01*
X36520Y-44115D02*
X41479Y-44115D01*
X42520Y-44115D02*
X42979Y-44115D01*
X44314Y-44115D02*
X44456Y-44115D01*
X44544Y-44115D02*
X44686Y-44115D01*
X45004Y-44115D02*
X46491Y-44115D01*
X46814Y-44115D02*
X46956Y-44115D01*
X48650Y-44115D02*
X56990Y-44115D01*
X58035Y-44115D02*
X60867Y-44115D01*
X61314Y-44115D02*
X61456Y-44115D01*
X61544Y-44115D02*
X61686Y-44115D01*
X62950Y-44115D02*
X63225Y-44115D01*
X21275Y-44195D02*
X26188Y-44195D01*
X31335Y-44195D02*
X31774Y-44195D01*
X32834Y-44195D02*
X35512Y-44195D01*
X36487Y-44195D02*
X41512Y-44195D01*
X42487Y-44195D02*
X43012Y-44195D01*
X43987Y-44195D02*
X44018Y-44195D01*
X44234Y-44195D02*
X44376Y-44195D01*
X44624Y-44195D02*
X44766Y-44195D01*
X44976Y-44195D02*
X46518Y-44195D01*
X46734Y-44195D02*
X46876Y-44195D01*
X48650Y-44195D02*
X56937Y-44195D01*
X58115Y-44195D02*
X60886Y-44195D01*
X61234Y-44195D02*
X61376Y-44195D01*
X61624Y-44195D02*
X61766Y-44195D01*
X62950Y-44195D02*
X63225Y-44195D01*
X21275Y-44275D02*
X26245Y-44275D01*
X31255Y-44275D02*
X31694Y-44275D01*
X32754Y-44275D02*
X35545Y-44275D01*
X36454Y-44275D02*
X41545Y-44275D01*
X42454Y-44275D02*
X43045Y-44275D01*
X43954Y-44275D02*
X44079Y-44275D01*
X44154Y-44275D02*
X44296Y-44275D01*
X44704Y-44275D02*
X44846Y-44275D01*
X44920Y-44275D02*
X46579Y-44275D01*
X46654Y-44275D02*
X46796Y-44275D01*
X48650Y-44275D02*
X56895Y-44275D01*
X58195Y-44275D02*
X60919Y-44275D01*
X61154Y-44275D02*
X61296Y-44275D01*
X61704Y-44275D02*
X61846Y-44275D01*
X62950Y-44275D02*
X63225Y-44275D01*
X21275Y-44355D02*
X26325Y-44355D01*
X31175Y-44355D02*
X31614Y-44355D01*
X32674Y-44355D02*
X35612Y-44355D01*
X36387Y-44355D02*
X41612Y-44355D01*
X42387Y-44355D02*
X43112Y-44355D01*
X43887Y-44355D02*
X44216Y-44355D01*
X44784Y-44355D02*
X46716Y-44355D01*
X47330Y-44355D02*
X47350Y-44355D01*
X48650Y-44355D02*
X56879Y-44355D01*
X58275Y-44355D02*
X60987Y-44355D01*
X61074Y-44355D02*
X61216Y-44355D01*
X61784Y-44355D02*
X61926Y-44355D01*
X62011Y-44355D02*
X62050Y-44355D01*
X62950Y-44355D02*
X63225Y-44355D01*
X21275Y-44435D02*
X26405Y-44435D01*
X31095Y-44435D02*
X31534Y-44435D01*
X32594Y-44435D02*
X35692Y-44435D01*
X36307Y-44435D02*
X41692Y-44435D01*
X42307Y-44435D02*
X43192Y-44435D01*
X43807Y-44435D02*
X44228Y-44435D01*
X44771Y-44435D02*
X46728Y-44435D01*
X47271Y-44435D02*
X47350Y-44435D01*
X48650Y-44435D02*
X56863Y-44435D01*
X58355Y-44435D02*
X61136Y-44435D01*
X61864Y-44435D02*
X62050Y-44435D01*
X62950Y-44435D02*
X63225Y-44435D01*
X21275Y-44515D02*
X26485Y-44515D01*
X31015Y-44515D02*
X31454Y-44515D01*
X32514Y-44515D02*
X35799Y-44515D01*
X36203Y-44515D02*
X41799Y-44515D01*
X42203Y-44515D02*
X43370Y-44515D01*
X43628Y-44515D02*
X44414Y-44515D01*
X44500Y-44515D02*
X46914Y-44515D01*
X47000Y-44515D02*
X47350Y-44515D01*
X48650Y-44515D02*
X56852Y-44515D01*
X58435Y-44515D02*
X61066Y-44515D01*
X61933Y-44515D02*
X62050Y-44515D01*
X62950Y-44515D02*
X63225Y-44515D01*
X21275Y-44595D02*
X26565Y-44595D01*
X30935Y-44595D02*
X31366Y-44595D01*
X32434Y-44595D02*
X35663Y-44595D01*
X36338Y-44595D02*
X41663Y-44595D01*
X42338Y-44595D02*
X47350Y-44595D01*
X48650Y-44595D02*
X56868Y-44595D01*
X58515Y-44595D02*
X60987Y-44595D01*
X62950Y-44595D02*
X63225Y-44595D01*
X21275Y-44675D02*
X26645Y-44675D01*
X30855Y-44675D02*
X31224Y-44675D01*
X32354Y-44675D02*
X35583Y-44675D01*
X36418Y-44675D02*
X41583Y-44675D01*
X42418Y-44675D02*
X47350Y-44675D01*
X48650Y-44675D02*
X56884Y-44675D01*
X58595Y-44675D02*
X60933Y-44675D01*
X62950Y-44675D02*
X63225Y-44675D01*
X21275Y-44755D02*
X26725Y-44755D01*
X30775Y-44755D02*
X31144Y-44755D01*
X32274Y-44755D02*
X35534Y-44755D01*
X36467Y-44755D02*
X41534Y-44755D01*
X42467Y-44755D02*
X47350Y-44755D01*
X48650Y-44755D02*
X56903Y-44755D01*
X58675Y-44755D02*
X60900Y-44755D01*
X62950Y-44755D02*
X63225Y-44755D01*
X21275Y-44835D02*
X26839Y-44835D01*
X30660Y-44835D02*
X31109Y-44835D01*
X32194Y-44835D02*
X35500Y-44835D01*
X36500Y-44835D02*
X41500Y-44835D01*
X42500Y-44835D02*
X47350Y-44835D01*
X48650Y-44835D02*
X56956Y-44835D01*
X58755Y-44835D02*
X60866Y-44835D01*
X62950Y-44835D02*
X63225Y-44835D01*
X21275Y-44915D02*
X31075Y-44915D01*
X32114Y-44915D02*
X35475Y-44915D01*
X36525Y-44915D02*
X41475Y-44915D01*
X42525Y-44915D02*
X47350Y-44915D01*
X48650Y-44915D02*
X57009Y-44915D01*
X58835Y-44915D02*
X60851Y-44915D01*
X62950Y-44915D02*
X63225Y-44915D01*
X21275Y-44995D02*
X31075Y-44995D01*
X32034Y-44995D02*
X32363Y-44995D01*
X32615Y-44995D02*
X33348Y-44995D01*
X33654Y-44995D02*
X35475Y-44995D01*
X36525Y-44995D02*
X41475Y-44995D01*
X42525Y-44995D02*
X47350Y-44995D01*
X48650Y-44995D02*
X57075Y-44995D01*
X58915Y-44995D02*
X60851Y-44995D01*
X62950Y-44995D02*
X63225Y-44995D01*
X21275Y-45075D02*
X31075Y-45075D01*
X31954Y-45075D02*
X32227Y-45075D01*
X32774Y-45075D02*
X33183Y-45075D01*
X33818Y-45075D02*
X35475Y-45075D01*
X36525Y-45075D02*
X41475Y-45075D01*
X42525Y-45075D02*
X47350Y-45075D01*
X48650Y-45075D02*
X57155Y-45075D01*
X58984Y-45075D02*
X60851Y-45075D01*
X62935Y-45075D02*
X63225Y-45075D01*
X21275Y-45155D02*
X31104Y-45155D01*
X31895Y-45155D02*
X32226Y-45155D01*
X32774Y-45155D02*
X33103Y-45155D01*
X33898Y-45155D02*
X35496Y-45155D01*
X36504Y-45155D02*
X41496Y-45155D01*
X42504Y-45155D02*
X47350Y-45155D01*
X48650Y-45155D02*
X57235Y-45155D01*
X59037Y-45155D02*
X60861Y-45155D01*
X62919Y-45155D02*
X63225Y-45155D01*
X21275Y-45235D02*
X31136Y-45235D01*
X31862Y-45235D02*
X32048Y-45235D01*
X32164Y-45235D02*
X32306Y-45235D01*
X32694Y-45235D02*
X32836Y-45235D01*
X32953Y-45235D02*
X33042Y-45235D01*
X33959Y-45235D02*
X35529Y-45235D01*
X36471Y-45235D02*
X41529Y-45235D01*
X42471Y-45235D02*
X47350Y-45235D01*
X48650Y-45235D02*
X57315Y-45235D01*
X59091Y-45235D02*
X60894Y-45235D01*
X62873Y-45235D02*
X63225Y-45235D01*
X21275Y-45315D02*
X31214Y-45315D01*
X31786Y-45315D02*
X32020Y-45315D01*
X32244Y-45315D02*
X32386Y-45315D01*
X32614Y-45315D02*
X32756Y-45315D01*
X32986Y-45315D02*
X33008Y-45315D01*
X33992Y-45315D02*
X35572Y-45315D01*
X36427Y-45315D02*
X41572Y-45315D01*
X42427Y-45315D02*
X47350Y-45315D01*
X48650Y-45315D02*
X57395Y-45315D01*
X59114Y-45315D02*
X60928Y-45315D01*
X62820Y-45315D02*
X63225Y-45315D01*
X21275Y-45395D02*
X31343Y-45395D01*
X31657Y-45395D02*
X31992Y-45395D01*
X32324Y-45395D02*
X32466Y-45395D01*
X32534Y-45395D02*
X32676Y-45395D01*
X34025Y-45395D02*
X35652Y-45395D01*
X36347Y-45395D02*
X41652Y-45395D01*
X42347Y-45395D02*
X47350Y-45395D01*
X48650Y-45395D02*
X57475Y-45395D01*
X59130Y-45395D02*
X60977Y-45395D01*
X62703Y-45395D02*
X63225Y-45395D01*
X21275Y-45475D02*
X23395Y-45475D01*
X23605Y-45475D02*
X26396Y-45475D01*
X26605Y-45475D02*
X31983Y-45475D01*
X32404Y-45475D02*
X32596Y-45475D01*
X34025Y-45475D02*
X35774Y-45475D01*
X36223Y-45475D02*
X41774Y-45475D01*
X42223Y-45475D02*
X47350Y-45475D01*
X48650Y-45475D02*
X57555Y-45475D01*
X59146Y-45475D02*
X61057Y-45475D01*
X61941Y-45475D02*
X63225Y-45475D01*
X21275Y-45555D02*
X23203Y-45555D01*
X23798Y-45555D02*
X26203Y-45555D01*
X26798Y-45555D02*
X31987Y-45555D01*
X32374Y-45555D02*
X32626Y-45555D01*
X34025Y-45555D02*
X35703Y-45555D01*
X36298Y-45555D02*
X41703Y-45555D01*
X42298Y-45555D02*
X47350Y-45555D01*
X48650Y-45555D02*
X57635Y-45555D01*
X59150Y-45555D02*
X61027Y-45555D01*
X61973Y-45555D02*
X63225Y-45555D01*
X21275Y-45635D02*
X23123Y-45635D01*
X23878Y-45635D02*
X26123Y-45635D01*
X26878Y-45635D02*
X31994Y-45635D01*
X32294Y-45635D02*
X32436Y-45635D01*
X32564Y-45635D02*
X32706Y-45635D01*
X34012Y-45635D02*
X35623Y-45635D01*
X36378Y-45635D02*
X41623Y-45635D01*
X42378Y-45635D02*
X47350Y-45635D01*
X48650Y-45635D02*
X57715Y-45635D01*
X59150Y-45635D02*
X60949Y-45635D01*
X62052Y-45635D02*
X63225Y-45635D01*
X21275Y-45715D02*
X23050Y-45715D01*
X23950Y-45715D02*
X26050Y-45715D01*
X26950Y-45715D02*
X32026Y-45715D01*
X32214Y-45715D02*
X32356Y-45715D01*
X32644Y-45715D02*
X32786Y-45715D01*
X32969Y-45715D02*
X33021Y-45715D01*
X33979Y-45715D02*
X35550Y-45715D01*
X36450Y-45715D02*
X41550Y-45715D01*
X42450Y-45715D02*
X47350Y-45715D01*
X48650Y-45715D02*
X57795Y-45715D01*
X59150Y-45715D02*
X60916Y-45715D01*
X62085Y-45715D02*
X63225Y-45715D01*
X21275Y-45795D02*
X23017Y-45795D01*
X23984Y-45795D02*
X26017Y-45795D01*
X26984Y-45795D02*
X32276Y-45795D01*
X32724Y-45795D02*
X33050Y-45795D01*
X33950Y-45795D02*
X35517Y-45795D01*
X36484Y-45795D02*
X41517Y-45795D01*
X42484Y-45795D02*
X47350Y-45795D01*
X48650Y-45795D02*
X50728Y-45795D01*
X51275Y-45795D02*
X53728Y-45795D01*
X54274Y-45795D02*
X57850Y-45795D01*
X59150Y-45795D02*
X60883Y-45795D01*
X62118Y-45795D02*
X63225Y-45795D01*
X21275Y-45875D02*
X22984Y-45875D01*
X24017Y-45875D02*
X25984Y-45875D01*
X27017Y-45875D02*
X32213Y-45875D01*
X32786Y-45875D02*
X33050Y-45875D01*
X33950Y-45875D02*
X35484Y-45875D01*
X36517Y-45875D02*
X41484Y-45875D01*
X42517Y-45875D02*
X47350Y-45875D01*
X48650Y-45875D02*
X50633Y-45875D01*
X51368Y-45875D02*
X53633Y-45875D01*
X54368Y-45875D02*
X57850Y-45875D01*
X59150Y-45875D02*
X60851Y-45875D01*
X62149Y-45875D02*
X63225Y-45875D01*
X21275Y-45955D02*
X22975Y-45955D01*
X24025Y-45955D02*
X25975Y-45955D01*
X27025Y-45955D02*
X32241Y-45955D01*
X32759Y-45955D02*
X33050Y-45955D01*
X33950Y-45955D02*
X35475Y-45955D01*
X36525Y-45955D02*
X41475Y-45955D01*
X42525Y-45955D02*
X47350Y-45955D01*
X48650Y-45955D02*
X50554Y-45955D01*
X51446Y-45955D02*
X53554Y-45955D01*
X54446Y-45955D02*
X57850Y-45955D01*
X59150Y-45955D02*
X60851Y-45955D01*
X62149Y-45955D02*
X63225Y-45955D01*
X21275Y-46035D02*
X22975Y-46035D01*
X24025Y-46035D02*
X25975Y-46035D01*
X27025Y-46035D02*
X33050Y-46035D01*
X33950Y-46035D02*
X35475Y-46035D01*
X36525Y-46035D02*
X41475Y-46035D01*
X42525Y-46035D02*
X47350Y-46035D01*
X48650Y-46035D02*
X50521Y-46035D01*
X51479Y-46035D02*
X53521Y-46035D01*
X54479Y-46035D02*
X57850Y-46035D01*
X59150Y-46035D02*
X60851Y-46035D01*
X62149Y-46035D02*
X63225Y-46035D01*
X21275Y-46115D02*
X22979Y-46115D01*
X24020Y-46115D02*
X25979Y-46115D01*
X27020Y-46115D02*
X33050Y-46115D01*
X33950Y-46115D02*
X35479Y-46115D01*
X36520Y-46115D02*
X41479Y-46115D01*
X42520Y-46115D02*
X47350Y-46115D01*
X48650Y-46115D02*
X50488Y-46115D01*
X51513Y-46115D02*
X53488Y-46115D01*
X54513Y-46115D02*
X57850Y-46115D01*
X59150Y-46115D02*
X60851Y-46115D01*
X62149Y-46115D02*
X63225Y-46115D01*
X21275Y-46195D02*
X23012Y-46195D01*
X23987Y-46195D02*
X26012Y-46195D01*
X26987Y-46195D02*
X33050Y-46195D01*
X33950Y-46195D02*
X35512Y-46195D01*
X36487Y-46195D02*
X41512Y-46195D01*
X42487Y-46195D02*
X47350Y-46195D01*
X48650Y-46195D02*
X50475Y-46195D01*
X51525Y-46195D02*
X53475Y-46195D01*
X54525Y-46195D02*
X57850Y-46195D01*
X59150Y-46195D02*
X60878Y-46195D01*
X62121Y-46195D02*
X63225Y-46195D01*
X21275Y-46275D02*
X23045Y-46275D01*
X23954Y-46275D02*
X26046Y-46275D01*
X26954Y-46275D02*
X33050Y-46275D01*
X33950Y-46275D02*
X35545Y-46275D01*
X36454Y-46275D02*
X41545Y-46275D01*
X42454Y-46275D02*
X47350Y-46275D01*
X48650Y-46275D02*
X50475Y-46275D01*
X51525Y-46275D02*
X53475Y-46275D01*
X54525Y-46275D02*
X57850Y-46275D01*
X59150Y-46275D02*
X60911Y-46275D01*
X62088Y-46275D02*
X63225Y-46275D01*
X21275Y-46355D02*
X23112Y-46355D01*
X23887Y-46355D02*
X26050Y-46355D01*
X26991Y-46355D02*
X33009Y-46355D01*
X33950Y-46355D02*
X35612Y-46355D01*
X36387Y-46355D02*
X41612Y-46355D01*
X42387Y-46355D02*
X47350Y-46355D01*
X48650Y-46355D02*
X50475Y-46355D01*
X51525Y-46355D02*
X53475Y-46355D01*
X54525Y-46355D02*
X57850Y-46355D01*
X59150Y-46355D02*
X60944Y-46355D01*
X62055Y-46355D02*
X63225Y-46355D01*
X21275Y-46435D02*
X23192Y-46435D01*
X23807Y-46435D02*
X26050Y-46435D01*
X27071Y-46435D02*
X32929Y-46435D01*
X33950Y-46435D02*
X35692Y-46435D01*
X36307Y-46435D02*
X41692Y-46435D01*
X42307Y-46435D02*
X47350Y-46435D01*
X48650Y-46435D02*
X50508Y-46435D01*
X51491Y-46435D02*
X53508Y-46435D01*
X54491Y-46435D02*
X57850Y-46435D01*
X59150Y-46435D02*
X61017Y-46435D01*
X61982Y-46435D02*
X63225Y-46435D01*
X21275Y-46515D02*
X23370Y-46515D01*
X23628Y-46515D02*
X26052Y-46515D01*
X27151Y-46515D02*
X32849Y-46515D01*
X33947Y-46515D02*
X35799Y-46515D01*
X36203Y-46515D02*
X41813Y-46515D01*
X42174Y-46515D02*
X47350Y-46515D01*
X48650Y-46515D02*
X50541Y-46515D01*
X51458Y-46515D02*
X53541Y-46515D01*
X54458Y-46515D02*
X57850Y-46515D01*
X59150Y-46515D02*
X61066Y-46515D01*
X61934Y-46515D02*
X63225Y-46515D01*
X21275Y-46595D02*
X26068Y-46595D01*
X27231Y-46595D02*
X31811Y-46595D01*
X33931Y-46595D02*
X35663Y-46595D01*
X36338Y-46595D02*
X41722Y-46595D01*
X42279Y-46595D02*
X47350Y-46595D01*
X48650Y-46595D02*
X50602Y-46595D01*
X51397Y-46595D02*
X53602Y-46595D01*
X54397Y-46595D02*
X57850Y-46595D01*
X59150Y-46595D02*
X60987Y-46595D01*
X62014Y-46595D02*
X63225Y-46595D01*
X21275Y-46675D02*
X26085Y-46675D01*
X27311Y-46675D02*
X31693Y-46675D01*
X33914Y-46675D02*
X35583Y-46675D01*
X36418Y-46675D02*
X41746Y-46675D01*
X42254Y-46675D02*
X47350Y-46675D01*
X48650Y-46675D02*
X50682Y-46675D01*
X51317Y-46675D02*
X53682Y-46675D01*
X54317Y-46675D02*
X57850Y-46675D01*
X59150Y-46675D02*
X60933Y-46675D01*
X62068Y-46675D02*
X63225Y-46675D01*
X21275Y-46755D02*
X26139Y-46755D01*
X27391Y-46755D02*
X31609Y-46755D01*
X33860Y-46755D02*
X35534Y-46755D01*
X36467Y-46755D02*
X41541Y-46755D01*
X41684Y-46755D02*
X41826Y-46755D01*
X42174Y-46755D02*
X42316Y-46755D01*
X42461Y-46755D02*
X47350Y-46755D01*
X48650Y-46755D02*
X50846Y-46755D01*
X51152Y-46755D02*
X53846Y-46755D01*
X54152Y-46755D02*
X57850Y-46755D01*
X59150Y-46755D02*
X60900Y-46755D01*
X62101Y-46755D02*
X63225Y-46755D01*
X21275Y-46835D02*
X26199Y-46835D01*
X27471Y-46835D02*
X31529Y-46835D01*
X33801Y-46835D02*
X35500Y-46835D01*
X36500Y-46835D02*
X41513Y-46835D01*
X41764Y-46835D02*
X41906Y-46835D01*
X42094Y-46835D02*
X42236Y-46835D01*
X42494Y-46835D02*
X47350Y-46835D01*
X48650Y-46835D02*
X57850Y-46835D01*
X59150Y-46835D02*
X60866Y-46835D01*
X62135Y-46835D02*
X63225Y-46835D01*
X21275Y-46915D02*
X26279Y-46915D01*
X27551Y-46915D02*
X31449Y-46915D01*
X33721Y-46915D02*
X35475Y-46915D01*
X36525Y-46915D02*
X41485Y-46915D01*
X41844Y-46915D02*
X41986Y-46915D01*
X42014Y-46915D02*
X42156Y-46915D01*
X42511Y-46915D02*
X47350Y-46915D01*
X48650Y-46915D02*
X57850Y-46915D01*
X59150Y-46915D02*
X60851Y-46915D01*
X62149Y-46915D02*
X63225Y-46915D01*
X21275Y-46995D02*
X26359Y-46995D01*
X27631Y-46995D02*
X31369Y-46995D01*
X33641Y-46995D02*
X35475Y-46995D01*
X36525Y-46995D02*
X41484Y-46995D01*
X41924Y-46995D02*
X42076Y-46995D01*
X42515Y-46995D02*
X47350Y-46995D01*
X48650Y-46995D02*
X50847Y-46995D01*
X51154Y-46995D02*
X53847Y-46995D01*
X54154Y-46995D02*
X57850Y-46995D01*
X59150Y-46995D02*
X60851Y-46995D01*
X62149Y-46995D02*
X63225Y-46995D01*
X21275Y-47075D02*
X26439Y-47075D01*
X33561Y-47075D02*
X35475Y-47075D01*
X36525Y-47075D02*
X41489Y-47075D01*
X41854Y-47075D02*
X41996Y-47075D01*
X42004Y-47075D02*
X42146Y-47075D01*
X42518Y-47075D02*
X47350Y-47075D01*
X48650Y-47075D02*
X50683Y-47075D01*
X51318Y-47075D02*
X53683Y-47075D01*
X54318Y-47075D02*
X57850Y-47075D01*
X59150Y-47075D02*
X60851Y-47075D01*
X62149Y-47075D02*
X63225Y-47075D01*
X21275Y-47155D02*
X26519Y-47155D01*
X33481Y-47155D02*
X35496Y-47155D01*
X36504Y-47155D02*
X41502Y-47155D01*
X41774Y-47155D02*
X41916Y-47155D01*
X42084Y-47155D02*
X42226Y-47155D01*
X42490Y-47155D02*
X47350Y-47155D01*
X48650Y-47155D02*
X50603Y-47155D01*
X51398Y-47155D02*
X53603Y-47155D01*
X54398Y-47155D02*
X57850Y-47155D01*
X59150Y-47155D02*
X60861Y-47155D01*
X62138Y-47155D02*
X63225Y-47155D01*
X21275Y-47235D02*
X26599Y-47235D01*
X33401Y-47235D02*
X35529Y-47235D01*
X36471Y-47235D02*
X41534Y-47235D01*
X41694Y-47235D02*
X41836Y-47235D01*
X42164Y-47235D02*
X42306Y-47235D01*
X42463Y-47235D02*
X47350Y-47235D01*
X48650Y-47235D02*
X50542Y-47235D01*
X51459Y-47235D02*
X53542Y-47235D01*
X54459Y-47235D02*
X57850Y-47235D01*
X59150Y-47235D02*
X60894Y-47235D01*
X62105Y-47235D02*
X63225Y-47235D01*
X21275Y-47315D02*
X26679Y-47315D01*
X33321Y-47315D02*
X35572Y-47315D01*
X36427Y-47315D02*
X41756Y-47315D01*
X42244Y-47315D02*
X47350Y-47315D01*
X48650Y-47315D02*
X50509Y-47315D01*
X51492Y-47315D02*
X53509Y-47315D01*
X54492Y-47315D02*
X57850Y-47315D01*
X59150Y-47315D02*
X60928Y-47315D01*
X62071Y-47315D02*
X63225Y-47315D01*
X21275Y-47395D02*
X26759Y-47395D01*
X33204Y-47395D02*
X35652Y-47395D01*
X36347Y-47395D02*
X41718Y-47395D01*
X42281Y-47395D02*
X47350Y-47395D01*
X48650Y-47395D02*
X50475Y-47395D01*
X51525Y-47395D02*
X53475Y-47395D01*
X54525Y-47395D02*
X57850Y-47395D01*
X59150Y-47395D02*
X60953Y-47395D01*
X62047Y-47395D02*
X63225Y-47395D01*
X21275Y-47475D02*
X26839Y-47475D01*
X32160Y-47475D02*
X35774Y-47475D01*
X36223Y-47475D02*
X41799Y-47475D01*
X42209Y-47475D02*
X47350Y-47475D01*
X48650Y-47475D02*
X50475Y-47475D01*
X51525Y-47475D02*
X53475Y-47475D01*
X54525Y-47475D02*
X57850Y-47475D01*
X59150Y-47475D02*
X60883Y-47475D01*
X62118Y-47475D02*
X63225Y-47475D01*
X21275Y-47555D02*
X26919Y-47555D01*
X32080Y-47555D02*
X32288Y-47555D01*
X32714Y-47555D02*
X35703Y-47555D01*
X36298Y-47555D02*
X41703Y-47555D01*
X42298Y-47555D02*
X47350Y-47555D01*
X48650Y-47555D02*
X50475Y-47555D01*
X51525Y-47555D02*
X53475Y-47555D01*
X54525Y-47555D02*
X57850Y-47555D01*
X59150Y-47555D02*
X60851Y-47555D01*
X62149Y-47555D02*
X63225Y-47555D01*
X21275Y-47635D02*
X26999Y-47635D01*
X32000Y-47635D02*
X32158Y-47635D01*
X32843Y-47635D02*
X35623Y-47635D01*
X36378Y-47635D02*
X41622Y-47635D01*
X42378Y-47635D02*
X47350Y-47635D01*
X48650Y-47635D02*
X50487Y-47635D01*
X51512Y-47635D02*
X53487Y-47635D01*
X54512Y-47635D02*
X57850Y-47635D01*
X59150Y-47635D02*
X60851Y-47635D01*
X62149Y-47635D02*
X63225Y-47635D01*
X21275Y-47715D02*
X27079Y-47715D01*
X31920Y-47715D02*
X32078Y-47715D01*
X32923Y-47715D02*
X35550Y-47715D01*
X36450Y-47715D02*
X41550Y-47715D01*
X42450Y-47715D02*
X47350Y-47715D01*
X48650Y-47715D02*
X50521Y-47715D01*
X51479Y-47715D02*
X53521Y-47715D01*
X54479Y-47715D02*
X57850Y-47715D01*
X59150Y-47715D02*
X60851Y-47715D01*
X62149Y-47715D02*
X63225Y-47715D01*
X21275Y-47795D02*
X27159Y-47795D01*
X31840Y-47795D02*
X32031Y-47795D01*
X32969Y-47795D02*
X35517Y-47795D01*
X36484Y-47795D02*
X41517Y-47795D01*
X42484Y-47795D02*
X47350Y-47795D01*
X48650Y-47795D02*
X50554Y-47795D01*
X51446Y-47795D02*
X53554Y-47795D01*
X54446Y-47795D02*
X57850Y-47795D01*
X59150Y-47795D02*
X60851Y-47795D01*
X62149Y-47795D02*
X63225Y-47795D01*
X21275Y-47875D02*
X27266Y-47875D01*
X31733Y-47875D02*
X31998Y-47875D01*
X33002Y-47875D02*
X35484Y-47875D01*
X36517Y-47875D02*
X41484Y-47875D01*
X42517Y-47875D02*
X47350Y-47875D01*
X48650Y-47875D02*
X50632Y-47875D01*
X51367Y-47875D02*
X53632Y-47875D01*
X54367Y-47875D02*
X57850Y-47875D01*
X59150Y-47875D02*
X60851Y-47875D01*
X62149Y-47875D02*
X63225Y-47875D01*
X21275Y-47955D02*
X31975Y-47955D01*
X33025Y-47955D02*
X35475Y-47955D01*
X36525Y-47955D02*
X41475Y-47955D01*
X42525Y-47955D02*
X47350Y-47955D01*
X48650Y-47955D02*
X50726Y-47955D01*
X51272Y-47955D02*
X53726Y-47955D01*
X54272Y-47955D02*
X57850Y-47955D01*
X59150Y-47955D02*
X60851Y-47955D01*
X62149Y-47955D02*
X63225Y-47955D01*
X21275Y-48035D02*
X31975Y-48035D01*
X33025Y-48035D02*
X35475Y-48035D01*
X36525Y-48035D02*
X41475Y-48035D01*
X42525Y-48035D02*
X47350Y-48035D01*
X48650Y-48035D02*
X57850Y-48035D01*
X59150Y-48035D02*
X60851Y-48035D01*
X62149Y-48035D02*
X63225Y-48035D01*
X21275Y-48115D02*
X31975Y-48115D01*
X33025Y-48115D02*
X35479Y-48115D01*
X36520Y-48115D02*
X41479Y-48115D01*
X42520Y-48115D02*
X47350Y-48115D01*
X48650Y-48115D02*
X57850Y-48115D01*
X59150Y-48115D02*
X60851Y-48115D01*
X62149Y-48115D02*
X63225Y-48115D01*
X21275Y-48195D02*
X31998Y-48195D01*
X33002Y-48195D02*
X35512Y-48195D01*
X36487Y-48195D02*
X41512Y-48195D01*
X42487Y-48195D02*
X47350Y-48195D01*
X48650Y-48195D02*
X57850Y-48195D01*
X59150Y-48195D02*
X60851Y-48195D01*
X62149Y-48195D02*
X63225Y-48195D01*
X21275Y-48275D02*
X32031Y-48275D01*
X32969Y-48275D02*
X35545Y-48275D01*
X36454Y-48275D02*
X41545Y-48275D01*
X42454Y-48275D02*
X47305Y-48275D01*
X48650Y-48275D02*
X50775Y-48275D01*
X51226Y-48275D02*
X53775Y-48275D01*
X54226Y-48275D02*
X57850Y-48275D01*
X59150Y-48275D02*
X60851Y-48275D01*
X62149Y-48275D02*
X63225Y-48275D01*
X21275Y-48355D02*
X22249Y-48355D01*
X22830Y-48355D02*
X27172Y-48355D01*
X27752Y-48355D02*
X32077Y-48355D01*
X32922Y-48355D02*
X35612Y-48355D01*
X36387Y-48355D02*
X41612Y-48355D01*
X42387Y-48355D02*
X47225Y-48355D01*
X48650Y-48355D02*
X50653Y-48355D01*
X51348Y-48355D02*
X53653Y-48355D01*
X54348Y-48355D02*
X57850Y-48355D01*
X59150Y-48355D02*
X60851Y-48355D01*
X62149Y-48355D02*
X63225Y-48355D01*
X21275Y-48435D02*
X22100Y-48435D01*
X22979Y-48435D02*
X27022Y-48435D01*
X27901Y-48435D02*
X32157Y-48435D01*
X32842Y-48435D02*
X35692Y-48435D01*
X36307Y-48435D02*
X41692Y-48435D01*
X42307Y-48435D02*
X47145Y-48435D01*
X48650Y-48435D02*
X50573Y-48435D01*
X51428Y-48435D02*
X53573Y-48435D01*
X54428Y-48435D02*
X57850Y-48435D01*
X59150Y-48435D02*
X60851Y-48435D01*
X62149Y-48435D02*
X63225Y-48435D01*
X21275Y-48515D02*
X22019Y-48515D01*
X23059Y-48515D02*
X26942Y-48515D01*
X27981Y-48515D02*
X32286Y-48515D01*
X32712Y-48515D02*
X35813Y-48515D01*
X36174Y-48515D02*
X41799Y-48515D01*
X42203Y-48515D02*
X47065Y-48515D01*
X48650Y-48515D02*
X50529Y-48515D01*
X51471Y-48515D02*
X53529Y-48515D01*
X54471Y-48515D02*
X57850Y-48515D01*
X59150Y-48515D02*
X60878Y-48515D01*
X62121Y-48515D02*
X63225Y-48515D01*
X21275Y-48595D02*
X21939Y-48595D01*
X23139Y-48595D02*
X26862Y-48595D01*
X28061Y-48595D02*
X35722Y-48595D01*
X36279Y-48595D02*
X41663Y-48595D01*
X42338Y-48595D02*
X46985Y-48595D01*
X48650Y-48595D02*
X50496Y-48595D01*
X51504Y-48595D02*
X53496Y-48595D01*
X54504Y-48595D02*
X57850Y-48595D01*
X59150Y-48595D02*
X60943Y-48595D01*
X62057Y-48595D02*
X63225Y-48595D01*
X21275Y-48675D02*
X21899Y-48675D01*
X23179Y-48675D02*
X26821Y-48675D01*
X28101Y-48675D02*
X35746Y-48675D01*
X36254Y-48675D02*
X41583Y-48675D01*
X42418Y-48675D02*
X46905Y-48675D01*
X48650Y-48675D02*
X50475Y-48675D01*
X51525Y-48675D02*
X53475Y-48675D01*
X54525Y-48675D02*
X57850Y-48675D01*
X59150Y-48675D02*
X63225Y-48675D01*
X21275Y-48755D02*
X21866Y-48755D01*
X23213Y-48755D02*
X26788Y-48755D01*
X28135Y-48755D02*
X35541Y-48755D01*
X35684Y-48755D02*
X35826Y-48755D01*
X36174Y-48755D02*
X36316Y-48755D01*
X36461Y-48755D02*
X41534Y-48755D01*
X42467Y-48755D02*
X46825Y-48755D01*
X48650Y-48755D02*
X50475Y-48755D01*
X51525Y-48755D02*
X53475Y-48755D01*
X54525Y-48755D02*
X57850Y-48755D01*
X59150Y-48755D02*
X63225Y-48755D01*
X21275Y-48835D02*
X21833Y-48835D01*
X23246Y-48835D02*
X26755Y-48835D01*
X28168Y-48835D02*
X35513Y-48835D01*
X35764Y-48835D02*
X35906Y-48835D01*
X36094Y-48835D02*
X36236Y-48835D01*
X36494Y-48835D02*
X41500Y-48835D01*
X42500Y-48835D02*
X46745Y-48835D01*
X48650Y-48835D02*
X50475Y-48835D01*
X51525Y-48835D02*
X53475Y-48835D01*
X54525Y-48835D02*
X57850Y-48835D01*
X59150Y-48835D02*
X63225Y-48835D01*
X21275Y-48915D02*
X21817Y-48915D01*
X23261Y-48915D02*
X26739Y-48915D01*
X28183Y-48915D02*
X35485Y-48915D01*
X35844Y-48915D02*
X35986Y-48915D01*
X36014Y-48915D02*
X36156Y-48915D01*
X36511Y-48915D02*
X41475Y-48915D01*
X42525Y-48915D02*
X46665Y-48915D01*
X48650Y-48915D02*
X50500Y-48915D01*
X51500Y-48915D02*
X53500Y-48915D01*
X54500Y-48915D02*
X57850Y-48915D01*
X59150Y-48915D02*
X63225Y-48915D01*
X21275Y-48995D02*
X21817Y-48995D01*
X23261Y-48995D02*
X26739Y-48995D01*
X28183Y-48995D02*
X28848Y-48995D01*
X29154Y-48995D02*
X35484Y-48995D01*
X35924Y-48995D02*
X36076Y-48995D01*
X36515Y-48995D02*
X41475Y-48995D01*
X42525Y-48995D02*
X46585Y-48995D01*
X48650Y-48995D02*
X50533Y-48995D01*
X51466Y-48995D02*
X53533Y-48995D01*
X54466Y-48995D02*
X57850Y-48995D01*
X59150Y-48995D02*
X63225Y-48995D01*
X21275Y-49075D02*
X21817Y-49075D01*
X23261Y-49075D02*
X26739Y-49075D01*
X28183Y-49075D02*
X28683Y-49075D01*
X29318Y-49075D02*
X35489Y-49075D01*
X35854Y-49075D02*
X35996Y-49075D01*
X36004Y-49075D02*
X36146Y-49075D01*
X36518Y-49075D02*
X41475Y-49075D01*
X42525Y-49075D02*
X46505Y-49075D01*
X48650Y-49075D02*
X50582Y-49075D01*
X51417Y-49075D02*
X53582Y-49075D01*
X54417Y-49075D02*
X57850Y-49075D01*
X59150Y-49075D02*
X63225Y-49075D01*
X21275Y-49155D02*
X21817Y-49155D01*
X23261Y-49155D02*
X26739Y-49155D01*
X28183Y-49155D02*
X28603Y-49155D01*
X29398Y-49155D02*
X35502Y-49155D01*
X35774Y-49155D02*
X35916Y-49155D01*
X36084Y-49155D02*
X36226Y-49155D01*
X36490Y-49155D02*
X41496Y-49155D01*
X42504Y-49155D02*
X46425Y-49155D01*
X48650Y-49155D02*
X50662Y-49155D01*
X51337Y-49155D02*
X53662Y-49155D01*
X54337Y-49155D02*
X57850Y-49155D01*
X59150Y-49155D02*
X63225Y-49155D01*
X21275Y-49235D02*
X21848Y-49235D01*
X23229Y-49235D02*
X26770Y-49235D01*
X28151Y-49235D02*
X28542Y-49235D01*
X29459Y-49235D02*
X35534Y-49235D01*
X35694Y-49235D02*
X35836Y-49235D01*
X36164Y-49235D02*
X36306Y-49235D01*
X36463Y-49235D02*
X41529Y-49235D01*
X42471Y-49235D02*
X46345Y-49235D01*
X48650Y-49235D02*
X50798Y-49235D01*
X51200Y-49235D02*
X53798Y-49235D01*
X54200Y-49235D02*
X57850Y-49235D01*
X59150Y-49235D02*
X63225Y-49235D01*
X21275Y-49315D02*
X21881Y-49315D01*
X23196Y-49315D02*
X26803Y-49315D01*
X28118Y-49315D02*
X28509Y-49315D01*
X29492Y-49315D02*
X35756Y-49315D01*
X36244Y-49315D02*
X41572Y-49315D01*
X42427Y-49315D02*
X46265Y-49315D01*
X48650Y-49315D02*
X57850Y-49315D01*
X59150Y-49315D02*
X63225Y-49315D01*
X21275Y-49395D02*
X21914Y-49395D01*
X23163Y-49395D02*
X26836Y-49395D01*
X28085Y-49395D02*
X28475Y-49395D01*
X29525Y-49395D02*
X35718Y-49395D01*
X36281Y-49395D02*
X41652Y-49395D01*
X42347Y-49395D02*
X46185Y-49395D01*
X48650Y-49395D02*
X57850Y-49395D01*
X59150Y-49395D02*
X63225Y-49395D01*
X21275Y-49475D02*
X21977Y-49475D01*
X23100Y-49475D02*
X26899Y-49475D01*
X28022Y-49475D02*
X28475Y-49475D01*
X29525Y-49475D02*
X30396Y-49475D01*
X30605Y-49475D02*
X32311Y-49475D01*
X32690Y-49475D02*
X35799Y-49475D01*
X36209Y-49475D02*
X41774Y-49475D01*
X42223Y-49475D02*
X46105Y-49475D01*
X48650Y-49475D02*
X50895Y-49475D01*
X51105Y-49475D02*
X53895Y-49475D01*
X54105Y-49475D02*
X57850Y-49475D01*
X59150Y-49475D02*
X63225Y-49475D01*
X21275Y-49555D02*
X22057Y-49555D01*
X23020Y-49555D02*
X26979Y-49555D01*
X27942Y-49555D02*
X28475Y-49555D01*
X29525Y-49555D02*
X30203Y-49555D01*
X30798Y-49555D02*
X32168Y-49555D01*
X32833Y-49555D02*
X35703Y-49555D01*
X36298Y-49555D02*
X41703Y-49555D01*
X42298Y-49555D02*
X45232Y-49555D01*
X45769Y-49555D02*
X46030Y-49555D01*
X48650Y-49555D02*
X50703Y-49555D01*
X51298Y-49555D02*
X53703Y-49555D01*
X54298Y-49555D02*
X57850Y-49555D01*
X59150Y-49555D02*
X63225Y-49555D01*
X21275Y-49635D02*
X22146Y-49635D01*
X22930Y-49635D02*
X27068Y-49635D01*
X27852Y-49635D02*
X28487Y-49635D01*
X29512Y-49635D02*
X30123Y-49635D01*
X30878Y-49635D02*
X32088Y-49635D01*
X32913Y-49635D02*
X35622Y-49635D01*
X36378Y-49635D02*
X41623Y-49635D01*
X42378Y-49635D02*
X45212Y-49635D01*
X45789Y-49635D02*
X45976Y-49635D01*
X48650Y-49635D02*
X50623Y-49635D01*
X51378Y-49635D02*
X53623Y-49635D01*
X54378Y-49635D02*
X57850Y-49635D01*
X59150Y-49635D02*
X63225Y-49635D01*
X21275Y-49715D02*
X22339Y-49715D01*
X22737Y-49715D02*
X27261Y-49715D01*
X27659Y-49715D02*
X28521Y-49715D01*
X29479Y-49715D02*
X30050Y-49715D01*
X30950Y-49715D02*
X32036Y-49715D01*
X32965Y-49715D02*
X35550Y-49715D01*
X36450Y-49715D02*
X41550Y-49715D01*
X42450Y-49715D02*
X45120Y-49715D01*
X45144Y-49715D02*
X45286Y-49715D01*
X45714Y-49715D02*
X45856Y-49715D01*
X45881Y-49715D02*
X45923Y-49715D01*
X48650Y-49715D02*
X50550Y-49715D01*
X51450Y-49715D02*
X53550Y-49715D01*
X54450Y-49715D02*
X57850Y-49715D01*
X59150Y-49715D02*
X63225Y-49715D01*
X21275Y-49795D02*
X28554Y-49795D01*
X29446Y-49795D02*
X30017Y-49795D01*
X30984Y-49795D02*
X32002Y-49795D01*
X32998Y-49795D02*
X35517Y-49795D01*
X36484Y-49795D02*
X41517Y-49795D01*
X42484Y-49795D02*
X45027Y-49795D01*
X45224Y-49795D02*
X45366Y-49795D01*
X45634Y-49795D02*
X45776Y-49795D01*
X48650Y-49795D02*
X50517Y-49795D01*
X51484Y-49795D02*
X53517Y-49795D01*
X54484Y-49795D02*
X57850Y-49795D01*
X59150Y-49795D02*
X63225Y-49795D01*
X21275Y-49875D02*
X28632Y-49875D01*
X29367Y-49875D02*
X29984Y-49875D01*
X31017Y-49875D02*
X31975Y-49875D01*
X33025Y-49875D02*
X35484Y-49875D01*
X36517Y-49875D02*
X41484Y-49875D01*
X42517Y-49875D02*
X44999Y-49875D01*
X45304Y-49875D02*
X45446Y-49875D01*
X45554Y-49875D02*
X45696Y-49875D01*
X48650Y-49875D02*
X50484Y-49875D01*
X51517Y-49875D02*
X53484Y-49875D01*
X54517Y-49875D02*
X57850Y-49875D01*
X59150Y-49875D02*
X63225Y-49875D01*
X21275Y-49955D02*
X28726Y-49955D01*
X29272Y-49955D02*
X29975Y-49955D01*
X31025Y-49955D02*
X31975Y-49955D01*
X33025Y-49955D02*
X35475Y-49955D01*
X36525Y-49955D02*
X41475Y-49955D01*
X42525Y-49955D02*
X44982Y-49955D01*
X45384Y-49955D02*
X45616Y-49955D01*
X48650Y-49955D02*
X50475Y-49955D01*
X51525Y-49955D02*
X53475Y-49955D01*
X54525Y-49955D02*
X57850Y-49955D01*
X59150Y-49955D02*
X63225Y-49955D01*
X21275Y-50035D02*
X28765Y-50035D01*
X29231Y-50035D02*
X29975Y-50035D01*
X31025Y-50035D02*
X31975Y-50035D01*
X33025Y-50035D02*
X35475Y-50035D01*
X36525Y-50035D02*
X41475Y-50035D01*
X42525Y-50035D02*
X44986Y-50035D01*
X45394Y-50035D02*
X45606Y-50035D01*
X48650Y-50035D02*
X50475Y-50035D01*
X51525Y-50035D02*
X53475Y-50035D01*
X54525Y-50035D02*
X57850Y-50035D01*
X59150Y-50035D02*
X63225Y-50035D01*
X21275Y-50115D02*
X28717Y-50115D01*
X29284Y-50115D02*
X29979Y-50115D01*
X31020Y-50115D02*
X31994Y-50115D01*
X33006Y-50115D02*
X35479Y-50115D01*
X36520Y-50115D02*
X41479Y-50115D01*
X42520Y-50115D02*
X44991Y-50115D01*
X45314Y-50115D02*
X45456Y-50115D01*
X45544Y-50115D02*
X45686Y-50115D01*
X47304Y-50115D02*
X47350Y-50115D01*
X48650Y-50115D02*
X50479Y-50115D01*
X51520Y-50115D02*
X53479Y-50115D01*
X54520Y-50115D02*
X57850Y-50115D01*
X59150Y-50115D02*
X63225Y-50115D01*
X21275Y-50195D02*
X28766Y-50195D01*
X29234Y-50195D02*
X30012Y-50195D01*
X30987Y-50195D02*
X32027Y-50195D01*
X32973Y-50195D02*
X35512Y-50195D01*
X36487Y-50195D02*
X41512Y-50195D01*
X42487Y-50195D02*
X45018Y-50195D01*
X45234Y-50195D02*
X45376Y-50195D01*
X45624Y-50195D02*
X45766Y-50195D01*
X47224Y-50195D02*
X47350Y-50195D01*
X48650Y-50195D02*
X50512Y-50195D01*
X51487Y-50195D02*
X53512Y-50195D01*
X54487Y-50195D02*
X57850Y-50195D01*
X59150Y-50195D02*
X63225Y-50195D01*
X21275Y-50275D02*
X22583Y-50275D01*
X22664Y-50275D02*
X28534Y-50275D01*
X28704Y-50275D02*
X28846Y-50275D01*
X29154Y-50275D02*
X29296Y-50275D01*
X29470Y-50275D02*
X30045Y-50275D01*
X30954Y-50275D02*
X32067Y-50275D01*
X32932Y-50275D02*
X35545Y-50275D01*
X36454Y-50275D02*
X41545Y-50275D01*
X42454Y-50275D02*
X45079Y-50275D01*
X45154Y-50275D02*
X45296Y-50275D01*
X45704Y-50275D02*
X45846Y-50275D01*
X45916Y-50275D02*
X45916Y-50275D01*
X47144Y-50275D02*
X47350Y-50275D01*
X48650Y-50275D02*
X50545Y-50275D01*
X51454Y-50275D02*
X53545Y-50275D01*
X54454Y-50275D02*
X57850Y-50275D01*
X59150Y-50275D02*
X63225Y-50275D01*
X21275Y-50355D02*
X22198Y-50355D01*
X22877Y-50355D02*
X27158Y-50355D01*
X27756Y-50355D02*
X28506Y-50355D01*
X28784Y-50355D02*
X28926Y-50355D01*
X29074Y-50355D02*
X29216Y-50355D01*
X29502Y-50355D02*
X30112Y-50355D01*
X30887Y-50355D02*
X32147Y-50355D01*
X32852Y-50355D02*
X35612Y-50355D01*
X36387Y-50355D02*
X41612Y-50355D01*
X42387Y-50355D02*
X45216Y-50355D01*
X45784Y-50355D02*
X45969Y-50355D01*
X47064Y-50355D02*
X47350Y-50355D01*
X48650Y-50355D02*
X50612Y-50355D01*
X51387Y-50355D02*
X53612Y-50355D01*
X54387Y-50355D02*
X57850Y-50355D01*
X59150Y-50355D02*
X63225Y-50355D01*
X21275Y-50435D02*
X22130Y-50435D01*
X22949Y-50435D02*
X27059Y-50435D01*
X27864Y-50435D02*
X28481Y-50435D01*
X28864Y-50435D02*
X29136Y-50435D01*
X29512Y-50435D02*
X30192Y-50435D01*
X30807Y-50435D02*
X32262Y-50435D01*
X32736Y-50435D02*
X35692Y-50435D01*
X36307Y-50435D02*
X41692Y-50435D01*
X42307Y-50435D02*
X45228Y-50435D01*
X45771Y-50435D02*
X46023Y-50435D01*
X46984Y-50435D02*
X47350Y-50435D01*
X48650Y-50435D02*
X50692Y-50435D01*
X51307Y-50435D02*
X53692Y-50435D01*
X54307Y-50435D02*
X57850Y-50435D01*
X59150Y-50435D02*
X63225Y-50435D01*
X21275Y-50515D02*
X22141Y-50515D01*
X22937Y-50515D02*
X27047Y-50515D01*
X27875Y-50515D02*
X28485Y-50515D01*
X28914Y-50515D02*
X29086Y-50515D01*
X29516Y-50515D02*
X30313Y-50515D01*
X30674Y-50515D02*
X35799Y-50515D01*
X36203Y-50515D02*
X41799Y-50515D01*
X42203Y-50515D02*
X45414Y-50515D01*
X45500Y-50515D02*
X46122Y-50515D01*
X46877Y-50515D02*
X47350Y-50515D01*
X48650Y-50515D02*
X50870Y-50515D01*
X51128Y-50515D02*
X53870Y-50515D01*
X54128Y-50515D02*
X57850Y-50515D01*
X59150Y-50515D02*
X63225Y-50515D01*
X21275Y-50595D02*
X21942Y-50595D01*
X22079Y-50595D02*
X22221Y-50595D01*
X22857Y-50595D02*
X22999Y-50595D01*
X23137Y-50595D02*
X26901Y-50595D01*
X26985Y-50595D02*
X27127Y-50595D01*
X27795Y-50595D02*
X27937Y-50595D01*
X28022Y-50595D02*
X28490Y-50595D01*
X28834Y-50595D02*
X28976Y-50595D01*
X29024Y-50595D02*
X29166Y-50595D01*
X29511Y-50595D02*
X30222Y-50595D01*
X30779Y-50595D02*
X35663Y-50595D01*
X36338Y-50595D02*
X41663Y-50595D01*
X42338Y-50595D02*
X46242Y-50595D01*
X46757Y-50595D02*
X47350Y-50595D01*
X48650Y-50595D02*
X57850Y-50595D01*
X59150Y-50595D02*
X63225Y-50595D01*
X21275Y-50675D02*
X21900Y-50675D01*
X22159Y-50675D02*
X22301Y-50675D01*
X22777Y-50675D02*
X22919Y-50675D01*
X23182Y-50675D02*
X26828Y-50675D01*
X27065Y-50675D02*
X27207Y-50675D01*
X27715Y-50675D02*
X27857Y-50675D01*
X28097Y-50675D02*
X28510Y-50675D01*
X28754Y-50675D02*
X28896Y-50675D01*
X29104Y-50675D02*
X29246Y-50675D01*
X29483Y-50675D02*
X30246Y-50675D01*
X30754Y-50675D02*
X35583Y-50675D01*
X36418Y-50675D02*
X41583Y-50675D01*
X42418Y-50675D02*
X47350Y-50675D01*
X48650Y-50675D02*
X57850Y-50675D01*
X59150Y-50675D02*
X63225Y-50675D01*
X21275Y-50755D02*
X21870Y-50755D01*
X22239Y-50755D02*
X22381Y-50755D01*
X22697Y-50755D02*
X22839Y-50755D01*
X23215Y-50755D02*
X26798Y-50755D01*
X27145Y-50755D02*
X27287Y-50755D01*
X27635Y-50755D02*
X27777Y-50755D01*
X28131Y-50755D02*
X28543Y-50755D01*
X28674Y-50755D02*
X28816Y-50755D01*
X29184Y-50755D02*
X29326Y-50755D01*
X29456Y-50755D02*
X30041Y-50755D01*
X30184Y-50755D02*
X30326Y-50755D01*
X30674Y-50755D02*
X30816Y-50755D01*
X30961Y-50755D02*
X35534Y-50755D01*
X36467Y-50755D02*
X41534Y-50755D01*
X42467Y-50755D02*
X47350Y-50755D01*
X48650Y-50755D02*
X57850Y-50755D01*
X59150Y-50755D02*
X63225Y-50755D01*
X21275Y-50835D02*
X21840Y-50835D01*
X22319Y-50835D02*
X22461Y-50835D01*
X22617Y-50835D02*
X22759Y-50835D01*
X23243Y-50835D02*
X26768Y-50835D01*
X27225Y-50835D02*
X27367Y-50835D01*
X27555Y-50835D02*
X27697Y-50835D01*
X28164Y-50835D02*
X28736Y-50835D01*
X29264Y-50835D02*
X30013Y-50835D01*
X30264Y-50835D02*
X30406Y-50835D01*
X30594Y-50835D02*
X30736Y-50835D01*
X30994Y-50835D02*
X35500Y-50835D01*
X36500Y-50835D02*
X41500Y-50835D01*
X42500Y-50835D02*
X47350Y-50835D01*
X48650Y-50835D02*
X57850Y-50835D01*
X59150Y-50835D02*
X63225Y-50835D01*
X21275Y-50915D02*
X21829Y-50915D01*
X22399Y-50915D02*
X22679Y-50915D01*
X23245Y-50915D02*
X26750Y-50915D01*
X27305Y-50915D02*
X27447Y-50915D01*
X27475Y-50915D02*
X27617Y-50915D01*
X28167Y-50915D02*
X28723Y-50915D01*
X29276Y-50915D02*
X29985Y-50915D01*
X30344Y-50915D02*
X30486Y-50915D01*
X30514Y-50915D02*
X30656Y-50915D01*
X31011Y-50915D02*
X35475Y-50915D01*
X36525Y-50915D02*
X41475Y-50915D01*
X42525Y-50915D02*
X47350Y-50915D01*
X48650Y-50915D02*
X57850Y-50915D01*
X59150Y-50915D02*
X63225Y-50915D01*
X21275Y-50995D02*
X21831Y-50995D01*
X22457Y-50995D02*
X22621Y-50995D01*
X23247Y-50995D02*
X26753Y-50995D01*
X27385Y-50995D02*
X27537Y-50995D01*
X28169Y-50995D02*
X28857Y-50995D01*
X29161Y-50995D02*
X29984Y-50995D01*
X30424Y-50995D02*
X30576Y-50995D01*
X31015Y-50995D02*
X35475Y-50995D01*
X36525Y-50995D02*
X41475Y-50995D01*
X42525Y-50995D02*
X47350Y-50995D01*
X48650Y-50995D02*
X57850Y-50995D01*
X59150Y-50995D02*
X63225Y-50995D01*
X21275Y-51075D02*
X21833Y-51075D01*
X22377Y-51075D02*
X22519Y-51075D01*
X22559Y-51075D02*
X22701Y-51075D01*
X23250Y-51075D02*
X26755Y-51075D01*
X27315Y-51075D02*
X27457Y-51075D01*
X27465Y-51075D02*
X27607Y-51075D01*
X28171Y-51075D02*
X29989Y-51075D01*
X30354Y-51075D02*
X30496Y-51075D01*
X30504Y-51075D02*
X30646Y-51075D01*
X31018Y-51075D02*
X35475Y-51075D01*
X36525Y-51075D02*
X41475Y-51075D01*
X42525Y-51075D02*
X47350Y-51075D01*
X48650Y-51075D02*
X57850Y-51075D01*
X59150Y-51075D02*
X63225Y-51075D01*
X21275Y-51155D02*
X21839Y-51155D01*
X22297Y-51155D02*
X22439Y-51155D01*
X22639Y-51155D02*
X22781Y-51155D01*
X23230Y-51155D02*
X26757Y-51155D01*
X27235Y-51155D02*
X27377Y-51155D01*
X27545Y-51155D02*
X27687Y-51155D01*
X28158Y-51155D02*
X30002Y-51155D01*
X30274Y-51155D02*
X30416Y-51155D01*
X30584Y-51155D02*
X30726Y-51155D01*
X30990Y-51155D02*
X35496Y-51155D01*
X36504Y-51155D02*
X41496Y-51155D01*
X42504Y-51155D02*
X47350Y-51155D01*
X48650Y-51155D02*
X57850Y-51155D01*
X59150Y-51155D02*
X63225Y-51155D01*
X21275Y-51235D02*
X21872Y-51235D01*
X22217Y-51235D02*
X22359Y-51235D01*
X22719Y-51235D02*
X22861Y-51235D01*
X23200Y-51235D02*
X26787Y-51235D01*
X27155Y-51235D02*
X27297Y-51235D01*
X27625Y-51235D02*
X27767Y-51235D01*
X28128Y-51235D02*
X30034Y-51235D01*
X30194Y-51235D02*
X30336Y-51235D01*
X30664Y-51235D02*
X30806Y-51235D01*
X30963Y-51235D02*
X35529Y-51235D01*
X36471Y-51235D02*
X41529Y-51235D01*
X42471Y-51235D02*
X47350Y-51235D01*
X48650Y-51235D02*
X57850Y-51235D01*
X59150Y-51235D02*
X63225Y-51235D01*
X21275Y-51315D02*
X21905Y-51315D01*
X22137Y-51315D02*
X22279Y-51315D01*
X22799Y-51315D02*
X22941Y-51315D01*
X23170Y-51315D02*
X26820Y-51315D01*
X27075Y-51315D02*
X27217Y-51315D01*
X27705Y-51315D02*
X27847Y-51315D01*
X28098Y-51315D02*
X30256Y-51315D01*
X30744Y-51315D02*
X35572Y-51315D01*
X36427Y-51315D02*
X41572Y-51315D01*
X42427Y-51315D02*
X47350Y-51315D01*
X48650Y-51315D02*
X57850Y-51315D01*
X59150Y-51315D02*
X63225Y-51315D01*
X21275Y-51395D02*
X21993Y-51395D01*
X22057Y-51395D02*
X22199Y-51395D01*
X22879Y-51395D02*
X23021Y-51395D01*
X23084Y-51395D02*
X26877Y-51395D01*
X26995Y-51395D02*
X27137Y-51395D01*
X27785Y-51395D02*
X27927Y-51395D01*
X28044Y-51395D02*
X30218Y-51395D01*
X30781Y-51395D02*
X35652Y-51395D01*
X36347Y-51395D02*
X41652Y-51395D01*
X42347Y-51395D02*
X47350Y-51395D01*
X48650Y-51395D02*
X57850Y-51395D01*
X59150Y-51395D02*
X63225Y-51395D01*
X21275Y-51475D02*
X22119Y-51475D01*
X22959Y-51475D02*
X27057Y-51475D01*
X27865Y-51475D02*
X28895Y-51475D01*
X29105Y-51475D02*
X30299Y-51475D01*
X30710Y-51475D02*
X35774Y-51475D01*
X36223Y-51475D02*
X41774Y-51475D01*
X42223Y-51475D02*
X47350Y-51475D01*
X48650Y-51475D02*
X57850Y-51475D01*
X59150Y-51475D02*
X63225Y-51475D01*
X21275Y-51555D02*
X22138Y-51555D01*
X22939Y-51555D02*
X27053Y-51555D01*
X27868Y-51555D02*
X28703Y-51555D01*
X29298Y-51555D02*
X35703Y-51555D01*
X36298Y-51555D02*
X41703Y-51555D01*
X42298Y-51555D02*
X47350Y-51555D01*
X48650Y-51555D02*
X57850Y-51555D01*
X59150Y-51555D02*
X63225Y-51555D01*
X21275Y-51635D02*
X22260Y-51635D01*
X22827Y-51635D02*
X27139Y-51635D01*
X27788Y-51635D02*
X28622Y-51635D01*
X29378Y-51635D02*
X35623Y-51635D01*
X36378Y-51635D02*
X41623Y-51635D01*
X42378Y-51635D02*
X47350Y-51635D01*
X48650Y-51635D02*
X57850Y-51635D01*
X59150Y-51635D02*
X63225Y-51635D01*
X21275Y-51715D02*
X28550Y-51715D01*
X29450Y-51715D02*
X35550Y-51715D01*
X36450Y-51715D02*
X41550Y-51715D01*
X42450Y-51715D02*
X47350Y-51715D01*
X48650Y-51715D02*
X57850Y-51715D01*
X59150Y-51715D02*
X63225Y-51715D01*
X21275Y-51795D02*
X28517Y-51795D01*
X29484Y-51795D02*
X35517Y-51795D01*
X36484Y-51795D02*
X41517Y-51795D01*
X42484Y-51795D02*
X47350Y-51795D01*
X48650Y-51795D02*
X57850Y-51795D01*
X59150Y-51795D02*
X63225Y-51795D01*
X21275Y-51875D02*
X28484Y-51875D01*
X29517Y-51875D02*
X35484Y-51875D01*
X36517Y-51875D02*
X41484Y-51875D01*
X42517Y-51875D02*
X47350Y-51875D01*
X48650Y-51875D02*
X57850Y-51875D01*
X59150Y-51875D02*
X63225Y-51875D01*
X21275Y-51955D02*
X28475Y-51955D01*
X29525Y-51955D02*
X35475Y-51955D01*
X36525Y-51955D02*
X41475Y-51955D01*
X42525Y-51955D02*
X47350Y-51955D01*
X48650Y-51955D02*
X57850Y-51955D01*
X59150Y-51955D02*
X63225Y-51955D01*
X21275Y-52035D02*
X28475Y-52035D01*
X29525Y-52035D02*
X35475Y-52035D01*
X36525Y-52035D02*
X41475Y-52035D01*
X42525Y-52035D02*
X47350Y-52035D01*
X48650Y-52035D02*
X50751Y-52035D01*
X51250Y-52035D02*
X53751Y-52035D01*
X54250Y-52035D02*
X57850Y-52035D01*
X59150Y-52035D02*
X63225Y-52035D01*
X21275Y-52115D02*
X28479Y-52115D01*
X29520Y-52115D02*
X35479Y-52115D01*
X36520Y-52115D02*
X41479Y-52115D01*
X42520Y-52115D02*
X47350Y-52115D01*
X48650Y-52115D02*
X50643Y-52115D01*
X51358Y-52115D02*
X53643Y-52115D01*
X54358Y-52115D02*
X57850Y-52115D01*
X59150Y-52115D02*
X63225Y-52115D01*
X21275Y-52195D02*
X28512Y-52195D01*
X29487Y-52195D02*
X35512Y-52195D01*
X36487Y-52195D02*
X41512Y-52195D01*
X42487Y-52195D02*
X47350Y-52195D01*
X48650Y-52195D02*
X50563Y-52195D01*
X51438Y-52195D02*
X53563Y-52195D01*
X54438Y-52195D02*
X57850Y-52195D01*
X59150Y-52195D02*
X63225Y-52195D01*
X21275Y-52275D02*
X28545Y-52275D01*
X29454Y-52275D02*
X35545Y-52275D01*
X36454Y-52275D02*
X41545Y-52275D01*
X42454Y-52275D02*
X47350Y-52275D01*
X48650Y-52275D02*
X50525Y-52275D01*
X51475Y-52275D02*
X53525Y-52275D01*
X54475Y-52275D02*
X57850Y-52275D01*
X59150Y-52275D02*
X63225Y-52275D01*
X21275Y-52355D02*
X28612Y-52355D01*
X29387Y-52355D02*
X35612Y-52355D01*
X36387Y-52355D02*
X41612Y-52355D01*
X42387Y-52355D02*
X47350Y-52355D01*
X48650Y-52355D02*
X50492Y-52355D01*
X51509Y-52355D02*
X53492Y-52355D01*
X54509Y-52355D02*
X57850Y-52355D01*
X59150Y-52355D02*
X63225Y-52355D01*
X21275Y-52435D02*
X28692Y-52435D01*
X29307Y-52435D02*
X35692Y-52435D01*
X36307Y-52435D02*
X41692Y-52435D01*
X42307Y-52435D02*
X47350Y-52435D01*
X48650Y-52435D02*
X50475Y-52435D01*
X51525Y-52435D02*
X53475Y-52435D01*
X54525Y-52435D02*
X57850Y-52435D01*
X59150Y-52435D02*
X63225Y-52435D01*
X21275Y-52515D02*
X28870Y-52515D01*
X29128Y-52515D02*
X35799Y-52515D01*
X36203Y-52515D02*
X41799Y-52515D01*
X42203Y-52515D02*
X47350Y-52515D01*
X48650Y-52515D02*
X50475Y-52515D01*
X51525Y-52515D02*
X53475Y-52515D01*
X54525Y-52515D02*
X57850Y-52515D01*
X59150Y-52515D02*
X63225Y-52515D01*
X21275Y-52595D02*
X35663Y-52595D01*
X36338Y-52595D02*
X41663Y-52595D01*
X42338Y-52595D02*
X47350Y-52595D01*
X48650Y-52595D02*
X50475Y-52595D01*
X51525Y-52595D02*
X53475Y-52595D01*
X54525Y-52595D02*
X57850Y-52595D01*
X59150Y-52595D02*
X63225Y-52595D01*
X21275Y-52675D02*
X35583Y-52675D01*
X36418Y-52675D02*
X41583Y-52675D01*
X42418Y-52675D02*
X47350Y-52675D01*
X48650Y-52675D02*
X50504Y-52675D01*
X51495Y-52675D02*
X53504Y-52675D01*
X54495Y-52675D02*
X57850Y-52675D01*
X59150Y-52675D02*
X63225Y-52675D01*
X21275Y-52755D02*
X35534Y-52755D01*
X36467Y-52755D02*
X41534Y-52755D01*
X42467Y-52755D02*
X47350Y-52755D01*
X48650Y-52755D02*
X50537Y-52755D01*
X51462Y-52755D02*
X53537Y-52755D01*
X54462Y-52755D02*
X57850Y-52755D01*
X59150Y-52755D02*
X63225Y-52755D01*
X21275Y-52835D02*
X35500Y-52835D01*
X36500Y-52835D02*
X41500Y-52835D01*
X42500Y-52835D02*
X47350Y-52835D01*
X48650Y-52835D02*
X50592Y-52835D01*
X51407Y-52835D02*
X53592Y-52835D01*
X54407Y-52835D02*
X57850Y-52835D01*
X59150Y-52835D02*
X63225Y-52835D01*
X21275Y-52915D02*
X35475Y-52915D01*
X36525Y-52915D02*
X41475Y-52915D01*
X42525Y-52915D02*
X47350Y-52915D01*
X48650Y-52915D02*
X50672Y-52915D01*
X51327Y-52915D02*
X53672Y-52915D01*
X54327Y-52915D02*
X57850Y-52915D01*
X59150Y-52915D02*
X63225Y-52915D01*
X21275Y-52995D02*
X31704Y-52995D01*
X32296Y-52995D02*
X32704Y-52995D01*
X33296Y-52995D02*
X35475Y-52995D01*
X36525Y-52995D02*
X41475Y-52995D01*
X42525Y-52995D02*
X47350Y-52995D01*
X48650Y-52995D02*
X50822Y-52995D01*
X51176Y-52995D02*
X53822Y-52995D01*
X54176Y-52995D02*
X57850Y-52995D01*
X59150Y-52995D02*
X63225Y-52995D01*
X21275Y-53075D02*
X31605Y-53075D01*
X32395Y-53075D02*
X32605Y-53075D01*
X33395Y-53075D02*
X35475Y-53075D01*
X36525Y-53075D02*
X41475Y-53075D01*
X42525Y-53075D02*
X47350Y-53075D01*
X48650Y-53075D02*
X57850Y-53075D01*
X59150Y-53075D02*
X63225Y-53075D01*
X21275Y-53155D02*
X31525Y-53155D01*
X32475Y-53155D02*
X32525Y-53155D01*
X33475Y-53155D02*
X35496Y-53155D01*
X36504Y-53155D02*
X41496Y-53155D01*
X42504Y-53155D02*
X47350Y-53155D01*
X48650Y-53155D02*
X57850Y-53155D01*
X59150Y-53155D02*
X63225Y-53155D01*
X21275Y-53235D02*
X31483Y-53235D01*
X33519Y-53235D02*
X35529Y-53235D01*
X36471Y-53235D02*
X41529Y-53235D01*
X42471Y-53235D02*
X47350Y-53235D01*
X48650Y-53235D02*
X57850Y-53235D01*
X59150Y-53235D02*
X63225Y-53235D01*
X21275Y-53315D02*
X31449Y-53315D01*
X33552Y-53315D02*
X35572Y-53315D01*
X36427Y-53315D02*
X41572Y-53315D01*
X42427Y-53315D02*
X47350Y-53315D01*
X48650Y-53315D02*
X57850Y-53315D01*
X59150Y-53315D02*
X63225Y-53315D01*
X21275Y-53395D02*
X31420Y-53395D01*
X33580Y-53395D02*
X35652Y-53395D01*
X36347Y-53395D02*
X41652Y-53395D01*
X42347Y-53395D02*
X47350Y-53395D01*
X48650Y-53395D02*
X57850Y-53395D01*
X59150Y-53395D02*
X63225Y-53395D01*
X21275Y-53475D02*
X31420Y-53475D01*
X33580Y-53475D02*
X35774Y-53475D01*
X36223Y-53475D02*
X41774Y-53475D01*
X42223Y-53475D02*
X47350Y-53475D01*
X48650Y-53475D02*
X57850Y-53475D01*
X59150Y-53475D02*
X63225Y-53475D01*
X21275Y-53555D02*
X31420Y-53555D01*
X33580Y-53555D02*
X35703Y-53555D01*
X36298Y-53555D02*
X41703Y-53555D01*
X42298Y-53555D02*
X47350Y-53555D01*
X48650Y-53555D02*
X57850Y-53555D01*
X59150Y-53555D02*
X63225Y-53555D01*
X21275Y-53635D02*
X31428Y-53635D01*
X33572Y-53635D02*
X35623Y-53635D01*
X36378Y-53635D02*
X41623Y-53635D01*
X42378Y-53635D02*
X47350Y-53635D01*
X48650Y-53635D02*
X57850Y-53635D01*
X59150Y-53635D02*
X63225Y-53635D01*
X21275Y-53715D02*
X31461Y-53715D01*
X33538Y-53715D02*
X35550Y-53715D01*
X36450Y-53715D02*
X41550Y-53715D01*
X42450Y-53715D02*
X47350Y-53715D01*
X48650Y-53715D02*
X57850Y-53715D01*
X59150Y-53715D02*
X63225Y-53715D01*
X21275Y-53795D02*
X31494Y-53795D01*
X33505Y-53795D02*
X35517Y-53795D01*
X36484Y-53795D02*
X41517Y-53795D01*
X42484Y-53795D02*
X47350Y-53795D01*
X48650Y-53795D02*
X57850Y-53795D01*
X59150Y-53795D02*
X63225Y-53795D01*
X21275Y-53875D02*
X31555Y-53875D01*
X32445Y-53875D02*
X32555Y-53875D01*
X33445Y-53875D02*
X35484Y-53875D01*
X36517Y-53875D02*
X41484Y-53875D01*
X42517Y-53875D02*
X47350Y-53875D01*
X48650Y-53875D02*
X57850Y-53875D01*
X59150Y-53875D02*
X63225Y-53875D01*
X21275Y-53955D02*
X31635Y-53955D01*
X32365Y-53955D02*
X32635Y-53955D01*
X33365Y-53955D02*
X35475Y-53955D01*
X36525Y-53955D02*
X41475Y-53955D01*
X42525Y-53955D02*
X47350Y-53955D01*
X48650Y-53955D02*
X57850Y-53955D01*
X59150Y-53955D02*
X63225Y-53955D01*
X21275Y-54035D02*
X31776Y-54035D01*
X32223Y-54035D02*
X32776Y-54035D01*
X33223Y-54035D02*
X35475Y-54035D01*
X36525Y-54035D02*
X41475Y-54035D01*
X42525Y-54035D02*
X47350Y-54035D01*
X48650Y-54035D02*
X57850Y-54035D01*
X59150Y-54035D02*
X63225Y-54035D01*
X21275Y-54115D02*
X35479Y-54115D01*
X36520Y-54115D02*
X41479Y-54115D01*
X42520Y-54115D02*
X47350Y-54115D01*
X48650Y-54115D02*
X57850Y-54115D01*
X59150Y-54115D02*
X63225Y-54115D01*
X21275Y-54195D02*
X35512Y-54195D01*
X36487Y-54195D02*
X41512Y-54195D01*
X42487Y-54195D02*
X47350Y-54195D01*
X48650Y-54195D02*
X57850Y-54195D01*
X59150Y-54195D02*
X63225Y-54195D01*
X21275Y-54275D02*
X35545Y-54275D01*
X36454Y-54275D02*
X41545Y-54275D01*
X42454Y-54275D02*
X47305Y-54275D01*
X48650Y-54275D02*
X57850Y-54275D01*
X59150Y-54275D02*
X63225Y-54275D01*
X21275Y-54355D02*
X35612Y-54355D01*
X36387Y-54355D02*
X41612Y-54355D01*
X42387Y-54355D02*
X47225Y-54355D01*
X48650Y-54355D02*
X57850Y-54355D01*
X59150Y-54355D02*
X63225Y-54355D01*
X21275Y-54435D02*
X35692Y-54435D01*
X36307Y-54435D02*
X41692Y-54435D01*
X42307Y-54435D02*
X47145Y-54435D01*
X48650Y-54435D02*
X57850Y-54435D01*
X59150Y-54435D02*
X63225Y-54435D01*
X21275Y-54515D02*
X28814Y-54515D01*
X29172Y-54515D02*
X35799Y-54515D01*
X36203Y-54515D02*
X41799Y-54515D01*
X42203Y-54515D02*
X47065Y-54515D01*
X48647Y-54515D02*
X50799Y-54515D01*
X51202Y-54515D02*
X53799Y-54515D01*
X54202Y-54515D02*
X57850Y-54515D01*
X59150Y-54515D02*
X63225Y-54515D01*
X21275Y-54595D02*
X28722Y-54595D01*
X29279Y-54595D02*
X35663Y-54595D01*
X36338Y-54595D02*
X38868Y-54595D01*
X39133Y-54595D02*
X41663Y-54595D01*
X42338Y-54595D02*
X46985Y-54595D01*
X48631Y-54595D02*
X50663Y-54595D01*
X51338Y-54595D02*
X53663Y-54595D01*
X54338Y-54595D02*
X57850Y-54595D01*
X59150Y-54595D02*
X63225Y-54595D01*
X21275Y-54675D02*
X28746Y-54675D01*
X29254Y-54675D02*
X35583Y-54675D01*
X36418Y-54675D02*
X38724Y-54675D01*
X39276Y-54675D02*
X41583Y-54675D01*
X42418Y-54675D02*
X46905Y-54675D01*
X48615Y-54675D02*
X50583Y-54675D01*
X51418Y-54675D02*
X53583Y-54675D01*
X54418Y-54675D02*
X57850Y-54675D01*
X59150Y-54675D02*
X63225Y-54675D01*
X21275Y-54755D02*
X28541Y-54755D01*
X28684Y-54755D02*
X28826Y-54755D01*
X29174Y-54755D02*
X29316Y-54755D01*
X29461Y-54755D02*
X35534Y-54755D01*
X36467Y-54755D02*
X38644Y-54755D01*
X39663Y-54755D02*
X41534Y-54755D01*
X42467Y-54755D02*
X46825Y-54755D01*
X48596Y-54755D02*
X50534Y-54755D01*
X51467Y-54755D02*
X53534Y-54755D01*
X54467Y-54755D02*
X57850Y-54755D01*
X59150Y-54755D02*
X63225Y-54755D01*
X21275Y-54835D02*
X28513Y-54835D01*
X28764Y-54835D02*
X28906Y-54835D01*
X29094Y-54835D02*
X29236Y-54835D01*
X29494Y-54835D02*
X35500Y-54835D01*
X36500Y-54835D02*
X38609Y-54835D01*
X39759Y-54835D02*
X41500Y-54835D01*
X42500Y-54835D02*
X46745Y-54835D01*
X48543Y-54835D02*
X50500Y-54835D01*
X51500Y-54835D02*
X53500Y-54835D01*
X54500Y-54835D02*
X57850Y-54835D01*
X59150Y-54835D02*
X63225Y-54835D01*
X21275Y-54915D02*
X28485Y-54915D01*
X28844Y-54915D02*
X28986Y-54915D01*
X29014Y-54915D02*
X29156Y-54915D01*
X29511Y-54915D02*
X35475Y-54915D01*
X36525Y-54915D02*
X38575Y-54915D01*
X39839Y-54915D02*
X41475Y-54915D01*
X42525Y-54915D02*
X46665Y-54915D01*
X48490Y-54915D02*
X50475Y-54915D01*
X51525Y-54915D02*
X53475Y-54915D01*
X54525Y-54915D02*
X57850Y-54915D01*
X59150Y-54915D02*
X63225Y-54915D01*
X21275Y-54995D02*
X28484Y-54995D01*
X28924Y-54995D02*
X29076Y-54995D01*
X29515Y-54995D02*
X35475Y-54995D01*
X36525Y-54995D02*
X38575Y-54995D01*
X39919Y-54995D02*
X41475Y-54995D01*
X42525Y-54995D02*
X46585Y-54995D01*
X48423Y-54995D02*
X50475Y-54995D01*
X51525Y-54995D02*
X53475Y-54995D01*
X54525Y-54995D02*
X57850Y-54995D01*
X59150Y-54995D02*
X63225Y-54995D01*
X21275Y-55075D02*
X28489Y-55075D01*
X28854Y-55075D02*
X28996Y-55075D01*
X29004Y-55075D02*
X29146Y-55075D01*
X29518Y-55075D02*
X35475Y-55075D01*
X36525Y-55075D02*
X38575Y-55075D01*
X39999Y-55075D02*
X41475Y-55075D01*
X42525Y-55075D02*
X46505Y-55075D01*
X48343Y-55075D02*
X50475Y-55075D01*
X51525Y-55075D02*
X53475Y-55075D01*
X54525Y-55075D02*
X57850Y-55075D01*
X59150Y-55075D02*
X63225Y-55075D01*
X21275Y-55155D02*
X28502Y-55155D01*
X28774Y-55155D02*
X28916Y-55155D01*
X29084Y-55155D02*
X29226Y-55155D01*
X29490Y-55155D02*
X35496Y-55155D01*
X36504Y-55155D02*
X38604Y-55155D01*
X40079Y-55155D02*
X41496Y-55155D01*
X42504Y-55155D02*
X46425Y-55155D01*
X48263Y-55155D02*
X50496Y-55155D01*
X51504Y-55155D02*
X53496Y-55155D01*
X54504Y-55155D02*
X57850Y-55155D01*
X59150Y-55155D02*
X63225Y-55155D01*
X21275Y-55235D02*
X28534Y-55235D01*
X28694Y-55235D02*
X28836Y-55235D01*
X29164Y-55235D02*
X29306Y-55235D01*
X29463Y-55235D02*
X35529Y-55235D01*
X36471Y-55235D02*
X38636Y-55235D01*
X40159Y-55235D02*
X41529Y-55235D01*
X42471Y-55235D02*
X46345Y-55235D01*
X48183Y-55235D02*
X50529Y-55235D01*
X51471Y-55235D02*
X53529Y-55235D01*
X54471Y-55235D02*
X57850Y-55235D01*
X59150Y-55235D02*
X63225Y-55235D01*
X21275Y-55315D02*
X28756Y-55315D01*
X29244Y-55315D02*
X35572Y-55315D01*
X36427Y-55315D02*
X38714Y-55315D01*
X39285Y-55315D02*
X39391Y-55315D01*
X40239Y-55315D02*
X41572Y-55315D01*
X42427Y-55315D02*
X46265Y-55315D01*
X48103Y-55315D02*
X50572Y-55315D01*
X51427Y-55315D02*
X53572Y-55315D01*
X54427Y-55315D02*
X57850Y-55315D01*
X59150Y-55315D02*
X63225Y-55315D01*
X21275Y-55395D02*
X28718Y-55395D01*
X29281Y-55395D02*
X35652Y-55395D01*
X36347Y-55395D02*
X38843Y-55395D01*
X39157Y-55395D02*
X39471Y-55395D01*
X40319Y-55395D02*
X41652Y-55395D01*
X42347Y-55395D02*
X46185Y-55395D01*
X48023Y-55395D02*
X50652Y-55395D01*
X51347Y-55395D02*
X53652Y-55395D01*
X54347Y-55395D02*
X57850Y-55395D01*
X59150Y-55395D02*
X63225Y-55395D01*
X21275Y-55475D02*
X28798Y-55475D01*
X29209Y-55475D02*
X29896Y-55475D01*
X30105Y-55475D02*
X35774Y-55475D01*
X36223Y-55475D02*
X39551Y-55475D01*
X40399Y-55475D02*
X41774Y-55475D01*
X42223Y-55475D02*
X46105Y-55475D01*
X47943Y-55475D02*
X50774Y-55475D01*
X51224Y-55475D02*
X53774Y-55475D01*
X54224Y-55475D02*
X57850Y-55475D01*
X59150Y-55475D02*
X63225Y-55475D01*
X21275Y-55555D02*
X28732Y-55555D01*
X29269Y-55555D02*
X29703Y-55555D01*
X30298Y-55555D02*
X35703Y-55555D01*
X36298Y-55555D02*
X39631Y-55555D01*
X40479Y-55555D02*
X41703Y-55555D01*
X42298Y-55555D02*
X45232Y-55555D01*
X45769Y-55555D02*
X46030Y-55555D01*
X47863Y-55555D02*
X57850Y-55555D01*
X59150Y-55555D02*
X63225Y-55555D01*
X21275Y-55635D02*
X28712Y-55635D01*
X29289Y-55635D02*
X29623Y-55635D01*
X30378Y-55635D02*
X35623Y-55635D01*
X36378Y-55635D02*
X39711Y-55635D01*
X40559Y-55635D02*
X41623Y-55635D01*
X42378Y-55635D02*
X45212Y-55635D01*
X45789Y-55635D02*
X45976Y-55635D01*
X47783Y-55635D02*
X57850Y-55635D01*
X59150Y-55635D02*
X63225Y-55635D01*
X21275Y-55715D02*
X28620Y-55715D01*
X28644Y-55715D02*
X28786Y-55715D01*
X29214Y-55715D02*
X29356Y-55715D01*
X29381Y-55715D02*
X29550Y-55715D01*
X30450Y-55715D02*
X35550Y-55715D01*
X36450Y-55715D02*
X39791Y-55715D01*
X42450Y-55715D02*
X45120Y-55715D01*
X45144Y-55715D02*
X45286Y-55715D01*
X45714Y-55715D02*
X45856Y-55715D01*
X45881Y-55715D02*
X45923Y-55715D01*
X47703Y-55715D02*
X57850Y-55715D01*
X59150Y-55715D02*
X63225Y-55715D01*
X21275Y-55795D02*
X28527Y-55795D01*
X28724Y-55795D02*
X28866Y-55795D01*
X29134Y-55795D02*
X29276Y-55795D01*
X29478Y-55795D02*
X29516Y-55795D01*
X30484Y-55795D02*
X35517Y-55795D01*
X36484Y-55795D02*
X39871Y-55795D01*
X42484Y-55795D02*
X45027Y-55795D01*
X45224Y-55795D02*
X45366Y-55795D01*
X45634Y-55795D02*
X45776Y-55795D01*
X47623Y-55795D02*
X57850Y-55795D01*
X59150Y-55795D02*
X63225Y-55795D01*
X21275Y-55875D02*
X28499Y-55875D01*
X28804Y-55875D02*
X28946Y-55875D01*
X29054Y-55875D02*
X29196Y-55875D01*
X30517Y-55875D02*
X35484Y-55875D01*
X36517Y-55875D02*
X39951Y-55875D01*
X42517Y-55875D02*
X44999Y-55875D01*
X45304Y-55875D02*
X45446Y-55875D01*
X45554Y-55875D02*
X45696Y-55875D01*
X47543Y-55875D02*
X57850Y-55875D01*
X59150Y-55875D02*
X63225Y-55875D01*
X21275Y-55955D02*
X28482Y-55955D01*
X28884Y-55955D02*
X29116Y-55955D01*
X30525Y-55955D02*
X31801Y-55955D01*
X32200Y-55955D02*
X32800Y-55955D01*
X33200Y-55955D02*
X35475Y-55955D01*
X36525Y-55955D02*
X40031Y-55955D01*
X42525Y-55955D02*
X44982Y-55955D01*
X45384Y-55955D02*
X45616Y-55955D01*
X47463Y-55955D02*
X57850Y-55955D01*
X59150Y-55955D02*
X63225Y-55955D01*
X21275Y-56035D02*
X28486Y-56035D01*
X28894Y-56035D02*
X29106Y-56035D01*
X30525Y-56035D02*
X31645Y-56035D01*
X32355Y-56035D02*
X32645Y-56035D01*
X33355Y-56035D02*
X35475Y-56035D01*
X36525Y-56035D02*
X40111Y-56035D01*
X42525Y-56035D02*
X44986Y-56035D01*
X45394Y-56035D02*
X45606Y-56035D01*
X47454Y-56035D02*
X57850Y-56035D01*
X59150Y-56035D02*
X63225Y-56035D01*
X21275Y-56115D02*
X28491Y-56115D01*
X28814Y-56115D02*
X28956Y-56115D01*
X29044Y-56115D02*
X29186Y-56115D01*
X30520Y-56115D02*
X31565Y-56115D01*
X32435Y-56115D02*
X32565Y-56115D01*
X33435Y-56115D02*
X35479Y-56115D01*
X36520Y-56115D02*
X40191Y-56115D01*
X42520Y-56115D02*
X44991Y-56115D01*
X45314Y-56115D02*
X45456Y-56115D01*
X45544Y-56115D02*
X45686Y-56115D01*
X47534Y-56115D02*
X57850Y-56115D01*
X59150Y-56115D02*
X63225Y-56115D01*
X21275Y-56195D02*
X28518Y-56195D01*
X28734Y-56195D02*
X28876Y-56195D01*
X29124Y-56195D02*
X29266Y-56195D01*
X29476Y-56195D02*
X29512Y-56195D01*
X30487Y-56195D02*
X31499Y-56195D01*
X33502Y-56195D02*
X35512Y-56195D01*
X36487Y-56195D02*
X40271Y-56195D01*
X42487Y-56195D02*
X45018Y-56195D01*
X45234Y-56195D02*
X45376Y-56195D01*
X45624Y-56195D02*
X45766Y-56195D01*
X47614Y-56195D02*
X57850Y-56195D01*
X59150Y-56195D02*
X63225Y-56195D01*
X21275Y-56275D02*
X28579Y-56275D01*
X28654Y-56275D02*
X28796Y-56275D01*
X29204Y-56275D02*
X29346Y-56275D01*
X29420Y-56275D02*
X29545Y-56275D01*
X30454Y-56275D02*
X31466Y-56275D01*
X33535Y-56275D02*
X35545Y-56275D01*
X36454Y-56275D02*
X40382Y-56275D01*
X42454Y-56275D02*
X45079Y-56275D01*
X45154Y-56275D02*
X45296Y-56275D01*
X45704Y-56275D02*
X45846Y-56275D01*
X45916Y-56275D02*
X45916Y-56275D01*
X47694Y-56275D02*
X57850Y-56275D01*
X59150Y-56275D02*
X63225Y-56275D01*
X21275Y-56355D02*
X28716Y-56355D01*
X29284Y-56355D02*
X29612Y-56355D01*
X30387Y-56355D02*
X31433Y-56355D01*
X33568Y-56355D02*
X35612Y-56355D01*
X36387Y-56355D02*
X41612Y-56355D01*
X42387Y-56355D02*
X45216Y-56355D01*
X45784Y-56355D02*
X45969Y-56355D01*
X47774Y-56355D02*
X57850Y-56355D01*
X59150Y-56355D02*
X63225Y-56355D01*
X21275Y-56435D02*
X28728Y-56435D01*
X29271Y-56435D02*
X29692Y-56435D01*
X30307Y-56435D02*
X31420Y-56435D01*
X33580Y-56435D02*
X35692Y-56435D01*
X36307Y-56435D02*
X41692Y-56435D01*
X42307Y-56435D02*
X45228Y-56435D01*
X45771Y-56435D02*
X46023Y-56435D01*
X47854Y-56435D02*
X56316Y-56435D01*
X56668Y-56435D02*
X57850Y-56435D01*
X59150Y-56435D02*
X63225Y-56435D01*
X21275Y-56515D02*
X28914Y-56515D01*
X29000Y-56515D02*
X29870Y-56515D01*
X30128Y-56515D02*
X31420Y-56515D01*
X33580Y-56515D02*
X35799Y-56515D01*
X36203Y-56515D02*
X41799Y-56515D01*
X42203Y-56515D02*
X45414Y-56515D01*
X45500Y-56515D02*
X46095Y-56515D01*
X47934Y-56515D02*
X56181Y-56515D01*
X56820Y-56515D02*
X57850Y-56515D01*
X59150Y-56515D02*
X63225Y-56515D01*
X21275Y-56595D02*
X31420Y-56595D01*
X33580Y-56595D02*
X35663Y-56595D01*
X36338Y-56595D02*
X38868Y-56595D01*
X39133Y-56595D02*
X41663Y-56595D01*
X42338Y-56595D02*
X46175Y-56595D01*
X48014Y-56595D02*
X56166Y-56595D01*
X56834Y-56595D02*
X57850Y-56595D01*
X59150Y-56595D02*
X63225Y-56595D01*
X21275Y-56675D02*
X31444Y-56675D01*
X33555Y-56675D02*
X35583Y-56675D01*
X36418Y-56675D02*
X38724Y-56675D01*
X39276Y-56675D02*
X41583Y-56675D01*
X42418Y-56675D02*
X46255Y-56675D01*
X48094Y-56675D02*
X56032Y-56675D01*
X56104Y-56675D02*
X56246Y-56675D01*
X56754Y-56675D02*
X56896Y-56675D01*
X56968Y-56675D02*
X57850Y-56675D01*
X59150Y-56675D02*
X63225Y-56675D01*
X21275Y-56755D02*
X31477Y-56755D01*
X33521Y-56755D02*
X35534Y-56755D01*
X36467Y-56755D02*
X38644Y-56755D01*
X42467Y-56755D02*
X46335Y-56755D01*
X48174Y-56755D02*
X55964Y-56755D01*
X56184Y-56755D02*
X56326Y-56755D01*
X56674Y-56755D02*
X56816Y-56755D01*
X57041Y-56755D02*
X57850Y-56755D01*
X59150Y-56755D02*
X63225Y-56755D01*
X21275Y-56835D02*
X31515Y-56835D01*
X32485Y-56835D02*
X32515Y-56835D01*
X33485Y-56835D02*
X35500Y-56835D01*
X36500Y-56835D02*
X38609Y-56835D01*
X42500Y-56835D02*
X46415Y-56835D01*
X48255Y-56835D02*
X55935Y-56835D01*
X56264Y-56835D02*
X56406Y-56835D01*
X56594Y-56835D02*
X56736Y-56835D01*
X57074Y-56835D02*
X57850Y-56835D01*
X59150Y-56835D02*
X63225Y-56835D01*
X21275Y-56915D02*
X31595Y-56915D01*
X32405Y-56915D02*
X32595Y-56915D01*
X33405Y-56915D02*
X35475Y-56915D01*
X36525Y-56915D02*
X38575Y-56915D01*
X42525Y-56915D02*
X46495Y-56915D01*
X48335Y-56915D02*
X55907Y-56915D01*
X56344Y-56915D02*
X56486Y-56915D01*
X56514Y-56915D02*
X56656Y-56915D01*
X57085Y-56915D02*
X57850Y-56915D01*
X59150Y-56915D02*
X63225Y-56915D01*
X21275Y-56995D02*
X31680Y-56995D01*
X32320Y-56995D02*
X32680Y-56995D01*
X33320Y-56995D02*
X35475Y-56995D01*
X36525Y-56995D02*
X38575Y-56995D01*
X42525Y-56995D02*
X46575Y-56995D01*
X48415Y-56995D02*
X55911Y-56995D01*
X56424Y-56995D02*
X56576Y-56995D01*
X57089Y-56995D02*
X57850Y-56995D01*
X59150Y-56995D02*
X63225Y-56995D01*
X21275Y-57075D02*
X31872Y-57075D01*
X32127Y-57075D02*
X32872Y-57075D01*
X33127Y-57075D02*
X35475Y-57075D01*
X36525Y-57075D02*
X38575Y-57075D01*
X42525Y-57075D02*
X46655Y-57075D01*
X48495Y-57075D02*
X55914Y-57075D01*
X56354Y-57075D02*
X56496Y-57075D01*
X56504Y-57075D02*
X56646Y-57075D01*
X57093Y-57075D02*
X57850Y-57075D01*
X59150Y-57075D02*
X63225Y-57075D01*
X21275Y-57155D02*
X35496Y-57155D01*
X36504Y-57155D02*
X38604Y-57155D01*
X42504Y-57155D02*
X46735Y-57155D01*
X48575Y-57155D02*
X55922Y-57155D01*
X56274Y-57155D02*
X56416Y-57155D01*
X56584Y-57155D02*
X56726Y-57155D01*
X57069Y-57155D02*
X57850Y-57155D01*
X59150Y-57155D02*
X63225Y-57155D01*
X21275Y-57235D02*
X35529Y-57235D01*
X36471Y-57235D02*
X38636Y-57235D01*
X42471Y-57235D02*
X46815Y-57235D01*
X48655Y-57235D02*
X55955Y-57235D01*
X56194Y-57235D02*
X56336Y-57235D01*
X56664Y-57235D02*
X56806Y-57235D01*
X57040Y-57235D02*
X57850Y-57235D01*
X59150Y-57235D02*
X63225Y-57235D01*
X21275Y-57315D02*
X35572Y-57315D01*
X36427Y-57315D02*
X38714Y-57315D01*
X39286Y-57315D02*
X41572Y-57315D01*
X42427Y-57315D02*
X46895Y-57315D01*
X48735Y-57315D02*
X56002Y-57315D01*
X56114Y-57315D02*
X56256Y-57315D01*
X56744Y-57315D02*
X56886Y-57315D01*
X56998Y-57315D02*
X57850Y-57315D01*
X59150Y-57315D02*
X63225Y-57315D01*
X21275Y-57395D02*
X35652Y-57395D01*
X36347Y-57395D02*
X38843Y-57395D01*
X39157Y-57395D02*
X41652Y-57395D01*
X42347Y-57395D02*
X46975Y-57395D01*
X48815Y-57395D02*
X56176Y-57395D01*
X56824Y-57395D02*
X57850Y-57395D01*
X59150Y-57395D02*
X63225Y-57395D01*
X21275Y-57475D02*
X35774Y-57475D01*
X36224Y-57475D02*
X41774Y-57475D01*
X42224Y-57475D02*
X47055Y-57475D01*
X48895Y-57475D02*
X56177Y-57475D01*
X56822Y-57475D02*
X57850Y-57475D01*
X59150Y-57475D02*
X63225Y-57475D01*
X21275Y-57555D02*
X47135Y-57555D01*
X48975Y-57555D02*
X56304Y-57555D01*
X56708Y-57555D02*
X57850Y-57555D01*
X59150Y-57555D02*
X63225Y-57555D01*
X21275Y-57635D02*
X47215Y-57635D01*
X49055Y-57635D02*
X57850Y-57635D01*
X59150Y-57635D02*
X63225Y-57635D01*
X21275Y-57715D02*
X47295Y-57715D01*
X49135Y-57715D02*
X57850Y-57715D01*
X59150Y-57715D02*
X63225Y-57715D01*
X21275Y-57795D02*
X47375Y-57795D01*
X49215Y-57795D02*
X57785Y-57795D01*
X59150Y-57795D02*
X63225Y-57795D01*
X21275Y-57875D02*
X47455Y-57875D01*
X49295Y-57875D02*
X57705Y-57875D01*
X59150Y-57875D02*
X63225Y-57875D01*
X21275Y-57955D02*
X47535Y-57955D01*
X49375Y-57955D02*
X57625Y-57955D01*
X59150Y-57955D02*
X63225Y-57955D01*
X21275Y-58035D02*
X47615Y-58035D01*
X49455Y-58035D02*
X57545Y-58035D01*
X59142Y-58035D02*
X63225Y-58035D01*
X21275Y-58115D02*
X47695Y-58115D01*
X49535Y-58115D02*
X57465Y-58115D01*
X59126Y-58115D02*
X63225Y-58115D01*
X21275Y-58195D02*
X47775Y-58195D01*
X49615Y-58195D02*
X57385Y-58195D01*
X59111Y-58195D02*
X63225Y-58195D01*
X21275Y-58275D02*
X47855Y-58275D01*
X49695Y-58275D02*
X57305Y-58275D01*
X59083Y-58275D02*
X63225Y-58275D01*
X21275Y-58355D02*
X47935Y-58355D01*
X49775Y-58355D02*
X57225Y-58355D01*
X59030Y-58355D02*
X63225Y-58355D01*
X21275Y-58435D02*
X48015Y-58435D01*
X49855Y-58435D02*
X57145Y-58435D01*
X58976Y-58435D02*
X63225Y-58435D01*
X21275Y-58515D02*
X28799Y-58515D01*
X29202Y-58515D02*
X29814Y-58515D01*
X30172Y-58515D02*
X48095Y-58515D01*
X49935Y-58515D02*
X57065Y-58515D01*
X58903Y-58515D02*
X63225Y-58515D01*
X21275Y-58595D02*
X28663Y-58595D01*
X29338Y-58595D02*
X29722Y-58595D01*
X30279Y-58595D02*
X48175Y-58595D01*
X50015Y-58595D02*
X56985Y-58595D01*
X58823Y-58595D02*
X63225Y-58595D01*
X21275Y-58675D02*
X28582Y-58675D01*
X29418Y-58675D02*
X29746Y-58675D01*
X30254Y-58675D02*
X48255Y-58675D01*
X58743Y-58675D02*
X63225Y-58675D01*
X21275Y-58755D02*
X28534Y-58755D01*
X29467Y-58755D02*
X29541Y-58755D01*
X29684Y-58755D02*
X29826Y-58755D01*
X30174Y-58755D02*
X30316Y-58755D01*
X30461Y-58755D02*
X48335Y-58755D01*
X58663Y-58755D02*
X63225Y-58755D01*
X21275Y-58835D02*
X28500Y-58835D01*
X29500Y-58835D02*
X29512Y-58835D01*
X29764Y-58835D02*
X29906Y-58835D01*
X30094Y-58835D02*
X30236Y-58835D01*
X30494Y-58835D02*
X48415Y-58835D01*
X58583Y-58835D02*
X63225Y-58835D01*
X21275Y-58915D02*
X28475Y-58915D01*
X29844Y-58915D02*
X29986Y-58915D01*
X30014Y-58915D02*
X30156Y-58915D01*
X30511Y-58915D02*
X48495Y-58915D01*
X58503Y-58915D02*
X63225Y-58915D01*
X21275Y-58995D02*
X28475Y-58995D01*
X29924Y-58995D02*
X30076Y-58995D01*
X30515Y-58995D02*
X31704Y-58995D01*
X32296Y-58995D02*
X32704Y-58995D01*
X33296Y-58995D02*
X48575Y-58995D01*
X58423Y-58995D02*
X63225Y-58995D01*
X21275Y-59075D02*
X28475Y-59075D01*
X29854Y-59075D02*
X29996Y-59075D01*
X30004Y-59075D02*
X30146Y-59075D01*
X30518Y-59075D02*
X31605Y-59075D01*
X32395Y-59075D02*
X32605Y-59075D01*
X33395Y-59075D02*
X48655Y-59075D01*
X58343Y-59075D02*
X63225Y-59075D01*
X21275Y-59155D02*
X28496Y-59155D01*
X29774Y-59155D02*
X29916Y-59155D01*
X30084Y-59155D02*
X30226Y-59155D01*
X30490Y-59155D02*
X31525Y-59155D01*
X32475Y-59155D02*
X32525Y-59155D01*
X33475Y-59155D02*
X48735Y-59155D01*
X58264Y-59155D02*
X63225Y-59155D01*
X21275Y-59235D02*
X28529Y-59235D01*
X29470Y-59235D02*
X29534Y-59235D01*
X29694Y-59235D02*
X29836Y-59235D01*
X30164Y-59235D02*
X30306Y-59235D01*
X30463Y-59235D02*
X31483Y-59235D01*
X33519Y-59235D02*
X48815Y-59235D01*
X58184Y-59235D02*
X63225Y-59235D01*
X21275Y-59315D02*
X28572Y-59315D01*
X29427Y-59315D02*
X29756Y-59315D01*
X30244Y-59315D02*
X31449Y-59315D01*
X33552Y-59315D02*
X48895Y-59315D01*
X58104Y-59315D02*
X63225Y-59315D01*
X21275Y-59395D02*
X28652Y-59395D01*
X29347Y-59395D02*
X29718Y-59395D01*
X30281Y-59395D02*
X31420Y-59395D01*
X33580Y-59395D02*
X48975Y-59395D01*
X58024Y-59395D02*
X63225Y-59395D01*
X21275Y-59475D02*
X28774Y-59475D01*
X29224Y-59475D02*
X29799Y-59475D01*
X30210Y-59475D02*
X31420Y-59475D01*
X33580Y-59475D02*
X40896Y-59475D01*
X41105Y-59475D02*
X49055Y-59475D01*
X57944Y-59475D02*
X63225Y-59475D01*
X21275Y-59555D02*
X31420Y-59555D01*
X33580Y-59555D02*
X39543Y-59555D01*
X40457Y-59555D02*
X40703Y-59555D01*
X41298Y-59555D02*
X49135Y-59555D01*
X57864Y-59555D02*
X63225Y-59555D01*
X21275Y-59635D02*
X31428Y-59635D01*
X33572Y-59635D02*
X39493Y-59635D01*
X40508Y-59635D02*
X40623Y-59635D01*
X41378Y-59635D02*
X49215Y-59635D01*
X57784Y-59635D02*
X63225Y-59635D01*
X21275Y-59715D02*
X31461Y-59715D01*
X33538Y-59715D02*
X39476Y-59715D01*
X40524Y-59715D02*
X40550Y-59715D01*
X41450Y-59715D02*
X49297Y-59715D01*
X57702Y-59715D02*
X63225Y-59715D01*
X21275Y-59795D02*
X31494Y-59795D01*
X33505Y-59795D02*
X39476Y-59795D01*
X41484Y-59795D02*
X49417Y-59795D01*
X57582Y-59795D02*
X63225Y-59795D01*
X21275Y-59875D02*
X31555Y-59875D01*
X32445Y-59875D02*
X32555Y-59875D01*
X33445Y-59875D02*
X39476Y-59875D01*
X41517Y-59875D02*
X49622Y-59875D01*
X57379Y-59875D02*
X63225Y-59875D01*
X21275Y-59955D02*
X31635Y-59955D01*
X32365Y-59955D02*
X32635Y-59955D01*
X33365Y-59955D02*
X39476Y-59955D01*
X41525Y-59955D02*
X63225Y-59955D01*
X21275Y-60035D02*
X31776Y-60035D01*
X32223Y-60035D02*
X32776Y-60035D01*
X33223Y-60035D02*
X39476Y-60035D01*
X41525Y-60035D02*
X63225Y-60035D01*
X21275Y-60115D02*
X39476Y-60115D01*
X41520Y-60115D02*
X63225Y-60115D01*
X21275Y-60195D02*
X39476Y-60195D01*
X41487Y-60195D02*
X63225Y-60195D01*
X21275Y-60275D02*
X39476Y-60275D01*
X40524Y-60275D02*
X40545Y-60275D01*
X41454Y-60275D02*
X63225Y-60275D01*
X21275Y-60355D02*
X39488Y-60355D01*
X40511Y-60355D02*
X40612Y-60355D01*
X41387Y-60355D02*
X63225Y-60355D01*
X21275Y-60435D02*
X39533Y-60435D01*
X40467Y-60435D02*
X40692Y-60435D01*
X41307Y-60435D02*
X63225Y-60435D01*
X21275Y-60515D02*
X39653Y-60515D01*
X40345Y-60515D02*
X40870Y-60515D01*
X41128Y-60515D02*
X63225Y-60515D01*
X21275Y-60595D02*
X63225Y-60595D01*
X21275Y-60675D02*
X63225Y-60675D01*
X21275Y-60755D02*
X63225Y-60755D01*
X21275Y-60835D02*
X63225Y-60835D01*
X21275Y-60915D02*
X63225Y-60915D01*
X21275Y-60995D02*
X63225Y-60995D01*
X21275Y-61075D02*
X63225Y-61075D01*
X21275Y-61155D02*
X63225Y-61155D01*
X63225Y-61225D02*
X63225Y-28275D01*
X45906Y-28275D01*
X46676Y-28594D01*
X47308Y-29227D01*
X47650Y-30054D01*
X47649Y-30949D01*
X47306Y-31776D01*
X46673Y-32408D01*
X46050Y-32665D01*
X46050Y-33630D01*
X47395Y-34975D01*
X47395Y-34525D01*
X47202Y-34445D01*
X47055Y-34297D01*
X46975Y-34104D01*
X46975Y-33895D01*
X47055Y-33702D01*
X47203Y-33555D01*
X47396Y-33475D01*
X47605Y-33475D01*
X47798Y-33555D01*
X47945Y-33703D01*
X48006Y-33851D01*
X48048Y-33733D01*
X48139Y-33710D01*
X48429Y-34000D01*
X48139Y-34290D01*
X48048Y-34267D01*
X48003Y-34157D01*
X47945Y-34298D01*
X47797Y-34445D01*
X47604Y-34525D01*
X47395Y-34525D01*
X47395Y-34975D01*
X47456Y-35037D01*
X47460Y-35040D01*
X47601Y-35251D01*
X47650Y-35499D01*
X47649Y-35499D01*
X47650Y-35500D01*
X47650Y-36730D01*
X48456Y-37537D01*
X48460Y-37540D01*
X48601Y-37751D01*
X48650Y-38000D01*
X48650Y-54500D01*
X48601Y-54749D01*
X48460Y-54960D01*
X48456Y-54962D01*
X47419Y-56000D01*
X48206Y-56787D01*
X48210Y-56790D01*
X49881Y-58461D01*
X50019Y-58600D01*
X50895Y-58600D01*
X50895Y-55525D01*
X50702Y-55445D01*
X50555Y-55297D01*
X50475Y-55104D01*
X50475Y-54895D01*
X50555Y-54702D01*
X50703Y-54555D01*
X50895Y-54475D01*
X50895Y-53025D01*
X50702Y-52945D01*
X50555Y-52797D01*
X50475Y-52604D01*
X50475Y-52395D01*
X50555Y-52202D01*
X50703Y-52055D01*
X50895Y-51975D01*
X50895Y-50525D01*
X50702Y-50445D01*
X50555Y-50297D01*
X50475Y-50104D01*
X50475Y-49895D01*
X50555Y-49702D01*
X50703Y-49555D01*
X50895Y-49475D01*
X50895Y-49275D01*
X50702Y-49195D01*
X50555Y-49047D01*
X50475Y-48854D01*
X50475Y-48645D01*
X50555Y-48452D01*
X50703Y-48305D01*
X50895Y-48225D01*
X50895Y-48025D01*
X50702Y-47945D01*
X50555Y-47797D01*
X50475Y-47604D01*
X50475Y-47395D01*
X50555Y-47202D01*
X50703Y-47055D01*
X50895Y-46975D01*
X50895Y-46775D01*
X50702Y-46695D01*
X50555Y-46547D01*
X50475Y-46354D01*
X50475Y-46145D01*
X50555Y-45952D01*
X50703Y-45805D01*
X50888Y-45728D01*
X50888Y-36600D01*
X50699Y-36599D01*
X50600Y-36599D01*
X50509Y-36561D01*
X50439Y-36491D01*
X50414Y-36432D01*
X50339Y-36508D01*
X50119Y-36599D01*
X49881Y-36599D01*
X49661Y-36508D01*
X49499Y-36347D01*
X49339Y-36508D01*
X49119Y-36599D01*
X48881Y-36599D01*
X48661Y-36508D01*
X48492Y-36339D01*
X48401Y-36119D01*
X48401Y-35881D01*
X48426Y-35820D01*
X48426Y-34519D01*
X48233Y-34452D01*
X48210Y-34361D01*
X48500Y-34071D01*
X48500Y-33929D01*
X48210Y-33639D01*
X48233Y-33548D01*
X48370Y-33492D01*
X48574Y-33481D01*
X48767Y-33548D01*
X48790Y-33639D01*
X48500Y-33929D01*
X48500Y-34071D01*
X48790Y-34361D01*
X48767Y-34452D01*
X48630Y-34508D01*
X48426Y-34519D01*
X48426Y-35820D01*
X48492Y-35661D01*
X48661Y-35492D01*
X48861Y-35409D01*
X48861Y-34290D01*
X48571Y-34000D01*
X48861Y-33710D01*
X48952Y-33733D01*
X49008Y-33870D01*
X49019Y-34074D01*
X48952Y-34267D01*
X48861Y-34290D01*
X48861Y-35409D01*
X48881Y-35401D01*
X49119Y-35401D01*
X49339Y-35492D01*
X49500Y-35652D01*
X49661Y-35492D01*
X49675Y-35486D01*
X49675Y-32024D01*
X49584Y-31986D01*
X49514Y-31916D01*
X49476Y-31824D01*
X49476Y-31175D01*
X49514Y-31084D01*
X49584Y-31014D01*
X49676Y-30976D01*
X49881Y-30976D01*
X49881Y-30099D01*
X49661Y-30008D01*
X49492Y-29839D01*
X49401Y-29619D01*
X49401Y-29381D01*
X49492Y-29161D01*
X49661Y-28992D01*
X49881Y-28901D01*
X50119Y-28901D01*
X50339Y-28992D01*
X50508Y-29161D01*
X50599Y-29381D01*
X50599Y-29619D01*
X50508Y-29839D01*
X50339Y-30008D01*
X50119Y-30099D01*
X49881Y-30099D01*
X49881Y-30976D01*
X50325Y-30976D01*
X50416Y-31014D01*
X50486Y-31084D01*
X50524Y-31176D01*
X50524Y-31302D01*
X50548Y-31233D01*
X50639Y-31210D01*
X50929Y-31500D01*
X50639Y-31790D01*
X50548Y-31767D01*
X50524Y-31708D01*
X50524Y-31825D01*
X50486Y-31916D01*
X50416Y-31986D01*
X50324Y-32024D01*
X49675Y-32024D01*
X49675Y-35486D01*
X49881Y-35401D01*
X50119Y-35401D01*
X50339Y-35492D01*
X50414Y-35567D01*
X50439Y-35509D01*
X50509Y-35439D01*
X50600Y-35401D01*
X50639Y-35401D01*
X50639Y-33790D01*
X50548Y-33767D01*
X50492Y-33630D01*
X50481Y-33426D01*
X50548Y-33233D01*
X50639Y-33210D01*
X50929Y-33500D01*
X50639Y-33790D01*
X50639Y-35401D01*
X50699Y-35401D01*
X50888Y-35400D01*
X50926Y-35438D01*
X50926Y-34019D01*
X50733Y-33952D01*
X50710Y-33861D01*
X51000Y-33571D01*
X51000Y-33429D01*
X50710Y-33139D01*
X50733Y-33048D01*
X50870Y-32992D01*
X50926Y-32988D01*
X50926Y-32019D01*
X50733Y-31952D01*
X50710Y-31861D01*
X51000Y-31571D01*
X51000Y-31429D01*
X50710Y-31139D01*
X50733Y-31048D01*
X50870Y-30992D01*
X51074Y-30981D01*
X51267Y-31048D01*
X51290Y-31139D01*
X51000Y-31429D01*
X51000Y-31571D01*
X51290Y-31861D01*
X51267Y-31952D01*
X51130Y-32008D01*
X50926Y-32019D01*
X50926Y-32988D01*
X51074Y-32981D01*
X51267Y-33048D01*
X51290Y-33139D01*
X51000Y-33429D01*
X51000Y-33571D01*
X51290Y-33861D01*
X51267Y-33952D01*
X51130Y-34008D01*
X50926Y-34019D01*
X50926Y-35438D01*
X50950Y-35462D01*
X50950Y-35950D01*
X50950Y-36050D01*
X50950Y-36538D01*
X50888Y-36600D01*
X50888Y-45728D01*
X50896Y-45725D01*
X51105Y-45725D01*
X51112Y-45727D01*
X51112Y-36600D01*
X51050Y-36538D01*
X51050Y-36050D01*
X51050Y-35950D01*
X51050Y-35462D01*
X51112Y-35400D01*
X51301Y-35401D01*
X51400Y-35401D01*
X51491Y-35439D01*
X51561Y-35509D01*
X51599Y-35601D01*
X51600Y-35888D01*
X51538Y-35950D01*
X51050Y-35950D01*
X51050Y-36050D01*
X51538Y-36050D01*
X51600Y-36112D01*
X51599Y-36399D01*
X51561Y-36491D01*
X51491Y-36561D01*
X51400Y-36599D01*
X51301Y-36599D01*
X51112Y-36600D01*
X51112Y-45727D01*
X51298Y-45805D01*
X51445Y-45953D01*
X51525Y-46146D01*
X51525Y-46355D01*
X51445Y-46548D01*
X51297Y-46695D01*
X51104Y-46775D01*
X50895Y-46775D01*
X50895Y-46975D01*
X51105Y-46975D01*
X51298Y-47055D01*
X51445Y-47203D01*
X51525Y-47396D01*
X51525Y-47605D01*
X51445Y-47798D01*
X51297Y-47945D01*
X51104Y-48025D01*
X50895Y-48025D01*
X50895Y-48225D01*
X51105Y-48225D01*
X51298Y-48305D01*
X51445Y-48453D01*
X51525Y-48646D01*
X51525Y-48855D01*
X51445Y-49048D01*
X51297Y-49195D01*
X51104Y-49275D01*
X50895Y-49275D01*
X50895Y-49475D01*
X51105Y-49475D01*
X51298Y-49555D01*
X51445Y-49703D01*
X51525Y-49896D01*
X51525Y-50105D01*
X51445Y-50298D01*
X51297Y-50445D01*
X51104Y-50525D01*
X50895Y-50525D01*
X50895Y-51975D01*
X51105Y-51975D01*
X51298Y-52055D01*
X51445Y-52203D01*
X51525Y-52396D01*
X51525Y-52605D01*
X51445Y-52798D01*
X51297Y-52945D01*
X51104Y-53025D01*
X50895Y-53025D01*
X50895Y-54475D01*
X51105Y-54475D01*
X51298Y-54555D01*
X51445Y-54703D01*
X51525Y-54896D01*
X51525Y-55105D01*
X51445Y-55298D01*
X51297Y-55445D01*
X51104Y-55525D01*
X50895Y-55525D01*
X50895Y-58600D01*
X51895Y-58600D01*
X51895Y-34025D01*
X51702Y-33945D01*
X51555Y-33797D01*
X51493Y-33648D01*
X51452Y-33767D01*
X51361Y-33790D01*
X51071Y-33500D01*
X51361Y-33210D01*
X51361Y-31790D01*
X51071Y-31500D01*
X51361Y-31210D01*
X51452Y-31233D01*
X51508Y-31370D01*
X51519Y-31574D01*
X51452Y-31767D01*
X51361Y-31790D01*
X51361Y-33210D01*
X51452Y-33233D01*
X51496Y-33342D01*
X51555Y-33202D01*
X51703Y-33055D01*
X51896Y-32975D01*
X52105Y-32975D01*
X52298Y-33055D01*
X52445Y-33203D01*
X52525Y-33396D01*
X52525Y-33605D01*
X52445Y-33798D01*
X52297Y-33945D01*
X52104Y-34025D01*
X51895Y-34025D01*
X51895Y-58600D01*
X52700Y-58600D01*
X52700Y-41499D01*
X52609Y-41461D01*
X52539Y-41391D01*
X52501Y-41299D01*
X52501Y-37700D01*
X52539Y-37609D01*
X52609Y-37539D01*
X52701Y-37501D01*
X56300Y-37501D01*
X56391Y-37539D01*
X56461Y-37609D01*
X56499Y-37701D01*
X56499Y-41300D01*
X56461Y-41391D01*
X56391Y-41461D01*
X56299Y-41499D01*
X52700Y-41499D01*
X52700Y-58600D01*
X53895Y-58600D01*
X53895Y-55525D01*
X53702Y-55445D01*
X53555Y-55297D01*
X53475Y-55104D01*
X53475Y-54895D01*
X53555Y-54702D01*
X53703Y-54555D01*
X53895Y-54475D01*
X53895Y-53025D01*
X53702Y-52945D01*
X53555Y-52797D01*
X53475Y-52604D01*
X53475Y-52395D01*
X53555Y-52202D01*
X53703Y-52055D01*
X53895Y-51975D01*
X53895Y-50525D01*
X53702Y-50445D01*
X53555Y-50297D01*
X53475Y-50104D01*
X53475Y-49895D01*
X53555Y-49702D01*
X53703Y-49555D01*
X53895Y-49475D01*
X53895Y-49275D01*
X53702Y-49195D01*
X53555Y-49047D01*
X53475Y-48854D01*
X53475Y-48645D01*
X53555Y-48452D01*
X53703Y-48305D01*
X53895Y-48225D01*
X53895Y-48025D01*
X53702Y-47945D01*
X53555Y-47797D01*
X53475Y-47604D01*
X53475Y-47395D01*
X53555Y-47202D01*
X53703Y-47055D01*
X53895Y-46975D01*
X53895Y-46775D01*
X53702Y-46695D01*
X53555Y-46547D01*
X53475Y-46354D01*
X53475Y-46145D01*
X53555Y-45952D01*
X53703Y-45805D01*
X53896Y-45725D01*
X54105Y-45725D01*
X54298Y-45805D01*
X54445Y-45953D01*
X54525Y-46146D01*
X54525Y-46355D01*
X54445Y-46548D01*
X54297Y-46695D01*
X54104Y-46775D01*
X53895Y-46775D01*
X53895Y-46975D01*
X54105Y-46975D01*
X54298Y-47055D01*
X54445Y-47203D01*
X54525Y-47396D01*
X54525Y-47605D01*
X54445Y-47798D01*
X54297Y-47945D01*
X54104Y-48025D01*
X53895Y-48025D01*
X53895Y-48225D01*
X54105Y-48225D01*
X54298Y-48305D01*
X54445Y-48453D01*
X54525Y-48646D01*
X54525Y-48855D01*
X54445Y-49048D01*
X54297Y-49195D01*
X54104Y-49275D01*
X53895Y-49275D01*
X53895Y-49475D01*
X54105Y-49475D01*
X54298Y-49555D01*
X54445Y-49703D01*
X54525Y-49896D01*
X54525Y-50105D01*
X54445Y-50298D01*
X54297Y-50445D01*
X54104Y-50525D01*
X53895Y-50525D01*
X53895Y-51975D01*
X54105Y-51975D01*
X54298Y-52055D01*
X54445Y-52203D01*
X54525Y-52396D01*
X54525Y-52605D01*
X54445Y-52798D01*
X54297Y-52945D01*
X54104Y-53025D01*
X53895Y-53025D01*
X53895Y-54475D01*
X54105Y-54475D01*
X54298Y-54555D01*
X54445Y-54703D01*
X54525Y-54896D01*
X54525Y-55105D01*
X54445Y-55298D01*
X54297Y-55445D01*
X54104Y-55525D01*
X53895Y-55525D01*
X53895Y-58600D01*
X56086Y-58600D01*
X56086Y-57343D01*
X55987Y-57310D01*
X55918Y-57144D01*
X55907Y-56909D01*
X55987Y-56690D01*
X56086Y-56657D01*
X56429Y-57000D01*
X56086Y-57343D01*
X56086Y-58600D01*
X56409Y-58600D01*
X56409Y-57593D01*
X56190Y-57513D01*
X56157Y-57414D01*
X56500Y-57071D01*
X56500Y-56929D01*
X56157Y-56586D01*
X56190Y-56487D01*
X56356Y-56418D01*
X56591Y-56407D01*
X56810Y-56487D01*
X56843Y-56586D01*
X56500Y-56929D01*
X56500Y-57071D01*
X56843Y-57414D01*
X56810Y-57513D01*
X56644Y-57582D01*
X56409Y-57593D01*
X56409Y-58600D01*
X56914Y-58600D01*
X56914Y-57343D01*
X56571Y-57000D01*
X56914Y-56657D01*
X57013Y-56690D01*
X57082Y-56856D01*
X57093Y-57091D01*
X57013Y-57310D01*
X56914Y-57343D01*
X56914Y-58600D01*
X56980Y-58600D01*
X57850Y-57730D01*
X57850Y-45769D01*
X57040Y-44960D01*
X56899Y-44749D01*
X56849Y-44500D01*
X56899Y-44251D01*
X57040Y-44040D01*
X57251Y-43899D01*
X57500Y-43849D01*
X57749Y-43899D01*
X57960Y-44040D01*
X58956Y-45037D01*
X58960Y-45040D01*
X59101Y-45251D01*
X59150Y-45500D01*
X59150Y-58000D01*
X59149Y-58000D01*
X59150Y-58001D01*
X59141Y-58041D01*
X59101Y-58249D01*
X58960Y-58460D01*
X58956Y-58462D01*
X57710Y-59710D01*
X57499Y-59851D01*
X57250Y-59901D01*
X57245Y-59900D01*
X49750Y-59900D01*
X49501Y-59851D01*
X49290Y-59710D01*
X49287Y-59706D01*
X47290Y-57710D01*
X47287Y-57706D01*
X46040Y-56460D01*
X45916Y-56275D01*
X45861Y-56290D01*
X45571Y-56000D01*
X45861Y-55710D01*
X45916Y-55724D01*
X46040Y-55540D01*
X47350Y-54230D01*
X47350Y-50069D01*
X46960Y-50460D01*
X46749Y-50601D01*
X46500Y-50651D01*
X46251Y-50601D01*
X46040Y-50460D01*
X45916Y-50275D01*
X45861Y-50290D01*
X45571Y-50000D01*
X45861Y-49710D01*
X45916Y-49724D01*
X46040Y-49540D01*
X46639Y-48941D01*
X46639Y-44290D01*
X46548Y-44267D01*
X46492Y-44130D01*
X46481Y-43926D01*
X46548Y-43733D01*
X46639Y-43710D01*
X46929Y-44000D01*
X46639Y-44290D01*
X46639Y-48941D01*
X46926Y-48654D01*
X47350Y-48230D01*
X47350Y-44335D01*
X47307Y-44378D01*
X47290Y-44361D01*
X47267Y-44452D01*
X47130Y-44508D01*
X46926Y-44519D01*
X46733Y-44452D01*
X46710Y-44361D01*
X47000Y-44071D01*
X47071Y-44000D01*
X47000Y-43929D01*
X46710Y-43639D01*
X46733Y-43548D01*
X46870Y-43492D01*
X47074Y-43481D01*
X47267Y-43548D01*
X47290Y-43639D01*
X47307Y-43622D01*
X47350Y-43665D01*
X47350Y-38269D01*
X46540Y-37460D01*
X46399Y-37249D01*
X46349Y-37000D01*
X46350Y-36995D01*
X46350Y-35769D01*
X44940Y-34360D01*
X44799Y-34149D01*
X44749Y-33900D01*
X44750Y-33895D01*
X44750Y-32665D01*
X44124Y-32406D01*
X43492Y-31773D01*
X43150Y-30946D01*
X43151Y-30051D01*
X43494Y-29224D01*
X44127Y-28592D01*
X44893Y-28275D01*
X21275Y-28275D01*
X21275Y-61225D01*
X22038Y-61225D01*
X22038Y-51414D01*
X21927Y-51367D01*
X21836Y-51147D01*
X21828Y-50865D01*
X21927Y-50601D01*
X22038Y-50554D01*
X22468Y-50984D01*
X22038Y-51414D01*
X22038Y-61225D01*
X22420Y-61225D01*
X22420Y-51695D01*
X22395Y-51685D01*
X22156Y-51596D01*
X22109Y-51485D01*
X22539Y-51055D01*
X22539Y-50913D01*
X22109Y-50483D01*
X22156Y-50372D01*
X22376Y-50281D01*
X22395Y-50280D01*
X22395Y-49738D01*
X22130Y-49628D01*
X21927Y-49424D01*
X21817Y-49159D01*
X21817Y-48872D01*
X21927Y-48607D01*
X22038Y-48496D01*
X22038Y-43914D01*
X21927Y-43867D01*
X21836Y-43647D01*
X21828Y-43365D01*
X21927Y-43101D01*
X22038Y-43054D01*
X22468Y-43484D01*
X22038Y-43914D01*
X22038Y-48496D01*
X22131Y-48404D01*
X22395Y-48294D01*
X22420Y-48294D01*
X22420Y-44195D01*
X22395Y-44185D01*
X22156Y-44096D01*
X22109Y-43985D01*
X22539Y-43555D01*
X22539Y-43413D01*
X22109Y-42983D01*
X22156Y-42872D01*
X22376Y-42781D01*
X22395Y-42780D01*
X22395Y-42238D01*
X22130Y-42128D01*
X21927Y-41924D01*
X21817Y-41659D01*
X21817Y-41372D01*
X21927Y-41107D01*
X22131Y-40904D01*
X22396Y-40794D01*
X22683Y-40794D01*
X22948Y-40904D01*
X23151Y-41108D01*
X23261Y-41373D01*
X23261Y-41660D01*
X23151Y-41925D01*
X22947Y-42128D01*
X22682Y-42238D01*
X22395Y-42238D01*
X22395Y-42780D01*
X22658Y-42773D01*
X22922Y-42872D01*
X22969Y-42983D01*
X22539Y-43413D01*
X22539Y-43555D01*
X22969Y-43985D01*
X22922Y-44096D01*
X22702Y-44187D01*
X22420Y-44195D01*
X22420Y-48294D01*
X22683Y-48294D01*
X22948Y-48404D01*
X23151Y-48608D01*
X23261Y-48873D01*
X23261Y-49160D01*
X23151Y-49425D01*
X22947Y-49628D01*
X22682Y-49738D01*
X22395Y-49738D01*
X22395Y-50280D01*
X22658Y-50273D01*
X22922Y-50372D01*
X22969Y-50483D01*
X22539Y-50913D01*
X22539Y-51055D01*
X22969Y-51485D01*
X22922Y-51596D01*
X22702Y-51687D01*
X22420Y-51695D01*
X22420Y-61225D01*
X23040Y-61225D01*
X23040Y-51414D01*
X22610Y-50984D01*
X23040Y-50554D01*
X23151Y-50601D01*
X23242Y-50821D01*
X23250Y-51103D01*
X23151Y-51367D01*
X23040Y-51414D01*
X23040Y-61225D01*
X23395Y-61225D01*
X23395Y-46525D01*
X23202Y-46445D01*
X23055Y-46297D01*
X22975Y-46104D01*
X22975Y-45895D01*
X23040Y-45738D01*
X23040Y-43914D01*
X22610Y-43484D01*
X23040Y-43054D01*
X23151Y-43101D01*
X23242Y-43321D01*
X23250Y-43603D01*
X23151Y-43867D01*
X23040Y-43914D01*
X23040Y-45738D01*
X23055Y-45702D01*
X23203Y-45555D01*
X23395Y-45475D01*
X23395Y-39025D01*
X23202Y-38945D01*
X23055Y-38797D01*
X22975Y-38604D01*
X22975Y-38395D01*
X23055Y-38202D01*
X23203Y-38055D01*
X23396Y-37975D01*
X23605Y-37975D01*
X23798Y-38055D01*
X23945Y-38203D01*
X24025Y-38396D01*
X24025Y-38605D01*
X23945Y-38798D01*
X23797Y-38945D01*
X23604Y-39025D01*
X23395Y-39025D01*
X23395Y-45475D01*
X23605Y-45475D01*
X23798Y-45555D01*
X23945Y-45703D01*
X24025Y-45896D01*
X24025Y-46105D01*
X23945Y-46298D01*
X23797Y-46445D01*
X23604Y-46525D01*
X23395Y-46525D01*
X23395Y-61225D01*
X26960Y-61225D01*
X26960Y-51430D01*
X26849Y-51383D01*
X26758Y-51163D01*
X26750Y-50881D01*
X26849Y-50617D01*
X26960Y-50570D01*
X27390Y-51000D01*
X26960Y-51430D01*
X26960Y-61225D01*
X27342Y-61225D01*
X27342Y-51711D01*
X27317Y-51701D01*
X27078Y-51612D01*
X27031Y-51501D01*
X27461Y-51071D01*
X27461Y-50929D01*
X27031Y-50499D01*
X27078Y-50388D01*
X27298Y-50297D01*
X27317Y-50296D01*
X27317Y-49738D01*
X27052Y-49628D01*
X26849Y-49424D01*
X26739Y-49159D01*
X26739Y-48872D01*
X26849Y-48607D01*
X27053Y-48404D01*
X27318Y-48294D01*
X27500Y-48294D01*
X27500Y-47950D01*
X27327Y-47916D01*
X27182Y-47818D01*
X26182Y-46818D01*
X26084Y-46673D01*
X26050Y-46500D01*
X26050Y-46284D01*
X25975Y-46104D01*
X25975Y-45895D01*
X26055Y-45702D01*
X26203Y-45555D01*
X26396Y-45475D01*
X26605Y-45475D01*
X26798Y-45555D01*
X26945Y-45703D01*
X27025Y-45896D01*
X27025Y-46105D01*
X26950Y-46285D01*
X26950Y-46314D01*
X27686Y-47050D01*
X31314Y-47050D01*
X31415Y-46949D01*
X31415Y-45425D01*
X31259Y-45360D01*
X31139Y-45240D01*
X31075Y-45084D01*
X31075Y-44915D01*
X31140Y-44759D01*
X31260Y-44639D01*
X31380Y-44589D01*
X33089Y-42880D01*
X33140Y-42759D01*
X33260Y-42639D01*
X33416Y-42575D01*
X33585Y-42575D01*
X33741Y-42640D01*
X33861Y-42760D01*
X33925Y-42916D01*
X33925Y-43085D01*
X33860Y-43241D01*
X33740Y-43361D01*
X33619Y-43410D01*
X31910Y-45119D01*
X31860Y-45241D01*
X31740Y-45361D01*
X31584Y-45425D01*
X31415Y-45425D01*
X31415Y-46949D01*
X31682Y-46682D01*
X31827Y-46584D01*
X32000Y-46550D01*
X32139Y-46550D01*
X32139Y-45790D01*
X32048Y-45767D01*
X31992Y-45630D01*
X31981Y-45426D01*
X32048Y-45233D01*
X32139Y-45210D01*
X32429Y-45500D01*
X32139Y-45790D01*
X32139Y-46550D01*
X32426Y-46550D01*
X32426Y-46019D01*
X32233Y-45952D01*
X32210Y-45861D01*
X32500Y-45571D01*
X32500Y-45429D01*
X32210Y-45139D01*
X32233Y-45048D01*
X32370Y-44992D01*
X32574Y-44981D01*
X32767Y-45048D01*
X32790Y-45139D01*
X32500Y-45429D01*
X32500Y-45571D01*
X32790Y-45861D01*
X32767Y-45952D01*
X32630Y-46008D01*
X32426Y-46019D01*
X32426Y-46550D01*
X32814Y-46550D01*
X33050Y-46314D01*
X33050Y-45784D01*
X32993Y-45647D01*
X32952Y-45767D01*
X32861Y-45790D01*
X32571Y-45500D01*
X32861Y-45210D01*
X32952Y-45233D01*
X32996Y-45342D01*
X33055Y-45202D01*
X33203Y-45055D01*
X33396Y-44975D01*
X33605Y-44975D01*
X33798Y-45055D01*
X33945Y-45203D01*
X34025Y-45396D01*
X34025Y-45605D01*
X33950Y-45785D01*
X33950Y-46500D01*
X33916Y-46673D01*
X33818Y-46818D01*
X33318Y-47318D01*
X33173Y-47416D01*
X33000Y-47450D01*
X32185Y-47450D01*
X31818Y-47818D01*
X31673Y-47916D01*
X31500Y-47950D01*
X27500Y-47950D01*
X27500Y-48294D01*
X27605Y-48294D01*
X27870Y-48404D01*
X28073Y-48608D01*
X28183Y-48873D01*
X28183Y-49160D01*
X28073Y-49425D01*
X27869Y-49628D01*
X27604Y-49738D01*
X27317Y-49738D01*
X27317Y-50296D01*
X27580Y-50289D01*
X27844Y-50388D01*
X27891Y-50499D01*
X27461Y-50929D01*
X27461Y-51071D01*
X27891Y-51501D01*
X27844Y-51612D01*
X27624Y-51703D01*
X27342Y-51711D01*
X27342Y-61225D01*
X27962Y-61225D01*
X27962Y-51430D01*
X27532Y-51000D01*
X27962Y-50570D01*
X28073Y-50617D01*
X28164Y-50837D01*
X28172Y-51119D01*
X28073Y-51383D01*
X27962Y-51430D01*
X27962Y-61225D01*
X28895Y-61225D01*
X28895Y-59525D01*
X28702Y-59445D01*
X28555Y-59297D01*
X28475Y-59104D01*
X28475Y-58895D01*
X28555Y-58702D01*
X28639Y-58618D01*
X28639Y-56290D01*
X28548Y-56267D01*
X28492Y-56130D01*
X28481Y-55926D01*
X28548Y-55733D01*
X28639Y-55710D01*
X28639Y-55290D01*
X28548Y-55267D01*
X28492Y-55130D01*
X28481Y-54926D01*
X28548Y-54733D01*
X28639Y-54710D01*
X28929Y-55000D01*
X28639Y-55290D01*
X28639Y-55710D01*
X28929Y-56000D01*
X28639Y-56290D01*
X28639Y-58618D01*
X28703Y-58555D01*
X28895Y-58475D01*
X28926Y-58475D01*
X28926Y-56519D01*
X28895Y-56508D01*
X28733Y-56452D01*
X28710Y-56361D01*
X29000Y-56071D01*
X29000Y-55929D01*
X28710Y-55639D01*
X28733Y-55548D01*
X28859Y-55496D01*
X28733Y-55452D01*
X28710Y-55361D01*
X29000Y-55071D01*
X29000Y-54929D01*
X28710Y-54639D01*
X28733Y-54548D01*
X28870Y-54492D01*
X28895Y-54490D01*
X28895Y-52525D01*
X28702Y-52445D01*
X28555Y-52297D01*
X28475Y-52104D01*
X28475Y-51895D01*
X28555Y-51702D01*
X28639Y-51618D01*
X28639Y-50790D01*
X28548Y-50767D01*
X28492Y-50630D01*
X28481Y-50426D01*
X28548Y-50233D01*
X28639Y-50210D01*
X28929Y-50500D01*
X28639Y-50790D01*
X28639Y-51618D01*
X28703Y-51555D01*
X28895Y-51475D01*
X28926Y-51475D01*
X28926Y-51019D01*
X28895Y-51008D01*
X28733Y-50952D01*
X28710Y-50861D01*
X29000Y-50571D01*
X29000Y-50429D01*
X28710Y-50139D01*
X28733Y-50048D01*
X28842Y-50003D01*
X28702Y-49945D01*
X28555Y-49797D01*
X28475Y-49604D01*
X28475Y-49395D01*
X28555Y-49202D01*
X28703Y-49055D01*
X28896Y-48975D01*
X29105Y-48975D01*
X29298Y-49055D01*
X29445Y-49203D01*
X29525Y-49396D01*
X29525Y-49605D01*
X29445Y-49798D01*
X29297Y-49945D01*
X29148Y-50006D01*
X29267Y-50048D01*
X29290Y-50139D01*
X29000Y-50429D01*
X29000Y-50571D01*
X29290Y-50861D01*
X29267Y-50952D01*
X29130Y-51008D01*
X28926Y-51019D01*
X28926Y-51475D01*
X29105Y-51475D01*
X29298Y-51555D01*
X29361Y-51618D01*
X29361Y-50790D01*
X29071Y-50500D01*
X29361Y-50210D01*
X29452Y-50233D01*
X29508Y-50370D01*
X29519Y-50574D01*
X29452Y-50767D01*
X29361Y-50790D01*
X29361Y-51618D01*
X29445Y-51703D01*
X29525Y-51896D01*
X29525Y-52105D01*
X29445Y-52298D01*
X29297Y-52445D01*
X29104Y-52525D01*
X28895Y-52525D01*
X28895Y-54490D01*
X29074Y-54481D01*
X29267Y-54548D01*
X29290Y-54639D01*
X29000Y-54929D01*
X29000Y-55071D01*
X29290Y-55361D01*
X29267Y-55452D01*
X29140Y-55503D01*
X29267Y-55548D01*
X29290Y-55639D01*
X29000Y-55929D01*
X29000Y-56071D01*
X29290Y-56361D01*
X29267Y-56452D01*
X29130Y-56508D01*
X28926Y-56519D01*
X28926Y-58475D01*
X29105Y-58475D01*
X29298Y-58555D01*
X29445Y-58703D01*
X29506Y-58851D01*
X29548Y-58733D01*
X29639Y-58710D01*
X29929Y-59000D01*
X29639Y-59290D01*
X29548Y-59267D01*
X29503Y-59157D01*
X29445Y-59298D01*
X29297Y-59445D01*
X29104Y-59525D01*
X28895Y-59525D01*
X28895Y-61225D01*
X29926Y-61225D01*
X29926Y-59519D01*
X29895Y-59508D01*
X29733Y-59452D01*
X29710Y-59361D01*
X30000Y-59071D01*
X30000Y-58929D01*
X29710Y-58639D01*
X29733Y-58548D01*
X29870Y-58492D01*
X29895Y-58490D01*
X29895Y-56525D01*
X29702Y-56445D01*
X29555Y-56297D01*
X29493Y-56148D01*
X29452Y-56267D01*
X29361Y-56290D01*
X29071Y-56000D01*
X29361Y-55710D01*
X29361Y-55290D01*
X29071Y-55000D01*
X29361Y-54710D01*
X29452Y-54733D01*
X29508Y-54870D01*
X29519Y-55074D01*
X29452Y-55267D01*
X29361Y-55290D01*
X29361Y-55710D01*
X29452Y-55733D01*
X29496Y-55842D01*
X29555Y-55702D01*
X29703Y-55555D01*
X29896Y-55475D01*
X30105Y-55475D01*
X30139Y-55489D01*
X30139Y-51290D01*
X30048Y-51267D01*
X29992Y-51130D01*
X29981Y-50926D01*
X30048Y-50733D01*
X30139Y-50710D01*
X30429Y-51000D01*
X30139Y-51290D01*
X30139Y-55489D01*
X30298Y-55555D01*
X30426Y-55683D01*
X30426Y-51519D01*
X30395Y-51508D01*
X30233Y-51452D01*
X30210Y-51361D01*
X30500Y-51071D01*
X30500Y-50929D01*
X30210Y-50639D01*
X30233Y-50548D01*
X30342Y-50503D01*
X30202Y-50445D01*
X30055Y-50297D01*
X29975Y-50104D01*
X29975Y-49895D01*
X30055Y-49702D01*
X30203Y-49555D01*
X30396Y-49475D01*
X30605Y-49475D01*
X30798Y-49555D01*
X30945Y-49703D01*
X31025Y-49896D01*
X31025Y-50105D01*
X30945Y-50298D01*
X30797Y-50445D01*
X30648Y-50506D01*
X30767Y-50548D01*
X30790Y-50639D01*
X30500Y-50929D01*
X30500Y-51071D01*
X30790Y-51361D01*
X30767Y-51452D01*
X30630Y-51508D01*
X30426Y-51519D01*
X30426Y-55683D01*
X30445Y-55703D01*
X30525Y-55896D01*
X30525Y-56105D01*
X30445Y-56298D01*
X30297Y-56445D01*
X30104Y-56525D01*
X29895Y-56525D01*
X29895Y-58490D01*
X30074Y-58481D01*
X30267Y-58548D01*
X30290Y-58639D01*
X30000Y-58929D01*
X30000Y-59071D01*
X30290Y-59361D01*
X30267Y-59452D01*
X30130Y-59508D01*
X29926Y-59519D01*
X29926Y-61225D01*
X30361Y-61225D01*
X30361Y-59290D01*
X30071Y-59000D01*
X30361Y-58710D01*
X30452Y-58733D01*
X30508Y-58870D01*
X30519Y-59074D01*
X30452Y-59267D01*
X30361Y-59290D01*
X30361Y-61225D01*
X30861Y-61225D01*
X30861Y-51290D01*
X30571Y-51000D01*
X30861Y-50710D01*
X30952Y-50733D01*
X31008Y-50870D01*
X31019Y-51074D01*
X30952Y-51267D01*
X30861Y-51290D01*
X30861Y-61225D01*
X32884Y-61225D01*
X32884Y-60080D01*
X32671Y-59991D01*
X32508Y-59828D01*
X32499Y-59808D01*
X32491Y-59829D01*
X32328Y-59992D01*
X32115Y-60080D01*
X31884Y-60080D01*
X31671Y-59991D01*
X31508Y-59828D01*
X31420Y-59615D01*
X31420Y-59384D01*
X31509Y-59171D01*
X31672Y-59008D01*
X31885Y-58920D01*
X32116Y-58920D01*
X32329Y-59009D01*
X32492Y-59172D01*
X32500Y-59191D01*
X32509Y-59171D01*
X32672Y-59008D01*
X32884Y-58920D01*
X32884Y-57080D01*
X32671Y-56991D01*
X32508Y-56828D01*
X32499Y-56808D01*
X32491Y-56829D01*
X32328Y-56992D01*
X32115Y-57080D01*
X31884Y-57080D01*
X31671Y-56991D01*
X31508Y-56828D01*
X31420Y-56615D01*
X31420Y-56384D01*
X31509Y-56171D01*
X31672Y-56008D01*
X31885Y-55920D01*
X32116Y-55920D01*
X32329Y-56009D01*
X32492Y-56172D01*
X32500Y-56191D01*
X32509Y-56171D01*
X32672Y-56008D01*
X32884Y-55920D01*
X32884Y-54080D01*
X32671Y-53991D01*
X32508Y-53828D01*
X32499Y-53808D01*
X32491Y-53829D01*
X32328Y-53992D01*
X32115Y-54080D01*
X31884Y-54080D01*
X31671Y-53991D01*
X31508Y-53828D01*
X31420Y-53615D01*
X31420Y-53384D01*
X31509Y-53171D01*
X31672Y-53008D01*
X31885Y-52920D01*
X32116Y-52920D01*
X32329Y-53009D01*
X32395Y-53075D01*
X32395Y-50490D01*
X32202Y-50410D01*
X32055Y-50262D01*
X31975Y-50069D01*
X31975Y-49860D01*
X32055Y-49667D01*
X32203Y-49520D01*
X32395Y-49440D01*
X32395Y-48560D01*
X32202Y-48480D01*
X32055Y-48332D01*
X31975Y-48139D01*
X31975Y-47930D01*
X32055Y-47737D01*
X32203Y-47590D01*
X32396Y-47510D01*
X32605Y-47510D01*
X32798Y-47590D01*
X32945Y-47738D01*
X33025Y-47931D01*
X33025Y-48140D01*
X32945Y-48333D01*
X32797Y-48480D01*
X32604Y-48560D01*
X32395Y-48560D01*
X32395Y-49440D01*
X32605Y-49440D01*
X32798Y-49520D01*
X32945Y-49668D01*
X33025Y-49861D01*
X33025Y-50070D01*
X32945Y-50263D01*
X32797Y-50410D01*
X32604Y-50490D01*
X32395Y-50490D01*
X32395Y-53075D01*
X32492Y-53172D01*
X32500Y-53191D01*
X32509Y-53171D01*
X32672Y-53008D01*
X32885Y-52920D01*
X33116Y-52920D01*
X33329Y-53009D01*
X33492Y-53172D01*
X33580Y-53385D01*
X33580Y-53616D01*
X33491Y-53829D01*
X33328Y-53992D01*
X33115Y-54080D01*
X32884Y-54080D01*
X32884Y-55920D01*
X33116Y-55920D01*
X33329Y-56009D01*
X33492Y-56172D01*
X33580Y-56385D01*
X33580Y-56616D01*
X33491Y-56829D01*
X33328Y-56992D01*
X33115Y-57080D01*
X32884Y-57080D01*
X32884Y-58920D01*
X33116Y-58920D01*
X33329Y-59009D01*
X33492Y-59172D01*
X33580Y-59385D01*
X33580Y-59616D01*
X33491Y-59829D01*
X33328Y-59992D01*
X33115Y-60080D01*
X32884Y-60080D01*
X32884Y-61225D01*
X35895Y-61225D01*
X35895Y-57525D01*
X35702Y-57445D01*
X35555Y-57297D01*
X35475Y-57104D01*
X35475Y-56895D01*
X35555Y-56702D01*
X35703Y-56555D01*
X35835Y-56500D01*
X35702Y-56445D01*
X35555Y-56297D01*
X35475Y-56104D01*
X35475Y-55895D01*
X35555Y-55702D01*
X35703Y-55555D01*
X35835Y-55500D01*
X35702Y-55445D01*
X35555Y-55297D01*
X35475Y-55104D01*
X35475Y-54895D01*
X35555Y-54702D01*
X35703Y-54555D01*
X35835Y-54500D01*
X35702Y-54445D01*
X35555Y-54297D01*
X35475Y-54104D01*
X35475Y-53895D01*
X35555Y-53702D01*
X35703Y-53555D01*
X35835Y-53500D01*
X35702Y-53445D01*
X35555Y-53297D01*
X35475Y-53104D01*
X35475Y-52895D01*
X35555Y-52702D01*
X35703Y-52555D01*
X35835Y-52500D01*
X35702Y-52445D01*
X35555Y-52297D01*
X35475Y-52104D01*
X35475Y-51895D01*
X35555Y-51702D01*
X35703Y-51555D01*
X35835Y-51500D01*
X35702Y-51445D01*
X35555Y-51297D01*
X35475Y-51104D01*
X35475Y-50895D01*
X35555Y-50702D01*
X35703Y-50555D01*
X35835Y-50500D01*
X35702Y-50445D01*
X35555Y-50297D01*
X35475Y-50104D01*
X35475Y-49895D01*
X35555Y-49702D01*
X35639Y-49618D01*
X35639Y-49290D01*
X35548Y-49267D01*
X35492Y-49130D01*
X35481Y-48926D01*
X35548Y-48733D01*
X35639Y-48710D01*
X35929Y-49000D01*
X35639Y-49290D01*
X35639Y-49618D01*
X35703Y-49555D01*
X35851Y-49493D01*
X35733Y-49452D01*
X35710Y-49361D01*
X36000Y-49071D01*
X36000Y-48929D01*
X35710Y-48639D01*
X35733Y-48548D01*
X35842Y-48503D01*
X35702Y-48445D01*
X35555Y-48297D01*
X35475Y-48104D01*
X35475Y-47895D01*
X35555Y-47702D01*
X35703Y-47555D01*
X35835Y-47500D01*
X35702Y-47445D01*
X35555Y-47297D01*
X35475Y-47104D01*
X35475Y-46895D01*
X35555Y-46702D01*
X35703Y-46555D01*
X35835Y-46500D01*
X35702Y-46445D01*
X35555Y-46297D01*
X35475Y-46104D01*
X35475Y-45895D01*
X35555Y-45702D01*
X35703Y-45555D01*
X35835Y-45500D01*
X35702Y-45445D01*
X35555Y-45297D01*
X35475Y-45104D01*
X35475Y-44895D01*
X35555Y-44702D01*
X35703Y-44555D01*
X35835Y-44500D01*
X35702Y-44445D01*
X35555Y-44297D01*
X35475Y-44104D01*
X35475Y-43895D01*
X35555Y-43702D01*
X35703Y-43555D01*
X35835Y-43500D01*
X35702Y-43445D01*
X35555Y-43297D01*
X35475Y-43104D01*
X35475Y-42895D01*
X35555Y-42702D01*
X35703Y-42555D01*
X35835Y-42500D01*
X35702Y-42445D01*
X35632Y-42375D01*
X33155Y-42375D01*
X30765Y-44765D01*
X30644Y-44846D01*
X30500Y-44875D01*
X27000Y-44875D01*
X26856Y-44846D01*
X26734Y-44764D01*
X26235Y-44265D01*
X26154Y-44144D01*
X26125Y-44000D01*
X26125Y-42500D01*
X26154Y-42356D01*
X26235Y-42235D01*
X26395Y-42074D01*
X26395Y-39025D01*
X26202Y-38945D01*
X26055Y-38797D01*
X25975Y-38604D01*
X25975Y-38395D01*
X26055Y-38202D01*
X26203Y-38055D01*
X26396Y-37975D01*
X26605Y-37975D01*
X26798Y-38055D01*
X26945Y-38203D01*
X27025Y-38396D01*
X27025Y-38605D01*
X26945Y-38798D01*
X26797Y-38945D01*
X26604Y-39025D01*
X26395Y-39025D01*
X26395Y-42074D01*
X26760Y-41709D01*
X26739Y-41659D01*
X26739Y-41372D01*
X26849Y-41107D01*
X27053Y-40904D01*
X27318Y-40794D01*
X27605Y-40794D01*
X27870Y-40904D01*
X28073Y-41108D01*
X28183Y-41373D01*
X28183Y-41660D01*
X28073Y-41925D01*
X27869Y-42128D01*
X27604Y-42238D01*
X27317Y-42238D01*
X27299Y-42230D01*
X26875Y-42655D01*
X26875Y-43105D01*
X26960Y-43070D01*
X27390Y-43500D01*
X27461Y-43571D01*
X27461Y-43429D01*
X27031Y-42999D01*
X27078Y-42888D01*
X27298Y-42797D01*
X27580Y-42789D01*
X27844Y-42888D01*
X27891Y-42999D01*
X27461Y-43429D01*
X27461Y-43571D01*
X27891Y-44001D01*
X27844Y-44112D01*
X27812Y-44124D01*
X27962Y-44124D01*
X27962Y-43930D01*
X27532Y-43500D01*
X27962Y-43070D01*
X28073Y-43117D01*
X28164Y-43337D01*
X28172Y-43619D01*
X28073Y-43883D01*
X27962Y-43930D01*
X27962Y-44124D01*
X30344Y-44125D01*
X32734Y-41735D01*
X32795Y-41694D01*
X32856Y-41654D01*
X33000Y-41625D01*
X35632Y-41625D01*
X35703Y-41555D01*
X35835Y-41500D01*
X35702Y-41445D01*
X35555Y-41297D01*
X35475Y-41104D01*
X35475Y-40895D01*
X35555Y-40702D01*
X35703Y-40555D01*
X35835Y-40500D01*
X35702Y-40445D01*
X35555Y-40297D01*
X35475Y-40104D01*
X35475Y-39895D01*
X35555Y-39702D01*
X35703Y-39555D01*
X35835Y-39500D01*
X35714Y-39450D01*
X34686Y-39450D01*
X31318Y-42818D01*
X31173Y-42916D01*
X31000Y-42950D01*
X29784Y-42950D01*
X29722Y-42976D01*
X29825Y-42976D01*
X29916Y-43014D01*
X29986Y-43084D01*
X30024Y-43176D01*
X30024Y-43825D01*
X29986Y-43916D01*
X29916Y-43986D01*
X29824Y-44024D01*
X29175Y-44024D01*
X29084Y-43986D01*
X29014Y-43916D01*
X28976Y-43824D01*
X28976Y-43175D01*
X29014Y-43084D01*
X29084Y-43014D01*
X29176Y-42976D01*
X29276Y-42976D01*
X29202Y-42945D01*
X29055Y-42797D01*
X28975Y-42604D01*
X28975Y-42395D01*
X29055Y-42202D01*
X29139Y-42118D01*
X29139Y-41790D01*
X29048Y-41767D01*
X28992Y-41630D01*
X28981Y-41426D01*
X29048Y-41233D01*
X29139Y-41210D01*
X29429Y-41500D01*
X29139Y-41790D01*
X29139Y-42118D01*
X29203Y-42055D01*
X29351Y-41993D01*
X29233Y-41952D01*
X29210Y-41861D01*
X29500Y-41571D01*
X29500Y-41429D01*
X29210Y-41139D01*
X29233Y-41048D01*
X29370Y-40992D01*
X29574Y-40981D01*
X29767Y-41048D01*
X29790Y-41139D01*
X29500Y-41429D01*
X29500Y-41571D01*
X29790Y-41861D01*
X29767Y-41952D01*
X29657Y-41996D01*
X29785Y-42050D01*
X29861Y-42050D01*
X29861Y-41790D01*
X29571Y-41500D01*
X29861Y-41210D01*
X29952Y-41233D01*
X30008Y-41370D01*
X30019Y-41574D01*
X29952Y-41767D01*
X29861Y-41790D01*
X29861Y-42050D01*
X30813Y-42050D01*
X34181Y-38682D01*
X34278Y-38616D01*
X34328Y-38584D01*
X34500Y-38550D01*
X35715Y-38550D01*
X35777Y-38524D01*
X35675Y-38524D01*
X35584Y-38486D01*
X35514Y-38416D01*
X35476Y-38324D01*
X35476Y-37675D01*
X35514Y-37584D01*
X35584Y-37514D01*
X35676Y-37476D01*
X36325Y-37476D01*
X36416Y-37514D01*
X36486Y-37584D01*
X36524Y-37676D01*
X36524Y-38325D01*
X36486Y-38416D01*
X36416Y-38486D01*
X36324Y-38524D01*
X36223Y-38524D01*
X36298Y-38555D01*
X36445Y-38703D01*
X36525Y-38896D01*
X36525Y-39105D01*
X36445Y-39298D01*
X36297Y-39445D01*
X36164Y-39499D01*
X36298Y-39555D01*
X36445Y-39703D01*
X36525Y-39896D01*
X36525Y-40105D01*
X36445Y-40298D01*
X36297Y-40445D01*
X36164Y-40499D01*
X36298Y-40555D01*
X36445Y-40703D01*
X36525Y-40896D01*
X36525Y-41105D01*
X36445Y-41298D01*
X36297Y-41445D01*
X36164Y-41499D01*
X36298Y-41555D01*
X36445Y-41703D01*
X36525Y-41896D01*
X36525Y-42105D01*
X36445Y-42298D01*
X36297Y-42445D01*
X36164Y-42499D01*
X36298Y-42555D01*
X36445Y-42703D01*
X36525Y-42896D01*
X36525Y-43105D01*
X36445Y-43298D01*
X36297Y-43445D01*
X36164Y-43499D01*
X36298Y-43555D01*
X36445Y-43703D01*
X36525Y-43896D01*
X36525Y-44105D01*
X36445Y-44298D01*
X36297Y-44445D01*
X36164Y-44499D01*
X36298Y-44555D01*
X36445Y-44703D01*
X36525Y-44896D01*
X36525Y-45105D01*
X36445Y-45298D01*
X36297Y-45445D01*
X36164Y-45499D01*
X36298Y-45555D01*
X36445Y-45703D01*
X36525Y-45896D01*
X36525Y-46105D01*
X36445Y-46298D01*
X36297Y-46445D01*
X36164Y-46499D01*
X36298Y-46555D01*
X36445Y-46703D01*
X36525Y-46896D01*
X36525Y-47105D01*
X36445Y-47298D01*
X36297Y-47445D01*
X36164Y-47499D01*
X36298Y-47555D01*
X36445Y-47703D01*
X36525Y-47896D01*
X36525Y-48105D01*
X36445Y-48298D01*
X36297Y-48445D01*
X36148Y-48506D01*
X36267Y-48548D01*
X36290Y-48639D01*
X36000Y-48929D01*
X36000Y-49071D01*
X36290Y-49361D01*
X36267Y-49452D01*
X36157Y-49496D01*
X36298Y-49555D01*
X36361Y-49618D01*
X36361Y-49290D01*
X36071Y-49000D01*
X36361Y-48710D01*
X36452Y-48733D01*
X36508Y-48870D01*
X36519Y-49074D01*
X36452Y-49267D01*
X36361Y-49290D01*
X36361Y-49618D01*
X36445Y-49703D01*
X36525Y-49896D01*
X36525Y-50105D01*
X36445Y-50298D01*
X36297Y-50445D01*
X36164Y-50499D01*
X36298Y-50555D01*
X36445Y-50703D01*
X36525Y-50896D01*
X36525Y-51105D01*
X36445Y-51298D01*
X36297Y-51445D01*
X36164Y-51499D01*
X36298Y-51555D01*
X36445Y-51703D01*
X36525Y-51896D01*
X36525Y-52105D01*
X36445Y-52298D01*
X36297Y-52445D01*
X36164Y-52499D01*
X36298Y-52555D01*
X36445Y-52703D01*
X36525Y-52896D01*
X36525Y-53105D01*
X36445Y-53298D01*
X36297Y-53445D01*
X36164Y-53499D01*
X36298Y-53555D01*
X36445Y-53703D01*
X36525Y-53896D01*
X36525Y-54105D01*
X36445Y-54298D01*
X36297Y-54445D01*
X36164Y-54499D01*
X36298Y-54555D01*
X36445Y-54703D01*
X36525Y-54896D01*
X36525Y-55105D01*
X36445Y-55298D01*
X36297Y-55445D01*
X36164Y-55499D01*
X36298Y-55555D01*
X36445Y-55703D01*
X36525Y-55896D01*
X36525Y-56105D01*
X36445Y-56298D01*
X36297Y-56445D01*
X36164Y-56499D01*
X36298Y-56555D01*
X36445Y-56703D01*
X36525Y-56896D01*
X36525Y-57105D01*
X36445Y-57298D01*
X36297Y-57445D01*
X36104Y-57525D01*
X35895Y-57525D01*
X35895Y-61225D01*
X40895Y-61225D01*
X40895Y-60525D01*
X40702Y-60445D01*
X40555Y-60297D01*
X40524Y-60222D01*
X40524Y-60325D01*
X40486Y-60416D01*
X40416Y-60486D01*
X40324Y-60524D01*
X39675Y-60524D01*
X39584Y-60486D01*
X39514Y-60416D01*
X39476Y-60324D01*
X39476Y-59675D01*
X39514Y-59584D01*
X39584Y-59514D01*
X39676Y-59476D01*
X40325Y-59476D01*
X40416Y-59514D01*
X40486Y-59584D01*
X40524Y-59676D01*
X40524Y-59776D01*
X40555Y-59702D01*
X40703Y-59555D01*
X40896Y-59475D01*
X41105Y-59475D01*
X41298Y-59555D01*
X41445Y-59703D01*
X41525Y-59896D01*
X41525Y-60105D01*
X41445Y-60298D01*
X41297Y-60445D01*
X41104Y-60525D01*
X40895Y-60525D01*
X40895Y-61225D01*
X41895Y-61225D01*
X41895Y-57525D01*
X41702Y-57445D01*
X41557Y-57300D01*
X39301Y-57300D01*
X39240Y-57361D01*
X39084Y-57425D01*
X38915Y-57425D01*
X38759Y-57360D01*
X38639Y-57240D01*
X38575Y-57084D01*
X38575Y-56915D01*
X38640Y-56759D01*
X38760Y-56639D01*
X38916Y-56575D01*
X39085Y-56575D01*
X39241Y-56640D01*
X39301Y-56700D01*
X41557Y-56700D01*
X41703Y-56555D01*
X41835Y-56500D01*
X41702Y-56445D01*
X41557Y-56300D01*
X40500Y-56300D01*
X40385Y-56277D01*
X40288Y-56212D01*
X39376Y-55300D01*
X39300Y-55300D01*
X39240Y-55361D01*
X39084Y-55425D01*
X38915Y-55425D01*
X38759Y-55360D01*
X38639Y-55240D01*
X38575Y-55084D01*
X38575Y-54915D01*
X38640Y-54759D01*
X38760Y-54639D01*
X38916Y-54575D01*
X39085Y-54575D01*
X39241Y-54640D01*
X39301Y-54700D01*
X39500Y-54700D01*
X39615Y-54723D01*
X39712Y-54788D01*
X40624Y-55700D01*
X41557Y-55700D01*
X41703Y-55555D01*
X41835Y-55500D01*
X41702Y-55445D01*
X41555Y-55297D01*
X41475Y-55104D01*
X41475Y-54895D01*
X41555Y-54702D01*
X41703Y-54555D01*
X41835Y-54500D01*
X41702Y-54445D01*
X41555Y-54297D01*
X41475Y-54104D01*
X41475Y-53895D01*
X41555Y-53702D01*
X41703Y-53555D01*
X41835Y-53500D01*
X41702Y-53445D01*
X41555Y-53297D01*
X41475Y-53104D01*
X41475Y-52895D01*
X41555Y-52702D01*
X41703Y-52555D01*
X41835Y-52500D01*
X41702Y-52445D01*
X41555Y-52297D01*
X41475Y-52104D01*
X41475Y-51895D01*
X41555Y-51702D01*
X41703Y-51555D01*
X41835Y-51500D01*
X41702Y-51445D01*
X41555Y-51297D01*
X41475Y-51104D01*
X41475Y-50895D01*
X41555Y-50702D01*
X41703Y-50555D01*
X41835Y-50500D01*
X41702Y-50445D01*
X41555Y-50297D01*
X41475Y-50104D01*
X41475Y-49895D01*
X41555Y-49702D01*
X41703Y-49555D01*
X41835Y-49500D01*
X41702Y-49445D01*
X41555Y-49297D01*
X41475Y-49104D01*
X41475Y-48895D01*
X41555Y-48702D01*
X41703Y-48555D01*
X41835Y-48500D01*
X41702Y-48445D01*
X41555Y-48297D01*
X41475Y-48104D01*
X41475Y-47895D01*
X41555Y-47702D01*
X41639Y-47618D01*
X41639Y-47290D01*
X41548Y-47267D01*
X41492Y-47130D01*
X41481Y-46926D01*
X41548Y-46733D01*
X41639Y-46710D01*
X41929Y-47000D01*
X41639Y-47290D01*
X41639Y-47618D01*
X41703Y-47555D01*
X41851Y-47493D01*
X41733Y-47452D01*
X41710Y-47361D01*
X42000Y-47071D01*
X42000Y-46929D01*
X41710Y-46639D01*
X41733Y-46548D01*
X41842Y-46503D01*
X41702Y-46445D01*
X41555Y-46297D01*
X41475Y-46104D01*
X41475Y-45895D01*
X41555Y-45702D01*
X41703Y-45555D01*
X41835Y-45500D01*
X41702Y-45445D01*
X41555Y-45297D01*
X41475Y-45104D01*
X41475Y-44895D01*
X41555Y-44702D01*
X41703Y-44555D01*
X41835Y-44500D01*
X41702Y-44445D01*
X41555Y-44297D01*
X41475Y-44104D01*
X41475Y-43895D01*
X41555Y-43702D01*
X41703Y-43555D01*
X41835Y-43500D01*
X41702Y-43445D01*
X41555Y-43297D01*
X41475Y-43104D01*
X41475Y-42895D01*
X41555Y-42702D01*
X41703Y-42555D01*
X41835Y-42500D01*
X41702Y-42445D01*
X41555Y-42297D01*
X41475Y-42104D01*
X41475Y-41895D01*
X41555Y-41702D01*
X41703Y-41555D01*
X41835Y-41500D01*
X41702Y-41445D01*
X41555Y-41297D01*
X41475Y-41104D01*
X41475Y-40895D01*
X41555Y-40702D01*
X41639Y-40618D01*
X41639Y-40290D01*
X41548Y-40267D01*
X41492Y-40130D01*
X41481Y-39926D01*
X41548Y-39733D01*
X41639Y-39710D01*
X41929Y-40000D01*
X41639Y-40290D01*
X41639Y-40618D01*
X41703Y-40555D01*
X41851Y-40493D01*
X41733Y-40452D01*
X41710Y-40361D01*
X42000Y-40071D01*
X42000Y-39929D01*
X41710Y-39639D01*
X41733Y-39548D01*
X41842Y-39503D01*
X41714Y-39450D01*
X41000Y-39450D01*
X40828Y-39416D01*
X40779Y-39383D01*
X40681Y-39318D01*
X38313Y-36950D01*
X35186Y-36950D01*
X33818Y-38318D01*
X33673Y-38416D01*
X33500Y-38450D01*
X28000Y-38450D01*
X27828Y-38416D01*
X27779Y-38383D01*
X27681Y-38318D01*
X23813Y-34450D01*
X23284Y-34450D01*
X23164Y-34499D01*
X23298Y-34555D01*
X23445Y-34703D01*
X23525Y-34896D01*
X23525Y-35105D01*
X23445Y-35298D01*
X23297Y-35445D01*
X23104Y-35525D01*
X22895Y-35525D01*
X22702Y-35445D01*
X22555Y-35297D01*
X22475Y-35104D01*
X22475Y-34895D01*
X22555Y-34702D01*
X22703Y-34555D01*
X22835Y-34500D01*
X22702Y-34445D01*
X22555Y-34297D01*
X22475Y-34104D01*
X22475Y-33895D01*
X22555Y-33702D01*
X22703Y-33555D01*
X22835Y-33500D01*
X22702Y-33445D01*
X22555Y-33297D01*
X22475Y-33104D01*
X22475Y-32895D01*
X22555Y-32702D01*
X22639Y-32618D01*
X22639Y-32290D01*
X22548Y-32267D01*
X22492Y-32130D01*
X22481Y-31926D01*
X22548Y-31733D01*
X22639Y-31710D01*
X22929Y-32000D01*
X22639Y-32290D01*
X22639Y-32618D01*
X22703Y-32555D01*
X22851Y-32493D01*
X22733Y-32452D01*
X22710Y-32361D01*
X23000Y-32071D01*
X23000Y-31929D01*
X22710Y-31639D01*
X22733Y-31548D01*
X22842Y-31503D01*
X22702Y-31445D01*
X22555Y-31297D01*
X22475Y-31104D01*
X22475Y-30895D01*
X22555Y-30702D01*
X22703Y-30555D01*
X22777Y-30524D01*
X22675Y-30524D01*
X22584Y-30486D01*
X22514Y-30416D01*
X22476Y-30324D01*
X22476Y-29675D01*
X22514Y-29584D01*
X22584Y-29514D01*
X22676Y-29476D01*
X23325Y-29476D01*
X23416Y-29514D01*
X23486Y-29584D01*
X23524Y-29676D01*
X23524Y-30325D01*
X23486Y-30416D01*
X23416Y-30486D01*
X23324Y-30524D01*
X23223Y-30524D01*
X23298Y-30555D01*
X23445Y-30703D01*
X23525Y-30896D01*
X23525Y-31105D01*
X23445Y-31298D01*
X23297Y-31445D01*
X23148Y-31506D01*
X23267Y-31548D01*
X23290Y-31639D01*
X23000Y-31929D01*
X23000Y-32071D01*
X23290Y-32361D01*
X23267Y-32452D01*
X23157Y-32496D01*
X23285Y-32550D01*
X23361Y-32550D01*
X23361Y-32290D01*
X23071Y-32000D01*
X23361Y-31710D01*
X23452Y-31733D01*
X23508Y-31870D01*
X23519Y-32074D01*
X23452Y-32267D01*
X23361Y-32290D01*
X23361Y-32550D01*
X25000Y-32550D01*
X25173Y-32584D01*
X25318Y-32682D01*
X29186Y-36550D01*
X32018Y-36550D01*
X32018Y-32011D01*
X31752Y-31781D01*
X31709Y-31718D01*
X31387Y-30901D01*
X31402Y-30023D01*
X31752Y-29219D01*
X32018Y-28989D01*
X33529Y-30500D01*
X32018Y-32011D01*
X32018Y-36550D01*
X32600Y-36550D01*
X32600Y-34599D01*
X32509Y-34561D01*
X32439Y-34491D01*
X32401Y-34399D01*
X32401Y-33600D01*
X32439Y-33509D01*
X32509Y-33439D01*
X32601Y-33401D01*
X33400Y-33401D01*
X33491Y-33439D01*
X33561Y-33509D01*
X33599Y-33601D01*
X33599Y-34400D01*
X33561Y-34491D01*
X33491Y-34561D01*
X33399Y-34599D01*
X32600Y-34599D01*
X32600Y-36550D01*
X32814Y-36550D01*
X34001Y-35362D01*
X34001Y-32713D01*
X33123Y-32698D01*
X32319Y-32348D01*
X32089Y-32082D01*
X33600Y-30571D01*
X33600Y-30429D01*
X32089Y-28918D01*
X32319Y-28652D01*
X32382Y-28609D01*
X33199Y-28287D01*
X34077Y-28302D01*
X34881Y-28652D01*
X35111Y-28918D01*
X33600Y-30429D01*
X33600Y-30571D01*
X35111Y-32082D01*
X34881Y-32348D01*
X34818Y-32391D01*
X34001Y-32713D01*
X34001Y-35362D01*
X34181Y-35182D01*
X34327Y-35084D01*
X34355Y-35078D01*
X34500Y-35050D01*
X35182Y-35050D01*
X35182Y-32011D01*
X33671Y-30500D01*
X35182Y-28989D01*
X35448Y-29219D01*
X35491Y-29282D01*
X35813Y-30099D01*
X35798Y-30977D01*
X35448Y-31781D01*
X35182Y-32011D01*
X35182Y-35050D01*
X37881Y-35050D01*
X37881Y-34599D01*
X37661Y-34508D01*
X37492Y-34339D01*
X37401Y-34119D01*
X37401Y-33881D01*
X37492Y-33661D01*
X37661Y-33492D01*
X37881Y-33401D01*
X38119Y-33401D01*
X38339Y-33492D01*
X38508Y-33661D01*
X38599Y-33881D01*
X38599Y-34119D01*
X38508Y-34339D01*
X38339Y-34508D01*
X38119Y-34599D01*
X37881Y-34599D01*
X37881Y-35050D01*
X39000Y-35050D01*
X39139Y-35077D01*
X39139Y-32290D01*
X39048Y-32267D01*
X38992Y-32130D01*
X38981Y-31926D01*
X39048Y-31733D01*
X39139Y-31710D01*
X39429Y-32000D01*
X39139Y-32290D01*
X39139Y-35077D01*
X39173Y-35084D01*
X39318Y-35182D01*
X39426Y-35289D01*
X39426Y-32519D01*
X39233Y-32452D01*
X39210Y-32361D01*
X39500Y-32071D01*
X39500Y-31929D01*
X39210Y-31639D01*
X39233Y-31548D01*
X39370Y-31492D01*
X39574Y-31481D01*
X39767Y-31548D01*
X39790Y-31639D01*
X39500Y-31929D01*
X39500Y-32071D01*
X39790Y-32361D01*
X39767Y-32452D01*
X39630Y-32508D01*
X39426Y-32519D01*
X39426Y-35289D01*
X40395Y-36258D01*
X40395Y-34525D01*
X40202Y-34445D01*
X40055Y-34297D01*
X39975Y-34104D01*
X39975Y-33895D01*
X40055Y-33702D01*
X40203Y-33555D01*
X40395Y-33475D01*
X40395Y-32525D01*
X40202Y-32445D01*
X40055Y-32297D01*
X39993Y-32148D01*
X39952Y-32267D01*
X39861Y-32290D01*
X39571Y-32000D01*
X39861Y-31710D01*
X39952Y-31733D01*
X39996Y-31842D01*
X40055Y-31702D01*
X40203Y-31555D01*
X40396Y-31475D01*
X40605Y-31475D01*
X40798Y-31555D01*
X40945Y-31703D01*
X41025Y-31896D01*
X41025Y-32105D01*
X40945Y-32298D01*
X40797Y-32445D01*
X40604Y-32525D01*
X40395Y-32525D01*
X40395Y-33475D01*
X40605Y-33475D01*
X40798Y-33555D01*
X40945Y-33703D01*
X41025Y-33896D01*
X41025Y-34105D01*
X40945Y-34298D01*
X40797Y-34445D01*
X40604Y-34525D01*
X40395Y-34525D01*
X40395Y-36258D01*
X41686Y-37550D01*
X41715Y-37550D01*
X41896Y-37475D01*
X42105Y-37475D01*
X42298Y-37555D01*
X42445Y-37703D01*
X42525Y-37896D01*
X42525Y-38105D01*
X42445Y-38298D01*
X42297Y-38445D01*
X42164Y-38499D01*
X42298Y-38555D01*
X42445Y-38703D01*
X42525Y-38896D01*
X42525Y-39105D01*
X42445Y-39298D01*
X42297Y-39445D01*
X42148Y-39506D01*
X42267Y-39548D01*
X42290Y-39639D01*
X42000Y-39929D01*
X42000Y-40071D01*
X42290Y-40361D01*
X42267Y-40452D01*
X42157Y-40496D01*
X42298Y-40555D01*
X42361Y-40618D01*
X42361Y-40290D01*
X42071Y-40000D01*
X42361Y-39710D01*
X42452Y-39733D01*
X42508Y-39870D01*
X42519Y-40074D01*
X42452Y-40267D01*
X42361Y-40290D01*
X42361Y-40618D01*
X42445Y-40703D01*
X42525Y-40896D01*
X42525Y-41105D01*
X42445Y-41298D01*
X42297Y-41445D01*
X42164Y-41499D01*
X42298Y-41555D01*
X42445Y-41703D01*
X42525Y-41896D01*
X42525Y-42105D01*
X42445Y-42298D01*
X42297Y-42445D01*
X42164Y-42499D01*
X42298Y-42555D01*
X42445Y-42703D01*
X42525Y-42896D01*
X42525Y-43105D01*
X42445Y-43298D01*
X42297Y-43445D01*
X42164Y-43499D01*
X42298Y-43555D01*
X42445Y-43703D01*
X42525Y-43896D01*
X42525Y-44105D01*
X42445Y-44298D01*
X42297Y-44445D01*
X42164Y-44499D01*
X42298Y-44555D01*
X42445Y-44703D01*
X42525Y-44896D01*
X42525Y-45105D01*
X42445Y-45298D01*
X42297Y-45445D01*
X42164Y-45499D01*
X42298Y-45555D01*
X42445Y-45703D01*
X42525Y-45896D01*
X42525Y-46105D01*
X42445Y-46298D01*
X42297Y-46445D01*
X42148Y-46506D01*
X42267Y-46548D01*
X42290Y-46639D01*
X42000Y-46929D01*
X42000Y-47071D01*
X42290Y-47361D01*
X42267Y-47452D01*
X42157Y-47496D01*
X42298Y-47555D01*
X42361Y-47618D01*
X42361Y-47290D01*
X42071Y-47000D01*
X42361Y-46710D01*
X42452Y-46733D01*
X42508Y-46870D01*
X42519Y-47074D01*
X42452Y-47267D01*
X42361Y-47290D01*
X42361Y-47618D01*
X42445Y-47703D01*
X42525Y-47896D01*
X42525Y-48105D01*
X42445Y-48298D01*
X42297Y-48445D01*
X42164Y-48499D01*
X42298Y-48555D01*
X42445Y-48703D01*
X42525Y-48896D01*
X42525Y-49105D01*
X42445Y-49298D01*
X42297Y-49445D01*
X42164Y-49499D01*
X42298Y-49555D01*
X42445Y-49703D01*
X42525Y-49896D01*
X42525Y-50105D01*
X42445Y-50298D01*
X42297Y-50445D01*
X42164Y-50499D01*
X42298Y-50555D01*
X42445Y-50703D01*
X42525Y-50896D01*
X42525Y-51105D01*
X42445Y-51298D01*
X42297Y-51445D01*
X42164Y-51499D01*
X42298Y-51555D01*
X42445Y-51703D01*
X42525Y-51896D01*
X42525Y-52105D01*
X42445Y-52298D01*
X42297Y-52445D01*
X42164Y-52499D01*
X42298Y-52555D01*
X42445Y-52703D01*
X42525Y-52896D01*
X42525Y-53105D01*
X42445Y-53298D01*
X42297Y-53445D01*
X42164Y-53499D01*
X42298Y-53555D01*
X42445Y-53703D01*
X42525Y-53896D01*
X42525Y-54105D01*
X42445Y-54298D01*
X42297Y-54445D01*
X42164Y-54499D01*
X42298Y-54555D01*
X42445Y-54703D01*
X42525Y-54896D01*
X42525Y-55105D01*
X42445Y-55298D01*
X42297Y-55445D01*
X42164Y-55499D01*
X42298Y-55555D01*
X42445Y-55703D01*
X42525Y-55896D01*
X42525Y-56105D01*
X42445Y-56298D01*
X42297Y-56445D01*
X42164Y-56499D01*
X42298Y-56555D01*
X42445Y-56703D01*
X42525Y-56896D01*
X42525Y-57105D01*
X42445Y-57298D01*
X42297Y-57445D01*
X42104Y-57525D01*
X41895Y-57525D01*
X41895Y-61225D01*
X43395Y-61225D01*
X43395Y-44525D01*
X43202Y-44445D01*
X43055Y-44297D01*
X42975Y-44104D01*
X42975Y-43895D01*
X43055Y-43702D01*
X43203Y-43555D01*
X43395Y-43475D01*
X43395Y-41525D01*
X43202Y-41445D01*
X43055Y-41297D01*
X42975Y-41104D01*
X42975Y-40895D01*
X43055Y-40702D01*
X43203Y-40555D01*
X43395Y-40475D01*
X43395Y-38525D01*
X43202Y-38445D01*
X43055Y-38297D01*
X42975Y-38104D01*
X42975Y-37895D01*
X43055Y-37702D01*
X43203Y-37555D01*
X43395Y-37475D01*
X43395Y-34525D01*
X43202Y-34445D01*
X43055Y-34297D01*
X42975Y-34104D01*
X42975Y-33895D01*
X43055Y-33702D01*
X43203Y-33555D01*
X43396Y-33475D01*
X43605Y-33475D01*
X43798Y-33555D01*
X43945Y-33703D01*
X44025Y-33896D01*
X44025Y-34105D01*
X43945Y-34298D01*
X43797Y-34445D01*
X43604Y-34525D01*
X43395Y-34525D01*
X43395Y-37475D01*
X43605Y-37475D01*
X43798Y-37555D01*
X43945Y-37703D01*
X44025Y-37896D01*
X44025Y-38105D01*
X43945Y-38298D01*
X43797Y-38445D01*
X43604Y-38525D01*
X43395Y-38525D01*
X43395Y-40475D01*
X43605Y-40475D01*
X43798Y-40555D01*
X43945Y-40703D01*
X44025Y-40896D01*
X44025Y-41105D01*
X43945Y-41298D01*
X43797Y-41445D01*
X43604Y-41525D01*
X43395Y-41525D01*
X43395Y-43475D01*
X43605Y-43475D01*
X43798Y-43555D01*
X43945Y-43703D01*
X44006Y-43851D01*
X44048Y-43733D01*
X44139Y-43710D01*
X44429Y-44000D01*
X44139Y-44290D01*
X44048Y-44267D01*
X44003Y-44157D01*
X43945Y-44298D01*
X43797Y-44445D01*
X43604Y-44525D01*
X43395Y-44525D01*
X43395Y-61225D01*
X44426Y-61225D01*
X44426Y-44519D01*
X44395Y-44508D01*
X44233Y-44452D01*
X44210Y-44361D01*
X44500Y-44071D01*
X44500Y-43929D01*
X44210Y-43639D01*
X44233Y-43548D01*
X44370Y-43492D01*
X44395Y-43490D01*
X44395Y-42525D01*
X44202Y-42445D01*
X44055Y-42297D01*
X43975Y-42104D01*
X43975Y-41895D01*
X44055Y-41702D01*
X44203Y-41555D01*
X44395Y-41475D01*
X44395Y-39525D01*
X44202Y-39445D01*
X44055Y-39297D01*
X43975Y-39104D01*
X43975Y-38895D01*
X44055Y-38702D01*
X44203Y-38555D01*
X44396Y-38475D01*
X44605Y-38475D01*
X44798Y-38555D01*
X44945Y-38703D01*
X45025Y-38896D01*
X45025Y-39105D01*
X44945Y-39298D01*
X44797Y-39445D01*
X44604Y-39525D01*
X44395Y-39525D01*
X44395Y-41475D01*
X44605Y-41475D01*
X44798Y-41555D01*
X44945Y-41703D01*
X45025Y-41896D01*
X45025Y-42105D01*
X44945Y-42298D01*
X44797Y-42445D01*
X44604Y-42525D01*
X44395Y-42525D01*
X44395Y-43490D01*
X44574Y-43481D01*
X44767Y-43548D01*
X44790Y-43639D01*
X44500Y-43929D01*
X44500Y-44071D01*
X44790Y-44361D01*
X44767Y-44452D01*
X44630Y-44508D01*
X44426Y-44519D01*
X44426Y-61225D01*
X44861Y-61225D01*
X44861Y-44290D01*
X44571Y-44000D01*
X44861Y-43710D01*
X44952Y-43733D01*
X45008Y-43870D01*
X45019Y-44074D01*
X44952Y-44267D01*
X44861Y-44290D01*
X44861Y-61225D01*
X45139Y-61225D01*
X45139Y-56290D01*
X45048Y-56267D01*
X44992Y-56130D01*
X44981Y-55926D01*
X45048Y-55733D01*
X45139Y-55710D01*
X45139Y-50290D01*
X45048Y-50267D01*
X44992Y-50130D01*
X44981Y-49926D01*
X45048Y-49733D01*
X45139Y-49710D01*
X45429Y-50000D01*
X45139Y-50290D01*
X45139Y-55710D01*
X45429Y-56000D01*
X45139Y-56290D01*
X45139Y-61225D01*
X45426Y-61225D01*
X45426Y-56519D01*
X45395Y-56508D01*
X45233Y-56452D01*
X45210Y-56361D01*
X45500Y-56071D01*
X45500Y-55929D01*
X45210Y-55639D01*
X45233Y-55548D01*
X45370Y-55492D01*
X45395Y-55490D01*
X45426Y-55488D01*
X45426Y-50519D01*
X45395Y-50508D01*
X45233Y-50452D01*
X45210Y-50361D01*
X45500Y-50071D01*
X45500Y-49929D01*
X45210Y-49639D01*
X45233Y-49548D01*
X45370Y-49492D01*
X45395Y-49490D01*
X45395Y-43525D01*
X45202Y-43445D01*
X45055Y-43297D01*
X44975Y-43104D01*
X44975Y-42895D01*
X45055Y-42702D01*
X45203Y-42555D01*
X45395Y-42475D01*
X45395Y-40525D01*
X45202Y-40445D01*
X45055Y-40297D01*
X44975Y-40104D01*
X44975Y-39895D01*
X45055Y-39702D01*
X45203Y-39555D01*
X45396Y-39475D01*
X45605Y-39475D01*
X45798Y-39555D01*
X45945Y-39703D01*
X46025Y-39896D01*
X46025Y-40105D01*
X45945Y-40298D01*
X45797Y-40445D01*
X45604Y-40525D01*
X45395Y-40525D01*
X45395Y-42475D01*
X45605Y-42475D01*
X45798Y-42555D01*
X45945Y-42703D01*
X46025Y-42896D01*
X46025Y-43105D01*
X45945Y-43298D01*
X45797Y-43445D01*
X45604Y-43525D01*
X45395Y-43525D01*
X45395Y-49490D01*
X45574Y-49481D01*
X45767Y-49548D01*
X45790Y-49639D01*
X45500Y-49929D01*
X45500Y-50071D01*
X45790Y-50361D01*
X45767Y-50452D01*
X45630Y-50508D01*
X45426Y-50519D01*
X45426Y-55488D01*
X45574Y-55481D01*
X45767Y-55548D01*
X45790Y-55639D01*
X45500Y-55929D01*
X45500Y-56071D01*
X45790Y-56361D01*
X45767Y-56452D01*
X45630Y-56508D01*
X45426Y-56519D01*
X45426Y-61225D01*
X61050Y-61225D01*
X61050Y-48649D01*
X60959Y-48611D01*
X60889Y-48541D01*
X60851Y-48449D01*
X60851Y-47550D01*
X60889Y-47459D01*
X60959Y-47389D01*
X60967Y-47385D01*
X60950Y-47368D01*
X60851Y-47129D01*
X60851Y-46871D01*
X60950Y-46632D01*
X61081Y-46499D01*
X60950Y-46368D01*
X60851Y-46129D01*
X60851Y-45871D01*
X60950Y-45632D01*
X61082Y-45500D01*
X60950Y-45368D01*
X60851Y-45129D01*
X60851Y-44871D01*
X60950Y-44632D01*
X61051Y-44530D01*
X61051Y-44378D01*
X60946Y-44340D01*
X60869Y-44151D01*
X60859Y-43897D01*
X60946Y-43660D01*
X61051Y-43622D01*
X61429Y-44000D01*
X61051Y-44378D01*
X61051Y-44530D01*
X61124Y-44457D01*
X61122Y-44449D01*
X61500Y-44071D01*
X61878Y-44449D01*
X61875Y-44457D01*
X61968Y-44550D01*
X62050Y-44550D01*
X62050Y-44341D01*
X61949Y-44378D01*
X61571Y-44000D01*
X61949Y-43622D01*
X62050Y-43658D01*
X62050Y-43368D01*
X61875Y-43542D01*
X61878Y-43551D01*
X61500Y-43929D01*
X61122Y-43551D01*
X61124Y-43542D01*
X60950Y-43368D01*
X60851Y-43129D01*
X60851Y-42871D01*
X60950Y-42632D01*
X61082Y-42500D01*
X60950Y-42368D01*
X60851Y-42129D01*
X60851Y-41871D01*
X60950Y-41632D01*
X61082Y-41499D01*
X60950Y-41368D01*
X60851Y-41129D01*
X60851Y-40871D01*
X60950Y-40632D01*
X61132Y-40450D01*
X61371Y-40351D01*
X61629Y-40351D01*
X61868Y-40450D01*
X62050Y-40632D01*
X62050Y-38686D01*
X61814Y-38450D01*
X61500Y-38450D01*
X61327Y-38416D01*
X61182Y-38318D01*
X60682Y-37818D01*
X60584Y-37673D01*
X60550Y-37500D01*
X60550Y-37284D01*
X60479Y-37115D01*
X59814Y-36450D01*
X55500Y-36450D01*
X55328Y-36416D01*
X55279Y-36383D01*
X55181Y-36318D01*
X53182Y-34318D01*
X53084Y-34173D01*
X53050Y-34000D01*
X53050Y-33397D01*
X52992Y-33339D01*
X52901Y-33119D01*
X52901Y-32881D01*
X52992Y-32661D01*
X53161Y-32492D01*
X53381Y-32401D01*
X53619Y-32401D01*
X53839Y-32492D01*
X53914Y-32567D01*
X53939Y-32509D01*
X54009Y-32439D01*
X54100Y-32401D01*
X54199Y-32401D01*
X54388Y-32400D01*
X54450Y-32462D01*
X54450Y-32950D01*
X54450Y-33050D01*
X54450Y-33538D01*
X54388Y-33600D01*
X54199Y-33599D01*
X54100Y-33599D01*
X54009Y-33561D01*
X53950Y-33502D01*
X53950Y-33813D01*
X54612Y-34475D01*
X54612Y-33600D01*
X54550Y-33538D01*
X54550Y-33050D01*
X54550Y-32950D01*
X54550Y-32462D01*
X54600Y-32412D01*
X54600Y-30099D01*
X54509Y-30061D01*
X54439Y-29991D01*
X54401Y-29899D01*
X54401Y-29100D01*
X54439Y-29009D01*
X54509Y-28939D01*
X54601Y-28901D01*
X55400Y-28901D01*
X55491Y-28939D01*
X55561Y-29009D01*
X55599Y-29101D01*
X55599Y-29900D01*
X55561Y-29991D01*
X55491Y-30061D01*
X55399Y-30099D01*
X54600Y-30099D01*
X54600Y-32412D01*
X54612Y-32400D01*
X54801Y-32401D01*
X54900Y-32401D01*
X54991Y-32439D01*
X55061Y-32509D01*
X55085Y-32567D01*
X55161Y-32492D01*
X55381Y-32401D01*
X55619Y-32401D01*
X55839Y-32492D01*
X56008Y-32661D01*
X56099Y-32881D01*
X56099Y-33119D01*
X56008Y-33339D01*
X55839Y-33508D01*
X55619Y-33599D01*
X55381Y-33599D01*
X55161Y-33508D01*
X55085Y-33432D01*
X55061Y-33491D01*
X54991Y-33561D01*
X54900Y-33599D01*
X54801Y-33599D01*
X54612Y-33600D01*
X54612Y-34475D01*
X55381Y-35244D01*
X55686Y-35550D01*
X56175Y-35550D01*
X56175Y-31024D01*
X56084Y-30986D01*
X56014Y-30916D01*
X55976Y-30824D01*
X55976Y-30175D01*
X56014Y-30084D01*
X56084Y-30014D01*
X56139Y-29991D01*
X56139Y-29790D01*
X56048Y-29767D01*
X55992Y-29630D01*
X55981Y-29426D01*
X56048Y-29233D01*
X56139Y-29210D01*
X56429Y-29500D01*
X56139Y-29790D01*
X56139Y-29991D01*
X56176Y-29976D01*
X56302Y-29976D01*
X56233Y-29952D01*
X56210Y-29861D01*
X56500Y-29571D01*
X56500Y-29429D01*
X56210Y-29139D01*
X56233Y-29048D01*
X56370Y-28992D01*
X56574Y-28981D01*
X56767Y-29048D01*
X56790Y-29139D01*
X56500Y-29429D01*
X56500Y-29571D01*
X56790Y-29861D01*
X56767Y-29952D01*
X56708Y-29976D01*
X56825Y-29976D01*
X56861Y-29991D01*
X56861Y-29790D01*
X56571Y-29500D01*
X56861Y-29210D01*
X56952Y-29233D01*
X57008Y-29370D01*
X57019Y-29574D01*
X56952Y-29767D01*
X56861Y-29790D01*
X56861Y-29991D01*
X56916Y-30014D01*
X56986Y-30084D01*
X57024Y-30176D01*
X57024Y-30825D01*
X56986Y-30916D01*
X56916Y-30986D01*
X56824Y-31024D01*
X56175Y-31024D01*
X56175Y-35550D01*
X60000Y-35550D01*
X60173Y-35584D01*
X60318Y-35682D01*
X61115Y-36479D01*
X61298Y-36555D01*
X61445Y-36703D01*
X61506Y-36851D01*
X61548Y-36733D01*
X61639Y-36710D01*
X61929Y-37000D01*
X61639Y-37290D01*
X61548Y-37267D01*
X61503Y-37157D01*
X61450Y-37285D01*
X61450Y-37314D01*
X61686Y-37550D01*
X61926Y-37550D01*
X61926Y-37519D01*
X61733Y-37452D01*
X61710Y-37361D01*
X62000Y-37071D01*
X62000Y-36929D01*
X61710Y-36639D01*
X61733Y-36548D01*
X61870Y-36492D01*
X62074Y-36481D01*
X62267Y-36548D01*
X62290Y-36639D01*
X62000Y-36929D01*
X62000Y-37071D01*
X62290Y-37361D01*
X62267Y-37452D01*
X62130Y-37508D01*
X61926Y-37519D01*
X61926Y-37550D01*
X62000Y-37550D01*
X62173Y-37584D01*
X62318Y-37682D01*
X62361Y-37724D01*
X62361Y-37290D01*
X62071Y-37000D01*
X62361Y-36710D01*
X62452Y-36733D01*
X62508Y-36870D01*
X62519Y-37074D01*
X62452Y-37267D01*
X62361Y-37290D01*
X62361Y-37724D01*
X62818Y-38182D01*
X62916Y-38327D01*
X62950Y-38500D01*
X62950Y-45000D01*
X62916Y-45172D01*
X62818Y-45318D01*
X62672Y-45416D01*
X62500Y-45450D01*
X61967Y-45450D01*
X61917Y-45499D01*
X62050Y-45632D01*
X62149Y-45871D01*
X62149Y-46129D01*
X62050Y-46368D01*
X61918Y-46499D01*
X62050Y-46632D01*
X62149Y-46871D01*
X62149Y-47129D01*
X62050Y-47368D01*
X62032Y-47385D01*
X62041Y-47389D01*
X62111Y-47459D01*
X62149Y-47551D01*
X62149Y-48450D01*
X62111Y-48541D01*
X62041Y-48611D01*
X61949Y-48649D01*
X61050Y-48649D01*
X61050Y-61225D01*
X63225Y-61225D01*
M02*
