G04 (created by PCBNEW-RS274X (2010-03-14)-final) date Sun 26 Sep 2010 04:53:47 PM PDT*
G01*
G70*
G90*
%MOIN*%
G04 Gerber Fmt 3.4, Leading zero omitted, Abs format*
%FSLAX34Y34*%
G04 APERTURE LIST*
%ADD10C,0.006000*%
%ADD11C,0.015000*%
%ADD12C,0.400000*%
%ADD13C,0.055000*%
%ADD14R,0.055000X0.055000*%
%ADD15C,0.070000*%
%ADD16R,0.070000X0.070000*%
%ADD17R,0.045000X0.020000*%
%ADD18R,0.350000X0.350000*%
%ADD19C,0.066000*%
%ADD20R,0.080000X0.080000*%
%ADD21C,0.080000*%
%ADD22R,0.035000X0.055000*%
%ADD23C,0.094500*%
%ADD24C,0.035000*%
%ADD25C,0.060000*%
%ADD26C,0.040000*%
%ADD27C,0.025000*%
%ADD28C,0.010000*%
%ADD29C,0.008000*%
%ADD30C,0.080000*%
G04 APERTURE END LIST*
G54D10*
G54D11*
X21000Y-28000D02*
X27500Y-28000D01*
X21000Y-61500D02*
X21000Y-28000D01*
X27500Y-61500D02*
X21000Y-61500D01*
X63500Y-61500D02*
X27500Y-61500D01*
X63500Y-28000D02*
X63500Y-61500D01*
X27500Y-28000D02*
X63500Y-28000D01*
X21000Y-61500D02*
X21000Y-28000D01*
G54D12*
X45400Y-30500D03*
X33600Y-30500D03*
G54D13*
X29000Y-49500D03*
X29000Y-50500D03*
X30500Y-50000D03*
X30500Y-51000D03*
X33500Y-45500D03*
X32500Y-45500D03*
X61000Y-37000D03*
X62000Y-37000D03*
X52000Y-33500D03*
X51000Y-33500D03*
X46500Y-50000D03*
X45500Y-50000D03*
X43500Y-44000D03*
X44500Y-44000D03*
X47500Y-34000D03*
X48500Y-34000D03*
X48000Y-44000D03*
X47000Y-44000D03*
X46500Y-56000D03*
X45500Y-56000D03*
G54D14*
X56500Y-30500D03*
G54D13*
X56500Y-29500D03*
G54D14*
X50000Y-31500D03*
G54D13*
X51000Y-31500D03*
G54D15*
X38000Y-34000D03*
G54D16*
X33000Y-34000D03*
G54D15*
X50000Y-29500D03*
G54D16*
X55000Y-29500D03*
G54D14*
X36000Y-38000D03*
G54D13*
X36000Y-39000D03*
X36000Y-40000D03*
X36000Y-41000D03*
X36000Y-42000D03*
X36000Y-43000D03*
X36000Y-44000D03*
X36000Y-45000D03*
X36000Y-46000D03*
X36000Y-47000D03*
X36000Y-48000D03*
X36000Y-49000D03*
X36000Y-50000D03*
X36000Y-51000D03*
X36000Y-52000D03*
X36000Y-53000D03*
X36000Y-54000D03*
X36000Y-55000D03*
X36000Y-56000D03*
X36000Y-57000D03*
X42000Y-57000D03*
X42000Y-56000D03*
X42000Y-55000D03*
X42000Y-54000D03*
X42000Y-53000D03*
X42000Y-52000D03*
X42000Y-51000D03*
X42000Y-50000D03*
X42000Y-49000D03*
X42000Y-48000D03*
X42000Y-47000D03*
X42000Y-46000D03*
X42000Y-45000D03*
X42000Y-44000D03*
X42000Y-43000D03*
X42000Y-42000D03*
X42000Y-41000D03*
X42000Y-40000D03*
X42000Y-39000D03*
X42000Y-38000D03*
X32500Y-48035D03*
X32500Y-49965D03*
X54000Y-52500D03*
X51000Y-52500D03*
X43500Y-34000D03*
X40500Y-34000D03*
X54000Y-46250D03*
X51000Y-46250D03*
X54000Y-47500D03*
X51000Y-47500D03*
X54000Y-48750D03*
X51000Y-48750D03*
X54000Y-50000D03*
X51000Y-50000D03*
X54000Y-55000D03*
X51000Y-55000D03*
G54D14*
X40000Y-60000D03*
G54D13*
X41000Y-60000D03*
G54D14*
X23000Y-30000D03*
G54D13*
X23000Y-31000D03*
X23000Y-32000D03*
X23000Y-33000D03*
X23000Y-34000D03*
X23000Y-35000D03*
G54D17*
X44500Y-45250D03*
X44500Y-45750D03*
X44500Y-46250D03*
X44500Y-46750D03*
X44500Y-47250D03*
X44500Y-47750D03*
X44500Y-48250D03*
X44500Y-48750D03*
X48500Y-48750D03*
X48500Y-48250D03*
X48500Y-47750D03*
X48500Y-47250D03*
X48500Y-46750D03*
X48500Y-46250D03*
X48500Y-45750D03*
X48500Y-45250D03*
X44500Y-51250D03*
X44500Y-51750D03*
X44500Y-52250D03*
X44500Y-52750D03*
X44500Y-53250D03*
X44500Y-53750D03*
X44500Y-54250D03*
X44500Y-54750D03*
X48500Y-54750D03*
X48500Y-54250D03*
X48500Y-53750D03*
X48500Y-53250D03*
X48500Y-52750D03*
X48500Y-52250D03*
X48500Y-51750D03*
X48500Y-51250D03*
X58550Y-43750D03*
X56450Y-43750D03*
X58550Y-44250D03*
X58550Y-44750D03*
X58550Y-45250D03*
X56450Y-44250D03*
X56450Y-44750D03*
X56450Y-45250D03*
X58550Y-47250D03*
X56450Y-47250D03*
X58550Y-47750D03*
X58550Y-48250D03*
X58550Y-48750D03*
X56450Y-47750D03*
X56450Y-48250D03*
X56450Y-48750D03*
X58550Y-51250D03*
X56450Y-51250D03*
X58550Y-51750D03*
X58550Y-52250D03*
X58550Y-52750D03*
X56450Y-51750D03*
X56450Y-52250D03*
X56450Y-52750D03*
G54D15*
X49000Y-36000D03*
X50000Y-36000D03*
G54D16*
X51000Y-36000D03*
G54D18*
X54500Y-39500D03*
G54D15*
X55500Y-33000D03*
G54D16*
X54500Y-33000D03*
G54D15*
X53500Y-33000D03*
G54D13*
X40500Y-32000D03*
X39500Y-32000D03*
G54D19*
X33000Y-56500D03*
X32000Y-56500D03*
X33000Y-53500D03*
X32000Y-53500D03*
X33000Y-59500D03*
X32000Y-59500D03*
G54D13*
X29000Y-56000D03*
X29000Y-59000D03*
X30000Y-59000D03*
X30000Y-56000D03*
X29000Y-55000D03*
X29000Y-52000D03*
G54D14*
X29500Y-43500D03*
G54D13*
X29500Y-42500D03*
X29500Y-41500D03*
G54D16*
X58500Y-57000D03*
G54D15*
X56500Y-57000D03*
G54D13*
X44500Y-42000D03*
X44500Y-39000D03*
X45500Y-43000D03*
X45500Y-40000D03*
X43500Y-41000D03*
X43500Y-38000D03*
G54D20*
X61500Y-48000D03*
G54D21*
X61500Y-47000D03*
X61500Y-46000D03*
X61500Y-45000D03*
X61500Y-44000D03*
X61500Y-43000D03*
X61500Y-42000D03*
X61500Y-41000D03*
G54D22*
X38625Y-52000D03*
X39375Y-52000D03*
X38625Y-51000D03*
X39375Y-51000D03*
X38875Y-54000D03*
X38125Y-54000D03*
X38625Y-50000D03*
X39375Y-50000D03*
X38875Y-56000D03*
X38125Y-56000D03*
X38625Y-49000D03*
X39375Y-49000D03*
G54D13*
X26500Y-46000D03*
X23500Y-46000D03*
X26500Y-38500D03*
X23500Y-38500D03*
G54D23*
X22539Y-50984D03*
X22539Y-49016D03*
X27461Y-49016D03*
X27461Y-51000D03*
X22539Y-43484D03*
X22539Y-41516D03*
X27461Y-41516D03*
X27461Y-43500D03*
G54D24*
X38000Y-59000D03*
G54D25*
X55500Y-47000D03*
X45750Y-45750D03*
X45750Y-47750D03*
X45750Y-51750D03*
X45750Y-53750D03*
X49500Y-55500D03*
X49500Y-49500D03*
X55000Y-44000D03*
X55500Y-51000D03*
G54D24*
X33500Y-43000D03*
X31500Y-45000D03*
X39000Y-55000D03*
X39000Y-57000D03*
G54D25*
X58500Y-54000D03*
X58500Y-50000D03*
X57500Y-44500D03*
G54D26*
X26500Y-38500D02*
X29000Y-38500D01*
X29000Y-38500D02*
X30750Y-40250D01*
X29500Y-35000D02*
X29000Y-35000D01*
X29000Y-35000D02*
X25000Y-31000D01*
X25000Y-31000D02*
X23000Y-31000D01*
X29500Y-35000D02*
X30750Y-35000D01*
X30750Y-39750D02*
X30750Y-35000D01*
X30750Y-42750D02*
X30750Y-40250D01*
X30750Y-40250D02*
X30750Y-39750D01*
X47500Y-34000D02*
X47500Y-34500D01*
X47500Y-34500D02*
X49000Y-36000D01*
X33500Y-45500D02*
X33500Y-44750D01*
X31500Y-42750D02*
X30750Y-42750D01*
X33500Y-44750D02*
X31500Y-42750D01*
X30500Y-43500D02*
X29500Y-43500D01*
X30750Y-42750D02*
X30750Y-43250D01*
X30750Y-43250D02*
X30500Y-43500D01*
X33500Y-45500D02*
X33500Y-46250D01*
X35250Y-48000D02*
X36000Y-48000D01*
X33500Y-46250D02*
X35250Y-48000D01*
X40500Y-45500D02*
X40500Y-45750D01*
X38250Y-48000D02*
X36000Y-48000D01*
X40500Y-45750D02*
X38250Y-48000D01*
X41000Y-46000D02*
X42000Y-46000D01*
X43500Y-34000D02*
X47500Y-34000D01*
X43000Y-34000D02*
X40500Y-36500D01*
X40500Y-36500D02*
X40500Y-45500D01*
X40500Y-45500D02*
X41000Y-46000D01*
X43500Y-34000D02*
X43000Y-34000D01*
X42500Y-46000D02*
X43000Y-45500D01*
X43000Y-45500D02*
X43000Y-44500D01*
X43000Y-44500D02*
X43500Y-44000D01*
X42000Y-46000D02*
X42500Y-46000D01*
X44500Y-39000D02*
X45500Y-40000D01*
X43500Y-34000D02*
X43500Y-38000D01*
X43500Y-38000D02*
X44500Y-39000D01*
X52000Y-33500D02*
X52000Y-34000D01*
X50000Y-35500D02*
X50000Y-36000D01*
X50500Y-35000D02*
X50000Y-35500D01*
X51000Y-35000D02*
X50500Y-35000D01*
X52000Y-34000D02*
X51000Y-35000D01*
X52500Y-33000D02*
X52000Y-33500D01*
X53500Y-33000D02*
X52500Y-33000D01*
X40000Y-53000D02*
X40000Y-60000D01*
X41000Y-52000D02*
X40000Y-53000D01*
X42000Y-52000D02*
X41000Y-52000D01*
X41000Y-60000D02*
X41000Y-53500D01*
X41500Y-53000D02*
X42000Y-53000D01*
X41000Y-53500D02*
X41500Y-53000D01*
X29500Y-34000D02*
X25500Y-30000D01*
X33000Y-34000D02*
X29500Y-34000D01*
X25500Y-30000D02*
X23000Y-30000D01*
X36000Y-37000D02*
X36000Y-38000D01*
X33000Y-34000D02*
X36000Y-37000D01*
G54D27*
X61500Y-41000D02*
X60500Y-41000D01*
X60500Y-41000D02*
X59500Y-42000D01*
X59500Y-42000D02*
X47000Y-42000D01*
X47000Y-42000D02*
X46000Y-41000D01*
X46000Y-41000D02*
X43500Y-41000D01*
G54D26*
X42000Y-41000D02*
X43500Y-41000D01*
G54D27*
X61500Y-42000D02*
X60500Y-42000D01*
X60500Y-42000D02*
X60000Y-42500D01*
X60000Y-42500D02*
X46500Y-42500D01*
X46500Y-42500D02*
X46000Y-42000D01*
X46000Y-42000D02*
X44500Y-42000D01*
G54D26*
X42000Y-42000D02*
X44500Y-42000D01*
X42000Y-43000D02*
X45500Y-43000D01*
G54D27*
X61500Y-43000D02*
X45500Y-43000D01*
G54D28*
X38125Y-56000D02*
X38125Y-58875D01*
X38125Y-58875D02*
X38000Y-59000D01*
X36000Y-49000D02*
X38625Y-49000D01*
X38625Y-49000D02*
X38625Y-50000D01*
X38625Y-50000D02*
X38625Y-51000D01*
X38625Y-51000D02*
X38625Y-52000D01*
X38625Y-52000D02*
X38125Y-52500D01*
X38125Y-52500D02*
X38125Y-54000D01*
X38125Y-54000D02*
X38125Y-56000D01*
G54D26*
X56450Y-47250D02*
X55750Y-47250D01*
X55750Y-51250D02*
X55500Y-51000D01*
X56450Y-51250D02*
X55750Y-51250D01*
X55750Y-47250D02*
X55500Y-47000D01*
X55250Y-43750D02*
X55000Y-44000D01*
G54D27*
X44500Y-54250D02*
X45250Y-54250D01*
X45250Y-54250D02*
X45750Y-53750D01*
X44500Y-47750D02*
X45750Y-47750D01*
X44500Y-45750D02*
X45750Y-45750D01*
X44500Y-46750D02*
X45250Y-46750D01*
X45750Y-46250D02*
X45750Y-45750D01*
X45250Y-46750D02*
X45750Y-46250D01*
X45250Y-48250D02*
X45750Y-47750D01*
X45250Y-48250D02*
X44500Y-48250D01*
X44500Y-52750D02*
X45000Y-52750D01*
X45750Y-51750D02*
X44500Y-51750D01*
X45750Y-52000D02*
X45750Y-51750D01*
X45000Y-52750D02*
X45750Y-52000D01*
X45750Y-53750D02*
X44500Y-53750D01*
X48500Y-54750D02*
X48750Y-54750D01*
X48750Y-54750D02*
X49500Y-55500D01*
X48500Y-48750D02*
X48750Y-48750D01*
X48750Y-48750D02*
X49500Y-49500D01*
G54D26*
X56450Y-43750D02*
X55250Y-43750D01*
X56500Y-32000D02*
X55500Y-33000D01*
X55000Y-29500D02*
X55000Y-30000D01*
X55500Y-30500D02*
X56500Y-30500D01*
X56500Y-30500D02*
X56500Y-32000D01*
X55000Y-30000D02*
X55500Y-30500D01*
X40500Y-32000D02*
X40500Y-34000D01*
X38000Y-34000D02*
X40500Y-34000D01*
G54D28*
X48500Y-46750D02*
X49750Y-46750D01*
X49750Y-46750D02*
X50250Y-46250D01*
X50250Y-46250D02*
X51000Y-46250D01*
G54D29*
X50250Y-46250D02*
X51000Y-46250D01*
X49750Y-46750D02*
X50250Y-46250D01*
G54D28*
X56000Y-44250D02*
X56450Y-44250D01*
G54D29*
X56450Y-44250D02*
X56000Y-44250D01*
X56000Y-44250D02*
X55250Y-45000D01*
G54D28*
X54000Y-45000D02*
X55250Y-45000D01*
X55250Y-45000D02*
X56000Y-44250D01*
X54000Y-46250D02*
X54000Y-45000D01*
X48500Y-47250D02*
X50750Y-47250D01*
X50750Y-47250D02*
X51000Y-47500D01*
G54D29*
X50750Y-47250D02*
X51000Y-47500D01*
G54D28*
X48500Y-47750D02*
X49500Y-47750D01*
X49500Y-47750D02*
X50500Y-48750D01*
X50500Y-48750D02*
X51000Y-48750D01*
G54D29*
X49500Y-47750D02*
X50500Y-48750D01*
X50500Y-48750D02*
X51000Y-48750D01*
G54D28*
X48500Y-48250D02*
X49250Y-48250D01*
X49250Y-48250D02*
X51000Y-50000D01*
G54D29*
X49250Y-48250D02*
X51000Y-50000D01*
G54D28*
X56450Y-48750D02*
X56250Y-48750D01*
X56250Y-48750D02*
X55000Y-50000D01*
X55000Y-50000D02*
X54000Y-50000D01*
G54D29*
X55000Y-50000D02*
X54000Y-50000D01*
X56250Y-48750D02*
X55000Y-50000D01*
G54D28*
X51000Y-52500D02*
X50250Y-52500D01*
X50250Y-52500D02*
X50000Y-52750D01*
X50000Y-52750D02*
X48500Y-52750D01*
G54D29*
X50000Y-52750D02*
X50250Y-52500D01*
X48500Y-52750D02*
X50000Y-52750D01*
G54D28*
X48500Y-53250D02*
X49250Y-53250D01*
X49250Y-53250D02*
X51000Y-55000D01*
G54D29*
X49250Y-53250D02*
X51000Y-55000D01*
G54D28*
X54000Y-55000D02*
X55000Y-55000D01*
X55000Y-55000D02*
X56450Y-53550D01*
X56450Y-53550D02*
X56450Y-52750D01*
G54D29*
X56450Y-52750D02*
X56450Y-53550D01*
X56450Y-53550D02*
X55000Y-55000D01*
G54D27*
X27461Y-49016D02*
X27484Y-49016D01*
X33500Y-43000D02*
X36000Y-43000D01*
X27484Y-49016D02*
X31500Y-45000D01*
G54D26*
X27461Y-49016D02*
X22539Y-49016D01*
X22539Y-49016D02*
X22500Y-48977D01*
X22500Y-48977D02*
X22500Y-47000D01*
X22500Y-47000D02*
X23500Y-46000D01*
X32500Y-48035D02*
X30465Y-48035D01*
X30465Y-48035D02*
X29000Y-49500D01*
X32535Y-48035D02*
X34500Y-50000D01*
X34500Y-50000D02*
X36000Y-50000D01*
X32500Y-48035D02*
X32535Y-48035D01*
G54D28*
X42000Y-50000D02*
X41500Y-50000D01*
X40500Y-51000D02*
X39375Y-51000D01*
X41500Y-50000D02*
X40500Y-51000D01*
G54D27*
X43750Y-47500D02*
X43750Y-48750D01*
X42500Y-50000D02*
X42000Y-50000D01*
X43750Y-48750D02*
X42500Y-50000D01*
X44500Y-47250D02*
X44000Y-47250D01*
X44000Y-47250D02*
X43750Y-47500D01*
G54D26*
X35250Y-53000D02*
X36000Y-53000D01*
X33000Y-56500D02*
X33000Y-55250D01*
X33000Y-55250D02*
X35250Y-53000D01*
X32500Y-49965D02*
X30535Y-49965D01*
X30535Y-49965D02*
X30500Y-50000D01*
X32965Y-49965D02*
X34000Y-51000D01*
X34000Y-51000D02*
X36000Y-51000D01*
X32500Y-49965D02*
X32965Y-49965D01*
G54D28*
X39375Y-49000D02*
X40000Y-49000D01*
X41000Y-48000D02*
X42000Y-48000D01*
X40000Y-49000D02*
X41000Y-48000D01*
G54D27*
X44500Y-45250D02*
X44000Y-45250D01*
X42750Y-47750D02*
X42500Y-48000D01*
X42750Y-46500D02*
X42750Y-47750D01*
X44000Y-45250D02*
X42750Y-46500D01*
X42500Y-48000D02*
X42000Y-48000D01*
G54D28*
X54000Y-47500D02*
X56250Y-45250D01*
X56250Y-45250D02*
X56450Y-45250D01*
G54D29*
X56250Y-45250D02*
X56450Y-45250D01*
G54D30*
X59500Y-51500D02*
X59500Y-51000D01*
X61500Y-49000D02*
X61500Y-48000D01*
X59500Y-51000D02*
X61500Y-49000D01*
G54D27*
X58550Y-52750D02*
X59500Y-52750D01*
X58550Y-51750D02*
X59500Y-51750D01*
G54D30*
X59500Y-51500D02*
X59500Y-52000D01*
G54D27*
X58550Y-52250D02*
X59250Y-52250D01*
G54D30*
X59500Y-53000D02*
X59500Y-52000D01*
G54D27*
X59750Y-51250D02*
X59500Y-51500D01*
X58550Y-51250D02*
X59750Y-51250D01*
X59250Y-52250D02*
X59500Y-52000D01*
X59500Y-51750D02*
X59500Y-52000D01*
X59500Y-52750D02*
X59500Y-53000D01*
X58550Y-44750D02*
X59500Y-44750D01*
X59500Y-44750D02*
X59500Y-45000D01*
X58550Y-44250D02*
X59500Y-44250D01*
X58550Y-45250D02*
X59250Y-45250D01*
X59500Y-44250D02*
X59500Y-44000D01*
X58550Y-43750D02*
X59500Y-43750D01*
X59500Y-43750D02*
X59500Y-44000D01*
G54D30*
X59500Y-45000D02*
X59500Y-44000D01*
G54D27*
X59250Y-45250D02*
X59500Y-45000D01*
G54D30*
X61500Y-46000D02*
X60500Y-46000D01*
X60500Y-46000D02*
X59500Y-45000D01*
G54D26*
X34500Y-52000D02*
X36000Y-52000D01*
X33000Y-53500D02*
X34500Y-52000D01*
G54D27*
X58550Y-47250D02*
X60250Y-47250D01*
X60250Y-47250D02*
X60000Y-47500D01*
X58550Y-48750D02*
X59250Y-48750D01*
X59500Y-48250D02*
X59500Y-48500D01*
X58550Y-47750D02*
X59500Y-47750D01*
X58550Y-48250D02*
X59500Y-48250D01*
X59250Y-48750D02*
X59500Y-48500D01*
X59500Y-47750D02*
X59500Y-48000D01*
G54D30*
X59500Y-48000D02*
X59500Y-48500D01*
X61500Y-47000D02*
X60500Y-47000D01*
X60500Y-47000D02*
X60000Y-47500D01*
X60000Y-47500D02*
X59500Y-48000D01*
G54D28*
X54000Y-52500D02*
X54750Y-52500D01*
X54750Y-52500D02*
X55500Y-51750D01*
X55500Y-51750D02*
X56450Y-51750D01*
X54750Y-52500D02*
X55500Y-51750D01*
X55500Y-51750D02*
X56450Y-51750D01*
G54D29*
X56450Y-51750D02*
X55500Y-51750D01*
X55500Y-51750D02*
X54750Y-52500D01*
G54D28*
X54000Y-48750D02*
X54750Y-48750D01*
X54750Y-48750D02*
X55750Y-47750D01*
X55750Y-47750D02*
X56450Y-47750D01*
G54D29*
X55750Y-47750D02*
X54750Y-48750D01*
X56450Y-47750D02*
X55750Y-47750D01*
G54D26*
X31250Y-60250D02*
X32000Y-59500D01*
X29000Y-59000D02*
X29000Y-59750D01*
X29000Y-59750D02*
X29500Y-60250D01*
X29500Y-60250D02*
X31250Y-60250D01*
X35750Y-54000D02*
X36000Y-54000D01*
X33000Y-59500D02*
X33000Y-58500D01*
X33000Y-58500D02*
X34500Y-57000D01*
X34500Y-55250D02*
X35750Y-54000D01*
X34500Y-57000D02*
X34500Y-55250D01*
X30000Y-56000D02*
X31500Y-56000D01*
X31500Y-56000D02*
X32000Y-56500D01*
X30500Y-53500D02*
X29000Y-52000D01*
X32000Y-53500D02*
X30500Y-53500D01*
X22539Y-41516D02*
X27461Y-41516D01*
X22539Y-41516D02*
X22539Y-39461D01*
X22539Y-39461D02*
X23500Y-38500D01*
G54D28*
X39375Y-52000D02*
X40000Y-52000D01*
X41000Y-51000D02*
X42000Y-51000D01*
X40000Y-52000D02*
X41000Y-51000D01*
G54D27*
X42500Y-51000D02*
X42000Y-51000D01*
X44500Y-49000D02*
X42500Y-51000D01*
X44500Y-48750D02*
X44500Y-49000D01*
G54D28*
X42000Y-49000D02*
X41500Y-49000D01*
X40500Y-50000D02*
X39375Y-50000D01*
X41500Y-49000D02*
X40500Y-50000D01*
G54D27*
X42750Y-48750D02*
X42500Y-49000D01*
X42500Y-49000D02*
X42000Y-49000D01*
X44500Y-46250D02*
X43750Y-46250D01*
X43250Y-46750D02*
X43250Y-48000D01*
X43750Y-46250D02*
X43250Y-46750D01*
X42750Y-48500D02*
X42750Y-48750D01*
X43250Y-48000D02*
X42750Y-48500D01*
G54D28*
X38875Y-54875D02*
X38875Y-54000D01*
X39000Y-55000D02*
X38875Y-54875D01*
G54D27*
X44500Y-51250D02*
X43750Y-51250D01*
X43750Y-51250D02*
X43250Y-51750D01*
X43250Y-51750D02*
X43250Y-55500D01*
X42750Y-56000D02*
X42000Y-56000D01*
X43250Y-55500D02*
X42750Y-56000D01*
G54D28*
X38875Y-56875D02*
X38875Y-56000D01*
X39000Y-57000D02*
X38875Y-56875D01*
G54D27*
X43750Y-55750D02*
X42500Y-57000D01*
X43750Y-52500D02*
X43750Y-55750D01*
X44000Y-52250D02*
X43750Y-52500D01*
X42500Y-57000D02*
X42000Y-57000D01*
X44500Y-52250D02*
X44000Y-52250D01*
X48500Y-52250D02*
X47250Y-52250D01*
X46500Y-51500D02*
X46500Y-50000D01*
X47250Y-52250D02*
X46500Y-51500D01*
X48500Y-46250D02*
X47750Y-46250D01*
X48000Y-44500D02*
X47500Y-45000D01*
X47500Y-45000D02*
X47500Y-46000D01*
X48000Y-44500D02*
X48000Y-44000D01*
X47750Y-46250D02*
X47500Y-46000D01*
G54D26*
X56450Y-52250D02*
X57250Y-52250D01*
X57500Y-53000D02*
X58500Y-54000D01*
X57500Y-52500D02*
X57500Y-53000D01*
X57250Y-52250D02*
X57500Y-52500D01*
X56450Y-48250D02*
X57250Y-48250D01*
X57500Y-49000D02*
X58500Y-50000D01*
X57500Y-48500D02*
X57500Y-49000D01*
X57250Y-48250D02*
X57500Y-48500D01*
X56450Y-44750D02*
X57250Y-44750D01*
X57250Y-44750D02*
X57500Y-44500D01*
X50000Y-31500D02*
X50000Y-29500D01*
G54D30*
X45400Y-30500D02*
X47500Y-30500D01*
X48500Y-31500D02*
X50000Y-31500D01*
X47500Y-30500D02*
X48500Y-31500D01*
G54D28*
X57550Y-29050D02*
X62450Y-29050D01*
X57550Y-29130D02*
X62450Y-29130D01*
X57550Y-29210D02*
X62450Y-29210D01*
X57550Y-29290D02*
X62450Y-29290D01*
X57550Y-29370D02*
X62450Y-29370D01*
X57550Y-29450D02*
X62450Y-29450D01*
X57550Y-29530D02*
X62450Y-29530D01*
X57550Y-29610D02*
X62450Y-29610D01*
X57550Y-29690D02*
X62450Y-29690D01*
X57550Y-29770D02*
X62450Y-29770D01*
X57550Y-29850D02*
X62450Y-29850D01*
X57550Y-29930D02*
X62450Y-29930D01*
X57550Y-30010D02*
X62450Y-30010D01*
X57550Y-30090D02*
X62450Y-30090D01*
X57550Y-30170D02*
X62450Y-30170D01*
X57550Y-30250D02*
X62450Y-30250D01*
X57550Y-30330D02*
X62450Y-30330D01*
X57550Y-30410D02*
X62450Y-30410D01*
X57550Y-30490D02*
X62450Y-30490D01*
X57550Y-30570D02*
X62450Y-30570D01*
X57550Y-30650D02*
X62450Y-30650D01*
X57550Y-30730D02*
X62450Y-30730D01*
X57550Y-30810D02*
X62450Y-30810D01*
X57550Y-30890D02*
X62450Y-30890D01*
X57550Y-30970D02*
X62450Y-30970D01*
X57550Y-31050D02*
X62450Y-31050D01*
X57550Y-31130D02*
X62450Y-31130D01*
X57550Y-31210D02*
X62450Y-31210D01*
X57550Y-31290D02*
X62450Y-31290D01*
X57550Y-31370D02*
X62450Y-31370D01*
X57550Y-31450D02*
X62450Y-31450D01*
X57550Y-31530D02*
X62450Y-31530D01*
X57550Y-31610D02*
X62450Y-31610D01*
X57550Y-31690D02*
X62450Y-31690D01*
X57550Y-31770D02*
X62450Y-31770D01*
X57550Y-31850D02*
X62450Y-31850D01*
X57550Y-31930D02*
X62450Y-31930D01*
X57550Y-32010D02*
X62450Y-32010D01*
X57550Y-32090D02*
X62450Y-32090D01*
X57550Y-32170D02*
X62450Y-32170D01*
X57550Y-32250D02*
X62450Y-32250D01*
X57550Y-32330D02*
X62450Y-32330D01*
X57550Y-32410D02*
X62450Y-32410D01*
X57550Y-32490D02*
X62450Y-32490D01*
X57550Y-32570D02*
X62450Y-32570D01*
X57550Y-32650D02*
X62450Y-32650D01*
X57550Y-32730D02*
X62450Y-32730D01*
X57550Y-32810D02*
X62450Y-32810D01*
X57550Y-32890D02*
X62450Y-32890D01*
X57550Y-32970D02*
X62450Y-32970D01*
X57550Y-33050D02*
X62450Y-33050D01*
X57550Y-33130D02*
X62450Y-33130D01*
X57550Y-33210D02*
X62450Y-33210D01*
X57550Y-33290D02*
X62450Y-33290D01*
X57550Y-33370D02*
X62450Y-33370D01*
X57550Y-33450D02*
X62450Y-33450D01*
X57550Y-33530D02*
X62450Y-33530D01*
X57550Y-33610D02*
X62450Y-33610D01*
X57550Y-33690D02*
X62450Y-33690D01*
X57550Y-33770D02*
X62450Y-33770D01*
X57550Y-33850D02*
X62450Y-33850D01*
X57550Y-33930D02*
X62450Y-33930D01*
X57550Y-34010D02*
X62450Y-34010D01*
X53050Y-34090D02*
X62450Y-34090D01*
X53050Y-34170D02*
X62450Y-34170D01*
X53050Y-34250D02*
X62450Y-34250D01*
X53050Y-34330D02*
X62450Y-34330D01*
X53050Y-34410D02*
X62450Y-34410D01*
X53050Y-34490D02*
X62450Y-34490D01*
X53050Y-34570D02*
X62450Y-34570D01*
X53050Y-34650D02*
X62450Y-34650D01*
X53050Y-34730D02*
X62450Y-34730D01*
X53050Y-34810D02*
X62450Y-34810D01*
X53050Y-34890D02*
X62450Y-34890D01*
X53050Y-34970D02*
X62450Y-34970D01*
X53050Y-35050D02*
X62450Y-35050D01*
X53050Y-35130D02*
X62450Y-35130D01*
X53050Y-35210D02*
X62450Y-35210D01*
X53050Y-35290D02*
X62450Y-35290D01*
X53050Y-35370D02*
X62450Y-35370D01*
X53050Y-35450D02*
X62450Y-35450D01*
X53050Y-35530D02*
X62450Y-35530D01*
X53050Y-35610D02*
X62450Y-35610D01*
X53050Y-35690D02*
X62450Y-35690D01*
X53050Y-35770D02*
X62450Y-35770D01*
X53050Y-35850D02*
X62450Y-35850D01*
X53050Y-35930D02*
X62450Y-35930D01*
X53050Y-36010D02*
X59950Y-36010D01*
X53050Y-36090D02*
X59950Y-36090D01*
X53050Y-36170D02*
X59950Y-36170D01*
X53050Y-36250D02*
X59950Y-36250D01*
X53050Y-36330D02*
X59950Y-36330D01*
X53050Y-36410D02*
X59950Y-36410D01*
X53050Y-36490D02*
X59950Y-36490D01*
X53050Y-36570D02*
X59950Y-36570D01*
X53050Y-36650D02*
X59950Y-36650D01*
X53050Y-36730D02*
X59950Y-36730D01*
X53050Y-36810D02*
X59950Y-36810D01*
X53050Y-36890D02*
X59950Y-36890D01*
X53050Y-36970D02*
X59950Y-36970D01*
X53050Y-37050D02*
X59950Y-37050D01*
X53050Y-37130D02*
X59950Y-37130D01*
X53050Y-37210D02*
X59950Y-37210D01*
X53050Y-37290D02*
X59950Y-37290D01*
X53050Y-37370D02*
X59950Y-37370D01*
X53050Y-37450D02*
X59950Y-37450D01*
X53050Y-37530D02*
X59950Y-37530D01*
X46550Y-37610D02*
X59950Y-37610D01*
X46550Y-37690D02*
X59950Y-37690D01*
X46550Y-37770D02*
X59950Y-37770D01*
X46550Y-37850D02*
X59950Y-37850D01*
X46550Y-37930D02*
X59950Y-37930D01*
X46550Y-38010D02*
X59950Y-38010D01*
X46550Y-38090D02*
X59950Y-38090D01*
X46550Y-38170D02*
X59950Y-38170D01*
X46550Y-38250D02*
X59950Y-38250D01*
X46550Y-38330D02*
X59950Y-38330D01*
X46550Y-38410D02*
X59950Y-38410D01*
X46550Y-38490D02*
X59950Y-38490D01*
X46550Y-38570D02*
X59950Y-38570D01*
X46550Y-38650D02*
X59950Y-38650D01*
X46550Y-38730D02*
X59950Y-38730D01*
X46550Y-38810D02*
X59950Y-38810D01*
X46550Y-38890D02*
X59950Y-38890D01*
X46550Y-38970D02*
X59950Y-38970D01*
X46550Y-39050D02*
X59950Y-39050D01*
X46550Y-39130D02*
X59950Y-39130D01*
X46550Y-39210D02*
X59950Y-39210D01*
X46550Y-39290D02*
X59950Y-39290D01*
X46550Y-39370D02*
X59950Y-39370D01*
X46550Y-39450D02*
X59950Y-39450D01*
X46601Y-39530D02*
X59950Y-39530D01*
X46681Y-39610D02*
X59950Y-39610D01*
X46761Y-39690D02*
X59950Y-39690D01*
X46841Y-39770D02*
X59950Y-39770D01*
X46921Y-39850D02*
X59950Y-39850D01*
X47001Y-39930D02*
X59950Y-39930D01*
X47081Y-40010D02*
X59919Y-40010D01*
X47161Y-40090D02*
X59839Y-40090D01*
X47241Y-40170D02*
X59759Y-40170D01*
X47321Y-40250D02*
X59679Y-40250D01*
X47401Y-40330D02*
X59599Y-40330D01*
X47481Y-40410D02*
X59519Y-40410D01*
X47561Y-40490D02*
X59439Y-40490D01*
X47641Y-40570D02*
X59359Y-40570D01*
X47721Y-40650D02*
X59279Y-40650D01*
X47801Y-40730D02*
X59199Y-40730D01*
X47881Y-40810D02*
X59119Y-40810D01*
X47961Y-40890D02*
X59039Y-40890D01*
X58979Y-40950D02*
X59950Y-39979D01*
X59950Y-35950D01*
X62450Y-35950D01*
X62450Y-29050D01*
X57550Y-29050D01*
X57550Y-34050D01*
X53050Y-34050D01*
X53050Y-37550D01*
X46550Y-37550D01*
X46550Y-39479D01*
X48020Y-40950D01*
X58979Y-40950D01*
M02*
