G04 (created by PCBNEW-RS274X (2010-03-14)-final) date Sun 26 Sep 2010 04:53:47 PM PDT*
G01*
G70*
G90*
%MOIN*%
G04 Gerber Fmt 3.4, Leading zero omitted, Abs format*
%FSLAX34Y34*%
G04 APERTURE LIST*
%ADD10C,0.006000*%
%ADD11C,0.015000*%
%ADD12C,0.420000*%
%ADD13C,0.075000*%
%ADD14R,0.075000X0.075000*%
%ADD15C,0.090000*%
%ADD16R,0.090000X0.090000*%
%ADD17R,0.370000X0.370000*%
%ADD18R,0.100000X0.100000*%
%ADD19C,0.100000*%
%ADD20C,0.114500*%
G04 APERTURE END LIST*
G54D10*
G54D11*
X21000Y-28000D02*
X27500Y-28000D01*
X21000Y-61500D02*
X21000Y-28000D01*
X27500Y-61500D02*
X21000Y-61500D01*
X63500Y-61500D02*
X27500Y-61500D01*
X63500Y-28000D02*
X63500Y-61500D01*
X27500Y-28000D02*
X63500Y-28000D01*
X21000Y-61500D02*
X21000Y-28000D01*
G54D12*
X45400Y-30500D03*
X33600Y-30500D03*
G54D13*
X29000Y-49500D03*
X29000Y-50500D03*
X30500Y-50000D03*
X30500Y-51000D03*
X33500Y-45500D03*
X32500Y-45500D03*
X61000Y-37000D03*
X62000Y-37000D03*
X52000Y-33500D03*
X51000Y-33500D03*
X46500Y-50000D03*
X45500Y-50000D03*
X43500Y-44000D03*
X44500Y-44000D03*
X47500Y-34000D03*
X48500Y-34000D03*
X48000Y-44000D03*
X47000Y-44000D03*
X46500Y-56000D03*
X45500Y-56000D03*
G54D14*
X56500Y-30500D03*
G54D13*
X56500Y-29500D03*
G54D14*
X50000Y-31500D03*
G54D13*
X51000Y-31500D03*
G54D15*
X38000Y-34000D03*
G54D16*
X33000Y-34000D03*
G54D15*
X50000Y-29500D03*
G54D16*
X55000Y-29500D03*
G54D14*
X36000Y-38000D03*
G54D13*
X36000Y-39000D03*
X36000Y-40000D03*
X36000Y-41000D03*
X36000Y-42000D03*
X36000Y-43000D03*
X36000Y-44000D03*
X36000Y-45000D03*
X36000Y-46000D03*
X36000Y-47000D03*
X36000Y-48000D03*
X36000Y-49000D03*
X36000Y-50000D03*
X36000Y-51000D03*
X36000Y-52000D03*
X36000Y-53000D03*
X36000Y-54000D03*
X36000Y-55000D03*
X36000Y-56000D03*
X36000Y-57000D03*
X42000Y-57000D03*
X42000Y-56000D03*
X42000Y-55000D03*
X42000Y-54000D03*
X42000Y-53000D03*
X42000Y-52000D03*
X42000Y-51000D03*
X42000Y-50000D03*
X42000Y-49000D03*
X42000Y-48000D03*
X42000Y-47000D03*
X42000Y-46000D03*
X42000Y-45000D03*
X42000Y-44000D03*
X42000Y-43000D03*
X42000Y-42000D03*
X42000Y-41000D03*
X42000Y-40000D03*
X42000Y-39000D03*
X42000Y-38000D03*
X32500Y-48035D03*
X32500Y-49965D03*
X54000Y-52500D03*
X51000Y-52500D03*
X43500Y-34000D03*
X40500Y-34000D03*
X54000Y-46250D03*
X51000Y-46250D03*
X54000Y-47500D03*
X51000Y-47500D03*
X54000Y-48750D03*
X51000Y-48750D03*
X54000Y-50000D03*
X51000Y-50000D03*
X54000Y-55000D03*
X51000Y-55000D03*
G54D14*
X40000Y-60000D03*
G54D13*
X41000Y-60000D03*
G54D14*
X23000Y-30000D03*
G54D13*
X23000Y-31000D03*
X23000Y-32000D03*
X23000Y-33000D03*
X23000Y-34000D03*
X23000Y-35000D03*
G54D15*
X49000Y-36000D03*
X50000Y-36000D03*
G54D16*
X51000Y-36000D03*
G54D17*
X54500Y-39500D03*
G54D15*
X55500Y-33000D03*
G54D16*
X54500Y-33000D03*
G54D15*
X53500Y-33000D03*
G54D13*
X40500Y-32000D03*
X39500Y-32000D03*
X29000Y-56000D03*
X29000Y-59000D03*
X30000Y-59000D03*
X30000Y-56000D03*
X29000Y-55000D03*
X29000Y-52000D03*
G54D14*
X29500Y-43500D03*
G54D13*
X29500Y-42500D03*
X29500Y-41500D03*
G54D16*
X58500Y-57000D03*
G54D15*
X56500Y-57000D03*
G54D13*
X44500Y-42000D03*
X44500Y-39000D03*
X45500Y-43000D03*
X45500Y-40000D03*
X43500Y-41000D03*
X43500Y-38000D03*
G54D18*
X61500Y-48000D03*
G54D19*
X61500Y-47000D03*
X61500Y-46000D03*
X61500Y-45000D03*
X61500Y-44000D03*
X61500Y-43000D03*
X61500Y-42000D03*
X61500Y-41000D03*
G54D13*
X26500Y-46000D03*
X23500Y-46000D03*
X26500Y-38500D03*
X23500Y-38500D03*
G54D20*
X22539Y-50984D03*
X22539Y-49016D03*
X27461Y-49016D03*
X27461Y-51000D03*
X22539Y-43484D03*
X22539Y-41516D03*
X27461Y-41516D03*
X27461Y-43500D03*
M02*
